<?xml version="1.0" encoding="utf-8"?>
<!-- Generator: Adobe Illustrator 22.1.0, SVG Export Plug-In . SVG Version: 6.00 Build 0)  -->
<svg version="1.1" id="Слой_1" xmlns="http://www.w3.org/2000/svg" xmlns:xlink="http://www.w3.org/1999/xlink" x="0px" y="0px"
	 viewBox="0 0 189.6 199.7" style="enable-background:new 0 0 189.6 199.7;" xml:space="preserve">
<g>
	<path d="M149.6,120c0,22.5,0,45,0,67.5c0,9.7-2.6,12.2-12.1,12.3c-13.2,0-26.3,0-39.5,0c-9.6,0-13-4.7-10-13.8
		c10.6-33.2,21.3-66.5,32-99.7c1.1-3.4,0.9-5.6-1.9-8.3c-10-9.7-9.8-9.7-22.6-3.6c-27.6,13.2-55.2,26.3-82.8,39.4
		c-6.6,3.1-12.5-0.1-12.7-7.4C-0.1,87.2,0,68,0.1,48.9C0.2,43.1,3.7,40,9.4,40c43.5,0,87-0.1,130.5,0c6.9,0,9.7,3.2,9.7,10.9
		C149.7,74,149.6,97,149.6,120z M10.1,49.8c0,18.5,0,36.3,0,54.6c1.7-0.7,2.9-1.1,4.1-1.7c29.6-14.2,59.3-28.3,88.9-42.5
		c4.8-2.3,8.9-2,12.7,2c3.1,3.3,6.1,6.7,9.6,9.5c5.8,4.7,6.4,9.9,4.1,16.8c-10.4,31.3-20.4,62.8-30.5,94.2c-0.7,2.3-1.2,4.6-1.8,6.9
		c14.5,0,28.6,0,42.7,0c0-46.8,0-93.1,0-139.8C96.4,49.8,53.4,49.8,10.1,49.8z"/>
	<path d="M179.9,9.7c-2.7,0-4.6,0-6.6,0c-41.3,0-82.7,0-124,0c-3.8,0-8.1,0.5-9.1-4.7c-0.6-3.3,2.7-5,9.2-5c42.5,0,85,0,127.5,0
		c10.4,0,12.6,2.3,12.6,12.6c0,45.7,0,91.3,0,137c0,3.9,1.4,9.6-4.6,9.8c-6.1,0.1-4.9-5.6-4.9-9.6c-0.1-44.5,0-89,0-133.5
		C179.9,14.4,179.9,12.4,179.9,9.7z"/>
	<path d="M160.1,29.6c-2.6,0-4.5,0-6.5,0c-41.5,0-82.9,0-124.4,0c-3.8,0-8.7,0.7-8.7-4.8c0-5.4,4.8-4.8,8.7-4.8
		c42.8,0,85.6,0,128.4,0c9.5,0,12.1,2.6,12.1,12.2c0,46.1,0,92.3,0,138.4c0,3.7,0.7,8.7-4.7,8.8c-5.5,0.1-4.8-4.8-4.8-8.6
		c0-44.8,0-89.6,0-134.4C160.1,34.4,160.1,32.4,160.1,29.6z"/>
	<path d="M34.1,199.7c-8,0-16,0.1-24,0c-6.7-0.1-9.9-3.1-9.9-9.8c-0.2-15-0.1-30,0-45c0-4.1,1.9-7.3,5.9-9.1
		c5.4-2.5,10.8-5.1,16.2-7.7c3.9-1.9,7.4-1.3,10.5,1.6c12.9,12.3,25.9,24.5,38.5,37.1c1.8,1.8,2.6,5.9,2.1,8.6
		c-1.1,5.8-3.5,11.4-5.2,17.1c-1.6,5.3-5.2,7.3-10.5,7.2C49.7,199.6,41.9,199.7,34.1,199.7z M9.8,190c12.4,0,24,0,35.6,0
		c13.7,0,13.5,0,17.8-13.2c1-3.1,0.4-4.9-1.8-6.9c-10.9-10.3-21.7-20.6-32.6-30.9c-0.9-0.8-2.5-2-3.2-1.7c-5.1,2.1-10,4.5-14.9,7
		c-0.6,0.3-0.9,1.7-0.9,2.6C9.7,161,9.8,175.2,9.8,190z"/>
	<path d="M94.8,107.4c-0.1,0.5-0.3,1.8-0.7,3.1c-3.1,9.8-6.1,19.6-9.3,29.4c-2.5,7.5-8.2,9.2-14.2,4.3c-6.5-5.4-12.9-11-19.2-16.7
		c-5.3-4.8-4.3-11,2.2-14.2c9.7-4.8,19.4-9.4,29.3-13.8C89.1,96.6,94.7,100.1,94.8,107.4z M75.9,136.5c2.9-9.2,5.5-17.7,8.5-27.3
		c-9.3,4.4-17.1,8.1-25.7,12.1C64.5,126.5,69.8,131.1,75.9,136.5z"/>
</g>
</svg>
