<?xml version="1.0" encoding="utf-8"?>
<!-- Generator: Adobe Illustrator 22.1.0, SVG Export Plug-In . SVG Version: 6.00 Build 0)  -->
<svg version="1.1" id="Слой_1" xmlns="http://www.w3.org/2000/svg" xmlns:xlink="http://www.w3.org/1999/xlink" x="0px" y="0px"
	 viewBox="0 0 496 689.1" style="enable-background:new 0 0 496 689.1;" xml:space="preserve">
<style type="text/css">
	.st0{fill:#FFFFFF;}
</style>
<g>
	<path class="st0" d="M0,407.7c-0.1-16.8,13.5-30.8,30.2-30.9c16.7-0.1,30.6,13.7,30.7,30.5c0.1,16.5-13.5,30.4-30,30.6
		C14,438.1,0.1,424.6,0,407.7z"/>
	<path class="st0" d="M248,502.5c16.7-0.1,30.5,13.7,30.6,30.4c0.1,16.8-13.5,30.5-30.3,30.6c-16.8,0.1-30.6-13.6-30.7-30.3
		C217.5,516.6,231.3,502.6,248,502.5z"/>
	<path class="st0" d="M139.2,188.5c17,0,30.5,13.5,30.4,30.5c-0.1,16.8-14,30.5-30.7,30.3c-16.6-0.2-30.2-13.8-30.2-30.4
		C108.6,202.2,122.3,188.5,139.2,188.5z"/>
	<path class="st0" d="M357.2,188.5c17,0,30.5,13.6,30.5,30.5c-0.1,16.7-14,30.5-30.7,30.4c-16.5-0.2-30.3-13.9-30.3-30.3
		C326.5,202.3,340.3,188.5,357.2,188.5z"/>
	<path class="st0" d="M248.2,125.7c16.9,0,30.5,13.7,30.4,30.6c-0.1,16.5-13.7,30.1-30.3,30.3c-16.7,0.1-30.7-13.8-30.7-30.5
		C217.6,139.3,231.3,125.7,248.2,125.7z"/>
	<path class="st0" d="M248,312.2c-16.8,0-30.5-13.9-30.4-30.7c0.2-16.6,13.8-30.1,30.4-30.2c16.8-0.1,30.6,13.6,30.6,30.5
		C278.6,298.6,264.9,312.2,248,312.2z"/>
	<path class="st0" d="M169.7,344.8c-0.1,16.6-14.1,30.3-30.8,30.1c-16.4-0.2-30.1-14-30.2-30.4c0-16.9,14.2-31,30.9-30.7
		C156.4,314.2,169.8,328,169.7,344.8z"/>
	<path class="st0" d="M278.6,658.9c-0.1,16.8-13.9,30.4-30.8,30.2c-16.6-0.2-30.2-13.8-30.2-30.4c0-16.7,13.9-30.5,30.7-30.5
		C265.1,628.3,278.7,642.1,278.6,658.9z"/>
	<path class="st0" d="M278.6,407.2c0.1,16.8-13.6,30.6-30.3,30.7c-16.7,0.1-30.6-13.6-30.7-30.3c-0.1-16.6,13.7-30.6,30.3-30.8
		C264.5,376.7,278.5,390.6,278.6,407.2z"/>
	<path class="st0" d="M357,374.9c-16.6-0.1-30.5-14.2-30.4-30.7c0.1-16.5,14.3-30.5,30.8-30.4c16.7,0.1,30.4,14,30.3,30.7
		C387.6,361.3,373.7,375,357,374.9z"/>
	<path class="st0" d="M248.1,60.8c-16.8,0-30.6-13.8-30.5-30.5C217.7,13.8,231.4,0.1,248,0c16.8-0.1,30.6,13.6,30.7,30.5
		C278.6,47.3,265.1,60.9,248.1,60.8z"/>
	<path class="st0" d="M496,407.4c0,16.8-13.8,30.6-30.6,30.5c-16.5-0.1-30.2-13.7-30.3-30.2c-0.1-16.8,13.6-30.7,30.3-30.8
		C482.1,376.8,496,390.7,496,407.4z"/>
	<path class="st0" d="M0,156c0-16.9,13.7-30.4,30.7-30.3c16.7,0.1,30.1,13.6,30.2,30.3c0.1,16.8-13.8,30.7-30.5,30.6
		C13.6,186.6,0,172.8,0,156z"/>
	<path class="st0" d="M496,156.3c-0.1,16.7-14,30.5-30.7,30.3c-16.6-0.2-30.1-13.8-30.1-30.4c0-16.9,13.6-30.5,30.5-30.5
		C482.5,125.8,496,139.4,496,156.3z"/>
</g>
</svg>
