<?xml version="1.0" encoding="utf-8"?>
<!-- Generator: Adobe Illustrator 22.1.0, SVG Export Plug-In . SVG Version: 6.00 Build 0)  -->
<svg version="1.1" id="Слой_1" xmlns="http://www.w3.org/2000/svg" xmlns:xlink="http://www.w3.org/1999/xlink" x="0px" y="0px"
	 viewBox="0 0 856.5 751.5" style="enable-background:new 0 0 856.5 751.5;" xml:space="preserve">
<style type="text/css">
	.st0{fill:#FFFFFF;}
</style>
<g>
	<path class="st0" d="M428,319.9c-62.2,0-124.3,0-186.5,0c-13.4,0-22.2-8.9-21.4-21.5c0.4-6,3.2-10.7,7.9-14.5
		c40.5-32.5,81.1-65.1,121.6-97.7c21.4-17.2,42.9-34.4,64.3-51.7c8.8-7.1,18.2-7.2,26.9-0.2C503,184,565.3,233.6,627.5,283.3
		c7.7,6.2,10.5,14,8,22.4c-2.3,7.9-9.3,13.5-17.6,14.1c-2,0.1-4,0.1-6,0.1C550.6,319.9,489.3,319.9,428,319.9z M558.4,279.8
		c-1.5-1.4-2.1-2-2.7-2.5c-41.8-33.3-83.6-66.6-125.4-100c-2.4-1.9-3.8-1.5-5.9,0.2c-41.1,33.1-82.3,66.2-123.5,99.2
		c-1,0.8-2.3,1.1-3.4,1.7c0.4,0.5,0.9,0.9,1.3,1.4C384.9,279.8,471.1,279.8,558.4,279.8z"/>
	<path class="st0" d="M796.4,292c8.9-9,17.1-17.4,25.4-25.8c4.5-4.5,9.8-6.8,16.2-6.2c8,0.7,13.8,4.7,16.9,12.2
		c3.2,7.9,1.8,15.2-3.9,21.4c-5.5,6-11.5,11.6-17.2,17.4c-14.1,14.1-28.3,28.3-42.5,42.4c-8.4,8.4-20.1,8.8-28.6,0.5
		c-20-19.8-40-39.7-59.7-59.8c-8.2-8.3-7.9-20.6-0.1-28.3c8.1-7.9,20.2-7.9,28.7,0.3c6.7,6.5,13.2,13.2,19.8,19.7
		c1,1,2.1,1.9,4.4,2.5c-1.3-9-2.2-18-3.9-26.9C730.7,148.1,639.4,60.1,525.1,43c-13.1-2-26.5-2.4-39.8-3.1
		c-11.7-0.6-20.2-8.5-20.3-19.7C464.8,8.9,473.4,0,485.2,0c34.8-0.1,68.6,5.6,101.5,16.9c110.6,38.1,191.6,136.9,207,252.7
		C794.7,276.7,795.4,283.8,796.4,292z"/>
	<path class="st0" d="M60.6,466.2c-9.5,9.6-18,18.5-26.8,27.1c-7.2,7-17.9,7.5-25.7,1.7c-7.7-5.7-10.3-16.4-5.9-25.1
		c1.1-2.2,2.7-4.2,4.5-5.9c19.1-19.3,38.3-38.5,57.5-57.7c9.2-9.2,21.5-9.4,30.6-0.3c19.6,19.5,39.2,39.1,58.6,58.7
		c8.2,8.3,8.1,20.1,0.2,28.2c-7.9,8-19.8,8.2-28.2,0.2c-6.5-6.2-12.7-12.7-19.1-19.1c-1.2-1.2-2.6-2.4-5.1-3.1
		c1.9,10.4,3.4,20.9,5.8,31.1C131.9,608.5,219.1,690,327.4,707.8c14.2,2.3,28.8,2.8,43.3,3.5c14.4,0.7,24,13.1,19.8,26.3
		c-2.7,8.4-10.3,13.8-19.9,13.8c-44.8,0.1-87.9-8.8-128.3-28C150.9,679.9,92.8,608.8,67.8,510.8c-1.8-7.1-3-14.3-4.2-21.6
		C62.5,482,61.7,474.7,60.6,466.2z"/>
	<path class="st0" d="M428.3,517.1c69.8,0,139.6,0,209.4,0c14.6,0,24.3,13.2,19.5,26.6c-2.5,7.1-7.7,11.6-15.2,13
		c-2.4,0.5-5,0.5-7.5,0.5c-137.8,0-275.6,0-413.3,0c-3.4,0-7.1-0.3-10.3-1.4c-9.5-3.3-14.7-12.9-12.8-22.8
		c1.8-9.4,10-15.9,20.2-15.9C288.4,517.1,358.4,517.1,428.3,517.1z"/>
	<path class="st0" d="M495.8,418.3c0,19.3-0.4,38.7,0.1,58c0.4,12.4-9.2,22.1-20.2,22.1c-11.3,0-20-9.3-20-21.7
		c-0.1-39.3-0.1-78.7,0-118c0-9.6,5.1-17,13.1-19.9c7.8-2.9,16.3-0.8,21.9,5.4c3.7,4,5.1,8.8,5.1,14.2
		C495.8,378.3,495.8,398.3,495.8,418.3z"/>
	<path class="st0" d="M551.3,417.7c0-19.8,0-39.7,0-59.5c0-11.8,7.9-20.3,19.1-20.8c10.7-0.5,19.6,7.6,20.8,18.9
		c0.1,0.8,0.1,1.7,0.1,2.5c0,39.3,0,78.6,0,118c0,6.5-1.9,12.2-7,16.5c-6.3,5.3-13.4,6.8-21,3.4c-7.7-3.4-12-9.4-12.1-18
		C551.2,458.4,551.3,438,551.3,417.7z"/>
	<path class="st0" d="M400.6,418.2c0,20,0.1,40-0.1,60c-0.1,8.6-5.4,16.1-13.2,18.9c-8,2.8-15.1,1-21.1-4.9
		c-4.1-4.1-5.9-9.2-5.9-14.9c0-39.7-0.1-79.3,0-119c0-12,9.1-21,20.4-20.9c11.2,0.2,19.8,9,19.8,20.8
		C400.7,378.2,400.6,398.2,400.6,418.2z"/>
	<path class="st0" d="M265.2,417.8c0-19.5,0-39,0-58.5c0-12.7,8.2-21.7,19.7-21.9c11.7-0.2,20.3,8.9,20.4,21.8
		c0.1,39.2,0.1,78.3,0,117.5c0,12.5-8.6,21.7-20,21.7c-11.4,0-20-9.2-20-21.6C265.2,457.1,265.3,437.4,265.2,417.8z"/>
</g>
</svg>
