<?xml version="1.0" encoding="utf-8"?>
<!-- Generator: Adobe Illustrator 22.1.0, SVG Export Plug-In . SVG Version: 6.00 Build 0)  -->
<svg version="1.1" id="Слой_1" xmlns="http://www.w3.org/2000/svg" xmlns:xlink="http://www.w3.org/1999/xlink" x="0px" y="0px"
	 viewBox="0 0 766.4 728.5" style="enable-background:new 0 0 766.4 728.5;" xml:space="preserve">
<style type="text/css">
	.st0{fill:#FFFFFF;}
</style>
<g>
	<path class="st0" d="M360.3,594.8c-6.1,7.7-8.6,16.2-9.7,25.2c-0.8,5.7-0.9,11.6-1,17.4c-0.3,10.2-6.3,17.2-16,18.5
		c-9.9,1.3-19.6-4.3-21.6-13.6c-2.6-12-4.1-24.2-6.1-36.4c-0.5-3.2-0.9-6.5-1.5-10.6c-3.5,3-6.3,5.8-9.4,8
		c-9,6.5-18.3,12.7-27.1,19.4c-4.2,3.2-7.7,7.2-11.2,11.1c-9.5,10.5-18.2,21.7-28.2,31.6C212.5,681,194,684.7,173.2,676
		c-29.5-12.3-55.7-29.8-80-50.4c-16.7-14.1-31.9-29.7-43.6-48.4c-9.3-14.8-15-30.7-15.8-48.3c-0.9-21.6-1.5-43.2-2.9-64.7
		c-1-15.2,4.7-26.9,16.5-36c3.2-2.5,4.9-5.3,4.3-9.4c-2.6-16.4,4.8-27.5,18.8-35c2.2-1.2,4.1-2.7,6.3-4.3c-3.2-4.4-6.1-8.6-9.1-12.8
		c-12.5-17-18.3-36.3-20.7-57c-3.9-34.8-6.2-69.9-14.3-104.2c-2.3-9.6-6.5-18.8-10-28.1c-4.1-10.9-8.8-21.5-12.4-32.6
		c-1.7-5.1-1.1-10.9-2.2-16.3c-1.8-8.8-4.5-17.3-6.3-26.1c-3.6-18.1-1.8-36,3.1-53.7c3-10.9,5.9-21.9,8.8-32.8
		C16.6,5.4,23.3,0.2,34.3,0C68-0.4,99,9.3,128.4,24.9c23.6,12.5,44.3,28.9,63,47.8c23,23.2,46.5,45.9,69.2,69.3
		c24.9,25.6,49.3,51.6,67.5,82.6c7,11.8,12.4,24.6,18.7,37.1c5.4-0.5,11.7-1.3,18.1-1.6c12.5-0.4,23.2,3.9,31.8,13
		c2.9,3,4.6,3.3,8.1,0.5c19.2-15.6,38.4-31.4,58.3-46.2c36.4-27.1,76.9-46,121.3-55.3c19.5-4.1,39.3-6.7,59.1-9.4
		c27.9-3.8,56-4.1,84.1-3.8c15.9,0.2,31.7,10.4,37,25.2c1.8,5,2.1,10.9,1.6,16.2c-2.4,23.5-5.7,46.9-13.1,69.5
		c-6.3,19.2-15.3,36.6-29.7,51.4c-14.6,14.9-24.6,33.2-32.5,52.3c-5.3,13-9.3,26.7-12.6,40.3c-1.5,6.1-0.2,12.9,0.2,19.3
		c1.5,21.8-8.5,38.9-22.3,54.3c-5.4,6-11.8,11.2-17.9,16.6c-2.3,2-2.8,3.4-1.2,6.2c7.4,13.7,10.8,28.4,11.3,44
		c1,29.4-7.7,56.5-19.2,82.9c-8.2,18.9-18.2,36.8-31.1,52.8c-14.6,18.1-31.7,33.1-55.5,37.3c-13.2,2.3-26.5,0.7-39.7-2
		c-23.4-4.7-46.3-10.8-67.2-23.1c-17.8-10.4-31.6-24.6-42.7-41.9c-12.6-19.8-22.3-40.9-31.1-62.5C361.6,597,361.1,596.2,360.3,594.8
		z M339,560.2c0.4,0,0.9,0,1.3,0c0.5-4.9,1.3-9.8,1.6-14.8c0.6-9,5.6-15,13.4-18.3c11-4.7,22.1,1.4,26.2,13.6
		c11.6,34.1,24.2,67.7,43.2,98.6c9.7,15.8,22.9,27.4,39.8,35c17.8,8,36.5,12.3,55.6,15.5c11.7,1.9,21.9-0.4,31.5-7.5
		c11.1-8.2,19.1-18.9,26.5-30.2c9.7-15,16.9-31.3,23.2-48c4.9-13.1,8.5-26.7,9.3-40.7c1.2-18.7-4.7-35-17.6-48.8
		c-11.8-12.6-6.2-30.4,10.6-34.5c1.8-0.4,3.8-0.8,5.1-1.9c7.2-6.1,14.9-11.8,21.1-18.8c6.7-7.6,12.7-16.1,10.8-27.4
		c-2.1-12.4-0.6-24.6,2.1-36.6c5-21.6,13.7-41.8,24.9-60.8c7.5-12.8,15.9-25.5,25.7-36.6c10-11.4,18.7-23.3,22.5-37.8
		c4.7-18,8.3-36.3,11.7-54.5c1.7-9.1,1-9.3-8.5-9.2c-9.8,0.1-19.6,0.6-29.4,0.8c-25.5,0.5-50.7,3.8-75.8,7.8
		c-56.7,9-105.9,33.6-149.8,69.7c-19.5,16.1-39.2,32-58.9,47.7c-8.3,6.7-20.8,5.8-27.4-2.5c-3.2-4-4.2-9.8-5.8-15
		c-1.1-3.5-2.6-6-6.5-6.6c-4-0.7-6.1,1.3-7.7,4.7c-3.7,8.1-10.1,11.9-19.1,11.6c-8.8-0.3-14.4-5.5-18-12.4
		c-4.2-8.1-7.1-16.8-10.7-25.2c-4.5-10.5-8.3-21.5-14-31.3c-16.5-28.6-39.1-52.6-61.7-76.3c-18.5-19.4-37.9-37.9-56.7-57.1
		c-18.6-18.9-38.1-36.7-61.2-50.2C96.2,50.3,74.9,42.4,51.9,38.8c-3.4-0.5-4.5,0.6-5.2,3.4c-1.8,6.6-3.5,13.2-5.6,19.7
		c-4.5,14.5-4.9,28.7,1.1,42.9c1.5,3.6,2.1,7.7,2.4,11.7c1.2,16.2,5.5,31.2,12.9,45.7c5,9.8,9,20.5,11.6,31.2
		C77,226.5,79.9,260.3,83.5,294c1.1,10.4,2.4,20.9,5.4,30.9c5,16.7,16.1,29.7,28.4,41.7c9.2,9.1,9.7,20.9,0.3,29.9
		c-5.8,5.6-12.4,10.7-19.4,14.7c-7.7,4.4-11.3,9.8-9.9,18.7c1.2,7.9-2.5,14.2-8,19.5c-2.6,2.5-5,5.5-7.9,7.6
		c-3.5,2.6-4.4,5.9-4.2,10c0.9,18.9,0.8,38,2.7,56.8c0.9,9.4,4,19,8.2,27.4c9.7,19.4,25.1,34.3,41.8,47.7
		c19.3,15.7,39.7,29.8,62.6,39.8c12,5.2,13.5,5.1,22.5-4.5c6.9-7.4,12.8-15.8,19.7-23.2c7.4-7.8,15.3-15.1,23.4-22.1
		c3.7-3.2,8.9-4.8,12.5-8.1c14.3-12.9,28.3-26.1,42.3-39.5c6.3-6.1,13.6-7,21.3-4.4c7.7,2.6,11.9,8.7,12.9,16.8
		C338.4,556,338.7,558.1,339,560.2z"/>
</g>
</svg>
