<?xml version="1.0" encoding="utf-8"?>
<!-- Generator: Adobe Illustrator 22.1.0, SVG Export Plug-In . SVG Version: 6.00 Build 0)  -->
<svg version="1.1" id="Слой_1" xmlns="http://www.w3.org/2000/svg" xmlns:xlink="http://www.w3.org/1999/xlink" x="0px" y="0px"
	 viewBox="0 0 512.8 505.3" style="enable-background:new 0 0 512.8 505.3;" xml:space="preserve">
<g>
	<path d="M302.8,505.2c-26.8,0-53.5,0.2-80.3-0.1c-8.7-0.1-17.4-1.6-26.1-2.4c-8.1-0.8-16.2-1-24.2-2.3c-21.5-3.5-43-7.3-64.4-11.3
		c-6.2-1.1-11-4.5-14.4-10.3c-17.3-29.1-33-59-45.1-90.5c-9.4-24.3-17.7-49-25.4-73.9c-5.1-16.5-8.9-33.6-12.3-50.6
		c-3.2-16.3-5.2-32.8-7.7-49.2c-0.8-5.5-0.5-11.3-2-16.6c-3-10.5,1.9-17.9,8.6-24.8c15.9-16.3,31.3-33.1,47.9-48.7
		c14.2-13.3,29.1-26.1,44.9-37.6c22.4-16.3,45.4-31.8,68.9-46.5c25.2-15.7,52-28.5,79.6-39.5c3.5-1.4,8.5-1.5,11.9-0.1
		c42,17.1,81.7,38.9,119.1,64.4c39.3,26.8,75,57.8,107.6,92.4c6.5,6.9,12.8,13.9,19,21c3.5,4,5,8.5,4.2,14.2
		c-2,14.5-2.6,29.2-5.2,43.6c-4.7,25.3-9.8,50.5-15.9,75.4c-10.7,43.4-27.9,84.4-47.8,124.3c-6.6,13.2-14.6,25.8-21.1,39
		c-4.7,9.6-12.5,13.2-22.2,14.9c-16,2.8-31.9,6.1-47.9,8.7c-10.2,1.6-20.6,2.2-30.9,3.3c-6.3,0.7-12.5,1.5-18.8,2.3
		C302.8,504.8,302.8,505,302.8,505.2z M316.2,475c10.9-1.2,24-2.3,36.9-4.2c12.2-1.8,24.1-4.7,36.3-6.7c5.8-0.9,10-3,12.8-8.6
		c4.3-8.7,9.4-17,13.8-25.6c20.5-39.9,37.2-81.3,49-124.5c4.1-15,7-30.3,10.2-45.5c1.9-9,3.4-18.1,4.7-27.2
		c1.7-12.1,3-24.2,4.2-36.3c0.2-1.6-0.5-3.7-1.5-4.9c-3.8-4.6-7.9-8.9-12-13.3c-22.7-24.5-47.1-47.1-73.5-67.4
		c-17.4-13.3-35.6-25.5-54-37.4c-26.4-17.1-54.5-31.3-83.4-43.8c-1.6-0.7-3.9-0.9-5.5-0.2c-12,5.4-24,10.7-35.8,16.6
		C190,60.4,162.5,76.4,137,95.4c-19.6,14.7-38.9,29.9-57.1,46.2c-16.8,15-32.1,31.7-47.9,47.7c-1.7,1.7-3.3,4.5-3.3,6.8
		c0,5.6,0.8,11.2,1.7,16.7c3.2,19.6,5.7,39.4,10.2,58.7c5.4,23.3,11.6,46.5,19.4,69.1c8.5,24.5,18.8,48.5,29.4,72.2
		c7,15.6,15.7,30.3,24,45.3c1.2,2.2,4.1,4.4,6.6,4.8c20.8,3.6,41.7,7.3,62.6,10.1c15,2,30.2,3.1,45.4,3.8c15.6,0.7,31.2,1,46.8,0.7
		C287.9,477.3,301.1,476,316.2,475z"/>
	<path d="M297.5,278.3c0.5-0.9,1-1.6,1.3-2.3c3.6-8.6,9.1-11.6,17.6-9.7c5.3,1.2,9.8,7.9,9.8,15.1c0,24,0,48,0.1,72
		c0,4.6,0,9.4,1.3,13.7c0.9,2.9,3.6,6.6,6.2,7.3c2.2,0.6,6.1-2,8.2-4.2c6.7-7.3,8.7-16.7,10-26.2c3.9-28.4-4.2-53.3-22.6-75
		c-12.3-14.5-27.8-24.3-45.9-29.2c-29.9-8-57.8-2.8-82.9,15.7c-20.5,15.1-33.2,35.5-36.9,60.4c-5.8,38.9,7.6,70.8,39.7,94.1
		c18.9,13.7,40.3,18.3,63.6,16.4c13.8-1.2,26.3-5.3,38.3-11.6c7.1-3.8,15.9-1.6,19.5,4.9c3.9,7.2,1.6,14.5-6,18.9
		c-11.9,6.8-24.4,12.1-38.2,13.8c-8.6,1-17.3,3.1-25.9,2.7c-22.7-1-43.9-7.3-63.2-19.9c-20.2-13.2-35.4-30.5-45.5-52.2
		c-6-12.8-9.3-26.4-10.8-40.6c-2.3-22.8,2.3-44.1,12.2-64.4c13.4-27.5,34.6-47.1,62.5-59.5c20.2-9,41.7-11.6,63.4-9
		c22.2,2.7,42.4,11.4,60.2,25.3c20.2,15.8,34.3,36.1,41.8,60.5c5.1,16.7,7.6,33.9,4.6,51.7c-2,11.8-4.7,23.3-10.9,33.5
		c-8.2,13.3-19.2,22.7-36.1,22c-11.3-0.5-19.8-6.2-25.9-15.3c-2.2-3.2-3.2-3.1-6-0.8c-15.3,12.5-32.5,18.1-52.4,15.2
		c-27.8-4.2-46-19.9-55.8-45.7c-10.8-28.2,1.7-59.1,22.9-75.6c17.1-13.3,36.4-16.8,57-12.7c7.8,1.6,15,6.3,22.5,9.5
		C295.6,277.3,296.5,277.8,297.5,278.3z M257.2,374.1c23.9,0.7,40.8-19.1,40.7-40.1c0-23.4-17.8-39.8-38.6-40.8
		c-24.3-1.2-42.8,17.8-42.8,40.8C216.5,356.1,233.8,374.7,257.2,374.1z"/>
	<path d="M335.7,186.5c12.3,2.4,24.2,4.8,36.1,7.1c5.3,1.1,10.5,2.4,15.8,3.1c1.3,0.2,4-1.6,4.2-2.7c1.6-10.9,1.2-21.6-2.7-32.1
		c-1.6-4.4-5.7-4.9-9.1-5.6c-15.4-3.2-30.9-6.4-46.4-8.8c-12.7-2-25.6-3.6-38.4-4.1c-21.9-0.9-43.9-1.7-65.9-0.9
		c-16.7,0.6-33.4,3.4-50,5.8c-14.1,2.1-28.1,5.5-42.2,7.4c-9.3,1.3-13.2,6.4-14.5,14.9c-1.4,8.8-2.3,17.6,1.5,26.9
		c18.1-3.6,36.3-7.2,53.8-10.7c1.7-3.8,2.7-7.7,4.8-10.7c3-4.2,7.6-5.8,12.8-4.6c5.7,1.3,9.3,5.1,10.7,10.6
		c3.8,14.4-7.1,29.4-22.9,32.2c-8.2,1.4-16.4,3.1-24.6,4.7c-11.1,2.1-22.2,4.7-33.4,6.2c-12.1,1.6-25-6.5-28.5-20.7
		c-3.9-15.8-3.8-31.4,0.5-46.9c4-14.5,13.2-23.8,28.1-27.5c25.7-6.4,51.7-11.2,78.2-13c11.4-0.8,22.7-1.4,34.1-2
		c10.8-0.5,21.6-1.6,32.3-1c19.9,1.1,39.9,2.8,59.7,5c15.3,1.7,30.6,4.3,45.8,7.3c7.8,1.5,15.5,4.1,23,7.1
		c9.7,3.8,14.5,12.3,17.7,21.6c3.8,10.9,5.1,22.3,4,33.6c-0.9,9.2-1.4,18.9-8,26.4c-6.5,7.5-14.6,11.4-24.9,9.4
		c-15.3-2.9-30.7-5.2-45.9-8.4c-9.6-2.1-20.2-2.4-27.2-11.2c-5.2-6.6-8.5-13.6-6.1-22.3c1.9-6.8,7.5-11.6,13.7-11.4
		c6.6,0.2,12.7,5.8,13.8,12.8C335.7,184.7,335.7,185.6,335.7,186.5z"/>
</g>
</svg>
