<?xml version="1.0" encoding="utf-8"?>
<!-- Generator: Adobe Illustrator 22.1.0, SVG Export Plug-In . SVG Version: 6.00 Build 0)  -->
<svg version="1.1" id="Слой_1" xmlns="http://www.w3.org/2000/svg" xmlns:xlink="http://www.w3.org/1999/xlink" x="0px" y="0px"
	 viewBox="0 0 751.8 662.7" style="enable-background:new 0 0 751.8 662.7;" xml:space="preserve">
<style type="text/css">
	.st0{fill:#FFFFFF;}
</style>
<g>
	<path class="st0" d="M226.3,82.6c0-14.4,0.1-28.2-0.1-42c0-1.1-1.4-2.5-2.5-3.2c-8.6-5.9-12-14.3-9.3-23.2
		C217.1,5.3,224.8,0,235.1,0c93.7,0,187.3,0,281,0c10.7,0,18.3,5.2,21,14.3c2.6,8.9-0.9,17.2-9.5,23.2c-1.2,0.8-2.4,2.5-2.4,3.8
		c-0.2,13.2-0.1,26.3,0,39.5c0,0.5,0.3,0.9,0.7,1.9c1.8,0,3.8,0,5.7,0c55.8,0,111.7,0.7,167.5-0.3c27.9-0.5,52.9,20.8,52.8,52.8
		c-0.5,118.5-0.2,237-0.2,355.4c0,38.5,0.3,77-0.3,115.5c-0.4,29.7-24.4,54.2-53.9,56.4c-2.7,0.2-5.3,0.3-8,0.3
		c-209.1,0-418.3,0-627.4,0c-26,0-45.4-11-56.5-34.6c-3.4-7.2-5.3-15.7-5.3-23.6C-0.1,446.9,0,289.2,0.1,131.6
		c0-27.6,21.7-48.9,49.4-48.9c56.7-0.1,113.3,0,170,0C221.6,82.6,223.7,82.6,226.3,82.6z M40,356.6c-0.1,1.5-0.2,2.8-0.2,4.1
		c0,80.3,0,160.7,0,241c0,13.4,7.9,21.1,21.8,21.1c209.5,0,419,0,628.5,0c14.1,0,21.5-7.5,21.5-21.7c0-79.7,0-159.3,0-239
		c0-1.8,0-3.6,0-5.5c-84.8,16.7-170.1,24.6-256.3,28.7c0,4.9,0.1,9.2,0,13.5c-0.1,7.7-3.3,13.7-9.9,18c-1.4,0.9-2.7,3.3-2.7,5
		c-0.3,10.5,0,21-0.2,31.5c-0.3,15.8-9.7,29.4-24.5,34.4c-28,9.5-56.3,9.5-84.4,0c-15.1-5.1-24.3-18.9-24.3-35
		c0-10.2,0.1-20.3-0.1-30.5c0-1.8-1.1-4.3-2.5-5.2c-7.1-4.6-10.5-10.9-10.2-19.3c0.1-4.1,0-8.2,0-12.5
		C209.9,381.2,124.8,373.3,40,356.6z M455.8,344.9c2.2,0,4,0.1,5.8,0c28.1-1.9,56.2-3.4,84.2-5.9c50.1-4.4,100.1-10.4,149.5-20.1
		c11.1-2.2,16.2-8.4,16.2-19.8c0-51.7,0-103.3,0-155c0-14.1-7.5-21.7-21.5-21.7c-209.4,0-418.9,0-628.3,0c-14.2,0-21.9,7.7-21.9,22
		c0,51.3,0,102.6,0,154c0,11.9,5.2,18.4,16.8,20.5c18.7,3.3,37.4,6.7,56.2,9.4c58.9,8.4,118.1,14,177.5,16.6c1.9,0.1,3.8,0,5.6,0
		c0.5-5,0.8-9.3,1.4-13.6c3.7-22.7,20-42.6,40.8-44.4c25-2.1,50.4-2.5,75.3,0.2c22.5,2.4,34.5,19.6,40,40.9
		C454.8,333.3,455,338.9,455.8,344.9z M266.7,82.2c1.5,0.2,2.7,0.4,3.8,0.4c70,0,139.9,0,209.9,0.1c3.4,0,4.7-0.9,4.7-4.5
		c-0.2-11.3-0.1-22.7-0.1-34c0-1.3-0.3-2.5-0.5-3.7c-72.8,0-145.2,0-217.8,0C266.7,54.5,266.7,68.1,266.7,82.2z M415.1,379.4
		c0-13.5,0-26.5,0-39.4c0-1.6-0.5-3.3-1-4.9c-2.2-6.9-5.5-9.2-12.8-9.2c-17.3,0-34.6,0.1-51.9-0.1c-5.5-0.1-9,2.4-10.8,7.1
		c-1.2,3-1.9,6.4-2,9.7c-0.2,11-0.1,22-0.1,32.9c0,1.3,0.3,2.5,0.5,3.9C363,379.4,388.7,379.4,415.1,379.4z M402.2,420.4
		c-0.4-0.2-0.5-0.4-0.7-0.4c-16.6-0.1-33.3-0.3-49.9-0.3c-0.9,0-2.5,2.3-2.6,3.6c-0.2,7.8,0,15.7-0.2,23.5c-0.1,3.4,1.2,4.9,4.4,5.2
		c7.9,0.8,15.9,2.4,23.8,2.3c8.4-0.1,16.7-1.6,25.1-2.6C402.2,440.5,402.2,430.4,402.2,420.4z"/>
</g>
</svg>
