<?xml version="1.0" encoding="utf-8"?>
<!-- Generator: Adobe Illustrator 22.1.0, SVG Export Plug-In . SVG Version: 6.00 Build 0)  -->
<svg version="1.1" id="Слой_1" xmlns="http://www.w3.org/2000/svg" xmlns:xlink="http://www.w3.org/1999/xlink" x="0px" y="0px"
	 viewBox="0 0 626.4 666" style="enable-background:new 0 0 626.4 666;" xml:space="preserve">
<g>
	<path d="M489.3,625.3c0-22.6,0-44.7,0-66.9c0-9.1,4.9-16,13.2-19.1c7.8-2.9,17-0.9,22,6c2.6,3.5,4.6,8.4,4.7,12.7
		c0.4,29.3,0.3,58.7,0.2,88c0,11-8,19.2-19,19.8c-1.5,0.1-3,0-4.5,0c-160.7,0-321.3-0.1-482,0.2C8.5,666,0,656.4,0,642.1
		c0.3-206.3,0.3-412.7,0-619C0,9.6,8.9,0,23.1,0c161.2,0.2,322.3,0.2,483.5,0c14.2,0,23,9.7,23,22.8c-0.4,67.3-0.2,134.7-0.2,202
		c0,9.3-5.3,17-13.4,19.6c-8.6,2.8-17.8,0.4-22.5-7.1c-2.4-3.9-4-8.9-4-13.5c-0.3-59-0.2-118-0.2-177c0-2,0-4,0-6.4
		c-149.7,0-299,0-448.7,0c0,194.9,0,389.6,0,584.8C189.9,625.3,339.3,625.3,489.3,625.3z"/>
	<path d="M377.8,579.6c-13.5,0-27,0-40.5,0c-12.1,0-20.8-8.5-20.9-20.6c-0.1-27.3-0.1-54.6,0-82c0-5.9,2.4-11,6.5-15.1
		c13.1-13.1,26.1-26.2,39.2-39.2c22.7-22.7,45.5-45.4,68.2-68.1c23.9-23.9,47.8-47.8,71.7-71.7c2-2,4-4,6-6c8.9-9.3,20.8-9.5,30-0.4
		c24,23.9,47.8,47.8,71.7,71.7c3.3,3.3,6.6,6.6,9.9,9.9c8.8,8.8,9,20.7,0.2,29.6c-16.9,17.1-33.9,34-50.8,50.9
		c-44.4,44.4-88.9,88.8-133.2,133.2c-5.4,5.4-11.4,8.1-19.1,7.9C403.8,579.4,390.8,579.6,377.8,579.6z M378.4,464.2
		c1.2,0.7,2.8,1.4,4,2.5c14.1,14,27.9,28.1,42.1,42c10.9,10.8,7.4,10.2,17.5,0.2c40.8-40.5,81.3-81.2,122-121.8
		c4.6-4.6,9.3-9,13.4-12.9c-18.7-18.8-36.7-36.8-54.3-54.4C475.4,367.3,427.5,415.2,378.4,464.2z M395.3,539.4
		c-12.5-12.6-25.9-26.2-38.5-38.9c0,12,0,25.4,0,38.9C370.6,539.4,384,539.4,395.3,539.4z"/>
	<path d="M264.5,235.5c-51.8,0-103.6,0-155.4,0c-11.9,0-20.6-8.2-20.7-19.6c-0.2-11.5,8.8-20.4,20.6-20.4c104,0,207.9,0,311.9,0
		c11.6,0,20.4,8.7,20.5,20c0.1,11.6-8.7,20-20.9,20C368.4,235.5,316.5,235.5,264.5,235.5z"/>
	<path d="M264.5,137.6c-52.1,0-104.3,0-156.4,0c-9.7,0-16.4-5.4-19-15.1c-2.2-8.4,1.2-18.1,9-21.7c4.6-2.2,10.2-3.2,15.4-3.2
		c86.8-0.2,173.6-0.1,260.4-0.1c14.7,0,29.3-0.1,44,0c12.7,0.1,20,5.1,22.7,15.3c3.4,13-5.6,24.8-19,24.8c-36.3,0.1-72.6,0-109,0
		C296.5,137.6,280.5,137.6,264.5,137.6z"/>
	<path d="M250.1,333.5c-47,0-94,0-141,0c-11.3,0-19.6-7.3-20.8-18.1c-1.1-9.9,5.7-19.1,16.1-21.5c1.4-0.3,3-0.3,4.5-0.3
		c94.2,0,188.3,0,282.5,0c11.9,0,20.3,8.3,20.3,19.8c0,11.9-8.4,20.1-20.6,20.1C344.1,333.5,297.1,333.5,250.1,333.5z"/>
	<path d="M201.4,391.2c30.3,0,60.6,0,90.9,0c11.1,0,18.9,5.5,21.2,14.6c3.5,13.6-6.1,25.5-20.7,25.6c-11.2,0.1-22.3,0-33.5,0
		c-49.6,0-99.3,0-148.9,0c-11.3,0-18.7-5.5-21.3-15.6c-3.1-11.9,5.1-23.6,17.4-24.5c2.2-0.2,4.3-0.2,6.5-0.2
		C142.4,391.2,171.9,391.2,201.4,391.2z"/>
</g>
</svg>
