<?xml version="1.0" encoding="utf-8"?>
<!-- Generator: Adobe Illustrator 22.1.0, SVG Export Plug-In . SVG Version: 6.00 Build 0)  -->
<svg version="1.1" id="Слой_1" xmlns="http://www.w3.org/2000/svg" xmlns:xlink="http://www.w3.org/1999/xlink" x="0px" y="0px"
	 viewBox="0 0 767.3 665.9" style="enable-background:new 0 0 767.3 665.9;" xml:space="preserve">
<style type="text/css">
	.st0{fill:#FFFFFF;}
</style>
<g>
	<path class="st0" d="M571,225.3c0,23.2,0,46.3,0,69.5c0,73.4-52.3,138.1-124.3,152.5c-54,10.8-102-2.6-141.9-40.8
		c-31.4-30.1-47.5-67.5-47.7-111.2c-0.3-46.7-0.1-93.3-0.1-140c0-75.4,56.2-141.3,130.7-153.2c91.2-14.6,173.9,48.5,182.5,139.8
		c1.7,18.2,0.6,36.6,0.8,54.9C571.1,206.3,571,215.8,571,225.3z M297.4,284.5c0,5-0.2,9.4,0,13.6c2.6,42.6,21.8,75.7,58.9,96.7
		c39.1,22.2,79.4,21.9,117.9-1.4c38.8-23.4,57.2-59.1,56.7-104.5c0-3.5-1.2-4.6-4.6-4.5c-11,0.2-22,0.1-33,0c-2,0-4-0.1-5.9-0.6
		c-10-2.7-16-11.6-14.9-21.9c1-9.7,9.1-17.4,19.3-17.6c11.3-0.3,22.7-0.3,34-0.1c3.8,0.1,5.4-0.8,5.2-4.9c-0.3-9.3-0.3-18.7,0-28
		c0.1-4.1-1.5-5-5.3-5c-10.7,0.2-21.3,0.1-32,0c-12.4-0.1-21.4-8.7-21.4-20.3c0-11.6,8.9-20,21.5-20.1c10.8-0.1,21.7-0.1,32.5,0
		c3.5,0.1,4.9-1.2,4.6-4.6c-0.8-9.6-0.7-19.4-2.6-28.8c-11.8-59.1-69.4-99.5-128.9-91.8C344.3,48,296.1,95,296.8,161.5
		c0,3.5,1.1,4.6,4.6,4.6c11-0.2,22-0.1,33,0c12.7,0.1,21.4,8.3,21.4,20.1c0,11.7-8.8,20.2-21.3,20.3c-10.7,0.1-21.3,0-32,0
		c-1.8,0-3.5,0.2-5.3,0.3c0,12.7,0,24.7,0,37.4c2.1,0,3.8,0,5.6,0c10.5,0,21-0.1,31.5,0c12.9,0.1,21.7,8.5,21.5,20.5
		c-0.1,11.6-9.1,19.8-21.7,19.8C322,284.5,309.8,284.5,297.4,284.5z"/>
	<path class="st0" d="M393.8,625.5c0.1-2.5,0.3-4.4,0.3-6.4c0-18.5-0.2-37,0.2-55.5c0.1-5.2-1.9-6.5-6.4-6.9
		c-37.9-4-72.6-17.1-103.5-39.3c-51.9-37.2-83.5-87.4-93.2-150.8c-1.6-10.7-2.4-21.5-2.7-32.3c-0.4-12.6,8.3-21.3,20.1-21.3
		c11.9,0,20,8.6,20.2,21.3c1.1,86.5,59.9,159.8,143.7,179.3c110.7,25.7,218.9-54.7,226.2-168.1c0.3-4,0.4-8,0.5-12
		c0.3-12,8.5-20.4,20-20.5c11.7-0.1,20.5,8.5,20.4,20.6c-0.3,27.4-4.5,54.1-14.8,79.6c-28.7,71.2-80.1,117.3-154,137.9
		c-9.9,2.8-20.3,3.8-30.4,5.6c-2,0.4-3.9,0.7-6,1.1c-0.2,1.4-0.4,2.5-0.4,3.6c0,19.8,0.1,39.7-0.1,59.5c-0.1,4.5,2.2,4.7,5.5,4.7
		c38.7-0.1,77.3,0,116,0c3,0,6,0.1,9,0.6c7.9,1.5,13.2,6.3,15.6,13.9c2.4,7.4,0.9,14.6-4.9,19.7c-3.4,3-8.4,4.2-12.7,6.1
		c-1,0.4-2.3,0.1-3.5,0.1c-96.7,0-193.3,0-290,0c-13.2,0-22.1-8.6-21.7-20.8c0.3-9.2,7.2-17.3,16.3-19c2.9-0.5,6-0.6,9-0.6
		c38.2,0,76.3,0,114.5,0C389.1,625.5,391.2,625.5,393.8,625.5z"/>
</g>
<g>
	<path class="st0" d="M199.6,330.5c24.1-24.4,47.9-48.4,71.7-72.4c27.4-27.5,54.8-55.1,82.6-82.2c5.6-5.4,12.5-10.2,19.7-13.1
		c13.5-5.4,25.8-0.4,35.7,9.1c17.8,17.1,35,34.7,52.3,52.3c3.1,3.2,5.7,7,8,10.8c9.2,15.7,7.1,32.5-6.6,46.6
		c-17.9,18.6-36.4,36.6-54.7,54.9c-42,41.8-84.1,83.6-126.2,125.4c-19,18.9-38,37.9-57,56.8c-7.7,7.6-16.2,13.2-27.8,12.6
		c-10-0.5-17.7-5.7-24.4-12.4c-42.7-42.6-85.3-85.3-127.9-128c-10.2-10.3-20.6-20.4-30.8-30.7c-13.5-13.7-18.1-29.6-11.3-48
		c1.4-3.7,3.2-7.6,5.9-10.3c17.9-18.1,35.4-36.8,54.4-53.7c18-16.1,39.2-14.7,56.5,2.2c21.7,21.2,42.7,43,64.1,64.6
		C188.9,320,193.9,324.9,199.6,330.5z M199.8,487.5c1.5-2.1,2.3-3.9,3.6-5.1c29-28.9,58.2-57.7,87.2-86.6
		c46.2-45.9,92.3-92,138.6-137.9c3.1-3.1,3.2-5.1,0.1-8.1c-13.4-13.2-26.7-26.5-40.1-39.8c-5.6-5.6-5.7-5.6-11.4,0.2
		c-54.5,54.4-109,108.7-163.6,163c-9.5,9.4-21.9,9.4-31,0.1c-29.1-29.8-58.3-59.5-87.5-89.2c-5.5-5.6-5.5-5.5-10.9-0.1
		C71.9,297,59,309.9,46,322.8c-5.3,5.2-5.4,5.3-0.1,10.6c36.8,36.8,73.5,73.5,110.3,110.3C170.3,457.8,184.3,472,199.8,487.5z"/>
	<path class="st0" d="M491,487.7c10.5-10.8,20-20.9,29.8-30.6c66.1-65.8,132.3-131.6,198.4-197.4c0.5-0.5,0.9-1,1.4-1.4
		c4.3-3,3.6-5.8,0.2-9.2c-11.2-10.9-22.2-22-33.3-33.1c-2.7-2.7-5.5-5.3-8-8.2c-2.6-2.9-4.6-2.8-7.4,0c-16.9,17.1-33.9,34-50.9,50.9
		c-38,37.9-76,75.8-114,113.7c-10.9,10.8-22.5,10.8-33-0.3c-6.4-6.8-12.9-13.5-19.1-20.4c-6.4-7.2-7.3-15.8-3-23.6
		c4.6-8.2,13-12.4,22.3-10.3c3.7,0.8,7.1,3.3,10.3,5.6c2.4,1.7,4.1,4.3,6.4,6.8c2.1-2,3.7-3.4,5.2-4.9
		c49.4-49.4,98.7-98.8,148.3-147.9c5.7-5.6,12.6-10.6,19.9-13.8c14-6.2,26.7-1.2,37.1,8.7c18,17.3,35.7,35,53,53.1
		c10.4,10.8,15.9,23.9,10.9,38.8c-2.2,6.7-6.3,13.5-11.3,18.5C725.3,312.1,696,341,666.9,370c-32.4,32.2-64.8,64.3-97.1,96.5
		c-17.5,17.4-35,34.8-52.4,52.2c-17,17-35,17.2-52.1,0.3c-22.4-22.1-44.6-44.5-66.8-66.8c-6.2-6.2-12.3-12.7-18.8-18.7
		c-3-2.8-2.6-4.7,0.1-7.3c7.2-7,14.4-13.9,21.2-21.2c3.3-3.5,5.3-3.5,8.7,0c23.1,23.4,46.4,46.5,69.5,69.8
		C482.9,478.6,486.5,482.8,491,487.7z"/>
</g>
</svg>
