<?xml version="1.0" encoding="utf-8"?>
<!-- Generator: Adobe Illustrator 22.1.0, SVG Export Plug-In . SVG Version: 6.00 Build 0)  -->
<svg version="1.1" id="Слой_1" xmlns="http://www.w3.org/2000/svg" xmlns:xlink="http://www.w3.org/1999/xlink" x="0px" y="0px"
	 viewBox="0 0 860.9 702.5" style="enable-background:new 0 0 860.9 702.5;" xml:space="preserve">
<style type="text/css">
	.st0{fill:#FFFFFF;}
</style>
<g>
	<path class="st0" d="M499.4,283.5c-11.1-18.7-23.8-35.5-39.1-50.3c-39.3-37.7-86.2-58.7-140.4-62.8c-18.6-1.4-37.3-0.7-55.8,3
		c-36.6,7.4-69.7,22.3-98.8,45.8c-33.6,27.1-57.4,61.3-71.6,101.9c-8.3,23.7-11.9,48.3-11.8,73.5c0,1.9-1.8,4.4-3.4,5.7
		c-8.2,6.5-17.1,12.2-24.9,19.1C22.5,447.5,5.4,483,0.8,524.2c-1.7,15.5-0.6,31.3,2.5,46.9C17.9,646.1,84,702,160.9,702.2
		c177.7,0.5,355.3,0.1,533,0.3c17.6,0,34.6-2.9,51.1-8.3c73.9-24.3,120.4-96.7,110.2-175.5c-5.8-45-27.6-81.4-63.6-109
		c-23-17.6-49-28.3-78-31.6c-2.7-0.3-5.2-0.7-6.7-4c-11.2-24.9-27.6-45.7-48.9-62.8c-24.7-19.8-53-31.5-84.1-35.6
		C548.9,272.3,523.9,274.4,499.4,283.5z M728.5,124.3c8.7,1.4,17.5,1.6,25.5,4.2c37.4,12.1,59.9,37.7,65.5,76.8
		c6.1,42.9-19.4,83.8-60.3,97.9c-6.1,2.1-12.5,3-18.6,5c-11.8,3.8-17.2,16.1-12.7,27.8c4.3,10.9,16.6,15.5,27.8,10.3
		c1.8-0.8,3.7-1.5,5.6-2c58.1-15.4,93.8-62.6,99.1-118.7c1.2-12.7-0.2-25.5-3.2-37.9c-9.5-38.2-31.2-67.5-65.7-86.9
		c-21.7-12.2-45.1-17.4-69.9-15.6c-5.1,0.4-7.7-1.1-10.4-5.7C678,23.9,629.2-3.3,564,0.3c-15.5,0.8-30.4,4.7-44.6,10.8
		c-49.1,21.2-79.8,58-91.9,110.2c-0.6,2.7-1.4,3.9-4.4,4.1c-4,0.2-8.1,1.1-12,1.9c-13.7,2.9-26.9,7.4-38.6,15.3
		c-5.1,3.4-8.3,8.2-8.8,14.3c-0.8,8.2,2.8,14.7,9.6,19c6.9,4.4,14.1,4.1,21.2-0.2c14.5-8.7,30-12.1,46.8-9.7
		c12.1,1.7,22.1-6.8,23.2-19.2c0.4-4.9,1.1-9.9,1.9-14.7c4.7-28.2,18.9-50.8,41-68.4c23.5-18.8,50.7-26,80.4-23.4
		c32,2.8,57.8,17.5,78,42.3c7.7,9.5,13.5,20.1,17.7,31.6c3.2,8.7,14,15.5,21.3,14.1C712.6,126.7,720.6,125.6,728.5,124.3z"/>
	<path d="M499.4,283.5c24.5-9.2,49.5-11.2,74.6-7.9c31,4.1,59.4,15.8,84.1,35.6c21.3,17.1,37.7,37.9,48.9,62.8
		c1.5,3.3,3.9,3.7,6.7,4c29,3.2,55,14,78,31.6c36,27.6,57.8,63.9,63.6,109c10.2,78.9-36.3,151.3-110.2,175.5
		c-16.6,5.4-33.5,8.3-51.1,8.3c-177.7-0.2-355.3,0.2-533-0.3C84,702,17.9,646.1,3.3,571.1c-3.1-15.7-4.2-31.5-2.5-46.9
		c4.6-41.1,21.7-76.7,52.8-104.6c7.8-7,16.7-12.6,24.9-19.1c1.7-1.3,3.4-3.8,3.4-5.7c-0.1-25.2,3.5-49.8,11.8-73.5
		c14.2-40.6,38-74.7,71.6-101.9c29.1-23.5,62.2-38.4,98.8-45.8c18.4-3.8,37.2-4.4,55.8-3c54.2,4.1,101.1,25,140.4,62.8
		C475.6,248,488.3,264.8,499.4,283.5z M427.7,662.7c85,0,170,0,255-0.1c8.4,0,16.9-0.8,25.3-1.3c16.8-1.1,32.3-6.5,46.9-14.7
		c48.8-27.5,72.2-84.6,58.1-137.9c-14.7-55.2-61.9-90.7-117.4-92.3c-10-0.3-16.5-4.8-20-14.3c-11.3-31.1-30.7-55.3-59.9-71.2
		c-38-20.7-76.8-21.8-116.3-4.9c-2.7,1.1-5.7,2.1-8.5,2.2c-10.1,0.4-16.2-5.1-20.3-13.9c-39.6-84.6-140.1-125.8-227.8-93.7
		C166,248.7,115.5,324.5,122.3,407.9c0.7,8.7-3.5,16.1-11.2,20.1c-4,2.1-7.9,4.2-11.8,6.4C40.1,469.5,21.7,549.6,60.2,607
		c24.8,37,60.3,55.3,104.6,55.5C252.4,662.9,340.1,662.7,427.7,662.7z"/>
	<path d="M728.5,124.3c-7.9,1.3-15.9,2.5-23.8,4c-7.3,1.4-18.1-5.4-21.3-14.1c-4.2-11.5-10-22.1-17.7-31.6
		c-20.1-24.8-46-39.5-78-42.3c-29.7-2.6-56.9,4.7-80.4,23.4c-22.1,17.6-36.3,40.3-41,68.4c-0.8,4.9-1.4,9.8-1.9,14.7
		c-1.1,12.3-11.2,20.9-23.2,19.2c-16.8-2.4-32.4,1-46.8,9.7c-7.1,4.2-14.3,4.6-21.2,0.2c-6.8-4.3-10.3-10.8-9.6-19
		c0.6-6.1,3.8-10.9,8.8-14.3c11.8-7.9,24.9-12.4,38.6-15.3c4-0.9,8-1.7,12-1.9c3-0.2,3.8-1.4,4.4-4.1c12.1-52.2,42.7-89,91.9-110.2
		C533.6,5,548.6,1.2,564,0.3c65.2-3.6,114,23.6,147.2,79.3c2.7,4.6,5.3,6.1,10.4,5.7c24.8-1.8,48.3,3.4,69.9,15.6
		c34.5,19.3,56.2,48.6,65.7,86.9c3.1,12.4,4.4,25.2,3.2,37.9c-5.3,56.1-41,103.3-99.1,118.7c-1.9,0.5-3.8,1.2-5.6,2
		c-11.2,5.2-23.6,0.6-27.8-10.3c-4.6-11.7,0.9-24,12.7-27.8c6.1-2,12.6-2.9,18.6-5c40.9-14.2,66.4-55,60.3-97.9
		c-5.6-39.1-28-64.7-65.5-76.8C746,125.9,737.3,125.6,728.5,124.3z"/>
</g>
</svg>
