<?xml version="1.0" encoding="utf-8"?>
<!-- Generator: Adobe Illustrator 22.1.0, SVG Export Plug-In . SVG Version: 6.00 Build 0)  -->
<svg version="1.1" id="Слой_1" xmlns="http://www.w3.org/2000/svg" xmlns:xlink="http://www.w3.org/1999/xlink" x="0px" y="0px"
	 viewBox="0 0 784.6 731.8" style="enable-background:new 0 0 784.6 731.8;" xml:space="preserve">
<g>
	<path d="M698.6,254.1c14.9,2.5,29.2,4.4,43.3,7.4c12.2,2.6,23.2,8.2,32,17.4c6.9,7.2,10.6,15.6,10.6,25.6c0,51.3-0.5,102.7,0.2,154
		c0.4,26.4-13.6,39.7-33.4,46.9c-18.2,6.6-37.2,6.9-56.2,6.4c-3.3-0.1-6.8,0.2-9.9-0.7c-5.9-1.7-8.9,0.5-12.3,5.4
		c-32.4,46.6-77.6,73.8-132.5,85.8c-23.7,5.2-47.7,4.4-71.7,4.2c-5.3,0-8.1,1.1-10.8,6.5c-11.9,24-31.7,36.7-58.7,35.4
		c-25.4-1.2-43.8-14.5-53.6-37.9c-10.1-24.3-5.3-47,12.5-66.1c29.6-31.7,82.9-22,100.3,17.8c1.7,4,3.5,5.5,7.9,5.3
		c15.6-0.6,31.5,0.6,46.9-1.3c63.4-7.7,112.6-36.8,140.5-96.4c7.1-15.1,10.4-31.4,10.5-48c0.2-40.2,1.1-80.4-0.3-120.5
		c-2.3-67.6-27.4-126.3-73.6-175.7c-39.9-42.6-88.8-70-146.2-80.8c-79.8-15-152.5,2.3-217.2,51.2c-48.5,36.7-80.5,85-97.2,143.4
		c-6.7,23.7-9.7,47.9-9.7,72.5c0,59.3,0,118.7,0,178c0,12.6-8.4,21.2-21,21c-33.3-0.5-63.5-10.2-90.2-30.5C2.8,476,0,470.1,0,462.6
		c0.1-52.8,0-105.7,0-158.5c0-13,6.2-22.5,16.2-30c12.8-9.6,27.9-13.2,43.2-15.5c7.4-1.1,14.9-1.6,22.3-2c3-0.2,3.9-1.5,4.4-4.1
		c8.8-45.7,26.8-87.5,54.7-124.7C193.2,57.9,262.7,16.3,349.1,3.2c20.2-3.1,40.5-3.9,60.8-2.5c74.3,4.9,139.3,32.2,194,82.8
		C654.2,130,685.6,187.4,698.6,254.1z M704.1,295.5c0,59.3,0,118,0,177c12.3,0.2,23.8-0.9,35-4.4c4.4-1.4,6-4,6-8.8
		c-0.2-49.3-0.2-98.6,0-147.9c0-4.9-1.9-7.3-5.9-9.1C728.1,297.4,716.3,296,704.1,295.5z M80.2,296.2c-2.9,0.2-5.3,0-7.5,0.5
		c-9.7,2.2-19.3,4.4-28.9,7c-3.4,0.9-4.6,3.5-4.5,7.3c0.3,9.8,0.1,19.7,0.1,29.5c0,36.3,0,72.6,0.1,108.9c0,1.9,0.6,4.7,1.9,5.6
		c11.6,7.8,24.6,12.2,38.8,14.7C80.2,411.8,80.2,354.2,80.2,296.2z M424.2,587.1c-0.1-12-10-21.9-22-21.9c-12.2,0-22.1,10-21.9,22.4
		c0.2,12.1,10.3,21.9,22.2,21.7C414.5,609.1,424.3,599,424.2,587.1z"/>
	<path d="M191.4,507c-2.4,12.5-4.5,25.1-7.3,37.6c-8.8,39.5-20.6,77.8-41.7,112.8c-11.2,18.6-24.7,35.1-42.6,47.8
		c-8.3,5.9-17.3,10.5-27.4,12.7c-10.2,2.2-20.4-3.5-23.3-13.1c-3.1-10.2,1.8-21.3,11.8-24.4c13.7-4.3,23.7-13.3,32.7-23.7
		c17.5-20.2,28.6-44.1,37.4-69c10.1-28.4,16.6-57.8,21.1-87.6c7-46,10.3-92.3,10.4-138.8c0.1-48.3,7.8-95.1,25.6-140
		c15.6-39.3,38-74,71.7-100.4c29.7-23.4,63.7-36.2,101.1-40.4c31-3.5,61.9-1.6,92.3,5.1c23.1,5.2,43.3,16.9,62.1,30.9
		c43.2,32.3,71.1,75.6,88.7,125.9c15.2,43.6,21.9,88.6,22.7,134.7c0.5,29.8,2.9,59.5,4.6,89.3c0.5,8.7-1.7,16-9.4,20.6
		c-7.6,4.5-15.2,4.1-22.4-1.1c-0.8-0.5-1.6-0.9-3-1.7c-0.8,7.3-1.6,14-2.2,20.7c-1.2,12.9-10.4,21.4-21.9,20.1
		c-11.8-1.3-18.7-11.2-17.6-24c1.8-21.2,3-42.5,4.5-63.8c1.2-18.3,2.4-36.5,3.6-54.8c0.7-10.6,1.8-21.2,2.1-31.8
		c0.8-23.3,1.5-46.6,1.8-69.9c0.1-9.8-1.1-19.6-1.7-29.4c-0.1-0.8-0.3-1.6-0.6-2.4c-17.1-44.1-42.7-81.4-82.8-108
		c-19.8-13.1-41.5-19-64.7-21.2c-24.9-2.3-49.5-1.8-73.9,4.2c-41.6,10.1-73.1,34.2-96.2,69.8c-14.6,22.4-24.7,46.7-31.5,72.5
		c-1.3,5.1-1.5,10.5-1.6,15.8c-1,29.9,0.6,59.6,3.7,89.3c4.2,39.5,8.3,79.1,13.1,118.5c2.1,17,5.7,33.8,8.6,50.6
		c3.7,21.5,12.9,40.2,26.1,57.6c21.5,28.3,45.3,54.1,75.1,73.9c7.3,4.9,14.4,10.3,22.3,14c6.6,3.1,14.2,5.3,21.4,5.5
		c13.4,0.5,26.9,0.1,40.2-1.6c12.1-1.5,22.6-7.7,31.3-16.4c12.4-12.3,24.8-24.7,37.1-37.1c5.6-5.6,12-8.1,19.9-6.1
		c7.5,1.9,12.2,6.6,14.2,14c1.8,6.9,0.5,13.5-4.5,18.5c-15.4,15.4-30.7,31.1-46.9,45.6c-15.6,14-34.9,20.3-55.7,22.1
		c-16.9,1.5-33.9,1.9-50.7-1c-12.3-2.1-23.5-6.7-33.8-14.1c-12-8.7-25-16-36.6-25.1c-32.7-25.7-59-57.2-81-92.3
		c-10.3-16.4-14.3-35.4-18.3-54.1c-2.4-11.2-4-22.6-6.1-33.8c-0.2-1.1-0.6-2.1-0.9-3.2C191.9,506.9,191.7,507,191.4,507z"/>
	<path d="M644.4,593.1c7.9,0.4,14.2,4.7,17.7,13.1c6.6,15.9,14.4,31.1,25.5,44.4c12.4,14.9,27.3,25.4,47.1,28.3
		c11.9,1.7,18.9,11.5,17.2,22.2c-1.8,11.6-11.3,18.2-23.6,16.6c-29.3-3.7-52.1-18.9-70.7-41.1c-14-16.7-24.3-35.7-32.3-55.9
		C619.9,607.1,629.1,593.3,644.4,593.1z"/>
</g>
</svg>
