<?xml version="1.0" encoding="utf-8"?>
<!-- Generator: Adobe Illustrator 22.1.0, SVG Export Plug-In . SVG Version: 6.00 Build 0)  -->
<svg version="1.1" id="Слой_1" xmlns="http://www.w3.org/2000/svg" xmlns:xlink="http://www.w3.org/1999/xlink" x="0px" y="0px"
	 viewBox="0 0 648.6 671.6" style="enable-background:new 0 0 648.6 671.6;" xml:space="preserve">
<style type="text/css">
	.st0{fill:#FFFFFF;}
</style>
<g>
	<path class="st0" d="M424,518c-53,61.7-141.6,57.7-190.8,8.3c-48.7-48.9-51.5-124.9-6.3-177.7c44.1-51.5,132.3-64.6,191.7-4.4
		c0-7.2-0.5-13.6,0.2-20c0.5-4.4,1.7-9.2,4.1-12.9c4.2-6.5,12.3-8.5,19.5-6.2c7.2,2.3,12.3,8.7,12.8,16.3c0.1,2,0.1,4,0.1,6
		c0,51,0,102,0,153c0,10.6,1.6,20.9,5.8,30.7c7.6,17.8,23.5,21.9,38.3,9.7c12.2-10,19.1-23.6,23.2-38.4
		c18.3-67.4,4.8-128.5-38.7-182.6c-34.1-42.4-79.1-67.4-133-73.6c-68.8-8-128,13.6-175.6,64.2c-37.7,40-55.9,88.4-54.8,143.3
		c1.2,57.2,23,105.9,64.6,145.3c34.2,32.4,75.1,50.7,122,55c40.9,3.8,79.5-4.4,115.8-23.7c2.6-1.4,5.2-3,8-4.1
		c8.9-3.7,19.1,0.2,23.3,8.8c4.1,8.4,1.3,18.8-6.9,23.6c-26.1,15.4-54.2,25.3-84.2,30c-41.2,6.4-81.4,2.6-120.5-11.8
		c-48.2-17.8-86.9-48-116.2-90.1c-21.3-30.6-35.2-64.3-39.9-101.3c-11.3-88.5,16.6-162.7,84.2-221C213,207.9,263,188.6,319,188.2
		c97.5-0.7,170.7,42.6,219,127c21.5,37.5,30.5,78.7,28.8,121.9c-1.1,27-5.7,53.3-17.7,77.8c-9,18.2-21,33.7-39.7,42.8
		c-30.9,15-64,3.6-79.6-27.1C427.8,526.6,426,522.5,424,518z M231.3,436.5c2,54.2,47,93.1,97.6,90.6c52.1-2.6,91.6-46.8,88.6-98.9
		c-2.9-49.9-47.3-89.7-97-87.2C270,343.4,230.3,385.2,231.3,436.5z"/>
	<path class="st0" d="M207.9,117.3c0.9,4.9,1.8,9.6,2.6,14.3c4.5,25.4-10.6,47.6-35.8,52.5C135.5,191.8,96.3,199.6,57,207
		c-23.4,4.4-45.5-10.5-50.9-33.7c-2.1-9.1-4.4-18.2-5.4-27.4c-2.3-22.3,0.7-44.3,7.4-65.5c2.7-8.6,7.1-16.8,11.8-24.6
		c5.6-9.3,14.4-15,24.7-18.5c27.5-9.4,55.9-15.1,84.5-19.9c46.4-7.8,93.1-12.6,140-15.5c43-2.6,86-2.6,128.8,1.3
		c37.1,3.4,74.2,7.5,111.2,12.3c29.5,3.9,58.6,10.4,87.3,18.6c20.9,6,34.4,18.8,41.7,38.7c8.7,23.6,11.9,48.1,9.7,73.1
		c-0.8,9.2-3.3,18.3-5.4,27.4c-5.4,23.3-27.7,37.6-52.2,33c-39.6-7.4-79.2-15-118.7-23c-22.7-4.6-38-28.3-33.5-51.1
		c0.7-3.8,1.4-7.5,2.3-11.2c0.9-3.3-0.2-4.9-3.6-5.5c-17.4-2.9-34.7-6.3-52.2-8.8c-29.3-4.2-58.7-5.4-88.2-3.1
		c-28.6,2.2-56.9,6.4-85,12.2C210.3,116.2,209.3,116.7,207.9,117.3z M325.1,37.2c-7.2,0-14.3-0.1-21.5,0
		c-54.9,1.2-109.4,6.4-163.5,15.6C115.4,57.1,91,63.6,66.4,68.5C52,71.3,44.9,80.4,42.1,94c-0.2,0.8-0.4,1.6-0.6,2.4
		c-3.4,14.8-5.8,29.8-4.2,45c0.7,7.4,2.8,14.7,4.4,22c1.4,6.4,4.2,8.3,10.7,7c17.7-3.3,35.3-6.8,53-10.2c20.6-4,41.2-8,61.8-12
		c5.6-1.1,8.3-3.9,7.4-8.8c-1.8-9.6-3.5-19.3-6.3-28.7c-3.1-10.6,0-19.1,10-23.5c3.3-1.5,6.8-2.9,10.3-3.7
		c38.5-9.1,77.5-15.1,117-17.1c42-2.1,83.5,2.4,124.7,10.5c13.7,2.7,27.3,6.1,40.5,10.4c9.2,3,12.5,11.2,10.4,20.5
		c-2.1,9.4-4.3,18.8-6.3,28.2c-1.7,7.9,0.2,10.6,8.2,12.2c22.4,4.3,44.8,8.7,67.2,13c15,2.9,30.1,5.9,45.1,8.7
		c7.2,1.4,10.1-0.1,11.7-5.8c7.6-26.5,6-52.7-2.9-78.6c-2.6-7.6-6.9-13.6-15.5-15.3c-2.9-0.6-5.7-1.9-8.6-2.7
		c-30.3-8.6-61.3-13.9-92.5-18.4C433.6,41.6,379.5,37.2,325.1,37.2z"/>
</g>
</svg>
