<?xml version="1.0" encoding="utf-8"?>
<!-- Generator: Adobe Illustrator 22.1.0, SVG Export Plug-In . SVG Version: 6.00 Build 0)  -->
<svg version="1.1" id="Слой_1" xmlns="http://www.w3.org/2000/svg" xmlns:xlink="http://www.w3.org/1999/xlink" x="0px" y="0px"
	 viewBox="0 0 544.4 661.2" style="enable-background:new 0 0 544.4 661.2;" xml:space="preserve">
<g>
	<path d="M137,218.8c6.7-1.9,13.4-3.7,20.4-5.7c3,7.6,5.9,14.8,8.8,22c8.3,20.1,19.4,38.3,37.2,51.7c20.6,15.5,41.3,15.7,62.2,0.7
		c20.1-14.5,32.5-34.6,40.5-57.5c4.4-12.5,7.4-25.4,11.3-38.9c-20.2-2.1-36.1-12.8-53.6-19.4c-23.3-8.7-46.1-7.3-68,4.7
		c-14,7.7-28.5,14.1-44.7,14.1c-6.6,0-13.7-1.4-19.8-3.9c-10.9-4.6-15.8-14.7-14.3-26.5c2.2-17,4.8-34,6.6-51
		c1.1-9.9,1.3-20,1.5-29.9c0.3-15.1,6.3-27.3,17-37.6c15.8-15.3,35.4-22,56.6-25.1c8.5-1.2,15.9-4,21.9-10.7
		c6.4-7.2,20-8.1,28.4-0.6c9.8,8.8,21.6,11.2,33.4,14.6c10.5,3,21.3,6,30.9,11c21.6,11,32.1,29.3,32.4,53.8
		c0.2,16.3,1.3,32.6,2.7,48.9c0.6,7.1,3.1,14,4.4,21c2.3,11.8,0.8,22.5-9.7,30.5c-2.1,1.6-3.4,4.9-3.9,7.7
		c-3.9,21.4-9.7,42.1-19.8,61.6c-9,17.3-20.5,32.7-35,45.9c-29.8,27-63.1,28.4-94.5,3.6c-27-21.3-43-49.9-52.7-82.4
		C137.1,220.5,137.1,219.9,137,218.8z M145.1,121c60.4-34.5,119.6-31.3,179.2-0.7c-0.5-11.1-1-21.4-1.5-31.7c-0.2-5,0-10.1-1-14.9
		c-3.6-16.4-15.5-24.7-30.5-29.1C279,41.1,266.5,38,254,35.3c-6.6-1.4-13.6-2.3-20.3-2c-23,1-44.6,8.7-66.1,16.2
		c-9.1,3.2-16.5,10.2-17.9,20.1C147.4,86.1,146.6,102.9,145.1,121z M235.8,143.8c17,0.1,33.4,4.8,49.4,12.2
		c9.9,4.6,20.4,8.1,30.7,11.7c4.3,1.5,11.8-1.2,13.9-4.8c2.6-4.4,0.3-8.4-2-12.1c-1.1-1.8-2.8-3.4-4.6-4.5
		c-32.4-20.2-67-31.7-105.7-27c-26.4,3.2-50.2,12.8-71.4,28.7c-6.1,4.5-7.8,10.7-5,16.2c2.5,4.9,7.2,6.2,14.9,3.4
		c9.8-3.6,19.6-7.3,29.1-11.7C201.1,148.6,217.5,144,235.8,143.8z"/>
	<path d="M250.1,661.2c0-68.2,0-136.3,0-204.6c98.1,0,196,0,294.3,0c0,68.1,0,136.2,0,204.6C446.4,661.2,348.4,661.2,250.1,661.2z
		 M439.6,547.2c-28.8,0-56.7,0-85.2,0c0-22.8,0-45.4,0-68.2c-27.6,0-54.7,0-82,0c-0.3,2.5-0.8,4.8-0.8,7.1
		c-0.1,48.3-0.2,96.6-0.2,144.9c0,7,1.6,8.6,8.5,8.7c12,0.1,24-0.1,36-0.1c66.6,0,133.3,0,199.9,0c2.1,0,4.2,0,6.2,0
		c0-53.9,0-107,0-160.3c-27.5,0-54.7,0-82.5,0C439.6,502,439.6,524.4,439.6,547.2z M416.2,479.1c-13,0-25.3,0-37.7,0
		c0,15.4,0,30.3,0,45.3c12.7,0,25.1,0,37.7,0C416.2,509.2,416.2,494.3,416.2,479.1z"/>
	<path d="M175.7,402.2c7.8-9.1,15.1-17.7,22.8-26.7c-14.4-10.4-28.5-20.8-42.8-30.8c-1.9-1.3-5.2-1.5-7.6-0.9
		c-20.7,5.1-41.4,10.1-61.8,16c-8.7,2.5-17,6.9-25,11.2c-18.2,9.9-27.4,26-28.9,46.2c-2.7,38-4.8,76.1-7.2,114.2
		c-0.8,13.3-1.8,26.6-2.8,39.9c-0.5,6.4-3.5,10.7-8.2,12c-8.1,2.2-14.4-2.7-14.2-11.8c0.2-10.1,1-20.3,1.6-30.4
		c1.8-27.4,3.8-54.8,5.7-82.2c1.2-16.9,2-33.9,3.7-50.8c2.3-22.7,14.2-39.7,32.7-52.5c12-8.3,25.3-14.2,39.3-18.1
		c22.1-6.1,44.4-11.6,66.6-17.3c6.1-1.6,11.6-0.3,16.5,3.4c17.7,13,35.5,26,53.1,39.2c9,6.7,9.6,12,2.5,20.5
		c-12.2,14.6-24.5,29-37,43.3c-6.9,7.9-13.4,7.8-19.9-0.7c-9.8-12.7-19.2-25.5-28.5-38.6c-5.4-7.6-3.5-15.3,4-18.3
		c4.8-1.9,10.2-0.1,14.4,5.3c6,7.8,11.8,15.7,17.7,23.6C173.3,399.2,174.3,400.5,175.7,402.2z"/>
	<path d="M273.1,376c7.1,8.3,14,16.4,20.9,24.5c0.4,0.5,1,0.9,1.8,1.6c6.4-8.5,12.5-17,18.9-25.3c1.7-2.2,3.6-4.4,5.8-6.1
		c4.1-3.2,9-3.1,13-0.3c4,2.9,5.5,7.4,3.7,12.5c-0.9,2.5-2.3,4.8-3.9,6.9c-8.6,11.8-17.3,23.6-26.1,35.3c-6.9,9.2-13.4,9.6-20.8,1
		c-12.6-14.4-25-29-37.4-43.6c-6.3-7.5-5.7-13.2,2.2-19c18.2-13.4,36.6-26.7,54.9-40.1c5.2-3.8,10.8-4.9,17-3.3
		c26.3,7.1,53,13.2,78.9,21.6c22.8,7.4,41,22.1,52.2,44c6.4,12.5,7.8,26.1,7.4,39.9c-0.2,5.7-4.2,9.2-10.1,9.7
		c-5.8,0.5-10.6-2.6-11.8-8.5c-1-4.7-1.3-9.6-1.7-14.4c-1.8-19.8-11.9-34.4-29.4-42.9c-11.7-5.7-24.5-9.2-37-13.1
		c-12.2-3.8-24.7-6.8-37-10.5c-10.9-3.3-20.6-1.6-29.5,5.5C294.4,359.8,283.9,367.7,273.1,376z"/>
</g>
</svg>
