<?xml version="1.0" encoding="utf-8"?>
<!-- Generator: Adobe Illustrator 22.1.0, SVG Export Plug-In . SVG Version: 6.00 Build 0)  -->
<svg version="1.1" id="Слой_1" xmlns="http://www.w3.org/2000/svg" xmlns:xlink="http://www.w3.org/1999/xlink" x="0px" y="0px"
	 viewBox="0 0 154.2 123.9" style="enable-background:new 0 0 154.2 123.9;" xml:space="preserve">
<style type="text/css">
	.st0{fill:#FFFFFF;}
</style>
<g>
	<path class="st0" d="M55.7,14.3c6.6-4.1,13.1-8,19.4-12.2c3.2-2.1,6-2,9.2-0.1c15.7,9.5,31.5,18.7,47,28.3c1.9,1.2,3.8,4.3,3.8,6.5
		c-0.1,3.4-2.8,5.5-6.5,5.5c-2.8,0-5.7,0.2-8.5,0.2c-27,0-54,0-81,0c-2.3,0-5,0.4-6.9-0.6c-2.1-1.1-4.4-3.2-5.1-5.3
		c-0.5-1.5,1.2-4.5,2.7-5.6c5.3-3.9,11-7.3,16.5-10.8c-3.6-7.5-11.7-11.4-20.3-10c-8.3,1.3-15.4,9-16.2,17.4
		c-1.1,11.9,6.6,21.2,18.5,22.2c4.1,0.3,8.3,0.3,12.5,0.3c4.3,0,6.5,1.8,6.4,6.3c-0.1,11.5,0,23-0.1,34.5c0,3.3-0.8,6.7-5,6.7
		c-4.2,0-4.9-3.5-4.9-6.8c-0.1-8-0.3-16,0.1-24c0.2-5-1-6.9-6.5-6.8c-14.1,0.1-24.8-7.6-29.3-20C-3,26.9,2.4,11.6,14.2,4.4
		c12.3-7.5,28.2-5.3,37.8,5.4C53.2,11.2,54.3,12.6,55.7,14.3z M116.5,32.3c-12.4-7.3-23.4-14-34.7-20.3c-1.4-0.8-4.2-0.1-5.7,0.8
		C68,17.6,60,22.8,52,28c-1.9,1.2-3.8,2.6-6.5,4.3C69.5,32.3,92.2,32.3,116.5,32.3z"/>
	<path class="st0" d="M87.4,83.4c0.9-1.5,2-3,3.2-4.4c1.9-2.1,4-3.8,6.4-5.2c0-5.6,0-11.3,0-17c0-3.5-0.8-6.8-4.8-6.8
		c-4-0.1-4.9,3.2-4.9,6.7C87.4,65.5,87.3,74.5,87.4,83.4z"/>
	<path class="st0" d="M72,73.7c0,5.8,0,11.7,0,17.5c0,3.1-0.7,5.8-4.5,6c-3.7,0.1-5-2.4-5.1-5.5c-0.1-12-0.1-24,0-36
		c0-3.1,1.4-5.8,4.9-5.8c3.5,0,4.7,2.5,4.7,5.8C72,61.7,72,67.7,72,73.7z"/>
</g>
<path class="st0" d="M92.1,96.4L92.1,96.4c-2.7,0-4.9-2.2-4.9-4.9V54.8c0-2.7,2.2-4.9,4.9-4.9h0c2.7,0,4.9,2.2,4.9,4.9v36.8
	C96.9,94.2,94.7,96.4,92.1,96.4z"/>
<path class="st0" d="M120.2,66.9c0.7,0,1.4,0.1,2,0.2V54.8c0-2.7-2.2-4.9-4.9-4.9c-2.7,0-4.9,2.2-4.9,4.9v14.7
	C114.4,67.9,117,66.9,120.2,66.9z"/>
<path class="st0" d="M99.7,102C99.7,102,99.7,102,99.7,102l-70.1-0.1c-2.7,0-4.9,2.2-4.9,4.9s2.2,4.9,4.9,4.9H102
	C100.4,109,99.5,105.8,99.7,102z"/>
<path class="st0" d="M123.2,123.9c-17.1,0-31-13.9-31-31c0-17.1,13.9-31,31-31s31,13.9,31,31C154.2,110,140.3,123.9,123.2,123.9z
	 M123.2,70.9c-12.1,0-22,9.9-22,22s9.9,22,22,22s22-9.9,22-22S135.3,70.9,123.2,70.9z"/>
<g>
	<g>
		<path class="st0" d="M113.7,98.9c-0.6,0-1.1-0.2-1.5-0.5c-0.4-0.4-0.6-0.8-0.6-1.4c0-0.6,0.2-1.1,0.6-1.5c0.4-0.4,0.9-0.6,1.5-0.6
			h5.9v4H113.7z M113.7,104.7c-0.6,0-1.1-0.2-1.5-0.5s-0.6-0.7-0.6-1.2c0-0.5,0.2-0.9,0.6-1.2c0.4-0.3,0.9-0.5,1.5-0.5h12.2
			c0.6,0,1.2,0.2,1.6,0.5c0.4,0.3,0.6,0.7,0.6,1.2c0,0.5-0.2,0.9-0.6,1.2s-0.9,0.5-1.6,0.5H113.7z M118.3,110.2
			c-0.6,0-1.1-0.2-1.5-0.6c-0.4-0.4-0.6-0.9-0.6-1.5V79.8c0-0.6,0.2-1.2,0.6-1.6c0.4-0.4,0.9-0.6,1.5-0.6h8.4c2.1,0,3.9,0.5,5.6,1.4
			c1.6,0.9,2.9,2.2,3.8,3.8c0.9,1.6,1.4,3.5,1.4,5.6c0,2-0.5,3.8-1.4,5.4c-0.9,1.6-2.2,2.8-3.8,3.7c-1.6,0.9-3.5,1.3-5.6,1.3h-6.2
			v9.1c0,0.6-0.2,1.1-0.6,1.5C119.5,110,119,110.2,118.3,110.2z M120.5,94.9h6.2c1.3,0,2.4-0.3,3.4-0.8c1-0.6,1.7-1.3,2.3-2.3
			c0.6-1,0.8-2.1,0.8-3.3c0-1.3-0.3-2.5-0.8-3.5c-0.6-1-1.3-1.8-2.3-2.4c-1-0.6-2.1-0.9-3.4-0.9h-6.2V94.9z"/>
		<path class="st0" d="M118.3,110.7c-0.7,0-1.4-0.3-1.9-0.8s-0.8-1.2-0.8-1.9v-2.8h-2c-0.7,0-1.3-0.2-1.8-0.6
			c-0.5-0.4-0.8-1-0.8-1.6c0-0.7,0.3-1.2,0.8-1.6c0.5-0.4,1.1-0.6,1.8-0.6h2v-1.5h-2c-0.7,0-1.4-0.2-1.9-0.7
			c-0.5-0.5-0.8-1.1-0.8-1.8c0-0.8,0.3-1.4,0.8-1.8c0.5-0.5,1.1-0.7,1.9-0.7h2V79.8c0-0.8,0.3-1.4,0.8-1.9c0.5-0.5,1.2-0.7,1.9-0.7
			h8.4c2.2,0,4.1,0.5,5.8,1.4c1.7,1,3,2.3,4,4c0.9,1.7,1.4,3.7,1.4,5.9c0,2.1-0.5,4-1.4,5.7c-0.9,1.7-2.3,3-4,3.9
			c-1.7,0.9-3.6,1.4-5.8,1.4H121v1.5h4.9c0.7,0,1.4,0.2,1.9,0.6c0.5,0.4,0.8,1,0.8,1.6c0,0.6-0.3,1.2-0.8,1.6
			c-0.5,0.4-1.1,0.6-1.9,0.6H121v2.8c0,0.7-0.3,1.4-0.7,1.9C119.8,110.5,119.1,110.7,118.3,110.7z M116.7,105.2v2.8
			c0,0.5,0.2,0.9,0.5,1.2c0.3,0.3,0.7,0.5,1.2,0.5c0.5,0,0.9-0.2,1.2-0.5c0.3-0.3,0.5-0.7,0.5-1.2v-2.8H116.7z M121,104.2h4.9
			c0.5,0,0.9-0.1,1.3-0.4c0.3-0.2,0.4-0.5,0.4-0.8c0-0.3-0.1-0.6-0.4-0.8c-0.3-0.2-0.7-0.4-1.3-0.4H121V104.2z M116.7,104.2h3.3
			v-2.3h-3.3V104.2z M113.7,101.9c-0.5,0-0.9,0.1-1.2,0.4c-0.3,0.2-0.4,0.5-0.4,0.8c0,0.3,0.1,0.6,0.4,0.8c0.3,0.3,0.7,0.4,1.2,0.4
			h2v-2.3H113.7z M116.7,100.9h3.3v-1.5h-3.3V100.9z M120.1,98.4h6.6c2,0,3.8-0.4,5.3-1.3c1.5-0.8,2.7-2,3.6-3.5
			c0.9-1.5,1.3-3.2,1.3-5.2c0-2-0.4-3.8-1.3-5.4c-0.9-1.5-2.1-2.8-3.6-3.6c-1.5-0.9-3.3-1.3-5.3-1.3h-8.4c-0.5,0-0.9,0.2-1.2,0.5
			c-0.3,0.3-0.5,0.7-0.5,1.2v14.6h3.3V81.1h6.7c1.4,0,2.6,0.3,3.6,0.9c1,0.6,1.9,1.5,2.5,2.6c0.6,1.1,0.9,2.4,0.9,3.8
			c0,1.3-0.3,2.5-0.9,3.6c-0.6,1-1.4,1.9-2.5,2.5c-1,0.6-2.3,0.9-3.6,0.9h-6.6V98.4z M116.7,98.4h2.5v-3h-2.5V98.4z M113.7,95.4
			c-0.5,0-0.9,0.1-1.2,0.4c-0.3,0.3-0.4,0.6-0.4,1.1c0,0.4,0.1,0.8,0.4,1c0.3,0.3,0.7,0.4,1.2,0.4h2v-3H113.7z M121,94.4h5.7
			c1.2,0,2.2-0.3,3.1-0.8c0.9-0.5,1.6-1.2,2.1-2.1c0.5-0.9,0.8-1.9,0.8-3.1c0-1.2-0.3-2.4-0.8-3.3c-0.5-0.9-1.2-1.7-2.1-2.2
			c-0.9-0.5-1.9-0.8-3.1-0.8H121V94.4z"/>
	</g>
</g>
</svg>
