<?xml version="1.0" encoding="utf-8"?>
<!-- Generator: Adobe Illustrator 22.1.0, SVG Export Plug-In . SVG Version: 6.00 Build 0)  -->
<svg version="1.1" id="Слой_1" xmlns="http://www.w3.org/2000/svg" xmlns:xlink="http://www.w3.org/1999/xlink" x="0px" y="0px"
	 viewBox="0 0 409.6 283.9" style="enable-background:new 0 0 409.6 283.9;" xml:space="preserve">
<style type="text/css">
	.st0{fill:#FFFFFF;}
</style>
<g>
	<path class="st0" d="M67.6,129.4c17.3,0,34.7,0,52,0c1.6,0,3.2,0,4.8-0.2c6.3-0.6,11.1-5.6,11.5-11.8c0.4-6-3.5-11.6-9.4-13.2
		c-1.6-0.4-3.4-0.6-5.1-0.6c-35.6,0-71.2,0-106.8,0c-2,0-4,0.2-5.9,0.8c-5.3,1.7-8.9,7-8.6,12.6c0.2,5.4,4,10.4,9.2,11.8
		c2,0.5,4.2,0.6,6.3,0.6C32.9,129.4,50.2,129.4,67.6,129.4z M88.8,53c-6.5,0-13.1,0-19.6,0c-11.9,0-23.7-0.1-35.6,0.1
		c-8.4,0.2-13.9,7.6-12.1,15.7c1.4,6.2,6.6,10,14,10c30,0,60,0,90,0c6.3,0,12.5,0.1,18.8-0.1c7.8-0.3,13.1-6.4,12.6-14
		c-0.5-6.8-5.8-11.6-13.3-11.6C125.3,52.9,107,53,88.8,53z M63.7,180.3c9.5,0,18.9,0.1,28.4,0c8.4-0.1,14.3-5.6,14.2-13
		c-0.1-7.4-5.7-12.6-14-12.7c-8.4-0.1-16.8,0-25.2,0c-10.8,0-21.6-0.1-32.4,0c-6.9,0.1-11.7,3.7-13.1,9.6c-2.1,8.4,3.8,16,12.9,16.2
		C44.2,180.4,53.9,180.3,63.7,180.3z"/>
	<path d="M409.6,235.6c-2.9,7.7-8.6,10.5-16.6,10.2c-10.1-0.3-20.3,0-30.4-0.1c-2.5,0-3.6,0.8-4.5,3.2c-7.7,21.5-26.9,35.1-49,35
		c-22.2-0.2-40.9-13.6-48.6-35c-0.9-2.4-1.9-3.2-4.5-3.2c-23.2,0.1-46.4,0.1-69.6,0c-3,0-4,1.1-4.9,3.7
		c-7.3,20.4-25.2,33.5-46.9,34.4c-20.7,0.9-40.3-10.8-48.4-30.3c-2.8-6.8-6.2-8.4-12.7-7.9c-7.7,0.5-15.5,0.3-23.2,0.1
		c-7.8-0.2-13.2-5-13.6-11.8c-0.5-8,4.8-13.7,13.4-14c6.3-0.2,12.5,0,18.8-0.1c4.5,0,9,0,12.2,0c4.6-7.7,7.9-15.3,13.1-21.3
		c25.8-29.9,74.1-20.6,87.2,16.7c1.3,3.8,3,4.7,6.7,4.7c22.3-0.2,44.5-0.1,66.8,0c3.1,0,4.6-0.7,5.6-3.9
		c7.2-21.3,26.7-35.3,48.8-35.3c22.2,0,41.9,14.2,49,35.6c0.9,2.9,2.2,3.6,5,3.5c6.6-0.2,13.3-0.1,20.5-0.1c0-1.6,0-2.9,0-4.2
		c0-19.6,0.1-39.2-0.1-58.8c0-2.1-0.9-4.4-2.1-6.1c-4.6-6.4-9.7-12.4-14.3-18.7c-1.6-2.1-3.3-2.9-6-2.9c-31.2,0.1-62.4,0.1-93.6,0.1
		c-11.4,0-16-4.6-16-16c0-27.3,0-54.7,0-82c0-1.6,0-3.1,0-5.3c-2,0-3.7,0-5.4,0c-64.5,0-129,0-193.6,0c-2.4,0-4.8-0.1-7.1-0.7
		c-5.9-1.6-9.4-7.1-9-13.5c0.4-5.9,5-10.7,11-11.4C49.4,0,51.2,0,52.9,0c69.3,0,138.6,0,208,0c12.3,0,16.7,4.4,16.7,16.5
		c0,2.9,0,5.8,0,9.3c1.7,0,3.1,0,4.5,0c15.9,0,31.7,0.2,47.6-0.1c7.6-0.1,12.5,2.9,15.8,9.7c10.4,21,21.1,41.8,31.4,62.9
		c4,8.1,8.6,15.6,14.3,22.5c4.5,5.4,8.8,11,13,16.7c2.1,2.9,3.6,6.1,5.4,9.2C409.6,176.4,409.6,206,409.6,235.6z M350.1,103
		c-0.2-0.8-0.3-1.2-0.4-1.5c-8-15.9-16-31.9-24.1-47.8c-0.6-1.1-2.6-2.1-4-2.1c-13.7-0.2-27.5-0.1-41.2-0.1c-0.9,0-1.8,0.2-2.7,0.3
		c0,17.1,0,34,0,51.1C301.8,103,325.8,103,350.1,103z M309.5,258c14.1-0.1,25.7-11.8,25.6-25.8c-0.1-14.1-11.6-25.6-25.8-25.6
		c-14.3,0-26.1,11.9-25.8,26C283.9,246.8,295.4,258.1,309.5,258z M158.6,232.8c0.4-14.1-10.9-25.9-25.1-26.2
		c-14.2-0.3-26,10.8-26.3,25c-0.4,14.1,10.8,26,24.9,26.4C146.5,258.4,158.2,247.2,158.6,232.8z"/>
	<path d="M67.6,129.4c-17.3,0-34.7,0-52,0c-2.1,0-4.3,0-6.3-0.6c-5.2-1.3-9-6.4-9.2-11.8c-0.2-5.6,3.3-10.9,8.6-12.6
		c1.9-0.6,3.9-0.8,5.9-0.8c35.6,0,71.2,0,106.8,0c1.7,0,3.5,0.2,5.1,0.6c5.9,1.6,9.9,7.2,9.4,13.2c-0.4,6.2-5.2,11.2-11.5,11.8
		c-1.6,0.2-3.2,0.2-4.8,0.2C102.2,129.4,84.9,129.4,67.6,129.4z"/>
	<path d="M88.8,53c18.3,0,36.5-0.1,54.8,0c7.5,0,12.8,4.9,13.3,11.6c0.6,7.7-4.8,13.8-12.6,14c-6.3,0.2-12.5,0.1-18.8,0.1
		c-30,0-60,0-90,0c-7.4,0-12.6-3.8-14-10c-1.8-8.1,3.7-15.5,12.1-15.7C45.4,52.8,57.3,53,69.2,53C75.7,53,82.2,53,88.8,53z"/>
	<path d="M63.7,180.3c-9.7,0-19.5,0.1-29.2,0c-9.1-0.2-15-7.7-12.9-16.2c1.4-5.8,6.2-9.5,13.1-9.6c10.8-0.1,21.6,0,32.4,0
		c8.4,0,16.8-0.1,25.2,0c8.3,0.1,14,5.4,14,12.7c0.1,7.5-5.8,13-14.2,13C82.6,180.4,73.1,180.3,63.7,180.3z"/>
</g>
</svg>
