<?xml version="1.0" encoding="utf-8"?>
<!-- Generator: Adobe Illustrator 22.1.0, SVG Export Plug-In . SVG Version: 6.00 Build 0)  -->
<svg version="1.1" id="Слой_1" xmlns="http://www.w3.org/2000/svg" xmlns:xlink="http://www.w3.org/1999/xlink" x="0px" y="0px"
	 viewBox="0 0 127.1 173.6" style="enable-background:new 0 0 127.1 173.6;" xml:space="preserve">
<g>
	<path d="M90.4,80.7c9.6,0,18.4-0.2,27.2,0.1c2.7,0.1,6.7,0.2,7.9,2.9c0.6,3-1.6,5.8-3.4,7.8c-17.4,19.3-35,38.5-52.5,57.7
		c-0.6,0.7-1.1,1.5-2.3,3.2c2.6,0,4.4,0,6.1,0c15.5,0,31,0,46.5,0c6.3,0,7.3,1,7.3,7.3c0,14.8,1.4,13.9-13.6,13.9c-35,0-70,0-105,0
		C0.6,173.6,0,173,0,165c0-12.4-1.6-12.5,12.5-12.4c15.3,0.1,30.7,0,46.8,0c-0.9-1.5-1.3-2.7-2.1-3.5C40.1,130.4,23,111.8,5.8,93.2
		c-0.9-1-2.4-3-3.2-4.3c-1.1-1.9-1.6-3.3-0.8-4.8c0.7-1.5,2.5-2.8,5.6-2.8c8.3,0,16.7-0.1,25-0.1c1.1,0,2.3-0.2,4.1-0.3
		c0-1.9,0-3.7,0-5.4c0-21.5,0-43,0-64.5C36.5,1.6,38,0,47.1,0c11.3,0,22.7,0,34,0c7.3,0,9.2,1.9,9.2,9.1c0,21.8,0,43.7,0,65.5
		C90.4,76.5,90.4,78.3,90.4,80.7z M44.7,8.6c0,2.1,0,3.9,0,5.7c0,22.2,0,44.3,0,66.5c0,6.5-1.8,8.4-8.2,8.5c-5,0.1-10,0-15,0
		c-2.2,0-4.4,0-8.1,0C30.8,108.2,47,126,63.5,144c16.7-18.2,32.9-35.9,50.1-54.7c-8,0-14.6,0-21.2,0c-8.7,0-10.2-1.4-10.2-10.1
		c0-21.5,0-43,0-64.5c0-1.9,0-3.9,0-6.1C69.4,8.6,57.3,8.6,44.7,8.6z M118.1,164.8c1.3-3.5-0.4-4-3-4c-11.3,0.1-22.7,0-34,0
		c-22.8,0-45.6,0-68.5,0c-2.7,0-5.3-0.1-3.3,3.9C45.5,164.8,81.6,164.8,118.1,164.8z"/>
</g>
</svg>
