<?xml version="1.0" encoding="utf-8"?>
<!-- Generator: Adobe Illustrator 22.1.0, SVG Export Plug-In . SVG Version: 6.00 Build 0)  -->
<svg version="1.1" id="Слой_1" xmlns="http://www.w3.org/2000/svg" xmlns:xlink="http://www.w3.org/1999/xlink" x="0px" y="0px"
	 viewBox="0 0 421.9 422.7" style="enable-background:new 0 0 421.9 422.7;" xml:space="preserve">
<style type="text/css">
	.st0{fill:#FFFFFF;}
</style>
<g>
	<path class="st0" d="M43.4,152.6c-8.2,8.4-15.4,15.7-22.6,23c-3.2,3.3-7,5.1-11.7,3.8c-8.6-2.2-12.2-12.6-6-19
		c14.6-15.1,29.5-29.9,44.5-44.5c4.3-4.2,11-3.9,15.4,0.5c14.6,14.4,29.1,28.9,43.5,43.4c4.6,4.7,4.5,11.7,0.2,16.2
		c-4.6,4.8-11.6,5.2-16.6,0.4c-7.5-7.3-14.7-15-22.9-23.4c-0.3,2.5-0.5,3.7-0.5,4.9c0,72.5,0,145,0,217.5c0,14.3,9.2,23.4,23.4,23.4
		c84.2,0,168.3,0,252.5,0c9.9,0,13.6-3.7,13.7-13.5c0-7.7-0.1-15.3,0-23c0.1-7.3,4.9-12.4,11.5-12.5c6.5-0.1,11.7,5.2,11.8,12.3
		c0.1,9.2,0.2,18.3,0,27.5c-0.4,16.3-13.7,30.7-29.9,32.4c-4.5,0.5-9,0.5-13.5,0.5c-81.3,0-162.6,0-244,0
		c-23.6,0-41.6-12.5-47.1-33.3c-1.4-5.4-1.7-11.2-1.7-16.8c-0.1-71.2-0.1-142.3-0.1-213.5C43.4,157.5,43.4,155.9,43.4,152.6z"/>
	<path class="st0" d="M381,268.7c6.5-6.7,13-13.4,19.6-20c6-6.1,12.9-6.5,18-1.3c4.9,5,4.4,11.9-1.3,17.7
		c-13.4,13.5-26.8,26.9-40.3,40.3c-5.7,5.7-12.3,5.7-18,0c-13.7-13.6-27.4-27.3-41-41c-5.1-5.1-5.2-12.3-0.5-17
		c4.9-4.8,11.7-4.8,16.9,0.4c7.1,7,14,14.1,21.8,22.1c0.1-2.4,0.2-3.7,0.2-4.9c0-72,0-144,0-215.9c0-6.5-1.2-12.6-5.6-17.6
		c-5-5.7-11.3-7.6-18.7-7.6c-42.5,0.1-85,0-127.5,0c-41.2,0-82.3,0-123.5,0c-11.1,0-14.3,3.3-14.3,14.3c0,7.8,0,15.7,0,23.5
		c-0.1,7.8-4.6,12.7-11.6,12.8c-7.1,0.1-11.7-4.8-11.7-12.6c-0.1-8.5-0.1-17,0-25.5C43.6,14.4,57.9,0.2,79.9,0.1
		c21.3-0.1,42.7,0,64,0c62.6,0,125.3,0,187.9,0c20.6,0,37.6,10.8,44.4,28.8c2.2,5.8,3.3,12.3,3.3,18.5c0.2,71.8,0.1,143.6,0.1,215.4
		c0,1.8,0,3.6,0,5.3C380.2,268.3,380.6,268.5,381,268.7z"/>
	<path class="st0" d="M212.3,134.6c-34.1,0-68.3,0-102.4,0c-7.8,0-12.6-3.7-13.4-9.9c-0.8-6.5,2.9-11.8,9.4-13.2
		c1.3-0.3,2.6-0.4,4-0.4c68.6,0,137.2,0,205.9,0c8.3,0,13.4,5,13.2,12.3c-0.2,5.8-4.3,10.4-10.2,11.1c-2.1,0.2-4.3,0.2-6.5,0.2
		C278.9,134.6,245.6,134.6,212.3,134.6C212.3,134.6,212.3,134.6,212.3,134.6z"/>
	<path class="st0" d="M212.7,83.2c-34.5,0-69,0-103.4,0c-8.1,0-13.1-4.7-12.9-11.9c0.1-6.3,4.7-11,10.9-11.4c0.8-0.1,1.7,0,2.5,0
		c68.5,0,136.9,0,205.4,0c7.9,0,12.9,3.8,13.6,10.2c0.8,7.6-4.2,13.1-12.1,13.1c-16.3,0.1-32.6,0-49,0
		C249.4,83.2,231,83.2,212.7,83.2z"/>
	<path class="st0" d="M212.8,316.8c34,0,68,0,101.9,0c2,0,4,0,5.9,0.5c5.5,1.5,8.7,6.8,8.1,12.7c-0.6,5.2-4.9,9.6-10.2,10
		c-2.6,0.2-5.3,0.1-8,0.1c-65.6,0-131.2,0-196.9,0c-2.2,0-4.3,0.1-6.5-0.1c-6.5-0.4-11-5.4-10.9-12c0.1-6.2,4.7-11.1,11-11.3
		c6-0.2,12-0.1,18-0.1C154.5,316.8,183.7,316.8,212.8,316.8z"/>
	<path class="st0" d="M200.7,288.9c-30.2,0-60.3,0-90.5,0c-8.8,0-14-4.7-13.8-12.2c0.1-5.4,3.4-9.6,8.6-10.8
		c2.2-0.5,4.6-0.6,6.9-0.6c59.5,0,119,0,178.5,0c10.2,0,15.9,4.2,16,11.8c0.1,7.6-5.6,11.9-15.7,11.9
		C260.7,288.9,230.7,288.9,200.7,288.9C200.7,288.9,200.7,288.9,200.7,288.9z"/>
	<path class="st0" d="M201.4,237.3c-30.7,0-61.3,0-92,0c-7.8,0-12.7-4.2-13-10.8c-0.3-6.6,3.8-11.6,10.3-12.5c1.3-0.2,2.7-0.1,4-0.1
		c60.2,0,120.3,0,180.5,0c0.5,0,1,0,1.5,0c8.2,0.1,13.8,5,13.7,12c-0.1,6.9-5.4,11.5-13.5,11.5C262.4,237.3,231.9,237.3,201.4,237.3
		C201.4,237.3,201.4,237.3,201.4,237.3z"/>
	<path class="st0" d="M226.1,186c-29.6,0-59.3,0-88.9,0c-6.3,0-10.9-3.4-12.3-8.9c-1.3-4.8,0.8-10.5,5.5-12.8
		c2.6-1.2,5.7-1.6,8.6-1.7c30.1-0.1,60.3-0.1,90.4-0.1c28.8,0,57.6,0,86.4,0c7.6,0,12.4,3.9,13,10.3c0.7,7.7-4.5,13.1-12.8,13.1
		c-27.1,0.1-54.3,0-81.4,0C231.8,186,228.9,186,226.1,186z"/>
</g>
</svg>
