<?xml version="1.0" encoding="utf-8"?>
<!-- Generator: Adobe Illustrator 22.1.0, SVG Export Plug-In . SVG Version: 6.00 Build 0)  -->
<svg version="1.1" id="Слой_1" xmlns="http://www.w3.org/2000/svg" xmlns:xlink="http://www.w3.org/1999/xlink" x="0px" y="0px"
	 viewBox="0 0 154.7 155.5" style="enable-background:new 0 0 154.7 155.5;" xml:space="preserve">
<style type="text/css">
	.st0{fill:#FFFFFF;}
</style>
<g>
	<path class="st0" d="M45.9,148.5c-1.9,2.7-3,6-5,6.7c-3.4,1.3-5-2.2-6.4-4.9c-1.9-3.9-3.9-7.7-5.7-11.6c-2.6-5.5-0.8-8.4,5.2-8.3
		c4.2,0.1,8.3,0.6,12.5,0.8c8.3,0.5,9.5,2.2,6.4,9.9c7.9,4.1,16.6,5.1,25.2,4.8c27.6-1,48.6-13.7,60.7-38.6
		c11.6-23.9,9.2-47.4-5.9-69.5c-0.6-0.8-1.3-1.7-1.6-2.5c-1.1-2.6-2-4.7,0.6-6.7c2.9-1.7,5.5,0.3,6.4,1.6c4,5.9,8.2,11.9,10.8,18.4
		c17.8,45.1-8.5,94.1-55.9,104.7C78.6,156.8,62.5,155,45.9,148.5z"/>
	<path class="st0" d="M108.8,7c0.6-1.2,1.1-1.8,1.5-2.6c0.8-1.6,1.7-4,3.1-4.4c1.4-0.4,4.2,0.7,4.9,2c3,5.3,5.7,10.9,8.1,16.5
		c1.5,3.6-0.5,6.3-4.5,6.2c-6-0.1-12-0.4-17.9-1.1c-4.2-0.5-4.9-3.7-1.9-9.3C93.3,10.2,84,9.1,74.5,9.6C37.7,11.5,9.8,39.9,8.9,76.8
		c-0.3,14.1,3.7,27.3,11.7,39.1c0.7,1.1,1.4,2.2,2.3,3.3c2,2.5,2.8,5.2-0.1,7.4c-3,2.2-5.6,0.6-7.1-2.1c-4.5-8.6-10.2-17-12.8-26.2
		C-9.4,54.5,18,10.7,63.3,1.7c15-3,29.8-1.2,44,4.8C108.2,6.9,107.5,6.6,108.8,7z"/>
	<path class="st0" d="M69.9,77.7c0-6.2-0.1-12.3,0-18.5c0.1-5.7,1.1-6.8,6.7-6.9c3.7-0.1,7.3,0,11,0.1c10.3,0.3,16,4.3,17.3,14.3
		c1,7.8,0.7,16-0.4,23.8c-1.1,7.7-7,11.9-14.8,12.3c-4.7,0.2-9.3,0.1-14,0.2c-4,0.1-5.8-1.9-5.8-5.8c0-0.3,0-0.7,0-1
		C69.9,90,69.9,83.9,69.9,77.7z M79.1,94.5c2.9,0,5.2,0.1,7.5,0c6.6-0.3,9.3-2.9,9.6-9.5c0.2-5,0.2-10,0-15
		c-0.2-5.7-2.5-8.3-8.1-8.9c-2.9-0.3-5.9-0.1-9-0.1C79.1,72.3,79.1,83,79.1,94.5z"/>
	<path class="st0" d="M42.8,60.9c0,4.3,0,8,0,12.6c4.4,0,8.9,0,13.3,0c3.1,0,6,0.6,6.1,4.3c0,3.8-3,4.2-6.1,4.2
		c-4.3-0.1-8.6,0-13.2,0c0,4.3,0,8.1,0,12.5c5.5,0,10.8,0,16,0c2.8,0,5.6,0.3,5.8,3.9c0.2,3.8-2.5,4.6-5.6,4.6c-6.5,0-13-0.1-19.5,0
		c-4.2,0.1-6.2-1.9-6.2-6c0-13,0-26,0-39c0-3.5,1.6-5.7,5.4-5.7c6.7,0,13.3-0.3,20,0.2c1.8,0.1,3.5,2.6,5.2,4
		c-1.7,1.4-3.3,3.9-5.1,4.1C53.7,61.2,48.3,60.9,42.8,60.9z"/>
	<path class="st0" d="M112.1,77.7c0-6.6,0-13.3,0-19.9c0-3.2,1-6.2,4.4-5.8c1.8,0.2,4.4,3.4,4.4,5.3c0.4,13.6,0.3,27.2,0.2,40.8
		c0,2.9-1.4,5.4-4.6,5.4c-3.5-0.1-4.5-2.6-4.5-5.9C112.2,90.9,112.1,84.3,112.1,77.7z"/>
</g>
</svg>
