<?xml version="1.0" encoding="utf-8"?>
<!-- Generator: Adobe Illustrator 22.1.0, SVG Export Plug-In . SVG Version: 6.00 Build 0)  -->
<svg version="1.1" id="Слой_1" xmlns="http://www.w3.org/2000/svg" xmlns:xlink="http://www.w3.org/1999/xlink" x="0px" y="0px"
	 viewBox="0 0 481.9 424.1" style="enable-background:new 0 0 481.9 424.1;" xml:space="preserve">
<g>
	<path d="M80.8,175.5c7.2-7.3,14.4-14.6,22.6-23c0,3.3,0,4.9-0.1,6.3c0,13.4,0,26.8,0,40.2c4-1.1,8.1-1.7,12.2-1.7
		c3.7-0.3,7.5-0.5,11.2-0.6v-38.8c0-1.2,0.2-2.4,0.5-4.9c8.2,8.4,15.4,16.1,22.9,23.4c5,4.8,12,4.4,16.6-0.4
		c4.3-4.5,4.4-11.5-0.2-16.2c-14.4-14.5-28.9-29-43.5-43.4c-4.4-4.4-11.1-4.7-15.4-0.5c-15,14.6-29.9,29.4-44.5,44.5
		c-6.2,6.4-2.6,16.8,6,19C73.8,180.6,77.6,178.8,80.8,175.5z"/>
	<path d="M439.6,362c-0.1-7.1-5.3-12.4-11.8-12.3c-6.6,0.1-11.4,5.2-11.5,12.5c-0.1,7.7,0,15.3,0,23c-0.1,9.8-3.8,13.5-13.7,13.5
		H276c-2.3,4.6-5.3,8.7-8.6,12c-5.4,5.4-12.4,9.4-19.9,11.7h148.7c4.5,0,9,0,13.5-0.5c16.2-1.7,29.5-16.1,29.9-32.4
		C439.8,380.3,439.7,371.2,439.6,362z"/>
	<path d="M441,268.6c6.5-6.7,13-13.4,19.6-20c6-6.1,12.9-6.5,18-1.3c4.9,5,4.4,11.9-1.3,17.7c-13.4,13.5-26.8,26.9-40.3,40.3
		c-5.7,5.7-12.3,5.7-18,0c-13.7-13.6-27.4-27.3-41-41c-5.1-5.1-5.2-12.3-0.5-17c4.9-4.8,11.7-4.8,16.9,0.4c7.1,7,14,14.1,21.8,22.1
		c0.1-2.4,0.2-3.7,0.2-4.9c0-72,0-144,0-215.9c0-6.5-1.2-12.6-5.6-17.6c-5-5.7-11.3-7.6-18.7-7.6c-42.5,0.1-85,0-127.5,0
		c-41.2,0-82.3,0-123.5,0c-11.1,0-14.3,3.3-14.3,14.3c0,7.8,0,15.7,0,23.5c-0.1,7.8-4.6,12.7-11.6,12.8c-7.1,0.1-11.7-4.8-11.7-12.6
		c-0.1-8.5-0.1-17,0-25.5c0.1-22,14.4-36.2,36.4-36.3c21.3-0.1,42.7,0,64,0c62.6,0,125.3,0,187.9,0c20.6,0,37.6,10.8,44.4,28.8
		c2.2,5.8,3.3,12.3,3.3,18.5c0.2,71.8,0.1,143.6,0.1,215.4c0,1.8,0,3.6,0,5.3C440.2,268.2,440.6,268.4,441,268.6z"/>
	<path d="M272.3,134.5c-34.1,0-68.3,0-102.4,0c-7.8,0-12.6-3.7-13.4-9.9c-0.8-6.5,2.9-11.8,9.4-13.2c1.3-0.3,2.6-0.4,4-0.4
		c68.6,0,137.2,0,205.9,0c8.3,0,13.4,5,13.2,12.3c-0.2,5.8-4.3,10.4-10.2,11.1c-2.1,0.2-4.3,0.2-6.5,0.2
		C338.9,134.5,305.6,134.5,272.3,134.5L272.3,134.5z"/>
	<path d="M272.7,83.1c-34.5,0-69,0-103.4,0c-8.1,0-13.1-4.7-12.9-11.9c0.1-6.3,4.7-11,10.9-11.4c0.8-0.1,1.7,0,2.5,0
		c68.5,0,136.9,0,205.4,0c7.9,0,12.9,3.8,13.6,10.2c0.8,7.6-4.2,13.1-12.1,13.1c-16.3,0.1-32.6,0-49,0
		C309.4,83.1,291,83.1,272.7,83.1z"/>
	<path d="M380.6,317.2c-1.9-0.5-3.9-0.5-5.9-0.5h-90.5c0,6.7-0.1,13.4-0.1,20.1c0,1.1-0.1,2.1-0.1,3.2h86.6c2.7,0,5.4,0.1,8-0.1
		c5.3-0.4,9.6-4.8,10.2-10C389.3,324,386.1,318.7,380.6,317.2z"/>
	<path d="M350.4,265.2h-65.7c-0.1,1.2-0.1,2.4-0.2,3.7c0,0.8,0.1,1.6,0.1,2.4c0,5.8-0.1,11.7-0.2,17.5c22.1,0,44.2,0,66.4,0.1
		c10.1,0,15.8-4.3,15.7-11.9C366.3,269.4,360.6,265.2,350.4,265.2z"/>
	<path d="M352.7,213.8h-72.3c3.3,6.5,5.1,13.8,5.2,21c0,0.8,0,1.6,0,2.4c22.4,0,44.9,0,67.3,0.1c8.1,0,13.4-4.6,13.5-11.5
		C366.5,218.8,360.9,213.9,352.7,213.8z"/>
	<path d="M286.1,185.9c-29.6,0-59.3,0-88.9,0c-6.3,0-10.9-3.4-12.3-8.9c-1.3-4.8,0.8-10.5,5.5-12.8c2.6-1.2,5.7-1.6,8.6-1.7
		c30.1-0.1,60.3-0.1,90.4-0.1c28.8,0,57.6,0,86.4,0c7.6,0,12.4,3.9,13,10.3c0.7,7.7-4.5,13.1-12.8,13.1c-27.1,0.1-54.3,0-81.4,0
		C291.8,185.9,288.9,185.9,286.1,185.9z"/>
</g>
<g>
	<g>
		<path d="M2.5,301.7c0.1-0.3,0.4-0.6,0.4-0.9c2.4-22.7,22.6-43.6,50.2-42.9c9.6,0.2,19.1,0,28.7,0c1,0,2-0.1,3.1-0.1
			c0-8.3,0-16.2,0-24.1c0.1-15,10.3-25.2,25.4-25.2c43.1,0,86.2,0,129.3,0c15.3,0,25.6,10.3,25.6,25.6c0,45.8,0,91.6,0,137.5
			c0,14.4-9.1,24.3-23.4,25.4c-1.7,0.1-2.4,0.6-3,2.3c-4.3,13.4-16.8,22.5-30.8,22.5c-13.9,0-26.3-8.9-30.7-22.2
			c-0.7-2-1.5-2.6-3.6-2.6c-23.9,0.1-47.9,0.1-71.8,0c-1.9,0-2.7,0.5-3.4,2.4c-4.8,13.3-14.4,21.1-28.6,22.1
			c-13.6,1-23.9-5.1-30.7-17c-1.4-2.4-1.8-6-3.7-7.2c-2.2-1.3-5.6-0.3-8.6-0.4c-10.7-0.3-18.4-5.2-22.7-15.1
			c-0.8-1.8-1.2-3.9-1.8-5.8C2.5,351.3,2.5,326.5,2.5,301.7z M249.8,320.9c0-28.9,0-57.8,0-86.7c0-7.2-3.3-10.5-10.5-10.5
			c-42.8,0-85.6,0-128.5,0c-7.1,0-10.4,3.3-10.4,10.3c0,29,0,58,0,86.9c0,0.8,0,1.7,0,2.7c49.9,0,99.5,0,149.4,0
			C249.8,322.6,249.8,321.8,249.8,320.9z M100.6,339.3c0,14,0,27.9,0,42.3c0.9,0,1.8,0,2.7,0c23.5,0,47,0,70.5,0
			c1.9,0,2.8-0.4,3.4-2.4c4.4-13.5,16.8-22.5,30.8-22.4c14.1,0,26.5,9.2,30.8,22.8c0.6,1.9,1.5,2.2,3.1,1.9c4.4-0.7,7.7-3.9,7.7-8.3
			c0.1-11.2,0-22.4,0-33.9C199.9,339.3,150.4,339.3,100.6,339.3z M59,273.4c0,1.1,0,2.1,0,3.1c0,17.4-0.2,34.9,0.1,52.3
			c0.1,7.4-3.5,10.6-10.3,10.4c-9.3-0.3-18.6-0.1-27.9-0.1c-0.9,0-1.8,0-3.1,0c0,1.4,0,2.6,0,3.7c0,9.6,0,19.1,0,28.7
			c0,6.3,3.5,9.9,9.8,9.9c2.6,0,5.8,0.8,7.8-0.3c1.8-1,2.3-4.2,3.4-6.4c7.9-15.9,27-22.5,43-14.8c0.9,0.4,1.8,0.8,2.9,1.3
			c0-29.5,0-58.6,0-87.9C76.2,273.4,67.8,273.4,59,273.4z M43.5,274.3c-1.1,0.3-2,0.4-2.8,0.7c-13.1,4.3-22.5,16.9-22.8,30.7
			c-0.1,5.9,0,11.8,0,17.8c8.5,0,16.9,0,25.6,0C43.5,310.2,43.5,292.7,43.5,274.3z M207.9,406.3c9.3,0.1,17.2-7.7,17.2-17.1
			c0-9.4-7.9-17.2-17.2-17.1c-9.3,0.1-16.9,7.7-16.9,17C191,398.5,198.6,406.2,207.9,406.3z M68,406.3c9.3-0.1,16.9-7.8,16.9-17.1
			c0-9.4-7.9-17.1-17.2-17c-9.3,0.1-16.9,7.8-16.9,17C50.8,398.6,58.7,406.4,68,406.3z"/>
		<path d="M208,424.1c-15,0-28.2-9.6-33-23.9c-0.2-0.6-0.4-0.8-0.4-0.8c0,0-0.2-0.1-0.8-0.1c0,0,0,0,0,0c-22.3,0.1-45.8,0.1-71.8,0
			c-0.4,0-0.7,0-0.7,0.1c-0.1,0.1-0.2,0.3-0.3,0.7c-5.2,14.5-15.9,22.7-30.7,23.8c-14.2,1-25.6-5.3-33-18.2c-0.6-1.1-1-2.2-1.4-3.3
			c-0.4-1-0.9-2.7-1.4-2.9c-0.8-0.5-2.6-0.3-4.1-0.2c-1.1,0.1-2.2,0.2-3.2,0.2c-11.8-0.4-20.2-5.9-24.9-16.5c-0.6-1.4-1-2.9-1.4-4.3
			c-0.2-0.6-0.3-1.2-0.5-1.8L0,376.5v-75.3l0.2-0.5c0.1-0.1,0.1-0.3,0.2-0.4c2.6-22.7,22.9-45.5,52.7-44.8c6.7,0.2,13.4,0.1,20,0.1
			c2.9,0,5.8,0,8.7,0c0.2,0,0.4,0,0.6,0c0-1.8,0-3.6,0-5.3c0-5.6,0-11,0-16.5c0.1-16.3,11.5-27.7,27.8-27.7c43.1,0,86.2,0,129.3,0
			c16.5,0,28,11.5,28,28.1c0,45.8,0,91.6,0,137.5c0,15.7-10.1,26.7-25.6,27.9c-0.3,0-0.5,0.1-0.6,0.1c0,0.1-0.1,0.2-0.2,0.5
			C236.5,414.4,223.2,424.1,208,424.1C208,424.1,208,424.1,208,424.1z M173.8,394.4c3.1,0,4.9,1.3,5.9,4.3
			c4.1,12.3,15.4,20.5,28.3,20.5c0,0,0,0,0.1,0c13,0,24.4-8.4,28.4-20.8c0.8-2.6,2.4-3.8,5.2-4c13-1,21.1-9.8,21.1-22.9
			c0-45.8,0-91.6,0-137.5c0-13.8-9.3-23.1-23.1-23.1c-43.1,0-86.2,0-129.3,0c-13.6,0-22.8,9.2-22.9,22.8c0,5.4,0,10.9,0,16.4
			c0,2.5,0,5.1,0,7.7v2.4l-2.4,0.1c-0.4,0-0.7,0-1.1,0.1c-0.7,0-1.4,0.1-2.2,0.1c-2.9,0-5.7,0-8.6,0c-6.6,0-13.4,0.1-20.2-0.1
			C26,259.7,7.5,280.5,5.3,301c-0.1,0.5-0.2,0.9-0.4,1.3v73.4c0.2,0.5,0.3,1,0.4,1.6c0.4,1.3,0.7,2.5,1.2,3.6
			c3.9,8.8,10.7,13.3,20.5,13.6c0.8,0,1.7-0.1,2.7-0.1c2.3-0.2,4.9-0.4,7,0.8c2,1.2,2.9,3.5,3.6,5.6c0.3,1,0.7,1.9,1.1,2.5
			c6.5,11.3,16,16.6,28.4,15.8c12.9-0.9,21.8-7.8,26.4-20.5c1-2.8,2.7-4,5.7-4c0,0,0,0,0,0C128,394.5,151.5,394.5,173.8,394.4
			C173.8,394.4,173.8,394.4,173.8,394.4z M208,408.8c-0.1,0-0.1,0-0.2,0h0c-10.7-0.1-19.4-8.9-19.4-19.5c0-10.6,8.7-19.4,19.4-19.5
			c5.2,0,10.1,2,13.8,5.7c3.8,3.7,5.9,8.7,5.8,13.9c0,5.2-2.1,10.1-5.8,13.8C218,406.7,213.1,408.8,208,408.8z M207.9,403.8
			c0,0,0.1,0,0.1,0c3.8,0,7.4-1.5,10.2-4.3c2.8-2.8,4.4-6.5,4.4-10.3c0-3.9-1.6-7.5-4.4-10.3c-2.8-2.8-6.5-4.3-10.3-4.2
			c-8,0.1-14.5,6.6-14.5,14.6C193.4,397.2,199.9,403.7,207.9,403.8L207.9,403.8z M67.8,408.8c-5.1,0-9.9-2-13.6-5.7
			c-3.8-3.7-5.9-8.6-5.9-13.8c0-10.6,8.7-19.4,19.4-19.5c0.1,0,0.2,0,0.2,0c5.1,0,9.9,2,13.6,5.7c3.8,3.7,5.9,8.6,5.9,13.9
			c0,10.7-8.7,19.4-19.4,19.5l0,0C68,408.8,67.9,408.8,67.8,408.8z M67.9,374.6c-0.1,0-0.1,0-0.2,0c-8,0.1-14.5,6.6-14.5,14.6
			c0,3.9,1.6,7.5,4.4,10.3c2.8,2.7,6.4,4.3,10.2,4.3c0,0,0.1,0,0.1,0l0,0c7.8-0.1,14.5-6.8,14.5-14.6c0-3.9-1.6-7.5-4.4-10.3
			C75.3,376.1,71.7,374.6,67.9,374.6z M32.5,384.3c-0.9,0-1.9-0.1-2.8-0.2c-0.8-0.1-1.5-0.1-2.2-0.1c-7.6-0.1-12.2-4.7-12.2-12.4
			c0-6.7,0-13.5,0-20.2l0-14.7h5.5c2.8,0,5.6,0,8.4,0c6.4-0.1,13.1-0.1,19.7,0.1c2.7,0.1,4.7-0.5,5.9-1.6c1.2-1.2,1.9-3.3,1.8-6.2
			c-0.2-12.4-0.2-25.1-0.1-37.3c0-5,0-10,0-15.1V271h30.7v94.2l-4.5-2.1c-0.7-0.3-1.3-0.6-1.9-0.9c-14.7-7-32.5-0.9-39.7,13.7
			c-0.3,0.6-0.5,1.3-0.8,2c-0.7,2-1.6,4.3-3.6,5.5C35.4,384.1,34,384.3,32.5,384.3z M20.3,341.7l0,9.8c0,6.7,0,13.5,0,20.2
			c0,5,2.4,7.4,7.3,7.5c0.9,0,1.7,0.1,2.6,0.2c1.5,0.1,3.2,0.3,4-0.1c0.4-0.3,1-1.9,1.4-2.8c0.3-0.8,0.6-1.7,1-2.5
			c8.3-16.8,28.7-24,45.7-16.3v-81.6H61.5v0.7c0,5,0,10,0,15.1c0,12.2-0.1,24.8,0.1,37.2c0.1,4.3-1,7.6-3.3,9.8
			c-2.2,2.2-5.4,3.2-9.5,3c-6.5-0.2-13.1-0.2-19.5-0.1c-2.8,0-5.6,0-8.4,0H20.3z M173.9,384.1C173.9,384.1,173.8,384.1,173.9,384.1
			c-18.7,0-37.7,0-56,0l-19.7,0v-47.2h154.1v2.5c0,3.3,0,6.6,0,9.8c0,8.3,0,16.1,0,24.1c-0.1,5.4-4.1,9.8-9.8,10.7
			c-3,0.5-4.9-0.7-5.9-3.6c-4-12.5-15.4-21-28.5-21c0,0-0.1,0-0.1,0c-12.9,0-24.3,8.3-28.3,20.7
			C178.4,383.6,176.1,384.1,173.9,384.1z M132.2,379.1c13.8,0,27.8,0,41.6,0c0.5,0,0.7,0,0.8-0.1c0-0.1,0.1-0.3,0.3-0.6
			c4.7-14.4,18-24.1,33.1-24.1c0,0,0.1,0,0.1,0c15.2,0,28.6,9.9,33.2,24.5c0,0.1,0.1,0.2,0.1,0.3c0.1,0,0.2,0,0.3,0
			c3.3-0.5,5.6-2.9,5.6-5.8c0.1-8,0.1-15.8,0-24c0-2.5,0-4.9,0-7.4H103v37.3l14.8,0C122.6,379.1,127.4,379.1,132.2,379.1z
			 M252.2,326.1H97.9l0-28.3c0-21.2,0-42.5,0-63.7c0-8.3,4.5-12.7,12.9-12.7c42.8,0,85.6,0,128.5,0c8.6,0,13,4.4,13,12.9
			L252.2,326.1z M102.8,321.2h144.5l0-86.9c0-5.8-2.2-8-8-8c-42.8,0-85.6,0-128.5,0c-5.7,0-8,2.2-8,7.8c0,21.2,0,42.5,0,63.7
			L102.8,321.2z M46,326.1H15.4v-2.5c0-1.9,0-3.8,0-5.7c0-4.2,0-8.2,0-12.2c0.3-14.8,10.4-28.4,24.5-33c0.7-0.2,1.3-0.4,2-0.5
			c0.3-0.1,0.6-0.1,1-0.2l3.1-0.8V326.1z M20.4,321.1H41v-43.6c-11.9,4.1-20.4,15.7-20.7,28.3c-0.1,4-0.1,7.9,0,12.1
			C20.3,319,20.4,320.1,20.4,321.1z"/>
	</g>
</g>
</svg>
