<?xml version="1.0" encoding="utf-8"?>
<!-- Generator: Adobe Illustrator 22.1.0, SVG Export Plug-In . SVG Version: 6.00 Build 0)  -->
<svg version="1.1" id="Слой_1" xmlns="http://www.w3.org/2000/svg" xmlns:xlink="http://www.w3.org/1999/xlink" x="0px" y="0px"
	 viewBox="0 0 605.7 623.6" style="enable-background:new 0 0 605.7 623.6;" xml:space="preserve">
<style type="text/css">
	.st0{fill:#FFFFFF;}
</style>
<g>
	<path class="st0" d="M132.4,526.5c-13,0-25.6,0-38.3,0c-10.5,0-19.1-4.2-21-16.3c-1.7-10.3,1.4-18.4,11.9-23.9
		c5-2.5,9.8-3.4,15.2-3.4c108.2,0.1,216.3,0.1,324.5,0.1c8.3,0,8.3,0,10.4-7.8c2-7.6,3.9-15.2,6-22.7c1.1-3.8,0-5.4-4-5.1
		c-1.7,0.1-3.3,0-5,0c-122.5,0-245,0-367.5,0c-12.6,0-20.5-5.2-23.4-15.4c-2.3-7.9-0.2-15.6,4.7-21.1c3-3.4,9.6-3.8,14.6-5.3
		c1.9-0.5,4-0.1,6-0.1c126.3,0,252.7,0,379,0c7.4,0,7.5,0,9.2-7.2c2.2-8.8,4.2-17.7,6.4-26.5c0.8-3.1,0-4.5-3.2-4.3
		c-1.5,0.1-3,0-4.5,0c-140.2,0-280.3-0.2-420.5,0.3c-17.1,0.1-30.2-16.7-19.4-33.3c3.3-5.2,8.5-7.2,14.3-7.9
		c2.1-0.3,4.3-0.1,6.5-0.1c143.7,0,287.3,0,431,0c7.4,0,7.4,0,9.2-7.3c5.7-22.6,11.4-45.2,17.1-67.8c3.1-12.1,10.4-17.9,22.9-17.9
		c22.3,0,44.7,0.5,67-0.2c15-0.5,24,10.8,23.9,20.1c-0.1,12.9-8.9,21.6-23.4,21.8c-15.5,0.3-31,0.3-46.5-0.1c-5.5-0.1-7.4,1.9-8.6,7
		c-7.6,30.4-15.6,60.6-23.3,90.9c-4.9,19.4-9.3,38.8-14.2,58.2c-5,20-10.5,39.8-15.6,59.7c-1.6,6.3-2.8,12.6-4.5,18.9
		c-3.1,11.2-10.4,16.5-21.9,16.5c-11.3,0-22.7,0-34,0c-1.1,0-2.2,0.3-4.7,0.6c18.9,12.2,25.2,29.5,23.5,49.8
		c-1.1,12.2-6.2,23.2-15.7,31.4c-23.7,20.5-48.5,20.6-73.7-1.9c-11.7-10.4-14.7-25.8-13.1-41.5c1.5-15.5,9.1-27.9,21.1-38.1
		c-53.8,0-107.6,0-162.9,0c19.2,14,27,32.3,23,54.4c-2.4,13.5-10.4,24.4-21.8,32.4c-9.3,6.4-19.9,10.4-30.9,9.9
		c-13.7-0.6-27.5-6.1-36-16.3C104.1,585.4,98.1,553.2,132.4,526.5z M380.9,580.7c5.1,0.1,10.5-4.9,10.7-9.8
		c0.1-5.4-4.6-8.6-13.5-9.1c-3.6-0.2-7.3,4.6-7.2,9.2C370.9,576.1,375.6,580.6,380.9,580.7z M169.9,570.8c0.1-5.8-4.9-9.2-13.4-9.2
		c-3.9,0-5.6,3.8-5.5,12.7c0,3.2,4.4,6.3,8.9,6.3C164.9,580.7,169.8,575.9,169.9,570.8z"/>
	<path class="st0" d="M177.2,244.5c-10.3,0-20.7,0.1-31,0c-3.6,0-4.7,1-3.9,4.7c3.1,14.3,5.8,28.6,8.9,42.9c0.8,3.7-0.4,5-3.8,5
		c-7.8,0-15.7-0.1-23.5,0.1c-3.9,0.1-5.3-2.3-5.9-5.5c-2.7-14.2-5.6-28.4-7.9-42.6c-0.6-3.7-1.9-4.6-5.4-4.6
		c-18.5,0.1-37,0.2-55.5,0c-3.4,0-5.4,1.3-5.2,4.3c0.4,6.7,0.8,13.6,2.3,20.1c1.7,7.8,4.3,15.4,6.8,23c1.3,3.9,0,5.3-3.7,5.3
		c-11.3,0-22.7-0.1-34,0c-3.7,0-5.3-1.7-6.3-5c-7.5-26.3-10.7-53.1-8.4-80.5c3-36.3,13.9-70.1,32.6-101.3c10.2-17.1,23-32.1,37-46.3
		c15.9-16.1,34.5-28.6,54.4-38.9c13.7-7.1,28.2-13.3,43.1-17.1c16.6-4.2,34-5.7,51.2-7.5c21.7-2.2,43.1,1.3,64.3,6
		c25.2,5.6,47.9,16.5,69.7,29.9c11.6,7.1,21.7,15.9,31.8,24.7c25.2,22.1,43,49.6,55.7,80.1c6.7,16,10.8,33.2,14.2,50.3
		c2.6,13.3,2.6,27.3,3,40.9c0.6,19.5-2.9,38.6-8.1,57.3c-1.9,6.9-2.3,7.2-9.7,7.2c-10.2,0-20.3,0.1-30.5,0c-5.2-0.1-6-1.2-4.1-6.1
		c5.4-13.6,7.3-27.9,9.5-42.2c0.5-3.4-0.8-4.4-4.1-4.4c-19,0.1-38,0.1-57,0c-4.7,0-5.5,2.9-6.2,6.7c-2.3,13.3-5,26.5-7.4,39.7
		c-0.9,4.9-3.7,6.5-8.4,6.3c-7.3-0.3-14.7-0.1-22-0.1c-3.8,0-5-0.7-3.7-5.4c3.8-13.9,6.7-28.1,9.8-42.2c0.8-3.4-0.5-5.2-4.5-5.1
		c-20.7,0.1-41.3,0.1-62,0c-3.6,0-4.6,1.4-4.5,4.8c0.1,14-0.1,28,0.1,42c0.1,4.9-1.7,6.4-6.4,6.2c-6.5-0.3-13-0.3-19.5-0.1
		c-4.3,0.1-6-1.6-5.9-5.9c0.1-13.8-0.1-27.7,0.1-41.5c0.1-4-1.2-5.6-5.4-5.5C197.5,244.7,187.3,244.5,177.2,244.5z M381.9,212.7
		c9.5,0,19,0,28.5,0c2.6,0,4.9-0.3,4.3-3.8c-2.1-11.1-3.5-22.3-6.5-33.1c-5.9-21-16-40.1-28.5-58c-4.1-5.9-7.2-6.3-13.7-2.2
		c-9.6,6.1-19.3,12.2-29.1,17.9c-4.2,2.4-5.5,4.8-3.8,9.6c7.2,20.6,12.8,41.7,14.6,63.6c0.3,4.2,2.5,6.1,6.9,6
		C363.6,212.6,372.7,212.7,381.9,212.7z M83.7,111.6c-3.1,3.9-6.1,7.3-8.6,11C63.9,138.7,55.5,156.2,50,175
		c-2.8,9.7-4.8,19.7-6.2,29.7c-0.9,6,1.6,8,7.8,8c17.7,0,35.3-0.1,53,0.1c3.6,0,5.2-0.8,5.6-4.9c2-22,7-43.3,14.5-64.1
		c1.6-4.3,0.5-6.3-3.2-8.3c-7.2-3.9-14.2-8-21.1-12.3C94.6,119.7,89.4,115.6,83.7,111.6z M280.1,212.7c8.5,0,17,0,25.4,0
		c10,0,10.9-0.2,9-9.8c-3.3-16.6-7.8-32.9-11.8-49.3c-0.6-2.5-2.1-3.4-4.8-2.4c-15.8,5.2-31.6,10.2-48.4,10.7c-3.7,0.1-5,2-4.9,5.8
		c0.2,13.1,0.3,26.3,0,39.4c-0.1,4.8,1.7,5.9,6.1,5.8C260.5,212.6,270.3,212.7,280.1,212.7z M142.2,212c0.8,0.3,1.3,0.6,1.7,0.6
		c21.8,0,43.6,0.1,65.4,0.1c3.4,0,3.6-2.2,3.6-4.7c0-13.7-0.1-27.3,0-41c0-3-0.9-4.7-4.2-4.8c-5-0.1-10.1,0.2-14.9-0.9
		c-11.2-2.5-22.2-5.6-33.2-8.9c-3.9-1.2-5.5-0.3-6.5,3.3c-1.6,5.6-3.4,11.1-4.9,16.6C145.7,185.4,143,198.5,142.2,212z M213,60.4
		c-18,19-31.8,39.6-44,62.7c9.9,2.3,18.8,4.8,27.9,6.4c4.1,0.7,8.5,0.2,12.6-0.5c1.4-0.2,3.3-2.8,3.3-4.4
		C213,103.5,213,82.4,213,60.4z M288.2,121.3c-3-5.1-5.1-9.1-7.6-12.7c-9.9-14.1-19.9-28.2-30-42.1c-1.2-1.6-3.3-2.6-6-4.6
		c0,3.6,0,5.4,0,7.2c0,17.1,0,34.2,0,51.4c0,11.4-1.3,11.3,10.3,9C265.8,127.3,276.4,124.3,288.2,121.3z M106.3,88.3
		c1.9,1.6,3.1,3,4.6,3.9c6.8,4.5,13.5,9,20.4,13.3c9.3,5.6,6.9,4.8,11.9-3c7.4-11.8,14.9-23.5,22.5-35.2c3.6-5.5,7.4-10.7,11.2-16.1
		c-0.2-0.4-0.4-0.7-0.6-1.1C149.9,56.5,127.6,70.4,106.3,88.3z M281.2,49.6c-0.4,0.5-0.7,1-1.1,1.4c2.2,2.7,4.7,5.2,6.6,8.1
		c9.3,14.3,18.6,28.7,27.7,43.2c2.3,3.6,4.8,4.5,8.3,2.5c8-4.8,15.9-9.7,23.7-14.7c3-1.9,3.2-3.9,0.3-6.2
		c-14.8-12.1-31.2-21.4-48.7-28.8C292.6,52.9,286.8,51.4,281.2,49.6z"/>
</g>
</svg>
