<?xml version="1.0" encoding="utf-8"?>
<!-- Generator: Adobe Illustrator 22.1.0, SVG Export Plug-In . SVG Version: 6.00 Build 0)  -->
<svg version="1.1" id="Слой_1" xmlns="http://www.w3.org/2000/svg" xmlns:xlink="http://www.w3.org/1999/xlink" x="0px" y="0px"
	 viewBox="0 0 765 689.8" style="enable-background:new 0 0 765 689.8;" xml:space="preserve">
<style type="text/css">
	.st0{fill:#FFFFFF;}
</style>
<g>
	<path class="st0" d="M603.3,317c40.4,0,80,0,120.2,0c0.1-2,0.4-3.9,0.4-5.9c0-58.8,0-117.7,0.1-176.5c0-4.7-1.1-6.3-6.1-6.2
		c-19,0.3-38,0.1-57,0.1c-13.4,0-21.5-8.1-21.6-21.4c0-20.2-0.1-40.3,0.1-60.5c0-4.6-1-6.4-6-6.3c-27.5,0.2-55,0.1-82.5,0.1
		c-1.6,0-3.3,0-5.8,0c0,2.1,0,3.6,0,5.2c0,18.8,0.1,37.7-0.1,56.5c0,3.1,1.1,4.7,3.6,6.2c35.8,21.2,71.6,42.6,107.3,63.9
		c10.2,6.1,13.5,16.9,8.4,27.5c-0.1,0.2-0.2,0.3-0.2,0.4c-5.9,15.9-16.5,21.8-34.1,21.7c-161.8-0.6-323.6-0.4-485.5-0.2
		c-10.8,0-18.6-3.7-23.9-13.1c-1.5-2.6-3.3-5-4.8-7.6c-5.9-10.4-3.1-21.9,6.9-28.3c39.2-24.9,78.5-49.8,117.7-74.7
		c42.1-26.7,84.2-53.2,126.1-80.2c10.4-6.7,19.5-6.9,30.1-0.4C429,37,461.5,56.1,493.8,75.4c3.3,1.9,6.6,3.8,10.7,6.2
		c0.1-2.5,0.3-4.2,0.3-5.9c0-18.2,0-36.3,0-54.5c0.1-13,8.3-21.1,21.3-21.2c47.7,0,95.3,0,143-0.1c6,0,11.1,1.6,15.5,5.7
		c23.6,22.1,47.1,44.3,70.9,66.2C762.2,78,765,85.1,765,94c-0.1,79.7,0,159.3-0.1,239c0,3.5-0.3,7.1-1.2,10.4
		c-2.5,8.8-10.3,14.3-20,14.3c-44.5,0-89,0-133.5,0c-2,0-4,0-6.5,0c-0.1,2.4-0.3,4.5-0.3,6.6c0,44.3,0,88.7,0,133c0,3-0.1,6-0.8,8.9
		c-2.4,9.7-10.2,15.1-20.9,14.6c-9.3-0.4-16.6-6.8-18.3-16.2c-0.3-1.6-0.4-3.3-0.4-5c0-75.8-0.1-151.7,0-227.5
		c0-13.8,10.9-23.3,23.8-21c9.6,1.7,16.4,9.6,16.5,19.8c0.2,13.3,0.1,26.7,0.1,40C603.3,312.8,603.3,314.6,603.3,317z M185.8,180.8
		c135.6,0,270,0,405.2,0c-1.2-0.8-1.7-1.2-2.2-1.6C522,139.4,455.2,99.5,388.6,59.5c-4.8-2.9-8-2.5-12.5,0.4
		c-36.9,23.7-73.9,47.1-110.8,70.6C239.1,147.1,212.9,163.6,185.8,180.8z M713.5,88.1c-11.5-10.7-22.1-20.6-32.6-30.4
		c-1.1,9.7-1.2,18.7-1,27.6c0,1,2,2.7,3.1,2.7C692.7,88.2,702.5,88.1,713.5,88.1z"/>
	<path class="st0" d="M176.7,332.1c0-1.9,0-3.7,0-5.5c0-18,0-36,0-54c0-12.5,8.3-21.5,19.9-21.7c11.7-0.2,20.4,9,20.4,21.8
		c0.1,30,0.1,60-0.1,90c0,3.8,1.2,6.5,4,9.1c11.2,10.2,22.2,20.7,33.2,31.1c5,4.7,6.5,10.6,6.5,17.2c-0.1,39.8,0,79.7,0,119.5
		c0,7.9,0,7.9,7.8,7.9c124.2,0,248.3,0,372.5,0c12.5,0,20.7,6,22.8,16.6c2.3,11.6-6,22.8-17.7,23.8c-2.3,0.2-4.7,0.2-7,0.2
		c-123.7,0-247.3,0-371,0c-7.4,0-7.4,0-7.4,7.3c0,23.8,0,47.7,0,71.5c0,15.5-7.6,23.1-22.9,23.1c-71.5,0-143,0-214.5,0
		c-15.1,0-22.7-7.4-23.2-22.5c0-1.3,0-2.7,0-4c0-101.5,0-203,0-304.5c0-2.7,0.1-5.3,0.4-8c1.5-11.6,9.3-18.6,20.9-18.6
		c51,0,102,0.1,153,0.1C175,332.3,175.6,332.2,176.7,332.1z M41.3,372.9c-0.1,1.9-0.3,3.5-0.3,5.1c0,88.6,0,177.3-0.1,265.9
		c0,4.4,1.3,5.7,5.7,5.7c56-0.1,112-0.1,167.9,0c4.2,0,5.8-1.1,5.8-5.6c-0.1-61-0.1-121.9,0-182.9c0-4.8-1.8-5.8-6.1-5.8
		c-17.8,0.2-35.7,0.1-53.5,0.1c-15.6,0-23.5-8-23.6-23.8c0-17.8-0.1-35.7,0.1-53.5c0.1-4.4-1.3-5.6-5.7-5.6
		c-28.3,0.2-56.6,0.1-85,0.1C44.9,372.7,43.3,372.8,41.3,372.9z M208,414.9c-10.3-9.6-19.6-18.3-29.5-27.6c0,10.1,0,18.8,0,27.6
		C188.2,414.9,197.4,414.9,208,414.9z"/>
	<path class="st0" d="M474.8,386.3c0,36.8,0,73.6,0,110.5c0,3-0.1,6-0.7,8.9c-2.1,9.3-10.3,15.4-20.2,15.1
		c-9.8-0.2-17.3-6.3-19.1-15.8c-0.5-2.8-0.8-5.6-0.8-8.4c0-73.8-0.1-147.6,0-221.4c0-3.6,0.4-7.4,1.5-10.8
		c2.9-8.9,11.1-14.1,20.5-13.5c9,0.6,16.6,7.4,18.3,16.5c0.5,2.6,0.5,5.3,0.5,8C474.8,312.4,474.8,349.4,474.8,386.3z"/>
	<path class="st0" d="M305.2,385.9c0-37.3,0-74.6,0-112c0-7.4,1.8-13.9,7.8-18.6c6.3-5,13.4-5.9,20.7-2.8c8,3.5,11.5,10.2,12.3,18.6
		c0.1,1.3,0.1,2.7,0.1,4c0,74,0,148-0.1,221.9c0,3.4-0.4,7-1.4,10.3c-2.9,9.3-10.8,14.1-21.3,13.4c-8.5-0.6-15.9-7.1-17.5-15.9
		c-0.5-2.6-0.6-5.3-0.6-7.9C305.2,459.9,305.2,422.9,305.2,385.9z"/>
</g>
</svg>
