<?xml version="1.0" encoding="utf-8"?>
<!-- Generator: Adobe Illustrator 22.1.0, SVG Export Plug-In . SVG Version: 6.00 Build 0)  -->
<svg version="1.1" id="Слой_1" xmlns="http://www.w3.org/2000/svg" xmlns:xlink="http://www.w3.org/1999/xlink" x="0px" y="0px"
	 viewBox="0 0 171.4 128.9" style="enable-background:new 0 0 171.4 128.9;" xml:space="preserve">
<g>
	<path d="M171.3,68.7c0,17.3,0,34.7,0,52c0,8.6-1.3,9.6-9.2,6.7c-13.6-4.9-27.6-8.3-42-6.5c-10.5,1.3-20.7,4.6-31,6.9
		c-2,0.4-4.3,0.8-6.1,0.1c-24.8-9.5-49.6-9.9-74.5-0.3c-6.6,2.6-8.4,1.2-8.4-5.9c0-35.3,0.1-70.7-0.1-106C0,11.2,1.7,9,5.9,7.4
		c24.8-9.2,49.7-10.3,74.6-1c3.7,1.4,6.9,1.2,10.5-0.1c25.3-9.2,50.5-8.2,75.6,1.3c3.5,1.3,4.8,3.2,4.7,7
		C171.2,32.7,171.3,50.7,171.3,68.7z M81.8,119.3c0.3-1.3,0.4-1.8,0.4-2.3c0-32.8,0-65.6,0.1-98.4c0-3.4-1.7-4.1-4.3-5
		C56.4,6,34.8,5.9,13,13.3c-3.5,1.2-5,2.6-4.9,6.5c0.2,31.5,0.1,63,0.1,94.4c0,1.5,0.1,2.9,0.2,5.1C33,110.4,57.3,110.5,81.8,119.3z
		 M163.5,119.3c0.2-1.6,0.4-2.4,0.4-3.2c0-32.5,0-65,0.1-97.5c0-3.2-1.6-4.3-4.2-5.2c-21.7-7.3-43.4-7.6-65.1-0.4
		c-3.4,1.1-4.9,2.7-4.8,6.6c0.2,31.3,0.1,62.6,0.1,94c0,1.6,0,3.2,0,5.6C114.7,110.1,138.9,110.5,163.5,119.3z"/>
	<path d="M152.8,85.9c-0.8,0.6-2.2,0.7-3.2,0.5c-4.8-1.4-8.7-2.7-12.6-3.6c-10.5-2.4-20.8-0.6-30.7,2.9c-2.9,1-5.8,1.9-7-1.8
		c-1.1-3.4,1.7-4.5,4.3-5.4c15.7-5.9,31.5-6.1,47.1,0.3c1.6,0.7,3.7,2.1,3.4,4.9C154,84.3,153.7,85.1,152.8,85.9z"/>
	<path d="M152.8,62c-0.8,0.6-2.2,0.7-3.2,0.5c-4.8-1.4-8.7-2.7-12.6-3.6c-10.5-2.4-20.8-0.6-30.7,2.9c-2.9,1-5.8,1.9-7-1.8
		c-1.1-3.4,1.7-4.5,4.3-5.4c15.7-5.9,31.5-6.1,47.1,0.3c1.6,0.7,3.7,2.1,3.4,4.9C154,60.4,153.7,61.3,152.8,62z"/>
	<path d="M152.8,39.4c-0.8,0.6-2.2,0.7-3.2,0.5c-4.8-1.4-8.7-2.7-12.6-3.6c-10.5-2.4-20.8-0.6-30.7,2.9c-2.9,1-5.8,1.9-7-1.8
		c-1.1-3.4,1.7-4.5,4.3-5.4c15.7-5.9,31.5-6.1,47.1,0.3c1.6,0.7,3.7,2.1,3.4,4.9C154,37.8,153.7,38.6,152.8,39.4z"/>
	<path d="M71.5,85.9c-0.8,0.6-2.2,0.7-3.2,0.5c-4.8-1.4-8.7-2.7-12.6-3.6C45.2,80.4,35,82.1,25,85.7c-2.9,1-5.8,1.9-7-1.8
		c-1.1-3.4,1.7-4.5,4.3-5.4c15.7-5.9,31.5-6.1,47.1,0.3c1.6,0.7,3.7,2.1,3.4,4.9C72.7,84.3,72.4,85.1,71.5,85.9z"/>
	<path d="M71.5,62c-0.8,0.6-2.2,0.7-3.2,0.5c-4.8-1.4-8.7-2.7-12.6-3.6C45.2,56.5,35,58.3,25,61.8c-2.9,1-5.8,1.9-7-1.8
		c-1.1-3.4,1.7-4.5,4.3-5.4c15.7-5.9,31.5-6.1,47.1,0.3c1.6,0.7,3.7,2.1,3.4,4.9C72.7,60.4,72.4,61.3,71.5,62z"/>
	<path d="M71.5,39.4c-0.8,0.6-2.2,0.7-3.2,0.5c-4.8-1.4-8.7-2.7-12.6-3.6C45.2,33.9,35,35.6,25,39.2c-2.9,1-5.8,1.9-7-1.8
		c-1.1-3.4,1.7-4.5,4.3-5.4c15.7-5.9,31.5-6.1,47.1,0.3c1.6,0.7,3.7,2.1,3.4,4.9C72.7,37.8,72.4,38.6,71.5,39.4z"/>
</g>
</svg>
