<?xml version="1.0" encoding="utf-8"?>
<!-- Generator: Adobe Illustrator 22.1.0, SVG Export Plug-In . SVG Version: 6.00 Build 0)  -->
<svg version="1.1" id="Слой_1" xmlns="http://www.w3.org/2000/svg" xmlns:xlink="http://www.w3.org/1999/xlink" x="0px" y="0px"
	 viewBox="0 0 112 161.3" style="enable-background:new 0 0 112 161.3;" xml:space="preserve">
<style type="text/css">
	.st0{fill:#FFFFFF;}
</style>
<g>
	<path class="st0" d="M45.2,20.9c17.4-3.9,33.7-2.6,48.6,6.8c5.5,3.5,10.5,8.2,15.2,12.8c3.8,3.6,3.4,6-0.7,9.6
		c-6.7,5.8-13.4,11.5-20.1,17.1c-5.4,4.6-9.2,4.7-15.2,0.5c-9.2-6.3-19.6-4.5-25.1,4.4c-4.3,6.9-3.3,15.7,2.6,21.5
		c5.5,5.4,14.4,6.3,21.2,2.1c9.1-5.6,10.9-5.5,19.3,1.3c6.1,4.9,12.1,9.9,18.4,14.6c3.7,2.8,3.6,5.3,0.7,8.7
		c-17.2,19.7-38.8,25.7-64,20.5c-0.2,0.1-0.6,0.4-0.6,0.6c0.7,7.9-3.9,10.5-10.7,12.1c-9.1,2-17.9,4.9-26.9,7.5
		c-5.2,1.5-7.6-0.2-7.6-5.7C0,105.4,0,55.8,0,6.1C0,1,2.4-0.8,7.4,0.3C17.3,2.5,27.2,4.8,37,7.2c7.3,1.8,7.6,2.2,7.9,9.7
		C44.9,18.1,45.1,19.2,45.2,20.9z M35.2,126.5c0-30.6,0-60.1,0-90.4C18.2,47.1,9.5,62.1,9.6,81.5C9.7,100.6,18.5,115.4,35.2,126.5z
		 M45.1,102c0,8.9,0.1,17-0.1,25.1c-0.1,3.2,1.2,4.7,4.1,4.8c7.6,0.4,15.3,1.7,22.7,0.7c11.4-1.4,21.1-7.1,29-16
		c-6.2-5-12-9.7-18-14.2c-1-0.8-3.3-1.2-4.2-0.5C67.9,109.7,57.1,109.2,45.1,102z M100.4,44.8C88.1,33.4,74.5,27.3,58,29
		c-13.2,1.4-13.1,1.5-13.1,14.5c0,5.5,0,11,0,17.2c11.9-7.6,22.7-8,33.5-0.6c0.9,0.6,3.2,0.2,4.2-0.5C88.4,55,94.1,50.1,100.4,44.8z
		 M9.7,48.3c6.6-10,14.5-16.7,23.6-22c2.9-1.7,3.2-8.5,0.6-9.3C26,14.8,18,13.1,9.7,11.1C9.7,23.5,9.7,35.1,9.7,48.3z M9.7,151
		c7.9-2.2,15.3-4.1,22.6-6.3c1.2-0.4,3-2.1,2.9-3.1c-0.1-1.8-0.9-4.1-2.2-5.4c-2-1.9-4.9-2.8-7-4.7c-5.6-5-10.9-10.3-16.4-15.5
		C9.7,127.2,9.7,138.8,9.7,151z"/>
</g>
</svg>
