<?xml version="1.0" encoding="utf-8"?>
<!-- Generator: Adobe Illustrator 22.1.0, SVG Export Plug-In . SVG Version: 6.00 Build 0)  -->
<svg version="1.1" id="Слой_1" xmlns="http://www.w3.org/2000/svg" xmlns:xlink="http://www.w3.org/1999/xlink" x="0px" y="0px"
	 viewBox="0 0 692.5 660.4" style="enable-background:new 0 0 692.5 660.4;" xml:space="preserve">
<g>
	<path d="M258.2,536.8c0,1.9,0,3.8,0,5.8c0,36.7-0.1,73.3,0.1,110c0,4.4-1,6-5.7,6c-82.3-0.1-164.6-0.1-247,0
		c-4.5,0-5.6-1.4-5.5-5.7c0.1-173,0.1-346,0-518.9c0-4.5,1.2-5.9,5.8-5.9c82,0.1,164,0.1,246,0.1c6.4,0,6.4,0,6.4,6.6
		c0,12.5,0,25,0,37.5c0,1.8,0,3.6,0,7c2.2-2,3.6-2.8,4.3-4c11.8-20.9,23.5-41.9,35.4-62.8c13.3-23.5,27.2-46.7,40.1-70.4
		c8.6-15.8,20.5-27.7,36.3-35.7c7.7-3.9,15.9-6.3,24.9-6.3c81.5,0.1,163,0.2,244.5,0c17.7,0,31.4,7.7,42,21.1c3,3.8,5.5,8.8,6,13.5
		c1.7,16.9,1.8,34-5.7,49.9c-6.6,13.9-13.6,27.6-20.6,41.3c-6.2,12.3-12.5,24.5-18.7,36.7c-1.8,3.6-4.5,4.6-8.5,4.2
		c-6.8-0.6-13.6-0.3-20.5-0.4c-20.2-0.1-40.3,0-60.5-0.2c-4.1,0-6.4,1.3-8.6,5.1c-15.3,27.1-31.1,54-46.4,81.1
		c-13.2,23.3-26,46.9-39.2,70.3c-9.9,17.6-20.1,35.1-30.1,52.6c-2.6,4.5-5.6,8.7-7.3,13.5c-0.8,2.2-0.1,6,1.5,8
		c7.9,10.1,16.3,19.8,24.5,29.6c8.9,10.6,17.7,21.1,26.6,31.7c11.6,13.9,23.2,27.8,34.8,41.7c12.2,14.7,24.4,29.4,36.7,44.1
		c15.6,18.6,31.3,37.1,46.9,55.7c12.4,14.8,24.6,29.7,37,44.5c2.8,3.3,6,6.2,8.9,9.5c1.5,1.7,2.6,3.6,4.5,6.4
		c-3,0.2-4.8,0.3-6.5,0.3c-89.7,0-179.3-0.1-269,0.2c-8.7,0-12.3-5.7-16.7-10.8c-17.5-20.5-34.7-41.2-51.9-61.9
		c-13.4-16.1-26.6-32.3-39.8-48.6c-0.9-1.1-1.3-2.8-1.9-4.2C260,535.6,259.1,536.2,258.2,536.8z M563.2,620.1
		c-2.1-3.3-3.2-5.5-4.7-7.3c-9.6-11.5-19.3-22.9-28.8-34.4c-11.7-14.1-23.2-28.3-34.9-42.3c-15.5-18.6-31.1-37.2-46.7-55.8
		c-14.1-16.8-28.2-33.6-42.3-50.4c-8.3-9.9-16.6-19.9-25-29.8c-2.1-2.5-3.1-4.9-1.2-8.1c5.6-9.8,10.9-19.7,16.4-29.5
		c13.4-23.5,26.8-46.9,40.2-70.4c7.5-13.1,15.1-26.1,22.6-39.2c9.5-16.7,18.9-33.5,28.4-50.2c9.3-16.4,18.8-32.8,28-49.2
		c10.4-18.5,20.6-37,31.1-55.4c9.3-16.4,19-32.7,28.4-49c1.9-3.2,3.5-6.5,5.8-10.8c-2.9,0-4.6,0-6.4,0c-56.2,0-112.3,0.3-168.5-0.2
		c-12.9-0.1-21.9,5-28.5,15c-6.4,9.7-11.8,19.9-17.6,30c-9.4,16.2-18.8,32.4-28,48.7c-9.9,17.4-19.4,35-29.4,52.4
		c-11.8,20.7-23.6,41.5-36,61.9c-6.1,10-8.3,20.2-8.2,32c0.4,63.3,0.3,126.6,0.1,190c0,4.9,1.6,8.4,4.8,12
		c9.4,10.5,18.6,21.3,27.7,32.1c15.7,18.7,31.2,37.6,46.9,56.3c13,15.5,26.3,30.9,39.1,46.6c2.9,3.6,5.9,5.2,10.5,5.2
		c56.3-0.1,112.6-0.1,169-0.1C557.8,620.1,559.6,620.1,563.2,620.1z M38,393.4c0,73.6,0,147.3-0.1,220.9c0,4.8,1.3,6.2,6.2,6.1
		c22.8-0.2,45.6-0.1,68.4-0.1c33.8,0,67.7-0.1,101.5,0.1c5.2,0,6.4-1.5,6.3-6.5c-0.4-53.6-0.6-107.3-0.7-160.9
		c0-34.6,0.5-69.3,0.6-103.9c0.1-58.8,0-117.6,0-176.5c0-6.6,0-6.6-6.4-6.6c-56.3,0-112.6,0-169,0c-6.7,0-6.7,0-6.7,6.8
		C38,246.4,38,319.9,38,393.4z M571.9,127.1c4.3,0.5,6.9,1.1,9.5,1.1c10.8,0.1,21.6-0.1,32.5,0.1c4.7,0.1,7.2-2.1,9.2-6.1
		c6.9-13.6,14.1-27,21.1-40.4c4.5-8.6,8.4-17.1,8.2-27.3c-0.1-7.2-3.3-11.9-8.8-14.9c-5.4-3-11.7-2.3-16.4,1.7
		c-5.1,4.4-10.1,9.3-13.7,14.9c-10.6,16.8-20.6,34-30.7,51.1C579.2,113.4,575.9,119.7,571.9,127.1z"/>
</g>
<g>
	<path d="M192.2,529.9v27.3h-74.8l-12.3-0.3l-13.4-0.4c4.5,4.5,7.5,7.7,8.9,9.5l11.9,14.8L96.2,594L63,552.4v-22.4H192.2z"/>
	<path d="M127.6,404.5c22.6,0,39.3,3.7,50.1,11.1c10.8,7.4,16.3,18.8,16.3,34.2c0,14.9-5.6,26.1-16.8,33.7
		c-11.2,7.6-27.7,11.4-49.6,11.4c-22.8,0-39.6-3.7-50.4-11c-10.8-7.4-16.2-18.7-16.2-34c0-14.9,5.7-26.2,17-33.8
		C89.3,408.4,105.8,404.5,127.6,404.5z M127.6,467.7c15.8,0,27.2-1.4,34.1-4.1c6.9-2.7,10.3-7.3,10.3-13.8c0-6.4-3.5-11-10.4-13.8
		c-7-2.8-18.3-4.2-33.9-4.2c-15.8,0-27.2,1.4-34.2,4.3c-6.9,2.9-10.4,7.4-10.4,13.7c0,6.4,3.5,11,10.4,13.8
		C100.4,466.3,111.8,467.7,127.6,467.7z"/>
	<path d="M127.6,301.2c22.6,0,39.3,3.7,50.1,11.1c10.8,7.4,16.3,18.8,16.3,34.2c0,14.9-5.6,26.1-16.8,33.7
		c-11.2,7.6-27.7,11.4-49.6,11.4c-22.8,0-39.6-3.7-50.4-11c-10.8-7.4-16.2-18.7-16.2-34c0-14.9,5.7-26.2,17-33.8
		C89.3,305,105.8,301.2,127.6,301.2z M127.6,364.4c15.8,0,27.2-1.4,34.1-4.1c6.9-2.7,10.3-7.3,10.3-13.8c0-6.4-3.5-11-10.4-13.8
		c-7-2.8-18.3-4.2-33.9-4.2c-15.8,0-27.2,1.4-34.2,4.3c-6.9,2.9-10.4,7.4-10.4,13.7c0,6.4,3.5,11,10.4,13.8
		C100.4,363,111.8,364.4,127.6,364.4z"/>
</g>
</svg>
