<?xml version="1.0" encoding="utf-8"?>
<!-- Generator: Adobe Illustrator 22.1.0, SVG Export Plug-In . SVG Version: 6.00 Build 0)  -->
<svg version="1.1" id="Слой_1" xmlns="http://www.w3.org/2000/svg" xmlns:xlink="http://www.w3.org/1999/xlink" x="0px" y="0px"
	 viewBox="0 0 784.1 782.2" style="enable-background:new 0 0 784.1 782.2;" xml:space="preserve">
<style type="text/css">
	.st0{fill:#FFFFFF;}
</style>
<g>
	<path class="st0" d="M743.7,527.6c0-162.7,0-324.6,0-487c-234.5,0-468.7,0-703.4,0c0,162.1,0,324.1,0,487c2.1,0,4.2,0,6.3,0
		c87.3,0,174.7,0,262,0c10.3,0,18.2,5.2,21,13.7c4,12.2-4.3,24.9-17.2,26.2c-1.8,0.2-3.7,0.1-5.5,0.1c-94.3,0-188.7,0-283,0
		C7.5,567.7,0,560.2,0,543.9C0,370.4,0,197,0,23.5C0,7.8,7.6,0.2,23.3,0.2c245.8,0,491.6,0.1,737.4-0.2c14.6,0,23.4,9.9,23.3,23.5
		c-0.3,173.8-0.2,347.6-0.2,521.5c0,15-7.7,22.7-22.8,22.8c-9.2,0-18.3,0.1-27.5,0c-12.1-0.1-21.1-8.8-21.1-20.1
		c0-11.4,9-19.9,21.1-20C736.8,527.6,740,527.6,743.7,527.6z"/>
	<path class="st0" d="M531.7,782.2c-40.8,0.1-81.6-1-122-8.5c-19.4-3.6-38.4-8.6-56-17.7c-12-6.2-22.6-14-30.2-25.5
		c-6.3-9.5-9.8-19.9-9-31.2c2.1-27.6,4.8-55.1,7.6-82.6c1.3-12.7,7.4-23.3,17-31.4c7.3-6.2,15.2-12.2,23.7-16.4
		c23.8-11.6,48.1-22.3,72.2-33.1c11.1-5,22.6-0.5,27.2,10c4.6,10.3-0.3,21.6-11.5,26.7c-22.8,10.3-45.5,20.6-68.3,31
		c-2.6,1.2-5,2.6-7.5,4c-8.9,5.2-14.1,12.1-14.7,23.2c-1.3,21.8-3.7,43.5-5.9,65.2c-0.7,6.8,1.2,12.7,6.5,16.4
		c7.5,5.1,15.5,9.9,23.9,13.1c22.9,8.9,47.1,11.7,71.4,13.8c50.9,4.4,101.9,4.4,152.8,0c23.6-2,47.1-4.9,69.4-13.7
		c6-2.4,11.8-5.5,17.1-9.1c7-4.7,9.6-11.6,8.7-20.4c-2.5-23.4-4.7-46.8-6.5-70.2c-0.5-6.1-2.7-10.6-7.8-13.6
		c-5.9-3.5-11.8-6.8-18-9.8c-22-10.5-44-20.6-66-31.1c-13.8-6.6-16.3-23.9-4.8-33.5c6-5,13.1-6.5,20.1-3.2
		c28.2,13.1,56.4,26.4,84.3,40.3c7,3.5,13,9.3,18.8,14.7c10.5,9.8,12.4,23,13.6,36.6c2,23.6,4.7,47.1,6.5,70.7
		c1.6,21.8-8,38.7-25,51.6c-15.2,11.5-32.8,17.7-51.1,22c-35.7,8.3-72.1,10.7-108.7,11.5C550.3,782.3,541,782.2,531.7,782.2z"/>
	<path class="st0" d="M624.2,384.8c-2.4,28.4-4.3,56.8-7.4,85c-1.7,15.3-8,29.4-18.1,41.1c-10.4,11.9-21.1,23.7-33.1,33.8
		c-16.9,14.3-49.5,15-68.5,3.6c-12.1-7.2-23.2-15.5-33.2-25.5c-15.9-15.8-26.6-34.1-29.1-56.6c-3-27-6.2-53.9-8.5-80.9
		c-2.3-27.3,6.7-51.2,24.8-71.6c10.4-11.7,23.9-17.8,38.6-21.6c31.1-8.1,61.2-6,90.4,8.6c26.2,13.1,40.1,34.2,42.5,63.1
		c0.6,7,0.7,14,1.1,20.9C623.9,384.8,624.1,384.8,624.2,384.8z M583.3,388.7c0.2,0,0.3,0,0.5,0c-0.4-7.6-0.6-15.3-1.2-22.9
		c-1.1-13.1-7.3-22.6-19.3-28.8c-24-12.4-48.3-12.3-72.9-2.6c-4.2,1.7-8.1,5.2-11.2,8.7c-11.4,12.4-14.2,27.7-12.8,43.8
		c2.1,24,4.8,48,7.9,72c1,7.4,2.9,15.4,6.7,21.6c8.6,13.9,20.5,24.9,35.1,32.6c2.2,1.1,4.5,2.4,6.8,2.7c9.8,1.1,18.9,0,25.7-8.5
		c1.9-2.3,4.2-4.3,6.4-6.3c14.6-14.1,23.6-30.6,24.4-51.4C580.3,429.2,582,408.9,583.3,388.7z"/>
</g>
</svg>
