<?xml version="1.0" encoding="utf-8"?>
<!-- Generator: Adobe Illustrator 22.1.0, SVG Export Plug-In . SVG Version: 6.00 Build 0)  -->
<svg version="1.1" id="Слой_1" xmlns="http://www.w3.org/2000/svg" xmlns:xlink="http://www.w3.org/1999/xlink" x="0px" y="0px"
	 viewBox="0 0 684 772.7" style="enable-background:new 0 0 684 772.7;" xml:space="preserve">
<style type="text/css">
	.st0{fill:#FFFFFF;}
</style>
<g>
	<path class="st0" d="M643,733.1c-2.9,0-5.1,0-7.2,0c-178.8,0-357.7,0-536.5,0c-1.3,0-2.7-0.1-4,0c-11.6,0.5-20.7,12.8-17.7,23.9
		c2.9,10.6,9.6,15.3,21.9,15.3c187.2,0,374.3,0,561.5,0c1.5,0,3.1,0.3,4.5-0.2c3.7-1.3,7.7-2.3,10.7-4.6c6.1-4.6,7.8-11.6,7.8-19
		c0-121.5,0-243,0-364.5c0-17.4-0.6-34.9-0.9-52.3c-0.4-18.4-2.2-36.7-5.9-54.8c-6.2-30.9-16-60.5-30.3-88.7
		c-24.5-48.5-58.6-88.9-102.2-121.2C502.8,36,456.3,15.2,404.8,6.1c-15.8-2.8-31.7-5-47.7-5.7C322.7-1.2,288.8,2.1,255.4,11
		C199.2,26,150,53.4,107.6,93.1C74.7,124,49.1,160.3,30.3,201.3C15.9,233,7,266.4,2.2,300.8c-1.9,14-2.1,28.3-2.1,42.5
		c-0.1,135.8-0.1,271.7,0,407.5c0,3.9,1.1,8.2,2.9,11.7c4.3,8.2,13.8,11.9,22.6,9.5C33.9,769.6,40,761.3,40,752
		c0-132.3,0-264.7,0-397c0-11.2,0.2-22.5,0.7-33.7c1-20.7,4.7-41.1,10.3-61.1c11.8-42.2,32-80.1,60.2-113.5
		c26.7-31.6,58.7-56.6,95.6-75.3c36.2-18.3,74.6-28.6,114.8-31c19.4-1.1,39,0.4,58.4,1.9c19.4,1.5,38.2,6.4,56.6,12.6
		c56.1,18.8,102.9,51.1,139.8,97.2c43.9,55,66.7,117.6,66.5,188.4c-0.3,128.5-0.1,257-0.1,385.5C643,728.3,643,730.4,643,733.1z
		 M341.8,622.1c36.3,0,72.7,0,109,0c16.2,0,24.2-7.9,24.2-24.2c0-45.8,0.4-91.7-0.2-137.5c-0.2-13.3-1.6-27-5.3-39.8
		c-9-31.5-27.6-56.6-55.2-74.7c-26-17.1-55-23.9-85.7-21.4c-13.9,1.1-27.7,5-40.6,11.3c-50.1,24.5-77.6,64.2-78.8,120.3
		c-1,47.6,0.1,95.3-0.4,143c-0.2,15.2,9.9,23.2,23.5,23.1C268.8,622,305.3,622.1,341.8,622.1z"/>
	<path d="M643,733.1c0-2.7,0-4.8,0-6.9c0-128.5-0.2-257,0.1-385.5c0.2-70.9-22.6-133.5-66.5-188.4c-36.9-46.2-83.7-78.4-139.8-97.2
		c-18.5-6.2-37.3-11.1-56.6-12.6c-19.4-1.6-39-3.1-58.4-1.9c-40.3,2.3-78.7,12.7-114.8,31c-37,18.7-69,43.7-95.6,75.3
		C83,180.1,62.9,218,51,260.2c-5.6,20-9.2,40.3-10.3,61.1C40.2,332.5,40,343.8,40,355c0,132.3,0,264.7,0,397
		c0,9.2-6.1,17.6-14.4,19.9c-8.8,2.4-18.4-1.2-22.6-9.5c-1.8-3.5-2.9-7.8-2.9-11.7C0,614.9-0.1,479.1,0.1,343.3
		c0-14.2,0.2-28.5,2.1-42.5C7,266.4,15.9,233,30.3,201.3c18.7-41.1,44.4-77.4,77.3-108.2C150,53.4,199.2,26,255.4,11
		c33.4-8.9,67.3-12.2,101.6-10.7c16,0.7,31.9,2.9,47.7,5.7c51.5,9.1,98,29.9,139.9,61.1c43.6,32.3,77.7,72.7,102.2,121.2
		c14.2,28.2,24.1,57.8,30.3,88.7c3.6,18.1,5.5,36.4,5.9,54.8c0.4,17.4,0.9,34.9,0.9,52.3c0.1,121.5,0,243,0,364.5
		c0,7.4-1.8,14.3-7.8,19c-3,2.3-7,3.3-10.7,4.6c-1.3,0.5-3,0.2-4.5,0.2c-187.2,0-374.3,0-561.5,0c-12.3,0-19-4.7-21.9-15.3
		c-3-11.1,6-23.4,17.7-23.9c1.3-0.1,2.7,0,4,0c178.8,0,357.7,0,536.5,0C637.9,733.1,640.1,733.1,643,733.1z"/>
	<path d="M341.8,622.1c-36.5,0-73-0.2-109.5,0.1c-13.6,0.1-23.7-7.9-23.5-23.1c0.6-47.7-0.6-95.3,0.4-143
		c1.2-56,28.7-95.8,78.8-120.3c12.9-6.3,26.7-10.2,40.6-11.3c30.7-2.5,59.6,4.3,85.7,21.4c27.6,18.1,46.2,43.2,55.2,74.7
		c3.6,12.8,5.1,26.5,5.3,39.8c0.6,45.8,0.2,91.7,0.2,137.5c0,16.2-7.9,24.2-24.2,24.2C414.5,622.1,378.2,622.1,341.8,622.1z
		 M249,582c61.7,0,123.7,0,186,0c0-2.3,0-4.3,0-6.3c0-39.5,0.1-78.9-0.1-118.4c0-7.2-0.7-14.6-2.4-21.6
		c-11.9-48.2-56.9-77.8-105.2-70.5c-23.9,3.6-43.2,15.2-58.4,33.8c-11.9,14.5-19.5,31.4-19.8,50c-0.8,40.6-0.1,81.3-0.1,121.9
		C249,574.6,249,578.1,249,582z"/>
</g>
</svg>
