<?xml version="1.0" encoding="utf-8"?>
<!-- Generator: Adobe Illustrator 22.1.0, SVG Export Plug-In . SVG Version: 6.00 Build 0)  -->
<svg version="1.1" id="Слой_1" xmlns="http://www.w3.org/2000/svg" xmlns:xlink="http://www.w3.org/1999/xlink" x="0px" y="0px"
	 viewBox="0 0 655.4 741.2" style="enable-background:new 0 0 655.4 741.2;" xml:space="preserve">
<style type="text/css">
	.st0{fill:#FFFFFF;}
</style>
<g>
	<path class="st0" d="M40.4,373.7c0,4.9,0,9.1,0,13.2c0,49,0,98,0,147c0,20.6,12,32.6,32.6,32.6c68.7,0,137.3,0,206,0
		c11.1,0,18.3,5.5,20.6,15.8c2.5,11-4.5,21.9-15.6,24c-2.6,0.5-5.3,0.5-8,0.5c-31.5,0-63,0-94.5,0c-7.1,0-7.1,0-7.1,6.8
		c0,22.5,0.1,45,0,67.5c-0.1,20.6-17.3,37.8-37.9,38.1c-12.8,0.1-25.7,0.1-38.5,0c-21.9-0.1-39.4-16.8-39.7-38.6
		c-0.2-23.8,0.1-47.6,0.5-71.5c0.1-3.7-2.2-3.5-4.4-4c-18.4-4.3-32.9-14.2-43.2-30C3.8,563.8,0,551.2,0,537.4C0,388,0,238.5,0,89
		C0,39.7,39.6,0.1,89.1,0c90-0.1,180,0,270,0c44.5,0,89,0,133.5,0c45.7,0,82.6,31.7,89.4,77c0.8,5.2,1,10.6,1,15.9
		c0.1,67.3,0.1,134.7,0,202c0,32.3-12.4,58.6-39.2,77.3c-14.7,10.3-31.3,15.5-49.3,15.5c-135.3,0.1-270.7,0-406,0
		c-16.2,0-31.2-4.7-45.2-12.6C42.6,374.8,41.9,374.4,40.4,373.7z M40.7,147c-0.1,2.2-0.3,3.7-0.3,5.1c0,48.7,0,97.3,0.1,146
		c0,4,0.6,8,1.5,11.8c4.6,20.2,22.5,37.4,50.7,37.4c132.5-0.2,264.9-0.1,397.4-0.1c4.3,0,8.7-0.1,12.9-1c23.6-4.9,39-23.9,39.1-48.1
		c0.1-47.8,0-95.6,0-143.5c0-7.6,0-7.6-7.5-7.6c-162.3,0-324.6,0-486.9,0C45.6,147,43.4,147,40.7,147z M40.7,106.2
		c2.4,0.1,4.7,0.3,6.9,0.3c162.3,0,324.6,0,486.9,0c1.3,0,2.7-0.1,4,0c2.6,0.1,3.6-1.1,3.5-3.6c-0.1-4.5,0-9,0-13.5
		c-0.2-27.7-21.5-49.1-49.2-49.1c-134.3,0-268.6,0-402.9,0c-13.2,0-24.8,4.6-34.4,13.6C40.3,68.2,39.3,86.6,40.7,106.2z M98.6,678.9
		c11.2,0,21.8,0.1,32.5-0.2c1.1,0,2.9-2.5,2.9-3.8c0.2-18.5,0.1-36.9,0.2-55.4c0-3.1-1.3-4.1-4.2-4c-5.5,0.1-11,0-16.5,0
		c-4.9,0-9.9,0-14.9,0C98.6,636.9,98.6,657.5,98.6,678.9z"/>
	<path class="st0" d="M649.4,442.9c-1.6,3.8-2.6,7.9-4.9,11.2c-31.8,46-63.9,92-95.8,137.9c-32,45.9-63.9,91.9-96,137.8
		c-2.4,3.4-5.6,6.8-9.2,8.9c-8.1,4.7-17.9,2.4-24.4-4.9c-6.2-7.1-6.7-16.7-1.1-24.9c7.4-10.9,15-21.6,22.5-32.4
		c50.4-72.5,100.9-145,151.3-217.4c6.6-9.4,13-19,19.6-28.4c5.4-7.7,14.4-10.6,22.9-7.9C643.1,425.6,648.7,433.5,649.4,442.9z"/>
	<path class="st0" d="M99.8,473.6c0-21,16-37.1,36.9-37.1c20.9,0,37.6,16.5,37.6,37.3c0,20.6-17,37.6-37.5,37.5
		C115.9,511.2,99.8,494.8,99.8,473.6z"/>
	<path class="st0" d="M408.7,473.6c0-21.1,16.3-37.2,37.5-37.1c20.6,0.1,37,16.6,37,37.2c0,20.8-16.6,37.5-37.4,37.5
		C425.2,511.3,408.7,494.6,408.7,473.6z"/>
	<path class="st0" d="M655.4,687.9c0,20.9-16.4,37.3-37.4,37.2c-20.5,0-37.1-16.6-37.2-37.1c-0.1-20.8,16.5-37.5,37.4-37.5
		C639.1,650.5,655.4,666.9,655.4,687.9z"/>
</g>
</svg>
