<?xml version="1.0" encoding="utf-8"?>
<!-- Generator: Adobe Illustrator 22.1.0, SVG Export Plug-In . SVG Version: 6.00 Build 0)  -->
<svg version="1.1" id="Слой_1" xmlns="http://www.w3.org/2000/svg" xmlns:xlink="http://www.w3.org/1999/xlink" x="0px" y="0px"
	 viewBox="0 0 773.4 720.8" style="enable-background:new 0 0 773.4 720.8;" xml:space="preserve">
<style type="text/css">
	.st0{fill:#FFFFFF;}
</style>
<g>
	<path class="st0" d="M325.3,364.1c-1.2-6.3-2.7-12.1-3.3-18c-3.5-37.6,25.8-64.3,57.1-68c16-1.9,31.1,1.2,45.5,8.4
		c23.8,11.9,44.2,28.4,63.8,46.1c6.5,5.9,12.9,12,19.6,18.3c6.7-6.2,13.2-12.6,20-18.7c19.1-17.2,39-33.4,62.1-45.1
		c14-7.1,28.6-10.7,44.4-9.3c44.5,4,70.6,46.9,56.1,83.7c-0.2,0.6-0.2,1.3-0.3,2.2c1.6,0.1,3.1,0.2,4.5,0.2
		c13.6,0.2,21.6,8.3,21.6,22c0,50.5,0,101,0,151.5c0,53.5,0,107,0,160.5c0,15.1-7.6,22.8-22.7,22.8c-126.5,0-253,0-379.4,0
		c-14.5,0-22.3-7.7-22.3-22.1c0-104.2,0-208.3,0-312.5c0-14,8.1-22.1,21.9-22.1C317.7,364.1,321.5,364.1,325.3,364.1z M484,599.3
		c0-25.3-0.1-50.7,0.1-76c0-4.7-1-6.3-6-6.2c-46.7,0.2-93.3,0.2-140,0c-4.5,0-6,1.1-6,5.8c0.2,50.6,0.1,101.3,0,151.9
		c0,4.3,1.1,5.8,5.6,5.8c47-0.1,94-0.1,141,0c4.1,0,5.4-1.2,5.4-5.4C484,650,484,624.7,484,599.3z M524.4,517.2c0,2.6,0,4.4,0,6.2
		c0,50.3,0.1,100.7-0.1,151c0,5.3,1.7,6.3,6.5,6.3c46.3-0.2,92.7-0.2,139,0c4.9,0,6.5-1.2,6.5-6.4c-0.2-50.2-0.1-100.3-0.1-150.5
		c0-6.6,0-6.6-6.9-6.6c-46,0-92,0-138,0C529.2,517.2,527.2,517.2,524.4,517.2z M524.7,476.3c50.5,0,100.8,0,151,0
		c0-24.1,0-47.6,0-71.3c-50.6,0-100.7,0-151,0C524.7,429,524.7,452.6,524.7,476.3z M483.6,476.6c0-24.1,0-47.8,0-71.6
		c-1.4-0.1-2.4-0.3-3.3-0.3c-47.8,0-95.6,0-143.5-0.1c-4.1,0-4.6,1.8-4.5,5.1c0.1,20.3,0.2,40.7-0.1,61c-0.1,5.2,1.6,6.4,6.5,6.3
		c46.5-0.2,93-0.1,139.5-0.1C480,476.9,481.7,476.7,483.6,476.6z M553.5,363.6c1.4,0.3,1.9,0.5,2.4,0.5c21,0,42,0.4,62.9-0.3
		c7.5-0.2,15.1-2.5,22.2-5.1c7.6-2.8,12.8-8.5,13-17.2c0.2-9-4.2-15.6-11.9-19.9c-10.8-5.9-21.5-4.4-32,0.7
		C588.9,332.5,571.5,347.7,553.5,363.6z M462.7,363.9c-16.9-14.9-33.1-29.2-52.4-39.3c-4.1-2.2-8.4-4.1-12.8-5.4
		c-10.4-3-20.1-1.5-28.5,5.8c-10.6,9.1-9.2,25,2.7,32.1c8.4,5,17.7,6.8,27.3,6.9c20,0.2,39.9,0.1,59.9,0.1
		C459.8,364.1,460.8,364,462.7,363.9z"/>
	<path class="st0" d="M245.6,157.2c-10.6-1-20-2-29.4-2.7c-10-0.8-17.4-6.1-20.1-14.6c-2.8-9.2,0.9-18.3,10-23.8
		c15.8-9.5,31.7-19,47.7-28.2c3.5-2,4.2-4,3.3-8c-4.4-18.5-8.4-37-12.3-55.6c-1.9-8.8,2-17.1,9.3-21.4c7.7-4.5,16.6-3.7,23.7,2.4
		c13.5,11.7,26.8,23.5,40.2,35.3c7,6.1,4.8,6.2,13.4,1.1c15.4-9,30.5-18.5,46-27.2c13.2-7.5,29.1,0.6,30.2,15.3
		c0.3,3.6-0.6,7.7-2,11.1c-7.1,17.1-14.5,34-22,50.9c-1.6,3.5-1,5.5,1.8,8c14.4,12.4,28.7,24.9,42.8,37.7
		c11.5,10.5,8.1,28.5-6.2,33.8c-3,1.1-6.6,1.4-9.8,1.1c-18.9-1.5-37.8-3.3-56.7-5.2c-3.4-0.3-4.7,0.7-5.9,3.6
		c-7.3,17.4-14.7,34.6-22.2,51.9c-3.2,7.5-8.7,12.2-17,13c-10.5,1-19-5.1-21.5-15.4c-2.9-12-5.5-24-8.3-36c-0.2-0.9-0.6-1.8-0.9-2.8
		c-0.6-0.5-1.2-1-1.8-1.5c-1,1.7-1.7,3.8-3,5.2c-79,79.1-158,158.2-237.3,237.2c-3.8,3.8-8.9,7.3-14,8.8c-8.2,2.4-16.7-2.1-20.9-9.3
		c-4.4-7.6-3.7-16.5,2-23.3c2-2.4,4.3-4.6,6.6-6.9c76.5-76.5,153-153,229.4-229.4C242.2,160.9,243.5,159.4,245.6,157.2z
		 M353.5,126.5c-5.7-7.1-15-10.8-15.3-19.9c-0.2-7.9,2.3-15.9,3.6-24c-7,3-13.6,10.6-22.3,7.7c-7.5-2.5-14.2-7.4-21-11.2
		c1.1,7.6,5,15.7,1.1,24.3c-3.8,8.5-13,10.6-19.7,16.2c9,1.6,17.8,0.1,25,6.1c7.2,6,6.7,15.3,10.3,23.7
		C320.1,128.5,332.9,121.2,353.5,126.5z"/>
	<path class="st0" d="M583.5,98.2c54.6-6,85.8-37.3,94.2-92.6c3.6,53.7,47.4,91.1,95.7,92.3c-56,7.2-88.1,37.6-95.8,92.7
		C669.6,135.5,637.5,104.7,583.5,98.2z"/>
	<path class="st0" d="M215.1,407.1c4.8,34.6,23.9,55,58.6,60.6c-16.1,1.9-29.6,8.4-40.7,19.7c-11,11.3-15.9,25.4-17.9,42
		c-4.7-35.9-24-55.9-58.4-61.9C191,462,210,441.8,215.1,407.1z"/>
	<path class="st0" d="M534.3,196.4c-20.2,3.3-32.4,14.6-36.4,35c-2.2-9.2-5.4-17.6-12.4-23.9c-6.9-6.2-14.8-9.9-24.4-10.8
		c20.2-3.6,32.8-14.8,36.8-35.5C501.8,181.7,514.2,193,534.3,196.4z"/>
</g>
</svg>
