<?xml version="1.0" encoding="utf-8"?>
<!-- Generator: Adobe Illustrator 22.1.0, SVG Export Plug-In . SVG Version: 6.00 Build 0)  -->
<svg version="1.1" id="Слой_1" xmlns="http://www.w3.org/2000/svg" xmlns:xlink="http://www.w3.org/1999/xlink" x="0px" y="0px"
	 viewBox="0 0 168 168" style="enable-background:new 0 0 168 168;" xml:space="preserve">
<g>
	<path d="M0,168C0,112,0,56.2,0,0.1c6,0,11.9,0,18.3,0c0,2.2,0,4.1,0,6.1c0,45.8,0.1,91.6-0.1,137.4c0,5.3,1.6,6.3,6.5,6.2
		c45.6-0.2,91.3-0.1,136.9-0.1c2,0,4,0,6.3,0c0,6.2,0,12.1,0,18.3C112.1,168,56.3,168,0,168z"/>
	<path d="M112.5,0c18.4,0,36.7,0,55.4,0c0,18.4,0,36.8,0,55.6c-18.2,0-36.6,0-55.4,0C112.5,37.4,112.5,19,112.5,0z M149.7,36.9
		c0-5.6,0.1-10.7-0.1-15.8c0-0.5,0-2.6,0-2.6s-2,0-2.5,0c-5.2-0.3-10.5-0.1-15.8-0.1c0,6.6,0,12.5,0,18.6
		C137.4,36.9,143.2,36.9,149.7,36.9z"/>
	<path d="M37.4,75c18.7,0,37,0,55.6,0c0,18.6,0,37,0,55.7c-18.5,0-36.9,0-55.6,0C37.4,112.2,37.4,93.8,37.4,75z M56.3,111.7
		c6.4,0,12.2,0,18.5,0c0-5.4,0.2-10.3-0.1-15.3c0-0.6,0-2.9,0-2.9s-2.3,0-2.8,0c-5.1-0.3-10.2-0.1-15.6-0.1
		C56.3,99.8,56.3,105.7,56.3,111.7z"/>
	<path d="M75.5,36.6C69,36.7,62.5,36.9,56,37c0,0,0.1,0.1,0.1,0.1c0.1-6.5,0.2-13,0.3-19.5c0,0-0.1,0.1-0.1,0.1
		c6.3,0.1,12.5,0.2,18.8,0.4L75,18C75.2,24.2,75.3,30.5,75.5,36.6L75.5,36.6z"/>
	<path d="M56,37c0,6.1,0,12.2,0,18.7c-6.4,0-12.4,0-18.6,0c0-6.1,0-12,0-18.5c6.3,0,12.5,0,18.8,0C56.1,37.1,56,37,56,37z"/>
	<path d="M150.5,111.6c-6.5,0.1-13,0.3-19.5,0.4c0,0,0.1,0.1,0.1,0.1c0.1-6.5,0.2-13.1,0.3-19.6l-0.1,0.1c6.2,0.1,12.5,0.3,18.7,0.4
		L150,93C150.2,99.2,150.3,105.5,150.5,111.6L150.5,111.6z"/>
	<path d="M131.1,112c0,6.1,0,12.2,0,18.6c-6.5,0-12.4,0-18.6,0c0-6,0-11.9,0-18.5c6.2,0,12.5,0,18.7,0
		C131.2,112.2,131.1,112,131.1,112z"/>
	<path d="M56.4,17.6c-6.2,0.3-12.4,0.7-19,1c0-6.6,0-12.4,0-18.6c6,0,11.9,0,18.9,0c0,5.9,0,11.8,0,17.7
		C56.3,17.7,56.4,17.6,56.4,17.6z"/>
	<path d="M75.5,36.7c5.7,0,11.5,0,17.5,0c0,6.7,0,12.6,0,18.9c-5.8,0-11.7,0-18.5,0C74.8,49.2,75.2,42.9,75.5,36.7
		C75.5,36.6,75.5,36.7,75.5,36.7z"/>
	<path d="M131.5,92.6c-6.2,0.4-12.4,0.7-19,1.1c0-6.5,0-12.4,0-18.6c6,0,11.9,0,18.9,0C131.4,80.9,131.4,86.8,131.5,92.6
		C131.4,92.7,131.5,92.6,131.5,92.6z"/>
	<path d="M150.4,111.7c5.8,0,11.5,0,17.6,0c0,6.8,0,12.7,0,18.9c-5.9,0-11.2,0-18,0C150.2,124,150.2,118,150.4,111.7
		C150.5,111.6,150.4,111.7,150.4,111.7z"/>
	<path d="M75.1,18.1c0-5.8,0-11.6,0-17.9c5.7,0,11.6,0,17.8,0C93,6,93,11.9,93,18c-6.1,0-12,0-17.9,0C75,18,75.1,18.1,75.1,18.1z"/>
	<path d="M150.1,93.1c0-5.9,0-11.8,0-18.1c5.9,0,11.7,0,17.8,0c0,6,0,11.8,0,17.9c-6.1,0-12,0-17.9,0C150,93,150.1,93.1,150.1,93.1z
		"/>
</g>
</svg>
