<?xml version="1.0" encoding="utf-8"?>
<!-- Generator: Adobe Illustrator 22.1.0, SVG Export Plug-In . SVG Version: 6.00 Build 0)  -->
<svg version="1.1" id="Слой_1" xmlns="http://www.w3.org/2000/svg" xmlns:xlink="http://www.w3.org/1999/xlink" x="0px" y="0px"
	 viewBox="0 0 798 798.1" style="enable-background:new 0 0 798 798.1;" xml:space="preserve">
<g>
	<path d="M264.3,584.9c-9.6,0-18.7,0.7-27.7-0.1c-39.7-3.5-70-22.7-91.2-56.2c-10.9-17.3-16.8-36.3-16.9-56.7
		c-0.2-89.1-0.6-178.3,0.1-267.4c0.5-56.9,48.2-106.5,104.7-112.3c58.1-6,117.7,32.8,128.8,98.6c1.2,7,1.4,14.3,1.5,21.4
		c0.1,55.8,0.1,111.6,0.1,167.5c0,2,0,4,0,6.6c7.4-2.3,14.2-4.7,21.2-6.7c25.4-7.4,51.3-11.4,77.7-12.5c45.7-1.8,90,4.4,132.5,21.7
		c28.1,11.4,53.4,27.3,72.5,51.5c14.5,18.4,22.4,39.1,22.2,62.8c-0.2,21.5-0.5,43,0.1,64.5c0.8,30.7-11.1,55.7-32.3,76.9
		c-23.6,23.7-52.6,38.5-84.3,47.9c-70.5,20.9-140.6,19.7-209.8-5.8c-29.8-11-56.3-27.3-76.7-52.3
		C274.8,619.7,267.2,603.3,264.3,584.9z M324.1,256.6c-0.2,0-0.3,0-0.5,0c0-18.3,1.1-36.7-0.2-55c-3.1-41.4-41.5-76.6-88.8-69.6
		c-40.8,6.1-67,38.1-67.1,79.4c0,31,0.5,62-0.3,93c-0.3,11.7,4.4,19.4,13.5,25.4c3.2,2.1,6.5,4.2,9.9,5.7
		c28.7,12.9,58.5,14.3,88.8,7.4c13.6-3.1,26.4-8,37-17.7c5.2-4.7,7.9-10.3,7.7-17.6C323.9,290.6,324.1,273.6,324.1,256.6z
		 M558,417.4c-23.7-6.7-46.5-10.3-69.7-11.2c-41.6-1.5-82,4.4-120.4,21.1c-20.6,8.9-39.2,20.6-53.1,38.8
		c-16.3,21.3-16.1,47,0.1,68.4c9,11.9,20.6,20.7,33.1,28.6c3.5,2.2,5.9,2,9.2-0.5c63.9-46.3,128-92.4,192-138.6
		C551.9,422,554.5,420,558,417.4z M397.3,582.1c0.1,0.8,0.2,1.5,0.2,2.3c15,2.7,29.9,6,45,8c27.4,3.5,54.8,2.7,82-1.9
		c27.1-4.5,53.2-12.2,77.2-25.8c14-7.9,26.6-17.6,36.4-30.6c15.1-19.9,16-43.4,2.4-64.3c-9.4-14.4-22.7-24.7-37.4-33.1
		c-1.3-0.7-4.2-0.1-5.6,0.9c-63.7,45.8-127.3,91.6-190.9,137.5C403.5,577.4,400.4,579.8,397.3,582.1z M324,368.4
		c-52.6,24.1-104.2,23.9-156.2,0.1c-0.1,1.8-0.2,3.2-0.2,4.7c0,31.5-0.4,63,0.1,94.4c0.5,34,16.8,58.1,47.6,72.2
		c15.1,6.9,31.1,8.7,47.8,4.2c0-13.9,0.1-27.6,0-41.2c-0.2-19,4.9-36.5,14.9-52.5c10.8-17.2,25.3-30.7,42.1-42
		c1.6-1.1,3.8-3,3.8-4.6C324.1,392.2,324,380.6,324,368.4z M303.8,579.7c0.1,2,0.1,3,0.3,3.9c2,9.5,6.3,17.8,12.3,25.4
		c12.8,16,29.5,26.8,47.8,35.3c31.4,14.5,64.7,21.1,99.1,22.6c40.6,1.7,80-3.7,117.7-19.3c21-8.7,40.2-20.1,54.9-38
		c7.1-8.6,11.8-18.3,13.5-30.2c-51.1,40.2-109.9,54.1-172.5,54.1C414.2,633.5,355.2,619.7,303.8,579.7z"/>
	<path d="M161.5,798c-21,0-42,0.2-63,0c-50.4-0.5-90.9-36.1-97.7-85.6c-0.6-4.1-0.7-8.3-0.7-12.5c-0.1-44.3-0.1-88.7,0-133
		c0-10.3,5.1-17.6,13.8-20.3c12.8-3.9,25.1,5.2,25.4,19c0.2,10.8,0.1,21.7,0.1,32.5c0,33.3,0,66.7,0,100c0,35.4,25.1,60.4,60.5,60.5
		c43.7,0.1,87.3,0,131,0c10.1,0,17.7,5.2,20.4,13.7c4,12.5-4.9,25.1-18.3,25.5c-10.7,0.3-21.3,0.1-32,0.1
		C187.8,798,174.7,798,161.5,798z"/>
	<path d="M0.1,161.5c0-21.3-0.2-42.7,0.1-64C0.8,47.7,36.9,7.3,86.2,0.8c4.3-0.6,8.6-0.7,13-0.7c43.8,0,87.7,0,131.5,0
		c10.8,0,18.4,5.3,20.9,14.4c3.5,12.7-5.6,24.7-19.2,24.9c-15.3,0.2-30.7,0.1-46,0.1c-29.2,0-58.3-0.1-87.5,0
		C68.4,39.6,44.9,59.6,40,89.5c-0.6,3.6-0.6,7.3-0.6,11c0,43.3,0,86.7,0,130c0,10.7-5.3,18.5-14.3,21c-12.6,3.6-24.8-5.5-25-19
		c-0.2-19.3-0.1-38.7-0.1-58C0.1,170.2,0.1,165.8,0.1,161.5z"/>
	<path d="M636.3,798c-23.5,0-47,0-70.5,0c-8.1,0-14.1-3.6-17.9-10.7c-3.5-6.6-3-13.3,1-19.5c4.3-6.6,10.6-9.2,18.3-9.1
		c43.7,0,87.3-0.1,131,0.1c13.3,0,25.5-3.2,36.1-11.1c16-11.9,24.2-28,24.2-48.1c0-44,0-88,0-132c0-11.2,5.6-18.8,15.3-21.2
		c11.1-2.7,22.3,5,23.8,16.3c0.2,1.6,0.2,3.3,0.2,5c0,43.8,0.2,87.7,0,131.5c-0.3,50.8-36.1,91.5-86.1,98.1c-4.9,0.7-10,0.7-15,0.7
		C676.7,798,656.5,798,636.3,798C636.3,798,636.3,798,636.3,798z"/>
	<path d="M636.7,0.1c21.3,0,42.7-0.3,64,0.1c50,0.8,90,36.6,96.5,86.2c0.6,4.6,0.7,9.3,0.7,14c0.1,39.8,0,79.7,0,119.5
		c0,3-0.1,6.1-0.9,8.9c-2.7,9-11.7,14.8-20.7,13.8c-9.3-1.1-16.7-8.7-17.5-18.3c-0.2-1.8-0.1-3.7-0.1-5.5c0-39.5,0-79,0-118.5
		c0-35.7-25-60.7-60.7-60.7c-43.5,0-87,0-130.5,0c-7.7,0-14.1-2.5-18.4-9c-8.3-12.7,0.1-29.1,15.2-30.2c1.8-0.1,3.7-0.1,5.5-0.1
		C592,0.1,614.4,0.1,636.7,0.1C636.7,0.1,636.7,0.1,636.7,0.1z"/>
</g>
</svg>
