<?xml version="1.0" encoding="utf-8"?>
<!-- Generator: Adobe Illustrator 22.1.0, SVG Export Plug-In . SVG Version: 6.00 Build 0)  -->
<svg version="1.1" id="Слой_1" xmlns="http://www.w3.org/2000/svg" xmlns:xlink="http://www.w3.org/1999/xlink" x="0px" y="0px"
	 viewBox="0 0 151.9 141.5" style="enable-background:new 0 0 151.9 141.5;" xml:space="preserve">
<style type="text/css">
	.st0{fill:#FFFFFF;}
</style>
<g>
	<path class="st0" d="M127.9,118.4c-2.2-2.6-2.7-5.9-3-9.2c0-0.3-0.1-0.7-0.1-1.1c-1,0.8-2.4,1.1-3.7,0.9c0.2,3.3-1.1,4.5-4.7,4.5
		c-30-0.1-60-0.1-90,0c-3.8,0-4.8-1.3-4.7-4.9c0.2-21.2,0.1-42.3,0.1-63.5c0-1.3,0.2-2.6,0.4-4.4h0.6c-0.1-0.5-0.1-1-0.2-1.5
		c-1.4-0.1-2.9-0.1-4.1-0.4c-1.6-0.5-2.9-1.1-3.9-2.1c-0.9-0.2-1.8-0.4-2.6-0.6c0,0,0,0,0,0.1c-0.4,1.6-0.8,3.2-1.4,4.7
		c0.2,0,0.5,0.1,0.7,0.1c0.1,0,0.3,0.2,0.8,0.7c0.1,1.5,0.2,3.5,0.2,5.4c0,22.3,0,44.6,0,67c0,7.6,1.2,8.7,8.6,8.7c26,0,52,0,78,0
		c8.3,0,16.7-0.2,25-0.2c4.3,0,5.6-1.7,5.7-3.2C128.9,119.2,128.4,118.9,127.9,118.4z"/>
	<path class="st0" d="M123.8,49.1c1-0.1,2-0.1,3,0c8.4,0.6,15.7,3.2,22,8.8c2.5,2.2,4.3,4.6,1.9,7.6c-2.5,3.2-5.2,1.7-7.8-0.4
		c-11.3-9.1-23.1-9.2-34.6-0.3c-2.6,2-5.3,4.2-8.1,0.6c-2.8-3.5-0.2-5.6,2.4-7.8C108.8,52.3,116,49.8,123.8,49.1z"/>
	<path class="st0" d="M115,67.3c7.2-3.6,15.7-3.3,22.7,0.7l2.6,1.5c2.5,1.4,3.5,4.2,1.6,6.9c-2,2.8-4.5,2.5-6.9,0.6
		c-6.2-4.7-12.4-4.9-18.7,0c-2.4,1.9-4.9,2.2-7-0.5c-2.1-2.8-1-5.3,1.5-6.8C112.1,68.8,113.6,68,115,67.3z"/>
	<path class="st0" d="M131.6,85.1c-0.1,3.6-2.5,6-6,6c-3.3,0-6.1-2.7-6.1-6c0-3.6,2.4-5.9,6-5.9C129.2,79.2,131.5,81.4,131.6,85.1z"
		/>
</g>
<circle class="st0" cx="45.4" cy="71.6" r="5.4"/>
<circle class="st0" cx="60.5" cy="71.6" r="5.4"/>
<circle class="st0" cx="45.4" cy="84.6" r="5.4"/>
<circle class="st0" cx="60.5" cy="84.6" r="5.4"/>
<circle class="st0" cx="45.4" cy="97.5" r="5.4"/>
<circle class="st0" cx="60.5" cy="97.5" r="5.4"/>
<path class="st0" d="M125.3,141.5H17.1c-2.6,0-4.7-2.1-4.7-4.7v0c0-2.6,2.1-4.7,4.7-4.7h108.2c2.6,0,4.7,2.1,4.7,4.7v0
	C129.9,139.4,127.8,141.5,125.3,141.5z"/>
<path class="st0" d="M125.4,28.6h-25c-2.6,0-4.8-2.2-4.8-4.8v0c0-2.6,2.2-4.8,4.8-4.8h25c2.6,0,4.8,2.2,4.8,4.8v0
	C130.2,26.4,128,28.6,125.4,28.6z"/>
<path class="st0" d="M125.6,44.3L125.6,44.3c2.5,0,4.6-2.1,4.6-4.6V24.4c0-2.5-2.1-4.6-4.6-4.6h0c-2.5,0-4.6,2.1-4.6,4.6v15.4
	C121,42.3,123,44.3,125.6,44.3z"/>
<path class="st0" d="M125.6,122.1L125.6,122.1c2.5,0,4.6-2.1,4.6-4.6v-15.4c0-2.5-2.1-4.6-4.6-4.6h0c-2.5,0-4.6,2.1-4.6,4.6v15.4
	C121,120,123,122.1,125.6,122.1z"/>
<path class="st0" d="M66.3,61.8H39.8c-2.4,0-4.4-2-4.4-4.4v0c0-2.4,2-4.4,4.4-4.4h26.5c2.4,0,4.4,2,4.4,4.4v0
	C70.7,59.8,68.7,61.8,66.3,61.8z"/>
<g>
	<path class="st0" d="M79.3,9v23.6H9V9H79.3 M83,0H5.3C2.4,0,0,2.4,0,5.3v31.1c0,2.9,2.4,5.3,5.3,5.3H83c2.9,0,5.3-2.4,5.3-5.3V5.3
		C88.3,2.4,86,0,83,0L83,0z"/>
</g>
</svg>
