<?xml version="1.0" encoding="utf-8"?>
<!-- Generator: Adobe Illustrator 22.1.0, SVG Export Plug-In . SVG Version: 6.00 Build 0)  -->
<svg version="1.1" id="Слой_1" xmlns="http://www.w3.org/2000/svg" xmlns:xlink="http://www.w3.org/1999/xlink" x="0px" y="0px"
	 viewBox="0 0 490.5 436.3" style="enable-background:new 0 0 490.5 436.3;" xml:space="preserve">
<style type="text/css">
	.st0{fill:#FFFFFF;}
</style>
<g>
	<path d="M237.5,227.6c-1.9-3-3.3-9.4-3.1-14.3c0.6-14.4-3.9-24.2-9.2-35.4c-0.8-1.6-2.5-2.8-3.8-4.2c-0.9,1.8-2.2,3.5-2.6,5.4
		c-6.7,31.9-26,51.8-56.8,61.5c-15.1,4.8-30.2,4.8-45.4,1.4c-6.9-1.5-13.5-4.6-20-7.6c-4.1-1.8-5.6-1.9-8.2,2.7
		c-9.9,18.1-17.7,37-22.3,57c-3.8,16.5-7.2,33.3-8.4,50.2c-1.9,25.4-0.8,50.9,5.1,76c2.4,10.2-3.6,17.2-12.6,15.7
		c-5.2-0.9-7.8-4.3-8.8-9c-8.4-36.5-9.6-73.3-3.7-110.2c4.8-30.3,14-59.2,28.7-86.1c1.5-2.7,3.3-5.5,5.6-7.6
		c2.5-2.2,2.3-3.5,0.3-5.7c-7.8-8.5-14.6-17.8-18.7-28.7c-10.5-28.2-7.1-54.4,12-77.9c5-6.1,11.7-10.7,17.7-16
		c1-0.8,2.3-1.3,3.4-1.9c-0.3-0.6-0.5-1.1-0.8-1.7c-1.8-1-3.6-2.1-5.5-2.9c-20.3-9.2-40.7-18.3-58.7-31.8
		C6.5,45.5-1.5,30.9,0.2,11.6c0.6-6.3,5.1-11,11.3-11c6.5-0.1,12.1,3.9,11.4,9.9c-2.1,18.7,10,28.1,23.6,35.2
		c20.6,10.8,41.9,20.2,63.1,29.9c1.5,0.7,4.2,0,5.9-1c21.9-12.3,45.1-21.5,69.5-27.2c28.7-6.8,57.9-8.6,87.3-5.3
		c35.4,3.9,68.4,15.3,99.5,32.3c3.6,2,6.6,2.3,10.7,0.7c20.8-8.4,41.6-17,60.9-28.6c8.3-5,16.8-10.2,21.2-19.1
		c2-4.1,2.4-9.2,2.7-13.9C467.9,5.1,472.2-0.2,479,0c6.4,0.2,10.7,5.8,11.3,13.4c1.8,21.5-9.7,35.6-26,46.8
		c-15.7,10.8-32.7,19.1-50.2,26.6c-3.1,1.3-6,3.2-9.7,5.1c4.2,3.4,7.5,6,10.8,8.7c31.8,26,37.2,72.7,11.2,107.3
		c-2.6,3.5-5.7,6.5-8.2,10c-0.7,1-1,3.2-0.4,4.2c4.6,8,10.5,15.4,14.2,23.7c12.6,28.3,20.4,57.9,23.3,88.9
		c2.8,29.8,1.2,59.2-4.4,88.5c-1.8,9.5-6.5,13.8-14.1,12.6c-7-1.1-10.9-6.6-9.2-13.9c6.3-26.4,7.2-53.2,5.5-80
		c-1.5-22.6-5.5-45-13.8-66.2c-5.4-13.7-11.9-27-17.9-40.6c-1.4-3.2-3.4-2.4-5.7-1.3c-18.9,9.5-38.8,13.4-59.6,8.6
		c-28.4-6.6-50-22-60.4-50.4c-1.8-5-2.8-10.2-4.2-15.3c-0.3-1.2-1.2-2.1-1.9-3.2c-1,0.7-2.4,1.2-3,2.2c-5.9,10.9-10.3,22.3-9.9,35.1
		c0.1,3.6,0,7.3-0.5,10.9c-0.8,6.2-5.1,9.6-11.3,9.6C244.9,231.5,239.8,231.2,237.5,227.6z M347.1,88.5c-3-2-4.5-3.3-6.2-4
		c-5-2.2-10.1-4.2-15.2-6.2c-24.6-9.6-50.1-14.8-76.4-15.4c-34.5-0.8-67.5,5.7-98.9,20.2c-2.4,1.1-4.5,2.9-6.8,4.3
		c2.3,1.4,4.4,3.2,6.9,4.2c22.4,9.2,44.1,19.3,62.5,35.5c11.2,9.9,21,20.9,28.8,33.6c2.9,4.7,4.3,4.8,7.1-0.1
		c9.7-17,23.3-30.6,39-41.4c13.6-9.4,28.9-16.2,43.6-23.9C336,92.9,340.9,91.2,347.1,88.5z M420.2,159.1c0.1-26.8-19.1-47-44.2-53.4
		c-3.1-0.8-6.9-0.9-9.8,0.3c-17.4,7.4-34.7,15.1-51.8,23.2c-8.7,4.1-15.6,9.8-18.7,20c-5.7,19.3-0.1,42.6,14.9,55.9
		c17,15.1,36.6,18.9,58.6,14.5C397.4,214,420,187.5,420.2,159.1z M197.1,165c0-0.7,0.1-1.3,0-2c-1.4-13.1-4.4-24.7-17.5-32
		c-18.1-10.1-36.9-18.4-56.4-25.1c-3.1-1.1-7.1-0.8-10.2,0.3c-5.8,1.9-11.5,4.4-16.8,7.5c-20.7,11.9-30.8,39.8-23.5,62
		c10,30.3,41.7,49.2,72.9,45.3C175.5,217.1,197.4,193.7,197.1,165z"/>
	<path class="st0" d="M347.1,88.5c-6.2,2.7-11.1,4.4-15.6,6.7c-14.7,7.7-30,14.6-43.6,23.9c-15.7,10.9-29.4,24.5-39,41.4
		c-2.8,4.9-4.2,4.8-7.1,0.1C234,148,224.2,137,213,127.1c-18.4-16.2-40.1-26.4-62.5-35.5c-2.5-1-4.6-2.8-6.9-4.2
		c2.3-1.5,4.4-3.2,6.8-4.3c31.4-14.5,64.4-21,98.9-20.2c26.4,0.6,51.8,5.8,76.4,15.4c5.1,2,10.2,4,15.2,6.2
		C342.7,85.2,344.1,86.5,347.1,88.5z"/>
	<path class="st0" d="M420.2,159.1c-0.2,28.4-22.8,54.9-50.9,60.5c-22,4.4-41.6,0.6-58.6-14.5c-15-13.3-20.6-36.6-14.9-55.9
		c3.1-10.3,10-15.9,18.7-20c17.1-8,34.4-15.7,51.8-23.2c2.8-1.2,6.7-1.1,9.8-0.3C401.1,112.1,420.4,132.3,420.2,159.1z M347.8,180.7
		c11.3-0.1,16.5-1.9,25.2-8.9c16.1-13,16.6-36.9,0.6-50c-8-6.6-17-9.6-27.2-4.4c-6.8,3.5-13.5,7.3-20.6,9.9
		c-8.8,3.3-11.3,10.2-12.3,18.3C311.2,165.9,329,182.3,347.8,180.7z"/>
	<path class="st0" d="M197.1,165c0.2,28.7-21.7,52.1-51.6,55.9c-31.2,4-62.9-15-72.9-45.3c-7.3-22.2,2.7-50.1,23.5-62
		c5.3-3,11-5.5,16.8-7.5c3.1-1,7.2-1.3,10.2-0.3c19.5,6.7,38.3,15,56.4,25.1c13.1,7.3,16.1,18.9,17.5,32
		C197.2,163.7,197.1,164.3,197.1,165z M141.7,180.7c1.2,0,2.3,0,3.5,0c19.1-0.4,33.1-15,31.8-34c-0.5-8.4-3.1-15.9-12.1-19.5
		c-6.3-2.6-12.1-6.3-18.4-8.8c-4.5-1.8-9.7-3.7-14.3-3.4c-14,1.1-26.3,15.7-26.8,29.8C104.6,163.9,123.7,182.3,141.7,180.7z"/>
	<path d="M347.8,180.7c-18.8,1.6-36.6-14.8-34.2-35.1c0.9-8,3.5-15,12.3-18.3c7.1-2.7,13.8-6.5,20.6-9.9c10.2-5.2,19.2-2.2,27.2,4.4
		c16,13.1,15.5,37-0.6,50C364.3,178.8,359.1,180.7,347.8,180.7z"/>
	<path d="M141.7,180.8c-18,1.6-37.1-16.8-36.4-35.9c0.5-14,12.8-28.6,26.8-29.8c4.7-0.4,9.8,1.5,14.3,3.4c6.3,2.5,12.1,6.3,18.4,8.8
		c9,3.6,11.6,11.2,12.1,19.5c1.2,19-12.8,33.6-31.8,34C144,180.8,142.8,180.7,141.7,180.8z"/>
</g>
</svg>
