<?xml version="1.0" encoding="utf-8"?>
<!-- Generator: Adobe Illustrator 22.1.0, SVG Export Plug-In . SVG Version: 6.00 Build 0)  -->
<svg version="1.1" id="Слой_1" xmlns="http://www.w3.org/2000/svg" xmlns:xlink="http://www.w3.org/1999/xlink" x="0px" y="0px"
	 viewBox="0 0 402.7 540.1" style="enable-background:new 0 0 402.7 540.1;" xml:space="preserve">
<style type="text/css">
	.st0{fill:#FFFFFF;}
</style>
<g>
	<path class="st0" d="M372.7,467.5c0-146,0-291.2,0-436.9c-114.2,0-228.3,0-343,0c0,1.9,0,3.7,0,5.5c0,141.7,0,283.3,0,425
		c0,6.3,0,6.3,6.7,6.3c40.7,0,81.3,0,122,0c7.3,0,13.2,2.1,16.1,9.3c3.8,9.1-2.2,19.3-12,20.4c-1.6,0.2-3.3,0.1-5,0.1
		c-46.5,0-93,0-139.5,0c-12.5,0-18-5.5-18-17.9C0,325.5,0,171.7,0,17.8C0,5.8,5.7,0,17.7,0c122.5,0,245,0,367.5,0
		c11.8,0,17.6,5.8,17.6,17.4c0,154.2,0,308.3,0,462.5c0,11.5-5.7,17.2-17.1,17.3c-7,0-14,0.1-21,0c-8.7-0.2-15.1-6.4-15.3-14.6
		c-0.2-8.3,5.9-14.6,14.7-15.1C366.8,467.3,369.6,467.5,372.7,467.5z"/>
	<path class="st0" d="M258.9,348.6c36.5,0.2,65,20.7,74.6,50.3c10,30.7-0.1,63.1-26.1,82.4c-3.4,2.5-3.7,4.4-2.1,8.1
		c4.3,9.8,8.2,19.7,11.9,29.7c3.4,9.1-0.9,17.7-9.7,20.2c-7.5,2.2-14.8-1.6-18.1-9.5c-4-9.9-8.1-19.7-11.8-29.7
		c-1.4-3.6-2.8-5.2-7.2-4.5c-5,0.8-10.3,0.5-15.4-0.2c-3.6-0.4-5.1,0.6-6.3,3.8c-3.9,10.3-8,20.5-12.2,30.6c-2.9,7-9.2,10.9-15.7,10
		c-7-0.9-12.4-5.9-13.1-13.1c-0.3-3,0.5-6.3,1.5-9.2c3.6-9.7,7.4-19.3,11.5-28.7c1.5-3.5,1.2-5.4-2-7.8
		c-43.5-33.1-37.9-99,10.4-124.3C240.1,351.3,251.5,348.5,258.9,348.6z M263.1,466.2c24.4,0.1,44.1-19.2,44.3-43.4
		c0.2-24.1-19.5-44.2-43.5-44.4c-24.4-0.2-44.2,19.2-44.4,43.3C219.3,446.5,238.4,466.1,263.1,466.2z"/>
	<path class="st0" d="M200.9,105.3c-41.7,0-83.3,0-125,0c-8.2,0-13.6-3.2-16.1-9.4c-3.6-8.9,1.6-18.4,11.1-20.2
		c2.3-0.4,4.6-0.4,7-0.4c82.3,0,164.6,0,247,0c2,0,4-0.1,6,0.2c7.9,1,13.4,7.3,13.2,15c-0.1,7.7-5.9,13.9-13.7,14.7
		c-1.8,0.2-3.7,0.1-5.5,0.1C283.6,105.3,242.2,105.3,200.9,105.3z"/>
	<path class="st0" d="M201.3,248.9c-41.3,0-82.7,0-124,0c-3,0-6.1-0.1-8.9-1c-6.4-2.1-10.6-8.9-9.8-15.2c0.8-7.4,6.3-12.8,13.8-13.6
		c1.6-0.2,3.3-0.1,5-0.1c82.7,0,165.3,0,248,0c2.6,0,5.4,0.1,7.9,0.8c7.1,1.9,11.3,8.1,10.7,15.4c-0.6,6.8-5.8,12.4-12.7,13.4
		c-2.1,0.3-4.3,0.3-6.5,0.3C283.6,248.9,242.5,248.9,201.3,248.9z"/>
	<path class="st0" d="M188.3,177.1c-36.8,0-73.6,0-110.4,0c-1.5,0-3,0.1-4.5,0c-8.1-0.4-14.3-6.4-14.8-14.2
		c-0.5-7.6,5.3-14.3,13.3-15.6c1.3-0.2,2.7-0.2,4-0.2c75,0,149.9,0,224.9,0c10.4,0,17,5.8,17.1,14.8c0.1,8.8-6.2,15.1-15.6,15.2
		c-12.7,0.1-25.3,0-38,0C239,177.1,213.6,177.1,188.3,177.1z"/>
	<path class="st0" d="M124.4,320.8c-15.5,0-31,0.1-46.5,0c-3.1,0-6.4-0.1-9.4-1.1c-6.4-2-10.6-8.8-9.9-15.2
		c0.8-7,5.8-12.4,12.8-13.5c1.5-0.2,3-0.2,4.5-0.2c32.3,0,64.7-0.1,97,0.1c3.4,0,7,0.8,10,2.4c5.4,2.8,8,9.5,6.7,15.4
		c-1.2,6.1-6.4,11-12.7,11.7c-2.3,0.3-4.7,0.3-7,0.3C154.7,320.8,139.6,320.8,124.4,320.8z"/>
</g>
</svg>
