<?xml version="1.0" encoding="utf-8"?>
<!-- Generator: Adobe Illustrator 22.1.0, SVG Export Plug-In . SVG Version: 6.00 Build 0)  -->
<svg version="1.1" id="Слой_1" xmlns="http://www.w3.org/2000/svg" xmlns:xlink="http://www.w3.org/1999/xlink" x="0px" y="0px"
	 viewBox="0 0 773.5 463.4" style="enable-background:new 0 0 773.5 463.4;" xml:space="preserve">
<style type="text/css">
	.st0{fill:#FFFFFF;}
</style>
<g>
	<path class="st0" d="M316,410.3c9.6-2.1,16.3-5.7,21.3-14.5c35.5-63,71.7-125.6,107.9-188.2c2.3-4.1,6.4-7.9,10.6-10
		c74.6-36.6,149.5-72.6,224.1-109.3c14.4-7.1,28-16,41.8-24.4c3.5-2.1,6.4-5.3,9.3-8.3c3.5-3.7,3.3-5.7-1.4-7.4
		c-7.3-2.6-14.9-5-22.5-6.4c-20.2-3.6-40.5-3.7-60.5,1.3c-5,1.2-9.9,3-14.6,5C515.1,99,398.2,149.9,281.4,200.8
		c-22.9,10-45.8,19.9-68.7,30c-8,3.6-15.3,3-22.8-1.6c-43.6-27-87.3-53.9-131-80.9c-2.4-1.5-4.7-3.5-7.8-0.4
		c7,10.2,14,20.5,21.1,30.8c17.7,25.8,35.5,51.6,53.2,77.5c7.1,10.4,5.9,20.1-3.3,28.5c-3,2.8-6.3,5.3-9.4,8c0.4,0.7,0.8,1.3,1.2,2
		c3.7,0.3,7.5,0.7,11.2,0.7c41.2,0.1,80.6-9.4,119.1-22.9c8.3-2.9,16.5-6.2,24.8-9.1c11.8-4.2,22.8,0.5,26.7,11.3
		c3.9,10.8-1.4,21.4-12.9,25.9c-38.4,15.1-77.7,26.9-118.8,32.2c-20.7,2.7-41.5,4.5-62.1-0.5c-32.2-7.8-41.6-34.1-21.9-60.7
		c1.2-1.6,2.4-3.2,4-5.2c-4.1-6.1-8.3-12.2-12.5-18.4c-22.4-32.5-44.8-65.1-67.1-97.6c-8.9-13-4.5-26.6,10.3-32.1
		c10.8-4,21.7-7.7,32.4-11.9c8.3-3.3,15.6-2.4,23.2,2.3c43,26.7,86.2,53.2,129.3,79.8c3.2,2,5.7,2.1,9.1,0.6
		c136.9-59.8,273.9-119.5,410.9-179c20.9-9.1,43.3-10.5,65.7-10c18.2,0.4,36.2,2.9,53.3,9.8c5.4,2.2,10.7,4.7,15.6,7.9
		c20.9,13.8,25.2,38.5,10.5,58.8c-8.6,11.8-19.5,21.2-32.1,28.1c-24.3,13.2-48.9,25.8-73.7,38c-49.8,24.5-99.7,48.6-149.6,72.8
		c-9.3,4.5-18.7,8.9-27.8,13.7c-2.6,1.4-5.2,3.7-6.7,6.2c-29.7,51.4-59.2,102.8-88.7,154.3c-7.7,13.4-15.5,26.8-23.2,40.3
		c-2.9,5.2-7.1,8.6-12.7,10.6c-19.3,6.9-38.5,14-57.7,21c-8.4,3.1-16.2,2.4-22.7-4.1c-6.3-6.3-7-13.9-4.2-22.2
		c12.8-38.4,25.2-76.9,38.3-115.2c5.7-16.6,6.9-33.9,10.1-50.9c1.2-6.5,2-13.2,3.1-19.7c2-11.4,11.6-18.7,22.5-17.2
		c10.8,1.5,18.3,11.1,16.7,22.3c-2.9,20.3-5.3,40.7-9.7,60.7c-3.3,14.9-9.2,29.2-14,43.7C327.3,375.9,321.7,392.8,316,410.3z"/>
	<path class="st0" d="M228.6,84.8c9.4,6,18.5,11.8,27.6,17.6c3.9,2.5,7.9,4.9,11.8,7.5c9.6,6.3,12.6,18.1,6.8,27.5
		c-5.7,9.3-17.8,12.2-27.6,6.3c-11.3-6.8-22.3-14-33.4-21c-13.2-8.4-26.4-16.9-39.7-25.1c-7.3-4.6-11.2-10.9-10.4-19.5
		c0.9-8.8,6-14.4,14.3-17.4c19.8-7.1,39.4-14.5,59.2-21.3c4.1-1.4,9.4-1.6,13.6-0.3c35.5,10.9,70.9,22.1,106.2,33.4
		c11.1,3.6,16.7,14.1,13.5,24.9c-3.1,10.5-13.9,16.4-25.1,13c-29.9-9.2-59.9-18.3-89.4-28.5C245.9,78.1,237.8,80.3,228.6,84.8z"/>
</g>
</svg>
