<?xml version="1.0" encoding="utf-8"?>
<!-- Generator: Adobe Illustrator 22.1.0, SVG Export Plug-In . SVG Version: 6.00 Build 0)  -->
<svg version="1.1" id="Слой_1" xmlns="http://www.w3.org/2000/svg" xmlns:xlink="http://www.w3.org/1999/xlink" x="0px" y="0px"
	 viewBox="0 0 701.8 701.8" style="enable-background:new 0 0 701.8 701.8;" xml:space="preserve">
<style type="text/css">
	.st0{fill:#FFFFFF;}
</style>
<g>
	<path class="st0" d="M371,165.4c0-50.5,0-101,0-151.5c0-10.9,3-14,13.9-14c101,0,201.9,0,302.9,0c10.8,0,14,3.1,14,14
		c0,101,0,201.9,0,302.9c0,10.8-3.1,13.9-14,13.9c-101,0-201.9,0-302.9,0c-10.9,0-13.9-3-13.9-13.9C371,266.4,371,215.9,371,165.4z
		 M536.4,288.6c37,0,74,0,110.9,0c9.4,0,12.1-2.8,12.1-12.3c0-73.8,0-147.6,0-221.4c0-9.9-2.7-12.6-12.3-12.6c-74,0-147.9,0-221.9,0
		c-9.4,0-12.1,2.7-12.1,12.3c0,74,0,147.9,0,221.9c0,9.4,2.7,12.1,12.3,12.1C462.4,288.6,499.4,288.6,536.4,288.6z"/>
	<path class="st0" d="M165.4,701.8c-50.5,0-101,0-151.5,0c-10.8,0-13.9-3.1-13.9-14c0-101,0-201.9,0-302.9C0,374,3.1,371,14,371
		c101,0,201.9,0,302.9,0c10.9,0,13.9,3,13.9,13.9c0,101,0,201.9,0,302.9c0,10.8-3.1,14-14,14C266.4,701.8,215.9,701.8,165.4,701.8z
		 M288.6,536.7c0-37,0-74,0-110.9c0-9.9-2.6-12.6-12.3-12.6c-74,0-147.9,0-221.9,0c-9.4,0-12.1,2.7-12.1,12.3c0,74,0,147.9,0,221.9
		c0,9.3,2.8,12.1,12.3,12.1c74,0,147.9,0,221.9,0c9.4,0,12.1-2.8,12.1-12.3C288.6,610.3,288.6,573.5,288.6,536.7z"/>
	<path class="st0" d="M164.9,330.8c-50.3,0-100.6,0-151,0c-10.9,0-13.9-3.1-13.9-14c0-101,0-201.9,0-302.9C0,3.1,3.1,0,14,0
		C115,0,216,0,316.9,0c10.8,0,13.9,3.1,13.9,14c0,101,0,201.9,0,302.9c0,10.9-3,13.9-14,13.9C266.2,330.8,215.5,330.8,164.9,330.8z
		 M165.5,42.3c-37,0-74,0-110.9,0c-9.5,0-12.2,2.7-12.2,12.1c0,74,0,147.9,0,221.9c0,9.5,2.7,12.2,12.1,12.2c74,0,147.9,0,221.9,0
		c9.5,0,12.2-2.7,12.3-12.1c0-74,0-147.9,0-221.9c0-9.5-2.7-12.2-12.1-12.2C239.5,42.3,202.5,42.3,165.5,42.3z"/>
	<path class="st0" d="M402.3,535.9c0-26.5,0-53,0-79.5c0-1.3-0.1-2.7,0-4c0.5-5.5,4.1-7.7,9-4.9c6.8,3.9,13.4,8.1,20.1,12.2
		c24.6,15,49.2,30.1,73.7,45.1c1.4,0.9,2.8,1.9,4.4,2.3c3.1,0.9,5.3-0.1,5.6-3.7c0.1-1.7,0.1-3.3,0.1-5c0-36.5,0-73,0-109.5
		c0-1.3-0.3-2.7,0.1-4c0.8-3.1,1-7.5,3-8.7c1.9-1.2,6.3,0.3,8.9,1.8c44.5,26.9,88.9,53.9,133.2,80.9c7.4,4.5,7.4,9.1-0.3,13.8
		c-28.4,17.4-56.8,34.8-85.2,52.2c-2.7,1.7-5.4,3.3-8.1,5c-6.2,4-6.3,7.2-0.2,11.2c10.4,6.7,20.8,13.2,31.2,19.8
		c20.4,12.9,40.9,25.7,61.3,38.6c7.5,4.8,7.6,9.3,0.2,13.8c-44.4,27.3-88.9,54.5-133.3,81.7c-0.7,0.4-1.4,0.9-2.1,1.3
		c-5.4,2.8-8.9,0.8-8.9-5.2c-0.1-10,0-20,0-30c0-29.5,0.1-59,0-88.5c0-2.4-0.6-6-2.1-7c-1.6-0.9-5.1,0.3-7.1,1.5
		c-30.2,18.3-60.3,36.7-90.5,55.1c-0.9,0.5-1.7,1.1-2.6,1.6c-6.5,3.9-10.3,1.9-10.3-5.6c-0.1-27.5,0-55,0-82.5
		C402.4,535.9,402.3,535.9,402.3,535.9z M556.3,465.6C556.3,465.6,556.3,465.6,556.3,465.6c0,4.3-0.1,8.7,0.1,13
		c0.3,5.4,3,7,7.5,4.3c6.9-4,13.7-8.3,20.3-12.6c4.3-2.8,4.3-6.3,0-9c-6.7-4.3-13.5-8.5-20.4-12.5c-4.5-2.6-7.3-0.9-7.5,4.4
		C556.2,457.3,556.3,461.5,556.3,465.6z M556.5,606.5c0,4.5-0.1,9,0,13.5c0.2,4.6,3,6.3,7,4c7.1-4,14-8.3,20.8-12.7
		c4.2-2.7,4.1-6.3-0.1-9.1c-6.7-4.3-13.5-8.5-20.4-12.5c-4.5-2.6-7.2-0.9-7.4,4.4C556.4,598.2,556.5,602.4,556.5,606.5z
		 M443.5,536.2C443.5,536.2,443.5,536.2,443.5,536.2c0,4.2-0.2,8.3,0.1,12.5c0.3,4.4,3.1,6,6.9,3.8c6.6-3.7,13.2-7.7,19.5-11.9
		c3.7-2.5,3.6-6-0.1-8.5c-6.2-4.1-12.6-8-19.1-11.7c-4.1-2.3-6.8-0.8-7.2,3.9C443.2,528.2,443.5,532.2,443.5,536.2z"/>
	<path class="st0" d="M535.5,248.7c-23.3,0-46.6,0-70,0c-9,0-12.4-3.4-12.4-12.3c0-46.8,0-93.6,0-140.4c0-8.9,3.4-12.4,12.4-12.4
		c46.8,0,93.6,0,140.4,0c8.6,0,12.3,3.5,12.3,12.1c0.1,47,0.1,93.9,0,140.9c0,8.6-3.6,12.1-12.3,12.1
		C582.5,248.7,559,248.7,535.5,248.7z M576.1,166.3c0-10,0-20,0-30c0-7.3-3.4-10.7-10.7-10.7c-19.8,0-39.7,0-59.5,0
		c-7.4,0-10.6,3.2-10.7,10.7c-0.1,19.8-0.1,39.7,0,59.5c0,7.5,3.2,10.6,10.7,10.7c19.8,0.1,39.7,0.1,59.5,0
		c7.4,0,10.7-3.3,10.7-10.7C576.1,186,576.1,176.2,576.1,166.3z"/>
	<path class="st0" d="M166,453.1c23.5,0,47,0,70.5,0c8.7,0,12.2,3.5,12.2,12c0,47,0,93.9,0,140.9c0,8.6-3.5,12.1-12.2,12.1
		c-47,0-93.9,0-140.9,0c-8.3,0-12-3.6-12-11.9c0-47.1,0-94.3,0-141.4c0-8.3,3.7-11.8,12-11.8C119,453.1,142.5,453.1,166,453.1z
		 M125.7,535.4c0,10,0,20,0,30c0,7.4,3.3,10.7,10.7,10.7c19.8,0,39.7,0,59.5,0c7.4,0,10.7-3.2,10.7-10.7c0.1-19.8,0.1-39.7,0-59.5
		c0-7.5-3.2-10.7-10.6-10.7c-19.8-0.1-39.7-0.1-59.5,0c-7.5,0-10.7,3.3-10.7,10.6C125.6,515.7,125.7,525.5,125.7,535.4z"/>
	<path class="st0" d="M166,248.7c-23.3,0-46.6,0-70,0c-9,0-12.5-3.4-12.5-12.3c0-46.8,0-93.6,0-140.4c0-8.9,3.5-12.4,12.5-12.4
		c46.6,0,93.3,0,139.9,0c9.4,0,12.7,3.4,12.7,12.6c0,46.6,0,93.3,0,139.9c0,9.3-3.4,12.6-12.7,12.6
		C212.7,248.7,189.3,248.7,166,248.7z M166.4,125.7c-10,0-20,0-30,0c-7.4,0-10.7,3.3-10.7,10.7c0,19.8,0,39.7,0,59.5
		c0,7.4,3.2,10.7,10.7,10.7c19.8,0.1,39.7,0.1,59.5,0c7.5,0,10.7-3.2,10.7-10.6c0.1-19.8,0.1-39.7,0-59.5c0-7.5-3.3-10.7-10.6-10.7
		C186,125.6,176.2,125.7,166.4,125.7z"/>
</g>
</svg>
