<?xml version="1.0" encoding="utf-8"?>
<!-- Generator: Adobe Illustrator 22.1.0, SVG Export Plug-In . SVG Version: 6.00 Build 0)  -->
<svg version="1.1" id="Слой_1" xmlns="http://www.w3.org/2000/svg" xmlns:xlink="http://www.w3.org/1999/xlink" x="0px" y="0px"
	 viewBox="0 0 779.2 779.2" style="enable-background:new 0 0 779.2 779.2;" xml:space="preserve">
<style type="text/css">
	.st0{fill:#FFFFFF;}
</style>
<g>
	<path class="st0" d="M705,560.2c-16.3-0.9-32.6-1.7-48.9-2.7c-3.6-0.2-5.6,0.9-7.8,3.8c-10.2,13.4-20.6,26.6-31.2,39.6
		c-1.9,2.3-2.6,4.1-1.7,7c6.9,22.6,13.6,45.3,20.4,67.9c3.9,12.9,0.5,21.1-11.1,27.6c-29.9,16.8-59.8,33.6-89.7,50.4
		c-10.8,6.1-19.7,4.8-28.1-4.5c-15.9-17.5-31.8-35-47.6-52.7c-2.5-2.8-4.9-3.4-8.6-2.9c-16.3,2.3-32.7,4.2-49,5.9
		c-3.4,0.4-5.3,1.3-7,4.4c-11.2,21.2-22.7,42.3-34.1,63.4c-5.3,9.9-13.9,13.8-24.7,10.8c-34.5-9.6-68.9-19.2-103.3-29
		c-9.7-2.8-15.1-10.7-14.6-21.2c1.2-24,2.4-47.9,3.8-71.9c0.2-3.7-0.7-5.9-3.8-8.2c-13.4-10.1-26.6-20.6-39.7-31.1
		c-2.2-1.8-4-2.2-6.7-1.4c-22.8,6.9-45.6,13.7-68.4,20.6c-12.5,3.7-20.9,0.3-27.3-11c-16.9-30.1-33.8-60.1-50.7-90.2
		c-5.9-10.6-4.6-19.6,4.4-27.8c17.5-15.9,35-31.8,52.6-47.6c2.8-2.5,3.4-4.7,2.9-8.6c-2.4-16.3-4.3-32.7-6-49
		c-0.4-3.9-1.6-5.8-5-7.6c-21-11.1-42-22.5-62.9-33.8c-9.4-5.1-13.4-13.7-10.5-24c9.6-34.8,19.4-69.6,29.3-104.3
		c2.5-8.8,10.4-14.5,19.6-14.2c24,1,47.9,2.2,71.9,3.6c4.2,0.2,6.7-0.7,9.4-4.4c10-13.5,20.5-26.6,31.2-39.6c2-2.5,2.1-4.4,1.3-7.2
		c-6.7-22.3-13.4-44.6-20-67c-3.9-13-0.6-21,11.1-27.6c30.2-17,60.4-34,90.6-51c10-5.6,18.9-4.2,26.9,4.5
		c15.8,17.2,31.4,34.5,47,51.9c2.8,3.1,5.4,3.8,9.5,3.2c15.5-2.2,31-4.2,46.6-5.6c5.3-0.5,8.5-1.7,11.2-6.9
		C396.8,51.4,408,31.3,419,11.2c5.2-9.5,14-13.2,25.1-10.1c31,8.6,61.8,17.4,92.8,26.1c3.4,0.9,6.8,1.8,10.1,2.8
		c8.9,2.8,14.6,10.2,14.3,19.5c-0.9,24.1-2.1,48.3-3.4,72.4c-0.2,3.8,0.7,5.9,3.8,8.3c13.5,10.3,26.8,20.8,40,31.5
		c2.5,2,4.6,2.5,7.7,1.6c22.3-6.8,44.6-13.3,67-20c12.5-3.7,20.7-0.3,27.2,11.1c17,30.2,34,60.4,51,90.6c5.5,9.8,4.3,18.9-4.1,26.6
		c-17.6,16.1-35.2,32.1-53,48c-2.9,2.6-3.3,5-2.8,8.6c2.2,16.6,4.1,33.3,5.9,50c0.3,3,1.1,4.8,3.8,6.3c20.6,11,41,22.1,61.6,33.2
		c12.1,6.5,15.8,14.5,12.1,27.6c-9.4,33.7-18.9,67.3-28.4,100.9c-2.8,9.8-10.2,15.3-20.4,15C721,560.9,713,560.5,705,560.2
		C705,560.1,705,560.1,705,560.2z M186.5,104.6c0.2,0.9,0.3,1.6,0.5,2.2c6.5,22,13,44.1,19.6,66.1c2.7,9,1,16.6-5.8,23.3
		c-16.6,16.3-31.1,34.3-42.8,54.5c-5.4,9.4-13.2,13.1-24.1,12.4c-21.3-1.5-42.6-2.3-63.8-3.6c-4.1-0.3-5.8,1-6.9,5
		c-5.7,21-11.7,42-17.8,62.9c-1.1,3.6-0.3,5.2,2.9,7c19.6,10.4,38.9,21.2,58.5,31.5c9,4.7,12.9,11.7,12.7,21.8
		c-0.4,22.8,2.5,45.2,8.4,67.2c2.7,10.2,0.5,18.1-7.4,25.1c-16.5,14.6-32.6,29.5-49,44.1c-2.9,2.6-3.2,4.6-1.3,8
		c11,19.2,21.8,38.6,32.5,58c1.6,3,3.4,2.8,6,2c21.5-6.5,43.1-12.8,64.6-19.3c9.4-2.9,17.1-0.9,24.1,6.2
		c15.5,15.8,32.5,29.8,51.7,40.7c11.2,6.4,15.1,15.1,14,27.7c-1.8,20.6-2.4,41.2-3.7,61.8c-0.3,4.2,0.9,6.1,5.2,7.2
		c20.9,5.6,41.7,11.6,62.5,17.7c3.7,1.1,5.5,0.4,7.4-3c10.2-19.3,21-38.3,30.9-57.7c5.2-10.1,12.8-14.2,23.7-13.9
		c22.4,0.5,44.5-2.4,66.2-8.1c9.7-2.5,17.5-0.3,24.2,7.3c14.7,16.6,29.7,32.9,44.4,49.4c2.6,2.9,4.6,3.2,8,1.3
		c18.8-10.7,37.7-21.4,56.7-31.8c3.7-2,4.3-3.8,3.1-7.7c-6.6-21.3-12.8-42.7-19.2-64.1c-2.7-9-0.7-16.5,6.1-23.2
		c16.5-16,30.8-33.7,42.3-53.6c5.6-9.6,13.4-13.3,24.5-12.5c21.1,1.6,42.2,2.3,63.3,3.6c4.4,0.3,6.4-0.9,7.6-5.4
		c5.6-20.9,11.5-41.7,17.6-62.5c1.1-3.6,0.3-5.3-2.9-7c-19.1-10.2-38-20.8-57.2-30.8c-10-5.2-14.2-12.7-13.9-23.7
		c0.7-22.6-2.3-44.8-8-66.7c-2.6-10-0.3-17.8,7.4-24.6c16.3-14.5,32.4-29.3,48.7-43.8c2.9-2.6,3.1-4.7,1.2-8
		c-10.7-18.8-21.4-37.7-31.8-56.7c-2-3.7-3.8-4.3-7.7-3.1c-21.2,6.5-42.4,12.7-63.6,19c-8.2,2.5-15.6,1.2-21.7-5
		c-16.8-17.3-35.5-32.3-56.3-44.5c-8.8-5.2-12.3-12.7-11.6-23c1.4-21.4,2.2-42.9,3.5-64.3c0.2-3.8-0.9-5.5-4.7-6.6
		c-21-5.7-42-11.7-62.9-17.8c-3.8-1.1-5.5-0.3-7.4,3.1c-10.7,20-21.6,39.8-32.4,59.7c-3.8,6.9-9.6,10.6-17.4,10.5
		c-24.1-0.2-47.8,2.2-71.1,8.5c-10.2,2.7-18.1,0.2-25-7.7c-14.2-16.1-28.8-31.9-43.2-47.9c-2.7-3-4.8-3.7-8.4-1.5
		c-10.9,6.4-22.1,12.4-33.1,18.6C204.9,93.9,195.7,99.2,186.5,104.6z"/>
	<path class="st0" d="M216.6,390c0.6,85.1,62.6,157.2,146.9,170c94.3,14.4,182.3-50.1,196.6-144c5.7-37.4,0-73-17.8-106.5
		c-3.3-6.2-5.8-12.4-4.1-19.5c1.9-8,8.3-13.6,16.9-14.9c7.8-1.2,16.4,3,20.5,10.5c9.8,17.7,17.1,36.4,21.7,56.2
		c26.8,114.8-45.7,231.3-161.1,255.4c-88.3,18.4-161.4-9.3-217.2-80c-26.4-33.5-40.2-72.7-42.1-115.5
		c-2.9-62.6,17.4-117.1,61.2-161.9C271,206,311.4,186,358,178.7c29-4.6,57.6-2.2,86.1,4.6c13,3.1,20,15.1,17.3,25.3
		c-3.2,12-13.9,17.7-27.6,14.1c-33.5-8.7-66.9-8.4-99.4,3.4c-64.4,23.5-103,69.3-115.1,137C217.8,372,217.5,381.1,216.6,390z"/>
	<path class="st0" d="M389.5,480.3c-50,0-90.6-40.7-90.6-90.6c0-50.3,40.7-90.9,90.9-90.9c50.1,0.1,90.7,40.9,90.6,91.2
		C480.3,439.9,439.6,480.3,389.5,480.3z M389.3,439.8c27.3,0.2,50.2-22.3,50.6-49.6c0.3-27.5-22.4-50.7-49.9-50.8
		c-27.5-0.2-50.4,22.6-50.5,50.1C339.3,416.7,362,439.6,389.3,439.8z"/>
</g>
</svg>
