<?xml version="1.0" encoding="utf-8"?>
<!-- Generator: Adobe Illustrator 22.1.0, SVG Export Plug-In . SVG Version: 6.00 Build 0)  -->
<svg version="1.1" id="Слой_1" xmlns="http://www.w3.org/2000/svg" xmlns:xlink="http://www.w3.org/1999/xlink" x="0px" y="0px"
	 viewBox="0 0 534.3 368.9" style="enable-background:new 0 0 534.3 368.9;" xml:space="preserve">
<style type="text/css">
	.st0{fill:#FFFFFF;}
</style>
<g>
	<path class="st0" d="M534.3,183.6c0.5,101-81.3,184.7-181.1,185.3c-103.7,0.6-188.4-81.8-188.4-183.4C164.8,84,247.3,0.4,348,0
		C451.3-0.5,533.7,80.8,534.3,183.6z M351,30.4c-84.5-0.8-154.6,67.1-155.4,150.5c-0.8,87.4,65.5,156.2,151.7,157.4
		c86.9,1.2,157.6-67.7,157.6-153.7C504.9,99.9,436.4,31.3,351,30.4z"/>
	<path class="st0" d="M162.8,184.6c0,37.6,0.1,75.3,0,112.9c-0.1,20.5-4.6,25.1-24.9,25.3c-13.6,0.1-27.3-0.1-40.9,0.1
		c-13.1,0.2-20.8-5.2-24.8-18.5c-23-77.1-46.8-154-70.1-231c-5.6-18.6,0.7-27.2,20-27.3c39.3-0.2,78.6-0.2,117.8,0
		c17.8,0.1,22.8,5.5,22.9,23.9C162.9,108.2,162.8,146.4,162.8,184.6z M35.9,77.7c1.2,5.1,1.9,9.3,3.1,13.4
		c18,59.3,36,118.6,54,177.9c8,26.2,10.2,27.4,37.8,20.6c0-70.4,0-140.8,0-211.9C98.7,77.7,67.8,77.7,35.9,77.7z"/>
	<path class="st0" d="M350.9,104.2c43.7,0.3,80.8,37.5,80.1,80.4c-0.7,44.8-36.8,80-82,80c-44,0-79.6-35.9-79.6-80.3
		C269.4,139.5,305.6,103.9,350.9,104.2z M300.1,182.5c-0.6,29.3,20,51.3,48.8,52.4c26.7,1,50.5-21.5,51.5-48.6
		c1-27.5-22.1-52.3-49.4-52.8C323.9,132.9,300.7,155.2,300.1,182.5z"/>
</g>
</svg>
