<?xml version="1.0" encoding="utf-8"?>
<!-- Generator: Adobe Illustrator 22.1.0, SVG Export Plug-In . SVG Version: 6.00 Build 0)  -->
<svg version="1.1" id="Слой_1" xmlns="http://www.w3.org/2000/svg" xmlns:xlink="http://www.w3.org/1999/xlink" x="0px" y="0px"
	 viewBox="0 0 451.1 665.9" style="enable-background:new 0 0 451.1 665.9;" xml:space="preserve">
<style type="text/css">
	.st0{fill:#FFFFFF;}
</style>
<g>
	<path class="st0" d="M382.5,225.3c0,23.2,0,46.3,0,69.5c0,73.4-52.3,138.1-124.3,152.5c-54,10.8-102-2.6-141.9-40.8
		c-31.4-30.1-47.5-67.5-47.7-111.2c-0.3-46.7-0.1-93.3-0.1-140C68.6,79.9,124.8,14,199.2,2.1c91.2-14.6,173.9,48.5,182.5,139.8
		c1.7,18.2,0.6,36.6,0.8,54.9C382.6,206.3,382.5,215.8,382.5,225.3z M108.8,284.5c0,5-0.2,9.4,0,13.6c2.6,42.6,21.8,75.7,58.9,96.7
		c39.1,22.2,79.4,21.9,117.9-1.4c38.8-23.4,57.2-59.1,56.7-104.5c0-3.5-1.2-4.6-4.6-4.5c-11,0.2-22,0.1-33,0c-2,0-4-0.1-5.9-0.6
		c-10-2.7-16-11.6-14.9-21.9c1-9.7,9.1-17.4,19.3-17.6c11.3-0.3,22.7-0.3,34-0.1c3.8,0.1,5.4-0.8,5.2-4.9c-0.3-9.3-0.3-18.7,0-28
		c0.1-4.1-1.5-5-5.3-5c-10.7,0.2-21.3,0.1-32,0c-12.4-0.1-21.4-8.7-21.4-20.3c0-11.6,8.9-20,21.5-20.1c10.8-0.1,21.7-0.1,32.5,0
		c3.5,0.1,4.9-1.2,4.6-4.6c-0.8-9.6-0.7-19.4-2.6-28.8c-11.8-59.1-69.4-99.5-128.9-91.8C155.7,48,107.5,95,108.3,161.5
		c0,3.5,1.1,4.6,4.6,4.6c11-0.2,22-0.1,33,0c12.7,0.1,21.4,8.3,21.4,20.1c0,11.7-8.8,20.2-21.3,20.3c-10.7,0.1-21.3,0-32,0
		c-1.8,0-3.5,0.2-5.3,0.3c0,12.7,0,24.7,0,37.4c2.1,0,3.8,0,5.6,0c10.5,0,21-0.1,31.5,0c12.9,0.1,21.7,8.5,21.5,20.5
		c-0.1,11.6-9.1,19.8-21.7,19.8C133.4,284.5,121.3,284.5,108.8,284.5z"/>
	<path class="st0" d="M205.3,625.5c0.1-2.5,0.3-4.4,0.3-6.4c0-18.5-0.2-37,0.2-55.5c0.1-5.2-1.9-6.5-6.4-6.9
		c-37.9-4-72.6-17.1-103.5-39.3C44,480.1,12.4,430,2.8,366.5C1.1,355.9,0.3,345,0,334.2c-0.4-12.6,8.3-21.3,20.1-21.3
		c11.9,0,20,8.6,20.2,21.3C41.4,420.7,100.2,494,184,513.5c110.7,25.7,218.9-54.7,226.2-168.1c0.3-4,0.4-8,0.5-12
		c0.3-12,8.5-20.4,20-20.5c11.7-0.1,20.5,8.5,20.4,20.6c-0.3,27.4-4.5,54.1-14.8,79.6c-28.7,71.2-80.1,117.3-154,137.9
		c-9.9,2.8-20.3,3.8-30.4,5.6c-2,0.4-3.9,0.7-6,1.1c-0.2,1.4-0.4,2.5-0.4,3.6c0,19.8,0.1,39.7-0.1,59.5c-0.1,4.5,2.2,4.7,5.5,4.7
		c38.7-0.1,77.3,0,116,0c3,0,6,0.1,9,0.6c7.9,1.5,13.2,6.3,15.6,13.9c2.4,7.4,0.9,14.6-4.9,19.7c-3.4,3-8.4,4.2-12.7,6.1
		c-1,0.4-2.3,0.1-3.5,0.1c-96.7,0-193.3,0-290,0c-13.2,0-22.1-8.6-21.7-20.8c0.3-9.2,7.2-17.3,16.3-19c2.9-0.5,6-0.6,9-0.6
		c38.2,0,76.3,0,114.5,0C200.5,625.5,202.7,625.5,205.3,625.5z"/>
</g>
</svg>
