<?xml version="1.0" encoding="utf-8"?>
<!-- Generator: Adobe Illustrator 22.1.0, SVG Export Plug-In . SVG Version: 6.00 Build 0)  -->
<svg version="1.1" id="Слой_1" xmlns="http://www.w3.org/2000/svg" xmlns:xlink="http://www.w3.org/1999/xlink" x="0px" y="0px"
	 viewBox="0 0 683 683" style="enable-background:new 0 0 683 683;" xml:space="preserve">
<style type="text/css">
	.st0{fill:#FFFFFF;}
</style>
<g>
	<path class="st0" d="M683,341.8c-1.4,195.7-162.3,346.4-351,341.1C145.6,677.6-3.5,523.3,0.1,334.9C3.6,145.4,161.7-4.8,350,0.1
		C536,4.9,682.7,158,683,341.8z M491.1,486.5c29,14.3,56,31.9,82.1,52c43.3-51.9,67.1-110.9,72-178.2c-2-0.2-3.3-0.4-4.6-0.4
		c-38.5,0-76.9,0-115.4-0.1c-4.1,0-5,1.5-5.3,5.2c-2.2,27.6-6.6,54.8-15.1,81.2C500.7,459.4,495.9,472.6,491.1,486.5z M572.7,144.6
		c-1,0.6-1.9,1.1-2.7,1.7c-23.1,17.9-47.4,33.8-73.6,46.9c-4.5,2.2-4.4,4.6-2.8,8.6c14.9,36.9,23.4,75.2,26.3,114.8
		c0.4,5.1,2.2,6.3,6.9,6.2c38-0.2,76-0.1,114-0.1c1.3,0,2.6-0.2,3.8-0.3C648.9,277.5,608.3,177.1,572.7,144.6z M37.6,360.1
		C42.4,427.2,66,486,108.8,537.6c25.5-21.6,52.8-39,81.8-53.4c-0.3-1.1-0.3-1.6-0.5-2.1c-1.2-3.3-2.5-6.5-3.7-9.8
		c-13.1-34.4-21.4-69.9-23.5-106.7c-0.3-4.4-1.7-5.9-6.3-5.9c-38,0.2-75.9,0.1-113.9,0.1C41.3,359.8,39.8,360,37.6,360.1z
		 M37.6,322.3c1.1,0.2,1.6,0.4,2.1,0.4c39.1,0,78.3-0.1,117.4,0.1c4.8,0,5.4-2.6,5.6-6.2c2-32.4,8.3-63.9,18.8-94.6
		c2.7-7.8,5.4-15.7,8.2-23.9C161,183.5,134,166.2,109,145.1C66,196.8,42.4,255.5,37.6,322.3z M483.1,360.4c-1.5-0.3-1.9-0.5-2.4-0.5
		c-39,0-78,0-117-0.1c-3.6,0-4.1,1.9-4.1,4.7c0,27,0,54,0,81c0,3.4,1.2,4.5,4.6,4.8c21.3,1.6,42.2,5.6,62.7,11.4
		c9.9,2.8,19.5,6.2,29.6,9.5C471.7,435.7,480.5,398.9,483.1,360.4z M457.6,211.2c-1.1,0.2-1.6,0.2-2,0.4
		c-29.4,10.7-59.5,18.2-90.7,20.6c-4,0.3-5.3,1.8-5.2,5.8c0.2,26,0.1,52,0.1,78c0,6.6,0,6.7,6.6,6.7c36.6,0,73.3,0,109.9,0
		c7.2,0,7.3,0,6.7-7.2c-2.7-29.1-8.7-57.5-18.2-85.2C462.5,223.8,459.9,217.5,457.6,211.2z M225.2,469.5c30.8-11.1,62-17.7,94-19.9
		c3.7-0.3,3.6-2.5,3.6-5.2c0-26.3-0.1-52.6,0.1-79c0-4.8-1.5-5.8-6-5.8c-37.3,0.2-74.6,0.1-111.9,0.1c-1.7,0-3.5,0.2-5.6,0.3
		C202,398.2,210.4,434.3,225.2,469.5z M199.4,322.3c1.5,0.2,2.3,0.4,3.1,0.4c38.5,0,76.9,0,115.4,0c3.9,0,5.1-1.3,5.1-5.2
		c-0.2-26.6-0.1-53.3-0.1-79.9c0-1.4-0.2-2.9-0.4-4.6c-33.9-1.5-66.2-9-98-20.2C210.3,248.3,201.8,284.4,199.4,322.3z M134.3,564.3
		c46.4,42.3,99.9,68.5,161.3,78c-16.2-20.1-33.1-39.5-48.1-60.2c-15-20.7-28-42.8-42.2-64.5C180.3,529.8,156.6,545.4,134.3,564.3z
		 M386.7,641.9c61.3-9,114.4-34.7,160.6-76.5c-23.2-17.6-46.8-33.1-72.7-45.7C450.7,564.8,420.5,604.6,386.7,641.9z M291.3,41
		C231,51.8,179.1,77.4,134.4,118.5c21.7,18.8,45,34.1,70.3,46.8C227.6,119.7,256.5,78.8,291.3,41z M393.2,42.1
		c32.6,36.7,60.7,76.3,83.1,120c25.4-12.7,48.6-27.7,70.8-44.9C502.7,77.1,451.8,51.9,393.2,42.1z M322.8,61.8
		c-33.7,36.4-61.6,74.9-83.4,118c1.1,0.6,1.7,1.1,2.3,1.3c24.4,8.2,49.3,13.6,75,15.4c4.8,0.3,6.2-1.1,6.2-5.9
		c-0.2-41-0.1-81.9-0.1-122.9C322.8,66.1,322.8,64.6,322.8,61.8z M359.7,61.8c0,44.4,0,87.4,0,130.3c0,3,0.9,4.2,4.2,3.6
		c14.9-2.7,29.9-4.7,44.6-8c11.2-2.5,22.1-6.6,33.6-10.2C419.9,134.8,392.6,97.1,359.7,61.8z M241.1,503.1
		c21.8,41.3,49.4,77.7,81.4,112.2c0.2-1.9,0.3-2.7,0.3-3.5c0-40.3,0-80.6,0.1-121c0-4.2-2-4.5-5.3-4.3c-24.4,1.4-48.1,6.7-71.3,14.2
		C244.7,501.3,243.1,502.2,241.1,503.1z M440.3,505.3c-0.7-0.6-0.9-0.9-1.2-1c-24.1-9-49-14.6-74.6-17.4c-3.9-0.4-4.9,1-4.9,4.6
		c0.1,39.8,0.1,79.6,0.1,119.3c0,1.2,0.3,2.3,0.5,4.3C391.6,581.3,418.7,545.5,440.3,505.3z"/>
</g>
</svg>
