<?xml version="1.0" encoding="utf-8"?>
<!-- Generator: Adobe Illustrator 22.1.0, SVG Export Plug-In . SVG Version: 6.00 Build 0)  -->
<svg version="1.1" id="Слой_1" xmlns="http://www.w3.org/2000/svg" xmlns:xlink="http://www.w3.org/1999/xlink" x="0px" y="0px"
	 viewBox="0 0 597.3 444.1" style="enable-background:new 0 0 597.3 444.1;" xml:space="preserve">
<g>
	<path d="M228.2,162.7c49.3,0,98,0,147.6,0c-3.3-7.9-6.3-15.3-9.4-22.5c-16.7-39-33.4-78.1-50-117.1c-4-9.4-1-17.8,7.8-21.6
		c8-3.5,16.3,0.1,20.2,9.2c16.5,38.2,32.8,76.5,49.1,114.8c4.8,11.3,9.7,22.6,14.3,34.1c1.5,3.6,4.2,3.7,7.3,3.6
		c43.2,0,86.3,0,129.5,0c12.2,0,24.3-0.1,36.5,0.1c6.7,0.1,11.8,3,14.7,9.4c2.5,5.6,1.7,10.8-1.9,15.5c-3.3,4.5-8.2,6.3-13.6,6.2
		c-3.6-0.1-4.9,1.5-5.7,4.7c-10,39.9-20,79.7-30.2,119.5c-8.7,34.2-17.5,68.3-26.2,102.5c-1,4-1.9,8.1-3.1,12.1
		c-1.9,6.1-6.2,9.7-12.6,10.6c-2.8,0.4-5.6,0.5-8.5,0.5c-129.1,0-258.3,0-387.4,0c-2.7,0-5.3-0.1-8-0.5C92,443,87.5,439.5,85.7,433
		c-5.6-20.9-11.1-41.8-16.6-62.7c-7.7-29.3-15.3-58.6-22.9-87.9c-6.9-26.4-13.6-52.8-20.6-79.2c-2.6-9.9-1.9-8.7-10.1-9
		c-9.5-0.3-15.9-7.5-15.6-16.1c0.4-8.7,7.4-14.9,17.4-14.9c56.8,0,113.6-0.1,170.5,0.1c4.6,0,7-1.3,8.9-5.8
		c20.7-48.9,41.6-97.7,62.5-146.5c3-7.1,9.4-11.4,15.8-10.8c6.9,0.7,13,6.1,13.9,13c0.4,3-0.1,6.4-1.3,9.2
		c-19.2,45.4-38.7,90.6-58,135.9C229.1,159.5,228.8,160.9,228.2,162.7z M543.9,194.3c-3.1,0-5.4,0-7.7,0c-157.5,0-315,0-472.5,0
		c-1.7,0-3.3,0-5,0.1c-2.7,0.1-3.4,1.4-2.7,4c3.9,14.5,7.8,28.9,11.4,43.4c0.9,3.6,2.5,4.5,6.2,4.5c134.3-0.1,268.6-0.1,403-0.1
		c2.8,0,5.7,0.1,8.5,0.6c11.3,1.9,16.6,14.5,10,23.8c-3.8,5.4-9.4,6.8-15.8,6.8c-131.8-0.1-263.6,0-395.5,0c-2.1,0-4.1,0-6.8,0
		c0.6,2.7,0.9,4.5,1.4,6.2c3.4,13,6.9,26.1,10.1,39.1c1.8,7.1,1.6,7.1,8.7,7.1c120.5,0,241,0,361.5,0c1.7,0,3.3,0,5,0
		c11,0.4,17.9,11.4,13.4,21.4c-3.3,7.2-9.3,9.2-16.7,9.2c-118.3-0.1-236.6,0-355,0c-2.1,0-4.1,0-6.6,0c0.6,2.9,0.9,4.9,1.4,6.8
		c3.3,12.9,6.8,25.7,10.1,38.6c1.8,7.1,1.8,7.1,9.3,7.1c99.7,0,199.3,0,299,0c21.7,0,43.3-0.1,65,0.1c3.6,0,5.4-1,6.3-4.7
		c8.3-33.1,16.7-66.1,25.1-99.2c8.1-31.9,16.3-63.8,24.4-95.8C540.9,207.4,542.2,201.3,543.9,194.3z"/>
</g>
</svg>
