<?xml version="1.0" encoding="utf-8"?>
<!-- Generator: Adobe Illustrator 22.1.0, SVG Export Plug-In . SVG Version: 6.00 Build 0)  -->
<svg version="1.1" id="Слой_1" xmlns="http://www.w3.org/2000/svg" xmlns:xlink="http://www.w3.org/1999/xlink" x="0px" y="0px"
	 viewBox="0 0 384 377.5" style="enable-background:new 0 0 384 377.5;" xml:space="preserve">
<style type="text/css">
	.st0{fill:#FFFFFF;}
</style>
<g>
	<path class="st0" d="M20.2,0C9,0,0,9.1,0,20.3c0,11.1,9.1,20.2,20.3,20.2c11.1,0,20.2-9.2,20.2-20.3C40.4,9,31.3,0,20.2,0z
		 M0,132.5c-0.1,11.2,8.9,20.4,20,20.5c11.2,0.1,20.4-8.9,20.5-20c0.1-11.2-8.9-20.4-20-20.5C9.3,112.4,0.1,121.4,0,132.5z
		 M40.5,245.2c0-11.1-9.1-20.2-20.3-20.2C9,225,0,234.1,0,245.3c0,11.1,9.2,20.2,20.3,20.2C31.4,265.4,40.5,256.3,40.5,245.2z"/>
	<path d="M384,23.2c-3,9-9.4,12.1-18.7,12.1c-85.1-0.2-170.2-0.1-255.3-0.1c-8.8,0-14.7-4.3-16.3-11.9C91.6,14.6,97.9,6,106.9,5.3
		c1.5-0.1,3-0.1,4.5-0.1c84.6,0,169.2,0.1,253.8-0.1c9.3,0,15.7,3.1,18.7,12.1C384,19.2,384,21.2,384,23.2z"/>
	<path d="M384,135.7c-3,9-9.4,12.1-18.7,12.1c-85.1-0.2-170.2-0.1-255.3-0.1c-8.8,0-14.7-4.3-16.3-11.9c-1.9-8.8,4.4-17.3,13.4-18.1
		c1.5-0.1,3-0.1,4.5-0.1c84.6,0,169.2,0.1,253.8-0.1c9.3,0,15.7,3.1,18.7,12.1C384,131.7,384,133.7,384,135.7z"/>
	<path d="M384,248.2c-3,9-9.4,12.1-18.7,12.1c-85.1-0.2-170.2-0.1-255.3-0.1c-8.8,0-14.7-4.3-16.3-11.9c-1.9-8.8,4.4-17.3,13.4-18.1
		c1.5-0.1,3-0.1,4.5-0.1c84.6,0,169.2,0.1,253.8-0.1c9.3,0,15.7,3.1,18.7,12.1C384,244.2,384,246.2,384,248.2z"/>
	<path d="M20.2,0c11.2,0,20.3,9,20.3,20.2c0,11.2-9,20.3-20.2,20.3C9.1,40.5,0,31.4,0,20.3C0,9.1,9,0,20.2,0z"/>
	<path d="M0,132.5c0.1-11.1,9.3-20.1,20.5-20c11.1,0.1,20.1,9.3,20,20.5c-0.1,11.1-9.3,20.1-20.5,20C8.9,152.9-0.1,143.7,0,132.5z"
		/>
	<path d="M40.5,245.2c0,11.2-9,20.3-20.2,20.3c-11.2,0-20.3-9-20.3-20.2C0,234.1,9,225,20.2,225C31.3,225,40.4,234,40.5,245.2z"/>
	<path class="st0" d="M40.5,357.2c0-11.1-9.1-20.2-20.3-20.2C9,337,0,346.1,0,357.3c0,11.1,9.2,20.2,20.3,20.2
		C31.4,377.4,40.5,368.3,40.5,357.2z"/>
	<path d="M384,360.2c-3,9-9.4,12.1-18.7,12.1c-85.1-0.2-170.2-0.1-255.3-0.1c-8.8,0-14.7-4.3-16.3-11.9c-1.9-8.8,4.4-17.3,13.4-18.1
		c1.5-0.1,3-0.1,4.5-0.1c84.6,0,169.2,0.1,253.8-0.1c9.3,0,15.7,3.1,18.7,12.1C384,356.2,384,358.2,384,360.2z"/>
	<path d="M40.5,357.2c0,11.2-9,20.3-20.2,20.3c-11.2,0-20.3-9-20.3-20.2C0,346.1,9,337,20.2,337C31.3,337,40.4,346,40.5,357.2z"/>
</g>
</svg>
