<?xml version="1.0" encoding="utf-8"?>
<!-- Generator: Adobe Illustrator 22.1.0, SVG Export Plug-In . SVG Version: 6.00 Build 0)  -->
<svg version="1.1" id="Слой_1" xmlns="http://www.w3.org/2000/svg" xmlns:xlink="http://www.w3.org/1999/xlink" x="0px" y="0px"
	 viewBox="0 0 825.7 715.8" style="enable-background:new 0 0 825.7 715.8;" xml:space="preserve">
<style type="text/css">
	.st0{fill:#FFFFFF;}
</style>
<g>
	<path class="st0" d="M600.8,508c-2-2.1-4-4.2-6-6.2c-80.8,56.6-180,37.1-232-8.4c-73.3-64.2-87.5-142.6-53.9-232.3
		c-77.8,0-156.3,0-235.3,0c0.4,1.9,0.6,3.5,1,5c5.2,20.1,10.7,40.2,15.6,60.4c1.3,5.2,3.6,6.3,8.5,6.3c51-0.2,102-0.2,153,0
		c4.1,0,8.4,0.7,12.1,2.3c8.4,3.7,12.6,12.6,11,21.5c-1.4,8-9,15.2-17.5,16.2c-2.6,0.3-5.3,0.3-8,0.3c-46.5,0-93,0-139.5,0
		c-2.1,0-4.2,0.2-6.7,0.3c0.3,1.8,0.4,3.1,0.7,4.3c5.4,20.9,11,41.9,16.2,62.8c1,3.8,2.7,4.8,6.5,4.8c55.5-0.1,111-0.1,166.5-0.1
		c10.6,0,18.1,5,20.9,13.8c4,12.5-4.7,25.2-18.2,26.4c-1.8,0.2-3.7,0.1-5.5,0.1c-50.3,0-100.7,0-151,0c-2.1,0-4.3,0-6.9,0
		c0.3,1.8,0.4,3.1,0.7,4.3c5.5,21.1,11.1,42.2,16.3,63.3c1.1,4.6,3.7,4.9,7.6,4.9c139.3-0.1,278.7,0,418-0.2c5.7,0,9.5,1.7,13.2,6
		c7.4,8.8,15.4,17.1,23.1,25.6c2.2,2.4,4.3,4.9,7.3,8.3c-2.8,0.3-4.5,0.6-6.2,0.6c-158,0-316,0-474,0c-13.4,0-20.2-5.1-23.3-17.3
		c-19.6-75-39.2-150.1-58.8-225.1c-7.9-30.1-15.7-60.2-23.4-90.4c-1.1-4.3-3.1-5.6-7.2-5.3c-2.8,0.2-5.7,0-8.5-0.4
		c-10-1.5-17.3-9.7-17.3-19.5c-0.1-9.4,7.5-18.3,17.2-19.9c2.9-0.5,6-0.5,9-0.5c75.2,0,150.3,0,225.5-0.1c13.5,0,10.2,1.2,15-10
		c28.1-65.5,56-131.1,84-196.7c4.6-10.9,14.4-15.7,25-12.7c11.6,3.3,17.2,15.8,12.1,28.3c-7.8,19.1-16.1,38.1-24.2,57
		c-18.2,42.7-36.5,85.4-54.8,128.2c-0.6,1.5-1.1,3.1-2.2,5.9c4.4,0,8.2-0.5,11.8,0.1c12.5,1.9,20.8-3.2,29.6-12.4
		c27.7-28.9,62.1-46.7,101.7-53.5c9.5-1.6,19.1-2.5,29.2-3.7c-0.4-1.2-0.9-2.7-1.5-4.2c-16.7-39-33.4-78.1-50.1-117.1
		c-4-9.4-2.3-18.4,4.3-24.3c10.4-9.2,26.7-5.8,32.2,7c19.7,45.9,39.4,91.8,58.9,137.8c1.7,4,3.9,5.9,8.1,6.9
		c38.8,9.6,71.5,29.5,97.8,59.7c3.5,4.1,7.6,3.6,11.7,3.6c47,0.1,94,0,141,0c2.3,0,4.7,0,7,0.2c8,1,13.5,5.4,16.3,12.9
		c2.8,7.4,1.4,14.1-3.5,20.1c-4.4,5.2-10.5,7.4-17,6.9c-5.6-0.4-7.2,2-8.5,6.9c-15.7,62.8-31.6,125.6-47.4,188.3
		c-3.4,13.6-6.7,27.1-10.1,40.7c-0.4,1.6-0.9,3.2-1.7,5.6c-1.8-1.6-3.3-2.7-4.6-4.1c-8.2-9-16.3-18.1-24.7-26.9
		c-2.9-3-3.5-5.8-2.5-9.8c9.6-37,19.1-74.1,28.5-111.2c7.1-27.9,14.1-55.8,21.1-83.8c0.4-1.6,0.6-3.2,1.1-5.3c-25.6,0-50.9,0-76.6,0
		c32.5,78.2,21.3,149.4-33.2,214.3c0.5,0.6,1.2,1.5,2,2.3c0.8,0.8,1.7,1.6,3.1,2.8c2.4-2.3,4.9-4.4,7.2-6.7
		c11.5-11.2,22.7-10.8,33.7,1c24.6,26.5,49.2,53,73.8,79.4c24.4,26.2,48.7,52.5,73.3,78.6c6.7,7.1,8.7,15.3,5.4,23.9
		c-3.1,8.1-7.3,16.2-12.6,23c-10,12.8-22.1,23.6-37,30.8c-4.3,2.1-9,3.6-13.6,4.7c-8.5,2-15.7-0.6-21.6-7
		c-17.5-19-35.2-37.8-52.8-56.7c-31.8-34.1-63.6-68.3-95.3-102.4c-9.9-10.6-9.6-21.4,0.6-31.6C594.7,514.4,597.6,511.4,600.8,508z
		 M483.8,496c80.4,1.2,151.9-64.5,152.8-150.7c0.9-84.3-67.9-154-152.4-153.7c-84.3,0.3-152.2,68-152.2,152.4
		C332.1,428.2,399.7,496,483.8,496z M761.4,672.5c6-5.6,11.5-10.8,17.1-16c2.9-2.7,2.9-4.7,0-7.7c-35-37.3-69.8-74.8-104.6-112.2
		c-6.7-7.2-13.4-14.3-20.4-21.8c-7.1,6.7-13.8,13.1-20.7,19.6C675.6,580.3,718,625.9,761.4,672.5z"/>
</g>
</svg>
