<?xml version="1.0" encoding="utf-8"?>
<!-- Generator: Adobe Illustrator 22.1.0, SVG Export Plug-In . SVG Version: 6.00 Build 0)  -->
<svg version="1.1" id="Слой_1" xmlns="http://www.w3.org/2000/svg" xmlns:xlink="http://www.w3.org/1999/xlink" x="0px" y="0px"
	 viewBox="0 0 746.5 683.8" style="enable-background:new 0 0 746.5 683.8;" xml:space="preserve">
<g>
	<path d="M508.6,155.4c-129.7,0-258.5,0-387.7,0c0,24.6,0,49,0,73.3c14.8,0,29.6,0,45.9,0c-5.6-5.7-10.2-10.3-14.9-15
		c-3.3-3.3-6.7-6.5-9.9-9.9c-7-7.5-6.9-18,0-24.6s17-6.4,24.2,0.8c17.7,17.6,35.4,35.3,53,53c7.6,7.7,7.5,17.6-0.2,25.3
		c-17.5,17.6-35.1,35.1-52.7,52.7c-7.3,7.3-17.8,7.6-24.6,0.9c-6.9-6.9-6.7-17.5,0.7-25c6.9-7,13.9-13.9,20.8-20.9
		c0.8-0.8,1.4-1.7,2.2-2.5c-15,0-29.7,0-44.7,0c0,129,0,257.2,0,385.8c129,0,258,0,387.7,0c0-2.3,0-4.4,0-6.5c0-60.3,0-120.7,0-181
		c0-11.2,6.9-18.6,17.1-18.6c8.8,0,15.9,6.5,16.8,15.3c0.2,1.7,0.1,3.3,0.1,5c0,66.7,0,133.3,0,200c0,14-6.2,20.2-20,20.2
		c-138.7,0-277.3-0.1-416,0.2c-12.8,0-20.3-8.5-20.3-20.4c0.2-126.8,0.1-253.6,0.1-380.5c0-2.1,0-4.3,0-6.4c-0.4-0.3-0.8-0.7-1.2-1
		c-6.4,4.9-13.2,9.4-19,14.8C25,328.9,22.6,392,60.4,433.9c5,5.5,7.4,11.4,4.9,18.7c-2.2,6.4-6.8,10.2-13.4,11.3
		c-6.1,1-11.2-1.1-15.3-5.5C14.9,435.1,2.2,407.7,0.1,376C-4,315.9,27.3,264.4,82.3,239.8c3.1-1.4,4.1-3,4.1-6.3
		c-0.1-30.5-0.1-61-0.1-91.5c0-14.8,6.1-20.8,21-20.8c138,0,276,0,414,0c15.2,0,21.1,5.9,21.1,21.1c0,58.8,0,117.7,0,176.5
		c0,10.1-5.7,17.3-14.5,18.6c-10.3,1.5-19.2-6.2-19.4-17.2c-0.2-10.5,0-21,0-31.5c0-42.2,0-84.3,0-126.5
		C508.6,160.1,508.6,158,508.6,155.4z"/>
	<path d="M629.3,528.5c0-40.4,0-79.8,0-118.8c-16.2,0-32,0-47.9,0c-0.2,0.5-0.4,0.9-0.5,1.4c1.9,2,3.7,4,5.6,5.9
		c5.8,5.8,11.6,11.5,17.3,17.3c7.4,7.6,7.6,18.1,0.6,25c-6.9,6.8-17.1,6.6-24.6-0.8c-17.8-17.6-35.5-35.2-53-53
		c-7.3-7.4-7.4-17.2-0.2-24.6c17.8-18,35.7-35.9,53.7-53.7c7.1-7,17.7-6.8,24.2-0.1c6.6,6.7,6.6,17-0.3,24.2
		c-7.7,8-15.8,15.7-23.8,23.7c16.6,0,32.6,0,48.8,0c0-114.2,0-227.3,0-340.7c-129.1,0-258,0-387.4,0c-0.1,1.9-0.2,3.7-0.2,5.4
		c0,12.8,0,25.7,0,38.5c0,10.2-6.7,17.5-16.3,17.8c-9.5,0.3-16.9-6.7-17.7-16.7c-0.1-1.2-0.1-2.3-0.1-3.5c0-18.5,0-37,0-55.5
		c0-13.8,6.4-20.3,20.1-20.3c57.3,0,114.7,0,172,0c81.3,0,162.7,0,244,0c10.6,0,17,4,19.2,12.4c0.7,2.8,0.7,5.9,0.7,8.9
		c0,110.7,0,221.3,0,332c0,2,0,4,0,7.1c2.5-1.5,4.4-2.6,6.2-3.9c49.6-35.9,57.1-105.7,16.2-151.4c-3.8-4.3-6.8-8.7-6.3-14.7
		c0.6-7.3,4.4-12.5,11.4-15s13.2-0.7,18.2,4.7c18.6,19.8,30.6,43.1,35.1,70c10.3,62.1-20.2,120-77.3,147.2c-3.4,1.6-3.5,3.8-3.5,6.7
		c0,45.8,0,91.7,0,137.5c0,15-6,21-20.8,21c-19,0-38,0-57,0c-10.7,0-18.4-7-18.6-16.7c-0.1-9.7,7.5-17.1,18.1-17.3
		c12.7-0.2,25.3,0,38-0.1C625.3,528.5,627.1,528.5,629.3,528.5z"/>
	<path d="M312.6,547.9c47,0,93.9,0,140.9,0c5.9,0,11.3,0.8,15.5,5.4c4.6,5,5.9,10.8,3.7,17.1c-2.1,6.3-6.7,10.3-13.4,11.2
		c-2.5,0.4-5,0.4-7.5,0.4c-92.9,0-185.9,0-278.8,0c-2.5,0-5,0-7.5-0.4c-8.5-1.1-14.8-8.3-14.8-16.8c0-8.4,6.5-15.7,14.9-16.7
		c2.3-0.3,4.7-0.2,7-0.2C219.3,547.9,266,547.9,312.6,547.9z"/>
	<path d="M312.6,445.7c-47.8,0-95.6,0-143.4,0c-8.4,0-14.4-4.2-16.9-11.4c-2.3-6.8-0.4-14.7,5.7-18.7c3.3-2.1,7.6-3.3,11.6-3.7
		c6.1-0.6,12.3-0.2,18.5-0.2c87.8,0,175.6,0,263.4,0c2.2,0,4.3-0.1,6.5,0.1c9.7,0.9,16.1,8.3,15.8,17.9c-0.4,9.1-7.5,15.9-17.1,15.9
		c-42.6,0.1-85.3,0-127.9,0C323.2,445.7,317.9,445.7,312.6,445.7z"/>
	<path d="M312.2,377.7c-47.3,0-94.6,0.1-141.9-0.1c-3.8,0-8-1-11.3-2.9c-6-3.3-8.7-10.6-7.4-17.2c1.4-6.9,6.9-12.3,13.8-13.4
		c1.8-0.3,3.6-0.3,5.5-0.3c94.5,0,188.9,0,283.4,0c12,0,19.5,6.8,19.4,17.3c-0.1,9-6.9,16.2-16,16.6c-4,0.2-8,0-12,0
		C401.2,377.7,356.7,377.7,312.2,377.7z"/>
	<path d="M312.2,513.8c-48,0-95.9,0-143.9,0c-7,0-12.2-2.9-15.5-9c-3.1-5.8-2.7-11.6,0.8-17.1c2.8-4.5,7-7,12.3-7.6
		c1.8-0.2,3.7-0.1,5.5-0.1c93.9,0,187.9,0,281.8,0c2.8,0,5.7,0,8.4,0.8c8.3,2.3,13.1,10.3,11.9,19c-1.2,8.2-8.2,14.1-17.4,14.1
		C408.2,513.8,360.2,513.8,312.2,513.8z"/>
	<path d="M388.9,241.6c-22.7,0-45.3,0.1-68,0c-9.4-0.1-16.6-7-17.2-16.1c-0.6-8.2,5.5-15.9,13.9-17.6c1.3-0.3,2.6-0.3,4-0.3
		c44.8,0,89.6,0,134.5,0c8.5,0,15.1,5.1,17.1,12.7c1.9,7.3-1.1,15.4-7.8,18.9c-3.1,1.6-7,2.4-10.5,2.4
		C432.8,241.7,410.9,241.6,388.9,241.6z"/>
	<path d="M388.5,309.6c-22,0-44,0-66,0c-11.1,0-18.9-7.1-18.9-16.9c0-9.9,7.8-17.1,18.8-17.1c44.3,0,88.6,0,132.9,0
		c9.8,0,17,5.9,18.1,14.5c1.1,8.7-3.8,16.5-12.1,18.8c-2.2,0.6-4.6,0.7-6.9,0.7C432.5,309.6,410.5,309.6,388.5,309.6z"/>
</g>
</svg>
