<?xml version="1.0" encoding="utf-8"?>
<!-- Generator: Adobe Illustrator 22.1.0, SVG Export Plug-In . SVG Version: 6.00 Build 0)  -->
<svg version="1.1" id="Слой_1" xmlns="http://www.w3.org/2000/svg" xmlns:xlink="http://www.w3.org/1999/xlink" x="0px" y="0px"
	 viewBox="0 0 724.9 596.2" style="enable-background:new 0 0 724.9 596.2;" xml:space="preserve">
<g>
	<path d="M303.4,596.2c-93,0-186,0-279,0c-6.4,0-12.3-0.9-17.2-5.4c-4.4-4-6.6-9.1-7-15c-0.1-2.5-0.2-5-0.2-7.5
		C0,388,0,207.7,0,27.4c0-1.3,0-2.7,0-4C0.3,8,8.4,0,23.8,0c108,0,216,0,324,0c78.7,0,157.3,0,236,0c12.7,0,20.6,5.7,22.9,16.5
		c0.3,1.3,0.4,2.6,0.4,4c0,25.7,0.1,51.3,0,77c0,10-6.3,17.8-15.6,20.1c-8.9,2.2-18.3-1.7-22.4-9.9c-1.7-3.4-2.4-7.6-2.5-11.5
		c-0.3-16.5-0.2-33,0-49.5c0.1-4.4-1.2-5.7-5.7-5.7c-171.3,0.1-342.6,0.1-514,0c-4.7,0-5.8,1.5-5.8,6c0.1,167.7,0.1,335.3,0,503
		c0,4.4,1.2,5.6,5.6,5.6c171.3-0.1,342.6-0.1,514,0c4.7,0,5.9-1.5,5.9-6c-0.1-79.8,0-159.7-0.2-239.5c0-8.1,2.4-14.7,9.3-19.2
		c13-8.5,30.4,0.2,31.4,15.8c0.1,1.5,0,3,0,4.5c0,87,0,174,0,261c0,16.3-7.8,24.1-24.3,24.1C489.7,596.2,396.5,596.2,303.4,596.2z"
		/>
	<path d="M161.7,314.3c-7.3,8.4-14.4,16.7-21.6,25c-5.8,6.6-12.9,9.4-21.5,6.8c-14.2-4.2-19.6-21.2-10.1-32.6
		c12.3-14.7,24.9-29.2,37.6-43.5c8.5-9.6,21.7-9.6,30.4-0.2c29.9,32.3,59.6,64.7,89.4,97.1c15.7,17,31.4,34.1,47.1,51.1
		c0.9,1,1.9,1.8,3.3,3c5.9-5.4,11.6-10.6,17.3-15.9c77.9-72,155.9-144.1,233.8-216.1c40.8-37.7,81.6-75.2,122.3-112.9
		c9.4-8.7,21.3-8.4,29.7,0.8c7.9,8.6,7.1,20.4-2,28.9c-56.3,52-112.6,104-168.9,156c-53.1,49.1-106.1,98.2-159.2,147.3
		c-20.2,18.7-40.4,37.3-60.6,55.9c-8.6,7.9-20.5,7.6-28.6-1.1c-18.9-20.2-37.6-40.6-56.3-61c-26.7-29.1-53.5-58.1-80.2-87.2
		C163.1,315.3,162.6,315,161.7,314.3z"/>
</g>
</svg>
