<?xml version="1.0" encoding="utf-8"?>
<!-- Generator: Adobe Illustrator 22.1.0, SVG Export Plug-In . SVG Version: 6.00 Build 0)  -->
<svg version="1.1" id="Слой_1" xmlns="http://www.w3.org/2000/svg" xmlns:xlink="http://www.w3.org/1999/xlink" x="0px" y="0px"
	 viewBox="0 0 467.2 478.7" style="enable-background:new 0 0 467.2 478.7;" xml:space="preserve">
<g>
	<path d="M109.3,227.4c2.6-45.5,20.1-83.1,61.1-107.5C230.2,84.4,312,106,346.3,166.4c22.2,39.2,24.2,79.7,5.7,120.7
		c-4.3,9.4-11,17.8-16.5,26.7c-0.8,1.3-0.8,3.1-1.2,4.7c1.6-0.5,3.7-0.4,4.8-1.5c10.2-9,16.6-8.8,25.9,1.2
		c31.6,33.9,63.2,67.7,94.7,101.6c8.6,9.2,9.7,15.3,3.5,26.1c-7.7,13.5-18.8,23.9-33,30.2c-10.2,4.5-17.2,2.9-24.6-5.1
		c-31.3-34.1-63-67.9-94.6-101.8c-9.7-10.4-9.4-16.3,0.7-26.2c1.7-1.7,4.6-3.5,1.1-5.7c-1.1-0.7-3.8,0-5.2,0.8
		c-12.8,7.8-26.4,13.4-41,16.6c-73.5,16-145.6-34.3-155.8-108.7C110.1,240.1,109.9,234.1,109.3,227.4z M136,229.1
		C134.9,286,183.6,330.8,236.8,331c54.8,0.2,102.2-44.5,102.3-101.6c0.1-54.4-43.8-101.7-101.6-101.8
		C179.8,127.4,135.1,175,136,229.1z M423.5,449.3c3.6-3.4,6.5-6.5,9.8-9.3c2.9-2.5,3-4.2,0.2-7.2c-19.1-20.2-38-40.7-56.9-61
		c-8.4-9-16.8-18-25.5-27.4c-4.5,4.3-8.7,8.3-13.2,12.6C366.4,387.8,394.6,418.1,423.5,449.3z"/>
	<path d="M0,201.1c0-61,0-122,0-183C0,10.7,1.3,4,9.3,1.2C11.6,0.3,14.2,0,16.7,0c97.8,0,195.6,0,293.4,0c11.2,0,17,5.7,17,16.9
		c0,22.8,0,45.7,0,68.5c0,6.3-1.9,11.5-7.7,14.6c-8,4.2-17.6,0.1-19.8-8.7c-0.6-2.2-0.7-4.6-0.7-6.9c-0.1-17.2-0.1-34.3,0-51.5
		c0-4.2-1.4-5.4-5.5-5.4c-86.7,0.1-173.3,0.1-260,0c-4.1,0-5.4,1.3-5.4,5.4c0.1,112.2,0.1,224.3,0,336.5c0,5.3,2.4,5.4,6.4,5.4
		c84.5-0.1,169,0,253.5-0.1c7,0,12.4,2.1,15.4,8.7c3.7,8.2-1.9,18.1-10.9,19c-1.8,0.2-3.7,0.1-5.5,0.1c-89.7,0-179.3,0-269,0
		c-13.6,0-18-4.3-18-17.9C0,323.5,0,262.3,0,201.1z"/>
	<path d="M164.1,61.6c33,0,65.9,0,98.9,0c6.4,0,11.5,3.5,13.5,9.1c2,5.4,0.6,12.1-4.3,15.2c-3.2,2-7.4,3.3-11.1,3.3
		c-36.3,0.2-72.6,0.1-108.9,0.1c-28.6,0-57.3,0-85.9,0c-7.4,0-12.3-3-14.5-8.5c-3.8-9.7,2.7-19.2,13.4-19.2
		C98.1,61.5,131.1,61.6,164.1,61.6z"/>
	<path d="M79.1,330.4c-6.5,0-13,0.1-19.4,0c-8.2-0.1-14-5.9-14-13.7c0-7.7,5.9-13.9,13.9-14c13-0.2,25.9-0.2,38.9,0
		c8.1,0.1,13.9,6,14,13.8c0,8.1-5.7,13.7-14.3,13.8c-0.3,0-0.7,0-1,0C91,330.4,85.1,330.4,79.1,330.4z"/>
	<path d="M76.2,149.5c-5.5,0-11,0.1-16.5,0c-7.8-0.2-13.8-6-14-13.4c-0.2-7.6,5.8-14.1,13.7-14.3c11.3-0.2,22.6-0.2,33.9,0
		c7.8,0.2,13.9,6.8,13.7,14.3c-0.2,7.4-6.2,13.2-14,13.4C87.5,149.6,81.9,149.5,76.2,149.5z"/>
	<path d="M68.1,210.6c-4-0.4-8-0.3-11.9-1.2c-6.5-1.5-10.8-7.7-10.4-14c0.4-6.5,5.1-12.1,11.9-12.6c6.9-0.6,13.9-0.5,20.9,0
		c7,0.6,11.4,5.9,11.7,12.6c0.3,6.7-3.7,12.5-10.3,14C76.1,210.2,72.1,210.2,68.1,210.6z"/>
	<path d="M67.9,242.6c2.5,0,5,0,7.5,0c7.8,0.2,13.6,5.4,14,12.7c0.4,7.9-4.9,14.4-12.8,14.9c-5.9,0.4-12,0.4-17.9,0
		c-7.8-0.5-13.3-6.8-13-14.3c0.2-7.6,5.9-13.1,13.9-13.3C62.3,242.6,65.1,242.6,67.9,242.6z"/>
	<path d="M233.5,210.2c-13.8,0-27.7,0.1-41.5,0c-10.4-0.1-16.1-6.1-15.4-15.9c0.4-5.6,4.5-10.4,10.1-11.5c2.3-0.4,4.6-0.7,6.9-0.7
		c26.5,0,53-0.1,79.5,0.1c3.6,0,7.5,0.6,10.5,2.2c5.1,2.7,7.4,7.6,6.5,13.5c-0.8,5.6-4,9.5-9.4,11.3c-2.5,0.8-5.2,1-7.9,1
		C259.8,210.3,246.7,210.2,233.5,210.2z"/>
	<path d="M233.1,242.6c14,0,28,0,42,0c9.2,0,15.1,5.4,15.2,13.6c0.1,8.3-6.1,14.1-15.4,14.1c-28,0.1-56,0.1-84,0
		c-9,0-14.9-5.8-14.9-14c0-8.3,5.8-13.7,15-13.7C205.1,242.6,219.1,242.6,233.1,242.6z"/>
</g>
</svg>
