<?xml version="1.0" encoding="utf-8"?>
<!-- Generator: Adobe Illustrator 22.1.0, SVG Export Plug-In . SVG Version: 6.00 Build 0)  -->
<svg version="1.1" id="Слой_1" xmlns="http://www.w3.org/2000/svg" xmlns:xlink="http://www.w3.org/1999/xlink" x="0px" y="0px"
	 viewBox="0 0 336 372" style="enable-background:new 0 0 336 372;" xml:space="preserve">
<style type="text/css">
	.st0{fill:#434142;}
	.st1{fill:#E85222;}
	.st2{enable-background:new    ;}
</style>
<g>
	<path class="st0" d="M116.3,312c-2,0-3.4,0-4.7,0c-26.5,0-53,0-79.5,0C12.6,312,0,299.4,0,279.8C0,221.2,0,162.6,0,104
		c0-19.3,12.6-32,31.9-32c9.2,0,18.4,0,27.9,0c0-4,0-7.7,0-11.8c-15.7,0-31.5,0-47.5,0c-0.1-1.5-0.2-2.5-0.2-3.6
		c0-8.6-0.1-17.2,0-25.9C12.1,13,25.1,0,42.9,0C95,0,147.1,0,199.2,0c15.2,0,30.5,0,45.7,0c18,0.1,30.9,12.9,31,31
		c0.1,13.2,0,26.5,0,39.7c0,0.2,0.1,0.5,0.2,1.3c1.1,0,2.3,0,3.5,0c8.7,0,17.5-0.1,26.2,0c16.8,0.2,30,13.2,30,30.1
		c0.1,59.9,0.1,119.7,0,179.6c0,17.3-13.2,30.2-30.5,30.3c-27,0.1-54,0-81,0c-1.4,0-2.7,0-4.7,0c3.9,7.9,7.6,15.4,11.4,22.7
		c0.4,0.8,2,1.2,3.1,1.2c5.7,0.1,11.5,0,17.2,0.1c10.5,0.1,18.5,8,18.4,18.1c-0.1,9.9-8,17.8-18.4,17.8c-55.7,0-111.5,0-167.2,0
		c-10.3,0-18.3-7.9-18.4-17.8c-0.1-10.1,7.9-18,18.5-18.1c5.7-0.1,11.5,0.1,17.2-0.1c1.1,0,2.8-0.7,3.3-1.6
		C108.8,327.2,112.3,320,116.3,312z M171.6,251.9c-33.4-25.4-35.6-69.6-11.3-97.2c11.9-13.5,26.8-21.2,44.7-22.4
		c24.2-1.6,43.6,8,58.8,27.3c0.1-1.1,0.2-1.6,0.2-2.1c0-42.5,0-85,0-127.5c0-10.4-8-18-18.6-18c-58.7,0-117.5,0-176.2,0
		c-0.9,0-1.8,0.2-3.1,0.3c4.9,6.8,6,14,6,21.7C72,105.1,72,176.3,72,247.4c0,1.5,0,2.9,0,4.5C105.3,251.9,138.1,251.9,171.6,251.9z
		 M276.1,96c7.5,0,14.6,0,21.8,0c9.5,0,14.1,4.5,14.1,13.9c0,46.7,0,93.5,0,140.2c0,9.2-4.7,13.8-13.9,13.8c-86.7,0-173.5,0-260.2,0
		c-9.2,0-13.9-4.6-13.9-13.8c0-46.7,0-93.5,0-140.2c0-9.4,4.6-13.9,14.1-14c7.2,0,14.4,0,21.6,0c0-4.2,0-8,0-12c-9.5,0-18.7,0-28,0
		C19.3,84,12,91.4,12,103.9c0,58.7,0,117.5,0,176.2c0,12.7,7.3,19.9,20.1,19.9c64.2,0,128.5,0,192.7,0c1.3,0,2.6,0,3.9,0
		c-0.1-1-0.1-1.3-0.1-1.7c-2.5-12.1,5.5-22.2,17.7-22.3c11.9-0.1,23.7-0.1,35.6,0c9,0.1,16.4,6.4,17.8,15.2c0.4,2.8,0.1,5.6,0.1,8.5
		c16.3,2.5,24.6-8,24.4-21.5c-0.6-31.1-0.2-62.2-0.2-93.4c0-27.4,0-54.7,0-82.1c0-11-7.7-18.6-18.6-18.7c-3.2,0-6.5,0-9.7,0
		c-6.5,0-12.9,0-19.5,0C276.1,88.2,276.1,91.9,276.1,96z M210.1,144c-29.7,0-54,24.1-54.1,53.7c-0.1,29.9,24.1,54.3,53.9,54.3
		c29.7,0,54-24.1,54.1-53.7C264.1,168.5,239.9,144.1,210.1,144z M59.7,251.9c0-48.1,0-95.9,0-143.7c-8,0-15.7,0-23.5,0
		c0,48,0,95.7,0,143.7C44.1,251.9,51.8,251.9,59.7,251.9z M299.8,251.8c0-48,0-95.8,0-143.5c-8,0-15.8,0-23.6,0c0,48,0,95.7,0,143.5
		C284.1,251.8,291.8,251.8,299.8,251.8z M168,348c-27.1,0-54.2,0-81.4,0c-1.2,0-2.5-0.1-3.7,0.1c-3,0.7-4.8,2.7-4.9,5.8
		c0,3.2,1.8,5.1,4.8,5.9c1.2,0.3,2.5,0.2,3.7,0.2c54.2,0,108.5,0,162.7,0c1.1,0,2.3,0.1,3.4-0.1c3.2-0.6,5.2-2.6,5.2-5.9
		c0-3.3-1.9-5.3-5.1-5.9c-1.2-0.2-2.5-0.1-3.7-0.1C222,348,195,348,168,348z M218.2,335.8c-3.9-7.8-7.5-15.2-11.4-22.6
		c-0.4-0.7-1.8-1.1-2.8-1.1c-24-0.1-47.9-0.1-71.9,0c-1,0-2.5,0.4-2.8,1.1c-3.8,7.4-7.5,14.9-11.4,22.6
		C151.4,335.8,184.6,335.8,218.2,335.8z M60,47.9c0-6.3,0.1-12.2,0-18.2c-0.2-9.3-7.5-17-16.6-17.6c-9.3-0.7-18.1,5.9-19.1,15.3
		c-0.7,6.7-0.1,13.6-0.1,20.6C36.1,47.9,47.8,47.9,60,47.9z M263.6,300c5.7,0,11.5,0,17.2,0c4.4,0,7.1-2.4,7.1-6c0-3.6-2.7-6-7.1-6
		c-11.2,0-22.5,0-33.7,0c-4.4,0-7.1,2.4-7.1,6c0,3.6,2.7,6,7.1,6C252.6,300,258.1,300,263.6,300z M250.8,251.8c3.2,0,8,0,12.9,0
		c0-5.1,0-9.9,0-12.9C259.7,242.9,254.9,247.7,250.8,251.8z"/>
	<path class="st1" d="M167.8,48.2c12.2,0,23.9,0,36,0c0,19.8,0,39.6,0,59.6c4.1,0,7.8,0,11.9,0c0-27.7,0-55.5,0-83.5
		c12.2,0,24,0,36,0c0,31.8,0,63.6,0,95.6c-43.8,0-87.5,0-131.5,0c0-15.8,0-31.6,0-47.6c11.8,0,23.6,0,35.6,0c0,11.8,0,23.5,0,35.5
		c4.1,0,7.8,0,11.9,0C167.8,88,167.8,68.3,167.8,48.2z M239.7,107.8c0-24.1,0-47.8,0-71.5c-4.1,0-7.8,0-11.6,0c0,24,0,47.7,0,71.5
		C232.1,107.8,235.8,107.8,239.7,107.8z M191.7,107.8c0-16.1,0-31.8,0-47.5c-4,0-7.8,0-11.6,0c0,16,0,31.7,0,47.5
		C184.1,107.8,187.8,107.8,191.7,107.8z M132.3,84.2c0,8.1,0,15.9,0,23.5c4.1,0,7.8,0,11.5,0c0-8,0-15.7,0-23.5
		C139.9,84.2,136.2,84.2,132.3,84.2z"/>
	<path class="st1" d="M84.2,143.8c0-4,0-7.6,0-11.5c15.8,0,31.5,0,47.5,0c0,3.7,0,7.5,0,11.5C116,143.8,100.3,143.8,84.2,143.8z"/>
	<path class="st1" d="M84.3,156.2c16,0,31.7,0,47.5,0c0,3.9,0,7.6,0,11.5c-15.7,0-31.5,0-47.5,0C84.3,164,84.3,160.2,84.3,156.2z"/>
	<path class="st1" d="M131.8,180.3c0,4,0,7.7,0,11.5c-15.9,0-31.5,0-47.5,0c0-3.7,0-7.5,0-11.5C100,180.3,115.8,180.3,131.8,180.3z"
		/>
	<path class="st1" d="M84.1,215.8c0-3.9,0-7.6,0-11.5c15.8,0,31.6,0,47.6,0c0,3.6,0,7.4,0,11.5C116,215.8,100.2,215.8,84.1,215.8z"
		/>
	<path class="st1" d="M131.9,228.3c0,3.9,0,7.6,0,11.5c-15.9,0-31.7,0-47.7,0c0-3.8,0-7.5,0-11.5
		C99.9,228.3,115.7,228.3,131.9,228.3z"/>
	<path class="st1" d="M84.2,24.2c3.9,0,7.6,0,11.6,0c0,3.8,0,7.6,0,11.6c-3.8,0-7.6,0-11.6,0C84.2,32,84.2,28.3,84.2,24.2z"/>
	<path class="st1" d="M84.2,48.1c3.9,0,7.5,0,11.5,0c0,3.8,0,7.6,0,11.7c-3.6,0-7.4,0-11.5,0C84.2,56,84.2,52.2,84.2,48.1z"/>
	<path class="st1" d="M95.8,83.8c-3.8,0-7.5,0-11.5,0c0-3.7,0-7.5,0-11.6c3.7,0,7.5,0,11.5,0C95.8,76.1,95.8,79.9,95.8,83.8z"/>
	<path class="st1" d="M36.3,276.2c3.9,0,7.6,0,11.5,0c0,3.9,0,7.7,0,11.7c-3.8,0-7.5,0-11.5,0C36.3,284.1,36.3,280.3,36.3,276.2z"/>
	<path class="st1" d="M71.7,287.9c-3.9,0-7.6,0-11.5,0c0-3.9,0-7.7,0-11.7c3.8,0,7.5,0,11.5,0C71.7,279.9,71.7,283.7,71.7,287.9z"/>
	<path class="st1" d="M95.8,287.9c-3.9,0-7.5,0-11.5,0c0-3.8,0-7.6,0-11.7c3.6,0,7.4,0,11.5,0C95.8,280,95.8,283.8,95.8,287.9z"/>
	<path class="st1" d="M180,198c0,3.2-2.7,6-6,6c-3.3,0-6-2.7-6-6c0-3.3,2.7-6,6-6C177.2,192,180,194.7,180,198z"/>
	<path class="st1" d="M252,198.2c-0.1,3.2-2.9,5.9-6.2,5.8c-3.3-0.1-5.9-2.9-5.8-6.2c0.1-3.3,2.9-5.9,6.1-5.8
		C249.4,192.1,252.1,195,252,198.2z"/>
</g>
<g class="st2">
	<path class="st1" d="M186.8,199.2h6.9v-30.6c2.5-0.5,5.1-0.9,7.9-1.1c2.8-0.2,5.6-0.3,8.4-0.3c3,0,6,0.3,8.9,0.8
		c2.9,0.6,5.4,1.5,7.6,2.9c2.2,1.4,4,3.3,5.4,5.7c1.3,2.4,2,5.5,2,9.3c0,3.6-0.7,6.7-2.1,9.1c-1.4,2.5-3.3,4.4-5.6,6
		c-2.3,1.5-4.9,2.6-7.8,3.3c-2.9,0.7-5.9,1-8.9,1H202v6.4h16v6.1h-16v11.5h-8.3v-11.5h-6.9v-6.1h6.9v-6.4h-6.9V199.2z M210.3,174.3
		c-1.6,0-3.2,0.1-4.7,0.2c-1.5,0.1-2.7,0.2-3.6,0.4v24.3h7.1c1.9,0,3.8-0.2,5.7-0.6c1.9-0.4,3.6-1.1,5.1-2.1c1.5-1,2.7-2.3,3.7-4
		c1-1.7,1.4-3.8,1.4-6.4c0-2.3-0.4-4.2-1.2-5.7c-0.8-1.5-1.8-2.7-3.2-3.6c-1.3-0.9-2.9-1.5-4.7-1.9
		C214.2,174.5,212.3,174.3,210.3,174.3z"/>
</g>
</svg>
