<?xml version="1.0" encoding="utf-8"?>
<!-- Generator: Adobe Illustrator 22.1.0, SVG Export Plug-In . SVG Version: 6.00 Build 0)  -->
<svg version="1.1" id="Слой_1" xmlns="http://www.w3.org/2000/svg" xmlns:xlink="http://www.w3.org/1999/xlink" x="0px" y="0px"
	 viewBox="0 0 472 340.2" style="enable-background:new 0 0 472 340.2;" xml:space="preserve">
<style type="text/css">
	.st0{fill:#FFFFFF;}
</style>
<g>
	<path class="st0" d="M391.5-21.3c12.5,0,25,0,37.5,0c0,128.2,0,256.4,0,384.7c-128.2,0-256.3,0-384.6,0c0-128.2,0-256.4,0-384.7
		c35.9,0,71.9,0,107.9,0C137.6-15.6,133.7-9.9,133.7,6c0,32.6,0,65.2,0,97.9c0,1.5,0,2.9,0,4.3c-4.5,0.9-8.6,1.6-12.6,2.5
		c-9.6,2.3-19,5.2-27.1,11.2c-5.6,4.1-8.7,9.4-8.4,16.6c0.3,6.9,0,13.7,0.1,20.6c0,2.2-0.8,3.2-2.7,4.1c-4,2-8,4.2-11.5,6.9
		c-4.9,3.6-7.2,8.7-7,15c0.2,9.5,0.1,19,0,28.5c0,4.5,1.3,8.5,4.6,11.5c3.1,2.8,6.7,5.2,10.2,7.4c2.4,1.5,5.1,2.4,6.9,3.3
		c0,15.1,0,29.6,0,43.7c-4.9,2.9-10,5.5-14.6,8.8c-5.1,3.6-7.4,8.8-7.2,15.2c0.3,8.6,0.4,17.3,0,25.9c-0.5,8.7,3.4,14.6,10.4,18.9
		c2.6,1.7,5.4,3.2,8.3,4.4c14.9,6.2,30.7,8.5,46.7,9.7c3.5,0.3,5.9-2.1,6.1-5.2c0.2-3.4-1.8-5.4-5.8-6c-10.7-1.7-21.6-2.8-32.1-5.3
		c-6.4-1.5-12.4-5-18.4-8c-1.7-0.8-3.5-3.1-3.7-4.8c-0.5-4.9-0.2-9.9-0.2-14.1c46.1,17,91.9,17.1,137.8,0c2,15.8-0.3,19.5-15.8,25.1
		c-13.3,4.7-27.2,6.4-41.2,7.4c-4,0.3-6.3,2.6-6.1,6c0.2,3.3,2.6,5.4,6.5,5.2c17-1.1,33.9-3.1,49.7-10c10-4.4,19.2-9.8,18.5-23.3
		c1.9,0,3.5,0,5.1,0c36.7,0,73.5,0,110.2,0c15,0,30,0.1,45,0c15-0.1,24-9.4,24-24.2c0-20.1,0-40.2,0-60.4c0-1.1,0.1-2.3-0.1-3.4
		c-0.6-2.9-2.4-4.7-5.4-4.7c-3.1,0-4.9,1.7-5.6,4.6c-0.3,1.2-0.1,2.5-0.1,3.7c0,20,0,40,0,60c0,8.9-4.2,13-13.1,13
		c-52,0-104,0-156,0c-1.3,0-2.6-0.1-4.6-0.3c0-7.8,0-15.2,0-22.6c9.2-4.5,17.9-11.5,29.4-9.5c0.1,0,0.2,0,0.4-0.1
		c8.5-1.5,14.1-8.8,13.4-17.5c-0.6-8.1-7.4-14.6-15.6-14.9c-1.8-0.1-3.7,0-5.8,0c0-3.9,0-7.4,0-11.3c2.2,0,4.2,0.1,6.2,0
		c7.9-0.5,14.5-6.8,15.2-14.5c0.7-8.3-4.1-16.5-12-17.4c-10.3-1.2-21.2-3.5-30.6,4.5c0-7.3,0-14.3,0-20.5c4,1.3,7.9,3.3,12,3.8
		c4.9,0.7,10,0.3,15,0.1c9.1-0.4,15.7-7.4,15.7-16.3c0-9-6.9-15.9-16.1-16.3c-1.7-0.1-3.4,0-5.3,0c0-7.6,0-14.6,0-21.9
		c2.3-0.1,4.4-0.1,6.5-0.3c7.1-0.5,13.1-5.7,14.6-12.5c1.6-7-1.5-14.1-7.6-17.7c-5.6-3.3-25.2-3.7-30.6,0.1c-3,2.1-5.5,2.1-8.5,0.7
		c-0.7-0.3-1.4-0.5-2.1-0.7c-22.5-6.6-45.5-7.7-68.7-6.4c-1.6,0.1-3.2,0.2-5.2,0.4c0-1.6,0-2.8,0-4c0-33.2,0-66.5,0-99.7
		c0-9.1,4.2-13.2,13.4-13.2c14,0,28,0,42,0c4.3,0,7.1-1.9,6.7-5.3c-0.2-2.1-2-4-3-6c7,0,14,0,21,0c-1,1.4-2.4,2.6-2.9,4.1
		c-1.4,4.2,1.7,7.1,7.3,7.1c51.6,0,103.2,0,154.8,0c10.3,0,14.1,3.8,14.1,14.3c0,69.6,0,139.2,0,208.8c0,1.2-0.1,2.5,0,3.7
		c0.3,3.2,2.7,5.4,5.6,5.4c3,0,5.3-2.3,5.5-5.5c0.1-1.2,0-2.5,0-3.7c0-43.7,0-87.5,0-131.2c0-26.7,0-53.5,0-80.2
		c0-10.5-6-18.7-16-22C392.8-20.7,392.2-21,391.5-21.3z M271.7,19.1c-32.5,0-65,0-97.5,0c-6.4,0-8,1.5-8,7.9c0,16.9,0,33.7,0,50.6
		c0,6.4,1.6,8.1,7.9,8.1c65,0,130,0,194.9,0c6.3,0,8.1-1.8,8.1-8c0-16.7,0-33.5,0-50.2c0-6.8-1.6-8.3-8.4-8.3
		C336.4,19.1,304.1,19.1,271.7,19.1z M298.8,241.9c2.4,0,4.7,0.1,7.1,0c8.5-0.3,15.4-6.7,16-14.9c0.6-9-5-16.5-13.8-17.5
		c-6.2-0.7-12.5-0.7-18.7,0c-8.6,0.9-14.6,8.6-14.1,17c0.5,8.6,7.5,15.2,16.3,15.4C294,242,296.4,241.9,298.8,241.9z M298.8,252.9
		c0,0.1,0,0.2,0,0.3c-2.5,0-5-0.1-7.5,0c-8.5,0.2-15.5,6.9-16,15.3c-0.5,8.3,5.3,16,13.6,17c6.4,0.7,13,0.6,19.4,0
		c7.6-0.8,13.1-7.3,13.5-14.7c0.4-8.1-4.2-15-11.9-16.8C306.4,253,302.5,253.2,298.8,252.9z M352.4,242.2c0-0.1,0-0.2,0-0.3
		c2.7,0,5.5,0.1,8.2,0c8.1-0.5,14.7-7,15.2-14.9c0.5-8.7-4.8-16.3-13.2-17.2c-6.6-0.8-13.5-0.7-20.1,0c-7.4,0.8-12.9,7.6-13.2,15
		c-0.3,7.5,4.4,14.6,11.6,16.4C344.6,242,348.6,241.9,352.4,242.2z M352.8,253.2c-2.5,0-5-0.1-7.5,0c-8.4,0.2-15.3,6.7-16,14.9
		c-0.7,8.5,5.1,16.4,13.6,17.3c6.5,0.7,13.2,0.7,19.8-0.1c8.3-1,13.7-8.6,13.2-17.3c-0.5-8-7.3-14.6-15.5-14.9
		C357.8,253.1,355.3,253.2,352.8,253.2z M352.6,110.5C352.6,110.5,352.6,110.5,352.6,110.5c-2.6,0-5.2-0.1-7.9,0
		c-8.4,0.4-15.2,7.3-15.4,15.8c-0.2,8.7,6.3,16.1,15,16.6c5.5,0.3,11,0.3,16.5,0c8.9-0.5,15.4-7.7,15.2-16.7
		c-0.2-8.7-7-15.5-15.8-15.8C357.6,110.5,355.1,110.5,352.6,110.5z M298.5,143C298.5,143,298.5,143,298.5,143c2.9,0,5.8,0.2,8.6,0
		c8.6-0.7,15-7.9,14.8-16.7c-0.2-8.5-6.9-15.4-15.5-15.7c-5.1-0.2-10.2-0.1-15.4,0c-8.7,0.2-15.6,7.2-15.8,15.9
		c-0.2,8.6,6.4,16,15,16.6C293,143.2,295.8,143,298.5,143z M352.8,165.3C352.8,165.3,352.8,165.3,352.8,165.3c-2.7,0-5.5-0.1-8.2,0
		c-8.5,0.5-15.1,7.5-15.3,16c-0.1,8.7,6.5,16,15.1,16.5c5.4,0.3,10.7,0.3,16.1,0c9-0.4,15.5-7.6,15.4-16.5
		c-0.1-8.7-6.8-15.6-15.6-16C357.8,165.2,355.3,165.3,352.8,165.3z M298.5,197.8c2.7,0,5.5,0.1,8.2,0c8.8-0.6,15.2-7.6,15.2-16.4
		c-0.1-8.7-6.7-15.7-15.5-16.1c-5.1-0.2-10.2-0.2-15.4,0c-8.9,0.3-15.8,7.4-15.8,16.2c0,8.6,6.6,15.7,15.4,16.3
		C293.3,197.9,295.9,197.8,298.5,197.8z M105.8,83.6c2.9,0,5.7,0,8.6,0c0.2,0,0.5,0,0.7,0c3.7-0.2,6.1-2.6,5.9-5.8
		c-0.1-3.1-2.4-5.3-5.9-5.4c-6.1-0.1-12.2-0.1-18.3,0c-3.5,0-5.9,2.3-6,5.4c-0.1,3.2,2.3,5.7,6,5.8C99.8,83.7,102.8,83.6,105.8,83.6
		z M105.8,101C105.8,101,105.8,101,105.8,101c3,0,6,0,9,0c0.2,0,0.5,0,0.7,0c3.3-0.2,5.5-2.3,5.6-5.3c0.1-3-1.9-5.7-5.1-5.8
		c-6.6-0.2-13.2-0.2-19.8,0c-3.2,0.1-5.4,2.8-5.3,5.7c0.1,2.9,2.3,5.3,5.6,5.4C99.5,101.1,102.6,101,105.8,101z M121.1,58.7
		c0.1-3.1-2.6-5.8-5.7-5.7c-2.9,0-5.4,2.5-5.5,5.5c-0.1,3.1,2.2,5.5,5.3,5.7C118.4,64.3,121,61.9,121.1,58.7z"/>
	<path d="M204-21.3c1.1,2,2.8,3.9,3,6c0.4,3.3-2.4,5.3-6.7,5.3c-14,0-28,0-42,0c-9.1,0-13.4,4.2-13.4,13.2c0,33.2,0,66.5,0,99.7
		c0,1.2,0,2.4,0,4c2-0.2,3.6-0.3,5.2-0.4c23.2-1.3,46.2-0.2,68.7,6.4c0.7,0.2,1.5,0.4,2.1,0.7c3,1.4,5.4,1.4,8.5-0.7
		c5.3-3.8,25-3.5,30.6-0.1c6.1,3.6,9.2,10.8,7.6,17.7c-1.5,6.8-7.5,12-14.6,12.5c-2.1,0.2-4.2,0.2-6.5,0.3c0,7.3,0,14.3,0,21.9
		c1.9,0,3.6-0.1,5.3,0c9.3,0.3,16.1,7.2,16.1,16.3c0,8.9-6.6,15.9-15.7,16.3c-5,0.2-10.1,0.6-15-0.1c-4.1-0.6-8.1-2.5-12-3.8
		c0,6.2,0,13.2,0,20.5c9.4-8,20.3-5.7,30.6-4.5c7.8,0.9,12.7,9.1,12,17.4c-0.7,7.7-7.3,14-15.2,14.5c-2,0.1-4,0-6.2,0
		c0,3.9,0,7.4,0,11.3c2.1,0,3.9-0.1,5.8,0c8.2,0.3,15.1,6.8,15.6,14.9c0.6,8.8-4.9,16-13.4,17.5c-0.1,0-0.3,0.1-0.4,0.1
		c-11.6-2-20.2,5-29.4,9.5c0,7.4,0,14.8,0,22.6c1.9,0.1,3.3,0.3,4.6,0.3c52,0,104,0,156,0c8.9,0,13.1-4.2,13.1-13c0-20,0-40,0-60
		c0-1.2-0.1-2.5,0.1-3.7c0.7-2.9,2.5-4.6,5.6-4.6c3.1,0,4.8,1.8,5.4,4.7c0.2,1.1,0.1,2.2,0.1,3.4c0,20.1,0,40.2,0,60.4
		c0,14.9-9,24.1-24,24.2c-15,0.1-30,0-45,0c-36.7,0-73.5,0-110.2,0c-1.6,0-3.2,0-5.1,0c0.7,13.5-8.5,18.9-18.5,23.3
		c-15.8,6.9-32.7,9-49.7,10c-3.8,0.2-6.3-1.9-6.5-5.2c-0.2-3.5,2.1-5.7,6.1-6c14-0.9,27.8-2.6,41.2-7.4c15.5-5.5,17.8-9.2,15.8-25.1
		c-45.9,17.1-91.6,17-137.8,0c0,4.2-0.3,9.2,0.2,14.1c0.2,1.8,2,4,3.7,4.8c6,3,12,6.5,18.4,8c10.5,2.5,21.4,3.7,32.1,5.3
		c3.9,0.6,6,2.6,5.8,6c-0.2,3.2-2.6,5.5-6.1,5.2c-16-1.2-31.8-3.4-46.7-9.7c-2.9-1.2-5.6-2.7-8.3-4.4c-6.9-4.4-10.8-10.2-10.4-18.9
		c0.5-8.6,0.3-17.2,0-25.9c-0.2-6.4,2.2-11.6,7.2-15.2c4.6-3.3,9.8-5.9,14.6-8.8c0-14.1,0-28.6,0-43.7c-1.8-0.8-4.5-1.8-6.9-3.3
		c-3.6-2.2-7.1-4.6-10.2-7.4c-3.3-2.9-4.7-6.9-4.6-11.5c0.1-9.5,0.2-19,0-28.5c-0.2-6.3,2.1-11.3,7-15c3.6-2.7,7.5-4.9,11.5-6.9
		c2-1,2.8-1.9,2.7-4.1c-0.1-6.9,0.2-13.8-0.1-20.6c-0.3-7.2,2.8-12.5,8.4-16.6c8.1-6,17.5-8.9,27.1-11.2c4-1,8.1-1.6,12.6-2.5
		c0-1.4,0-2.9,0-4.3c0-32.6,0-65.2,0-97.9c0-16,3.8-21.6,18.5-27.4C169.5-21.3,186.8-21.3,204-21.3z M165.8,154.9
		c17.3-0.3,34.2-1.5,50.5-6.8c5.4-1.8,10.6-4.4,15.4-7.4c4.6-2.9,4.5-6.1,0.1-9.1c-3.3-2.3-7-4.3-10.8-5.8c-12.5-5-25.7-7-39.1-7.8
		c-21.8-1.4-43.4-0.6-64.5,5.7c-5.2,1.5-10.3,3.8-15,6.5c-7,4.1-6.9,7.8-0.1,12c3.1,1.9,6.4,3.4,9.7,4.7
		C129.4,153.2,147.6,154.5,165.8,154.9z M96.9,153.4c0,3.4,0.2,7.2-0.1,11.1c-0.3,3.9,1.2,6.7,4.4,8.4c4.9,2.5,9.7,5.2,14.9,6.7
		c29.9,8.6,60.1,8.8,90.4,2.4c7.8-1.6,15.3-5.1,22.7-8.2c2.3-1,5-3.6,5.3-5.7c0.8-4.9,0.2-10,0.2-14.5
		C188.8,170.6,143.2,170.6,96.9,153.4z M234.9,258.8c-22.1,11.1-45.4,13.4-69,13.4c-23.7,0-47.1-2.4-69.1-13.5
		c0,4.5,0.2,8.5-0.1,12.4c-0.2,3.4,1.1,6,3.9,7.5c5.2,2.7,10.4,5.7,15.9,7.3c30.3,8.6,60.9,8.6,91.5,1.9c7.7-1.7,15-5.3,22.2-8.6
		c2-0.9,4.1-3.7,4.4-5.9C235.4,268.8,234.9,264.1,234.9,258.8z M213.7,199.6c-22,11.2-45.5,13.5-69.1,13.5c-23.6,0-47-2.4-68.9-13.5
		c0,4.4,0.3,8.3-0.1,12.1c-0.4,4,1.4,6.7,4.5,8.3c5,2.5,10,5.3,15.3,6.8c29.4,8.4,59.2,8.5,89,2.4c8.3-1.7,16.2-5.4,24.1-8.8
		c2.2-0.9,4.6-3.7,4.9-6C214.3,209.7,213.7,204.8,213.7,199.6z M144.3,320.7c9.8-0.8,19.7-1.2,29.5-2.5c11.4-1.5,22.7-3.8,32.9-9.6
		c2.3-1.3,4.4-3.2,6.2-5.2c0.7-0.7,0.5-2.6,0.1-3.7c-0.2-0.5-1.9-0.8-2.9-0.6c-24.3,5.3-48.8,5.8-73.4,2.6
		c-13.8-1.8-27.3-4.7-39.5-11.8c-0.8-0.5-2-0.9-2.7-0.6c-5.3,2.4-10.8,4.6-15.7,7.7c-4.3,2.8-4.2,5.9,0.2,8.8
		c3.8,2.6,7.9,4.8,12.2,6.3C108.3,318.6,126.2,320.1,144.3,320.7z M165.7,261.1c16.9-0.1,33.7-1.3,49.9-6.6c5.9-2,11.6-5.1,16.9-8.4
		c3.5-2.2,3.4-5.1,0-7.6c-3.8-2.7-8.1-4.7-12.3-7c-3-1.6-5.9-1.8-9,0.5c-2,1.5-4.4,2.3-6.7,3.2c-20,7.7-41,9.4-62.2,9.3
		c-14-0.1-27.9-1.4-41.6-4.5c-2.7-0.6-4.4,0.9-3.4,3.3c0.6,1.4,1.7,2.9,3,3.7c3.9,2.3,7.7,4.6,11.9,6.1
		C129.5,259.4,147.5,260.8,165.7,261.1z M86.7,173.6c-2.9,1.8-5.6,3.3-8.1,5.2c-3.9,3.1-4.1,6,0.1,8.6c5.1,3.2,10.7,6.1,16.4,7.9
		c22.5,7,45.7,7.7,69,5.6c8.5-0.8,17-2.4,25.4-3.6c0-0.3-0.1-0.6-0.1-1c-0.7,0-1.5,0.1-2.2,0.1c-23.7,2.2-47.2,1.3-70.2-4.8
		C105.5,188.6,94.3,184.7,86.7,173.6z M232.8,224.3c5,5,10.6,7.7,17.6,6.4c0.1,0,0.2,0,0.4,0c3.7-0.1,5.8-1.8,5.9-4.9
		c0.1-3.2-2-5.3-5.8-5.4c-4.1-0.1-8.2-0.1-12.3,0C235.8,220.4,233.7,221.4,232.8,224.3z M233.9,184.9c0.6,0.5,1.1,1.1,1.6,1.1
		c6.1,0.1,12.2,0.6,18.2,0c3.4-0.3,4.1-5.8,1.4-8.2c-1.7-1.6-10.8-2.1-12.5-0.6C239.7,179.6,237,182.1,233.9,184.9z M238.5,121.8
		c2.1,2.5,4.3,4.1,5.2,6.3c1.8,4.7,5.4,4,8.9,3.6c2.7-0.4,4.1-2.3,4-5c-0.1-2.7-1.5-4.6-4.3-4.8
		C247.9,121.7,243.4,121.8,238.5,121.8z M246.4,274.5c3.6,0.2,7.3,1.2,9.3-2.3c0.8-1.4,0.8-4.1-0.1-5.5c-2.2-3.5-5.8-2.2-9.2-2.1
		C246.4,267.9,246.4,271,246.4,274.5z"/>
	<path d="M391.5-21.3c0.7,0.3,1.3,0.6,2,0.9c10,3.3,16,11.4,16,22c0,26.7,0,53.5,0,80.2c0,43.7,0,87.5,0,131.2c0,1.2,0.1,2.5,0,3.7
		c-0.3,3.2-2.6,5.5-5.5,5.5c-3,0-5.3-2.2-5.6-5.4c-0.1-1.2,0-2.5,0-3.7c0-69.6,0-139.2,0-208.8c0-10.5-3.8-14.3-14.1-14.3
		c-51.6,0-103.2,0-154.8,0c-5.6,0-8.7-2.9-7.3-7.1c0.5-1.5,1.9-2.7,2.9-4.1C280.5-21.3,336-21.3,391.5-21.3z"/>
	<path d="M271.7,19.1c32.4,0,64.7,0,97.1,0c6.8,0,8.4,1.6,8.4,8.3c0,16.7,0,33.5,0,50.2c0,6.2-1.8,8-8.1,8c-65,0-130,0-194.9,0
		c-6.3,0-7.9-1.7-7.9-8.1c0-16.9,0-33.7,0-50.6c0-6.3,1.6-7.9,8-7.9C206.7,19.1,239.2,19.1,271.7,19.1z M365.7,74.2
		c0-14.8,0-29.2,0-43.7c-62.8,0-125.3,0-187.9,0c0,14.7,0,29.1,0,43.7C240.5,74.2,302.9,74.2,365.7,74.2z"/>
	<path d="M298.8,241.9c-2.4,0-4.7,0.1-7.1,0c-8.8-0.2-15.8-6.8-16.3-15.4c-0.5-8.4,5.4-16.1,14.1-17c6.2-0.6,12.5-0.7,18.7,0
		c8.8,1,14.4,8.5,13.8,17.5c-0.5,8.2-7.5,14.6-16,14.9C303.5,242,301.1,241.9,298.8,241.9z M298.8,230.6c2.2,0,4.5,0.1,6.7,0
		c3-0.2,4.9-1.8,5-4.9c0.1-3.2-1.8-5-4.7-5.2c-4.8-0.3-9.7-0.3-14.6,0c-3,0.2-4.9,2.2-4.7,5.2c0.2,3,2.1,4.7,5.1,4.9
		C294.1,230.7,296.5,230.6,298.8,230.6z"/>
	<path d="M298.8,252.9c3.7,0.3,7.5,0.1,11.1,1c7.7,1.8,12.4,8.7,11.9,16.8c-0.4,7.4-5.9,14-13.5,14.7c-6.4,0.6-13,0.7-19.4,0
		c-8.4-0.9-14.2-8.6-13.6-17c0.5-8.4,7.5-15.1,16-15.3c2.5-0.1,5,0,7.5,0C298.8,253.1,298.8,253,298.8,252.9z M298.6,274.6
		C298.6,274.6,298.6,274.6,298.6,274.6c2.4,0,4.7,0.2,7.1,0c3.1-0.3,5.1-2,4.9-5.4c-0.2-3.1-2.1-4.7-5.2-4.8c-4.5-0.1-9-0.1-13.4,0
		c-3.2,0.1-5.5,2.2-5.4,5c0.1,3.1,1.9,4.9,4.9,5.1C293.8,274.8,296.2,274.6,298.6,274.6z"/>
	<path d="M352.4,242.2c-3.8-0.3-7.8-0.2-11.5-1.1c-7.3-1.8-12-8.9-11.6-16.4c0.3-7.4,5.8-14.2,13.2-15c6.6-0.7,13.5-0.8,20.1,0
		c8.4,1,13.7,8.6,13.2,17.2c-0.5,7.9-7.1,14.4-15.2,14.9c-2.7,0.2-5.5,0-8.2,0C352.4,242,352.4,242.1,352.4,242.2z M352.6,230.6
		c2.4,0,4.7,0.1,7.1,0c2.8-0.2,4.7-1.8,4.8-4.7c0.2-3.1-1.6-5.2-4.5-5.4c-5-0.3-10-0.3-14.9,0c-2.8,0.2-4.6,2.1-4.5,5
		c0.1,3,1.9,4.8,4.9,5.1C347.9,230.8,350.2,230.6,352.6,230.6z"/>
	<path d="M352.8,253.2c2.5,0,5-0.1,7.5,0c8.2,0.3,15,6.9,15.5,14.9c0.5,8.6-4.9,16.3-13.2,17.3c-6.5,0.7-13.2,0.8-19.8,0.1
		c-8.5-0.9-14.3-8.9-13.6-17.3c0.7-8.3,7.6-14.7,16-14.9C347.8,253.1,350.3,253.2,352.8,253.2z M352.6,274.6c2.4,0,4.7,0.2,7.1,0
		c3.2-0.3,5.1-2.6,4.8-5.5c-0.3-3.1-2.3-4.6-5.3-4.7c-4.5-0.1-9-0.1-13.4,0c-3.1,0.1-4.9,1.7-5.3,4.7c-0.3,2.8,1.8,5.1,5,5.4
		C347.9,274.8,350.3,274.6,352.6,274.6z"/>
	<path d="M352.6,110.5c2.5,0,5-0.1,7.5,0c8.8,0.3,15.6,7.1,15.8,15.8c0.2,9-6.3,16.3-15.2,16.7c-5.5,0.3-11,0.3-16.5,0
		c-8.6-0.5-15.2-7.9-15-16.6c0.2-8.5,7-15.5,15.4-15.8C347.3,110.5,349.9,110.5,352.6,110.5C352.6,110.5,352.6,110.5,352.6,110.5z
		 M352.6,121.8C352.6,121.8,352.6,121.8,352.6,121.8c-2.4,0-4.7-0.1-7.1,0c-3.1,0.1-4.9,2-4.9,5c0,3,1.8,4.9,4.9,5
		c4.7,0.1,9.5,0.1,14.2,0c3.1-0.1,4.8-1.9,4.9-5c0.1-3-1.9-4.9-5.2-5C357.1,121.7,354.9,121.8,352.6,121.8z"/>
	<path d="M298.5,143c-2.7,0-5.5,0.2-8.2,0c-8.6-0.6-15.2-7.9-15-16.6c0.2-8.6,7.1-15.6,15.8-15.9c5.1-0.1,10.2-0.1,15.4,0
		c8.5,0.3,15.3,7.2,15.5,15.7c0.2,8.8-6.1,16.1-14.8,16.7C304.3,143.2,301.4,143,298.5,143C298.5,143,298.5,143,298.5,143z
		 M298.8,121.8C298.8,121.8,298.8,121.8,298.8,121.8c-2.4,0-4.7-0.1-7.1,0c-3.1,0.1-5,1.8-5.1,4.8c-0.1,3,1.6,5,4.7,5.1
		c4.8,0.2,9.7,0.2,14.5,0c3.1-0.1,4.8-2.1,4.7-5.2c-0.1-2.9-1.8-4.6-4.7-4.8C303.5,121.7,301.2,121.8,298.8,121.8z"/>
	<path d="M352.8,165.3c2.5,0,5-0.1,7.5,0c8.8,0.4,15.5,7.3,15.6,16c0.1,8.9-6.4,16.1-15.4,16.5c-5.4,0.3-10.7,0.3-16.1,0
		c-8.7-0.5-15.2-7.8-15.1-16.5c0.1-8.5,6.8-15.5,15.3-16C347.3,165.2,350,165.3,352.8,165.3C352.8,165.3,352.8,165.3,352.8,165.3z
		 M352.4,186.6C352.4,186.6,352.4,186.6,352.4,186.6c2.5,0,5,0.1,7.5,0c2.9-0.2,4.6-1.8,4.7-4.7c0.1-3.1-1.5-5.1-4.6-5.2
		c-4.8-0.2-9.7-0.2-14.5,0c-3.1,0.1-4.8,2.1-4.8,5.1c0.1,3,1.9,4.8,5,4.9C347.9,186.6,350.1,186.6,352.4,186.6z"/>
	<path d="M298.5,197.8c-2.6,0-5.3,0.1-7.9,0c-8.7-0.5-15.4-7.6-15.4-16.3c0-8.8,6.9-15.9,15.8-16.2c5.1-0.2,10.2-0.2,15.4,0
		c8.8,0.3,15.4,7.4,15.5,16.1c0.1,8.8-6.4,15.8-15.2,16.4C304,198,301.3,197.8,298.5,197.8z M298.4,186.6
		C298.4,186.6,298.4,186.6,298.4,186.6c2.5,0,5,0.1,7.5,0c2.9-0.2,4.6-1.8,4.7-4.8c0.1-3.1-1.6-5.1-4.6-5.2c-4.8-0.2-9.7-0.2-14.5,0
		c-3.1,0.1-4.8,2.1-4.8,5.1c0.1,3,1.9,4.8,5.1,4.9C293.9,186.6,296.2,186.6,298.4,186.6z"/>
	<path d="M105.8,83.6c-3,0-6,0.1-9,0c-3.7-0.1-6.1-2.6-6-5.8c0.1-3.1,2.5-5.3,6-5.4c6.1-0.1,12.2-0.1,18.3,0
		c3.6,0.1,5.8,2.2,5.9,5.4c0.1,3.3-2.3,5.6-5.9,5.8c-0.2,0-0.5,0-0.7,0C111.5,83.6,108.7,83.6,105.8,83.6z"/>
	<path d="M105.8,101c-3.1,0-6.2,0.1-9.3,0c-3.2-0.1-5.5-2.5-5.6-5.4c-0.1-2.9,2.2-5.6,5.3-5.7c6.6-0.2,13.2-0.2,19.8,0
		c3.2,0.1,5.3,2.8,5.1,5.8c-0.1,3-2.3,5.1-5.6,5.3c-0.2,0-0.5,0-0.7,0C111.7,101,108.7,101,105.8,101C105.8,101,105.8,101,105.8,101
		z"/>
	<path d="M121.1,58.7c-0.1,3.2-2.7,5.6-5.9,5.4c-3-0.2-5.3-2.6-5.3-5.7c0.1-3,2.5-5.5,5.5-5.5C118.5,53,121.2,55.6,121.1,58.7z"/>
	<path class="st0" d="M165.8,154.9c-18.1-0.4-36.4-1.7-53.8-8.2c-3.4-1.3-6.7-2.8-9.7-4.7c-6.8-4.2-6.9-7.9,0.1-12
		c4.7-2.7,9.8-4.9,15-6.5c21.1-6.3,42.7-7.1,64.5-5.7c13.4,0.9,26.6,2.9,39.1,7.8c3.8,1.5,7.5,3.5,10.8,5.8c4.4,3.1,4.5,6.2-0.1,9.1
		c-4.8,3-10,5.7-15.4,7.4C200,153.4,183.1,154.6,165.8,154.9z"/>
	<path class="st0" d="M96.9,153.4c46.3,17.2,91.9,17.2,137.9,0.1c0,4.4,0.5,9.6-0.2,14.5c-0.4,2.2-3.1,4.8-5.3,5.7
		c-7.4,3.2-14.9,6.6-22.7,8.2c-30.2,6.4-60.5,6.2-90.4-2.4c-5.2-1.5-10.1-4.2-14.9-6.7c-3.2-1.7-4.7-4.5-4.4-8.4
		C97.1,160.6,96.9,156.8,96.9,153.4z"/>
	<path class="st0" d="M234.9,258.8c0,5.3,0.5,10-0.2,14.5c-0.3,2.2-2.4,5-4.4,5.9c-7.2,3.3-14.5,6.9-22.2,8.6
		c-30.6,6.7-61.2,6.7-91.5-1.9c-5.5-1.6-10.7-4.6-15.9-7.3c-2.8-1.5-4.1-4.1-3.9-7.5c0.2-4,0.1-8,0.1-12.4
		c22,11.1,45.4,13.5,69.1,13.5C189.5,272.2,212.8,269.9,234.9,258.8z"/>
	<path class="st0" d="M213.7,199.6c0,5.2,0.5,10.2-0.2,14.9c-0.4,2.3-2.8,5.1-4.9,6c-7.9,3.4-15.8,7.1-24.1,8.8
		c-29.8,6.1-59.6,6-89-2.4c-5.3-1.5-10.3-4.3-15.3-6.8c-3.2-1.6-4.9-4.3-4.5-8.3c0.3-3.8,0.1-7.7,0.1-12.1
		c21.9,11.1,45.3,13.5,68.9,13.5C168.3,213,191.7,210.8,213.7,199.6z"/>
	<path class="st0" d="M144.3,320.7c-18.1-0.6-36-2.1-53.1-8.3c-4.3-1.6-8.4-3.8-12.2-6.3c-4.4-3-4.5-6-0.2-8.8
		c4.9-3.1,10.4-5.3,15.7-7.7c0.7-0.3,1.9,0.1,2.7,0.6c12.2,7.1,25.8,10,39.5,11.8c24.6,3.2,49.1,2.7,73.4-2.6
		c0.9-0.2,2.7,0.1,2.9,0.6c0.4,1.1,0.5,3-0.1,3.7c-1.8,2-3.9,3.9-6.2,5.2c-10.2,5.7-21.5,8.1-32.9,9.6
		C164,319.5,154.1,319.9,144.3,320.7z"/>
	<path class="st0" d="M165.7,261.1c-18.2-0.2-36.2-1.6-53.4-8c-4.2-1.5-8.1-3.9-11.9-6.1c-1.3-0.8-2.4-2.3-3-3.7
		c-1-2.4,0.6-3.9,3.4-3.3c13.7,3.2,27.6,4.5,41.6,4.5c21.2,0.1,42.2-1.7,62.2-9.3c2.3-0.9,4.8-1.7,6.7-3.2c3-2.3,5.9-2.1,9-0.5
		c4.2,2.2,8.5,4.2,12.3,7c3.4,2.5,3.5,5.4,0,7.6c-5.3,3.3-11,6.5-16.9,8.4C199.4,259.8,182.6,260.9,165.7,261.1z"/>
	<path class="st0" d="M86.7,173.6c7.6,11.1,18.8,15,30.3,18c23.1,6.1,46.6,7,70.2,4.8c0.7-0.1,1.5-0.1,2.2-0.1c0,0.3,0.1,0.6,0.1,1
		c-8.5,1.2-16.9,2.9-25.4,3.6c-23.3,2.1-46.4,1.3-69-5.6c-5.7-1.8-11.3-4.7-16.4-7.9c-4.3-2.6-4.1-5.5-0.1-8.6
		C81.1,176.9,83.9,175.4,86.7,173.6z"/>
	<path class="st0" d="M232.8,224.3c0.8-2.9,3-3.9,5.7-3.9c4.1,0,8.2-0.1,12.3,0c3.8,0.1,5.9,2.2,5.8,5.4c-0.1,3-2.2,4.8-5.9,4.9
		c-0.1,0-0.3,0-0.4,0C243.4,231.9,237.9,229.2,232.8,224.3z"/>
	<path class="st0" d="M233.9,184.9c3.1-2.8,5.9-5.3,8.7-7.7c1.8-1.5,10.8-1,12.5,0.6c2.6,2.4,2,7.9-1.4,8.2c-6,0.6-12.1,0.1-18.2,0
		C235,186,234.5,185.4,233.9,184.9z"/>
	<path class="st0" d="M238.5,121.8c4.9,0,9.4-0.2,13.8,0.1c2.7,0.1,4.2,2,4.3,4.8c0.1,2.7-1.3,4.6-4,5c-3.5,0.5-7.1,1.2-8.9-3.6
		C242.9,126,240.6,124.3,238.5,121.8z"/>
	<path class="st0" d="M246.4,274.5c0-3.5,0-6.6,0-9.9c3.4-0.1,7.1-1.4,9.2,2.1c0.8,1.4,0.9,4.1,0.1,5.5
		C253.7,275.7,250,274.7,246.4,274.5z"/>
	<path class="st0" d="M365.7,74.2c-62.7,0-125.2,0-187.9,0c0-14.6,0-29,0-43.7c62.5,0,125.1,0,187.9,0
		C365.7,45,365.7,59.4,365.7,74.2z"/>
	<path class="st0" d="M298.8,230.6c-2.4,0-4.7,0.1-7.1,0c-3-0.2-5-1.9-5.1-4.9c-0.2-3.1,1.7-5.1,4.7-5.2c4.8-0.3,9.7-0.3,14.6,0
		c2.9,0.2,4.8,2.1,4.7,5.2c-0.1,3.1-2,4.7-5,4.9C303.3,230.8,301.1,230.6,298.8,230.6z"/>
	<path class="st0" d="M298.6,274.6c-2.4,0-4.7,0.2-7.1,0c-3-0.3-4.8-2.1-4.9-5.1c-0.1-2.8,2.2-4.9,5.4-5c4.5-0.1,9-0.1,13.4,0
		c3,0.1,5,1.6,5.2,4.8c0.2,3.4-1.8,5.1-4.9,5.4C303.3,274.8,300.9,274.7,298.6,274.6C298.6,274.6,298.6,274.6,298.6,274.6z"/>
	<path class="st0" d="M352.6,230.6c-2.4,0-4.7,0.1-7.1,0c-3-0.2-4.9-2-4.9-5.1c-0.1-2.9,1.7-4.9,4.5-5c5-0.3,10-0.3,14.9,0
		c3,0.2,4.7,2.2,4.5,5.4c-0.2,2.9-2,4.5-4.8,4.7C357.4,230.8,355,230.6,352.6,230.6z"/>
	<path class="st0" d="M352.6,274.6c-2.4,0-4.7,0.2-7.1,0c-3.2-0.3-5.3-2.6-5-5.4c0.4-3,2.2-4.7,5.3-4.7c4.5-0.1,9-0.1,13.4,0
		c3,0.1,5,1.6,5.3,4.7c0.3,2.9-1.6,5.2-4.8,5.5C357.4,274.8,355,274.6,352.6,274.6z"/>
	<path class="st0" d="M352.6,121.8c2.2,0,4.5-0.1,6.7,0c3.3,0.1,5.3,2.1,5.2,5c-0.1,3.1-1.9,4.9-4.9,5c-4.7,0.1-9.5,0.1-14.2,0
		c-3.1-0.1-4.9-2-4.9-5c0-3,1.8-4.8,4.9-5C347.9,121.7,350.3,121.8,352.6,121.8C352.6,121.8,352.6,121.8,352.6,121.8z"/>
	<path class="st0" d="M298.8,121.8c2.4,0,4.7-0.1,7.1,0c2.9,0.2,4.6,1.9,4.7,4.8c0.1,3.1-1.6,5-4.7,5.2c-4.8,0.2-9.7,0.2-14.5,0
		c-3.1-0.1-4.8-2.1-4.7-5.1c0.1-3,2-4.8,5.1-4.8C294.1,121.7,296.4,121.8,298.8,121.8C298.8,121.8,298.8,121.8,298.8,121.8z"/>
	<path class="st0" d="M352.4,186.6c-2.2,0-4.5,0.1-6.7,0c-3.1-0.1-5-1.8-5-4.9c-0.1-3,1.7-5,4.8-5.1c4.8-0.2,9.7-0.2,14.5,0
		c3.1,0.1,4.7,2.1,4.6,5.2c-0.1,2.9-1.8,4.6-4.7,4.7C357.3,186.7,354.8,186.6,352.4,186.6C352.4,186.6,352.4,186.6,352.4,186.6z"/>
	<path class="st0" d="M298.4,186.6c-2.2,0-4.5,0.1-6.7,0c-3.1-0.1-5-1.9-5.1-4.9c-0.1-3,1.7-5,4.8-5.1c4.8-0.2,9.7-0.2,14.5,0
		c3.1,0.1,4.7,2.1,4.6,5.2c-0.1,2.9-1.8,4.6-4.7,4.8C303.4,186.7,300.9,186.6,298.4,186.6C298.4,186.6,298.4,186.6,298.4,186.6z"/>
</g>
</svg>
