<?xml version="1.0" encoding="utf-8"?>
<!-- Generator: Adobe Illustrator 22.1.0, SVG Export Plug-In . SVG Version: 6.00 Build 0)  -->
<svg version="1.1" id="Слой_1" xmlns="http://www.w3.org/2000/svg" xmlns:xlink="http://www.w3.org/1999/xlink" x="0px" y="0px"
	 viewBox="0 0 409.3 363.7" style="enable-background:new 0 0 409.3 363.7;" xml:space="preserve">
<g>
	<path d="M204.2,363.6c-55.9,0-111.7-0.1-167.6,0c-15.2,0-26.9-5.9-33.2-19.8c-5.1-11.1-4.3-22.5,1.9-33.3
		c10.7-18.4,21.3-36.9,32-55.4c45.4-78.7,90.8-157.3,136.2-236c7.8-13.6,19.1-20.5,34.9-19c12.1,1.1,20.7,7.6,26.7,18
		c9.2,16,18.5,32.1,27.8,48.1c13.5,23.4,27,46.8,40.5,70.2c3.7,6.3,3.2,10.9-1.3,13.6c-4.5,2.7-8.9,0.8-12.5-5.5
		c-22.6-39.1-45.2-78.2-67.7-117.3c-4.5-7.9-10.8-12.4-20.2-11.1c-6.8,0.9-11.1,5.3-14.3,10.9c-16.2,28.2-32.5,56.3-48.7,84.4
		C99,180.2,59.4,248.9,19.8,317.5c-5.4,9.3-5.2,16.7,0.6,23.7c3,3.6,6.9,5.8,11.7,6.2c1.7,0.2,3.5,0.2,5.2,0.2
		c111.6,0,223.2,0,334.8,0c10.7,0,17.1-4,20.2-12.4c2.3-6.3,0.5-12-2.7-17.5c-19.4-33.5-38.8-67.1-58.1-100.7
		c-2.6-4.5-5.2-9-7.8-13.5c-3-5.4-2.3-10.1,1.9-12.6c4.3-2.5,8.8-0.8,11.9,4.6c19.3,33.3,38.5,66.7,57.7,100
		c3.6,6.2,7.4,12.4,10.6,18.8c11,22.1-4.6,48.4-29.2,49.1c-17.3,0.5-34.7,0.2-52,0.2C284.4,363.6,244.3,363.6,204.2,363.6z"/>
	<path d="M230.2,180.2c0,12,0.2,24-0.1,36c-0.2,11-5.4,19.2-15.6,23.5c-9.8,4.2-19.1,2.4-27.1-4.6c-5.6-4.9-8.3-11.4-8.4-18.8
		c-0.1-24.1-0.2-48.2,0-72.3c0.2-14.5,11.4-25.4,25.5-25.4c14.2,0,25.2,11,25.6,25.7c0,0.3,0,0.5,0,0.8
		C230.2,156.8,230.2,168.5,230.2,180.2C230.2,180.2,230.2,180.2,230.2,180.2z M214.2,180.5c0-11.9,0.1-23.7,0-35.6
		c-0.1-6.1-4.1-10.2-9.4-10.3c-5.4-0.1-9.6,4-9.7,10.1c-0.1,23.7-0.1,47.4,0,71.2c0,4.3,2.1,7.7,6.3,9.3c6.7,2.5,12.7-2.3,12.8-10.2
		C214.3,203.4,214.2,191.9,214.2,180.5z"/>
	<path d="M204.7,312.2c-14,0.1-25.7-11.7-25.7-25.7c0.1-13.9,11.6-25.4,25.5-25.5c14-0.1,25.7,11.7,25.7,25.7
		C230.1,300.6,218.6,312.2,204.7,312.2z M204.5,296.2c5,0,9.5-4.4,9.6-9.4c0.1-5-4.3-9.5-9.3-9.7c-5.1-0.2-9.8,4.5-9.8,9.6
		C195.1,291.7,199.5,296.1,204.5,296.2z"/>
	<path d="M307.6,173.5c0-4.4,3.5-7.9,7.8-7.9c4.3,0,7.9,3.6,7.9,7.8c0,4.3-3.6,7.8-7.9,7.9C311.1,181.3,307.6,177.9,307.6,173.5z"/>
</g>
</svg>
