<?xml version="1.0" encoding="utf-8"?>
<!-- Generator: Adobe Illustrator 22.1.0, SVG Export Plug-In . SVG Version: 6.00 Build 0)  -->
<svg version="1.1" id="Слой_1" xmlns="http://www.w3.org/2000/svg" xmlns:xlink="http://www.w3.org/1999/xlink" x="0px" y="0px"
	 viewBox="0 0 409.6 395.4" style="enable-background:new 0 0 409.6 395.4;" xml:space="preserve">
<g>
	<path d="M0,53.7c0.4-1.8,0.9-3.5,1.3-5.3C7.8,19.3,31.9,0.1,62.2,0.1c65.7-0.1,131.5,0,197.2,0c29.7,0,59.5-0.1,89.2,0
		C378,0.3,402,19.7,408.2,48.3c1,4.5,1.4,9.2,1.4,13.9c0.1,74.9,0.1,149.8,0,224.8c0,32.3-22.1,57.5-53.9,61.7
		c-3.3,0.4-6.7,0.3-10,0.3c-47.3,0-94.7,0-142,0.1c-2.6,0-5.6,0.8-7.8,2.2c-21.9,13.5-43.7,27.2-65.4,40.8c-3.7,2.3-7.6,4-12.1,2.9
		c-6-1.4-10-6.3-10.1-13.2c-0.2-15.2-0.2-30.4,0-45.6c0.1-7.9,5.9-13.3,13.1-13.3c7.4,0.1,12.9,5.8,13,13.8c0.1,7,0,14.1,0,21.7
		c1.7-0.9,3-1.6,4.2-2.3c15.7-9.8,31.5-19.5,47.1-29.5c4.2-2.7,8.6-3.8,13.6-3.8c48.8,0.1,97.6,0,146.4,0.1c9.5,0,18.2-2,25.6-8.4
		c6.9-5.9,10.8-13.4,11.9-22.4c0.3-2.1,0.3-4.3,0.3-6.4c0-74.1,0-148.2,0-222.4c0-15.1-5.9-26.8-19.6-33.4c-5-2.4-11-3.5-16.6-3.5
		c-94.9-0.2-189.8-0.2-284.8-0.1c-21.6,0-36.1,14.7-36.1,36.3c-0.1,74.5,0,149,0,223.6c0,21.9,14.3,36.3,36.2,36.6
		c8,0.1,16-0.2,24,0.1c9.5,0.3,15.4,8.4,12.7,16.9c-1.5,4.9-5,8.6-9.9,8.7c-14.9,0.3-30,2.4-44.5-1.9c-24.6-7.3-39.2-24-44-49.3
		c-0.1-0.7-0.5-1.4-0.8-2.2C0,214.8,0,134.2,0,53.7z"/>
	<path d="M176.5,165.8c13.8-16.2,27.4-32.1,41-48.1c7.3-8.6,12.6-9.4,22.1-3.4c12.2,7.7,24.3,15.4,36.7,23.2
		c0.8-0.9,1.6-1.8,2.3-2.7c13.1-17.4,26.2-34.7,39.2-52.1c2.7-3.7,5.9-6.5,10.7-6.9c5.1-0.4,9.2,1.4,12,5.7c2.9,4.4,3,9,0.5,13.6
		c-0.7,1.3-1.6,2.4-2.5,3.6c-15.6,20.8-31.2,41.6-46.8,62.3c-6.1,8.1-12.4,9.3-21.1,3.8c-12.7-8-25.4-16.1-38.3-24.2
		c-10.4,12.2-20.7,24.3-31,36.3c-3.5,4.1-6.9,8.1-10.4,12.2c-5.5,6.3-11,7.5-18.5,3.7c-12.4-6.2-24.8-12.3-37.1-18.7
		c-2.5-1.3-3.8-1-5.8,0.9c-13,12.6-26.2,25-39.3,37.6c-3.8,3.6-8,5.7-13.4,4.4c-9.6-2.4-13.3-13.7-6.8-21.2c2.8-3.2,6-6,9.1-9
		c13.2-12.6,26.5-25.2,39.7-37.8c6.5-6.2,11.1-6.8,19.1-2.8C150.8,152.8,163.5,159.2,176.5,165.8z"/>
	<path d="M316.7,206.8c0-17.5-0.1-34.9,0-52.4c0-8.2,5.4-13.7,13-13.7c6.7,0,12,4.6,12.9,11.3c0.2,1.7,0.3,3.5,0.3,5.2
		c0,33.2,0,66.4,0,99.6c0,1.7,0,3.5-0.3,5.2c-0.9,6.8-6.5,11.6-13.2,11.4c-6.9-0.2-12.5-5.5-12.6-12.5
		C316.6,242.8,316.7,224.8,316.7,206.8C316.7,206.8,316.7,206.8,316.7,206.8z"/>
	<path d="M216.7,219.3c0-13.1,0-26.1,0-39.2c0-8.5,5.2-14.2,12.8-14.4c7.6-0.2,13.3,5.7,13.4,14.3c0.1,26.4,0.1,52.7,0,79.1
		c0,7.9-4.5,13.1-11.5,14c-6.5,0.8-12.3-2.9-14.1-9.2c-0.5-1.7-0.6-3.7-0.6-5.5C216.7,245.4,216.7,232.4,216.7,219.3z"/>
	<path d="M292.8,227.4c0,10.5,0,21,0,31.6c0,8.4-5.2,14.2-12.8,14.3c-7.7,0.2-13.4-5.7-13.4-14.3c-0.1-20.9-0.1-41.8,0-62.7
		c0-8.4,5.5-14.1,13.1-14.1c7.8,0,13.1,5.7,13.1,14.4C292.9,206.9,292.8,217.2,292.8,227.4z"/>
	<path d="M116.8,236.5c0-7.7-0.1-15.4,0-23.2c0.1-7.8,5.3-13.4,12.6-13.8c7.1-0.3,13.3,5.2,13.5,12.9c0.3,16,0.3,31.9,0,47.9
		c-0.1,7.8-6.1,13.1-13.4,12.9c-7.3-0.2-12.5-5.9-12.7-13.6c0-0.3,0-0.5,0-0.8C116.8,251.4,116.8,243.9,116.8,236.5z"/>
	<path d="M192.9,237.7c0,7.3,0.1,14.6,0,22c-0.1,7.9-5.3,13.4-12.7,13.6c-7.1,0.2-13.1-4.9-13.3-12.5c-0.4-15.3-0.4-30.6,0-45.9
		c0.2-7.9,6.2-12.9,13.6-12.6c7.2,0.3,12.3,5.8,12.4,13.5C192.9,223.1,192.9,230.4,192.9,237.7z"/>
	<path d="M92.9,249.3c0,3.9,0.1,7.7,0,11.6c-0.3,7-5.7,12.2-12.6,12.4c-6.9,0.2-12.8-4.7-13.2-11.7c-0.4-8.3-0.4-16.7,0-25.1
		c0.3-7,6.3-11.8,13.3-11.6c6.8,0.2,12.2,5.5,12.5,12.5C93,241.3,92.9,245.3,92.9,249.3z"/>
</g>
</svg>
