<?xml version="1.0" encoding="utf-8"?>
<!-- Generator: Adobe Illustrator 22.1.0, SVG Export Plug-In . SVG Version: 6.00 Build 0)  -->
<svg version="1.1" id="Слой_1" xmlns="http://www.w3.org/2000/svg" xmlns:xlink="http://www.w3.org/1999/xlink" x="0px" y="0px"
	 viewBox="0 0 305.7 384.2" style="enable-background:new 0 0 305.7 384.2;" xml:space="preserve">
<g>
	<path d="M156.6,0c5.8,1.7,10.2,5.4,14.5,9.5C191.9,29.1,216.9,41,244.5,47c13.7,3,27.9,4.2,41.8,6c10.8,1.4,18.7,8.9,18.9,19.8
		c0.4,18.2,0.2,36.5,0.1,54.7c0,4-2.2,6.1-5.6,6.1c-3.5,0-5.5-2.3-5.6-6.6c-0.1-17.1,0-34.2,0-51.4c0-7.7-2.9-10.9-10.6-11.6
		c-0.9-0.1-1.8-0.1-2.6-0.2c-14.4-2.2-29-3.6-43.2-6.9c-29.5-7.1-55.8-20.6-77.6-42.3c-4.7-4.6-9.9-4.6-14.5,0
		c-27.5,27.2-61.4,40.8-98.8,46.8c-7.8,1.2-15.6,1.8-23.5,2.5c-8.9,0.8-11.8,3.7-11.8,12.5c0,50.9-0.3,101.7,0.1,152.6
		c0.3,45.4,20.6,79.7,59.6,102.7c20,11.8,40.2,23.3,60.3,34.9c14.1,8.1,28.2,8.3,42.3,0.2c20.6-11.8,41.3-23.4,61.6-35.6
		c38.3-23,58-57.1,58.7-101.8c0.3-24,0.1-48,0.1-72c0-5.8,1.7-8.5,5.5-8.7c3.9-0.1,5.8,2.7,5.8,8.7c-0.1,26.5,0.9,53-0.4,79.5
		c-2.2,43.8-22.6,77.9-59.7,101.3c-21.9,13.9-44.7,26.4-67.4,39.1c-16.8,9.4-34,9.1-50.7-0.3c-21.9-12.3-43.8-24.5-65.1-37.8
		C22.8,315,1.5,279.4,0.6,233.2c-1.1-53-0.3-106-0.3-159c0-12.1,7.6-20.3,19.8-21.2c20.8-1.5,41.2-4.6,60.9-11.6
		c21.5-7.6,40.7-18.9,57-34.9c3-2.9,7.4-4.4,11.1-6.5C151.6,0,154.1,0,156.6,0z"/>
	<path d="M275.1,165.3c0,21.1,0.2,42.2,0,63.4c-0.3,37.8-16.8,66.7-49.3,86.1c-20.3,12.1-40.9,23.6-61.3,35.4
		c-7.4,4.3-14.9,4.8-22.4,0.5c-22.2-12.8-44.7-25-66.3-38.7c-29-18.3-44.1-45.4-45.1-79.6c-0.7-25.4-0.2-50.7-0.2-76.1
		c0-5,2.1-7.7,5.7-7.6c3.5,0.1,5.5,2.8,5.5,7.5c0,24-0.1,48,0,72c0.1,34.3,15.1,60.1,44.7,77.4c20.1,11.7,40.2,23.2,60.3,34.9
		c3.9,2.3,7.7,2.5,11.6,0.2c21.6-12.5,43.5-24.5,64.7-37.7c26.4-16.4,40.1-40.8,40.5-71.8c0.5-44.9,0.1-89.7,0.2-134.6
		c0-3-1-4.1-4-4.5c-38.3-5.2-73.6-17.8-104.6-41.5c-1.8-1.4-3.1-1.5-4.9,0C119.5,74.4,84.1,87,45.8,92.2c-3.2,0.4-4.1,1.7-4.1,4.8
		c0.2,9.9,0.1,19.7,0.1,29.6c0,4.5-2,6.9-5.5,7c-3.7,0.1-5.7-2.4-5.8-7.1c0-10.1,0-20.2,0-30.4c0-8.9,4.4-13.9,13.3-15
		c18.4-2.4,36.3-6.8,53.6-13.5c16.6-6.5,32.1-15,46.3-25.9c6.2-4.8,11.8-4.9,17.8-0.3c29.4,22.5,63,34.6,99.4,39.6
		c10.2,1.4,14.2,5.9,14.2,16.1C275.1,119.8,275.1,142.6,275.1,165.3z"/>
	<path d="M130.1,201.3c8.8-8.8,17.3-17.3,25.8-25.8c0.9-0.9,1.7-1.8,2.7-2.6c2.5-2,5.1-2,7.5,0.1c2.3,1.9,2.4,5.2,0.4,7.8
		c-0.5,0.6-1,1.1-1.5,1.6c-9.8,9.8-19.6,19.6-29.4,29.4c-4.1,4.1-6.7,4-10.8,0c-9.3-9.3-18.5-18.6-27.9-27.8
		c-5.1-5-11.2-6.5-17.9-4.1c-6.6,2.3-10.3,7.3-11.2,14.2c-0.7,5.3,1,10,4.7,13.7c15.2,15.3,30.5,30.7,45.9,45.8
		c7.1,7,17.3,6.5,24.7-1c26.5-26.5,53-53,79.5-79.5c3.4-3.4,6.9-6.8,10.3-10.4c7-7.3,7-17.7,0.1-24.5c-6.8-6.6-17.2-6.5-24.2,0.4
		c-7.3,7.2-14.5,14.5-21.8,21.7c-0.8,0.8-1.6,1.6-2.4,2.3c-2.6,2-5.7,1.9-7.7-0.5c-2.1-2.4-2.3-5.2,0-7.4c9-9,17.6-18.5,27.3-26.8
		c10.9-9.3,27.4-7.5,37.4,2.9c10,10.4,10.6,26.6,1.4,37.6c-1.1,1.3-2.4,2.6-3.6,3.8c-29.2,29.2-58.3,58.3-87.5,87.5
		c-13.4,13.4-29.9,13.4-43.3,0c-14.7-14.7-29.5-29.2-44-44c-15.4-15.8-8.1-41.9,13.2-47.3c10.5-2.7,19.8,0.2,27.5,7.9
		C113.5,184.5,121.6,192.8,130.1,201.3z"/>
</g>
</svg>
