<?xml version="1.0" encoding="utf-8"?>
<!-- Generator: Adobe Illustrator 22.1.0, SVG Export Plug-In . SVG Version: 6.00 Build 0)  -->
<svg version="1.1" id="Слой_1" xmlns="http://www.w3.org/2000/svg" xmlns:xlink="http://www.w3.org/1999/xlink" x="0px" y="0px"
	 viewBox="0 0 384 384" style="enable-background:new 0 0 384 384;" xml:space="preserve">
<g>
	<path d="M384,102c0,60,0,120,0,180c-1.4,6.7-2.3,13.5-4.2,20.1c-5.6,20.1-17.4,36.2-32.2,50.6c-21,20.4-45.8,31.3-75,31.3
		c-53.7,0.2-107.5,0-161.2,0c-11.1,0-21.9-1.7-32.4-5.1c-18.6-5.9-33.7-17-47.2-30.8C11,326.9,0,301.7,0,271.8
		c0-53.2,0-106.5,0.1-159.7c0-5.2,0.4-10.5,1-15.7C5.9,53.6,45.5,14.8,79.1,5.2c7.8-2.2,15.8-3.5,23.7-5.2c59.5,0,119,0,178.5,0
		c7.8,1.6,15.7,2.7,23.3,5c21.9,6.5,38.8,20.5,53.5,37.3c10.7,12.3,18.4,26.3,22.4,42.2C382,90.3,382.9,96.2,384,102z M30,192
		c0,26.7-0.2,53.5,0.1,80.2c0.1,6.9,1.1,14,2.7,20.7c3.9,16.1,14,28.4,25.8,39.6c14.9,14.1,32.3,21.5,52.8,21.5
		c53.7,0.1,107.5,0.1,161.2-0.1c6.7,0,13.5-1.1,20-2.7c17.8-4.2,30.9-15.7,42.7-29c12.3-14,18.6-30.3,18.7-48.9
		c0.1-54.1,0.1-108.2-0.1-162.4c0-6.5-1.1-13.2-2.7-19.6c-3.9-15.6-13.4-27.6-24.7-38.6c-15.2-14.8-33-22.6-54.2-22.6
		c-53.6-0.1-107.2-0.1-160.9,0.1c-5.7,0-11.5,0.8-17.1,1.9c-16.4,3.4-29.2,12.7-40.8,24.4C38.2,72,29.9,90.4,30,112.5
		C30.1,139,30,165.5,30,192z"/>
	<path d="M229.1,207c-25.7,0-50.4,0-75.1,0c-11.6,0-23.2,0-34.9,0c-9.3,0-16.2-6.6-16.1-15.1c0.1-8.5,6.9-14.8,16-14.8
		c35.1,0,70.2,0,105.3,0c1.3,0,2.7,0,4.7,0c-1.4-1.5-2.3-2.5-3.2-3.4c-9.9-9.9-19.8-19.8-29.7-29.7c-4.4-4.5-5.9-9.8-3.7-15.8
		c2.1-5.8,6.4-9.1,12.5-9.9c4.6-0.6,8.7,0.9,12,4.1c19.8,19.8,39.7,39.5,59.4,59.4c5.9,5.9,5.9,14.7,0.1,20.6
		c-19.8,20-39.6,39.9-59.6,59.6c-6,5.9-15.2,5.4-20.9-0.5c-5.7-5.9-5.8-14.9,0.1-20.9c9.9-10.1,19.9-20,29.9-30
		C226.7,209.6,227.6,208.6,229.1,207z"/>
</g>
</svg>
