<svg width="17" height="16" viewBox="0 0 17 16" fill="none" xmlns="http://www.w3.org/2000/svg">
  <path d="M9.91337 10.2666L12.9734 7.20655C13.0975 7.08164 13.1672 6.91267 13.1672 6.73655C13.1672 6.56043 13.0975 6.39146 12.9734 6.26655C12.9114 6.20406 12.8377 6.15447 12.7564 6.12062C12.6752 6.08678 12.588 6.06935 12.5 6.06935C12.412 6.06935 12.3249 6.08678 12.2437 6.12062C12.1624 6.15447 12.0887 6.20406 12.0267 6.26655L8.97337 9.33322C8.9114 9.3957 8.83766 9.4453 8.75642 9.47914C8.67519 9.51299 8.58805 9.53042 8.50004 9.53042C8.41203 9.53042 8.3249 9.51299 8.24366 9.47914C8.16242 9.4453 8.08868 9.3957 8.02671 9.33322L4.97337 6.26655C4.84872 6.14101 4.67931 6.07014 4.5024 6.06951C4.32549 6.06889 4.15558 6.13857 4.03004 6.26322C3.9045 6.38787 3.83363 6.55728 3.833 6.73419C3.83238 6.9111 3.90205 7.08101 4.02671 7.20655L7.08671 10.2666C7.46171 10.6411 7.97004 10.8515 8.50004 10.8515C9.03004 10.8515 9.53837 10.6411 9.91337 10.2666Z" fill="#000"/>
</svg>
