<?xml version="1.0" encoding="utf-8"?>
<!-- Generator: Adobe Illustrator 22.1.0, SVG Export Plug-In . SVG Version: 6.00 Build 0)  -->
<svg version="1.1" id="Слой_1" xmlns="http://www.w3.org/2000/svg" xmlns:xlink="http://www.w3.org/1999/xlink" x="0px" y="0px"
	 viewBox="0 0 383.8 384" style="enable-background:new 0 0 383.8 384;" xml:space="preserve">
<g>
	<path d="M383.8,203.3c-1,7.2-1.6,14.4-2.9,21.5c-10.5,56.5-40,100.3-88.7,130.8c-32.5,20.4-68.3,29.6-106.6,28.4
		c-36.5-1.2-70.2-12-100.6-32.4c-3.1-2.1-5.7-2.6-9.2-1.6c-14.2,4-28.4,7.7-42.6,11.5c-8.4,2.2-12.9-2.3-10.7-10.7
		c4-14.8,7.9-29.7,12-44.4c0.6-2.3,0.3-3.9-1-5.8c-18.5-26.9-29.7-56.6-32.5-89.1C-4.5,150.6,14.3,98.2,57.5,55.1
		c30-30,66.7-47.3,108.6-53.4c4.8-0.7,9.6-1.1,14.5-1.7c7.5,0,15,0,22.5,0c7.5,1,15.1,1.7,22.6,3.1c26.8,4.7,51.4,14.9,74,30.2
		c4.2,2.8,5.3,7.4,2.8,11c-2.5,3.6-6.9,4.3-11.3,1.4c-19.7-13.3-41.2-22.4-64.5-27.1C132.5-0.6,39.9,59.4,19.5,153.5
		c-11.1,50.9-1.6,98.2,28.3,141.1c2.8,4,3.4,7.6,2.1,12.2c-3.2,11-6,22.2-9,33.2c-0.3,1-0.4,2.1-0.8,3.8c6.9-1.8,13.2-3.4,19.6-5.1
		c5.8-1.5,11.6-2.9,17.3-4.8c4.6-1.5,8.3-0.7,12.2,2.1c16.2,11.8,34,20.4,53.3,25.8c100.1,28.1,202.1-33,222.6-134.9
		c9.5-47.4,0.6-91.5-25.5-132.2c-0.5-0.7-1-1.5-1.4-2.2c-2.8-4.4-2.2-8.8,1.5-11.3c3.6-2.5,8.2-1.5,10.9,2.9
		c4.5,7.3,9.1,14.6,13,22.3c11.3,22.3,17.8,46,19.6,71c0.1,1.1,0.4,2.2,0.6,3.2C383.8,188.3,383.8,195.8,383.8,203.3z"/>
	<path d="M265.6,147.7c-1.1,25.2-13.6,47.4-38.7,61.9c-7.8,4.5-12.4,9.9-13,19.3c-0.8,13.6-11.8,22.6-25.1,21.8
		c-12.7-0.8-22.2-11.2-21.8-24.4c0.7-24.9,12.2-43.7,33.7-55.9c9.7-5.5,16.4-12.5,17.5-23.9c1.2-13.2-8.5-26.3-22-29.7
		c-12.4-3.1-26.1,3.9-31.4,16c-0.6,1.5-1.1,3-1.8,4.5c-5.3,11.6-18.5,16.9-30.2,12.3c-11.9-4.7-17.9-17.5-13.6-29.9
		c18.5-53,86.3-69.6,126.3-25.9C258.7,108,265.6,124.7,265.6,147.7z M250.6,148.1c0.1-43.4-38.9-73-76.8-61.9
		c-19.6,5.7-32.9,18.7-40.1,37.9c-1.9,5.1,0.1,9.7,4.6,11.5c4.6,1.9,9.3-0.4,11.5-5.5c0.3-0.8,0.6-1.6,0.9-2.4
		c8.3-20.3,31.1-31.3,51.7-24.9c21.4,6.6,34.6,28.7,29.9,50.2c-3.1,14.2-11.9,23.6-24.4,30.5c-16.7,9.3-25.4,23.9-26,43.1
		c-0.2,5.2,3.2,8.9,7.9,9.1c5,0.3,8.6-2.9,9.2-8.3c0.2-2,0.1-4,0.5-6c2.2-11.4,9.1-18.9,19.1-24.5
		C239.4,185.6,249.7,167.6,250.6,148.1z"/>
	<path d="M190.5,315.2c-13.1,0-23.5-10.5-23.5-23.6c0-13,10.6-23.6,23.6-23.6c12.9,0.1,23.6,10.8,23.6,23.7
		C214.1,304.7,203.5,315.2,190.5,315.2z M190.5,300.1c4.8,0,8.6-3.8,8.6-8.5c0-4.6-3.9-8.6-8.6-8.6c-4.7,0-8.5,3.8-8.5,8.6
		C182,296.4,185.7,300.1,190.5,300.1z"/>
	<path d="M329.7,61.8c-0.1,4-3.5,7.3-7.6,7.3c-4.2,0-7.5-3.5-7.3-7.8c0.2-4,3.7-7.3,7.7-7.1C326.5,54.3,329.8,57.8,329.7,61.8z"/>
</g>
</svg>
