<?xml version="1.0" encoding="utf-8"?>
<!-- Generator: Adobe Illustrator 22.1.0, SVG Export Plug-In . SVG Version: 6.00 Build 0)  -->
<svg version="1.1" id="Слой_1" xmlns="http://www.w3.org/2000/svg" xmlns:xlink="http://www.w3.org/1999/xlink" x="0px" y="0px"
	 viewBox="0 0 168.2 336" style="enable-background:new 0 0 168.2 336;" xml:space="preserve">
<g>
	<path d="M24.1,156.9c0,31.6-0.1,63.2,0,94.9c0.1,29,19.6,53,48,59c36.4,7.8,71.7-20.3,71.9-57.7c0.3-39.9,0.1-79.7,0.1-119.6
		c0-16,0-32,0-48c0-8,4.9-13.4,11.9-13.4c7.1,0,12,5.4,12,13.4c0,55.5,0.1,111,0,166.5c-0.1,48.5-39.9,86.2-88.3,84.1
		c-43.3-1.9-79.4-38.4-79.6-81.8C-0.1,189,0,123.7,0.2,58.5C0.3,27.8,25.5,2,56.2,0.1c31.6-1.9,59.3,20.7,63.3,51.7
		c0.4,2.7,0.6,5.5,0.6,8.2c0,55.7,0.1,111.5,0,167.2c0,20.7-15.8,36.8-36,36.8c-19.7,0-35.8-15.8-35.9-35.7
		c-0.2-24.2,0-48.5-0.1-72.7c0-23.7,0-47.5,0-71.2c0-5.7,3.1-10,8.3-11.7c4.8-1.6,10.3-0.3,13,4c1.6,2.5,2.6,5.8,2.6,8.7
		c0.2,24.6,0.1,49.2,0.1,73.9c0,22.7,0,45.5,0,68.2c0,6.6,4.5,11.7,10.6,12.5c5.9,0.7,11.4-3.1,12.9-9c0.3-1.2,0.4-2.5,0.4-3.7
		c0-55.7,0.1-111.5,0-167.2c0-18.7-13.8-33.7-32.3-35.8c-17.4-2-34.2,9.7-38.5,27.1c-0.9,3.5-1.1,7.2-1.1,10.8
		C24.1,93.6,24.1,125.3,24.1,156.9z"/>
</g>
</svg>
