<?xml version="1.0" encoding="utf-8"?>
<!-- Generator: Adobe Illustrator 22.1.0, SVG Export Plug-In . SVG Version: 6.00 Build 0)  -->
<svg version="1.1" id="Слой_1" xmlns="http://www.w3.org/2000/svg" xmlns:xlink="http://www.w3.org/1999/xlink" x="0px" y="0px"
	 viewBox="0 0 489.8 418.6" style="enable-background:new 0 0 489.8 418.6;" xml:space="preserve">
<g>
	<path d="M489.8,270.1c-2.9,9-4.6,18.7-8.9,27c-24.8,48.3-87.3,58.9-126.1,22.8c-16.6-15.5-24.8-34.8-25.4-57.3
		c-0.1-2.9,2.2-6,3.7-8.8c1.3-2.3,3.7-3.9,4.7-6.2c18.7-39.8,37.3-79.6,55.9-119.4c0.7-1.4,1.2-2.9,2-4.8
		c-11.3-3.2-22.3-6.4-33.2-9.5c-24.9-7.2-49.9-14.3-74.8-21.6c-3.4-1-5.4-0.7-7.4,2.4c-5.3,8.2-13,13.5-22.1,16.6
		c-2.3,0.8-3.4,1.6-3.4,4.2c0.1,64.1,0.1,128.2,0.1,192.4c0,0.5,0.2,0.9,0.4,2.2c1.9,0,3.8,0,5.8,0c9.9,0.3,20-0.6,29.6,1.2
		c19.4,3.6,31.4,19,31.8,39.2c0.1,3.9,1.2,5.4,4.9,6.6c16.3,5,26.8,20.2,27.3,38.7c0.1,2.9,0,5.7,0,8.6c0,10.8-3.6,14.4-14.2,14.4
		c-63.8,0-127.6,0-191.4,0c-1.4,0-2.9,0-4.3-0.1c-4.9-0.5-8.6-3.3-9.2-8.3c-1.6-13.8-1.5-27.4,7.4-39.3c4.7-6.3,10.6-11.2,18.1-13.6
		c4.5-1.4,6.1-3.2,6.2-8.1c0.6-19.5,12.4-33.7,31.3-38.2c4.1-1,8.5-1,12.8-1.1c7.6-0.2,15.2,0,23.4,0c0-2.3,0-4,0-5.7
		c0-62.4,0-124.7,0.1-187.1c0-4-1.4-5.3-4.9-6.7c-16.6-6.3-26.5-18.4-28.4-36.2c-0.6-5-2-7.5-7.2-9c-30.7-8.4-61.3-17.4-91.9-26.1
		c-1.2-0.3-2.4-0.6-4.5-1.1c0.8,2,1.2,3.4,1.8,4.7c17.2,36.8,34.3,73.6,51.6,110.4c0.9,2,3.3,3.3,4.4,5.2c1.8,3,4.5,6.3,4.4,9.5
		c-1.3,32.3-16.7,56.4-45.5,70.4c-28.8,14-57.1,11-82.9-8c-21-15.5-31-37.1-31.7-62.9c-0.1-2.7,1.9-5.6,3.4-8
		c1.7-2.8,4.4-4.9,5.8-7.8c18.4-39.2,36.7-78.5,55-117.7c0.7-1.4,1.3-2.9,2.2-4.9c-7.8-2.2-15.2-4.4-22.6-6.6
		c-3.5-1-7.1-1.8-10.5-3.1c-5.4-2-8-7-6.5-12.2c1.3-4.7,5.7-7.6,11.2-6.7c4.2,0.7,8.3,2,12.5,3.2c50.5,14.5,101,29,151.5,43.6
		c3.7,1.1,5.5,0.5,7.7-2.8c9.8-14.6,29-21.4,46.4-17c17.3,4.5,30.7,19.7,32.1,37.5c0.4,5.4,2.3,7.7,7.6,9.2
		c52.6,14.8,105,30,157.5,45c4.3,1.2,8.8,2.6,9.6,7.5c0.5,3.1-0.4,7-2.1,9.7c-2.4,3.8-6.8,3.7-10.9,2.7c-5.9-1.5-11.6-3.3-17.5-5
		c-1.5-0.4-3-0.8-5.2-1.4c0.9,2.1,1.4,3.5,2,4.9c17.2,36.8,34.2,73.6,51.7,110.3c2,4.2,6,7.4,9.1,11.1
		C489.8,262.4,489.8,266.3,489.8,270.1z M79.9,46.7c-17.2,36.8-33.9,72.7-50.9,109.1c34.3,0,67.7,0,101.9,0
		C113.8,119.5,97.1,83.7,79.9,46.7z M409.2,141.6c-17.3,37-34,72.9-50.8,109c34.3,0,67.8,0,101.7,0
		C443.1,214.3,426.4,178.4,409.2,141.6z M350.3,271.2c3.8,27.3,29.7,51.8,62.9,49.7c29.7-1.9,52.4-26,55.1-49.7
		C429,271.2,389.7,271.2,350.3,271.2z M21,176.4c3.7,28.1,30.1,50,59.4,49.7c30.3-0.2,54.9-23.4,58.7-49.7
		C99.8,176.4,60.5,176.4,21,176.4z M155.2,398.2c60,0,119.6,0,179.2,0c1-14.6-7.7-23.5-22.7-23.5c-44.6-0.1-89.3,0-133.9,0
		c-1.4,0-2.9,0.1-4.3,0.3C161.3,376.5,154.2,385.4,155.2,398.2z M302.4,354.6c0.8-7.6-0.6-14-6-19.1c-4.9-4.6-10.8-5.7-17.2-5.7
		c-22.9,0-45.9,0-68.8,0c-2.4,0-4.8,0.2-7.1,0.6c-11.3,2-18.7,13.5-15.5,24.2C225.8,354.6,263.8,354.6,302.4,354.6z M244.9,93.2
		c13.1-0.1,23.7-10.6,23.6-23.7c0-13.2-10.9-23.8-24.2-23.6c-13,0.2-23.6,11-23.4,23.9C221.1,82.9,231.8,93.3,244.9,93.2z"/>
</g>
</svg>
