<?xml version="1.0" encoding="utf-8"?>
<!-- Generator: Adobe Illustrator 22.1.0, SVG Export Plug-In . SVG Version: 6.00 Build 0)  -->
<svg version="1.1" id="Слой_1" xmlns="http://www.w3.org/2000/svg" xmlns:xlink="http://www.w3.org/1999/xlink" x="0px" y="0px" viewBox="0 0 384 307.4" style="enable-background:new 0 0 384 307.4;" xml:space="preserve">
	<style type="text/css">
		path {
			fill: #FFFFFF;
		}
	</style>
	<g>
		<path d="M384,38.2c-4.1,0-8.2,0-12.7,0c0-8.3,0-16.6,0-25.3c-8.7,0-17,0-25.4,0c0-4.4,0-8.3,0-12.8c2.6,0,5.2,0,7.8,0
		c7.4,0,14.7,0.1,22.1,0c3.7-0.1,6.6,1,8.3,4.4C384,15.7,384,27,384,38.2z" />
		<path d="M384,303c-1.7,3.2-4.3,4.5-7.9,4.4c-10-0.1-19.9,0-30.1,0c0-4.3,0-8.4,0-12.7c8.3,0,16.5,0,25.1,0c0-8.6,0-16.9,0-25.5
		c4.6,0,8.8,0,13,0C384,280.5,384,291.7,384,303z" />
		<path d="M64.2,38.6c6.5,0,12.5,0,18.8,0c0,59.6,0,119,0,178.7c-6.2,0-12.4,0-18.8,0C64.2,157.9,64.2,98.5,64.2,38.6z" />
		<path d="M262.3,217.4c-6.4,0-12.5,0-18.9,0c0-59.6,0-118.9,0-178.6c6.3,0,12.5,0,18.9,0C262.3,98.4,262.3,157.8,262.3,217.4z" />
		<path d="M128.3,38.6c6.3,0,12.3,0,18.5,0c0,59.5,0,119,0,178.7c-6,0-12.2,0-18.5,0C128.3,157.8,128.3,98.4,128.3,38.6z" />
		<path d="M326.1,217.4c-6.3,0-12.3,0-18.6,0c0-59.6,0-119.1,0-178.7c6.2,0,12.3,0,18.6,0C326.1,98.2,326.1,157.6,326.1,217.4z" />
		<path d="M198.2,249.5c-4.2,0-8.2,0-12.3,0c0-70.3,0-140.4,0-210.8c4.2,0,8.1,0,12.3,0C198.2,108.9,198.2,179,198.2,249.5z" />
		<path d="M32.4,38.7c4.2,0,8.1,0,12.3,0c0,70.4,0,140.5,0,210.8c-4.1,0-8.1,0-12.3,0C32.4,179.3,32.4,109.2,32.4,38.7z" />
		<path d="M339.4,38.7c4.2,0,8.2,0,12.3,0c0,70.4,0,140.5,0,210.8c-4.1,0-8.1,0-12.3,0C339.4,179.3,339.4,109.2,339.4,38.7z" />
		<path d="M294.1,217.5c-4.2,0-8.1,0-12.3,0c0-59.6,0-119.1,0-178.7c4.1,0,8.1,0,12.3,0C294.1,98.2,294.1,157.6,294.1,217.5z" />
		<path d="M230.1,217.5c-4.1,0-8.1,0-12.3,0c0-59.5,0-118.9,0-178.7c4,0,8,0,12.3,0C230.1,98.2,230.1,157.6,230.1,217.5z" />
		<path d="M115.3,217.4c-4.5,0-8.4,0-12.6,0c0-59.6,0-119,0-179c3.6,0,7.1-0.1,10.5,0.1c0.7,0,1.6,1.1,2,2c0.3,0.7,0.1,1.7,0.1,2.6
		c0,56.6,0,113.2,0,169.8C115.3,214.3,115.3,215.7,115.3,217.4z" />
		<path d="M160.2,38.6c4.2,0,8,0,12.2,0c0,59.5,0,119,0,178.7c-3.9,0-7.9,0-12.2,0C160.2,157.9,160.2,98.5,160.2,38.6z" />
		<path d="M38.2,0.1c0,4.4,0,8.4,0,12.8c-8.5,0-16.7,0-25.3,0c0,8.6,0,16.8,0,25.3c-4.3,0-8.3,0-12.9,0c0-5.9,0-11.9,0-17.8
		c0-4.6-0.1-9.2,0-13.8c0.1-3.8,2.2-6.3,6-6.3C16.6,0,27.2,0.1,38.2,0.1z" />
		<path d="M0.1,269.1c4.4,0,8.4,0,12.7,0c0,8.5,0,16.7,0,25.3c8.6,0,16.8,0,25.3,0c0,4.3,0,8.4,0,12.9c-4.8,0-9.6,0-14.5,0
		c-5.6,0-11.2,0.1-16.8,0c-4.1-0.1-6.6-2.2-6.7-6.1C0,290.7,0.1,280.1,0.1,269.1z" />
		<path d="M58,230.7c4.2,0,8.1,0,12.3,0c0,6.4,0,12.5,0,18.9c-4.1,0-8,0-12.3,0C58,243.4,58,237.2,58,230.7z" />
		<path d="M95.7,249.5c-4.2,0-8.1,0-12.3,0c0-6.3,0-12.5,0-18.9c4.1,0,8.1,0,12.3,0C95.7,236.9,95.7,243.1,95.7,249.5z" />
		<path d="M121.4,230.8c0,6.4,0,12.5,0,18.7c-4.1,0-8.1,0-12.3,0c0-6.1,0-12.3,0-18.7C113,230.8,117.1,230.8,121.4,230.8z" />
		<path d="M275,249.5c-4.2,0-8.1,0-12.3,0c0-6.3,0-12.5,0-18.9c4.1,0,8.1,0,12.3,0C275,236.9,275,243.1,275,249.5z" />
		<path d="M288.3,230.6c4.1,0,8.1,0,12.3,0c0,6.3,0,12.5,0,18.9c-4.1,0-8,0-12.3,0C288.3,243.4,288.3,237.2,288.3,230.6z" />
		<path d="M313.9,230.7c4.2,0,8.2,0,12.3,0c0,6.4,0,12.5,0,18.9c-4.1,0-8.1,0-12.3,0C313.9,243.3,313.9,237.2,313.9,230.7z" />
		<path d="M134.6,230.7c4.2,0,8.1,0,12.3,0c0,6.3,0,12.4,0,18.8c-4.1,0-8.1,0-12.3,0C134.6,243.3,134.6,237.2,134.6,230.7z" />
		<path d="M172.5,249.5c-4.2,0-8.1,0-12.3,0c0-6.3,0-12.5,0-18.8c4.1,0,8.1,0,12.3,0C172.5,236.9,172.5,243.1,172.5,249.5z" />
		<path d="M223.8,249.5c-4.2,0-8.1,0-12.3,0c0-6.3,0-12.5,0-18.8c4.1,0,8,0,12.3,0C223.8,236.9,223.8,243,223.8,249.5z" />
		<path d="M249.5,249.6c-4.3,0-8.2,0-12.4,0c0-6.3,0-12.5,0-18.8c4.1,0,8.2,0,12.4,0C249.5,237,249.5,243.1,249.5,249.6z" />
	</g>
</svg>