<?xml version="1.0" encoding="utf-8"?>
<!-- Generator: Adobe Illustrator 22.1.0, SVG Export Plug-In . SVG Version: 6.00 Build 0)  -->
<svg version="1.1" id="Слой_1" xmlns="http://www.w3.org/2000/svg" xmlns:xlink="http://www.w3.org/1999/xlink" x="0px" y="0px"
	 viewBox="0 0 512 449.5" style="enable-background:new 0 0 512 449.5;" xml:space="preserve">
<g>
	<path d="M0,32c2.7-4,6.6-4.9,11.2-4.9c53.8,0.1,107.7,0.1,161.5,0.1c1.9,0,3.9,0,6.4,0c-2.1-5.6-4.1-10.5-5.9-15.5
		c-2.5-7,0.6-11.7,7.9-11.7c37.5-0.1,75,0,112.5,0c5.4,0,8.6,3,8.6,7.6c0,4.6-3.2,7.4-8.7,7.4c-15.5,0.1-31,0-46.5,0
		c-1.8,0-3.6,0-6.1,0c4.5,11.6,8.7,22.6,12.9,33.6c13.4,35.1,26.8,70.2,40.1,105.4c1.2,3.2,2.6,4.7,6.3,4.7
		c41.2-0.2,82.3,0,123.5-0.1c39.6-0.2,70.8-29.5,73-68.2c2.2-40-29.9-74.6-70.4-75.2c-30.7-0.4-61.3-0.1-92-0.1
		c-1.7,0-3.4,0.1-5-0.1c-4-0.6-6.3-2.9-6.6-6.9c-0.3-4.3,2.1-6.9,6.1-7.9c1.6-0.4,3.3-0.2,5-0.2c29.7,0,59.3,0,89,0
		c45.8,0,80.7,29.9,88.2,75.2c0.2,1,0.6,1.9,0.9,2.8c0,6,0,12,0,18c-0.3,0.9-0.7,1.8-0.9,2.8c-4.5,29.1-19.7,51.1-45.7,64.7
		c-9.8,5.2-21,7.6-32.1,11.5c2.4,6.3,5.2,13.7,8.1,21.1c4,10.4,8.1,20.8,12.1,31.2c2.1,5.4,0.6,9.6-3.8,11.3
		c-4.3,1.6-8.1-0.6-10.3-6c-0.2-0.5-0.3-0.9-0.5-1.4c-6.9-17.7-13.9-35.3-20.6-53c-1.3-3.4-3-4.4-6.5-4.4
		c-20.2,0.2-40.3,0.1-60.5,0.1c-1.5,0-2.9,0.1-4.9,0.2c0.8,2.1,1.4,3.8,2,5.4c21.9,53.6,43.8,107.2,65.6,160.8
		c7.6,18.6-1.7,34.2-21.4,36.4c-6.9,0.8-9.7,3.8-9.7,10.8c-0.1,11.7-0.1,23.3,0,35c0,8.6,3.2,11.7,11.8,11.7c18.5,0,37,0.1,55.5-0.1
		c4.6,0,9.4-0.5,13.8-1.7c25.9-7.2,39.4-34.6,29.5-60.4c-12.9-33.7-26.1-67.3-39.2-100.9c-2.1-5.3-0.5-9.5,3.9-11.2
		c4.3-1.7,8.1,0.2,10.1,5.4c14.7,38.9,29.2,77.8,43.8,116.7c0,5,0,10,0,15c-3,7.9-4.9,16.3-9.2,23.4c-10.8,18.1-27.4,28-48.5,28.7
		c-20.8,0.6-41.6,0.4-62.5,0.1c-13.9-0.2-23.8-10.3-24.1-24.2c-0.3-13-0.3-26,0-39c0.3-13.4,9.2-22.8,22.4-24.3
		c10.5-1.2,13.6-6.3,9.7-16c-4-10-8.3-20-12.2-30c-1.1-2.8-2.5-3.8-5.5-3.7c-6.3,0.2-12.7,0.2-19,0c-11.5-0.3-20.2-5.7-25-16.1
		c-6.4-13.9-12.3-28-17.9-42.3c-5.7-14.6,4.6-29.4,20.3-29.6c2.9,0,5.9,0,9.5,0c-5-12.3-9.7-23.9-14.5-35.6
		c-2-4.8-2.9-11.2-6.4-13.7c-3.6-2.4-10-0.9-15.1-0.9c-23.5,0-47,0-70.5,0c-7.3,0-8.9-1.1-11.5-7.9c-1.4-3.7-2.8-7.4-4.4-11.4
		c-17.7,6.8-34.9,13.4-52.1,20C121.3,195.4,67,216.2,12.6,237c-6.4,2.5-8.6,1.7-12.6-3.9c0-1.7,0-3.3,0-5c2.7-1.8,5.1-4.3,8-5.4
		c62.4-24,124.8-47.9,187.3-71.8c8.9-3.4,17.9-6.9,27-10.5c-0.7-2-1.3-3.6-1.8-5.1c-11.1-29.2-22.4-58.4-33.3-87.7
		c-1.5-4.1-3.5-5.4-7.9-5.4c-56.1,0.2-112.3,0.1-168.4,0.2C6.1,42.4,2.2,41.6,0,37C0,35.4,0,33.7,0,32z M191,15.1
		c0.7,2.1,1.2,3.6,1.8,5.2c5.4,14.1,10.8,28.3,16.2,42.4c11.7,30.6,23.3,61.2,35.1,91.8c0.6,1.6,2.2,4,3.4,4
		c10.4,0.3,20.8,0.2,31.8,0.2c-0.8-2.3-1.2-3.9-1.8-5.4c-6.2-16.3-12.4-32.6-18.7-48.9C248,76,237.2,47.6,226.2,19.2
		c-0.6-1.6-2.2-3.8-3.5-3.9C212.3,15,201.9,15.1,191,15.1z M379.7,296.9c-0.8-2.3-1.3-3.9-1.9-5.4c-5.4-13.2-10.8-26.4-16.2-39.7
		c-5.5-13.5-5.5-13.5-20.2-12.8c-6.1,0.3-8.9,4.2-6.7,9.7c5.5,13.5,11.3,27,17,40.4c2.1,4.9,6,7.5,11.3,7.7
		C368.4,297.1,373.7,296.9,379.7,296.9z"/>
	<path d="M95,158.6c-12.7,0-25.3,0-38,0c-1.7,0-3.3,0-5-0.2c-4-0.6-6.3-3.1-6.4-7.1c-0.1-4.2,2.1-7,6.3-7.6c2.6-0.4,5.3-0.3,8-0.3
		c24.6,0,49.3,0,73.9,0c1.8,0,3.7,0,5.5,0.4c3.9,0.8,6,3.4,5.9,7.5c-0.1,4.1-2.3,6.5-6.3,7.2c-1.6,0.3-3.3,0.2-5,0.2
		C120.9,158.6,108,158.6,95,158.6z"/>
	<path d="M60.7,100.8c0,8.5,0,17,0,25.5c0,6.7-2.7,10.1-7.7,10c-4.9-0.1-7.5-3.3-7.5-9.7c0-17.5-0.1-34.9,0-52.4
		c0-6.2,3-9.4,7.9-9.2c4.5,0.2,7.2,3.3,7.2,9C60.7,82.8,60.6,91.8,60.7,100.8z"/>
	<path d="M145.4,100.4c0,9,0.1,18,0,27c-0.1,5.8-2.6,8.7-7.2,8.9c-4.8,0.1-7.8-3.1-7.9-8.9c-0.1-18-0.1-35.9,0-53.9
		c0-5.5,3-8.6,7.6-8.6c4.7,0,7.4,2.9,7.5,8.6C145.4,82.4,145.4,91.4,145.4,100.4z"/>
	<path d="M87.9,95.4c0-7.3-0.1-14.6,0-21.9c0.1-5.5,2.8-8.6,7.4-8.7c4.6,0,7.6,3.1,7.6,8.5c0.1,14.8,0.1,29.6,0,44.4
		c0,5.4-3.1,8.5-7.7,8.4c-4.4-0.1-7.2-3.2-7.3-8.3C87.9,110.4,87.9,102.9,87.9,95.4z"/>
	<path d="M66.8,90.3c0-5.8-0.1-11.7,0-17.5c0.1-5,2.7-7.8,7.1-8c4.5-0.2,7.9,2.7,7.9,7.7c0.2,12,0.2,24,0,36
		c-0.1,4.7-3.4,7.6-7.6,7.6c-4.3,0-7.2-3-7.3-7.8C66.6,102.3,66.8,96.3,66.8,90.3z"/>
	<path d="M109,90.1c0-5.5-0.1-11,0-16.5c0.1-5.5,2.9-8.7,7.5-8.7c4.7-0.1,7.6,3,7.6,8.5c0.1,11.3,0.1,22.6,0,34
		c0,5.5-2.8,8.7-7.4,8.8c-4.7,0.1-7.6-3.3-7.7-9C109,101.4,109,95.7,109,90.1z"/>
</g>
</svg>
