<?xml version="1.0" encoding="utf-8"?>
<!-- Generator: Adobe Illustrator 22.1.0, SVG Export Plug-In . SVG Version: 6.00 Build 0)  -->
<svg version="1.1" id="Слой_1" xmlns="http://www.w3.org/2000/svg" xmlns:xlink="http://www.w3.org/1999/xlink" x="0px" y="0px"
	 viewBox="0 0 96.8 122.8" style="enable-background:new 0 0 96.8 122.8;" xml:space="preserve">
<g>
	<path d="M42.4,0c0.6,0.1,1.1,0.3,1.7,0.4c5.3,1.3,9.2,5.9,9.3,11.4c0.2,7.4,0.1,14.8,0.1,22.2c0,0.5,0,0.9,0,1.5c1.8,0,3.5,0,5.1,0
		c4.3,0,5.9,1.6,6.1,5.9c0,0.1,0,0.2,0.1,0.5c3.2,0,6.4,0,9.7,0c0-1.4,0-2.9,0-4.3c0-3.9,2.9-6.9,6.7-6.9c3.8,0,6.8,2.9,6.9,6.8
		c0,1.5,0,2.9,0,4.4c1,0.1,1.9,0.1,2.8,0.3c3.5,0.7,6,3.8,5.8,7.2c-0.2,3.6-2.8,6.4-6.4,6.8c-0.7,0.1-1,0.2-1.2,1
		c-2.7,14.7-10.9,25.1-24.5,31.3c-0.9,0.4-1.1,0.8-1.1,1.8c0,10,0,19.9,0,29.9c0,2.3-0.4,2.7-2.7,2.7c-8.4,0-16.7,0-25.1,0
		c-2.3,0-2.7-0.4-2.7-2.6c0-10,0-20,0-30c0-0.9-0.3-1.4-1.2-1.8C18.5,82.3,10.3,71.9,7.6,57.3c-0.1-0.8-0.5-1-1.2-1.1
		c-3.8-0.4-6.6-3.6-6.4-7.3C0.2,45,3.2,42.1,7.1,42c0.4,0,0.9,0,1.5,0c0-1.5,0-3,0-4.4c0.1-3.1,1.9-5.7,4.7-6.6
		c4.3-1.4,8.8,1.7,8.9,6.3c0,1.5,0,3,0,4.6c3.3,0,6.5,0,9.8,0c0-0.4,0-0.7,0-1.1c0-3.2,2-5.2,5.2-5.2c1.9,0,3.8,0,5.8,0
		c0-0.4,0.1-0.8,0.1-1.1c0-7.1,0-14.2,0-21.4c0-1-0.1-1.9-1.1-2.5c-1.5-0.7-2.9,0.2-3.1,2c-0.2,2.7-2,4.6-4.5,5
		c-3,0.4-5.7-1.9-5.8-5C28.6,6.6,33,1.3,39,0.2c0.3,0,0.5-0.2,0.8-0.2C40.7,0,41.5,0,42.4,0z M85.8,56.3c-25,0-49.9,0-74.8,0
		c1.5,14.1,14.5,31.9,37.1,32.1C69.6,88.6,84.1,71.9,85.8,56.3z M48.4,52.9c13.4,0,26.7,0,40.1,0c0.6,0,1.1,0,1.7,0
		c1.4-0.1,2.4-0.9,2.9-2.2c1.1-2.7-0.7-5.3-3.7-5.3c-27.3,0-54.6,0-81.9,0c-0.3,0-0.6,0-0.8,0c-1.7,0.2-2.9,1.5-3.1,3.2
		c-0.2,2,0.7,3.6,2.4,4.1c0.7,0.2,1.5,0.2,2.3,0.2C21.6,52.9,35,52.9,48.4,52.9z M60.2,90.2c-7.9,2.2-15.7,2.2-23.6,0
		c0,9.8,0,19.5,0,29.3c7.9,0,15.7,0,23.6,0C60.2,109.7,60.2,100,60.2,90.2z M50.2,35.5c0-7.9,0.1-15.7,0-23.5
		c-0.1-4.7-3.6-8.1-8.3-8.6C37.7,3,33.5,6,32.4,10.2c-0.2,0.8-0.3,1.7-0.2,2.5c0.1,1,0.7,1.6,1.8,1.6c1,0,1.6-0.6,1.8-1.6
		c0-0.2,0-0.3,0-0.5c0.3-3.5,3.5-5.8,6.9-5c2.5,0.6,4,2.8,4,5.8c0,7,0,14.1,0,21.1c0,0.5,0,0.9,0.1,1.4c0.9,0,1.7,0,2.5,0
		C49.5,35.6,49.8,35.5,50.2,35.5z M61.4,42c0.2-2.6-0.2-3-2.6-3c-6.9,0-13.9,0-20.8,0c-2.2,0-2.8,0.7-2.3,3C44.1,42,52.7,42,61.4,42
		z M18.9,41.9c0-1.7,0.1-3.2,0-4.8c-0.1-1.8-1.4-3-3.2-3.1c-1.9-0.1-3.5,1-3.7,2.8c-0.1,1.7,0,3.3,0,5
		C14.3,41.9,16.5,41.9,18.9,41.9z M84.9,42c0-1.7,0.1-3.3,0-4.8c-0.1-1.8-1.4-3-3.2-3.1c-1.9-0.1-3.5,1-3.6,2.7
		c-0.1,1.7,0,3.4,0,5.1C80.3,42,82.5,42,84.9,42z"/>
	<path d="M48.4,60.6c8,0,15.9,0,23.9,0c0.4,0,0.9,0,1.3,0c0.9,0.1,1.4,0.7,1.4,1.5c0,0.9-0.4,1.5-1.3,1.7C73.3,64,72.9,64,72.5,64
		c-16,0-32.1,0-48.1,0c-0.4,0-0.8,0-1.2-0.1c-0.9-0.2-1.4-0.8-1.4-1.7c0-0.9,0.5-1.5,1.5-1.6c0.4,0,0.9,0,1.3,0
		C32.6,60.6,40.5,60.6,48.4,60.6z"/>
	<path d="M40.5,105.6c0-2.8,0-5.5,0-8.3c0-1.3,0.6-1.9,1.6-1.9c1.1,0,1.7,0.6,1.7,2c0,5.5,0,11,0,16.5c0,1.2-0.7,2-1.8,2
		c-1,0-1.6-0.8-1.6-2C40.4,111.2,40.5,108.4,40.5,105.6z"/>
	<path d="M56.4,105.7c0,2.7,0,5.4,0,8.2c0,1.3-0.6,2.1-1.6,2.1c-1,0-1.7-0.8-1.7-2.1c0-5.4,0-10.9,0-16.3c0-1.4,0.6-2,1.7-2
		c1.1,0,1.7,0.7,1.7,2.1C56.4,100.2,56.4,102.9,56.4,105.7z"/>
</g>
</svg>
