<?xml version="1.0" encoding="utf-8"?>
<!-- Generator: Adobe Illustrator 22.1.0, SVG Export Plug-In . SVG Version: 6.00 Build 0)  -->
<svg version="1.1" id="Слой_1" xmlns="http://www.w3.org/2000/svg" xmlns:xlink="http://www.w3.org/1999/xlink" x="0px" y="0px" viewBox="0 0 237.6 192.2" style="enable-background:new 0 0 237.6 192.2;" xml:space="preserve">
	<style xmlns="http://www.w3.org/2000/svg" type="text/css">
		path {
			fill: #ea5626;
		}
	</style>
	<g>
		<path d="M0,186.2C0,134.8,0,83.4,0,32.1c1.9-4.6,5.3-6.4,10.3-6.1c3.3,0.2,6.6,0,10,0c1.4,0,2.9,0,4.4,0c0-5.8,0-11.2,0-16.6
		c0-4.9,2.6-8,7.4-8.6c12.7-1.5,25.3-1,37.8,1.5c18.9,3.9,35.5,12,48.1,27.1c0.2,0.3,0.5,0.5,0.9,0.9c0.7-0.8,1.3-1.4,1.9-2.1
		c6.3-7.4,13.9-13.1,22.6-17.5C153.6,5.5,164.6,2.5,176,1c10-1.3,20.1-1.4,30.1-0.1c4,0.5,6.6,3.6,6.9,7.6c0.1,1.2,0,2.3,0,3.5
		c0,4.6,0,9.2,0,14c5.4,0,10.5,0,15.6,0c5.9,0,9.1,3.1,9.1,9c0,49.3,0,98.7,0,148c0,6.9-4.7,10.5-11.2,8.5
		c-16.3-4.9-32.8-8-49.8-8.8c-18.4-0.8-36.4,1-53.6,8.4c-2.8,1.2-5.5,1.3-8.3,0c-14.3-6.3-29.5-8.6-45-8.7
		c-19.9-0.1-39.2,3.2-58.2,8.9c-2.4,0.7-4.9,1.4-6.9-0.1C2.8,190,1.5,187.9,0,186.2z M40.7,139.4c25.7-0.4,49.7,4.4,70,21.8
		c0.1-0.7,0.1-1,0.1-1.3c0-37.2,0-74.4,0-111.6c0-0.9-0.4-1.8-0.8-2.6c-6.5-10.5-15.6-17.7-26.8-22.7c-9-3.9-18.4-5.9-28-6.7
		c-4.7-0.4-9.5-0.1-14.4-0.1C40.7,57.3,40.7,98.3,40.7,139.4z M196.9,139.4c0-41.1,0-82,0-123.1c-0.7-0.1-1.3-0.2-1.9-0.2
		c-10.7-0.2-21.3,0.8-31.6,3.9c-14.9,4.4-27.2,12.3-35.7,25.6c-0.5,0.9-0.9,2-0.9,3c0,37,0,73.9,0,110.9c0,0.5,0.1,1,0.2,1.7
		C147.3,143.8,171.3,139.1,196.9,139.4z M144.4,168.2c12.9-1.8,25.7-2.1,38.7-1.1c13,0.9,25.7,3.2,38.4,6.4c0-44,0-87.7,0-131.4
		c-2.9,0-5.6,0-8.5,0c0,1,0,1.9,0,2.8c0,33.6,0,67.3,0,100.9c0,0.9,0,1.9,0,2.8c-0.4,4.4-3.7,7.5-8.2,7.4c-1,0-2-0.1-3-0.1
		c-12.4-1.1-24.6-0.2-36.6,3C157.8,160.8,150.7,163.7,144.4,168.2z M93.7,168.5c-1-0.7-1.6-1.1-2.1-1.5c-10.8-6.7-22.7-10-35.3-10.9
		c-7.7-0.5-15.4-0.1-23.1,0c-4.9,0-8.3-3.1-8.5-8.1c0-0.8,0-1.5,0-2.3c0-33.6,0-67.1,0-100.7c0-1,0-1.9,0-2.9c-3.1,0-5.7,0-8.5,0
		c0,43.8,0,87.5,0,131.4C41.6,167.1,67.2,164.5,93.7,168.5z" />
	</g>
</svg>