<?xml version="1.0" encoding="utf-8"?>
<!-- Generator: Adobe Illustrator 22.1.0, SVG Export Plug-In . SVG Version: 6.00 Build 0)  -->
<svg version="1.1" id="Слой_1" xmlns="http://www.w3.org/2000/svg" xmlns:xlink="http://www.w3.org/1999/xlink" x="0px" y="0px"
	 viewBox="0 0 360.1 383.6" style="enable-background:new 0 0 360.1 383.6;" xml:space="preserve">
<g>
	<path d="M182.3,0c8,4,15.9,8.1,24,12c49.4,23.9,98.9,47.8,148.4,71.6c3.9,1.9,5.5,4.4,5.5,8.7c-0.1,66.5-0.1,133,0,199.5
		c0,4.4-1.7,6.8-5.5,8.7c-56.7,27.3-113.3,54.6-169.9,82c-3.2,1.6-5.9,1.5-9.2,0c-56.5-27.4-113-54.7-169.6-81.8
		c-4.2-2-5.9-4.5-5.9-9.2c0.1-66.2,0.1-132.5,0-198.7c0-4.7,1.6-7.2,5.8-9.3c56.3-27,112.4-54.2,168.6-81.3c1.2-0.6,2.3-1.4,3.4-2.1
		C179.3,0,180.8,0,182.3,0z M18.8,89.7c1.7,0.9,2.8,1.4,3.9,2c35.1,16.9,70.1,33.9,105.2,50.8c4.3,2.1,8.6,4,12.8,6.3
		c2.8,1.5,3.6,4.3,2.4,7.1c-1.2,3-3.9,3.8-6.9,3c-1.3-0.3-2.5-1.1-3.8-1.7c-36.3-17.5-72.6-35.1-108.9-52.6
		c-3.9-1.9-7.8-3.7-12.2-5.8c0,1.7,0,2.9,0,4.2c0,61.2,0,122.5-0.1,183.7c0,3.1,1.1,4.5,3.8,5.8c48.6,23.4,97.1,46.8,145.7,70.3
		c4.4,2.1,8.7,4.2,13.7,6.5c0-2,0-3.5,0-4.9c0-20,0-40,0-60c0-41,0-82,0.1-123c0-2.9-0.7-4.6-3.5-5.7c-3.6-1.4-7-3.2-10.5-5
		c-3.6-1.8-4.9-4.9-3.5-7.9c1.4-3,4.6-4,8.3-2.2c4.1,1.9,8,4.1,12.2,5.8c1.5,0.6,3.7,0.6,5.1,0c5.6-2.4,11-5.2,16.6-7.9
		c6.7-3.3,13.5-6.6,20.3-9.7c3.2-1.5,6.3-0.3,7.7,2.4c1.4,2.8,0.3,5.9-2.7,7.6c-0.8,0.4-1.6,0.8-2.4,1.1
		c-10.9,5.3-21.7,10.6-32.7,15.7c-2.8,1.3-3.7,2.9-3.7,5.9c0.1,61.1,0.1,122.2,0.1,183.4c0,1.3,0.1,2.6,0.2,4.3
		c1.4-0.7,2.3-1.1,3.2-1.5c52.3-25.2,104.5-50.5,156.8-75.6c2.6-1.2,2.9-2.8,2.9-5.2c0-61.4,0-122.7,0-184.1c0-1.2,0-2.4,0-3.7
		c-0.8,0.2-1.2,0.3-1.5,0.4c-16.1,7.7-32.1,15.5-48.3,23.2c-2.1,1-2.1,2.5-2.1,4.2c0,20.6-0.1,41.2,0.1,61.9c0,4.7-1.7,7.3-5.9,9.2
		c-12.6,5.8-25,12-37.5,18c-6.6,3.2-10,1-10-6.3c0-20.4-0.1-40.7,0.1-61.1c0-3.2-1.1-4.8-4-6.2c-19.3-9.1-38.5-18.5-57.7-27.7
		c-34.8-16.8-69.7-33.6-104.6-50.4c-1.3-0.6-3.3-1.2-4.4-0.7C55.2,72.1,37.3,80.8,18.8,89.7z M133.7,34.3c1.7,0.9,2.8,1.5,3.9,2
		c51.6,24.9,103.1,49.8,154.7,74.7c2.1,1,3.6,0.8,5.5-0.1c13.6-6.6,27.2-13.1,40.8-19.7c0.8-0.4,1.5-1,2.6-1.7
		c-21.3-10.3-42.2-20.4-63.1-30.5c-31.7-15.3-63.4-30.6-95.1-45.8c-1.3-0.6-3.3-1.1-4.4-0.6C163.7,19.7,149,26.9,133.7,34.3z
		 M281.7,118.6c-1.9-1-3.1-1.7-4.3-2.2c-11.8-5.7-23.6-11.4-35.4-17.1c-39.3-19-78.7-38-118-56.9c-1.4-0.7-3.4-1.5-4.5-0.9
		c-10.5,4.8-20.8,10-31.7,15.3c9.8,4.7,19,9.2,28.2,13.6c43.3,20.9,86.5,41.8,129.8,62.6c1.4,0.7,3.5,1.2,4.8,0.6
		C260.8,128.8,270.9,123.9,281.7,118.6z M255.1,202.6c0.8-0.2,1.3-0.3,1.7-0.5c9-4.3,17.9-8.7,27-12.9c2.2-1,2-2.6,2-4.3
		c0-17.2,0-34.5,0-51.7c0-1.1-0.1-2.1-0.2-3.6c-1.5,0.6-2.6,1.1-3.7,1.6c-7.9,3.8-15.7,7.7-23.6,11.3c-2.5,1.1-3.4,2.5-3.4,5.3
		c0.1,17,0.1,34,0.1,51C254.9,199.9,255,201.1,255.1,202.6z"/>
	<path d="M28.9,228.9c2,0.7,3.3,0.9,4.4,1.5c15.5,7.5,31,14.9,46.5,22.4c4.2,2,5.6,5.1,4.1,8.3c-1.5,3.2-4.8,3.8-9.1,1.7
		c-15.3-7.4-30.5-14.7-45.8-22.1c-1-0.5-2.5-0.9-2.8-1.7c-0.8-1.9-1.9-4.3-1.4-6C25.3,231.3,27.6,230.1,28.9,228.9z"/>
	<path d="M60.8,272.6c0.1,5.6-4.1,8.2-8.5,6.1c-7.1-3.3-14.1-6.8-21.2-10.2c-1.3-0.7-2.7-1.2-4-2c-2.9-1.7-3.8-4.6-2.4-7.3
		c1.4-2.8,4.3-4,7.2-2.6c8.7,4,17.3,8.2,25.9,12.5C59.4,269.9,60.3,271.9,60.8,272.6z"/>
</g>
</svg>
