<?xml version="1.0" encoding="utf-8"?>
<!-- Generator: Adobe Illustrator 22.1.0, SVG Export Plug-In . SVG Version: 6.00 Build 0)  -->
<svg version="1.1" id="Слой_1" xmlns="http://www.w3.org/2000/svg" xmlns:xlink="http://www.w3.org/1999/xlink" x="0px" y="0px"
	 viewBox="0 0 323.1 253.1" style="enable-background:new 0 0 323.1 253.1;" xml:space="preserve">
<g>
	<path d="M108.2,33.3c0-6.6,0-12.6,0-18.6c0.1-8.6,5.3-14.4,13.8-14.5c26.4-0.2,52.8-0.4,79.1,0.1c12.8,0.2,15.3,11.2,13.2,20.8
		c-0.7,3.2-3.6,4.7-7,4.4c-3.4-0.3-5.4-2.4-6-5.7c-0.3-1.7,0-3.5,0-5.5c-26.6,0-52.8,0-79.3,0c0,6.2,0,12.3,0,18.8
		c1.5,0.1,3.1,0.2,4.6,0.2c58,0,116,0,174,0c11.2,0,19.2,5.6,21.7,15.3c0.6,2.3,0.7,4.7,0.7,7.1c0,26.6-0.1,53.2,0.1,79.9
		c0,5-1.9,7.7-6.4,9.7c-38.8,16.7-79.3,27-121.4,30.8c-0.6,0.1-1.2,0.1-2.4,0.3c0,1.8,0,3.6,0,5.4c-0.3,8.5-5.7,14.1-14.1,14.3
		c-11.4,0.2-22.7,0.2-34.1,0c-8.7-0.1-14.2-5.7-14.3-14.5c-0.1-7.2-0.1-14.5,0-21.7c0.1-9,5.6-14.5,14.6-14.5
		c10.9-0.1,21.7,0,32.6,0c9.8,0,14.9,5,15.4,14.9c0,0.6,0.1,1.2,0.3,2.4c8.5-1,16.9-1.9,25.2-3.1c30.1-4.6,59.2-12.8,87.4-24.4
		c2.7-1.1,3.7-2.4,3.7-5.4c-0.1-24.5-0.1-49-0.1-73.5c0-6.9-2.1-9-8.9-9c-92.6,0-185.2,0-277.9,0c-6.6,0-8.9,2.2-8.9,8.7
		c0,24.7,0,49.5-0.1,74.2c0,2.8,1,3.9,3.4,4.8c30.6,12.6,62.3,21.3,95.2,25.6c0.4,0,0.7,0.1,1.1,0.1c4.4,0.9,6.8,3.9,6.2,7.9
		c-0.5,3.9-3.8,6.4-8.3,5.6c-17.3-3.3-34.6-6.5-51.7-10.4c-9.1-2.1-17.9-5.5-26.8-8.3c-1.5-0.5-3-1-5-1.6c0,1.7,0,2.9,0,4.2
		c0,21.7,0,43.5,0,65.2c0,11,5,16,16,16c78.5,0,157,0,235.5,0c11,0,16-5,16-16c0-16.2,0-32.5,0-48.7c0-1.6,0-3.3,0.4-4.8
		c0.8-3,2.9-4.6,6-4.8c3.2-0.2,5.6,1.3,6.7,4.3c0.5,1.5,0.6,3.2,0.6,4.8c0,16.6,0.1,33.2,0,49.9c-0.1,17.6-11.5,29.3-29.1,29.3
		c-79,0.1-158,0.1-237,0c-17.6,0-29.1-11.7-29.1-29.3c0-24-0.1-48,0-72c0-2.6-0.8-3.9-3.3-4.9C0,142.5,0,142.4,0,130.8
		C0,105.9,0,81,0,56.2c0-14.8,8.1-22.9,23-22.9c26.9,0,53.7,0,80.6,0C105,33.3,106.3,33.3,108.2,33.3z M178.8,159.1
		c-11.8,0-23.2,0-34.4,0c0,7.8,0,15.4,0,22.9c11.6,0,23,0,34.4,0C178.8,174.3,178.8,166.8,178.8,159.1z"/>
</g>
</svg>
