<?xml version="1.0" encoding="utf-8"?>
<!-- Generator: Adobe Illustrator 22.1.0, SVG Export Plug-In . SVG Version: 6.00 Build 0)  -->
<svg version="1.1" id="Слой_1" xmlns="http://www.w3.org/2000/svg" xmlns:xlink="http://www.w3.org/1999/xlink" x="0px" y="0px"
	 viewBox="0 0 383.1 384.1" style="enable-background:new 0 0 383.1 384.1;" xml:space="preserve">
<g>
	<path d="M243.9,0c11.3,2.1,19.4,8.9,26.8,17.2c8.5,9.6,17.6,18.8,26.5,28.1c7.6,7.8,11.2,16.9,11.1,27.7c-0.1,16,0,32,0,48
		c0,1.3,0,2.7,0,4.5c7.3,0,14.3-0.3,21.2,0.1c6.9,0.4,14.1,0.5,20.7,2.4c18.6,5.4,32.2,22.6,32.4,42c0.4,56.5,0.6,113,0,169.5
		c-0.3,25-21.4,44.5-46.5,44.6c-35.9,0.1-71.7,0.1-107.6,0c-26.1-0.1-46.7-20.8-47-47c0-1.2,0-2.4,0-3.9c-2.7,0-5,0-6.8,0
		c-2,4.5-3.9,8.8-5.9,13.4c1.2,2.6,3.4,5.6,4.3,9c3.5,13.1-6.2,25.4-20,25.4c-31.1,0.1-62.2,0.2-93.4,0c-7.7-0.1-15.6-0.2-23-2.1
		C13,372.3-1.6,350.4,0.1,325c1.6-23.3,19.8-42.5,43.7-46c0.6-0.1,1.2-0.3,1.7-0.4c0.3-10.3,0.5-10.8,5.6-18.3
		c-6.3-7.9-7.7-16.4-2.3-25.2c5.5-9,14.6-10,24.5-9.3c0-2.2,0-3.9,0-5.6c0-60.7,0-121.5,0-182.2c0-16.9,8.1-29.8,22.3-35.3
		c2.6-1,5.4-1.7,8.1-2.5C150.4,0,197.2,0,243.9,0z M181.6,321.3c0-2.2,0-3.7,0-5.2c0-47.2,0-94.5,0.1-141.7c0-4.2,0.3-8.5,1.2-12.6
		c5.1-21.7,23.8-36.2,46.8-36.3c20.6-0.1,41.2,0,61.9,0c1.5,0,2.9,0,4.3,0c0-20.3,0-40,0-60.1c-1.9,0-3.2,0-4.6,0
		c-12.5,0-25,0-37.5,0c-5.9,0-7.8-1.9-7.8-7.9c0-13.7,0-27.5,0-41.2c0-1.3,0-2.6,0-4.2c-1.7,0-2.8,0-3.9,0c-43.9,0-87.7,0-131.6,0
		c-15.4,0-25,9.6-25,25.1c0,61.5,0,123,0,184.4c0,1.3,0.2,2.6,0.3,4.1c1.9,0,3.4,0,4.9,0c21,0,42,0,63,0c10.4,0,18.3,6.9,20.1,17.1
		c1.2,6.8-1.2,12.5-5.4,17.6c3.8,4.2,6.3,9.1,5.6,14.4c-0.7,5-2.9,9.8-4.7,15.3c6.7,8.7,6.7,16.7-0.8,27.5
		C171.3,323.5,176.8,319.8,181.6,321.3z M371.7,255c0-26.6,0-53.2,0-79.8c0-3.1,0-6.3-0.6-9.3c-3.5-17.7-17.8-29-36.6-29
		c-34.6,0-69.2,0-103.8,0c-22.5,0-37.6,15.2-37.6,37.6c0,53.6,0,107.2,0,160.8c0,2.2,0,4.5,0.4,6.7c3.1,18.5,17.4,30.6,36.4,30.7
		c34.6,0.1,69.2-0.3,103.8,0.1c21.8,0.3,38.8-16.2,38.3-38.4C371.2,308,371.7,281.5,371.7,255z M71.7,369.7
		c22.3,0,40.1-17.8,40.1-40.3c0-21.7-18.2-39.9-39.9-39.8c-22.1,0-40.2,18.1-40.2,40C31.8,351.7,49.7,369.7,71.7,369.7z
		 M109.8,254.2c14.2,0,28.5,0,42.7,0c4,0,7.1-1.4,8.7-5.2c2.4-5.6-1.7-11.4-8.3-11.4c-28.8-0.1-57.7,0-86.5,0c-0.4,0-0.8,0-1.1,0
		c-4.3,0.4-7.5,3.6-7.6,7.8c-0.2,4.3,2.8,8,7.2,8.6c1.1,0.2,2.2,0.1,3.4,0.1C82.1,254.3,95.9,254.2,109.8,254.2z M109.7,266.3
		c-14.2,0-28.5,0-42.7,0c-5,0-8.3,2.5-9.1,6.7c-0.8,4.2,0.1,5.5,4.4,5.4c10.3-0.2,20.5-0.1,30.1,4.2c1.1,0.5,2.5,0.3,3.7,0.3
		c13.1,0,26.2,0,39.4,0c6.1,0,12.2,0.1,18.4-0.1c5.7-0.2,9.4-5.4,7.7-10.7c-1.2-3.7-4.3-5.8-9.1-5.8
		C138.2,266.3,123.9,266.3,109.7,266.3z M106.2,368.9c15.6,0,31.1,0.1,46.7,0c5.2,0,8.8-3.5,8.9-8.1c0.1-4.8-3.5-8.3-9-8.4
		c-10.9-0.1-21.7-0.1-32.6,0c-1,0-2.4,0.3-2.9,1C113.6,358.4,110,363.6,106.2,368.9z M110.6,294.9c3.1,5.3,5.8,10.2,8.7,14.9
		c0.6,0.9,2.1,1.6,3.2,1.6c10,0.1,19.9,0.1,29.9,0.1c5.8,0,9.5-3.3,9.5-8.3c0-4.9-3.8-8.3-9.6-8.3c-6.4-0.1-12.7,0-19.1,0
		C125.7,294.9,118.2,294.9,110.6,294.9z M122.5,340.2c10.7,0,21,0.2,31.4-0.1c4.7-0.1,8-3.9,8-8.3c0-4.4-3.3-8-8.1-8.1
		c-9.6-0.2-19.2-0.1-28.8-0.1c-0.6,0-1.2,0.2-1.7,0.4C123,329.4,122.8,334.5,122.5,340.2z M258.3,21.7c0,11,0,21.2,0,31.3
		c9.8,0,19.4,0,29.6,0C277.9,42.4,268.4,32.3,258.3,21.7z M12.3,336.6c0,8.4,2.7,10.6,10.3,8.6C21,335.5,21,335.5,12.3,336.6z
		 M21.8,316.2c-8.6-1.1-9.8-0.1-10,8.3C20.5,325.9,21.3,325.3,21.8,316.2z M34.9,293.7c-0.2-0.3-0.4-0.7-0.6-1
		c-4.7,3.6-9.3,7.1-14.7,11.2c5.2,1.4,8.1,0.7,10.1-3.4C31,298,33.2,296,34.9,293.7z M21.9,357.8c4.7,3.2,8.6,5.9,12.5,8.6
		c0.2-0.3,0.4-0.5,0.5-0.8c-1.4-1.7-3.1-3.3-4.2-5.2C29,357.2,26.5,356.3,21.9,357.8z"/>
	<path d="M148.6,134.5c3.8,1.2,7.2,2,10.4,3.3c3.8,1.7,4.8,4.4,3.3,7.5c-1.5,3-3.7,3.6-7.5,1.7c-4.8-2.3-9.7-3-14.9-1.6
		c-3.3,0.9-5.5,2.8-6.1,6.3c-0.5,3.6,0.3,6.7,3.6,8.8c1.5,0.9,3.1,1.7,4.7,2.3c3.2,1.4,6.5,2.5,9.7,3.9
		c12.1,5.7,16.7,19.8,10.4,31.6c-2.3,4.3-5.8,7.3-10.4,8.6c-2.5,0.7-3.7,1.7-3.2,4.4c0,0.2,0,0.5,0,0.7c-0.4,3.4-2.6,5.6-5.6,5.4
		c-3.3-0.2-5.2-2.3-5.1-5.4c0.2-3.4-1.4-4.2-4.2-5.2c-3.4-1.3-6.6-3.4-9.5-5.6c-1.2-0.9-2.4-3-2.3-4.4c0.2-2,1.4-4.4,2.9-5.4
		c1-0.7,4,0.2,5,1.3c4.2,4.5,9.1,6.3,15.2,5.5c4.3-0.6,7.6-2.4,8.9-6.8c1.5-5.3,0.1-10.5-3.9-13.1c-2.6-1.7-5.5-2.9-8.3-4.2
		c-2.7-1.2-5.6-2.2-8.2-3.5c-7.6-3.8-10.7-10.1-10.1-18.4c0.6-7.7,4.6-13.1,12-15.6c1.9-0.6,2.7-1.5,2.5-3.5c-0.1-0.9,0-1.8,0.1-2.6
		c0.4-3,2.2-4.9,5.2-4.9c3.2-0.1,5,1.9,5.5,5.1C148.6,131.9,148.6,133.3,148.6,134.5z"/>
	<path d="M210.9,116.7c-15.2,0-30.5,0-45.7,0c-1.5,0-3.4,0.2-4.4-0.6c-1.6-1.3-3.5-3.5-3.4-5.1c0.1-1.9,2.2-3.8,3.9-5.2
		c1-0.8,2.9-0.5,4.4-0.5c30.2,0,60.5,0,90.7,0c0.6,0,1.3,0,1.9,0c4.2,0.2,6.6,2.2,6.7,5.5c0.1,3.5-2.4,5.8-6.8,5.8
		C242.4,116.7,226.7,116.7,210.9,116.7z"/>
	<path d="M172.7,88.6c-16.5,0-33,0.1-49.4-0.1c-2,0-4.6-1.4-5.8-3c-0.9-1.1-0.8-4.3,0.2-5.4c1.4-1.5,4-2.6,6-2.7
		c19.8-0.2,39.7-0.1,59.5-0.1c12.7,0,25.5,0,38.2,0c2.7,0,5.2,0.7,6,3.4c0.5,1.7,0.4,4.4-0.6,5.5c-1.3,1.4-3.8,2.3-5.8,2.3
		C204.9,88.6,188.8,88.6,172.7,88.6z"/>
	<path d="M131.3,116.6c-3,0-6,0.1-9,0c-3.4-0.2-5.9-2.7-5.7-5.7c0.3-3.3,2.2-5.4,5.6-5.4c6-0.2,12-0.2,18,0c3.6,0.1,5.7,2.5,5.6,5.7
		c-0.1,3.2-2.2,5.2-5.9,5.5c-0.2,0-0.5,0-0.7,0C136.5,116.7,133.9,116.7,131.3,116.6C131.3,116.7,131.3,116.6,131.3,116.6z"/>
	<path d="M252.1,88.5c-2.4,0-4.8,0.1-7.1,0c-3.2-0.2-5.5-2.5-5.5-5.5c-0.1-3,2.1-5.6,5.3-5.7c5-0.2,10-0.2,15,0
		c3.2,0.1,5.4,2.8,5.1,5.8c-0.3,3.2-2.1,5.1-5.3,5.3C257.2,88.7,254.6,88.5,252.1,88.5z"/>
	<path d="M282.3,149.7c17,0,34,0,51,0c13.8,0,21.3,7.6,21.3,21.3c0,5.7,0.1,11.5,0,17.2c-0.2,12.3-8.1,20.1-20.4,20.1
		c-19.5,0-39,0-58.5,0c-1.8,0-4.1-0.3-5.2-1.4c-1.3-1.3-2.3-3.8-1.9-5.5c0.4-1.6,2.5-3.1,4.1-4.1c1-0.6,2.7-0.2,4.1-0.2
		c18.7,0,37.5,0,56.2,0c7.5,0,10.1-2.6,10.1-10.1c0-5.6,0.1-11.3,0-16.9c-0.1-6.3-2.7-9-8.9-9c-34.7,0-69.5,0-104.2,0
		c-6,0-8.7,2.8-8.8,8.7c0,6.1,0,12.2,0,18.4c0,6,2.9,8.9,9.1,8.9c6,0.1,12,0,18,0c4.1,0,6.6,2.1,6.7,5.4c0.1,3.5-2.5,5.8-6.8,5.8
		c-6.4,0.1-12.8,0.1-19.1,0c-11.1-0.2-19-8.2-19.1-19.3c-0.1-6.5-0.1-13,0-19.5c0.1-12,7.8-19.7,20.1-19.8
		C247.6,149.6,264.9,149.7,282.3,149.7z"/>
	<path d="M355.2,313.8c0,9.5,0,19,0,28.5c-0.1,11.1-6.7,17.6-17.8,17.6c-3,0-6,0.1-9,0c-9.2-0.3-16-7.2-16.1-16.4
		c-0.1-19.9-0.1-39.7,0-59.6c0-8.1,5.4-14.2,13.4-14.9c5.3-0.5,10.8-0.5,16.1,0c7.9,0.7,13.2,6.5,13.4,14.5
		C355.3,293.6,355.1,303.7,355.2,313.8C355.2,313.8,355.2,313.8,355.2,313.8z M323.5,313.5c0,9.6,0,19.2,0,28.8c0,4.4,1.7,6.2,6,6.3
		c3,0.1,6,0.1,9,0c3.4-0.1,5.3-1.9,5.3-5.4c0-19.6,0-39.2,0-58.8c0-2.8-1.4-4.2-4.1-4.2c-3.6,0-7.2,0-10.9,0c-4.6,0-5.4,0.9-5.4,5.6
		C323.5,295,323.5,304.2,323.5,313.5z"/>
	<path d="M260.9,290.4c0-3.4-0.2-6.8,0-10.1c0.4-6.3,4.5-11,10.8-11.3c7.1-0.4,14.3-0.4,21.3,0.1c6.3,0.4,10.5,5.1,10.7,11.4
		c0.2,6.5,0.2,13,0,19.5c-0.2,6.7-5,11.6-11.7,11.8c-6.6,0.2-13.3,0.2-19.9,0c-6.4-0.2-11-4.9-11.4-11.3
		C260.7,297.2,260.9,293.8,260.9,290.4C260.9,290.4,260.9,290.4,260.9,290.4z M272.2,280.4c0,6.2-0.1,12,0.1,17.7
		c0,0.8,1,2.3,1.5,2.3c6.2,0.2,12.4,0.1,18.5,0.1c0-7.1,0-13.6,0-20.1C285.5,280.4,279.1,280.4,272.2,280.4z"/>
	<path d="M303.9,338.4c0,3.1,0.1,6.2,0,9.4c-0.2,7-5.1,12-12.1,12.1c-6.2,0.1-12.5,0.1-18.7,0c-7.1-0.1-11.9-4.8-12.1-12
		c-0.2-6.2-0.2-12.5,0-18.7c0.2-7.5,4.7-12,12.2-12.3c6.2-0.2,12.5-0.2,18.7,0c7.4,0.3,11.9,5.1,12,12.5
		C303.9,332.4,303.9,335.4,303.9,338.4z M272.2,328.5c0,6.2-0.1,12.1,0.1,18.1c0,0.7,1.3,1.9,2,1.9c5.5,0.2,11,0.1,16.5,0
		c0.6,0,1.7-0.9,1.7-1.4c0.1-6.2,0.1-12.4,0.1-18.6C285.5,328.5,279.1,328.5,272.2,328.5z"/>
	<path d="M253,290.5c0,3.1,0.1,6.2,0,9.4c-0.2,6.6-4.8,11.7-11.5,11.9c-6.6,0.2-13.2,0.2-19.8,0c-6.8-0.2-11.5-5.2-11.6-12.2
		c-0.1-6.2-0.1-12.5,0-18.7c0.1-6.8,4.4-11.7,11.3-12c6.7-0.3,13.5-0.3,20.2,0c7,0.3,11.3,5.3,11.4,12.3
		C253,284.3,253,287.4,253,290.5z M241.5,280.5c-6.8,0-13.3,0-19.8,0c0,6.8,0,13.3,0,19.9c6.8,0,13.2,0,19.8,0
		C241.5,293.7,241.5,287.3,241.5,280.5z"/>
	<path d="M210.1,338.3c0-3.2-0.1-6.5,0-9.7c0.2-6.3,4.3-11.1,10.6-11.4c7.2-0.4,14.5-0.4,21.7,0c6.2,0.3,10.4,5.2,10.6,11.5
		c0.1,6.5,0.1,13,0,19.5c-0.1,6.6-4.9,11.6-11.5,11.8c-6.6,0.2-13.2,0.2-19.8,0c-6.6-0.2-11.3-5.2-11.5-11.9
		C210,344.7,210.1,341.5,210.1,338.3z M241.7,328.4c-6.9,0-13.4,0-20.1,0c0,6.7,0,13.2,0,20.2c6.2,0,12.2,0.1,18.1-0.1
		c0.7,0,1.8-1.6,1.9-2.5C241.8,340.3,241.7,334.6,241.7,328.4z"/>
	<path d="M282.1,261.2c-3.4,0-6.8,0.1-10.1,0c-5.9-0.3-10.7-4.5-11-10.3c-0.4-7.4-0.4-14.7,0-22.1c0.3-5.9,5.3-10.3,11.3-10.4
		c6.6-0.2,13.3-0.2,19.9,0c6.4,0.2,11.3,5,11.5,11.5c0.2,6.6,0.2,13.3,0,19.9c-0.2,6.6-4.9,11.1-11.5,11.5
		C288.9,261.3,285.5,261.2,282.1,261.2z M272.4,249.6c6.8,0,13.3,0,19.8,0c0-6.8,0-13.3,0-19.8c-6.8,0-13.2,0-19.8,0
		C272.4,236.5,272.4,242.9,272.4,249.6z"/>
	<path d="M355.1,239.8c0,3.4,0.1,6.8,0,10.1c-0.3,6.2-4.8,11-10.9,11.2c-7,0.2-14,0.2-21,0c-6-0.2-10.8-5.1-10.9-11.2
		c-0.2-6.7-0.2-13.5,0-20.2c0.2-6.2,5.1-11.1,11.3-11.3c6.7-0.2,13.5-0.2,20.2,0c6.3,0.2,10.9,5,11.2,11.3
		C355.3,233.1,355.1,236.4,355.1,239.8z M323.7,249.7c6.7,0,13.2,0,19.9,0c0-6.8,0-13.3,0-19.8c-6.8,0-13.3,0-19.9,0
		C323.7,236.6,323.7,243,323.7,249.7z"/>
	<path d="M253,239.6c0,3.2,0.1,6.5,0,9.7c-0.2,6.6-4.7,11.5-11.2,11.8c-6.9,0.2-13.8,0.2-20.6,0c-6.3-0.2-10.9-5.1-11-11.5
		c-0.1-6.6-0.1-13.3,0-19.9c0.1-6.4,5-11.3,11.5-11.5c6.6-0.2,13.3-0.2,19.9,0c6.4,0.2,11.2,5.2,11.5,11.6
		C253,233.1,253,236.4,253,239.6z M221.6,229.7c0,6.9,0,13.4,0,20c6.8,0,13.3,0,19.8,0c0-6.8,0-13.3,0-20
		C234.7,229.7,228.4,229.7,221.6,229.7z"/>
	<path d="M72.3,298.6c1.8,1.7,3.3,3.3,4.9,4.8c0.9,0.9,1.8,2,2.9,2.7c1.1,0.8,2.5,1.1,3.6,1.9c2.5,1.9,3.4,4.3,1.8,7.2
		c-1.6,2.8-4,3.4-7.1,2.4c-2.3-0.7-4.8-1.1-7.2-1.2c-0.8,0-2.2,1-2.4,1.8c-0.2,0.8,0.5,2.3,1.3,2.7c2,1.2,4.2,2.1,6.4,3
		c6,2.4,10.1,6.4,10.6,13.2c0.5,6.9-1.6,12.5-8.2,15.9c-0.8,0.4-1.3,1.6-1.6,2.5c-1,2.6-2.9,4.6-5.5,4.1c-2-0.4-3.7-2.4-5.4-3.8
		c-1.1-0.9-2-2.2-3.1-3.2c-2.1-2-4.8-3.6-6.4-6c-1.6-2.4-0.5-5.1,1.8-6.9c2.3-1.8,4.5-1.2,6.8,0.6c1.6,1.3,3.6,2.6,5.5,2.7
		c1.5,0.1,3.9-1.2,4.6-2.5c1.1-2.1,0.1-4.4-2.3-5.6c-2.6-1.2-5.3-2.1-7.9-3.4c-6.9-3.4-9.6-9.5-7.5-16.8c0.5-1.7,1.4-3.6,2.7-4.8
		c2.6-2.5,5.8-4.2,6.8-8.2C67.8,300.7,70.1,300,72.3,298.6z"/>
</g>
</svg>
