<?xml version="1.0" encoding="utf-8"?>
<!-- Generator: Adobe Illustrator 22.1.0, SVG Export Plug-In . SVG Version: 6.00 Build 0)  -->
<svg version="1.1" id="Слой_1" xmlns="http://www.w3.org/2000/svg" xmlns:xlink="http://www.w3.org/1999/xlink" x="0px" y="0px"
	 viewBox="0 0 290.2 384" style="enable-background:new 0 0 290.2 384;" xml:space="preserve">
<g>
	<path d="M265.9,0c1.8,0.5,3.6,1,5.3,1.6C282,5.3,289.8,15.4,290,26.8c0.3,15.4,0.2,30.7,0.1,46.1c0,4.1-2.2,6.6-5.6,6.5
		c-3.3,0-5.6-2.5-5.6-6.6c-0.1-14.4,0.2-28.8-0.2-43.1c-0.1-3.9-1.4-8.2-3.4-11.5c-3.2-5.3-8.7-7-14.9-7c-36,0.1-72,0-108,0
		c-40.2,0-80.5,0.3-120.7-0.2C20.4,11,11.2,17.7,11.3,31.7c0.3,81.1,0.2,162.2,0.1,243.4c0,1.7,0,3.5-0.4,5.2
		c-0.7,3-2.8,4.3-5.9,4.1c-2.9-0.3-4.6-1.9-4.9-4.8c-0.2-1.5-0.1-3-0.1-4.5c0-80.4,0.2-160.7-0.2-241.1C-0.1,15.6,8.1,3.7,24.4,0
		C104.9,0,185.4,0,265.9,0z"/>
	<path d="M290.1,229.5c0,41.5,0,83,0,124.5c0,14.4-7.8,25.3-20.4,28.8c-2.8,0.8-5.9,1.2-8.9,1.2c-77.1,0.1-154.2,0.1-231.3,0
		c-17,0-29.1-12-29.3-28.9c-0.1-16.1,0-32.2,0-48.4c0-4.7,2.1-7.3,5.7-7.2c3.5,0.1,5.5,2.8,5.6,7.5c0,15.6,0,31.2,0,46.9
		c0,12.2,6.8,18.9,19.1,18.9c76.2,0,152.5,0,228.7,0c13,0,19.6-6.6,19.6-19.5c0-83.1,0-166.2,0-249.3c0-1.7,0-3.5,0.4-5.2
		c0.6-2.8,2.7-4.3,5.5-4.1c3,0.1,4.9,1.8,5.3,4.8c0.2,1.5,0.1,3,0.1,4.5C290.1,145.8,290.1,187.6,290.1,229.5z"/>
	<path d="M145.6,24.2c32.2,0,64.5,0,96.7,0c15.4,0,23.6,8.2,23.6,23.6c0,9,0,18,0,27C265.8,87.1,257,96,244.6,96
		c-51.2,0-102.5,0-153.7,0c-4.7,0-7.3-2-7.3-5.6c0-3.6,2.6-5.6,7.3-5.6c50.2,0,100.5,0,150.7,0c10.2,0,13-2.9,13-13.2
		c0-8.2,0-16.5,0-24.7c0-7.8-3.6-11.4-11.5-11.4c-12.5,0-25,0-37.5,0c-52.6,0-105.2,0-157.8,0c-3.9,0-7.7,0.3-10,3.8
		c-1.2,1.9-2,4.4-2.1,6.6c-0.2,9.5-0.1,19-0.1,28.5c0,6.7,3.8,10.4,10.4,10.5c5.2,0.1,10.5,0,15.7,0c4.2,0.1,6.9,2.4,6.7,5.9
		C68.4,94,65.9,96,61.8,96c-5.7,0-11.5,0.1-17.2,0c-11-0.3-19.9-9.1-20.1-20.2c-0.2-9.9-0.1-19.7,0-29.6c0-13.1,8.7-21.9,21.8-22
		c16.7-0.1,33.5,0,50.2,0C112.8,24.2,129.2,24.2,145.6,24.2z"/>
	<path d="M265.9,303.6c0,16.2,0,32.5,0,48.7c0,5.6-1.8,7.5-7.4,7.5c-11.5,0-23,0-34.5,0c-5.3,0-7.2-1.9-7.2-7.3
		c0-32.7,0-65.5,0-98.2c0-5.4,1.9-7.3,7.2-7.3c11.6,0,23.2,0,34.9,0c5.1,0,7,2,7,7.1C265.9,270.6,265.9,287.1,265.9,303.6z
		 M254.5,258.2c-7.8,0-15.2,0.2-22.5-0.1c-3.2-0.1-4,1-4,4c0.1,25.9,0.1,51.7,0.1,77.6c0,2.1-0.2,4.3,0.1,6.4
		c0.1,0.9,1.2,2.3,1.9,2.3c8.1,0.2,16.2,0.1,24.4,0.1C254.5,318.3,254.5,288.5,254.5,258.2z"/>
	<path d="M48.8,296.2c-5.7,0-11.5,0-17.2,0c-5.1,0-7.1-2-7.1-6.9c0-11.7,0-23.5,0-35.2c0-5,2-7,7.1-7c11.6,0,23.2,0,34.8,0
		c5.2,0,7.1,1.9,7.2,6.9c0.1,11.7,0.1,23.5,0,35.2c0,5.1-2,7-7.1,7C60.5,296.2,54.7,296.2,48.8,296.2z M35.8,284.6
		c9,0,17.5,0,26.2,0c0-8.8,0-17.4,0-26.2c-8.8,0-17.5,0-26.2,0C35.8,267.3,35.8,275.9,35.8,284.6z"/>
	<path d="M202.3,271.7c0,6,0,12,0,18c0,4.4-2.1,6.5-6.4,6.5c-12.1,0.1-24.2,0.1-36.3,0c-4.1,0-6.2-2.1-6.2-6.3
		c-0.1-12.1-0.1-24.2,0-36.3c0-4.4,2-6.5,6.4-6.5c12-0.1,24-0.1,36,0c4.6,0,6.5,2.1,6.6,6.7C202.3,259.7,202.3,265.7,202.3,271.7z
		 M190.8,258.4c-8.9,0-17.4,0-26.1,0c0,8.9,0,17.5,0,26.3c8.8,0,17.3,0,26.1,0C190.8,275.9,190.8,267.3,190.8,258.4z"/>
	<path d="M137.1,271.9c0,5.9,0,11.7,0,17.6c-0.1,4.6-2,6.6-6.6,6.7c-11.9,0.1-23.7,0.1-35.6,0c-4.7,0-6.7-2-6.7-6.6
		c-0.1-12,0-24,0-36c0-4.6,2-6.6,6.6-6.7c11.9-0.1,23.7-0.1,35.6,0c4.8,0,6.7,2,6.7,6.9C137.1,259.9,137.1,265.9,137.1,271.9z
		 M99.5,284.7c9,0,17.5,0,26.1,0c0-8.9,0-17.5,0-26.2c-8.8,0-17.4,0-26.1,0C99.5,267.3,99.5,275.8,99.5,284.7z"/>
	<path d="M24.4,335c0-5.9,0-11.7,0-17.6c0-4.6,2-6.7,6.6-6.7c12-0.1,24-0.1,36,0c4.4,0,6.5,2,6.5,6.4c0.1,12.1,0.1,24.2,0,36.3
		c0,4.4-2.1,6.4-6.6,6.4c-12,0.1-24,0.1-36,0c-4.6,0-6.5-2.2-6.5-6.8C24.4,347,24.4,341,24.4,335z M62,322c-8.9,0-17.4,0-26.1,0
		c0,8.8,0,17.5,0,26.3c8.8,0,17.3,0,26.1,0C62,339.6,62,331,62,322z"/>
	<path d="M88.1,335c0-5.9,0-11.7,0-17.6c0-4.7,2-6.7,6.5-6.7c12-0.1,24-0.1,36,0c4.4,0,6.4,2,6.5,6.4c0.1,12.1,0.1,24.2,0,36.3
		c0,4.2-2,6.3-6.2,6.4c-12.2,0.1-24.5,0.1-36.7,0c-4.1,0-6-2.2-6.1-6.4C88,347.2,88.1,341.1,88.1,335z M125.6,322.1
		c-8.8,0-17.5,0-26.1,0c0,8.9,0,17.4,0,26.1c8.8,0,17.4,0,26.1,0C125.6,339.4,125.6,330.8,125.6,322.1z"/>
	<path d="M202.3,335.2c0,6,0,12,0,18c0,4.4-2,6.5-6.4,6.5c-12.1,0.1-24.2,0.1-36.3,0c-4.2,0-6.2-2.1-6.2-6.3
		c-0.1-12.2-0.1-24.5,0-36.7c0-4.1,2.1-6.1,6.4-6.2c12.1-0.1,24.2-0.1,36.3,0c4.2,0,6.2,2.1,6.3,6.3
		C202.3,323,202.2,329.1,202.3,335.2z M164.7,348.3c9,0,17.5,0,26,0c0-8.9,0-17.6,0-26.2c-8.8,0-17.4,0-26,0
		C164.7,330.9,164.7,339.5,164.7,348.3z"/>
	<path d="M48.9,232.5c-5.7,0-11.5,0-17.2,0c-5.4,0-7.3-1.9-7.3-7.1c0-11.6,0-23.2,0-34.8c0-5.2,1.8-7.1,6.9-7.2
		c11.7-0.1,23.5-0.1,35.2,0c5.1,0,6.9,1.9,6.9,7.1c0.1,11.6,0.1,23.2,0,34.8c0,5.3-2,7.1-7.3,7.2C60.4,232.5,54.7,232.5,48.9,232.5z
		 M62,221.1c0-8.9,0-17.5,0-26.3c-8.9,0-17.5,0-26.1,0c0,8.9,0,17.6,0,26.3C44.7,221.1,53.2,221.1,62,221.1z"/>
	<path d="M88.1,207.7c0-6-0.1-12,0-18c0-4.2,1.9-6.3,6.2-6.3c12.2-0.1,24.5-0.1,36.7,0c4.2,0,6.1,2.1,6.1,6.4
		c0.1,12.1,0.1,24.2,0,36.3c0,4.3-2.1,6.3-6.5,6.4c-12,0.1-24,0.1-36,0c-4.4,0-6.4-2.1-6.5-6.4C88,219.9,88.1,213.8,88.1,207.7z
		 M99.5,221c9,0,17.5,0,26.1,0c0-8.9,0-17.5,0-26.2c-8.8,0-17.4,0-26.1,0C99.5,203.6,99.5,212.2,99.5,221z"/>
	<path d="M202.3,208c0,6,0,12,0,18c0,4.4-2,6.5-6.4,6.5c-12.1,0.1-24.2,0.1-36.3,0c-4.1,0-6.2-2.1-6.2-6.3
		c-0.1-12.2-0.1-24.5,0-36.7c0-4,1.9-6.1,6-6.1c12.4-0.1,24.7-0.1,37.1,0c4,0,5.8,2.2,5.9,6.2C202.3,195.8,202.3,201.9,202.3,208z
		 M164.6,221c9,0,17.5,0,26.1,0c0-8.9,0-17.5,0-26.2c-8.8,0-17.4,0-26.1,0C164.6,203.7,164.6,212.2,164.6,221z"/>
	<path d="M265.9,207.7c0,5.9,0,11.7,0,17.6c0,5.1-1.9,7.1-6.9,7.1c-11.7,0-23.5,0-35.2,0c-4.9,0-6.9-2-6.9-6.8
		c-0.1-11.9-0.1-23.7,0-35.6c0-4.9,1.9-6.7,6.9-6.7c11.7-0.1,23.5-0.1,35.2,0c5.1,0,6.9,2,6.9,7.2C266,196.3,265.9,202,265.9,207.7z
		 M228.3,221c8.9,0,17.5,0,26.2,0c0-8.8,0-17.4,0-26.1c-8.8,0-17.5,0-26.2,0C228.3,203.8,228.3,212.3,228.3,221z"/>
	<path d="M137.1,144.5c0,5.9,0,11.7,0,17.6c0,4.8-2,6.7-6.9,6.7c-11.7,0-23.5,0-35.2,0c-4.9,0-6.9-1.9-6.9-6.7c0-11.9,0-23.7,0-35.6
		c0-4.7,1.9-6.7,6.5-6.7c12-0.1,24-0.1,36,0c4.7,0,6.5,2,6.5,6.7C137.1,132.5,137.1,138.5,137.1,144.5z M125.7,131.2
		c-8.9,0-17.5,0-26.1,0c0,8.9,0,17.5,0,26c8.9,0,17.4,0,26.1,0C125.7,148.5,125.7,140.1,125.7,131.2z"/>
	<path d="M202.3,144.5c0,5.9,0,11.7,0,17.6c0,4.7-2,6.7-6.6,6.7c-12,0-24,0.1-36,0c-4.4,0-6.4-2-6.4-6.4c-0.1-12.1-0.1-24.2,0-36.3
		c0-4.3,1.9-6.2,6.2-6.3c12.2-0.1,24.5-0.1,36.7,0c4.2,0,6,2.1,6.1,6.4C202.3,132.3,202.3,138.4,202.3,144.5z M164.8,131.2
		c0,8.8,0,17.5,0,26.1c8.8,0,17.4,0,26,0c0-8.8,0-17.4,0-26.1C182,131.2,173.5,131.2,164.8,131.2z"/>
	<path d="M48.7,168.8c-5.9,0-11.7,0-17.6,0c-4.7,0-6.7-2-6.7-6.6c0-12,0-24,0-36c0-4.4,2-6.4,6.4-6.5c12.1-0.1,24.2-0.1,36.3,0
		c4.3,0,6.3,1.9,6.3,6.2c0.1,12.2,0.1,24.5,0,36.7c0,4.2-2.1,6.1-6.4,6.1C60.9,168.9,54.8,168.8,48.7,168.8z M35.9,157.2
		c8.9,0,17.5,0,26.1,0c0-8.8,0-17.4,0-26.1c-8.8,0-17.4,0-26.1,0C35.9,139.9,35.9,148.5,35.9,157.2z"/>
	<path d="M265.9,144.2c0,6,0,12,0,18c0,4.6-2,6.6-6.6,6.7c-12,0-24,0.1-36,0c-4.4,0-6.4-2-6.5-6.4c-0.1-12.1-0.1-24.2,0-36.3
		c0-4.3,2-6.2,6.2-6.2c12.2-0.1,24.5-0.1,36.7,0c4.1,0,6.1,2.2,6.1,6.4C266,132.2,265.9,138.2,265.9,144.2z M228.2,157.3
		c8.9,0,17.6,0,26.2,0c0-8.8,0-17.4,0-26c-8.8,0-17.5,0-26.2,0C228.2,140,228.2,148.5,228.2,157.3z"/>
</g>
</svg>
