<?xml version="1.0" encoding="utf-8"?>
<!-- Generator: Adobe Illustrator 22.1.0, SVG Export Plug-In . SVG Version: 6.00 Build 0)  -->
<svg version="1.1" id="Слой_1" xmlns="http://www.w3.org/2000/svg" xmlns:xlink="http://www.w3.org/1999/xlink" x="0px" y="0px"
	 viewBox="0 0 345.4 384" style="enable-background:new 0 0 345.4 384;" xml:space="preserve">
<g>
	<path d="M270.2,0c3.3,0,6.5,0,9.8,0c12.2,4.3,14.6,14.1,13.2,25.6c7.8,0,14.8,0,21.8,0c18.8,0,30.5,11.6,30.5,30.4
		c0,99.2,0,198.5,0,297.7c0,2.7-0.1,5.5-0.7,8.2c-3.1,13.7-14.2,22.1-29,22.1c-85.6,0-171.2,0-256.8,0c-10.5,0-21,0.1-31.5,0
		c-11.9-0.2-22.4-7.9-25.9-19.2c-1.1-3.5-1.5-7.4-1.5-11.1C0,254.4,0,155.2,0,56c0-1.2,0-2.5,0.1-3.7c0.9-11.7,6.8-20,17.6-24.4
		c3.8-1.6,8.2-2,12.4-2.2c7.2-0.3,14.4-0.1,21.4-0.1c0.3-0.7,0.4-0.9,0.4-1.1c0.1-0.9,0.1-1.8,0.1-2.6C51.2,11.3,55.2,3.8,65.5,0
		c3.3,0,6.5,0,9.8,0c12.6,4,14.9,13.8,13.5,25.4c56.2,0,111.8,0,167.8,0c0-1.8-0.1-3.4,0-5c0.2-2.7,0.1-5.5,0.7-8.1
		C259,5.6,264.1,2.2,270.2,0z M11.5,117.3c-0.1,1.5-0.2,2.3-0.2,3.2c0,70.6,0,141.2,0,211.9c0,11,7,17.9,18.2,17.9c72,0,144,0,216,0
		c9.2,0,14.3-5.1,14.3-14.5c0-11.4,0-22.7,0-34.1c0-15.8,9.9-25.7,25.7-25.8c11.1-0.1,22.2,0,33.4,0c10.6,0,15.3-4.7,15.3-15.3
		c0-46.2,0-92.5,0-138.7c0-1.3,0-2.7,0-4.4c-2.2,0-3.9,0-5.6,0c-76.6,0-153.2,0-229.9,0c-1.7,0-3.5,0-5.2-0.2
		c-2.9-0.5-4.4-2.5-4.4-5.2c-0.1-2.8,1.4-4.9,4.2-5.4c1.7-0.3,3.5-0.3,5.2-0.3c76.7,0,153.5,0,230.2,0c1.7,0,3.4,0,5.3,0
		c0.1-1.6,0.2-2.7,0.2-3.8c0-15.6,0-31.2,0-46.9c0-11.8-6.9-18.5-18.7-18.5c-14.6,0-29.2,0-43.9,0c-1.2,0-2.4,0.1-3.8,0.2
		c0,5.1,0,9.7,0,14.3c0,5.8,0.8,6.7,6.6,8c3.2,0.7,5.1,3.2,4.8,6.2c-0.3,2.9-2.7,4.9-6,4.9c-1.1,0-2.3-0.1-3.3-0.4
		c-7.7-1.8-13-8.2-13.2-16.1c-0.1-5.6,0-11.2,0-16.8c-64.7,0-128.8,0-193.2,0c0,4.9,0,9.5,0,14.2c0,5.5,1.1,6.8,6.6,8
		c3.2,0.7,5.1,3.1,4.8,6.2c-0.3,3-2.6,5-6,5c-1.1,0-2.3-0.1-3.3-0.4c-8-1.9-13.2-8.6-13.4-17.2c-0.1-5.2,0-10.4,0-16
		c-7.6,0-14.6,0-21.7,0c-12.4,0-19.1,6.7-19.1,18.9c0,15.4,0,30.7,0,46.1c0,1.3,0.1,2.6,0.2,4.1c2,0,3.4,0,4.9,0
		c17.6,0,35.2,0,52.9,0c1.5,0,3,0,4.5,0.4c2.6,0.7,3.9,2.6,3.9,5.3c0,2.7-1.4,4.5-4,5.2c-1.4,0.4-3,0.3-4.5,0.3
		c-17.6,0-35.2,0-52.9,0C14.8,117.3,13.3,117.3,11.5,117.3z M334.2,295.3c-1.7,1.6-2.7,2.5-3.6,3.4c-17.5,17.5-35.1,34.9-52.4,52.5
		c-6.9,7-14.9,10.3-24.8,10.3c-72.9-0.1-145.7-0.1-218.6,0c-8.1,0-16-0.2-23.5-5.7c0.3,2.1,0.4,3.4,0.7,4.7
		c2.2,7.6,8.7,12.2,17.3,12.2c95.6,0,191.2,0,286.9,0c11.1,0,18-6.8,18.1-17.9c0.1-9.4,0-18.7,0-28.1
		C334.2,316.6,334.2,306.5,334.2,295.3z M271.1,340.9c18.1-18.1,36.3-36.3,53.8-53.8c-3.3,0-7.7,0-12,0c-9.7,0-19.5-0.1-29.2,0.1
		c-6.8,0.1-12.4,4.9-12.5,11.5C270.8,313,271.1,327.3,271.1,340.9z M63.2,25.3c5.1,0,9.6,0,14.7,0c-1.2-4.6,2-10.1-3.1-13
		c-2.2-1.2-6.2-1.3-8.4,0C61.3,15.2,64,20.6,63.2,25.3z M282.1,25.3c-0.7-4.6,2.1-10.1-3.1-13c-2.3-1.2-6.6-1.1-8.7,0.3
		c-4.6,3.1-1.8,8.3-2.5,13c4.4,0,8.3,0,12.1,0C280.5,25.6,281.1,25.5,282.1,25.3z"/>
	<path d="M58,258.1c-4.2,0-8.5,0-12.7,0c-6.7-0.1-11.2-4.2-11.4-10.8c-0.2-9-0.2-18,0-27c0.1-6.2,4.3-10.6,10.7-10.8
		c9-0.3,18-0.3,27,0c6.4,0.2,10.8,4.6,10.9,11.1c0.2,8.9,0.2,17.8,0,26.6c-0.2,6.8-4.8,10.9-11.7,11C66.5,258.1,62.2,258.1,58,258.1
		z M71,246.6c0-8.7,0-17.2,0-25.8c-8.7,0-17.1,0-25.7,0c0,8.7,0,17.2,0,25.8C54,246.6,62.4,246.6,71,246.6z"/>
	<path d="M211.1,258.1c-4.5,0-9,0.1-13.5,0c-5.9-0.1-10.5-3.9-10.7-9.8c-0.4-9.6-0.4-19.2,0-28.8c0.2-5.8,4.6-9.8,10.7-9.9
		c9-0.2,18-0.3,27,0c6.5,0.2,10.6,4.7,10.7,11.2c0.2,8.7,0.2,17.5,0,26.2c-0.1,6.9-4.6,11.1-11.4,11.2
		C219.6,258.1,215.3,258.1,211.1,258.1z M198.1,220.8c0,8.8,0,17.3,0,25.9c8.7,0,17.1,0,25.7,0c0-8.7,0-17.2,0-25.9
		C215.1,220.8,206.8,220.8,198.1,220.8z"/>
	<path d="M134.3,258.1c-4.4,0-8.8,0.1-13.1,0c-6.1-0.1-10.6-4.1-10.8-10.2c-0.3-9.4-0.3-18.7,0-28.1c0.2-6,4.5-10.2,10.7-10.3
		c9-0.2,18-0.3,27,0c6.4,0.2,10.6,4.6,10.8,11.2c0.2,8.7,0.2,17.5,0,26.2c-0.2,7.1-4.7,11.2-11.8,11.2
		C142.8,258.1,138.5,258.1,134.3,258.1z M121.7,220.8c0,8.7,0,17.2,0,25.8c8.7,0,17.1,0,25.7,0c0-8.7,0-17.2,0-25.8
		C138.7,220.8,130.3,220.8,121.7,220.8z"/>
	<path d="M57.9,188.6c-4.1,0-8.3,0.1-12.4,0c-7.4-0.2-11.7-4.3-11.8-11.7c-0.1-8.5-0.1-17,0-25.5c0.1-7,4.2-11.3,11.1-11.5
		c8.7-0.2,17.5-0.2,26.2,0c6.9,0.2,11.2,4.5,11.3,11.4c0.2,8.6,0.2,17.2,0,25.9c-0.1,6.9-4.5,11.1-11.4,11.3
		C66.7,188.7,62.3,188.6,57.9,188.6z M71,177.1c0-8.9,0-17.3,0-25.8c-8.7,0-17.2,0-25.6,0c0,8.8,0,17.3,0,25.8
		C54,177.1,62.3,177.1,71,177.1z"/>
	<path d="M110.2,164.2c0-4.2-0.1-8.5,0-12.7c0.2-7,4.2-11.3,11.2-11.5c8.7-0.2,17.5-0.2,26.2,0c7,0.2,11.1,4.5,11.3,11.4
		c0.2,8.6,0.2,17.2,0,25.9c-0.1,6.9-4.5,11.2-11.4,11.3c-8.6,0.2-17.2,0.2-25.9,0c-7-0.1-11.1-4.3-11.4-11.3
		C110,172.9,110.2,168.5,110.2,164.2z M147.4,177.1c0-8.9,0-17.3,0-25.8c-8.7,0-17.1,0-25.7,0c0,8.7,0,17.1,0,25.8
		C130.3,177.1,138.7,177.1,147.4,177.1z"/>
	<path d="M311.7,164.2c0,4.2,0.1,8.5,0,12.7c-0.1,7-4.2,11.4-11.1,11.5c-8.9,0.2-17.7,0.2-26.6,0c-6.2-0.1-10.6-4.1-10.8-10.2
		c-0.4-9.4-0.4-18.7,0-28.1c0.2-6,4.4-10,10.5-10.2c9.1-0.3,18.2-0.3,27.4,0c6.6,0.2,10.5,4.6,10.7,11.1c0,0.2,0,0.5,0,0.7
		C311.7,156,311.7,160.1,311.7,164.2z M274.2,151.3c0,8.3,0,16.1,0.1,24c0,0.7,1,1.9,1.6,1.9c8.1,0.1,16.1,0.1,24.4,0.1
		c0-8.9,0-17.3,0-26C291.6,151.3,283.2,151.3,274.2,151.3z"/>
	<path d="M287.5,259.8c-4.4,0-8.8,0.1-13.1,0c-6.7-0.2-11.1-4.3-11.3-11c-0.3-8.9-0.3-17.7,0-26.6c0.2-6.6,4.4-10.8,10.9-11
		c8.9-0.2,17.7-0.2,26.6,0c6.9,0.2,11,4.6,11.1,11.5c0.1,8.5,0.1,17,0,25.5c-0.1,7.1-4.3,11.4-11.5,11.6
		C296,259.9,291.7,259.8,287.5,259.8z M300.2,222.6c-8.7,0-17.2,0-25.8,0c0,8.7,0,17.1,0,25.7c8.7,0,17.1,0,25.8,0
		C300.2,239.7,300.2,231.3,300.2,222.6z"/>
	<path d="M235.3,164.3c0,4.2,0.1,8.5,0,12.7c-0.2,7-4.3,11.3-11.2,11.5c-8.7,0.2-17.5,0.2-26.2,0c-6.7-0.1-11-4.3-11.2-11.1
		c-0.2-8.9-0.2-17.7,0-26.6c0.2-6.6,4.4-10.7,11-10.9c8.9-0.2,17.7-0.2,26.6,0c6.8,0.2,10.8,4.5,11,11.2
		C235.4,155.5,235.3,159.9,235.3,164.3z M223.7,177.1c0-8.7,0-17.2,0-25.7c-8.8,0-17.2,0-25.6,0c0,8.7,0,17.1,0,25.7
		C206.7,177.1,215.2,177.1,223.7,177.1z"/>
	<path d="M57.8,327.7c-4.2,0-8.5,0.1-12.7,0c-6.6-0.1-11.1-4.4-11.2-11c-0.2-9-0.2-18,0-26.9c0.1-6.4,4.6-10.7,11-10.8
		c8.7-0.1,17.5-0.1,26.2,0c6.6,0.1,11.2,4.4,11.3,11c0.2,8.9,0.2,17.7,0,26.6c-0.2,6.8-4.8,11.1-11.5,11.2
		C66.5,327.8,62.2,327.7,57.8,327.7z M71,316.3c0-8.7,0-17.3,0-25.9c-8.7,0-17.1,0-25.8,0c0,8.7,0,17.2,0,25.9
		C53.9,316.3,62.4,316.3,71,316.3z"/>
	<path d="M134.8,279c4.1,0,8.2-0.1,12.3,0c6.9,0.1,11.5,4.3,11.6,11c0.2,8.9,0.2,17.7,0,26.6c-0.2,6.8-4.8,11.1-11.6,11.1
		c-8.5,0.1-17,0.1-25.4,0c-6.9,0-11.4-4.2-11.6-11c-0.2-8.9-0.2-17.7,0-26.6c0.2-6.9,4.6-11,11.5-11.1
		C126.1,278.9,130.5,279,134.8,279z M147.5,290.5c-8.9,0-17.3,0-25.8,0c0,8.7,0,17.3,0,25.8c8.7,0,17.2,0,25.8,0
		C147.5,307.6,147.5,299.2,147.5,290.5z"/>
	<path d="M223.9,316.5c0-8.9,0-17.3,0-25.9c-8.6,0-17.2,0-26.2,0c0,2.4,0.1,4.7,0,7c-0.2,3.5-2.2,5.5-5.3,5.6
		c-3.3,0.1-5.4-2-5.8-5.6c0-0.2,0-0.5,0-0.7c-0.6-11.6,1.1-18.8,16.9-18c6.6,0.4,13.2,0,19.9,0.1c7.5,0.1,11.9,4.4,12,11.9
		c0.1,8.2,0.1,16.5,0,24.7c-0.1,7.7-4.4,12.1-12.1,12.1c-8.4,0-16.7,0.1-25.1,0c-6.2-0.1-10.7-4.1-11.3-9.8
		c-0.3-3.1,0.8-5.5,3.8-6.4c3-0.9,5.3,0.4,6.8,3.2c0.4,0.8,1.5,1.8,2.2,1.8C207.6,316.5,215.6,316.5,223.9,316.5z"/>
</g>
</svg>
