<?xml version="1.0" encoding="utf-8"?>
<!-- Generator: Adobe Illustrator 22.1.0, SVG Export Plug-In . SVG Version: 6.00 Build 0)  -->
<svg version="1.1" id="Слой_1" xmlns="http://www.w3.org/2000/svg" xmlns:xlink="http://www.w3.org/1999/xlink" x="0px" y="0px"
	 viewBox="0 0 384.1 384" style="enable-background:new 0 0 384.1 384;" xml:space="preserve">
<style type="text/css">
	.st0{fill:#434142;}
	.st1{fill:#E85122;}
</style>
<g>
	<g>
		<path class="st0" d="M384.1,358.5c-2,4.4-3.3,9.2-6,13.1c-5.4,8.1-13.6,11.9-23.3,12.4c-0.6,0-1.2,0-1.9,0
			c-107.2,0-214.5,0-321.7,0c-16.1,0-28.2-10.1-30.8-25.6c-0.3-2-0.4-4-0.4-6c0-11.1,0.2-22.3-0.1-33.4C-0.4,301.5,3,284.2,5,266.9
			c3.2-27,6.7-54,10.1-81c0.6-4.6,1-9.2,1.7-13.8c1.4-9.8,8.6-16,18.5-16.1c4.1,0,8.2,0,12.5,0c0,4,0,7.8,0,12c-4.1,0-8,0-12,0
			c-4.8,0.1-6.7,1.9-7.3,6.7c-5.4,43.1-10.8,86.2-16.2,129.4c-0.2,1.5-0.3,3-0.3,4.5c0,14.9,0,29.7,0,44.6
			c0,11.2,7.6,18.8,18.9,18.8c107.4,0,214.7,0,322.1,0c11.5,0,19-7.6,19-19c0-14.7,0.5-29.5-0.2-44.2c-0.6-11.8-2.5-23.6-4-35.3
			c-3.3-27-6.7-54-10.1-81c-0.7-5.8-1.5-11.6-2.2-17.5c-0.6-5-2.5-6.8-7.5-6.8c-12.5,0-25,0-37.5,0c-1.4,0-2.7,0-4.3,0
			c0-4.1,0-7.8,0-12c6.7,0,13.3,0,19.9,0c7.5,0,15,0,22.5,0c10.1,0.1,17.5,6.3,18.7,16.3c2.9,22.7,5.6,45.4,8.5,68
			c2.5,20.2,5,40.4,7.6,60.6c0.1,0.5,0.4,0.9,0.6,1.3C384.1,321,384.1,339.8,384.1,358.5z"/>
		<path class="st0" d="M345.9,0c6.9,2.6,12.2,6.7,13.8,14.3c0.3,1.7,0.4,3.5,0.4,5.2c0,35,0,70,0,105c0,12-7.4,19.5-19.4,19.5
			c-13.4,0-26.7,0-40.6,0c0,1.4,0,2.6,0,3.7c0,8.5,0.1,17,0,25.5c0,4.4-2.3,6.7-6.7,6.7c-15.5,0.1-31,0.1-46.5,0
			c-4.6,0-6.7-2.4-6.7-7.1c0-9.5,0-18.9,0-28.9c-2.8,0-5.4,0-8,0c-11,0-22,0-33,0c-11.4,0-19-7.6-19-19.1c0-34.1,0.2-68.2-0.1-102.4
			c-0.1-11.1,3.7-18.8,14.4-22.5C244.9,0,295.4,0,345.9,0z M270.1,132c23.2,0,46.5,0,69.7,0c6.4,0,8.2-1.9,8.2-8.3
			c0-34.5,0-69,0-103.5c0-6.4-1.9-8.2-8.3-8.2c-46.5,0-93,0-139.5,0c-6.4,0-8.2,1.9-8.2,8.3c0,34.5,0,69,0,103.5
			c0,6.4,1.9,8.2,8.3,8.2C223.6,132,246.9,132,270.1,132z M252.3,144.1c0,8.1,0,15.9,0,23.7c12,0,23.8,0,35.5,0c0-8,0-15.8,0-23.7
			C275.9,144.1,264.3,144.1,252.3,144.1z"/>
		<g>
			<g>
				<path class="st1" d="M270,282c-21.2,0-42.5,0-63.7,0c-6.4,0-8.5-2.3-8-8.7c1.9-22.9,3.9-45.8,5.8-68.7c0.4-4.5,2.4-6.6,6.9-6.6
					c39.4,0,78.7,0,118.1,0c4.6,0,6.7,2,7.1,6.4c2,23,3.9,46,5.8,69.1c0.5,6.1-1.7,8.5-7.9,8.5C312.7,282,291.3,282,270,282z
					 M210.7,269.7c8.2,0,15.7,0,23.2,0c0-4,0-7.7,0-11.5c-7.5,0-14.8,0-22.3,0C211.3,262.1,211,265.8,210.7,269.7z M328.6,258.3
					c-7.7,0-15,0-22.3,0c0,4,0,7.7,0,11.5c7.8,0,15.3,0,23.2,0C329.2,265.8,328.9,262.1,328.6,258.3z M233.9,234.1
					c-6.9,0-13.4,0-20.3,0c-0.3,3.9-0.6,7.7-0.9,11.7c7.2,0,14.2,0,21.2,0C233.9,241.9,233.9,238.2,233.9,234.1z M306.3,234.2
					c0,4.1,0,7.8,0,11.6c7.1,0,14,0,21.2,0c-0.3-4-0.6-7.8-1-11.6C319.6,234.2,313,234.2,306.3,234.2z M214.6,221.7
					c6.7,0,13,0,19.2,0c0-4,0-7.8,0-11.5c-6.2,0-12.1,0-18.2,0C215.3,214.1,215,217.8,214.6,221.7z M324.6,210.2
					c-6.4,0-12.3,0-18.2,0c0,4,0,7.8,0,11.6c6.5,0,12.7,0,19.2,0C325.2,217.9,324.9,214.2,324.6,210.2z M263.9,210.3
					c-6.1,0-11.8,0-17.5,0c0,4,0,7.8,0,11.6c6,0,11.7,0,17.5,0C263.9,217.9,263.9,214.2,263.9,210.3z M276.3,221.7
					c6.1,0,11.9,0,17.5,0c0-4.1,0-7.8,0-11.5c-6,0-11.7,0-17.5,0C276.3,214.1,276.3,217.8,276.3,221.7z M246.3,245.7
					c6.1,0,11.9,0,17.7,0c0-4,0-7.7,0-11.5c-6,0-11.7,0-17.7,0C246.3,238.1,246.3,241.8,246.3,245.7z M293.9,245.8
					c0-4.1,0-7.8,0-11.6c-6,0-11.8,0-17.5,0c0,4,0,7.8,0,11.6C282.4,245.8,288,245.8,293.9,245.8z M264,258.3c-6.1,0-11.9,0-17.7,0
					c0,4,0,7.7,0,11.5c6,0,11.7,0,17.7,0C264,265.9,264,262.2,264,258.3z M293.8,269.8c0-4.1,0-7.9,0-11.5c-6.1,0-11.8,0-17.5,0
					c0,4,0,7.7,0,11.5C282.2,269.8,287.9,269.8,293.8,269.8z"/>
			</g>
		</g>
		<g>
			<g>
				<path class="st1" d="M96.8,87.4c2.1-2.3,4.2-4.8,6.5-7c3.3-3.2,6.2-3.2,9.5,0c2.3,2.3,4.4,4.7,7.6,8.2c2.5-3,4.4-5.6,6.6-7.9
					c3.5-3.6,6.5-3.5,10.1-0.1c1.2,1.1,2.3,2.3,3.4,3.4c1,1.1,1.9,2.3,3.9,4.7c2.4-3,4.3-5.5,6.3-7.8c2-2.3,4.4-3.7,7.6-2.4
					c3.1,1.3,3.8,4,3.8,7.1c0,30.1,0,60.2,0,90.4c0,1.2,0,2.4,0,4.1c3.9,0,7.5,0,11.1,0c4.7,0.1,6.9,2.3,6.9,6.9
					c0.1,11.4,0.1,22.7,0,34.1c0,4.7-2.3,6.9-6.9,6.9c-43.4,0-86.7,0-130.1,0c-4.7,0-6.9-2.2-6.9-6.9c-0.1-11.4-0.1-22.7,0-34.1
					c0-4.7,2.2-6.9,6.9-6.9c3.5-0.1,7,0,11.1,0c0-1.6,0-3,0-4.4c0-29.7,0-59.5,0-89.2c0-3.3,0.2-6.3,3.8-7.8c3.6-1.5,6,0.5,8.2,2.9
					c1.8,2,3.6,4.1,5.9,6.7c2.7-2.9,4.9-5.3,7.2-7.6c3.5-3.5,6.5-3.4,10.1,0c2.2,2.1,4.3,4.2,6.4,6.3C95.7,86.9,95.8,86.9,96.8,87.4
					z M149.9,197.8c0-32.9,0-65.6,0-98.4c-6.2,3.7-7.3,3.6-12.6-1.7c-1.7-1.7-3.5-3.4-5.5-5.3c-1.5,1.6-2.7,2.9-3.9,4.2
					c-7.3,7.3-8.5,7.4-15.6,0.1c-1.4-1.4-2.2-3.3-3.2-5c-2.7,2.1-3.6,3.3-4.6,4.4c-1.1,1.2-2.3,2.3-3.4,3.5c-3.6,3.4-6.6,3.5-10-0.1
					c-2.2-2.3-4.1-4.9-5.8-6.9c-7,3.5-9.5,14.6-19,6.7c0,33,0,65.7,0,98.6C94.2,197.8,121.9,197.8,149.9,197.8z M48.3,215.7
					c40.1,0,79.9,0,119.7,0c0-2,0-3.7,0-5.5c-40,0-79.7,0-119.7,0C48.3,212.1,48.3,213.8,48.3,215.7z M48.2,197.7c2.2,0,4,0,5.7,0
					c0-2,0-3.7,0-5.5c-2,0-3.8,0-5.7,0C48.2,194.1,48.2,195.8,48.2,197.7z M162.4,192.1c0,1.9,0,3.8,0,5.7c1.9,0,3.7,0,5.4,0
					c0-2.1,0-3.8,0-5.7C165.9,192.1,164.3,192.1,162.4,192.1z"/>
			</g>
		</g>
		<g>
			<g>
				<path class="st1" d="M191.9,360c-25.1,0-50.2,0-75.4,0c-6.6,0-8.4-1.8-8.4-8.4c0-6.7,0-13.5,0-20.2c0-5.2,2.1-7.3,7.3-7.3
					c51.1,0,102.2,0,153.4,0c5.2,0,7.3,2.1,7.3,7.3c0,7,0,14,0,21c0,5.6-2.1,7.7-7.7,7.7C242.9,360,217.4,360,191.9,360z
					 M120.3,347.8c48,0,95.8,0,143.5,0c0-4,0-7.8,0-11.6c-48,0-95.7,0-143.5,0C120.3,340.1,120.3,343.8,120.3,347.8z"/>
			</g>
		</g>
		<path class="st0" d="M42.3,311.8c0-4,0-7.7,0-11.6c107.9,0,215.5,0,323.5,0c0,3.7,0,7.5,0,11.6
			C258.1,311.8,150.3,311.8,42.3,311.8z"/>
		<path class="st0" d="M233.9,156.3c0,4,0,7.7,0,11.6c-21.9,0-43.5,0-65.5,0c0-3.7,0-7.5,0-11.6
			C190.1,156.3,211.9,156.3,233.9,156.3z"/>
		<path class="st0" d="M18.4,300.2c4,0,7.7,0,11.6,0c0,3.9,0,7.6,0,11.5c-3.7,0-7.5,0-11.6,0C18.4,308,18.4,304.2,18.4,300.2z"/>
		<path class="st0" d="M342.1,41.8c-4.2,0-7.9,0-11.9,0c0-3.9,0-7.6,0-11.5c-40.1,0-79.8,0-119.9,0c0,27.7,0,55.5,0,83.5
			c39.8,0,79.6,0,119.7,0c0-19.8,0-39.5,0-59.5c4.1,0,7.8,0,11.9,0c0.1,1.1,0.2,2.1,0.2,3.2c0,20.1,0,40.2,0,60.4
			c0,6.2-1.9,8.1-8,8.1c-42.7,0-85.5,0-128.2,0c-5.8,0-7.8-2-7.8-7.9c0-30.7,0-61.5,0-92.2c0-5.9,2-7.9,7.9-7.9
			c42.7,0,85.5,0,128.2,0c5.9,0,7.9,2,7.9,7.8C342.1,31.1,342.1,36.3,342.1,41.8z"/>
		<path class="st0" d="M233.9,53.8c-3.9,0-7.6,0-11.5,0c0-3.8,0-7.6,0-11.6c3.8,0,7.6,0,11.5,0C233.9,46,233.9,49.7,233.9,53.8z"/>
		<path class="st0" d="M258,42.3c0,3.9,0,7.6,0,11.5c-3.9,0-7.7,0-11.7,0c0-3.8,0-7.5,0-11.5C250,42.3,253.8,42.3,258,42.3z"/>
		<path class="st0" d="M222.2,71.7c0-3.9,0-7.5,0-11.5c3.9,0,7.7,0,11.7,0c0,3.8,0,7.5,0,11.5C230.2,71.7,226.4,71.7,222.2,71.7z"/>
		<path class="st0" d="M246.2,71.7c0-3.9,0-7.5,0-11.5c3.9,0,7.7,0,11.7,0c0,3.8,0,7.5,0,11.5C254.2,71.7,250.4,71.7,246.2,71.7z"/>
		<g>
			<path class="st1" d="M78.3,161.7c0-3.9,0-7.6,0-11.5c19.8,0,39.5,0,59.5,0c0,3.7,0,7.5,0,11.5C118.1,161.7,98.4,161.7,78.3,161.7
				z"/>
		</g>
		<g>
			<path class="st1" d="M137.9,174.3c0,4,0,7.7,0,11.5c-19.9,0-39.5,0-59.5,0c0-3.7,0-7.5,0-11.5
				C98.1,174.3,117.9,174.3,137.9,174.3z"/>
		</g>
		<g>
			<path class="st1" d="M78.4,126.1c3.9,0,7.5,0,11.5,0c0,3.9,0,7.7,0,11.7c-3.8,0-7.5,0-11.5,0C78.4,134.1,78.4,130.3,78.4,126.1z"
				/>
		</g>
		<g>
			<path class="st1" d="M102.2,137.7c0-3.9,0-7.6,0-11.5c3.9,0,7.7,0,11.7,0c0,3.8,0,7.5,0,11.5
				C110.2,137.7,106.4,137.7,102.2,137.7z"/>
		</g>
		<g>
			<path class="st1" d="M89.9,119.8c-3.9,0-7.6,0-11.6,0c0-3.8,0-7.6,0-11.6c3.8,0,7.6,0,11.6,0C89.9,112,89.9,115.7,89.9,119.8z"/>
		</g>
		<g>
			<path class="st1" d="M113.9,119.8c-3.9,0-7.6,0-11.5,0c0-3.8,0-7.6,0-11.6c3.8,0,7.6,0,11.5,0C113.9,112,113.9,115.7,113.9,119.8
				z"/>
		</g>
	</g>
</g>
</svg>
