<?xml version="1.0" encoding="utf-8"?>
<!-- Generator: Adobe Illustrator 22.1.0, SVG Export Plug-In . SVG Version: 6.00 Build 0)  -->
<svg version="1.1" id="Слой_1" xmlns="http://www.w3.org/2000/svg" xmlns:xlink="http://www.w3.org/1999/xlink" x="0px" y="0px"
	 viewBox="0 0 390.5 383.3" style="enable-background:new 0 0 390.5 383.3;" xml:space="preserve">
<g>
	<g>
		<path d="M104.5,37.9c0-10.5,0.2-20.2-0.1-29.9c-0.1-4.7,1.2-6.5,6.2-6.5c51.5,0.1,103,0.1,154.5,0.1c6,0,6.4,0.5,6.4,6.7
			c0,9.6,0,19.3,0,29.6c7.8,0,15.3,0.8,22.6-0.2c16.4-2.1,26.4,4.7,34.8,18.8c17,28.2,35.4,55.6,53.8,82.9
			c5.9,8.7,7.3,17.1,5.5,27.2c-6.9,39.8-13.3,79.7-19.8,119.6c-0.9,5.4-2.5,10.8-2.5,16.2c-0.1,6.2,1.4,12.4,1.8,18.7
			c0.2,4.1,0.5,8.4-0.6,12.2c-2.2,8-5.3,15.7-8,23.6c-2.8,8-8.4,12.3-16.7,13.8c-58.3,10.6-117.1,12.4-176.2,10.3
			c-38.3-1.4-76.4-5.4-114.4-10.3c-11-1.4-18.3-6.3-21.2-17.2c-0.8-3.2-1.8-6.4-3.3-9.4c-5.1-10.7-5.9-21.5-2.4-32.9
			c1.2-4,0.1-8.9-0.6-13.3c-7.4-45.8-15-91.6-22.6-137.4c-0.9-5.7-0.1-10.9,3.1-15.7c21.2-32.5,42.4-65,63.5-97.5
			c4.2-6.5,10.1-9.4,17.6-9.4C92,37.9,98,37.9,104.5,37.9z M195.8,94.5c-48.1,0-96.3,0-144.4,0.1c-2.3,0-5.5,1-6.7,2.7
			c-11.5,17.1-22.8,34.4-33.8,51.9c-1.6,2.5-2.5,6.1-2,8.9c6.9,43.3,14,86.7,21.3,129.9c2,12.1,3.7,24-0.2,36
			c-0.7,2-0.1,4.7,0.6,6.8c2.5,7.9,5.4,15.7,8.1,23.6c1.8,5,5.2,7.7,10.6,8.5c46,6.9,92.3,10.9,138.7,11.7
			c51.2,0.9,102.2-1.6,152.7-10.8c6-1.1,10-3.9,11.9-9.8c2.4-7.4,5.3-14.7,7.6-22.2c0.9-2.9,0.7-6.2,0.5-9.2
			c-0.5-7.1-2.8-14.3-1.8-21.1c7.3-47.3,15.3-94.5,22.8-141.8c0.6-3.6-0.3-8.1-2.2-11.2c-10.5-16.8-21.5-33.3-32.2-50
			c-1.9-3-4.1-4.1-7.6-4.1C291.8,94.5,243.8,94.5,195.8,94.5z M339.8,86.9c-8.5-13-16.3-25.2-24.5-37.1c-1.3-2-4.2-4-6.5-4
			c-12.3-0.4-24.6-0.2-37-0.2c0,3.7,0,7.1,0,11.2c2.7,0,5.3-0.3,7.6,0.1c1.2,0.3,3.1,2.1,3,3c-0.2,1.4-1.7,2.8-2.9,3.8
			c-0.6,0.5-1.9,0.1-2.9,0.1c-58.8,0-117.6,0-176.4,0c-1.2,0-2.6,0.4-3.4-0.1c-1.3-0.8-3.2-2.3-3.2-3.5c0-1.2,1.9-2.9,3.3-3.3
			c2.3-0.5,4.8-0.1,7.4-0.1c0-4.2,0-7.6,0-11.2c-7.4,0-14.6-0.3-21.7,0.2c-2.3,0.2-5.3,1.9-6.6,3.8c-8.1,12-15.9,24.2-23.7,36.4
			c-0.1,0.2,0.2,0.6,0.3,1C147.9,86.9,243.3,86.9,339.8,86.9z M180.1,55.7c-10.6-8.2-9.4-19.6,1.4-25c1.4-0.7,2.1-2.8,3.1-4.2
			c0.8-1.1,1.5-2.7,2.6-3.2c0.8-0.3,3.2,0.8,3.2,1.4c0.2,5,4.5,5.7,7.5,8c2,1.6,3.6,4,4.6,6.3c0.5,1.2-0.5,3.1-0.8,4.7
			c-1.4-0.7-3.1-1.2-4.3-2.2c-1.8-1.7-3.2-3.8-4.8-5.7c-0.4,0.2-0.9,0.4-1.3,0.7c0,4.8-0.2,9.5,0.1,14.3c0.1,1.1,1.4,2.7,2.4,3
			c2.9,1,6,2,9.1,2.1c18.6,0.2,37.3,0.1,55.9,0.1c1.8,0,3.5-0.2,5.2-0.3c0-16,0-31.3,0-46.6c-51,0-101.5,0-152.1,0
			c0,15.8,0,31.1,0,46.7C134.6,55.7,156.9,55.7,180.1,55.7z M184.3,35.8c-4,2.3-5.8,4.9-5.5,8.5c0.3,2.9,1.7,5.3,5.5,5.6
			C184.3,45.4,184.3,41,184.3,35.8z"/>
		<path d="M208.2,383.3c-13.5,0-27.5-0.3-42-0.8c-33.3-1.2-68.6-4.4-114.5-10.3c-12.4-1.6-19.5-7.4-22.4-18.3c-1-3.9-2-6.7-3.2-9.2
			c-5.2-11.1-6-22.2-2.5-34c1-3.2,0.3-7.1-0.4-11c-0.1-0.6-0.2-1.1-0.3-1.7c-7.5-46.3-15.2-92.6-22.6-137.4c-1-6.3,0-11.8,3.3-16.8
			c23.6-36.2,43.5-66.6,63.5-97.5c4.4-6.8,10.6-10.1,18.9-10.1c4.1,0,8.2,0,12.4,0l4.5,0c0-2.6,0-5.2,0-7.7c0-7.1,0.1-13.9-0.1-20.6
			c-0.1-2,0.1-4.5,1.7-6.2c1.2-1.3,3.1-1.9,5.9-1.9c0,0,0,0,0,0c36.7,0.1,74,0.1,110,0.1c14.8,0,29.6,0,44.5,0
			c6.8,0,7.9,1.1,7.9,8.2c0,6.7,0,13.3,0,20.3l0,7.9c2,0,3.9,0.1,5.8,0.1c5.3,0.2,10.2,0.3,15.1-0.3c16-2,26.9,3.8,36.3,19.5
			c17.1,28.5,35.8,56.1,53.8,82.8c5.9,8.7,7.7,17.4,5.8,28.3c-5,28.9-9.8,58.4-14.5,86.9c-1.8,10.9-3.6,21.8-5.3,32.7
			c-0.3,1.7-0.6,3.4-1,5.1c-0.8,3.8-1.5,7.3-1.5,10.9c0,3.5,0.4,7.2,0.9,10.7c0.3,2.6,0.7,5.2,0.9,7.9c0.2,4,0.5,8.6-0.6,12.7
			c-1.5,5.5-3.5,10.9-5.4,16.1c-0.9,2.5-1.8,5.1-2.7,7.6c-2.8,8.3-8.7,13.1-17.9,14.8C301.6,379.7,258.1,383.3,208.2,383.3z
			 M93,39.4c-2.3,0-4.6,0-6.9,0c-7.2,0-12.6,2.9-16.4,8.7c-20,30.9-39.9,61.3-63.5,97.5c-2.8,4.3-3.8,9.1-2.9,14.7
			c7.4,44.8,15,91.1,22.6,137.4c0.1,0.5,0.2,1.1,0.3,1.6c0.7,4,1.4,8.5,0.3,12.3c-3.3,11.1-2.6,21.5,2.3,31.9
			c1.6,3.4,2.6,6.9,3.4,9.7c2.6,9.7,8.7,14.7,19.9,16.1c45.8,5.9,81,9.1,114.2,10.3c68,2.5,123.9-0.8,175.9-10.3
			c8.1-1.5,13.1-5.5,15.6-12.8c0.9-2.6,1.8-5.1,2.7-7.6c1.9-5.2,3.8-10.5,5.3-15.9c1-3.7,0.8-7.9,0.5-11.7c-0.2-2.5-0.5-5.1-0.8-7.7
			c-0.5-3.6-1-7.4-0.9-11.1c0-3.9,0.8-7.8,1.6-11.5c0.3-1.6,0.7-3.3,0.9-5c1.8-10.9,3.6-21.8,5.3-32.6c4.7-28.5,9.5-58,14.5-87
			c1.7-10.1,0.1-18.1-5.3-26.1c-18-26.7-36.7-54.4-53.9-83C319,42.8,309,37.4,294.3,39.2c-5.1,0.6-10.2,0.5-15.6,0.3
			c-2.4-0.1-4.8-0.2-7.2-0.2H270l0-10.9c0-6.9,0-13.6,0-20.2c0-2.2-0.1-4.1-0.5-4.7c-0.5-0.5-2.3-0.5-4.3-0.5c-14.8,0-29.6,0-44.5,0
			c-36.1,0-73.3,0-110-0.1c-2,0-3.2,0.3-3.8,1c-0.6,0.7-0.9,1.9-0.9,4c0.2,6.8,0.2,13.6,0.1,20.7c0,3,0,6,0,9.2v1.5l-7.5,0
			C96.6,39.4,94.8,39.4,93,39.4z M207.1,376.3c-6.3,0-12.7-0.1-19.1-0.2c-45.7-0.8-92.5-4.8-138.9-11.7c-6-0.9-9.8-4-11.8-9.5
			c-0.6-1.7-1.2-3.3-1.8-5c-2.1-6.1-4.4-12.4-6.4-18.6c-1-3.1-1.2-5.7-0.6-7.7c3.7-11.5,2.3-22.7,0.2-35.3
			c-7-41.5-14.2-85.3-21.3-130c-0.5-3.1,0.4-7.1,2.2-9.9c11.1-17.6,22.5-35,33.8-51.9c1.5-2.2,5.2-3.4,7.9-3.4
			C91.6,93,132.6,93,172.2,93l49.9,0c38.6,0,78.5,0,117.7-0.1c0,0,0,0,0,0c4.1,0,6.7,1.4,8.9,4.8c4.3,6.7,8.7,13.4,12.9,20
			c6.4,9.8,13,19.9,19.3,30c2.1,3.3,3,8.2,2.4,12.2c-3.2,20-6.5,40.4-9.7,60c-4.4,26.8-8.9,54.5-13.1,81.8
			c-0.6,4.2,0.1,8.5,0.8,13.1c0.4,2.5,0.8,5.1,1,7.7c0.2,3,0.4,6.6-0.6,9.7c-1.3,4.2-2.8,8.4-4.2,12.5c-1.1,3.2-2.3,6.4-3.4,9.7
			c-2,6.1-6.1,9.6-13,10.9C300.2,372.7,256.3,376.3,207.1,376.3z M148.8,96c-32.2,0-65.1,0-97.4,0.1c-2.1,0-4.7,1-5.4,2
			C34.6,115,23.3,132.4,12.2,150c-1.4,2.3-2.2,5.5-1.8,7.9c7.1,44.7,14.3,88.4,21.3,129.9c2.2,12.9,3.7,24.6-0.3,36.7
			c-0.4,1.3-0.2,3.4,0.6,5.9c2,6.2,4.2,12.5,6.4,18.5c0.6,1.7,1.2,3.3,1.8,5c1.6,4.4,4.5,6.8,9.4,7.6c46.3,6.9,93,10.9,138.5,11.7
			c56.8,1,106.7-2.5,152.4-10.8c5.9-1.1,9.1-3.7,10.7-8.8c1.1-3.3,2.2-6.6,3.4-9.8c1.5-4,3-8.2,4.2-12.4c0.8-2.7,0.7-5.9,0.5-8.7
			c-0.2-2.4-0.6-5-1-7.4c-0.7-4.6-1.5-9.4-0.8-14.1c4.2-27.3,8.7-55,13.1-81.8c3.2-19.7,6.5-40,9.7-60c0.5-3.3-0.3-7.5-2-10.2
			c-6.3-10.1-12.9-20.2-19.2-30c-4.3-6.5-8.7-13.3-12.9-20c-1.6-2.5-3.2-3.4-6.3-3.4c0,0,0,0,0,0C300.5,96,260.6,96,222,96l-49.9,0
			C164.4,96,156.6,96,148.8,96z M342.6,88.4h-291l-0.4-1c0-0.1-0.1-0.2-0.1-0.3c-0.2-0.4-0.6-1.2-0.1-2c1.6-2.5,3.2-5,4.8-7.5
			c6.1-9.5,12.4-19.4,18.9-29c1.6-2.3,5-4.3,7.8-4.5c5.1-0.4,10.2-0.3,15.5-0.2c2.1,0,4.1,0,6.2,0h1.5v14.2h-1.5
			c-0.8,0-1.6,0-2.3-0.1c-1.7-0.1-3.3-0.2-4.7,0.2c-0.8,0.2-2,1.3-2.1,1.8c0.1,0.4,1,1.3,2.5,2.2c0.2,0.1,1,0,1.4,0
			c0.4,0,0.8-0.1,1.2-0.1c58.8,0,117.6,0,176.4,0c0.3,0,0.7,0,1.1,0.1c0.3,0,0.8,0.1,1,0c1.6-1.3,2.1-2.1,2.2-2.5
			c-0.3-0.5-1.3-1.4-1.8-1.5c-1.5-0.3-3.1-0.2-4.8-0.2c-0.8,0-1.6,0.1-2.5,0.1h-1.5V44h1.5c3.2,0,6.4,0,9.6,0c9,0,18.4-0.1,27.5,0.2
			c2.9,0.1,6.1,2.5,7.7,4.7c6.1,8.9,11.9,17.9,18.1,27.3c2.1,3.2,4.2,6.5,6.4,9.8L342.6,88.4z M54.3,85.4H337
			c-1.6-2.5-3.3-5-4.9-7.5c-6.2-9.5-12-18.4-18.1-27.3c-1.2-1.7-3.7-3.3-5.3-3.4c-9.1-0.3-18.4-0.3-27.4-0.2c-2.7,0-5.4,0-8.1,0v8.1
			c0.3,0,0.6,0,0.9,0c1.9-0.1,3.7-0.1,5.6,0.2c1.8,0.4,4.5,2.7,4.2,4.6c-0.3,2-2.1,3.6-3.5,4.7c-0.9,0.7-2.1,0.6-3.1,0.5
			c-0.3,0-0.5-0.1-0.8-0.1c-58.8,0-117.6,0-176.4,0c-0.3,0-0.6,0-0.9,0.1c-1.1,0.1-2.3,0.2-3.3-0.4C94.1,63.7,92,62,92,60.1
			c0-2.1,2.7-4.3,4.5-4.7c1.8-0.4,3.7-0.3,5.5-0.3c0.2,0,0.5,0,0.7,0V47c-1.6,0-3.2,0-4.8,0c-5.3-0.1-10.3-0.1-15.3,0.2
			c-1.9,0.1-4.4,1.6-5.5,3.1c-6.5,9.5-12.8,19.4-18.9,28.9C57,81.3,55.6,83.3,54.3,85.4z M281,59.9L281,59.9L281,59.9z M231.2,57.4
			c-9.4,0-18.9,0-28.3-0.1c-3.4,0-6.8-1.2-9.5-2.1c-1.7-0.6-3.3-2.7-3.4-4.4c-0.2-3.5-0.2-7.1-0.1-10.6c0-1.3,0-2.5,0-3.8v-0.9
			l3.2-1.6l0.8,0.9c0.5,0.6,0.9,1.2,1.4,1.8c1.1,1.4,2.1,2.7,3.2,3.8c0.5,0.5,1.4,0.9,2.3,1.3c0.2-0.6,0.5-1.7,0.4-2
			c-1.1-2.5-2.6-4.5-4.2-5.7c-0.7-0.5-1.5-1-2.3-1.5c-2.4-1.4-5.3-3-5.7-7.1c-0.3-0.2-0.9-0.4-1.2-0.5c-0.4,0.3-0.8,1-1.2,1.5
			c-0.2,0.4-0.5,0.8-0.7,1.1c-0.3,0.4-0.6,0.9-0.8,1.4c-0.7,1.2-1.4,2.6-2.8,3.2c-4.7,2.4-7.5,5.9-7.9,10c-0.4,4.4,2,8.8,6.7,12.6
			l3.4,2.7h-74V7.5h155.1V57l-1.4,0.1c-0.5,0-1,0.1-1.6,0.1c-1.2,0.1-2.4,0.2-3.7,0.2l-10.8,0C242.5,57.4,236.9,57.4,231.2,57.4z
			 M192.8,38.4c0,0.6,0,1.2,0,1.8c0,3.4-0.1,6.9,0.1,10.4c0,0.4,0.9,1.5,1.4,1.7c2.7,0.9,5.7,1.9,8.6,2c15,0.1,30.4,0.1,45.2,0.1
			l10.8,0c1.1,0,2.3-0.1,3.5-0.2c0.1,0,0.1,0,0.2,0V10.5H113.5v43.7h62.8c-3.6-3.8-5.3-8.2-4.9-12.5c0.5-5.1,3.9-9.5,9.5-12.3
			c0.5-0.3,1-1.2,1.5-2c0.3-0.6,0.6-1.1,1-1.7c0.2-0.3,0.4-0.6,0.6-0.9c0.7-1,1.4-2.2,2.6-2.8c1.5-0.7,3.7,0.6,3.9,0.8
			c0.3,0.2,1.3,0.8,1.4,1.9c0.1,2.7,1.6,3.7,4.2,5.2c0.9,0.5,1.8,1.1,2.7,1.7c2,1.5,3.8,4,5,6.9c0.6,1.3,0.1,2.9-0.3,4.2
			c-0.2,0.5-0.3,1-0.4,1.4l-0.4,1.9L201,45c-0.4-0.2-0.9-0.4-1.3-0.6c-1.1-0.5-2.3-1-3.3-1.9C195,41.2,193.9,39.8,192.8,38.4
			C192.8,38.4,192.8,38.4,192.8,38.4z M187.6,24.7C187.6,24.7,187.6,24.7,187.6,24.7L187.6,24.7C187.6,24.7,187.6,24.7,187.6,24.7z
			 M185.8,51.6l-1.6-0.1c-4-0.3-6.4-2.8-6.8-7c-0.4-4.2,1.6-7.3,6.2-10l2.2-1.3V51.6z M182.8,38.6c-1.9,1.6-2.7,3.3-2.5,5.6
			c0.2,2.1,1,3.3,2.5,3.9V38.6z"/>
	</g>
	<g>
		<path d="M264.2,340.6c0.5,4.7,0.8,8.8,1.4,12.9c0.5,4-1,6-5.2,6c-10.7-0.1-21.3,0-32,0c-3.9,0-5.4-1.8-5-5.6
			c0.5-4.1,0.8-8.3,1.3-12.8c-21.8,0-43.3,0-65.2,0c0.5,4.4,0.9,8.7,1.4,12.9c0.5,3.6-1,5.5-4.6,5.5c-11,0.1-22,0-33,0
			c-4,0-5.3-2.1-4.8-5.8c0.5-4.1,1-8.2,1.6-13c-2.1,0-3.9,0-5.7,0c-18.5,0-37-0.1-55.5,0.1c-4.7,0.1-6.2-1.6-6.6-6.3
			c-1.9-23.7-4.2-47.4-6.4-71.1c-2.2-23.9-4.4-47.7-6.5-71.6c-0.7-7.5-1.4-14.9-2-22.4c-0.5-6.6,0.1-7.2,6.7-7.2
			c42.5,0,85,0,127.4,0c41.3,0,82.6-0.2,123.9-0.2c18,0,36,0.1,54,0.2c5.8,0,6.6,1,6.1,6.8c-3.6,38.6-7.3,77.2-11,115.8
			c-1.6,16.6-3.1,33.1-4.4,49.7c-0.4,4.6-2,6.3-6.7,6.2c-21.2-0.2-42.3-0.1-63.5-0.1C268.3,340.6,266.5,340.6,264.2,340.6z
			 M84.4,244.7c4.4,12.4,8.9,24.3,13,36.4c1.1,3.3,2.7,4.3,6.1,4.3c62.4-0.1,124.9-0.1,187.3-0.1c3,0,4.4-0.9,5.4-3.8
			c3.7-11,7.8-21.9,11.7-32.9c0.4-1.2,0.6-2.4,1-3.9C233.8,244.7,159.4,244.7,84.4,244.7z M321.8,292.9c-82.6,0-164.3,0-246.5,0
			c4.9,12.9,9.6,25.3,14.5,37.6c0.5,1.2,2.7,2.4,4.1,2.4c6.3,0.3,12.7,0.1,19,0.1c7.8,0,7.8,0,8.9-7.5c0.3-2,0.5-4,0.7-5.9
			c0.3-3.4,1.8-5.1,5.4-5c7.8,0.2,15.7,0.2,23.5,0c3.6-0.1,5.1,1.5,5.5,4.9c0.5,4.4,1.1,8.8,1.6,13.1c22.6,0,44.7,0,67,0
			c0.6-4.8,1.3-9.2,1.8-13.7c0.3-3.1,1.9-4.3,4.9-4.3c8,0.1,16,0.1,24,0c3.2,0,5,1.2,5.2,4.6c0.2,3.5,0.4,7,1.3,10.4
			c0.3,1.4,2.4,3.3,3.6,3.3c11.2,0.3,22.3,0.2,33.5,0c1.3,0,3.2-1.1,3.8-2.2C309.8,318.3,315.7,305.9,321.8,292.9z M89.5,202.9
			c0.1,1.7,0.1,3.2,0.3,4.6c1.2,7.7,2.8,15.4,3.5,23.2c0.5,5,2.2,6.6,7.3,6.5c64.9-0.2,129.9-0.1,194.8-0.1c1.6,0,3.2-0.2,5.1-0.3
			c1.7-11.4,3.4-22.5,5.2-33.9C233.3,202.9,161.6,202.9,89.5,202.9z M44.7,169.7c0.7,8.5,1.4,16.5,2.1,24.5
			c2.5,27.4,5.1,54.7,7.6,82.1c1.7,18.1,3.3,36.1,5.1,54.2c0.1,1.1,1.6,2.8,2.4,2.8c6.7,0.2,13.5,0.1,20.9,0.1
			c-0.8-2.3-1.2-3.9-1.8-5.4c-4.4-11.5-8.9-22.9-13.3-34.4c-2.7-6.9-1.7-8.3,5.6-8.3c5.7,0,11.4,0,17.8,0c-1-2.8-1.6-4.5-2.2-6.2
			c-4.2-11.9-8.5-23.8-12.7-35.7c-1.5-4.2-0.3-5.9,4.1-6.2c2.1-0.1,4.1,0,6.5,0c-0.3-2.7-0.5-4.5-0.8-6.3c-1.5-9.5-3-19.1-4.4-28.6
			c-0.8-5.3,0.3-6.4,5.8-6.5c2.6,0,5.2,0,7.9,0c0-9,0-17.4,0-25.9C78.5,169.7,61.9,169.7,44.7,169.7z M292.1,169.8
			c-63,0-125.6,0-188.5,0c0,8.6,0,17,0,25.5c63,0,125.6,0,188.5,0C292.1,186.6,292.1,178.3,292.1,169.8z M310.6,333.5
			c7.4,0,13.5,0.2,19.6-0.2c1.1-0.1,2.9-2.5,3.1-3.9c1.9-17.9,3.5-35.8,5.2-53.7c2.6-27.3,5.2-54.7,7.8-82
			c0.7-7.9,1.4-15.8,2.1-23.9c-16.5,0-32.5,0-48.5,0c0,8.8,0,17.2,0,25.8c2.6,0,4.7,0,6.9,0c6.5,0,7.2,0.9,6.2,7.3
			c-1.8,11.1-3.4,22.3-5,33.4c11.2,2.4,11.2,2.4,7.3,13.1c-0.1,0.3-0.3,0.6-0.4,0.9c-4,11.4-8.1,22.7-12.4,34.9
			c8.6,0,16.4-0.1,24.2,0c4.6,0.1,5.7,2,3.8,6.2c-2.7,5.9-5.5,11.7-8.3,17.6C318.4,316.9,314.8,324.7,310.6,333.5z M258,351.8
			c-1.2-10.3-2.3-20-3.4-29.9c-6.9,0-13.3,0-20.3,0c-1.1,9.9-2.3,19.7-3.4,29.9C240,351.8,248.6,351.8,258,351.8z M129.7,321.7
			c-1.2,10.3-2.3,20-3.5,30c9.4,0,18.1,0,27.1,0c-1.1-9.4-2-18.5-3.2-27.5c-0.1-1-1.8-2.4-2.9-2.4
			C141.6,321.6,135.8,321.7,129.7,321.7z"/>
		<path d="M260.5,361C260.4,361,260.4,361,260.5,361c-11-0.1-21.9,0-32.1,0c0,0,0,0,0,0c-2.4,0-4.1-0.6-5.2-1.9
			c-1.1-1.3-1.5-3-1.2-5.4c0.3-2.8,0.6-5.6,0.9-8.6c0.1-0.8,0.2-1.7,0.2-2.5h-61.8c0.1,0.8,0.2,1.6,0.2,2.3c0.3,3.1,0.6,5.9,1,8.9
			c0.3,2.3-0.1,4.1-1.2,5.4c-1.1,1.2-2.7,1.9-4.9,1.9c-7.8,0-15.8,0-23.5,0c-3.2,0-6.4,0-9.5,0c-2.3,0-4-0.6-5.1-1.9
			c-1.1-1.3-1.6-3.2-1.2-5.6c0.4-2.8,0.7-5.7,1-8.7l0.3-2.6h-4c-5,0-10.1,0-15.1,0c-13.2,0-26.9,0-40.4,0.1c-5.4,0.1-7.6-2-8.1-7.7
			c-1.4-17.5-3.1-35.2-4.7-52.3c-0.6-6.3-1.2-12.5-1.7-18.8c-2.2-23.9-4.4-47.7-6.5-71.6c-0.2-2.1-0.4-4.1-0.6-6.2
			c-0.5-5.3-1-10.8-1.4-16.2c-0.3-3.4-0.3-5.7,1.1-7.2c1.4-1.5,3.7-1.6,7.1-1.6c15.2,0,30.3,0,45.5,0c27.3,0,54.6,0,82,0
			c19.2,0,38.5-0.1,57.7-0.1c22.1,0,44.1-0.1,66.2-0.1c15.6,0,31.5,0.1,46.8,0.2l7.2,0c3.2,0,5.2,0.3,6.5,1.7c1.3,1.4,1.4,3.5,1,6.8
			c-1.5,15.8-3,31.5-4.5,47.3c-2.2,22.9-4.3,45.7-6.5,68.6l-0.2,2.3c-1.5,15.5-3,31.6-4.2,47.4c-0.4,5.4-2.8,7.6-8.1,7.6
			c-0.1,0-0.1,0-0.2,0c-15.5-0.2-31.3-0.1-46.5-0.1c-5.6,0-11.3,0-16.9,0h-4.2c0.1,0.9,0.2,1.8,0.3,2.6c0.3,3,0.6,5.8,0.9,8.6
			c0.3,2.6-0.1,4.4-1.3,5.8C264.6,360.4,262.9,361,260.5,361z M245.1,358c5,0,10.1,0,15.2,0c1.6,0,2.6-0.3,3.1-0.9
			c0.5-0.6,0.7-1.8,0.5-3.4c-0.4-2.8-0.6-5.7-0.9-8.7c-0.1-1.4-0.3-2.8-0.4-4.3l-0.2-1.7h7.5c5.6,0,11.3,0,16.9,0
			c15.3,0,31,0,46.6,0.1c3.9,0,4.9-0.9,5.2-4.8c1.2-15.8,2.7-31.9,4.2-47.5l0.2-2.3c2.1-22.9,4.3-45.7,6.5-68.6
			c1.5-15.8,3-31.5,4.5-47.3c0.2-1.9,0.3-3.8-0.3-4.5c-0.6-0.6-2.5-0.7-4.3-0.7l-7.2,0c-15.3-0.1-31.2-0.2-46.8-0.2
			c-22.1,0-44.1,0.1-66.2,0.1c-19.2,0-38.5,0.1-57.7,0.1c-27.3,0-54.6,0-82,0c-15.2,0-30.3,0-45.5,0c-2.2,0-4.4,0.1-5,0.6
			c-0.6,0.6-0.4,2.9-0.3,4.9c0.4,5.4,0.9,10.8,1.4,16.1c0.2,2.1,0.4,4.1,0.6,6.2c2.2,23.9,4.4,47.7,6.5,71.6
			c0.6,6.3,1.2,12.5,1.7,18.8c1.6,17.2,3.3,34.9,4.7,52.4c0.3,4.1,1.3,5,5.1,4.9c13.5-0.1,27.2-0.1,40.4-0.1c5,0,10,0.1,15.1,0h7.4
			l-0.7,6c-0.4,3.1-0.7,5.9-1.1,8.8c-0.2,1.6,0,2.7,0.5,3.3c0.5,0.6,1.4,0.9,2.8,0.9c3.2,0,6.4,0,9.5,0c7.7,0,15.6,0,23.4,0
			c1.3,0,2.1-0.3,2.6-0.8c0.6-0.7,0.6-2,0.5-3c-0.4-3-0.7-5.9-1-9c-0.1-1.3-0.3-2.6-0.4-4l-0.2-1.7h68.5l-0.2,1.6
			c-0.1,1.4-0.3,2.8-0.4,4.2c-0.3,3-0.5,5.8-0.9,8.7c-0.2,1.5,0,2.5,0.5,3.1c0.5,0.6,1.5,0.9,2.9,0.9c0,0,0,0,0,0
			C233.8,358,239.4,358,245.1,358z M259.7,353.3h-30.5l3.8-32.9h23L259.7,353.3z M232.5,350.3h23.8l-3.1-26.9h-17.6L232.5,350.3z
			 M155.1,353.2h-30.5l3.8-33h1.3c1.6,0,3.1,0,4.6,0c4.5,0,8.7,0,13.1,0.1c1.8,0.1,4.1,2.1,4.3,3.7c0.9,7,1.7,13.8,2.5,21.1
			c0.2,2.1,0.5,4.2,0.7,6.4L155.1,353.2z M128,350.2h23.8c-0.2-1.6-0.3-3.2-0.5-4.7c-0.8-7.3-1.5-14.1-2.5-21.1
			c-0.1-0.3-1.1-1.1-1.5-1.1c-4.2-0.2-8.4-0.1-12.9-0.1c-1.1,0-2.2,0-3.3,0L128,350.2z M321.1,335c-1.6,0-3.2,0-4.9,0
			c-1.8,0-3.7,0-5.6,0h-2.4l4.6-9.7c2.8-5.8,5.3-11.3,7.9-16.8c0.9-1.9,1.8-3.7,2.7-5.6c1.9-3.9,3.8-8,5.6-12c1-2.2,0.8-3,0.6-3.2
			c-0.1-0.2-0.7-0.8-3.1-0.8c-5.4-0.1-10.8-0.1-16.5-0.1c-2.5,0-5,0-7.6,0h-2.1l2.1-5.8c3.8-10.7,7.4-20.9,11-31.1
			c0.1-0.2,0.2-0.4,0.3-0.6c0-0.1,0.1-0.2,0.1-0.3c1.6-4.5,2.7-7.4,2.1-8.5c-0.6-1-3.6-1.7-8.3-2.7l-1.4-0.3l0.2-1.4
			c0.5-3.3,1-6.6,1.5-9.8c1.1-7.7,2.3-15.7,3.6-23.5c0.3-2.1,0.6-4.2,0.1-4.9c-0.5-0.6-2.7-0.7-4.8-0.7c-1.5,0-3,0-4.6,0h-3.8v-28.8
			H350l-0.1,1.6c-0.2,2.5-0.4,5.1-0.7,7.6c-0.5,5.5-0.9,10.9-1.4,16.3c-1.7,18.6-3.5,37.2-5.3,55.8l-3.6,37.7
			c-1.3,13.8-2.6,28.2-4.1,42.2c-0.2,1.9-2.3,5.1-4.5,5.2C327.3,335,324.3,335,321.1,335z M313,332c1.1,0,2.2,0,3.3,0
			c5,0,9.4,0.1,13.8-0.2c0.5-0.2,1.7-1.7,1.7-2.6c1.5-14.1,2.8-28.4,4.1-42.2l3.6-37.7c1.8-18.6,3.5-37.2,5.3-55.8
			c0.5-5.4,1-10.8,1.4-16.3c0.2-2,0.3-4,0.5-6h-45.3v22.8h0.8c1.6,0,3.1,0,4.6,0c3.6,0,5.8,0.3,7.1,1.8c1.4,1.6,1.1,4.2,0.6,7.3
			c-1.2,7.8-2.4,15.8-3.6,23.5c-0.4,2.8-0.8,5.6-1.3,8.5c5.1,1.1,7.8,1.8,8.9,3.9c1.2,2.2,0.2,5.2-1.9,11c-0.1,0.2-0.2,0.4-0.3,0.6
			c0,0.1-0.1,0.2-0.1,0.3c-3.6,10.2-7.2,20.3-11,31.1l-0.6,1.8c1.9,0,3.7,0,5.5,0c5.7,0,11.2-0.1,16.6,0.1c1.8,0,4.4,0.3,5.6,2.2
			c1.2,1.9,0.3,4.4-0.4,6.1c-1.8,4.1-3.8,8.1-5.6,12.1c-0.9,1.9-1.8,3.7-2.7,5.6c-2.6,5.5-5.2,10.9-7.9,16.8L313,332z M330,331.8
			L330,331.8L330,331.8z M72.8,334.9c-3.7,0-7.2,0-10.8-0.2c-1.8-0.1-3.7-2.7-3.9-4.2c-1.4-13.9-2.7-28.1-4-41.8l-4.1-43.9
			c-1.6-16.8-3.1-33.7-4.7-50.5c-0.5-5.4-1-10.8-1.4-16.4c-0.2-2.6-0.4-5.3-0.7-8l-0.1-1.6H97v28.9l-4.1,0c-1.8,0-3.6,0-5.4,0
			c-1.5,0-3.6,0.1-4.2,0.8c-0.6,0.7-0.4,2.6-0.2,4c0.9,6.1,1.9,12.3,2.8,18.3c0.5,3.4,1.1,6.8,1.6,10.2c0.2,1.2,0.3,2.4,0.5,3.9
			c0.1,0.8,0.2,1.6,0.3,2.5l0.2,1.7h-1.7c-0.8,0-1.5,0-2.2,0c-1.5,0-2.9,0-4.2,0c-2.1,0.1-2.9,0.6-3.1,0.9c-0.2,0.4-0.4,1.2,0.3,3.3
			c3,8.6,6.2,17.4,9.2,25.8l6.5,18.1l-8,0c-4.1,0-8.1,0-12,0c-1.2,0-4.7,0-5.3,0.9c-0.6,0.9,0.7,4.3,1.1,5.4
			c2.3,5.9,4.6,11.9,6.9,17.8c2.1,5.5,4.3,11.1,6.4,16.6c0.4,1,0.7,2.1,1.1,3.3c0.2,0.6,0.4,1.3,0.7,2.1l0.6,2h-2.1
			c-1.8,0-3.5,0-5.2,0C76,334.9,74.4,334.9,72.8,334.9z M62.2,331.8c5.1,0.2,10.1,0.2,15.5,0.1c1,0,2.1,0,3.2,0c0-0.1,0-0.1-0.1-0.2
			c-0.4-1.2-0.7-2.2-1.1-3.1c-2.1-5.5-4.3-11.1-6.4-16.6c-2.3-5.9-4.6-11.9-6.9-17.8c-1.4-3.8-2-6.3-0.8-8.1
			c1.2-1.8,3.9-2.2,7.8-2.2c3.9,0,7.9,0,12,0l3.7,0l-5-14.1c-3-8.5-6.2-17.2-9.2-25.8c-0.6-1.7-1.2-4.1,0-5.9
			c1.2-1.8,3.7-2.2,5.4-2.3c1.5-0.1,2.9-0.1,4.4,0c0.2,0,0.3,0,0.5,0c0-0.3-0.1-0.6-0.1-0.8c-0.2-1.5-0.3-2.6-0.5-3.8
			c-0.5-3.4-1.1-6.8-1.6-10.2c-0.9-6-1.9-12.2-2.8-18.4c-0.4-2.8-0.4-4.9,0.9-6.4c1.3-1.5,3.4-1.8,6.4-1.8c1.8,0,3.6,0,5.4,0l1,0
			v-22.9H46.4c0.2,2.2,0.4,4.3,0.5,6.4c0.5,5.6,0.9,11,1.4,16.4c1.6,16.8,3.1,33.7,4.7,50.5l4.1,43.9c1.3,13.7,2.6,27.9,4,41.8
			C61.1,330.7,61.8,331.6,62.2,331.8z M62.3,331.8L62.3,331.8L62.3,331.8z M283.1,334.6c-5.8,0-11.3-0.1-16.6-0.2
			c-2.1,0-4.6-2.5-5.1-4.4c-0.8-3.2-1-6.5-1.3-9.7l-0.1-0.9c-0.2-2.4-1.1-3.2-3.7-3.2c-7.2,0.1-15.1,0.1-24,0c-2.3,0-3.2,0.7-3.4,3
			c-0.3,3.1-0.7,6.2-1.2,9.5c-0.2,1.4-0.4,2.8-0.6,4.3l-0.2,1.3h-69.6l-0.2-1.3c-0.2-1.3-0.3-2.6-0.5-3.9c-0.4-3-0.8-6.2-1.1-9.3
			c-0.3-2.7-1.3-3.6-4-3.5c-7.2,0.2-14.9,0.2-23.6,0c-2.7-0.1-3.7,0.9-3.9,3.6c-0.2,1.8-0.4,3.7-0.7,6c-1.2,8.1-1.9,8.7-10.2,8.7
			c-0.3,0-0.5,0-0.8,0c-1.6,0-3.2,0-4.8,0c-4.5,0-9.2,0.1-13.8-0.1c-2-0.1-4.7-1.5-5.4-3.4c-3.9-9.6-7.5-19.1-11.3-29.2
			c-1.1-2.8-2.1-5.6-3.2-8.4l-0.8-2h251l-5,10.5c-4.8,10.2-9.4,19.8-14.1,29.5c-0.9,1.8-3.4,3-5.1,3.1
			C293.9,334.5,288.3,334.6,283.1,334.6z M256.5,313.1c4.1,0,6.3,2,6.6,6l0.1,0.9c0.2,3.1,0.4,6.3,1.2,9.2c0.2,0.8,1.6,2.1,2.2,2.2
			c10,0.2,20.7,0.2,33.4,0c0.8,0,2.2-0.9,2.5-1.4c4.7-9.7,9.3-19.3,14.1-29.4l2.9-6.2H77.5c0.8,2.1,1.6,4.3,2.4,6.4
			c3.8,10.1,7.5,19.6,11.3,29.1c0.2,0.5,1.7,1.5,2.8,1.5c4.5,0.2,9.1,0.2,13.6,0.1c1.8,0,3.5,0,5.3,0c3.3,0,5.3,0,6-0.6
			c0.7-0.6,1-2.6,1.4-5.6c0.3-2.2,0.5-4.1,0.7-5.9c0.4-4.3,2.7-6.4,7-6.4c8.6,0.2,16.3,0.2,23.4,0c4.3-0.1,6.6,1.9,7,6.2
			c0.3,3.1,0.7,6.2,1.1,9.2c0.1,0.9,0.2,1.8,0.3,2.6h64.4c0.1-1,0.3-2,0.4-3c0.5-3.2,0.9-6.3,1.2-9.4c0.4-3.8,2.5-5.7,6.3-5.7
			c0,0,0.1,0,0.1,0c8.9,0.1,16.7,0.1,24,0C256.4,313.1,256.4,313.1,256.5,313.1z M103.4,286.8c-4.1,0-6.2-1.5-7.5-5.3
			c-2.9-8.7-6-17.2-9.3-26.2c-1.2-3.4-2.4-6.7-3.7-10.2l-0.7-2h228.4l-0.4,1.9c-0.1,0.5-0.2,1-0.3,1.4c-0.2,0.9-0.4,1.8-0.7,2.7
			c-1.3,3.6-2.6,7.2-3.9,10.8c-2.6,7.2-5.3,14.7-7.8,22c-1.2,3.5-3.1,4.8-6.8,4.8c0,0,0,0,0,0C228.2,286.7,165.1,286.7,103.4,286.8
			C103.4,286.8,103.4,286.8,103.4,286.8z M86.5,246.2c1,2.7,2,5.4,2.9,8.1c3.3,9,6.3,17.5,9.3,26.3c0.9,2.6,1.8,3.2,4.6,3.2
			c0,0,0,0,0,0c61.7-0.1,124.7-0.1,187.3-0.1c0,0,0,0,0,0c2.4,0,3.2-0.5,3.9-2.8c2.5-7.4,5.2-14.9,7.8-22.1
			c1.3-3.6,2.6-7.2,3.9-10.8c0.2-0.6,0.4-1.2,0.5-1.9H86.5z M100.5,238.7c-5.9,0-8.2-2.1-8.7-7.9c-0.5-5.2-1.4-10.4-2.2-15.5
			c-0.4-2.5-0.9-5-1.2-7.5c-0.2-1-0.2-2.1-0.2-3.2c0-0.5,0-1-0.1-1.6l-0.1-1.6h219.5l-5.6,36.8l-1.2,0.1c-0.6,0-1.2,0.1-1.8,0.1
			c-1.2,0.1-2.3,0.2-3.4,0.2c-15.8,0-31.6,0-47.4,0C199.7,238.6,149.7,238.6,100.5,238.7C100.6,238.7,100.5,238.7,100.5,238.7z
			 M91.1,204.4C91.1,204.5,91.1,204.5,91.1,204.4c0,1.1,0.1,2,0.2,2.9c0.4,2.5,0.8,5,1.2,7.5c0.9,5.1,1.8,10.5,2.3,15.8
			c0.4,4.2,1.4,5.2,5.7,5.2c0,0,0.1,0,0.1,0c49.1-0.1,99.1-0.1,147.5-0.1c15.8,0,31.6,0,47.4,0c1,0,2.1-0.1,3.2-0.2
			c0.2,0,0.4,0,0.6,0l4.7-31H91.1z M293.6,196.8H102.1v-28.5h191.5V196.8z M105.1,193.8h185.5v-22.5H105.1V193.8z"/>
	</g>
	<g>
		<path d="M237.5,129.7c-2.5,0-5.1,0.4-7.4-0.2c-1.3-0.3-3-2-3.3-3.3c-0.2-0.9,1.7-3.2,2.7-3.3c5.3-0.3,10.6-0.4,15.9,0
			c1.1,0.1,3,2.3,2.8,3.3c-0.3,1.3-1.9,3-3.3,3.4C242.6,130.1,240,129.7,237.5,129.7z"/>
		<path d="M241.9,131.4c-0.8,0-1.5,0-2.3-0.1c-0.7,0-1.4-0.1-2.2-0.1l0,0c-0.8,0-1.4,0-2.2,0.1c-1.8,0.1-3.7,0.2-5.6-0.3
			c-1.9-0.4-4-2.6-4.4-4.5c-0.2-1.1,0.4-2.2,1-3c0.5-0.6,1.7-2,3.1-2.1c5.4-0.4,10.8-0.4,16.1,0c1.5,0.1,2.8,1.7,3.2,2.2
			c0.8,1.1,1.2,2,1,2.9c-0.4,1.9-2.5,4.1-4.4,4.5C244.2,131.3,243,131.4,241.9,131.4z M237.5,128.2c0.8,0,1.5,0,2.3,0.1
			c1.7,0.1,3.3,0.2,4.8-0.2c0.7-0.2,1.8-1.3,2.1-2c-0.2-0.5-1-1.4-1.5-1.6c-5.1-0.3-10.4-0.3-15.6,0c-0.4,0.2-1.2,1.1-1.4,1.6
			c0.3,0.8,1.4,1.8,2.1,2c1.5,0.3,3.1,0.3,4.8,0.2C236,128.3,236.7,128.2,237.5,128.2L237.5,128.2z M228.2,126.2L228.2,126.2
			L228.2,126.2z M246.7,126.2L246.7,126.2L246.7,126.2z M245.2,124.5L245.2,124.5L245.2,124.5z"/>
	</g>
	<g>
		<path d="M148,129.8c-2.3,0-4.8,0.4-6.9-0.2c-1.5-0.4-2.6-2.2-3.9-3.4c1.2-1.1,2.3-3.2,3.6-3.3c5-0.4,10-0.4,14.9,0
			c1.2,0.1,2.3,2.2,3.4,3.4c-1.2,1.1-2.3,2.9-3.7,3.2C153,130.1,150.4,129.7,148,129.8z"/>
		<path d="M143.7,131.4c-1,0-2.1-0.1-3.1-0.4c-1.5-0.4-2.5-1.6-3.5-2.7c-0.4-0.4-0.7-0.8-1.1-1.1l-1.2-1.1l1.2-1.1
			c0.3-0.3,0.6-0.7,1-1.1c0.9-1.1,2-2.4,3.5-2.5c5.1-0.4,10.2-0.4,15.2,0c1.5,0.1,2.5,1.5,3.4,2.7c0.3,0.4,0.6,0.9,0.9,1.2l1,1.1
			l-1.1,1c-0.3,0.3-0.6,0.7-1,1.1c-0.9,1-1.9,2.2-3.4,2.5c-1.9,0.4-3.8,0.3-5.6,0.3c-0.7,0-1.4-0.1-2.2-0.1c0,0,0,0,0,0l0,0
			c-0.7,0-1.3,0-2,0.1C145.2,131.4,144.5,131.4,143.7,131.4z M139.2,126.1c0.1,0.1,0.2,0.2,0.2,0.3c0.7,0.8,1.4,1.6,2,1.7
			c1.3,0.4,2.8,0.3,4.4,0.2c0.7,0,1.5-0.1,2.2-0.1l0,0c0,0,0,0,0,0c0.8,0,1.5,0,2.3,0.1c1.7,0.1,3.3,0.2,4.8-0.2
			c0.5-0.1,1.2-0.9,1.8-1.6c0.1-0.1,0.1-0.2,0.2-0.3c-0.1-0.1-0.2-0.2-0.3-0.3c-0.4-0.5-1.1-1.4-1.4-1.5c-4.8-0.4-9.7-0.4-14.6,0
			c-0.3,0.1-1,1-1.4,1.5C139.3,126,139.3,126.1,139.2,126.1z"/>
	</g>
	<g>
		<path d="M192.9,129.8c-2.3,0-4.8,0.4-6.9-0.1c-1.6-0.4-2.8-2.1-4.2-3.2c1.3-1.2,2.5-3.4,3.9-3.5c4.8-0.4,9.6-0.4,14.4,0
			c1.3,0.1,2.4,2.1,3.6,3.2c-1.3,1.2-2.3,3-3.8,3.4C197.6,130.2,195.2,129.8,192.9,129.8C192.9,129.8,192.9,129.8,192.9,129.8z"/>
		<path d="M188.6,131.4c-1,0-2.1-0.1-3.1-0.3c-1.5-0.4-2.6-1.5-3.6-2.4c-0.4-0.4-0.8-0.8-1.2-1.1l-1.3-1.1l1.3-1.2
			c0.3-0.3,0.7-0.8,1.1-1.2c1-1.2,2.1-2.5,3.7-2.7c4.6-0.4,9.5-0.4,14.7,0c1.5,0.1,2.6,1.4,3.5,2.5c0.3,0.4,0.7,0.8,1,1.1l1.1,1.1
			l-1.1,1.1c-0.3,0.3-0.7,0.7-1,1.1c-0.9,1.1-2,2.3-3.4,2.7c-1.8,0.5-3.6,0.4-5.3,0.3c-0.5,0-0.9-0.1-1.4-0.1l-0.6,0
			c-0.7,0-1.4,0-2,0.1C190.1,131.4,189.4,131.4,188.6,131.4z M183.8,126.3c0.1,0.1,0.1,0.1,0.2,0.2c0.8,0.7,1.6,1.5,2.3,1.7
			c1.3,0.3,2.8,0.3,4.4,0.2c0.2,0,0.5,0,0.7,0v-0.1h1.5c0.7,0,1.5,0,2.2,0.1c1.6,0.1,3.1,0.2,4.3-0.2c0.6-0.2,1.3-1,1.9-1.7
			c0.1-0.1,0.2-0.2,0.2-0.3c-0.1-0.1-0.1-0.2-0.2-0.3c-0.4-0.5-1.1-1.4-1.5-1.5c-4.9-0.4-9.7-0.4-14.1,0c-0.4,0-1.2,1.1-1.7,1.6
			C184,126.2,183.9,126.2,183.8,126.3z"/>
	</g>
</g>
</svg>
