<?xml version="1.0" encoding="utf-8"?>
<!-- Generator: Adobe Illustrator 22.1.0, SVG Export Plug-In . SVG Version: 6.00 Build 0)  -->
<svg version="1.1" id="Слой_1" xmlns="http://www.w3.org/2000/svg" xmlns:xlink="http://www.w3.org/1999/xlink" x="0px" y="0px" viewBox="0 0 336.1 336" style="enable-background:new 0 0 336.1 336;" xml:space="preserve">
	<style type="text/css">
		path {
			fill: #FFFFFF;
		}
	</style>
	<g>
		<path d="M60,95.2c0-1.2,0-2.5,0-3.8c0-15.7,0-31.5,0-47.2c0-6.2,1.8-8.1,8-8.1c18.7,0,37.5,0,56.2,0c6,0,7.7,1.8,7.8,7.9
		c0,15.7,0,31.5,0,47.2c0,1.4,0,2.7,0,4.4c26.1,0,51.9,0,77.8,0c0-15.8,0-31.3,0-47.5c-5.9,0-11.7,0-17.5,0
		c-11.8,0-12.3-0.5-12.3-12.2c0-9.2,0-18.5,0-27.7c0-6.2,1.9-8,8.1-8c26.6,0,53.2,0,79.9,0c6.3,0,8,1.7,8,8c0,10.5,0,21,0,31.5
		c0,6.7-1.8,8.5-8.4,8.5c-7,0-14,0-21.3,0c0,15.9,0,31.6,0,47.6c1.3,0.1,2.7,0.2,4,0.2c9.5,0,19,0.3,28.5-0.1
		c7.6-0.3,13.2,2.7,16.3,9.1c4.4,8.9,8.4,18.1,11.3,27.6c6.5,20.9,9.2,42.7,11.3,64.4c2.1,21.5,3.9,43,5.7,64.6
		c0.2,2.3,0.9,3.7,3.1,4.9c6.1,3.2,9.4,8.5,9.4,15.5c0.1,12,0.1,24,0,36c-0.1,10.2-7.4,17.6-17.7,18.2c-0.9,0-1.7,0-2.6,0
		c-98.5,0-197,0-295.5,0c-6,0-11.4-1.5-15.5-6.1C1.5,326.3,0,322,0,317.2c0-11.5-0.1-23,0-34.5c0-7.7,3.6-13.3,10.3-17
		c1-0.5,2-1.9,2.1-2.9c1.9-20.5,3.3-41.1,5.4-61.6c2.8-27.6,6.1-55.1,15.8-81.4c2.1-5.6,4.9-10.9,8-16c3.3-5.5,8.3-8.5,15.1-8
		c0.7,0.1,1.5,0,2.2-0.1C59.2,95.7,59.4,95.5,60,95.2z M59.8,108.3c-4.5-1.4-7.6,0-9.5,4c-1.3,2.7-3.1,5.2-3.9,8.1
		c-3.9,13.8-9,27.4-11,41.5c-4.2,30.2-6.8,60.5-10,90.8c-0.4,3.7-0.5,7.3-0.7,11c95.9,0,191.2,0,287,0c-1.2-14.4-2.3-28.5-3.6-42.5
		c-2.3-24.4-4.3-48.8-9.8-72.7c-2.7-11.9-5.8-23.7-11.5-34.7c-2.2-4.1-4.9-6-10-6c-46.5,0.2-93,0.1-139.5,0.1c-1.6,0-3.2,0-5,0
		c0,12.2,0,24,0,36.2c2.2,0,4.2-0.1,6.2,0c3.2,0.3,5,2.2,5.3,5.3c0.3,3.3-1.4,5.5-4.6,6.3c-1.3,0.3-2.7,0.3-4.1,0.3c-26,0-52,0-78,0
		c-1.1,0-2.3,0.1-3.4-0.1c-3.4-0.5-5.5-2.9-5.4-6.1c0.1-3.2,2.3-5.5,5.7-5.7c1.8-0.1,3.7,0,5.7,0C59.8,131.8,59.8,120.1,59.8,108.3z
		 M168.1,276c-49.4,0-98.7,0-148.1,0c-6.2,0-8,1.8-8,8c0,10.7,0,21.5,0,32.2c0,5.7,2,7.7,7.7,7.7c98.8,0,197.7,0,296.5,0
		c5.9,0,7.7-1.9,7.8-7.9c0-10.4,0-20.7,0-31.1c0-7.6-1.4-8.9-8.9-8.9C266.1,275.9,217.1,276,168.1,276z M119.7,143.8
		c0-32.1,0-63.8,0-95.6c-15.9,0-31.6,0-47.4,0c0,32,0,63.7,0,95.6C88.3,143.8,103.9,143.8,119.7,143.8z M192.3,35.7
		c24,0,47.7,0,71.5,0c0-8,0-15.6,0-23.5c-23.9,0-47.6,0-71.5,0C192.3,20,192.3,27.7,192.3,35.7z M222.3,48.2c0,16,0,31.7,0,47.4
		c4,0,7.7,0,11.5,0c0-15.9,0-31.5,0-47.4C229.9,48.2,226.2,48.2,222.3,48.2z" />
		<path d="M99.2,180c10.4,0,20.7,0,31.1,0c5.7,0,7.7,1.9,7.7,7.6c0,12.9,0,25.7,0,38.6c0,5.7-2,7.7-7.6,7.8c-20.9,0-41.7,0-62.6,0
		c-5.6,0-7.8-2.1-7.8-7.7c0-12.9,0-25.7,0-38.6c0-5.7,2-7.7,7.7-7.7C78.2,179.9,88.7,180,99.2,180z M125.7,221.8
		c0-10.1,0-19.8,0-29.5c-18,0-35.7,0-53.5,0c0,10,0,19.6,0,29.5C90.2,221.8,107.8,221.8,125.7,221.8z" />
		<path d="M270,216c3.7,0,7.5-0.1,11.2,0c4.6,0.1,6.7,2.1,6.8,6.6c0.1,7.5,0.1,15,0,22.5c0,4.5-2.1,6.7-6.6,6.8
		c-7.5,0.1-15,0.1-22.5,0c-4.5-0.1-6.8-2.3-6.8-6.7c-0.1-7.5-0.1-15,0-22.5c0.1-4.5,2.2-6.6,6.7-6.7C262.5,215.9,266.2,216,270,216z
		 M264.2,239.8c4.1,0,7.7,0,11.5,0c0-4,0-7.8,0-11.5c-4,0-7.6,0-11.5,0C264.2,232.1,264.2,235.8,264.2,239.8z" />
		<path d="M174.2,168c3.9,0,7.7-0.1,11.6,0c3.9,0.1,6.1,2.2,6.1,6.1c0.1,7.9,0.1,15.7,0,23.6c-0.1,3.9-2.2,6.1-6.1,6.2
		c-7.9,0.2-15.7,0.2-23.6,0c-3.8-0.1-6.1-2.3-6.2-6.1c-0.2-7.9-0.2-15.7,0-23.6c0.1-4,2.4-6.1,6.5-6.2
		C166.5,167.9,170.3,168,174.2,168C174.2,168,174.2,168,174.2,168z M179.8,180.3c-4,0-7.7,0-11.5,0c0,4,0,7.7,0,11.4
		c4,0,7.7,0,11.5,0C179.8,187.8,179.8,184.1,179.8,180.3z" />
		<path d="M174.4,120c3.7,0,7.5-0.1,11.2,0c4.1,0.1,6.3,2.1,6.4,6.2c0.1,7.7,0.1,15.5,0,23.2c-0.1,4.2-2.3,6.4-6.6,6.5
		c-7.5,0.1-15,0.1-22.5,0c-4.5-0.1-6.8-2.2-6.8-6.7c-0.1-7.5-0.1-15,0-22.5c0.1-4.7,2.3-6.7,7.1-6.8
		C166.9,119.9,170.6,120,174.4,120C174.4,120,174.4,120,174.4,120z M168.3,132.1c0,4.1,0,7.8,0,11.6c3.9,0,7.6,0,11.4,0
		c0-4,0-7.8,0-11.6C175.8,132.1,172.2,132.1,168.3,132.1z" />
		<path d="M240,137.9c0,3.9,0.1,7.7,0,11.6c-0.1,4.1-2.2,6.3-6.3,6.4c-7.7,0.1-15.5,0.1-23.2,0c-4-0.1-6.3-2.3-6.4-6.4
		c-0.2-7.7-0.2-15.5,0-23.2c0.1-4.2,2.4-6.3,6.7-6.3c7.5-0.1,15-0.1,22.5,0c4.5,0,6.6,2.2,6.7,6.7C240,130.4,240,134.2,240,137.9z
		 M216.2,143.5c4,0,7.8,0,11.6,0c0-4,0-7.6,0-11.2c-4,0-7.7,0-11.6,0C216.2,136.2,216.2,139.8,216.2,143.5z" />
		<path d="M269.9,120c3.7,0,7.5-0.1,11.2,0c4.6,0.1,6.7,2.1,6.8,6.6c0.1,7.6,0.1,15.2,0,22.9c-0.1,4.2-2.2,6.4-6.6,6.5
		c-7.6,0.1-15.2,0.1-22.9,0c-4.2-0.1-6.4-2.4-6.5-6.6c-0.1-7.6-0.1-15.2,0-22.9c0.1-4.3,2.3-6.3,6.6-6.4
		C262.4,119.9,266.2,120,269.9,120z M275.8,143.7c0-4,0-7.7,0-11.5c-4,0-7.8,0-11.5,0c0,4,0,7.6,0,11.5
		C268.2,143.7,271.9,143.7,275.8,143.7z" />
		<path d="M270.1,168c3.7,0,7.5-0.1,11.2,0c4.4,0.1,6.5,2.1,6.6,6.4c0.1,7.7,0.1,15.5,0,23.2c-0.1,4-2.3,6.2-6.4,6.3
		c-7.7,0.1-15.5,0.1-23.2,0c-4-0.1-6.2-2.4-6.3-6.4c-0.1-7.7-0.2-15.5,0-23.2c0.1-4.1,2.4-6.1,6.4-6.2
		C262.4,167.9,266.2,168,270.1,168z M275.8,180.2c-4,0-7.7,0-11.4,0c0,4,0,7.8,0,11.4c4,0,7.7,0,11.4,0
		C275.8,187.7,275.8,184.1,275.8,180.2z" />
		<path d="M174.3,216c3.6,0,7.2,0,10.9,0c4.6,0.1,6.8,2,6.8,6.5c0.1,7.6,0.1,15.2,0,22.9c-0.1,4.1-2.1,6.4-6.2,6.5
		c-7.9,0.2-15.7,0.2-23.6,0c-3.8-0.1-6-2.4-6.1-6.2c-0.2-7.9-0.2-15.7,0-23.6c0.1-4,2.4-6,6.6-6C166.6,216,170.4,216,174.3,216z
		 M168.3,239.7c4,0,7.7,0,11.5,0c0-4,0-7.6,0-11.4c-4,0-7.7,0-11.5,0C168.3,232.3,168.3,235.9,168.3,239.7z" />
		<path d="M240,186.1c0,3.7,0.1,7.5,0,11.2c-0.1,4.1-2.1,6.5-6.1,6.6c-7.9,0.2-15.7,0.2-23.6,0c-3.8-0.1-6.1-2.3-6.2-6.2
		c-0.2-7.9-0.2-15.7,0-23.6c0.1-4,2.4-6.1,6.5-6.1c7.6-0.1,15.2-0.1,22.8,0c4.3,0.1,6.4,2.2,6.5,6.5
		C240.1,178.4,240,182.2,240,186.1z M227.7,191.7c0-4.1,0-7.8,0-11.5c-4,0-7.7,0-11.5,0c0,4,0,7.6,0,11.5
		C220.2,191.7,223.8,191.7,227.7,191.7z" />
		<path d="M240,233.9c0,3.7,0.1,7.5,0,11.2c-0.1,4.4-2.1,6.7-6.3,6.8c-7.7,0.2-15.5,0.2-23.2,0c-4.2-0.1-6.3-2.4-6.4-6.7
		c-0.1-7.5-0.1-15,0-22.5c0.1-4.6,2.2-6.7,6.7-6.7c7.5-0.1,15-0.1,22.5,0c4.6,0.1,6.6,2.2,6.7,6.6c0,0.2,0,0.5,0,0.7
		C240,226.9,240,230.4,240,233.9z M216.2,228.2c0,4,0,7.7,0,11.5c4,0,7.7,0,11.6,0c0-4,0-7.6,0-11.5
		C223.9,228.2,220.2,228.2,216.2,228.2z" />
		<path d="M183,300c-0.1,8.3-6.9,15.1-15.1,14.9c-8-0.2-14.7-6.9-14.8-14.9c-0.1-8.2,6.7-15,15-15C176.4,285,183,291.6,183,300z
		 M172.2,300.1c-1.8-1.5-2.9-3.1-3.8-2.9c-1.2,0.2-2.2,1.6-3.4,2.5c1,1.1,1.8,2.6,3,3C168.9,302.9,170.2,301.4,172.2,300.1z" />
		<path d="M96.2,71.9c-3.6,0-7.2,0.1-10.9,0c-4.5-0.1-7-2.3-7.1-6c0-3.7,2.5-5.9,7-5.9c7.4,0,14.7,0,22.1,0c4.5,0,7.1,2.2,7.1,5.9
		c0,3.6-2.7,6-7.1,6C103.7,72,100,71.9,96.2,71.9z" />
		<path d="M96.2,84c3.7,0,7.5-0.1,11.2,0c4.1,0.1,6.4,2.2,6.5,5.7c0.1,3.6-2.3,6.2-6.4,6.3c-7.7,0.1-15.5,0.1-23.2,0
		c-3.8-0.1-6.3-2.8-6.3-6.1c0.1-3.4,2.6-5.7,6.5-5.8C88.4,83.9,92.3,84,96.2,84z" />
		<path d="M96.1,108c3.9,0,7.7-0.1,11.6,0c3.7,0.1,6,2.4,6.1,5.7c0.1,3.3-2.1,6-5.7,6.1c-8.1,0.2-16.2,0.2-24.3,0
		c-3.6-0.1-5.7-2.9-5.5-6.3c0.2-3.2,2.4-5.4,5.9-5.5C88.2,107.9,92.2,108,96.1,108z" />
	</g>
</svg>