<?xml version="1.0" encoding="utf-8"?>
<!-- Generator: Adobe Illustrator 22.1.0, SVG Export Plug-In . SVG Version: 6.00 Build 0)  -->
<svg version="1.1" id="Слой_1" xmlns="http://www.w3.org/2000/svg" xmlns:xlink="http://www.w3.org/1999/xlink" x="0px" y="0px" viewBox="0 0 407.1 512" style="enable-background:new 0 0 407.1 512;" xml:space="preserve">
	<style type="text/css">
		path {
			fill: #fff;
		}
	</style>
	<g>
		<path d="M233,0c9.2,3.4,13.5,10.8,16,19.7c4.4,15.2,4.5,30.9,4.7,46.6c0,2.7,0.8,5.6,2.1,7.9c12.9,22.2,25.1,44.7,31.6,69.8
		c0.5,1.9,0.9,3.9,1.5,6.2c3.6-0.5,7-1.1,10.4-1.6c4.7-0.6,8.2,1.7,8.9,5.9c0.8,4.2-1.5,8.4-6.1,8.6c-10.1,0.3-13.7,5.2-14.1,14.8
		c-0.2,4.1,0.1,6.4,4,8c2.8,1.1,5.4,2.7,7.9,4.3c3.6,2.3,4.6,6.6,2.7,10c-1.9,3.4-6.1,4.7-10,2.9c-3.6-1.7-7-3.6-10.9-5.6
		c-7.8,14.3-18.4,25.2-33.8,31.4c16.5,58.1,33.1,115.9,43.2,177c6.2-6.4,11.7-11.9,17.1-17.6c1.5-1.6,2.7-3.4,4.1-5
		c3.5-4.1,7.9-4.8,11.4-1.9c3.2,2.7,3.8,7.4,0.4,11.1c-8.7,9.2-17.5,18.2-26.7,26.8c-3,2.8-4.7,5-5,9.4c-0.5,7.7-2.1,15.3-3.4,23.4
		c5.2-3.2,10.8-6.3,16.1-9.9c52.5-35.3,81.1-84.5,86.2-147.5c1.9-23.3,0.8-46.6-1.9-69.8c-0.5-4-0.3-7.7,3.7-10
		c4.9-2.8,10.4,0.3,11.1,6.5c3,25,4,50.1,2.1,75.3c-2.4,30.8-10.3,60-25.6,86.9c-26.1,46-65.6,76.5-114.3,95.3
		c-14.2,5.5-29.3,8.4-44.1,12.3c-2.8,0.7-4.7,1.6-5.8,4.5c-2.8,7.1-7.2,13-14.4,16.5c-2.3,0-4.7,0-7,0c-6.4-2.5-10.7-7.2-13.5-13.3
		c-1.2-2.6-2.5-3.7-5.6-3.6c-14.5,0.2-29,0.2-43.4,0c-2.8,0-4.2,0.8-5.3,3.3c-2.7,6.1-7,10.8-13.2,13.6c-2.3,0-4.7,0-7,0
		c-7.3-3-11.7-8.7-14.4-15.7c-1.5-3.7-3.8-4.6-7.3-5.4c-9.7-2.2-19.6-4.2-28.8-7.8c-30.6-11.8-43.7-34.5-40-67.2
		c4.6-40.2,15-79.1,25-118.1c0.4-1.4,0.8-2.9,1.2-4.3c1.6-5.1,5.2-7.5,9.6-6.3c4.1,1.1,6.1,5,4.9,10c-3.4,13.9-7.5,27.6-10.4,41.6
		c-5.4,26.1-10.7,52.1-15,78.4c-3.7,22.8,4.3,39.1,22.4,48.4c6.5,3.3,13.6,5.3,20.5,7.7c3.2,1.1,6.7,1.5,10.7,2.4
		c-1.6-8.5-3.5-16.3-4.4-24.1c-3.4-27.3-6.9-54.5-9.6-81.8c-1.9-18.7-2.4-37.6-3.6-56.4c-0.1-1.2-0.2-2.3-0.2-3.5
		c0.2-4.6,3.2-7.9,7.4-7.8c4.5,0.1,7.2,2.7,7.5,7.1c0.7,9.6,1,19.3,1.7,28.9c2.9,43,5.9,86.1,15,128.4c1.6,7.6,4.3,15,6.8,22.4
		c0.9,2.6,2.6,4.9,4.7,8.9c2.2-4.6,4.6-7.7,5.3-11.2c3.3-14.8,7.6-29.5,8.9-44.4c3-36.5,4.6-73.1,6.7-109.7
		c0.4-7.7,2.6-11.3,7.6-11.3c5.2,0,7.9,3.9,7.5,11.7c-1.8,34.4-3.3,68.9-5.8,103.3c-1,14.5-4.1,29-6.3,43.9c13.2,0,26.6,0,39.7,0
		c-2.2-15.1-5.2-29.8-6.2-44.7c-2.5-35.1-4-70.2-5.8-105.3c-0.3-5.4,2.9-8.8,7.3-8.9c4.6-0.1,7.4,3.4,7.7,9.1
		c1.6,32.8,2.5,65.6,5.3,98.3c1.6,18.8,6.2,37.4,9.7,56c0.5,2.9,2.1,5.6,3.3,8.3c0.5,1.2,1.5,2.2,2.9,4.2c1.8-3.2,3.9-5.7,4.6-8.5
		c3.6-13,7.6-25.9,9.9-39.1c8-45.7,10.9-91.9,13.2-138.2c0.3-6.1,3.3-9.6,8-9.3c4.6,0.3,7.4,3.7,7,9.6c-2.8,36.2-5.3,72.4-8.8,108.6
		c-1.8,18.3-5.5,36.5-8.3,54.7c22.8,1.2,49.7-17.1,52.2-38.4c1.5-12.6,0.2-26-2-38.7c-9.6-57-25.8-112.5-41.8-168
		c-2.8-9.6-1.6-11.4,7.7-14.5c18.4-6.1,27.9-20,32.8-37.9c4.2-15.4,1.5-30.4-4.8-44.3C259.8,114.8,250,97,241,78.8
		c-1.5-3-2.6-6.5-2.5-9.8c0.1-14.7,0.3-29.4-3.6-43.7c-1-3.6-3.7-6.7-5.6-10.1c-3,2.3-7,3.9-8.8,6.9c-7.2,11.7-14,23.7-20.2,36
		c-2.6,5.2-5.6,7.6-11.4,7.5c-23.2-0.2-46.3-0.2-69.5,0c-5.3,0-8.3-2.1-10.7-7c-5.8-11.7-12-23.3-18.9-34.5c-2.3-3.7-7.1-6-10.8-8.9
		c-2,4.1-5.2,8-5.7,12.3c-1.6,13.9-2,27.8-3.2,41.7c-0.3,3.3-1,7-2.7,9.8c-12.4,21-24.4,42.1-30.9,65.8c-6.3,23.1-2,44.1,15.7,60.9
		c4.9,4.6,11.7,7.4,18.1,10c6.1,2.5,8.3,5.3,6.5,11.7c-3.6,12.8-7.3,25.6-11.1,38.4c-1.6,5.3-5.2,7.8-9.4,6.7
		c-4.6-1.2-6.6-5.3-5.1-10.8c2.7-9.8,5.7-19.5,8.3-29.3c0.4-1.4-0.1-3.8-1-4.5c-6-4.4-12.8-7.8-18.3-12.8
		c-5.3-4.9-9.2-11.2-14.2-17.4c-2.8,1.5-6,3.3-9.4,5c-4.5,2.2-8.6,1.1-10.7-2.8c-2.1-3.9-1-8.5,3.8-10.3c9.4-3.5,13-8.8,9.7-19
		c-1.2-3.6-1.6-5.9-5.8-6.1c-2.3-0.1-4.6-0.6-6.9-1.2c-4.6-1.1-7.2-4.5-6.6-8.5c0.7-4.3,4.4-6.8,9.3-6.2c3.3,0.4,6.5,1,10,1.5
		c1.8-6.3,3.4-12.4,5.4-18.3c6.9-20.3,17-39,27.8-57.4c1.5-2.6,2.1-5.8,2.4-8.8c1.5-14.7,2.2-29.5,4.3-44.1C60.5,12,65.6,4.1,75,0
		c2.7,0,5.3,0,8,0c8.6,3.1,15.3,8.9,19.9,16.6c6.1,9.9,11.3,20.3,17.2,30.3c0.9,1.6,3.3,3.4,5,3.4c19.5,0.2,38.9,0.2,58.4,0
		c1.6,0,3.8-1.6,4.7-3.1c3.5-6.2,6.3-12.8,9.9-19c6.6-11.6,13.8-22.8,27-28.2C227.7,0,230.3,0,233,0z" />
		<path d="M155.3,140.9c3.8,0.5,8.6,0.7,13,2c9.3,2.6,12,11.3,6,18.7c-2.3,2.9-5.7,5.2-9,6.8c-2.8,1.4-3.5,2.9-3.4,5.7
		c0.2,4,0.2,8,0,12c-0.2,5.1-3.2,8.1-7.6,8.1c-4.5,0-7.2-3-7.4-8.2c0-1.2-0.1-2.3,0-3.5c0.5-7.2,1-13.8-8.3-16.9
		c-4.7-1.6-7.3-6.7-7.4-12.2c-0.1-5.5,4.2-9.9,10.9-11.1C146.1,141.4,150.3,141.3,155.3,140.9z" />
		<path d="M232.9,136c0.1,10.7-6.8,19.2-15.6,19.1c-8.5-0.1-15.2-8.5-15.1-19c0.1-10.4,6.9-18.9,15.3-18.9
		C225.9,117.1,232.8,125.6,232.9,136z" />
		<path d="M106.3,136.2c-0.1,1.3-0.1,2.7-0.3,4c-1.2,8.3-7.3,14.6-14.3,14.9c-7.2,0.3-13.7-4.8-15-13.3c-0.8-4.9-0.1-10.3,1.4-15
		c1.8-6,6.7-9.6,13.2-9.5c6.3,0.1,10.6,3.7,12.9,9.3c1.2,3,1.8,6.3,2.6,9.5C106.6,136.1,106.4,136.2,106.3,136.2z" />
		<path d="M347.2,282c0.1-24.6-7.3-45.2-15.7-65.6c-4.5-10.9-9-21.8-12.9-33c-3.3-9.3-3.7-18.9,0.8-28.2
		c10.2-21.4,36.1-26.8,54.2-11.2c12.5,10.8,18.4,25.4,23.2,40.6c0.6,1.9,1.2,3.8,1.4,5.8c0.5,4.2-1.4,7.3-5.5,8.3
		c-4.1,1-7.3-0.7-8.8-4.7c-1.8-4.8-3.1-9.9-4.9-14.7c-3.8-9.7-8.3-19-17.1-25.3c-12.2-8.7-28.2-2-30.4,12.8c-0.5,3.5,0,7.4,1.2,10.8
		c3.6,10.3,7.6,20.6,11.8,30.7c7.2,17.2,13.8,34.6,16.5,53.2c3.3,23.2,0,45.9-6.4,68.1c-3.1,10.7-7.5,21-11.6,31.3
		c-2.5,6.2-6.7,8.2-11.1,6c-4.5-2.2-5.3-6.3-2.5-12.5C340.9,329.3,347.2,302.5,347.2,282z" />
	</g>
</svg>