<?xml version="1.0" encoding="utf-8"?>
<!-- Generator: Adobe Illustrator 22.1.0, SVG Export Plug-In . SVG Version: 6.00 Build 0)  -->
<svg version="1.1" id="Слой_1" xmlns="http://www.w3.org/2000/svg" xmlns:xlink="http://www.w3.org/1999/xlink" x="0px" y="0px" viewBox="0 0 345.3 343.8" style="enable-background:new 0 0 345.3 343.8;" xml:space="preserve">
	<style xmlns="http://www.w3.org/2000/svg" type="text/css">
		path {
			fill: #e55021;
		}
	</style>
	<g>
		<path d="M0.9,172C0.9,88,62.1,15.8,145,2.4c41.3-6.7,80,0.7,116.1,21.9c6.8,4,9.2,10.9,5.9,16.7c-3.4,6-10.8,7.4-17.7,3.4
		c-25.7-15.2-53.4-22-83.1-20.7C97.3,26.6,38.7,78.9,27.7,147c-11.9,74,31.7,144.1,103.2,165.9c82.6,25.2,170.2-27.1,187.3-111.8
		c3.6-18,4.1-35.9,0.7-54c-0.4-2.2-0.6-4.5-0.3-6.7c0.9-5.8,5.7-9.8,11.5-9.9c6-0.1,10.7,3.7,11.9,9.8c3.5,17,4.1,34.2,2,51.5
		c-4.6,38.2-20.1,71.4-46.8,99.1c-27.7,28.8-61.5,46.3-101.2,51.3C106.1,353.8,24.9,297.1,5.1,208.7c-2.7-12-3.5-24.4-5.1-36.6
		C0.3,172.1,0.6,172,0.9,172z" />
		<path d="M170,195.8c14.7-14.8,29.1-29.4,43.6-43.8c33.5-33.5,67-67,100.5-100.4c4.3-4.3,9.6-5.4,14.3-3.2c4.6,2.2,7.8,7.2,6.6,12.3
		c-0.7,3.1-2.6,6.3-4.8,8.5c-38.2,38.4-76.5,76.6-114.8,114.8c-11.9,11.9-23.9,23.9-35.8,35.8c-6.7,6.7-13.1,6.7-19.8-0.1
		c-22.7-22.7-45.4-45.5-68.2-68.1c-3.8-3.8-5.2-8.2-3.6-13.3c1.5-4.5,4.9-7.2,9.6-7.9c4.5-0.7,7.9,1.2,11,4.3
		c19.3,19.4,38.7,38.7,58.1,58.1C167.7,193.6,168.6,194.4,170,195.8z" />
	</g>
</svg>