<?xml version="1.0" encoding="utf-8"?>
<!-- Generator: Adobe Illustrator 22.1.0, SVG Export Plug-In . SVG Version: 6.00 Build 0)  -->
<svg version="1.1" id="Слой_1" xmlns="http://www.w3.org/2000/svg" xmlns:xlink="http://www.w3.org/1999/xlink" x="0px" y="0px"
	 viewBox="0 0 343.7 343.8" style="enable-background:new 0 0 343.7 343.8;" xml:space="preserve">
<g>
	<path d="M171.8,343.6c-20.1,0-40.3,0.4-60.4-0.1c-18.8-0.5-37.3-3.5-54.8-10.9c-25.9-11-41.8-30.7-49.8-57.3
		c-4.2-14.1-6.5-28.5-6.6-43.2c-0.3-40.1-0.3-80.2,0-120.3c0.1-17.2,3-34.1,9-50.3C19.7,33.1,39.9,15.4,68.6,6.9
		C85.7,1.8,103.3,0,121.2,0c37,0,74-0.1,111,0.3c17.3,0.2,34.3,3,50.6,9.1c28.1,10.5,45.7,30.8,54.2,59.3
		c4.5,15.2,6.6,30.8,6.7,46.6c0.1,39,0.2,78-0.1,117c-0.2,17-3,33.8-8.9,49.9c-10.7,29.2-31.8,47.1-61.4,55.4
		c-17.8,5-36.1,6.4-54.5,6.3c-15.6,0-31.2,0-46.9,0C171.8,343.8,171.8,343.7,171.8,343.6z M24.1,171.7c0,0-0.1,0-0.1,0
		c0,17.9,0,35.7,0,53.6c0,13.4,1.3,26.7,4.7,39.7c6.1,23.7,20.1,40.3,43.8,48.1c12.9,4.2,26.3,6.3,39.8,6.4
		c36.7,0.3,73.5,0.2,110.2,0.2c15.2,0,30.2-1.2,44.9-5.4c23.8-6.7,39.4-21.7,46.5-45.5c3.6-12.2,5.5-24.7,5.6-37.3
		c0.3-38.2,0.4-76.5,0-114.7c-0.1-11.5-1.5-23.2-3.8-34.5C310,53.7,292.9,35.1,264,28.7c-10.7-2.4-21.7-4.1-32.6-4.3
		c-36.7-0.6-73.5-0.3-110.2-0.3c-14.3,0-28.4,1.2-42.3,4.7c-25,6.4-41.8,21.5-49.2,46.5c-3.6,12.1-5.3,24.4-5.5,36.9
		C23.9,132,24.1,151.9,24.1,171.7z"/>
	<path d="M219.6,133.7c-13.5,0-27,0-40.5,0c-7.8,0-13.2-4.8-13.3-11.7c-0.1-7.1,5.3-12.3,13.1-12.3c27.2-0.1,54.5,0,81.7,0
		c7,0,12.1,4.2,13,10.5c0.8,5.4-2.7,11.1-8.1,12.8c-1.6,0.5-3.4,0.6-5.2,0.6C246.8,133.8,233.2,133.7,219.6,133.7z"/>
	<path d="M220,221.8c13.4,0,26.7,0,40.1,0c3.9,0,7.5,0.7,10.2,3.7c3.2,3.5,4.4,7.5,2.8,12.1c-1.6,4.4-4.7,7.3-9.5,8
		c-1.1,0.2-2.2,0.2-3.4,0.2c-27,0-54,0-80.9,0c-7.5,0-12.9-4.4-13.4-10.8c-0.6-7.1,4.6-12.9,12.2-13.1c9.7-0.2,19.5-0.1,29.2-0.1
		C211.5,221.8,215.8,221.8,220,221.8z"/>
	<path d="M93.5,229.4c9.7-9.7,18.6-18.7,27.6-27.7c3.5-3.5,7.7-4.5,12.4-3c4.6,1.5,7.2,4.8,8,9.5c0.7,4-0.6,7.5-3.4,10.3
		c-12,12-23.9,24.1-36.1,36c-5.1,5-11.9,4.7-17.1-0.3c-3.9-3.7-7.7-7.5-11.4-11.4c-5-5.2-5.1-12.7-0.2-17.4c4.8-4.6,12-4.4,17.1,0.5
		C91.6,226.8,92.4,228,93.5,229.4z"/>
	<path d="M94.4,117.5c1.5-1.9,2.8-3.8,4.3-5.4c7.3-7.4,14.6-14.7,22-22c5.2-5.1,12.7-5.3,17.5-0.5c4.8,4.7,4.8,12-0.2,17.1
		c-11.8,11.9-23.6,23.8-35.5,35.5c-5.3,5.2-12.1,5.1-17.4,0c-3.9-3.7-7.7-7.5-11.4-11.4c-4.9-5.1-5.1-12.4-0.5-17.2
		c4.7-4.8,12.2-4.7,17.5,0.3C91.7,114.8,92.6,115.8,94.4,117.5z"/>
</g>
</svg>
