<?xml version="1.0" encoding="utf-8"?>
<!-- Generator: Adobe Illustrator 22.1.0, SVG Export Plug-In . SVG Version: 6.00 Build 0)  -->
<svg version="1.1" id="Слой_1" xmlns="http://www.w3.org/2000/svg" xmlns:xlink="http://www.w3.org/1999/xlink" x="0px" y="0px"
	 viewBox="0 0 273.8 384" style="enable-background:new 0 0 273.8 384;" xml:space="preserve">
<g>
	<path d="M193.1,0c1.9,0.8,4,1.4,5.8,2.4c7.3,4,10.9,10.4,11,18.7c0.1,9.4,0.1,18.7,0,28.1c0,5.1-2,7-7.1,7c-7.5,0-14.9,0-22.7,0
		c0,10.5,0,20.7,0,31.5c1.2,0,2.4,0,3.5,0c8,0,16-0.1,24,0c11.6,0.1,20.3,8.2,20.8,19.8c0.4,7.9,0.2,15.7,0.1,23.6
		c0,2.4,0.8,3.5,3.1,4.2c11.9,3.8,23.7,7.8,35.5,11.8c5.7,1.9,6.4,2.9,6.4,8.9c0,53.2,0,106.5,0,159.7c0,6-0.8,7-6.5,8.9
		c-11.8,4-23.6,8-35.5,11.8c-2.4,0.8-3.1,1.9-3,4.3c0.1,7.1,0.1,14.2,0,21.4c-0.2,13.5-8.7,21.9-22.1,22c-61.5,0-123,0-184.5,0
		C8.7,384,0,375.5,0,362C0,277.9,0,193.8,0,109.7c0-13.5,8.7-21.9,22.2-21.9c8.7,0,17.4,0,26.6,0c0-1.9,0-3.3,0-4.8
		c0-19.1,0-38.2,0-57.4c0-15.1,3.2-20,16.9-25.6C108.1,0,150.6,0,193.1,0z M48.6,99c-8.6,0-17.1,0-25.6,0c-8.5,0-11.7,3.2-11.7,11.8
		c0,83.4,0,166.7,0,250.1c0,8.7,3.3,11.9,12.1,11.9c51.1,0,102.2,0,153.3,0c10.1,0,20.2,0,30.4,0c6.6,0,10.1-3.6,10.4-10.1
		c0-0.9,0-1.7,0-2.6c0-82.7,0-165.5,0-248.2c0-1.2,0-2.5-0.1-3.7c-0.5-5.5-4-8.9-9.6-9c-7-0.1-14,0-21,0c-2.2,0-4.4,0-6.6,0
		c0,6.5,0,12.4,0,18.8c4.1,0,7.9,0,11.8,0c4.2,0,6.6,2.1,6.7,5.5c0.1,3.6-2.4,5.8-6.8,5.8c-51.7,0-103.5,0-155.2,0
		c-4.1,0-6.6-2.1-6.6-5.5c0-3.4,2.4-5.6,6.5-5.7c4-0.1,7.9,0,12,0C48.6,111.3,48.6,105.4,48.6,99z M169.9,11.3c-0.9,0-2.3,0-3.6,0
		c-31.2,0-62.5,0-93.7,0c-9.5,0-12.5,3-12.5,12.5c0,29.9,0,59.7,0,89.6c0,1.3,0,2.7,0,4.1c36.4,0,72.4,0,108.7,0c0-1.8,0-3.2,0-4.7
		c0-29.1,0-58.2,0-87.3C168.8,20.9,169.5,16.3,169.9,11.3z M251.3,153.8c0,1.9,0,3.4,0,4.9c0,20.1,0,40.2,0,60.4
		c0,4.8-2,7.4-5.5,7.5c-3.7,0.1-5.7-2.6-5.8-7.6c0-3.5,0-7,0-10.5c0-18.4,0-36.7-0.1-55.1c0-1.3-0.6-3.3-1.4-3.7
		c-3-1.4-6.2-2.1-9.4-3.2c0,59.9,0,119.3,0,179c10-3.3,19.5-6.7,29.1-9.6c3.3-1,4.4-2.4,4.4-6c-0.1-49.4-0.1-98.7-0.1-148.1
		c0-0.9,0.2-1.8-0.1-2.6c-0.3-0.8-0.8-1.9-1.5-2.2C257.9,155.8,254.8,154.9,251.3,153.8z M198.7,44.9c0-8.2,0.1-16.1,0-23.9
		c-0.1-5.8-4.1-9.7-9.3-9.6c-5.2,0-9.1,3.9-9.3,9.7c-0.2,6.4-0.1,12.7-0.1,19.1c0,1.6,0,3.1,0,4.7C186.5,44.9,192.3,44.9,198.7,44.9
		z"/>
	<path d="M114.2,204c-25.4,0-50.7,0-76.1,0c-6.4,0-8.1-1.6-8.1-7.9c0-13.5,0-27,0-40.5c0-6.3,1.7-7.9,8.1-7.9
		c50.9,0,101.7,0,152.6,0c6.4,0,8.1,1.6,8.1,7.9c0,13.5,0,27,0,40.5c0,6.2-1.7,7.9-8.1,7.9C165.2,204,139.7,204,114.2,204z
		 M41.6,159.1c0,11.4,0,22.4,0,33.4c48.7,0,97.2,0,145.6,0c0-11.3,0-22.3,0-33.4C138.5,159.1,90.2,159.1,41.6,159.1z"/>
	<path d="M170.8,256.5c-4.7,0-9.5,0.1-14.2,0c-4.4-0.1-6.4-2-6.5-6.4c-0.1-7-0.1-14,0-21c0.1-4.4,2.2-6.3,6.6-6.3
		c9.4-0.1,18.7-0.1,28.1,0c4.4,0,6.4,2,6.5,6.4c0.1,7,0.1,14,0,21c-0.1,4.4-2.2,6.3-6.6,6.3C180,256.5,175.4,256.5,170.8,256.5z
		 M161.6,234.2c0,3.7,0,7.3,0,10.8c6.2,0,12.1,0,18.2,0c0-3.7,0-7.3,0-10.8C173.5,234.2,167.6,234.2,161.6,234.2z"/>
	<path d="M58.1,271.5c4.7,0,9.5-0.1,14.2,0c4.2,0.1,6.3,2,6.4,6.2c0.1,7.1,0.1,14.2,0,21.3c-0.1,4.2-2.2,6.2-6.3,6.2
		c-9.5,0.1-19,0.1-28.5,0c-4.2,0-6.3-2-6.3-6.2c-0.1-7.1-0.1-14.2,0-21.3c0.1-4.2,2.2-6.1,6.3-6.2C48.6,271.4,53.4,271.5,58.1,271.5
		z M67.3,282.9c-6.2,0-12.2,0-18.3,0c0,3.7,0,7.2,0,10.9c6.2,0,12.1,0,18.3,0C67.3,290.2,67.3,286.7,67.3,282.9z"/>
	<path d="M114.7,305.2c-4.7,0-9.5,0-14.2,0c-4.5,0-6.6-1.9-6.7-6.2c-0.1-7.1-0.1-14.2,0-21.3c0.1-4.1,2.2-6.1,6.4-6.1
		c9.5-0.1,19-0.1,28.5,0c4.1,0,6.2,2,6.3,6.2c0.1,7.1,0.1,14.2,0,21.3c-0.1,4.1-2.2,6.1-6.4,6.1C124,305.3,119.3,305.2,114.7,305.2z
		 M105.2,293.7c6.2,0,12.3,0,18.3,0c0-3.7,0-7.2,0-10.7c-6.2,0-12.3,0-18.3,0C105.2,286.7,105.2,290.2,105.2,293.7z"/>
	<path d="M170.8,271.5c4.7,0,9.5-0.1,14.2,0c4,0.1,6.1,2,6.2,5.9c0.2,7.2,0.2,14.5,0,21.7c-0.1,4.1-2.2,6-6.5,6
		c-9.4,0.1-18.7,0.1-28.1,0c-4.4,0-6.5-2-6.6-6.3c-0.1-7-0.1-14,0-21c0.1-4.4,2.1-6.4,6.5-6.4C161.3,271.5,166,271.5,170.8,271.5z
		 M179.9,283.1c-6.4,0-12.4,0-18.4,0c0,3.7,0,7.2,0,10.6c6.3,0,12.3,0,18.4,0C179.9,290,179.9,286.7,179.9,283.1z"/>
	<path d="M58.3,320.3c4.7,0,9.5-0.1,14.2,0c3.9,0.1,6.1,2,6.1,6c0.1,7.2,0.1,14.5,0,21.7c-0.1,3.9-2.2,6-6.2,6
		c-9.6,0.1-19.2,0.1-28.8,0c-3.9,0-6.1-2-6.1-6c-0.1-7.2-0.1-14.5,0-21.7c0.1-3.9,2.2-5.9,6.1-6C48.6,320.2,53.5,320.3,58.3,320.3z
		 M49,342.6c6.2,0,12.1,0,18.3,0c0-3.7,0-7.2,0-10.9c-6.2,0-12.1,0-18.3,0C49,335.3,49,338.7,49,342.6z"/>
	<path d="M114.2,354c-4.7,0-9.5,0.1-14.2,0c-3.9-0.1-6.1-2-6.1-6c-0.1-7.2-0.1-14.5,0-21.7c0.1-3.9,2.2-6,6.1-6
		c9.6-0.1,19.2-0.1,28.8,0c3.9,0,6.1,2,6.1,6c0.1,7.2,0.1,14.5,0,21.7c-0.1,3.9-2.2,5.9-6.1,6C123.9,354.1,119.1,354,114.2,354z
		 M105.2,331.7c0,3.7,0,7.2,0,10.8c6.2,0,12.2,0,18.4,0c0-3.7,0-7.1,0-10.8C117.5,331.7,111.5,331.7,105.2,331.7z"/>
	<path d="M170.8,320.3c4.7,0,9.5-0.1,14.2,0c4,0.1,6.1,2,6.2,5.9c0.2,7.2,0.1,14.5,0,21.7c-0.1,4-2.2,6-6.1,6.1
		c-9.6,0.1-19.2,0.1-28.8,0c-4,0-6.1-2-6.2-5.9c-0.2-7.2-0.1-14.5,0-21.7c0.1-4.1,2.2-6,6.5-6.1C161.3,320.2,166,320.3,170.8,320.3z
		 M179.8,331.8c-6.2,0-12.3,0-18.3,0c0,3.7,0,7.2,0,10.7c6.2,0,12.3,0,18.3,0C179.8,338.7,179.8,335.3,179.8,331.8z"/>
	<path d="M58.2,222.8c4.7,0,9.5-0.1,14.2,0c4.2,0.1,6.3,2,6.3,6.2c0.1,7.1,0.1,14.2,0,21.3c-0.1,4.1-2.2,6.1-6.4,6.2
		c-9.5,0.1-19,0.1-28.5,0c-4.1,0-6.3-2-6.3-6.2c-0.1-7.1-0.1-14.2,0-21.3c0.1-4.2,2.2-6.1,6.4-6.2C48.7,222.7,53.4,222.8,58.2,222.8
		z M67.2,245c0-3.7,0-7.3,0-10.8c-6.2,0-12.2,0-18.1,0c0,3.7,0,7.3,0,10.8C55.3,245,61.2,245,67.2,245z"/>
	<path d="M114.7,222.8c4.6,0,9.2-0.1,13.9,0c4.2,0.1,6.3,2,6.4,6.1c0.1,7.1,0.1,14.2,0,21.3c-0.1,4.2-2.2,6.2-6.3,6.2
		c-9.5,0.1-19,0.1-28.5,0c-4.2,0-6.3-2-6.4-6.1c-0.1-7.1-0.1-14.2,0-21.3c0.1-4.3,2.2-6.2,6.7-6.2
		C105.2,222.7,110,222.8,114.7,222.8z M105.2,245c6.2,0,12.3,0,18.3,0c0-3.7,0-7.2,0-10.7c-6.2,0-12.3,0-18.3,0
		C105.2,238,105.2,241.4,105.2,245z"/>
	<path d="M114.2,99c-9.5,0-19,0-28.5,0c-4.4,0-6.9-2.1-6.9-5.6c0-3.5,2.5-5.6,6.9-5.6c19.1,0,38.2,0,57.3,0c4.4,0,6.9,2.1,6.9,5.6
		c0,3.5-2.5,5.6-6.9,5.6C133.4,99,123.8,99,114.2,99z"/>
	<path d="M114.4,58.9c9.5,0,19,0,28.4,0c4.6,0,7,1.9,7.1,5.4c0.1,3.7-2.4,5.8-7.1,5.8c-19,0-37.9,0-56.9,0c-0.5,0-1,0-1.5-0.1
		c-3.6-0.4-5.7-2.6-5.6-5.8c0.1-3.2,2.3-5.3,6-5.3C94.7,58.9,104.5,58.9,114.4,58.9C114.4,58.9,114.4,58.9,114.4,58.9z"/>
	<path d="M129.2,41.2c-4.7,0-9.5,0.1-14.2,0c-3.8-0.1-6.1-2.3-6.1-5.6c0-3.3,2.4-5.6,6.1-5.6c9.6-0.1,19.2-0.1,28.8,0
		c3.8,0,6.1,2.3,6.1,5.6c0,3.3-2.4,5.5-6.2,5.6C138.9,41.3,134,41.2,129.2,41.2z"/>
	<path d="M88.1,30.1c1.5,0,3-0.2,4.5,0c2.9,0.5,4.7,2.3,4.8,5.3c0.1,3.2-1.7,5.3-4.8,5.7c-2.9,0.3-6,0.3-8.9,0
		c-3.1-0.4-4.9-2.5-4.8-5.7c0.1-3,1.9-4.8,4.8-5.3C85.1,29.9,86.7,30.1,88.1,30.1z"/>
	<path d="M129.8,170.3c14,0,28,0,42,0c1,0,2-0.1,3,0.1c3.1,0.4,5,2.2,5.2,5.4c0.2,3-2,5.6-5.2,5.7c-4.1,0.2-8.2,0.1-12.4,0.1
		c-25,0-49.9,0-74.9,0c-1.1,0-2.3,0.1-3.4-0.1c-3.2-0.4-5.4-2.7-5.2-5.8c0.2-3.2,2.1-5,5.2-5.4c1.1-0.1,2.2-0.1,3.4-0.1
		C101.6,170.2,115.7,170.3,129.8,170.3z"/>
	<path d="M58.1,181.4c-1.5,0-3,0.2-4.5,0c-3.1-0.6-4.8-2.5-4.7-5.7c0.1-3,1.9-4.9,4.8-5.3c2.7-0.3,5.5-0.2,8.2-0.1
		c3.3,0.2,5.4,2.4,5.5,5.4c0.1,3.2-2.1,5.5-5.6,5.7C60.6,181.6,59.3,181.5,58.1,181.4C58.1,181.5,58.1,181.4,58.1,181.4z"/>
</g>
</svg>
