<?xml version="1.0" encoding="utf-8"?>
<!-- Generator: Adobe Illustrator 22.1.0, SVG Export Plug-In . SVG Version: 6.00 Build 0)  -->
<svg version="1.1" id="Слой_1" xmlns="http://www.w3.org/2000/svg" xmlns:xlink="http://www.w3.org/1999/xlink" x="0px" y="0px"
	 viewBox="0 0 326.8 326.9" style="enable-background:new 0 0 326.8 326.9;" xml:space="preserve">
<g>
	<path d="M173,326.9c-6.4,0-12.8,0-19.2,0c-0.8-0.2-1.6-0.5-2.5-0.5c-25.6-1.8-49.5-9.1-71.3-22.5C37.8,278,11.7,240.6,2.5,191.6
		c-1.1-6.1-1.7-12.4-2.5-18.5c0-6.4,0-12.8,0-19.2c0.2-1.1,0.4-2.3,0.6-3.4c1-7,1.6-14.2,3.1-21.1C12.2,90.2,32.4,58,64.4,33.8
		C104.1,3.7,148.9-6.3,197.8,3.9c39.1,8.2,70.9,28.6,95.2,60.2c26.2,34.1,37.2,73,33.1,115.7c-3.3,34.7-16.8,65.2-39.9,91.4
		c-25.3,28.6-56.8,46.5-94.5,53.2C185.4,325.5,179.2,326.1,173,326.9z M138,190.5c-6.1-5.5-12-11-18-16.4
		c-9-8.2-17.8-16.8-27.2-24.6c-8.7-7.3-22.3-2.5-24.9,8.4c-1.7,7,0.7,12.7,5.9,17.4c17.6,16,35.2,32.1,52.9,48.1
		c8.3,7.6,17,7.4,25.1-0.6c33.8-33.6,67.7-67.1,101.5-100.7c0.9-0.9,1.8-1.8,2.6-2.8c6.6-7.9,4.5-19.6-4.4-24.7
		c-7-4-14.6-2.7-21.1,3.8c-29.9,29.9-59.7,59.7-89.6,89.6C139.8,188.7,139,189.5,138,190.5z"/>
</g>
</svg>
