<?xml version="1.0" encoding="utf-8"?>
<!-- Generator: Adobe Illustrator 22.1.0, SVG Export Plug-In . SVG Version: 6.00 Build 0)  -->
<svg version="1.1" id="Слой_1" xmlns="http://www.w3.org/2000/svg" xmlns:xlink="http://www.w3.org/1999/xlink" x="0px" y="0px"
	 viewBox="0 0 384.1 384.1" style="enable-background:new 0 0 384.1 384.1;" xml:space="preserve">
<g>
	<path d="M384.1,203.3c-1,7.3-1.7,14.6-3,21.8c-7.9,44.3-28.9,81.3-62.5,111.1c-27.4,24.3-59.3,39.6-95.4,45.3
		c-47.2,7.5-91.6-0.9-132.2-26.4C43.8,325.2,14,282.6,3.6,227.6c-10.5-55.7,1.8-106.8,36.1-152C68.4,38,106.2,14.2,152.4,4.2
		c7.9-1.7,16-2.4,24.1-3.5c1.2-0.2,2.4-0.4,3.6-0.7c8,0,16,0,24,0c6.5,0.9,13.1,1.5,19.6,2.6c35.9,6.1,67.7,21.1,95,45.3
		c33.6,29.8,54.5,66.8,62.4,111c1.3,7.2,2,14.5,3,21.8C384.1,188.3,384.1,195.8,384.1,203.3z M192.2,372
		c99.1,0,179.8-80.8,179.9-179.8C372.2,92.9,291.4,12,192.2,12C93,12,12.1,92.8,12.1,192C12.2,291.2,93,372,192.2,372z"/>
	<path d="M167.9,213.7c5.2-5.3,9.7-10.1,14.4-14.8c24.7-24.8,49.5-49.5,74.2-74.2c6.9-6.9,14.8-9.6,24.2-6.6
		c14.9,4.8,20.3,23.3,10.4,35.4c-1.1,1.4-2.4,2.6-3.6,3.8c-33.6,33.6-67.1,67.1-100.7,100.7c-12,12-25.4,12-37.4,0.1
		c-18-18-36.1-36-54-54.1c-12.5-12.6-7.6-33,9.1-37.9c8.7-2.5,16.3-0.3,22.7,6.1c12.9,12.9,25.8,25.8,38.7,38.7
		C166.4,211.6,166.8,212.4,167.9,213.7z M167.4,255.8c4.5-0.7,7.5-2.8,10.2-5.6c34-34,68-68,102-102.1c0.9-0.9,1.8-1.8,2.5-2.8
		c4-5.8,1.4-13.6-5.4-15.8c-5.1-1.7-8.8,0.6-12.3,4.1c-30,30.1-60,60.1-90.1,90.1c-5.2,5.2-7.6,5.2-12.7,0.1
		c-14.3-14.3-28.6-28.6-43-42.9c-4.8-4.7-11-4.8-15.4-0.5c-4.3,4.3-4.2,10.6,0.6,15.4c18.5,18.6,37,37.2,55.7,55.6
		C161.7,253.4,164.8,254.3,167.4,255.8z"/>
</g>
</svg>
