<?xml version="1.0" encoding="utf-8"?>
<!-- Generator: Adobe Illustrator 22.1.0, SVG Export Plug-In . SVG Version: 6.00 Build 0)  -->
<svg version="1.1" id="Слой_1" xmlns="http://www.w3.org/2000/svg" xmlns:xlink="http://www.w3.org/1999/xlink" x="0px" y="0px"
	 viewBox="0 0 384.1 377.9" style="enable-background:new 0 0 384.1 377.9;" xml:space="preserve">
<style type="text/css">
	.st0{fill:#434142;}
	.st1{fill:#E85122;}
	.st2{enable-background:new    ;}
	.st3{fill:#E85222;}
</style>
<g>
	<g>
		<path class="st0" d="M384.1,323.1c-1.2,4.5-2.1,9.2-3.7,13.6c-8.5,24.4-31.7,41.1-57.5,41.1c-87.2,0.1-174.5,0.1-261.7,0
			c-33.4,0-60.9-27.4-61.1-60.8c-0.2-33.9-0.1-67.7,0-101.6c0-5.4,3.9-8.5,8.1-6.4c2.8,1.4,3.2,3.8,3.2,6.6c0,25.7-0.1,51.5,0,77.2
			c0,10.6-0.4,21.3,0.9,31.8c3.1,24.1,25.3,42.2,50.4,42c24.4-0.2,46-18.9,49.2-42.7c0.4-2.7,0.7-5.5,0.7-8.2c0-49.2,0-98.5,0-147.7
			c0-0.9,0-1.7,0-2.9c-33.7,0-67.2,0-101.2,0c0,1.3,0,2.6,0,3.9c0,7.4,0.1,14.7,0,22.1c-0.1,3.5-2.5,5.9-5.6,5.8
			c-3.2-0.1-5.4-1.9-5.5-5.1c-0.2-11.1-0.2-22.2,0-33.4c0.1-2.9,2.2-4.6,5.2-5c1.1-0.1,2.2,0,3.4,0c33,0,66,0,99,0
			c1.5,0,2.9,0,4.8,0c0-1.8,0-3.3,0-4.7c0-35.2-0.1-70.5,0.1-105.7c0-3.5,0.8-7.3,2.3-10.4c7.1-14.6,18.6-24.9,33-32
			c1.7-0.9,4.7-0.4,6.6,0.5c10.5,5.3,19.3,12.8,26.4,22.3c0.7,1,1.5,1.9,2.4,3.1c7.2-10.7,16.4-18.7,27.3-25c3.5-2,6.5-2.1,10.1-0.1
			c10.9,6.3,20.2,14.2,27.4,25c0.8-1,1.5-1.7,2-2.5c7-9.7,16-17.1,26.4-22.9c3.1-1.7,5.8-1.6,8.8,0.1c10.4,5.8,19.4,13.2,26.3,23
			c0.5,0.7,1,1.4,1.1,1.4c6.3-6.1,12.4-12.3,18.9-18c3-2.6,6.7-4.3,10-6.5c2.8-1.8,5.5-1.7,8.4,0c14.8,8.3,26.6,19.3,33.3,35.3
			c0.1,0.3,0.5,0.5,0.7,0.8c0,10.5,0,21,0,31.5c-2,1.1-3.8,2.9-5.9,3.2c-3.2,0.4-5.3-2.4-5.3-6.3c-0.1-7.5,0.1-15-0.1-22.5
			c0-1.9-0.5-4-1.3-5.7c-5.3-10.8-13.7-18.7-23.9-24.7c-0.9-0.5-2.7-0.4-3.6,0.2c-11.1,6.6-20,15.3-25,27.5
			c-1.1,2.7-2.7,4.5-5.8,4.4c-2.9,0-4.4-1.9-5.4-4.4c-5-12.2-13.9-20.9-25-27.5c-1-0.6-2.9-0.6-3.9,0c-11.1,6.6-20,15.3-25,27.5
			c-1,2.5-2.5,4.3-5.4,4.4c-3.1,0.1-4.7-1.7-5.8-4.4c-5-12.2-13.9-20.9-25-27.5c-1-0.6-2.9-0.5-3.9,0c-11.1,6.6-20,15.3-25,27.5
			c-1,2.5-2.5,4.3-5.5,4.4c-3.1,0-4.6-1.8-5.7-4.5c-5-12.2-13.9-20.9-25-27.5c-1-0.6-2.9-0.5-3.9,0.1c-8.6,4.9-15.6,11.5-21.1,19.8
			c-2.7,4.1-3.9,8.3-3.9,13.3c0.1,87.6-0.1,175.2,0.3,262.9c0.1,23.2-6.8,42.4-25.9,57.2c1.4,0.2,2.3,0.3,3.2,0.3
			c73.7,0,147.5,0.1,221.2,0c28,0,50.2-22.6,50.3-50.8c0.1-73.7,0-147.5,0-221.2c0-1,0-2,0-3c-0.2-3.1,0.1-6.2,3.5-7.5
			c3.3-1.4,5.6,0.6,7.7,2.8C384.1,165.6,384.1,244.4,384.1,323.1z"/>
		<g>
			<path class="st1" d="M270.3,215.7c23.5,0,47,0,70.5,0c1.4,0,2.8-0.1,4.1,0.1c2.8,0.4,4.5,2.1,4.7,5c0.2,2.8-1.1,4.9-3.8,5.7
				c-1.4,0.4-3,0.4-4.4,0.4c-47.4,0-94.7,0-142.1,0c-0.7,0-1.5,0-2.2,0c-3.7-0.3-6.2-2.6-6.1-5.8c0.1-3.2,2.5-5.4,6.3-5.4
				c11.6-0.1,23.2,0,34.9,0C244.8,215.7,257.5,215.7,270.3,215.7z"/>
		</g>
		<g>
			<path class="st1" d="M270.1,326c-23.7,0-47.4,0-71.2,0c-1.5,0-3-0.1-4.4-0.5c-2.7-0.9-4-3.1-3.6-5.9s2.1-4.5,5-4.8
				c1.1-0.1,2.2-0.1,3.4-0.1c47.3,0,94.6,0,142,0c1,0,2,0,3,0c3.2,0.2,5.1,1.9,5.4,5.1c0.3,3.1-1.7,5.5-5,5.9
				c-1.2,0.2-2.5,0.1-3.7,0.1C317.3,326,293.7,326,270.1,326z"/>
		</g>
		<g>
			<path class="st1" d="M270.2,294.1c-23.5,0-47,0-70.5,0c-1.4,0-2.8,0-4.1-0.1c-2.9-0.4-4.5-2.3-4.7-5c-0.2-2.8,1.2-4.9,3.9-5.6
				c1.3-0.4,2.7-0.4,4.1-0.4c47.6,0,95.2,0,142.9,0c1.4,0,2.8,0,4.1,0.4c2.7,0.9,4,2.9,3.7,5.8c-0.2,2.7-1.8,4.4-4.4,4.8
				c-1.3,0.2-2.7,0.2-4.1,0.2C317.4,294.1,293.8,294.1,270.2,294.1z"/>
		</g>
		<g>
			<path class="st1" d="M270.4,194.5c-23.6,0-47.2,0-70.9,0c-6,0-8.8-1.9-8.8-5.8c0.1-3.7,2.8-5.5,8.6-5.5c47.2,0,94.5,0,141.7,0
				c1,0,2,0,3,0c3.4,0.3,5.4,2.3,5.5,5.4c0,3.1-1.9,5.2-5.3,5.6c-1.4,0.2-2.7,0.1-4.1,0.1C316.9,194.6,293.7,194.5,270.4,194.5z"/>
		</g>
		<g>
			<path class="st1" d="M163.1,314.8c2.9,0,5.7-0.1,8.6,0c3.5,0.1,5.9,2.3,6,5.4c0.1,2.9-2.1,5.6-5.3,5.7c-6.4,0.2-12.7,0.2-19.1,0
				c-3.2-0.1-5.4-2.7-5.4-5.6c0-3.1,2.4-5.4,5.9-5.5C156.9,314.7,160,314.8,163.1,314.8z"/>
		</g>
		<g>
			<path class="st1" d="M163.1,215.7c3,0,6-0.1,9,0c3.3,0.1,5.5,2.4,5.6,5.3c0.1,2.9-2.1,5.6-5.3,5.7c-6.4,0.2-12.7,0.2-19.1,0
				c-3.3-0.1-5.4-2.7-5.4-5.6c0-3.1,2.4-5.4,5.9-5.5C156.9,215.6,160,215.7,163.1,215.7L163.1,215.7z"/>
		</g>
		<g>
			<path class="st1" d="M162.7,294.1c-3.1,0-6.2,0.1-9.3,0c-3.2-0.2-5.6-2.6-5.4-5.5c0.1-3.2,1.9-5.4,5.1-5.5c6.5-0.3,13-0.3,19.4,0
				c3.2,0.1,5.4,2.8,5.3,5.7c-0.1,2.9-2.3,5.2-5.6,5.3C169,294.2,165.8,294.1,162.7,294.1L162.7,294.1z"/>
		</g>
		<g>
			<path class="st1" d="M162.9,183.3c3,0,6-0.1,9,0c3.5,0.2,6,2.5,5.8,5.6c-0.2,3.3-2.2,5.4-5.5,5.5c-6.2,0.2-12.5,0.2-18.7,0
				c-3.5-0.1-5.7-2.7-5.6-5.8c0.1-3,2.5-5.1,6.1-5.3c0.2,0,0.5,0,0.7,0C157.4,183.3,160.2,183.3,162.9,183.3L162.9,183.3z"/>
		</g>
	</g>
</g>
<g class="st2">
	<path class="st3" d="M214.5,115.5h10.4V69.6c3.7-0.8,7.6-1.3,11.8-1.6c4.2-0.3,8.4-0.5,12.6-0.5c4.6,0,9,0.4,13.3,1.2
		c4.3,0.8,8.1,2.3,11.4,4.4c3.3,2.1,6,5,8,8.6c2,3.6,3,8.3,3,13.9c0,5.4-1.1,10-3.2,13.7c-2.1,3.7-4.9,6.7-8.3,8.9
		c-3.4,2.3-7.3,3.9-11.7,4.9c-4.4,1-8.8,1.5-13.3,1.5h-11.2v9.6h23.9v9.2h-23.9v17.2h-12.4v-17.2h-10.4v-9.2h10.4v-9.6h-10.4V115.5z
		 M249.7,78.3c-2.4,0-4.7,0.1-7,0.3c-2.3,0.2-4.1,0.4-5.4,0.5v36.4H248c2.8,0,5.7-0.3,8.5-0.9c2.8-0.6,5.4-1.6,7.7-3.1
		c2.3-1.5,4.1-3.5,5.5-6.1c1.4-2.5,2.1-5.7,2.1-9.6c0-3.4-0.6-6.2-1.7-8.5c-1.2-2.2-2.7-4-4.7-5.4c-2-1.4-4.4-2.3-7.1-2.9
		C255.6,78.5,252.7,78.3,249.7,78.3z"/>
</g>
</svg>
