<?xml version="1.0" encoding="utf-8"?>
<!-- Generator: Adobe Illustrator 22.1.0, SVG Export Plug-In . SVG Version: 6.00 Build 0)  -->
<svg version="1.1" id="Слой_1" xmlns="http://www.w3.org/2000/svg" xmlns:xlink="http://www.w3.org/1999/xlink" x="0px" y="0px"
	 viewBox="0 0 302.4 355.6" style="enable-background:new 0 0 302.4 355.6;" xml:space="preserve">
<g>
	<path d="M205.5,291.9c2,0,3.5,0,4.9,0c27.9,0,55.7,0,83.6,0c6.9,0,8.3,1.4,8.3,8.3c0,7.5,0,15,0,22.5c0,5-1.7,6.7-6.8,6.7
		c-28.4,0-56.7,0-85.1,0c-1.5,0-3,0-4.7,0c-0.2,2.2-0.4,4.2-0.7,6.1c-1.9,11.8-11.1,19.9-23,20c-12.2,0.1-24.5,0-36.7,0
		c-40,0-80,0-120,0C9.5,355.5,0,346.1,0,330.2C0,240.4,0,150.7,0,61c0-6.6,1.3-7.8,7.9-7.8c7.2,0,14.4,0,22.1,0c0-4.7,0-9.1,0-13.4
		c0-7.1,0-14.2,0-21.4c0-4.5,1.8-6.3,6.4-6.3c6.7,0,13.4,0,20.6,0c0-2.3-0.1-4.3,0-6.2c0.1-3.7,1.9-5.7,5.5-5.7
		C80.2,0,98,0,115.7,0.1c3.6,0,5.5,2,5.7,5.6c0.1,2,0,4,0,6.2c5.5,0,10.7,0,16.5,0c0-2-0.1-4,0-6.1c0.1-3.7,1.9-5.6,5.6-5.6
		c8.7-0.1,17.5-0.1,26.2,0c3.9,0,5.6,2.2,5.7,6.8c0,13.9,0,27.7,0,41.6c0,1.4,0,2.7,0,4.7c4.7,0,9.1,0,13.6,0c3.5,0,7-0.1,10.5,0
		c3.9,0.1,5.7,1.9,5.9,5.8c0.1,1.2,0,2.5,0,3.7c0,74.6,0,149.2,0,223.8C205.5,288.1,205.5,289.7,205.5,291.9z M194.8,168.1
		c-61.5,0-122.7,0-184.3,0c0,1.6,0,2.9,0,4.3c0,52.5,0,105,0,157.4c0,10.6,4.6,15.2,15.4,15.2c51.2,0,102.5,0,153.7,0
		c1.2,0,2.5,0.1,3.7-0.1c7.7-0.7,13.1-8.1,11-15.6c-1.3,0-2.6,0-4,0c-21.5,0-43,0-64.5,0c-5.4,0-7.1-1.7-7.1-7.2
		c0-7.4,0-14.7,0-22.1c0-6.7,1.5-8.2,8.1-8.2c21.1,0,42.2,0,63.4,0c1.5,0,2.9,0,4.6,0C194.8,250.4,194.8,209.4,194.8,168.1z
		 M10.7,157.1c61.6,0,122.8,0,184.1,0c0-20.5,0-40.8,0-61.8c-6.2,0-12.2,0.1-18.2-0.1c-2.2-0.1-3.3,0.6-4.1,2.7
		c-2.8,6.9-6,13.7-8.9,20.6c-1.4,3.3-3.5,4.9-7.1,4.8c-35.7-0.1-71.5-0.1-107.2,0c-3.8,0-6-1.5-7.4-5c-2.8-6.9-5.9-13.8-9-20.6
		c-0.4-1-1.5-2.4-2.3-2.4c-6.6-0.2-13.2-0.1-19.9-0.1C10.7,116.4,10.7,136.6,10.7,157.1z M273.8,302.7c-39.4,0-78.3,0-117.3,0
		c0,5.5,0,10.7,0,15.9c39.2,0,78.2,0,117.3,0C273.8,313.2,273.8,308.1,273.8,302.7z M67.7,112.6c5.6,0,10.7,0,16,0
		c0-25.1,0-50,0-74.9c-5.5,0-10.7,0-16,0C67.7,62.7,67.7,87.5,67.7,112.6z M94.8,37.7c0,25.2,0,50.1,0,74.8c5.5,0,10.7,0,16,0
		c0-25.1,0-49.9,0-74.8C105.4,37.7,100.2,37.7,94.8,37.7z M148.7,112.4c4.2,1.4,6.4,0,7.8-4c2-5.5,4.7-10.7,6.9-16.2
		c0.9-2.4,1.5-5,1.5-7.5c0.1-14.3,0.1-28.7,0.1-43c0-1.3,0-2.6,0-4c-5.7,0-10.9,0-16.3,0C148.7,62.7,148.7,87.5,148.7,112.4z
		 M121.7,49.7c0,21.2,0,42,0,62.8c5.5,0,10.7,0,16,0c0-21.1,0-41.9,0-62.8C132.3,49.7,127.2,49.7,121.7,49.7z M40.5,49.7
		c0,6,0.4,11.9-0.1,17.7c-1.3,14.7,1.4,28.4,8.6,41.3c2.5,4.5,2.3,4.8,7.7,3.7c0-20.8,0-41.7,0-62.6C51.3,49.7,46.1,49.7,40.5,49.7z
		 M10.8,63.8c0,7.3,0,14.2,0,20.9c6.5,0,12.7,0,18.9,0c0-7.2,0-13.9,0-20.9C23.3,63.8,17.2,63.8,10.8,63.8z M194.7,84.8
		c0-7.1,0-14,0-20.9c-6.5,0-12.7,0-19,0c0,7,0,13.8,0,20.9C182.1,84.8,188.3,84.8,194.7,84.8z M83.8,10.8c-5.7,0-10.9,0-16.1,0
		c0,5.5,0,10.7,0,16c5.5,0,10.7,0,16.1,0C83.8,21.4,83.8,16.2,83.8,10.8z M94.7,26.8c5.6,0,10.8,0,16.1,0c0-5.5,0-10.7,0-16
		c-5.5,0-10.8,0-16.1,0C94.7,16.2,94.7,21.4,94.7,26.8z M164.8,10.8c-5.5,0-10.7,0-16.1,0c0,5.5,0,10.7,0,16c5.5,0,10.8,0,16.1,0
		C164.8,21.3,164.8,16.1,164.8,10.8z M40.7,38.8c5.6,0,10.8,0,16.1,0c0-5.5,0-10.7,0-16c-5.5,0-10.8,0-16.1,0
		C40.7,28.3,40.7,33.4,40.7,38.8z M137.8,22.7c-5.6,0-10.8,0-16.1,0c0,5.5,0,10.7,0,16c5.5,0,10.8,0,16.1,0
		C137.8,33.3,137.8,28.1,137.8,22.7z M145.6,302.6c-5.6,0-10.8,0-16.1,0c0,5.4,0,10.6,0,16c5.5,0,10.7,0,16.1,0
		C145.6,313.2,145.6,308,145.6,302.6z M284.7,302.5c0,5.4,0,10.7,0,16.1c2.4,0,4.6,0,6.9,0c0-5.5,0-10.8,0-16.1
		C289.2,302.5,287.1,302.5,284.7,302.5z"/>
	<path d="M275.4,222.8c0,10.3-8.1,19-18.4,19.5c-2.7,0.1-5.5,0-8.2,0.1c-4.9,0.1-8.4,3.4-8.4,7.7c0,4.4,3.4,7.8,8.3,7.9
		c7.5,0.1,15,0,22.5,0.1c11.4,0.2,20.5,8.2,22.1,19.5c0.1,1,0.2,2,0.1,3c-0.3,3.1-2.1,4.9-5,5c-3,0.1-4.8-1.7-5.4-4.7
		c-1.6-9.4-5-12.3-14.6-12.3c-6.5,0-13,0.1-19.5,0c-11-0.1-19.2-8.1-19.1-18.4c0.1-10.4,8.3-18.1,19.3-18.2c2.4,0,4.8,0.1,7.1-0.1
		c5-0.3,8.7-4.2,8.7-9c0-4.8-3.8-8.7-8.8-8.9c-3.9-0.2-7.7,0-11.6-0.1c-11.2-0.2-20.3-8.1-22.1-19.2c-0.2-1-0.2-2-0.2-3
		c0.1-3.1,2.3-5.5,5.1-5.4c3,0.1,4.8,1.7,5.4,4.7c1.6,9.4,5.2,12.4,14.6,12.4c3.2,0,6.5-0.1,9.7,0
		C267.2,203.8,275.3,212.4,275.4,222.8z"/>
	<path d="M149.6,234.8c-0.1,25.7-21.2,46.7-46.8,46.6c-26.2-0.1-47.2-21.2-47-47.2c0.2-25.8,21.3-46.7,47.3-46.6
		C128.9,187.6,149.6,208.7,149.6,234.8z M139.1,234.6c0.2-19.9-16-36.4-35.8-36.6c-20.2-0.2-36.7,15.8-37,35.9
		c-0.3,20.1,16,36.8,35.9,36.9C122.6,271,138.9,255.1,139.1,234.6z"/>
	<path d="M177,252.7c0-3-0.1-6,0-9c0.1-3.1,1.9-4.9,4.9-5.1c3.1-0.2,5.2,1.7,5.4,4.6c0.3,6.2,0.3,12.5,0,18.7
		c-0.1,3-2.3,4.9-5.3,4.7c-3.2-0.1-5-2.1-5-5.4C177,258.4,177,255.6,177,252.7z"/>
</g>
</svg>
