<?xml version="1.0" encoding="utf-8"?>
<!-- Generator: Adobe Illustrator 22.1.0, SVG Export Plug-In . SVG Version: 6.00 Build 0)  -->
<svg version="1.1" id="Слой_1" xmlns="http://www.w3.org/2000/svg" xmlns:xlink="http://www.w3.org/1999/xlink" x="0px" y="0px"
	 viewBox="0 0 268.7 384" style="enable-background:new 0 0 268.7 384;" xml:space="preserve">
<g>
	<path d="M159.8,0c7,4.5,14.1,8.8,21,13.5c6.8,4.6,13.4,9.6,20.2,14.3c5.4,3.7,9.2,8.3,10.1,15.1c0.1,0.8,2,1.9,3.1,1.9
		c7,0.2,14,0.1,21,0.1c20.1,0.1,33.5,13.5,33.5,33.7c0,90.6,0,181.2,0,271.8c0,20.1-13.6,33.6-33.7,33.6c-67.1,0-134.2,0-201.3,0
		C13.6,384,0,370.4,0,350.4c0-90.6,0-181.2,0-271.8C0,58.4,13.4,45,33.5,44.9c7,0,14-0.1,21,0c2.1,0,3.1-0.4,3.4-2.8
		c0.6-5.4,3.4-9.6,7.7-12.7C77.7,20.7,89.8,12,101.9,3.5c2.1-1.5,4.6-2.3,6.9-3.5C125.8,0,142.8,0,159.8,0z M255.9,214.5
		c0-45.6,0-91.2,0-136.8c0-12-8-19.9-20-20c-7.6-0.1-15.2,0-22.9,0c-1.9,0-3.1,0.4-4.1,2.3c-3.7,7-9.8,10.5-17.7,10.5
		c-38,0-76,0-114,0c-7.8,0-13.7-3.5-17.4-10.3c-1.1-2.1-2.3-2.5-4.4-2.4c-7.1,0.1-14.2,0-21.4,0c-13.8,0-21.3,7.6-21.3,21.3
		c0,90.2,0,180.5,0,270.7c0,13.9,7.6,21.5,21.6,21.5c66.6,0,133.2,0,199.8,0c14.2,0,21.7-7.6,21.7-21.7
		C255.9,304.5,255.9,259.5,255.9,214.5z M134.2,57.7c18.6,0,37.2,0.1,55.8-0.1c2.4,0,5.6-1.2,7.1-3c3.2-3.6,1.2-12.9-2.8-15.8
		c-11.1-7.9-22.1-15.9-33.3-23.6c-2-1.4-4.8-2.2-7.2-2.3c-13-0.2-26-0.2-39,0c-2.4,0-5.2,0.9-7.2,2.3c-10.6,7.3-20.9,15-31.5,22.2
		c-4.3,2.9-6.1,6.3-5.8,11.5c0.4,6.7,2.1,8.7,8.8,8.7C97.5,57.7,115.8,57.7,134.2,57.7z"/>
	<path d="M45,198.6c0,17.1,0,33.9,0,50.8c17,0,33.7,0,51,0c0-3.8,0-7.6,0-11.5c0-4.8,2.4-7.7,6.3-7.7c3.8,0,6.4,2.9,6.5,7.6
		c0.1,3.9,0.1,7.8,0,11.6c-0.2,7.4-5.5,12.9-12.8,12.9c-17,0.1-34,0.1-51,0c-7.3,0-12.8-5.1-12.9-12.4c-0.2-17.4-0.2-34.7,0-52.1
		c0.1-7.1,5.1-12,12.2-12.2c10.4-0.3,20.7-0.2,31.1-0.1c4.2,0.1,6.8,2.7,6.7,6.5c-0.1,3.7-2.6,6.2-7,6.2c-8.6,0.1-17.2,0-25.9,0.1
		C47.9,198.4,46.5,198.5,45,198.6z"/>
	<path d="M45,288c0,17.2,0,33.9,0,50.9c17,0,33.8,0,51,0c0-4,0-7.9,0-11.7c0.1-4.5,2.5-7.2,6.3-7.2c3.8,0,6.3,2.7,6.4,7.2
		c0.1,4,0.1,8,0,12c-0.2,7.4-5.4,12.7-12.9,12.7c-17,0.1-34,0.1-51,0c-7.4,0-12.7-5-12.8-12.4c-0.2-17.2-0.2-34.5,0-51.7
		c0.1-7.6,5.5-12.5,13-12.6c9.9-0.1,19.7,0,29.6,0c4.7,0,7.5,2.5,7.4,6.5c-0.1,3.8-2.8,6.2-7.4,6.2c-8.6,0-17.2,0-25.9,0
		C47.6,288,46.4,288,45,288z"/>
	<path d="M44.9,108.8c0,17.2,0,33.9,0,50.9c17,0,33.7,0,51.1,0c0-3.8,0-7.7,0-11.5c0.1-4.6,2.3-7.3,6.1-7.4c4-0.1,6.5,2.6,6.6,7.3
		c0.1,3.9,0.1,7.7,0,11.6c-0.2,7.5-5.3,12.9-12.7,12.9c-17.1,0.2-34.2,0.1-51.3,0c-7.2-0.1-12.5-4.9-12.6-12.2
		c-0.2-17.5-0.3-35,0-52.5c0.1-7.1,5.6-12,12.8-12c10-0.1,20-0.1,30,0c4.5,0,7.2,2.5,7.2,6.3c0,3.9-2.7,6.4-7.2,6.4
		C65.1,108.8,55.2,108.8,44.9,108.8z"/>
	<path d="M70.4,311.6c13.2-11.3,25.8-22.1,38.4-32.9c1-0.9,2.1-1.8,3.3-2.5c2.8-1.5,5.4-0.9,7.5,1.4c2.2,2.4,2.4,5.2,0.5,7.9
		c-0.7,1-1.7,1.8-2.6,2.6c-13.8,11.9-27.7,23.8-41.5,35.6c-4.5,3.9-7.2,3.8-11.3-0.3c-3.6-3.6-7.3-7.2-10.9-10.9
		c-3.2-3.3-3.4-6.8-0.6-9.6c2.7-2.8,6.3-2.6,9.6,0.5C65.3,305.9,67.7,308.6,70.4,311.6z"/>
	<path d="M70.4,132.3c13.2-11.3,25.7-22,38.2-32.7c0.7-0.6,1.3-1.2,2-1.7c3.4-2.7,7.2-2.6,9.6,0.4c2.3,2.8,1.9,6.5-1.2,9.3
		c-5.8,5.1-11.7,10.1-17.6,15.1c-8.4,7.2-16.9,14.5-25.3,21.7c-4.8,4.1-7.3,3.9-11.9-0.6c-3.5-3.5-7.1-7-10.6-10.6
		c-3.1-3.2-3.2-6.9-0.4-9.6c2.7-2.6,6.2-2.5,9.3,0.5C65.2,126.6,67.7,129.4,70.4,132.3z"/>
	<path d="M70.3,222c12.9-11.1,25.1-21.6,37.3-32c1.2-1.1,2.4-2.2,3.7-3.1c3-2.2,6.5-1.8,8.7,0.9c2.2,2.6,2.1,6.2-0.5,8.8
		c-2.2,2.2-4.7,4.1-7.1,6.1c-11.9,10.2-23.9,20.5-35.8,30.7c-5.5,4.7-7.8,4.7-13-0.5c-3.4-3.4-6.7-6.7-10.1-10.1
		c-3.2-3.3-3.4-6.8-0.7-9.6c2.6-2.7,6.5-2.5,9.6,0.5C65.3,216.3,67.6,219.1,70.3,222z"/>
	<path d="M192.1,281.6c9.7,0,19.5,0,29.2,0c1.5,0,3,0,4.5,0.4c3,0.8,4.5,3.1,4.5,6.1c-0.1,2.9-1.6,5-4.4,5.8c-1.4,0.4-3,0.4-4.4,0.4
		c-19.6,0-39.2,0-58.8,0c-0.9,0-1.8,0-2.6-0.1c-4-0.4-6.4-2.9-6.3-6.5c0.1-3.5,2.4-5.9,6.2-6.2c2-0.2,4-0.1,6-0.1
		C174.6,281.6,183.4,281.6,192.1,281.6z"/>
	<path d="M192.2,128.1c10.1,0,20.2,0,30.4,0c4.9,0,7.7,2.3,7.8,6.2c0.1,4-2.9,6.6-7.9,6.6c-20.4,0-40.7,0-61.1,0
		c-4.8,0-7.6-2.4-7.7-6.3c-0.1-4.1,2.7-6.5,7.8-6.5C171.7,128,182,128.1,192.2,128.1z"/>
	<path d="M192.1,192c10.1,0,20.2,0,30.4,0c4.9,0,7.9,2.6,7.8,6.5c-0.1,3.9-3,6.2-7.8,6.2c-20.4,0-40.7,0-61.1,0
		c-5.1,0-7.9-2.4-7.8-6.5c0.1-4,2.8-6.2,7.7-6.2C171.6,192,181.9,192,192.1,192z"/>
	<path d="M191.8,230.3c-10.1,0-20.2,0-30.4,0c-5.1,0-7.9-2.4-7.8-6.5c0.1-3.9,2.8-6.3,7.7-6.3c20.4,0,40.7,0,61.1,0
		c4.9,0,7.9,2.6,7.9,6.6c-0.1,3.9-2.9,6.2-7.8,6.2C212.3,230.4,202.1,230.3,191.8,230.3z"/>
	<path d="M191.7,307.3c10.2,0,20.5,0,30.7,0c5.1,0,8,2.5,7.9,6.5c-0.1,3.8-3,6.3-7.8,6.3c-20.5,0-41,0-61.5,0
		c-3.4,0-6.2-1.2-7.2-4.7c-0.8-2.9,0-5.6,2.8-7.1c1.5-0.8,3.3-1,5-1C171.7,307.2,181.7,307.3,191.7,307.3z"/>
	<path d="M191.7,102.4c10.2,0,20.5-0.1,30.7,0.1c2.2,0.1,4.8,0.9,6.3,2.4c3.2,3.1,1.5,8.6-2.9,9.9c-1.3,0.4-2.7,0.5-4.1,0.5
		c-19.9,0-39.7,0-59.6,0c-0.9,0-1.8,0-2.6-0.1c-3.8-0.5-6-3-5.9-6.5c0.1-3.5,2.4-6,6.2-6.2c4.5-0.2,9-0.1,13.5-0.1
		C179.5,102.4,185.6,102.4,191.7,102.4z"/>
	<path d="M175.9,153.7c5.1,0,10.2-0.1,15.3,0c4.4,0.1,6.9,2.3,7,6.1c0.1,3.9-2.6,6.6-6.9,6.6c-10.2,0.1-20.4,0.1-30.6,0
		c-4.4,0-7.1-2.7-7-6.6c0.1-3.7,2.6-6.1,6.9-6.2C165.7,153.6,170.8,153.7,175.9,153.7z"/>
	<path d="M175.8,255.9c-5,0-10,0.1-15,0c-4.5-0.1-7.2-2.5-7.1-6.4c0-3.7,2.6-6.3,6.9-6.3c10.2-0.1,20.5-0.1,30.7,0
		c4.4,0,7.1,2.8,6.9,6.7c-0.1,3.7-2.7,6-7.1,6.1C186,256,180.9,255.9,175.8,255.9z"/>
	<path d="M175.9,332.9c5.1,0,10.2-0.1,15.3,0c4.4,0.1,6.9,2.3,7,6.1c0.1,3.9-2.5,6.6-6.9,6.6c-10.2,0.1-20.4,0.1-30.6,0
		c-4.4,0-7.1-2.7-7-6.6c0.1-3.7,2.6-6.1,6.9-6.2C165.7,332.8,170.8,332.9,175.9,332.9z"/>
	<path d="M134.5,44.9c-4,0-8,0.1-12,0c-4.5-0.1-7.3-2.6-7.3-6.4c0-3.8,2.7-6.3,7.2-6.4c8-0.1,16-0.1,24,0c4.3,0,7,2.4,7.1,6.1
		c0.1,3.8-2.6,6.5-7,6.7C142.5,45,138.5,44.9,134.5,44.9z"/>
</g>
</svg>
