<?xml version="1.0" encoding="utf-8"?>
<!-- Generator: Adobe Illustrator 22.1.0, SVG Export Plug-In . SVG Version: 6.00 Build 0)  -->
<svg version="1.1" id="Слой_1" xmlns="http://www.w3.org/2000/svg" xmlns:xlink="http://www.w3.org/1999/xlink" x="0px" y="0px"
	 viewBox="0 0 409.6 409.7" style="enable-background:new 0 0 409.6 409.7;" xml:space="preserve">
<g>
	<path d="M409.6,192.8c0,8,0,16,0,24c-0.2,1.4-0.5,2.8-0.7,4.2c-1.3,8.8-2,17.8-3.9,26.4c-10.7,49.2-36,89.5-76,119.8
		c-49.8,37.8-106,50.3-167.2,37.5c-49-10.2-88.8-35.9-119.3-75.5c-32.9-42.8-46.6-91.5-41.4-145c4.2-43.4,21-81.8,50-114.5
		c31.7-35.9,71.2-58.2,118.5-66.6C177.2,1.8,185,1,192.8,0c8,0,16,0,24,0c1,0.2,2,0.6,3.1,0.7c32,2.3,62,11.4,89.4,28.2
		c53.1,32.5,85.7,79.4,97.2,140.7C407.8,177.2,408.5,185.1,409.6,192.8z M204.9,31.8C109.6,31.6,32.1,109,31.8,204.6
		c-0.3,95.2,77.1,172.8,172.7,173.2c95.2,0.4,173.3-77.4,173.3-173C377.8,109.4,300.4,32,204.9,31.8z"/>
	<path d="M188.8,158c0-15.3-0.1-30.7,0-46c0.1-12.2,10.6-19.9,21.4-16c6.7,2.4,10.4,8.4,10.4,16.8c0,26.8,0.1,53.6-0.1,80.4
		c0,3.5,0.9,5.7,3.9,7.9c17.6,13,35.1,26.1,52.5,39.3c7.9,6,9.4,15.6,3.8,22.9c-5.5,7.1-15,8.3-22.8,2.5
		c-14.7-10.9-29.2-21.9-43.8-32.8c-5.8-4.3-11.4-8.8-17.3-12.9c-5.6-4-8.1-9.2-8.1-16C188.9,188.7,188.8,173.3,188.8,158z"/>
</g>
</svg>
