<?xml version="1.0" encoding="utf-8"?>
<!-- Generator: Adobe Illustrator 22.1.0, SVG Export Plug-In . SVG Version: 6.00 Build 0)  -->
<svg version="1.1" id="Слой_1" xmlns="http://www.w3.org/2000/svg" xmlns:xlink="http://www.w3.org/1999/xlink" x="0px" y="0px" viewBox="0 0 409.7 409.5" style="enable-background:new 0 0 409.7 409.5;" xml:space="preserve">
	<style xmlns="http://www.w3.org/2000/svg" type="text/css">
		path {
			fill: #e55021;
		}
	</style>
	<g>
		<path d="M409.7,216.8c-1,7.7-1.8,15.5-3.1,23.2c-8.3,47.4-30.8,87-66.8,118.8c-30.6,27-66.2,43.6-106.7,48.7
		c-63.5,8.1-119.6-9.2-167-52.3c-33.2-30.3-53.9-67.9-62.4-112.1C-16.9,136.8,50.8,31.2,155.9,6c11-2.6,22.3-3.6,33.5-5.3
		c1.2-0.2,2.3-0.5,3.5-0.7c8,0,16,0,24,0c5.4,0.6,10.8,1.2,16.2,2c40.4,5.7,76.1,21.8,106.6,48.8c36,31.8,58.5,71.3,66.8,118.8
		c1.3,7.7,2.1,15.5,3.1,23.2C409.7,200.8,409.7,208.8,409.7,216.8z M205,397.6c106.5-0.1,192.8-86.4,192.7-192.9
		C397.6,98.2,311.3,11.9,204.8,12C98.3,12.1,12,98.4,12.1,204.9C12.2,311.4,98.5,397.7,205,397.6z" />
		<path d="M200.5,371c-27.4-0.8-53.2-7.7-76.9-21.4c-8.8-5.1-17-11.4-25.3-17.4c-3.5-2.5-4-6.3-1.8-9c2.3-2.8,5.5-2.9,9.2-0.3
		c10.2,6.7,20,14.3,30.8,19.9c30.4,15.6,62.7,19.9,96.3,13.7c41.9-7.8,75-29.6,99.3-64.3c15.7-22.5,24.4-47.7,26.5-75.2
		c2.8-36.3-6.4-69.4-26.6-99.5c-2.7-4.1-6-7.8-8.9-11.8c-2.8-3.8-2.6-7.2,0.5-9.5c2.8-2,6.2-1.2,9,2.2c20,24.1,32.7,51.5,36.8,82.5
		c6.8,51.2-6.7,96.6-41.2,135.4c-23.1,26-51.9,42.6-85.7,50.6C228.7,370,214.7,371.4,200.5,371z" />
		<path d="M199.7,38.4c46,1,81.1,13.7,111.7,38.8c3.4,2.8,4.2,6.2,2.1,9c-2.2,3.1-5.8,3.4-9.5,0.4c-13.2-10.8-27.6-19.5-43.5-25.6
		c-27-10.3-54.8-13.2-83.2-7.9c-42,7.8-75.2,29.6-99.6,64.5c-15.7,22.5-24.4,47.7-26.5,75.2c-2.7,36.3,6.4,69.4,26.7,99.5
		c2.7,4,5.8,7.6,8.7,11.5c2.9,3.9,2.8,7.2-0.1,9.5c-2.8,2.2-6.4,1.4-9.3-2.2c-19.8-24-32.4-51.3-36.7-82.1
		c-6.2-44.9,3.7-86.1,30.6-122.7c24.2-33,56.6-54.1,96.4-63.4C180.1,40,193.2,39.3,199.7,38.4z" />
		<path d="M186.2,204.7c0.1-0.9-0.1-2.1,0.3-3c2.5-4.9-0.6-7.6-3.7-10.6c-19-18.9-37.9-37.9-56.9-56.8c-1-1-2.1-2.1-2.9-3.3
		c-1.7-2.6-1.4-5.2,0.7-7.3c2.1-2.1,4.7-2.4,7.3-0.8c1.2,0.8,2.3,1.9,3.3,2.9c19.9,19.9,39.8,39.8,59.6,59.7c1.7,1.7,3,2.3,5.5,1.5
		c7.4-2.5,15.6,0.2,20.2,6.6c1.5,2,2.9,2.5,5.3,2.1c19.7-3.2,39.5-6.2,59.2-9.2c6.1-0.9,9.2,0.6,9.9,4.6c0.6,4.1-2.1,6.4-8.4,7.4
		c-19.6,3-39.2,6-58.8,9c-2.4,0.4-3.5,1.3-4.3,3.7c-3.1,9-11.9,13.8-21.3,12.1C192.7,221.7,186.2,213.7,186.2,204.7z M204.9,198.1
		c-3.7,0-6.6,2.8-6.7,6.4c-0.1,3.8,2.8,6.9,6.6,6.9c3.7,0,6.6-2.8,6.7-6.4C211.7,201.2,208.7,198.1,204.9,198.1z" />
		<path d="M198.9,82.7c0-4-0.1-8,0-12c0.2-4.1,2.7-6.6,6.1-6.5c3.3,0.1,5.7,2.5,5.8,6.4c0.2,8.3,0.2,16.5,0,24.8
		c-0.1,4-2.4,6.2-5.8,6.3c-3.5,0-5.8-2.3-6-6.5C198.8,91,198.9,86.8,198.9,82.7z" />
		<path d="M82.8,210.8c-4,0-8,0.1-12,0c-4.1-0.2-6.6-2.7-6.5-6.1c0.1-3.3,2.5-5.7,6.4-5.8c8.3-0.2,16.5-0.2,24.8,0
		c4,0.1,6.2,2.4,6.2,5.9c0,3.4-2.2,5.8-6.2,5.9C91.3,210.9,87.1,210.7,82.8,210.8C82.8,210.8,82.8,210.8,82.8,210.8z" />
		<path d="M326.9,198.8c3.9,0,7.7-0.1,11.6,0c4.4,0.1,7.1,2.6,7,6c-0.1,3.4-2.6,5.8-6.8,5.9c-8,0.1-16,0.1-24,0
		c-4.3-0.1-6.6-2.3-6.7-5.8c-0.1-3.7,2.4-5.8,6.9-6.1c0.3,0,0.5,0,0.8,0C319.5,198.8,323.2,198.8,326.9,198.8z" />
		<path d="M210.9,326.8c0,4,0.1,8,0,12c-0.2,4.1-2.6,6.7-6,6.6c-3.4,0-5.8-2.6-5.9-6.7c-0.1-8.1-0.1-16.3,0-24.4
		c0.1-4,2.4-6.3,5.8-6.4c3.5-0.1,5.9,2.2,6.1,6.4C211,318.5,210.9,322.7,210.9,326.8z" />
		<path d="M139.2,82.4c0.8,0.7,2.7,1.8,3.8,3.4c2.2,3.2,4,6.6,5.8,10c1.9,3.6,1,7-2,8.7c-2.7,1.5-6.3,0.5-8.3-2.6
		c-2.2-3.5-4.3-7-6.1-10.7C130.2,86.6,133.2,82,139.2,82.4z" />
		<path d="M266.5,105.2c-5-0.1-7.8-4.4-5.9-8.4c2-4.2,4.4-8.2,7-12.1c1.8-2.7,4.6-3.2,7.4-1.7c2.9,1.5,4.1,4.2,2.7,7.1
		c-2.2,4.5-4.8,8.9-7.5,13.1C269.3,104.4,267.2,104.8,266.5,105.2z" />
		<path d="M150.3,309.4c-0.6,2-0.7,3.1-1.2,4c-2.1,3.7-4.1,7.5-6.4,11c-1.8,2.9-5.4,3.8-8,2.1c-2.9-1.8-3.9-4.6-2.4-7.6
		c2-4.2,4.2-8.4,7.1-12c1.2-1.5,4.5-2.4,6.5-1.9C147.7,305.4,149,308,150.3,309.4z" />
		<path d="M279.3,321.2c-2,2.3-3.1,5-4.9,5.5c-2,0.5-5.5-0.2-6.6-1.7c-3-3.7-5.4-8-7.2-12.4c-0.7-1.8,0.2-5.2,1.6-6.6
		c1.3-1.2,5.5-1.6,6.3-0.6C272.5,310.2,275.6,315.5,279.3,321.2z" />
		<path d="M105.2,142.9c0,5.3-4.4,8.2-8.5,6.2c-4-2-7.9-4.3-11.7-6.8c-2.8-1.9-3.4-4.7-1.8-7.7c1.6-2.8,4.3-3.9,7.1-2.5
		c4.4,2.2,8.6,4.7,12.7,7.4C104.3,140.3,104.8,142.2,105.2,142.9z" />
		<path d="M321.2,130.4c2.3,1.8,4.7,2.9,5.4,4.6c0.7,1.7,0.4,5.2-0.7,6.1c-4.3,3.2-9.1,6.1-14,8.2c-1.5,0.7-4.9-0.7-6.1-2.2
		c-1.1-1.3-1.3-5.3-0.3-6.1C310.3,137.2,315.7,134.1,321.2,130.4z" />
		<path d="M105.2,266.8c-0.4,0.7-1,2.6-2.3,3.4c-4,2.7-8.1,5.2-12.4,7.2c-2.8,1.3-5.6,0.5-7.3-2.3c-1.7-2.9-1.3-5.9,1.5-7.8
		c3.9-2.6,7.9-5,12.1-7C101.1,258.5,105.3,261.4,105.2,266.8z" />
		<path d="M309.5,259.4c2,0.6,3.1,0.8,4,1.3c3.7,2.1,7.5,4.1,11,6.4c3,2,3.7,5.2,2.1,8c-1.5,2.7-4.9,3.8-8,2.2
		c-3.9-2-7.7-4.3-11.4-6.6c-2.6-1.6-3.6-4.3-2.2-6.9C306,261.9,308.2,260.7,309.5,259.4z" />
	</g>
</svg>