<?xml version="1.0" encoding="utf-8"?>
<!-- Generator: Adobe Illustrator 22.1.0, SVG Export Plug-In . SVG Version: 6.00 Build 0)  -->
<svg version="1.1" id="Слой_1" xmlns="http://www.w3.org/2000/svg" xmlns:xlink="http://www.w3.org/1999/xlink" x="0px" y="0px"
	 viewBox="0 0 385 384.5" style="enable-background:new 0 0 385 384.5;" xml:space="preserve">
<g>
	<g>
		<path d="M385,204.5c-1,7-1.7,14.1-2.9,21.1c-10.1,54.4-38.3,97-84.2,127.6c-33.2,22.1-70.1,32.4-109.9,31.1
			c-55.4-1.8-101.8-23.7-138.8-64.9c-25.8-28.8-41.6-62.6-46.2-101C-5.2,151.1,16,94,66.3,48.4C95,22.5,129.1,7.6,167.3,2.2
			c4.6-0.6,9.1-1.1,13.7-1.7c8,0,16,0,24,0c1,0.2,1.9,0.5,2.9,0.6c32.5,2.5,62.6,12.4,89.7,30.5c46,30.7,74.4,73.3,84.4,127.8
			c1.3,7,2,14.1,2.9,21.1C385,188.5,385,196.5,385,204.5z M20.3,192.4C20.2,287.9,97.5,365.2,193,365.2c95.3,0,172.5-77,172.8-172.5
			C366,97.4,288.8,20,193.2,19.8C97.8,19.5,20.3,96.9,20.3,192.4z"/>
		<path d="M192.5,179.5c7.3-7.3,13.8-13.8,20.2-20.2c6.8-6.8,13.6-13.7,20.4-20.4c4.4-4.3,10.1-4.5,14-0.7c4.1,3.9,4,9.8-0.5,14.3
			c-12.2,12.3-24.5,24.6-36.8,36.8c-1,1-2.2,1.6-3.7,2.6c1.6,1.7,2.5,2.7,3.5,3.6c12.1,12.1,24.3,24.1,36.2,36.4c2,2,3.5,4.9,4,7.7
			c0.8,3.9-1.4,7-4.9,8.9c-3.4,1.8-6.8,1.6-9.9-0.6c-1.2-0.8-2.3-1.9-3.3-3c-11.8-11.8-23.7-23.7-35.5-35.5c-1-1-1.6-2.2-2.6-3.7
			c-1.7,1.6-2.7,2.5-3.6,3.5c-12.1,12.1-24.2,24.2-36.4,36.3c-1.7,1.7-3.9,3.2-6.2,3.9c-3.6,1.2-7.6-0.7-9.8-3.8
			c-2.2-3.1-2.3-7.4-0.1-10.6c0.9-1.3,2.1-2.5,3.2-3.6c11.8-11.9,23.7-23.7,35.5-35.5c1-1,2.2-1.6,3.7-2.6c-1.6-1.7-2.5-2.7-3.4-3.6
			c-12.1-12.1-24.3-24.2-36.2-36.4c-1.8-1.8-3.4-4.2-4-6.5c-1-4,0.7-7.4,4.2-9.7c3.2-2.1,7.4-2.1,10.6,0.2c1.2,0.9,2.3,1.9,3.3,3
			c11.8,11.8,23.7,23.7,35.5,35.5C190.7,176.7,191.4,177.9,192.5,179.5z"/>
	</g>
</g>
</svg>
