<?xml version="1.0" encoding="utf-8"?>
<!-- Generator: Adobe Illustrator 22.1.0, SVG Export Plug-In . SVG Version: 6.00 Build 0)  -->
<svg version="1.1" id="Слой_1" xmlns="http://www.w3.org/2000/svg" xmlns:xlink="http://www.w3.org/1999/xlink" x="0px" y="0px"
	 viewBox="0 0 384 384.5" style="enable-background:new 0 0 384 384.5;" xml:space="preserve">
<g>
	<g>
		<path d="M247,0.5c2.5,0.7,5.1,1.3,7.5,2.2c15,5.1,25.5,19.6,25.6,35.3c0.1,8.8-6.3,15.9-14.7,16.5c-8.6,0.6-15.8-5.7-16.8-14.7
			c-0.1-0.7,0-1.5-0.2-2.2c-0.7-3.2-2.8-5-5.9-5.4c-3.1-0.3-5.4,1.2-6.5,4c-1.2,2.9-0.5,5.7,2,7.7c0.7,0.5,1.5,0.9,2.2,1.3
			c11.3,6.1,17.3,15.7,17.4,28.5c0,5,1.5,8.1,5.9,10.6c3.3,1.8,5.9,5,9.1,7.2c2,1.4,4.6,2.5,7,2.6c9.4,0.3,18.7,0,28.1,0.2
			c18.3,0.3,31.7,8.8,38.9,25.5c11.8,27.4,23,55,34.3,82.6c1.9,4.6,0.8,7.1-4,9.1c-12,5-23.9,10-36,14.9c-2.3,0.9-3.2,2.1-3.1,4.7
			c0.2,9.4,0.1,18.7,0,28.1c0,3.5-2.4,5.9-5.5,5.8c-2.9,0-5.2-2.2-5.6-5.5c-0.1-1-0.1-2-0.1-3c0-6.2,0-12.5,0-18.7
			c0-28.2,0-56.5,0-84.7c0-0.9,0-1.8,0-2.6c0.1-4.6,2.3-7.3,5.8-7.2c3.4,0.1,5.4,2.7,5.4,7.1c0,16.9,0,33.7,0,50.6
			c0,4.6,0,9.2,0,14.6c10.5-4.3,20.5-8.5,30.8-12.7c-0.4-1.3-0.8-2.5-1.2-3.6c-10.1-24.4-20.3-48.9-30.4-73.3
			c-5.7-13.7-15.7-20.5-30.5-20.5c-4.7,0-9.5,0-14.4,0c-1.6,10.9-5.7,20.4-13,28.3c-10.3,11.1-23.2,16.6-38.4,16.6
			c-1.1,0-2.3-0.1-3.4-0.2c-4.1-0.5-6.4-2.9-6.1-6.2c0.3-3.4,3-4.9,7.1-5c4.6-0.1,9.3-0.3,13.7-1.3c7.7-1.7,15.1-6.7,19.1-12.4
			c-9.1-1.4-16.1-6.5-22.6-12.4c-2.6-2.4-11.6-2-14.3,0.5c-6.2,5.8-13.1,10.4-21.7,11.8c-0.4,0.4-0.7,0.9-1.1,1.3
			c1.6,1.1,3.5,2,4.9,3.3c2.8,2.6,3.1,5.9,0.9,8.3c-2.2,2.4-5.4,2.6-8.3,0c-9-7.8-14.6-17.6-16.8-29.3c-0.2-1-0.4-1.9-0.8-4
			c-8.1,0.7-16.4,0.6-24.3,2.2c-8.5,1.7-14.9,7.4-18.3,15.4c-11.3,26.5-22.2,53.2-33.5,80.2c10.3,4.2,20.3,8.4,31,12.8
			c0-2,0-3.3,0-4.6c0-19.7,0-39.5,0-59.2c0-1.1-0.1-2.3,0.1-3.4c0.3-3.1,2.2-4.8,5.1-5c3-0.2,5.1,1.4,5.8,4.3
			c0.4,1.5,0.3,3.2,0.3,4.8c0,71.9,0,143.7,0,215.6c0,1.6,0,3.2,0,5c56.4,0,112.4,0,169.1,0c0-1.4,0-2.9,0-4.3c0-26.6,0-53.2,0-79.9
			c0-1.6,0-3.3,0.4-4.8c0.8-2.8,2.8-4.1,5.7-3.9c2.9,0.2,4.6,1.8,5,4.7c0.2,1.1,0.1,2.2,0.1,3.4c0,29.4,0,58.7,0,88.1
			c0,6.6-1.6,8.2-8.1,8.2c-91.2,0-182.5,0-273.7,0c-6.5,0-8.1-1.6-8.1-8.3c0-48-0.1-96,0.1-144c0-3.6-1.2-5.2-4.4-6.5
			c-11.6-4.6-23.1-9.5-34.6-14.3c-5-2.1-6-4.4-4-9.4c1.9-4.6,3.8-9.2,5.7-13.8c1.7-4.1,4.6-5.7,7.8-4.4c3.4,1.4,4.3,4.5,2.6,8.8
			c-1.3,3.2-2.6,6.4-4.1,9.9c10.2,4.2,20.2,8.4,30.7,12.7c0.1-1.8,0.2-3.1,0.2-4.5c0-19.6,0-39.2,0-58.9c0-1.4,0-2.8,0.1-4.1
			c0.4-2.9,2.3-4.5,5-4.7c2.8-0.2,4.9,1.1,5.6,3.9c0.4,1.7,0.4,3.5,0.4,5.2c0,71.9,0,143.7,0,215.6c0,1.6,0,3.2,0,5
			c29.1,0,57.9,0,87.1,0c0-1.5,0-2.8,0-4.1c0-45.7,0-91.5,0.1-137.2c0-2.9-0.8-4.4-3.6-5.5c-11.9-4.8-23.8-9.8-35.6-14.7
			c-4.8-2-5.8-4.3-3.8-9.1c6.9-16.8,13.9-33.7,20.9-50.5c0.6-1.4,1.1-2.7,1.8-4.4c-18.6-7.9-29.6-21.6-32.9-42.3
			c-7.8,0.5-15.8,0.1-23.3,1.6c-10.1,2-16.7,9-20.7,18.4c-5.3,12.8-10.6,25.6-15.9,38.4c-0.3,0.8-0.6,1.6-1,2.4
			c-1.6,3.1-4.6,4.3-7.5,3c-2.7-1.2-4-4.2-2.8-7.2c2.1-5.4,4.3-10.6,6.5-15.9c3.5-8.5,6.9-17.1,10.6-25.6
			c7.5-16.8,20.6-25.5,39-25.9c9.2-0.2,18.5,0.1,27.7-0.2c2.4-0.1,5-1.3,7-2.6c4.1-2.8,7.9-6,11.9-9c4.2-3.1,4-8.2-0.4-10.7
			c-13.9-8-21-23-18.5-39.5c2.2-14.9,14.3-27.6,29.5-30.9c0.9-0.2,1.9-0.6,2.8-0.9c3.5,0,7,0,10.5,0c0.9,0.3,1.9,0.6,2.8,0.8
			C169,5,182,21,181.8,38.5c-0.1,7.1-4.6,13.2-11.1,15.3c-10,3.1-19.4-3.7-20.4-14.8c-0.4-3.8-2.5-6.3-5.8-6.8c-3-0.4-6,1.5-7,4.5
			c-1.2,3.2,0,6.3,3.5,8.1c12.8,6.6,18.6,17.1,18.6,31.3c0,2.1,1.4,4.8,3,6.3c3.7,3.5,7.9,6.5,12.1,9.4c1.8,1.3,4.2,2.2,6.4,2.4
			c5.2,0.3,10.5-0.3,15.7,0.2c8,0.7,14.7-0.9,20.1-7.2c1.7-2,4.5-3.1,6.7-4.8c4-3,3.8-8.1-0.4-10.5c-13.7-7.8-20.7-22.3-18.8-38.7
			c1.7-14.3,12.9-27.1,27.3-31.2c1.7-0.5,3.3-1,4.9-1.5C240,0.5,243.5,0.5,247,0.5z M280.5,105.4c-7.8,1.1-13.4-3.3-18.7-8.2
			c-1.9-1.8-4-3.3-6.3-4.7c-6-3.6-9.2-8.9-9-15.8c0.3-10.5-4-17.8-13.4-22.6c-7.7-3.9-10.8-12.9-8.1-20.9c2.7-8,10.8-13.3,18.9-12.3
			c8.7,1.1,15,7.7,15.8,16.4c0.4,4,2,6,4.8,5.9c2.9-0.2,4.4-2.6,4.2-6.7c-1-18.4-21.5-30.3-38.4-22c-9.8,4.8-15.1,13-15.3,23.9
			c-0.2,10.7,4.8,19,14.3,24.1c3.3,1.8,6.4,3.7,7.3,7.6c2.1,9.1,0.1,17.1-7.6,22.1c-2.1,1.3-4.2,2.7-6.1,4.4
			c-5.6,5.1-11.2,10.1-19.9,9c0.4,2.1,0.9,3.7,1.1,5.2c0.5,3.6,2.7,4.7,5.8,3.5c4.4-1.7,9.6-2.8,12.6-5.9c6.8-6.9,14.3-9.1,23.6-8.2
			c3.7,0.3,6.5,1.3,9.4,3.6c4.5,3.5,9,7.5,14.2,9.3c9.8,3.3,8.7,2.4,10.8-6.5C280.7,106.3,280.6,106,280.5,105.4z M162.2,96.3
			c-0.8-0.8-1.3-1.5-2.1-1.9c-9.4-4.6-12.6-12.2-12.3-22.4c0.2-6.1-3.1-11.2-8.1-14.9c-1.8-1.3-3.9-2.3-5.8-3.5
			c-6.8-4.3-9.8-12.7-7.4-20.3c2.3-7.4,9.5-12.7,17.2-12.6c8,0.1,15,5.5,17,13.3c0.4,1.7,0.1,3.7,0.9,5.1c0.9,1.6,2.8,3.7,4.2,3.7
			c1.5,0,3.3-2.1,4.4-3.6c0.6-0.8,0.2-2.4,0.1-3.7c-2.1-18.3-21.8-29.3-38.4-21.2c-9.7,4.7-15,12.8-15.3,23.6
			c-0.3,10.9,4.7,19.2,14.3,24.5c3.4,1.9,6.6,3.9,7.4,7.9c1.9,9-0.1,17-8,21.9c-2.1,1.3-4.2,2.7-6,4.4c-5.5,5.1-11.1,9.8-19.6,8.7
			c0.5,2.1,0.9,3.6,1.1,5.2c0.4,3.6,2.6,4.8,5.7,3.6c4.7-1.9,10.1-3.3,13.5-6.6c6.2-5.9,12.8-8.6,21.2-7.4c0.7,0.1,1.5-0.1,2.2,0
			C153.8,101.6,157.7,98.4,162.2,96.3z M141.7,111.1c-1.8,0.6-3.6,0.6-4.6,1.6c-6.6,6-13.6,11.1-23.3,12.7c5,5.5,10.2,9.2,16.6,11.4
			C134.1,128.2,137.7,120,141.7,111.1z"/>
		<path d="M290.1,169.3c7.4,0,14.7,0,22.1,0c5,0,7,2,7,7.1c0,8,0.1,16,0,24c-0.3,17.1-13,29.9-29.5,29.8
			c-16.5-0.1-29.1-13.1-29.2-30.2c0-7.9,0-15.7,0-23.6c0-5,2-7,7.1-7C275.1,169.3,282.6,169.3,290.1,169.3z M271.8,180.7
			c0,7.5-0.3,14.6,0.1,21.7c0.4,8.4,7.3,15.4,15.4,16.4c9,1.1,18-3.8,19.6-12.5c1.5-8.3,1-16.9,1.4-25.6
			C295.6,180.7,284,180.7,271.8,180.7z"/>
	</g>
</g>
</svg>
