<?xml version="1.0" encoding="utf-8"?>
<!-- Generator: Adobe Illustrator 22.1.0, SVG Export Plug-In . SVG Version: 6.00 Build 0)  -->
<svg version="1.1" id="Слой_1" xmlns="http://www.w3.org/2000/svg" xmlns:xlink="http://www.w3.org/1999/xlink" x="0px" y="0px"
	 viewBox="0 0 385 384.5" style="enable-background:new 0 0 385 384.5;" xml:space="preserve">
<g>
	<g>
		<path d="M385,69.5c0,82,0,164,0,246c-0.2,0.3-0.5,0.6-0.6,0.9c-2.8,20-21,38.6-47.4,38.2c-41.5-0.5-83-0.1-124.5-0.1
			c-1.4,0-2.9,0-4.5,0c0,5,0,9.5,0,14c-0.1,9.2-6.3,15.9-14.8,16c-8.7,0.1-15.1-6.6-15.2-16c0-4.6,0-9.2,0-14c-1.9,0-3.4,0-4.9,0
			c-41.7,0-83.5,0-125.2,0C20.5,354.5,1,335,1,307.8C1,231,1,154.1,1,77.2C1,50,20.5,30.5,47.8,30.5c41.9,0,83.7,0,125.6,0
			c1.4,0,2.9,0,4.6,0c0-4.2,0.2-8,0-11.7c-0.6-9.2,3.2-15.4,12-18.3c2,0,4,0,6,0c8.8,3,12.1,9.1,12.1,18.3
			c-0.1,100.2-0.1,200.5-0.1,300.7c0,1.6,0,3.1,0,4.9c1.7,0,3,0,4.2,0c41.9,0,83.7,0,125.6,0c11.2,0,17.2-5.9,17.2-17
			c0-76.6,0-153.2,0-229.9c0-11.2-5.9-17.1-17.1-17.1c-28.1,0-56.2,0-84.4,0c-8.9,0-15.5-6.5-15.5-14.9c0-8.5,6.6-15,15.4-15
			c29.1-0.1,58.3-0.2,87.4,0.1c14.3,0.1,25.9,6.4,34.9,17.6C380.7,54.4,383,61.9,385,69.5z M177.8,60.5c-1.4,0-2.6,0-3.8,0
			c-42.1,0-84.2,0-126.4,0C37,60.5,31,66.6,31,77.3c0,76.7,0,153.5,0,230.2c0,10.9,6,16.9,16.9,16.9c42,0,84,0,126,0
			c1.3,0,2.6,0,3.9,0C177.8,236.3,177.8,148.6,177.8,60.5z"/>
		<path d="M279.5,153.9c-6.3,6.4-12.5,12.9-19,19.2c-4.8,4.7-11.2,5.6-17,2.9c-5.6-2.6-9.4-8.5-8.3-14.6c0.7-3.6,2.5-7.4,5-10.1
			c5.7-6.4,12.1-12.2,18.5-18.6c-0.9-1-1.5-1.8-2.3-2.6c-5.5-5.5-11-10.9-16.4-16.5c-6.5-6.6-6.7-15.7-0.6-21.8
			c6-6.1,15.2-5.9,21.8,0.5c6.2,6.1,12.4,12.3,18.9,18.9c5-5,9.8-9.9,14.6-14.7c1.7-1.7,3.3-3.4,5.1-5c6.1-5.5,14.9-5.5,20.7,0.1
			c5.9,5.7,6.3,14.8,0.5,20.9c-5.8,6.2-12,12.1-17.9,18.1c-0.4,0.4-0.9,0.9-1.5,1.6c0.7,0.8,1.4,1.7,2.1,2.4
			c5.4,5.4,10.8,10.8,16.2,16.2c6.7,6.8,7,15.9,0.9,22c-6.1,6.2-15.3,5.9-22-0.8c-6-5.9-11.9-11.8-17.8-17.7
			C280.6,154.4,280.4,154.3,279.5,153.9z"/>
		<path d="M259,252.6c-6.7-6.7-13.1-12.9-19.3-19.2c-5.2-5.3-6.2-12.2-2.8-18.2c4.9-8.7,16.2-10.4,23.7-3.3
			c5.6,5.3,11,10.9,16.5,16.4c0.9,0.9,1.8,1.7,3,2.9c6.3-6.3,12.4-12.4,18.5-18.6c4-4,8.7-6,14.3-4.8c11.8,2.5,16,16.2,7.8,25.2
			c-5.1,5.5-10.5,10.7-15.9,16c-1.1,1.1-2.2,2-3.6,3.2c1,1.1,1.6,2,2.4,2.7c5.6,5.6,11.2,11.1,16.7,16.7c6.2,6.4,6.3,15.5,0.3,21.5
			c-6,6-15.1,5.9-21.5-0.3c-6.3-6.2-12.5-12.5-19.1-19.1c-6.4,6.4-12.5,12.6-18.7,18.8c-4,4-8.7,5.9-14.3,4.8
			c-5.7-1.2-9.6-4.7-11.3-10.3c-1.8-5.6-0.4-10.7,3.6-14.9C245.6,265.6,252.1,259.4,259,252.6z"/>
		<path d="M85,132.5c-6.7-6.7-13.1-12.8-19.3-19.2c-5.2-5.3-6.1-12.2-2.8-18.2c4.9-8.7,16.2-10.3,23.7-3.2
			c5.6,5.3,11,10.9,16.5,16.4c0.9,0.9,1.8,1.7,3,2.8c6.3-6.3,12.4-12.4,18.6-18.6c4-4,8.7-5.9,14.3-4.8c11.7,2.5,16,16.3,7.7,25.2
			c-5.2,5.6-10.7,10.8-16.1,16.2c-1,1-2.1,1.7-3.5,2.8c1.2,1.4,2,2.3,2.9,3.1c5.6,5.6,11.2,11.1,16.7,16.8c6,6.3,5.9,15.4,0,21.2
			c-5.9,5.9-15,5.9-21.2-0.1c-6.4-6.2-12.7-12.7-19.3-19.4c-6.5,6.5-12.6,12.7-18.7,18.9c-4,4-8.7,5.9-14.3,4.7
			c-5.7-1.2-9.6-4.7-11.3-10.3c-1.8-5.6-0.4-10.7,3.6-14.9C71.6,145.6,78.1,139.3,85,132.5z"/>
		<path d="M93.6,254c9.5-12.7,18.7-24.9,27.9-37.2c0.7-1,1.5-2,2.3-3c5.5-7,14.4-8.4,21.2-3.3c6.8,5,8.1,14.1,2.8,21.3
			c-7.9,10.8-16,21.4-24,32.1c-6.7,8.9-13.3,17.8-20,26.6c-7.9,10.3-20.8,9.1-26.7-2.5c-4.7-9.2-9.3-18.5-13.9-27.8
			c-4.2-8.5-1.6-17.3,6.1-21.2c7.7-3.9,16.3-0.7,20.7,7.7C91,249,92.2,251.2,93.6,254z"/>
	</g>
</g>
</svg>
