<?xml version="1.0" encoding="utf-8"?>
<!-- Generator: Adobe Illustrator 22.1.0, SVG Export Plug-In . SVG Version: 6.00 Build 0)  -->
<svg version="1.1" id="Слой_1" xmlns="http://www.w3.org/2000/svg" xmlns:xlink="http://www.w3.org/1999/xlink" x="0px" y="0px"
	 viewBox="0 0 409.6 409.6" style="enable-background:new 0 0 409.6 409.6;" xml:space="preserve">
<g>
	<path d="M409.6,264.8c-1.9,7.4-3.2,15.1-5.7,22.3c-11.3,32.4-43.2,55.7-77.4,57.9c-44.6,2.9-84.1-27.7-93-70.1
		c-1.2-5.8-2-11.9-2-17.8c0-3.2,1.5-6.8,3.2-9.6c18.9-31.7,37.9-63.3,56.9-95c0.8-1.4,1.6-2.7,3-5.2c-62.8,17.5-124.7,34.6-187,51.9
		c1,1.7,1.7,2.9,2.4,4.1c21.4,35.8,42.8,71.5,64.4,107.2c3,4.9,4.1,9.8,3.6,15.5c-3.2,34.8-20.5,60-51.8,75.2
		c-36.1,17.6-82.5,6.2-107-25.7c-11.6-15.1-18-32.1-19.1-51.2c-0.3-4.7,0.8-8.8,3.2-12.9c19-31.6,38-63.3,57-94.9
		c0.8-1.4,1.6-2.7,2.9-4.9c-2.3,0.6-3.9,0.9-5.5,1.4c-13.6,3.8-27.2,7.6-40.8,11.4c-5.5,1.5-10.4,0.9-14.1-3.7
		c-3-3.7-3.7-7.9-1.7-12.4c1.8-4,5.1-5.9,9.2-7c35.3-9.8,70.5-19.6,105.8-29.4c24.4-6.8,48.7-13.6,73.1-20.2c2.9-0.8,3.7-2,3.7-4.9
		c-0.1-43.6,0.1-87.2-0.2-130.8c0-7.4,2-12.9,8.9-16.1c2.1,0,4.3,0,6.4,0c6.9,3.2,9,8.7,8.9,16.1c-0.2,40.9-0.1,81.8-0.1,122.8
		c0,1.6,0,3.2,0,5c1.5-0.3,2.6-0.5,3.8-0.8c56.8-15.8,113.6-31.6,170.4-47.3c9.9-2.8,13.6-1.3,18.7,7.5c0,1.9,0,3.7,0,5.6
		c-2,5.7-6.2,8.5-11.9,9.9c-9.3,2.3-18.5,5.1-27.7,7.6c-10.2,2.8-20.4,5.7-30.9,8.6c0.8,1.5,1.4,2.7,2.1,3.8
		c7,11.6,14,23.3,20.9,34.9c15.9,26.6,31.7,53.3,47.5,79.9C409.6,257.3,409.6,261.1,409.6,264.8z M89.1,215.3
		c-18.7,31.2-37.1,61.9-55.8,92.9c37.4,0,74.2,0,111.5,0C126.3,277.2,107.9,246.6,89.1,215.3z M264.8,243.8c37.3,0,74.1,0,111.4,0
		c-18.7-31.1-37.1-61.8-55.7-92.8C301.8,182.1,283.4,212.8,264.8,243.8z M383.9,268.4c-42.3,0-84.6,0-126.8,0
		c1.6,27.5,33.5,53.6,64.1,52.9C352.3,320.6,383.7,294.3,383.9,268.4z M25.8,332.8c0.7,26.1,31.8,52.4,62.4,52.8
		c37.9,0.4,61.6-29.5,64.5-52.8C110.3,332.8,68,332.8,25.8,332.8z"/>
</g>
</svg>
