<?xml version="1.0" encoding="utf-8"?>
<!-- Generator: Adobe Illustrator 22.1.0, SVG Export Plug-In . SVG Version: 6.00 Build 0)  -->
<svg version="1.1" id="Слой_1" xmlns="http://www.w3.org/2000/svg" xmlns:xlink="http://www.w3.org/1999/xlink" x="0px" y="0px"
	 viewBox="0 0 384 346.1" style="enable-background:new 0 0 384 346.1;" xml:space="preserve">
<g>
	<path d="M384,270.6c-0.2,0.4-0.5,0.9-0.6,1.3c-3.5,12.1-12.1,18.8-24.7,18.8c-36.4,0-72.7,0-109.1,0c-1.5,0-3,0-5.1,0
		c0,3.7,0.3,7.3-0.1,10.9c-0.8,9,1.4,17.1,5.1,25.3c2.6,5.9,5.4,9.4,12.2,7.9c0.9-0.2,2,0,3,0.2c2.8,0.6,4.8,2.6,4.3,5.2
		c-0.3,2-2.1,4-3.7,5.3c-0.9,0.8-2.9,0.6-4.4,0.6c-45.4,0-90.7,0-136.1,0c-1,0-2,0-3-0.1c-3.2-0.5-5.4-2.8-5.3-5.7
		c0.1-2.9,2.3-5.1,5.6-5.4c1.2-0.1,2.5-0.1,3.7-0.1c36.6,0,73.2,0,109.9,0c1.5,0,3,0,5.2,0c-1.9-4.4-3.5-8.4-5.5-12.2
		c-0.4-0.8-2.4-0.9-3.6-0.9c-15.2-0.1-30.5-0.1-45.7,0c-2.9,0-5.2-0.8-6.4-3.6c-1.7-4,1.3-7.7,6.2-7.7c14.2,0,28.5,0,42.7,0
		c1.4,0,2.7,0,4.4,0c0-6.5,0-12.8,0-19.6c-1.3,0-2.7,0-4,0c-14,0-28,0-42,0c-1.5,0-3-0.1-4.4-0.6c-2.7-1-4.1-3.5-3.1-6
		c0.7-1.9,2.9-3.3,4.7-4.5c1-0.6,2.7-0.2,4.1-0.2c56.2,0,112.5,0,168.7,0c11.1,0,15.8-4.6,15.8-15.6c0-78.5,0-157,0-235.5
		c0-11.8-4.4-16.2-16.4-16.2c-56,0-112,0-168,0c-1.6,0-3.3,0-4.9-0.2c-2.6-0.5-4.1-2.3-4.3-4.9c-0.2-2.8,1.1-4.9,3.9-5.7
		c1.7-0.4,3.5-0.5,5.2-0.5c55.4,0,110.7,0,166.1,0c17.3,0,23.4,4.1,29.6,20C384,104.1,384,187.3,384,270.6z"/>
	<path d="M41.9,226.9c-2.3-4.1-5-7.7-6.6-11.8c-4.2-10.5-8.1-21.2-11.8-31.9c-0.7-2.1-1.4-2.8-3.5-2.7c-3,0.2-6,0.1-9,0
		c-6.6-0.1-10.9-4.3-11-10.7c-0.1-10.9-0.1-21.7,0-32.6c0.1-6.4,4.2-10.5,10.6-10.7c3.2-0.1,6.5,0.1,9.7-0.1c1-0.1,2.6-1.1,2.8-1.9
		c3.7-15.7,9.9-30.3,19-44.4c-2.9-2.7-5.8-5.2-8.5-7.9c-4.8-4.9-4.8-10.7,0-15.6c7.5-7.7,15.1-15.3,22.8-22.8
		c4.7-4.6,10.6-4.6,15.4,0c2.8,2.7,5.3,5.6,8.1,8.6c14.5-9.3,29.7-15.7,46.3-19.2c0-3.9,0-7.5,0-11.1c0.1-7.6,4-11.7,11.5-11.8
		c6.9-0.2,13.7-0.1,20.6,0c4.5,0.1,6.8,2.1,6.8,5.7c0,3.6-2.3,5.5-6.9,5.5c-6.7,0.1-13.5,0-20.8,0c0,4.9,0,9.5,0,14.1
		c0,5.7-1,7.1-6.6,8.1c-16.8,3.2-32.2,9.5-46.4,19.2c-4.6,3.2-6.6,3-10.4-0.9c-3.2-3.3-6.4-6.7-9.5-9.9C57.1,49.6,49.8,57,42,64.8
		c3.1,3.1,6.7,6.4,10.1,9.8c3.5,3.5,3.7,5.5,0.9,9.5c-9.8,14.3-16.4,29.9-19.5,47c-1,5.4-2.7,6.5-8.2,6.6c-4.5,0-9,0-13.7,0
		c0,10.5,0,20.8,0,31.6c4.9,0,9.7,0,14.6,0c4.6,0,6.3,1.3,7.2,5.9c3.3,17.4,9.9,33.4,20,48c2.5,3.6,2.2,5.8-1,8.9
		c-3.4,3.4-7,6.7-10.3,9.9c7.7,7.7,15,15,22.7,22.7c3-3,6.2-6.4,9.5-9.8c3.7-3.8,5.5-4,9.8-1.1c14.3,9.8,30,16.3,47,19.5
		c5.4,1,6.4,2.4,6.4,7.9c0,4.6,0,9.2,0,14.2c7.3,0,14.1,0,21,0c3.3,0,6,1.1,6.6,4.7c0.6,3.4-1.5,6.4-5.1,6.4
		c-8.2,0.2-16.5,0.2-24.7-0.1c-5.1-0.2-8.7-4.6-9-10.3c-0.2-3.1-0.2-6.3,0-9.4c0.2-2.4-0.8-3.2-3-3.7c-14.5-3.3-28-8.9-40.6-16.9
		c-1.9-1.2-3-1-4.4,0.6c-2,2.2-4.2,4.3-6.3,6.4c-4.9,4.6-10.7,4.7-15.4,0.1c-7.8-7.6-15.5-15.3-23.1-23.1
		c-4.6-4.7-4.5-10.5,0.2-15.3C36.3,232.2,39.1,229.6,41.9,226.9z"/>
	<path d="M350,34.8c-3.7,0-7.2,0.1-10.7,0c-4.3-0.1-6.9-2.5-6.8-5.9c0.1-3.3,2.6-5.3,6.8-5.4c5-0.1,10-0.1,15,0
		c5.3,0.1,7.1,2,7.1,7.4c0,22.1,0,44.2,0,66.4c0,47,0,94,0,141c0,7.3-1.5,8.8-8.8,8.8c-55,0-110,0-165,0c-1.5,0-3,0-4.5-0.4
		c-2.8-0.7-4.1-2.7-4-5.6c0.1-2.7,1.6-4.5,4.2-5c1.6-0.3,3.2-0.3,4.8-0.3c52.2,0,104.5,0,156.7,0c1.6,0,3.2,0,5,0
		C350,168.6,350,102.1,350,34.8z"/>
	<path d="M281.9,64.4c2.3-9.3,4.8-11.2,13.9-11.2c3.2,0,6.5-0.1,9.7,0c6.4,0.3,10.2,4.1,10.4,10.4c0.1,4.4,0.1,8.8,0,13.1
		c-0.2,6.2-4.1,9.9-10.2,10.1c-4,0.1-8,0.1-12,0c-6.7-0.1-9.9-2.7-11.3-9.5c-0.1-0.5-0.3-0.9-0.5-1.7c-2.6,0-5.2,0-7.8,0
		c-11.4,0-22.7,0.1-34.1-0.1c-2.6,0-4.4,0.8-6.2,2.6c-6.9,7.1-14,13.9-20.9,21c-2.2,2.3-4.6,3.4-7.9,3.4c-27-0.1-54-0.1-81-0.1
		c-5,0-7.7-2.1-7.6-5.7c0.1-3.6,2.8-5.6,7.8-5.6c25.7,0,51.5,0,77.2-0.1c2,0,4.3-1.1,5.8-2.4c7.3-7,14.3-14.4,21.6-21.3
		c1.8-1.7,4.7-2.9,7.2-3C251.3,64.3,266.6,64.4,281.9,64.4z M294,64.7c0,3.7,0,7.2,0,10.6c3.7,0,7.1,0,10.4,0c0-3.7,0-7.1,0-10.6
		C300.8,64.7,297.5,64.7,294,64.7z"/>
	<path d="M279.1,136.3c-7,0-13.9-0.1-20.8,0.1c-1.3,0-2.8,1-3.7,2c-4.8,4.6-9.3,9.5-14.2,13.9c-1.8,1.6-4.5,3-6.8,3
		c-34.6,0.2-69.2,0.1-103.9,0.1c-4.6,0-7.3-2.2-7.2-5.7c0.1-3.5,2.8-5.6,7.5-5.6c32.9,0,65.7-0.1,98.6,0c3,0,5.2-0.7,7.2-2.9
		c4.1-4.4,8.5-8.4,12.6-12.8c2.3-2.5,4.9-3.5,8.3-3.4c7.5,0.2,15,0.1,22.4,0.1c2.9-7.6,5.2-9.2,13.2-9.2c2.9,0,5.8-0.1,8.6,0.1
		c5.5,0.3,9.4,4.1,9.6,9.6c0.2,3.9,0.2,7.8,0,11.6c-0.2,5.6-4.2,9.5-9.9,9.7c-2.7,0.1-5.5,0-8.2,0
		C283.9,146.9,281.3,144.8,279.1,136.3z M299,135.5c0-2.9,0-5.5,0-8c-2.8,0-5.4,0-7.9,0c0,2.8,0,5.4,0,8
		C293.8,135.5,296.3,135.5,299,135.5z"/>
	<path d="M295.3,206.1c-7.8,0-15.6,0.2-23.3-0.1c-2.2-0.1-4.9-1.2-6.5-2.7c-4.8-4.3-9.2-9.2-13.9-13.6c-1.5-1.3-3.8-2.4-5.8-2.4
		c-32-0.1-64-0.1-96-0.1c-1.6,0-3.3-0.1-4.8-0.5c-2.7-0.8-4.1-3-3.7-5.8c0.3-2.7,2-4.6,4.8-4.9c1.1-0.1,2.2-0.1,3.4-0.1
		c33.1,0,66.2,0,99.3-0.1c3.5,0,6.2,1,8.6,3.6c4.4,4.7,8.9,9.1,13.5,13.5c0.9,0.9,2.2,1.8,3.4,1.8c7,0.2,14,0.1,20.9,0.1
		c3.4-8.6,5.2-9.8,14.2-9.8c2.5,0,5-0.1,7.5,0c5.2,0.2,9.2,3.5,9.7,8.6c0.4,4.6,0.4,9.2,0,13.8c-0.5,4.9-4.1,8.1-9,8.4
		c-3,0.2-6,0.1-9,0.1C300.3,216,297.8,214.2,295.3,206.1z M315.2,204.5c0-2.8,0-5.4,0-8c-2.9,0-5.4,0-8.1,0c0,2.8,0,5.3,0,8
		C309.8,204.5,312.2,204.5,315.2,204.5z"/>
	<path d="M50.3,153.6c0-52.6,39.2-96.4,91.6-102.6c3.5-0.4,7-0.6,10.5-0.6c4-0.1,6.6,2.2,6.6,5.6c0,3.2-2.3,5.5-6.2,5.6
		c-14.7,0.3-28.7,3.6-41.8,10.4C63.3,96.7,47,157.6,76,202.9c0.3,0.5,0.7,1,1,1.6c2.1,3.5,1.7,6.7-1.1,8.6c-2.8,1.9-6.3,1.2-8.3-2.3
		c-3.7-6.6-7.6-13.2-10.5-20.2C52.3,178.8,50.3,166.3,50.3,153.6z"/>
	<path d="M249.5,23.5c20.5,0,41,0,61.5,0c1.4,0,2.8,0,4.1,0.2c2.8,0.5,4.4,2.2,4.6,5.1c0.2,3-1.3,5-4.3,5.7
		c-1.2,0.3-2.5,0.3-3.7,0.3c-41.5,0-83,0-124.4,0c-1.2,0-2.5,0-3.7-0.3c-2.9-0.7-4.4-2.7-4.2-5.8c0.2-2.8,1.8-4.6,4.6-5
		c1.3-0.2,2.7-0.2,4.1-0.2C208.5,23.5,229,23.5,249.5,23.5z"/>
	<path d="M172.5,118.1c12.5,0,25,0,37.5,0c4.1,0,6.6,2.2,6.7,5.5c0.1,3.2-2.4,5.6-6.1,5.8c-3.9,0.1-7.7,0-11.6,0
		c-20.7,0-41.4,0-62.2,0c-1.5,0-3,0-4.4-0.4c-2.9-0.8-4.3-2.9-4-5.9c0.3-2.8,2-4.6,4.8-4.8c3.4-0.2,6.7-0.1,10.1-0.1
		C153,118.1,162.8,118.1,172.5,118.1z"/>
	<path d="M148.7,256.5c-23.5-1.3-44.4-9.5-62.4-24.7c-3.2-2.7-3.7-5.8-1.6-8.5c2.2-2.8,5.5-2.9,8.9-0.1c17,14.2,36.5,21.7,58.7,22.1
		c4.3,0.1,6.9,2.5,6.7,5.9c-0.1,3.4-2.7,5.4-7.1,5.4C150.8,256.5,149.8,256.5,148.7,256.5z"/>
	<path d="M199.7,262.7c0,4.2-3.2,7.3-7.3,7.4c-4.2,0-7.7-3.4-7.5-7.6c0.1-4,3.5-7.3,7.6-7.2C196.5,255.3,199.7,258.6,199.7,262.7z"
		/>
</g>
</svg>
