<?xml version="1.0" encoding="utf-8"?>
<!-- Generator: Adobe Illustrator 22.1.0, SVG Export Plug-In . SVG Version: 6.00 Build 0)  -->
<svg version="1.1" id="Слой_1" xmlns="http://www.w3.org/2000/svg" xmlns:xlink="http://www.w3.org/1999/xlink" x="0px" y="0px" viewBox="0 0 428.8 316" style="enable-background:new 0 0 428.8 316;" xml:space="preserve">
	<style type="text/css">
		path {
			fill: #FFFFFF;
		}
	</style>
	<g>
		<path d="M428.6,290.1c-0.4-3.6-1-7.4-2.6-10.6c-9.2-18.6-18.8-37.1-28-55.6c-1.2-2.5-2-5.5-2-8.3c-0.1-66.9-0.1-133.8-0.1-200.7
		c0-10.8-4.1-14.9-14.7-14.9H66.5C55.9,0,51.9,4.1,51.9,14.8c0,35.1-0.2,70.2-0.1,105.3c4.1-0.1,8.3-0.1,12.4-0.1V12.1h319.4V215
		H199.4c0.4,2,0.6,4.1,0.7,6.2c0.1,2.1,0,4.1-0.3,6.1h182.5c3,0,4.4,1,5.7,3.6c8.1,16.2,16.3,32.3,24.7,48.8H281
		c-2-7.2-4-14.4-5.9-21.6c-2.1-7.5-5.7-10.3-13.5-10.3h-62.7c0.1,1.1,0.2,2.3,0.2,3.4c0,2.9,0.1,5.8,0.1,8.6c20.5-0.1,41-0.1,61.5,0
		c1,0,2.6,1,2.9,1.8c1.8,5.9,3.4,12,5,18.2H199c-0.1,1.7-0.3,3.3-0.4,5c0.1,1.9,0,3.8-0.3,5.6v0.1c0,0.2,0,0.3,0,0.5
		c0,0.3,0,0.7,0,1h218.3c0,2.8,0.3,5.6-0.1,8.3c-0.1,1-1.6,2.1-2.8,2.5c-1.2,0.4-2.6,0.1-4,0.1H197.5c-0.8,4.3-2.5,8.3-4.8,12h218.1
		c1.6,0,3.2,0.1,4.8-0.1c7.8-0.8,12.9-6.3,13.1-14.1C428.8,297.3,429,293.6,428.6,290.1z" />
		<path d="M359.1,37c-90.3,0-180.1,0-270.4,0c0,1.6,0,3,0,4.4c0,17.9,0,35.7,0,53.6c0,1.6,0.3,3.7-0.6,4.6c-1.5,1.7-3.9,3.9-5.8,3.7
		c-1.9-0.1-3.9-2.6-5.3-4.4c-0.7-0.8-0.3-2.6-0.3-3.9c0-19.3,0-38.7,0-58c0-8.7,3.5-12.2,12-12.2c90.1,0,180.2,0,270.4,0
		c8.6,0,12,3.5,12,12.2c0,19.3,0,38.7,0,58c0,1.3,0.4,3.1-0.3,3.9c-1.5,1.8-3.4,4.3-5.3,4.4s-4.3-2-5.7-3.7c-0.9-1.1-0.6-3.3-0.6-5
		C359.1,75.5,359.1,56.5,359.1,37z" />
		<path d="M370.8,128.5c-1.5-1.8-3.4-4.2-5.3-4.3c-1.9-0.1-4.2,2-5.8,3.7c-0.9,1-0.6,3-0.6,4.6v57.9H188.7c2.8,3.6,5.1,7.7,6.6,12.2
		h163.8c8.8,0,12-3.3,12-12.1v-58C371.1,131.1,371.5,129.4,370.8,128.5z" />
	</g>
	<g>
		<path d="M323.8,137c0,3.6,0,7,0,10.6c-0.4,0-0.8,0-1.1,0c-6.9,0-13.7,0-20.6,0c-18.7,0-37.5,0-56.2,0c-4.3,0-8.5-0.4-12.7-1.5
		c-13.3-3.2-22.7-11.2-28-23.8c-8.6-20.6,0.7-43.5,21.1-52.7c17-7.7,37.9-2.2,49,12.8c4.9,6.7,7.7,14.2,8.1,22.5
		c0.1,1.4,0.1,1.4-1.4,1.4c-2.8,0-5.6,0-8.5,0c-0.8,0-1-0.3-1.1-1c-0.9-16.9-15.1-29.4-31.9-28.3c-16.3,1.1-29,15.8-27.5,32.1
		c1,11,6.6,19.1,16.3,24.2c3.6,1.9,7.5,2.7,11.5,3c3,0.3,5.9,0.4,8.9,0.4c18.1,0,36.2,0,54.3,0c6.3,0,12.6,0.1,18.8,0.1
		C323.2,137,323.5,137,323.8,137z" />
		<path d="M323.8,120.1c0,3.4,0,6.8,0,10.2c-0.4,0-0.7,0-1.1,0c-4.7,0-9.4,0-14.1,0c-20.2,0-40.4,0.1-60.5,0c-3.4,0-6.9-0.2-10.3-0.9
		c-14.6-2.8-22.6-19.4-15.9-32.7c7.4-14.8,26.6-17.7,38-5.7c3.8,4,5.8,8.8,6.2,14.3c0.1,0.9-0.2,1.2-1.1,1.2c-2.7-0.1-5.4-0.1-8.1,0
		c-0.9,0-1.2-0.3-1.4-1.2c-0.8-5.4-3.7-9.1-8.9-10.6c-5.1-1.6-9.7-0.3-13.4,3.7c-3.3,3.6-4.1,8-2.5,12.6c1.6,4.7,5,7.6,10,8.4
		c3,0.4,6.1,0.5,9.2,0.6c13.8,0.1,27.7,0,41.5,0c10.5,0,20.9,0.1,31.4,0.1C323.1,120.1,323.4,120.1,323.8,120.1z" />
		<path d="M168.9,77c0-0.4,0-0.8,0-1.1c0-2.8,0-5.6,0-8.5c0-0.9,0.2-1.2,1.2-1.2c8.1,0,16.2,0,24.3,0c0.9,0,1.1,0.3,1.1,1.2
		c0,13.5,0.1,27,0.1,40.5c0,12.8,0,25.6,0,38.3c0,1.3,0,1.3-1.3,1.3c-2.9,0-5.8,0-8.6,0c-0.8,0-1-0.2-1-1c0-19.5,0-39,0-58.5
		c0-3.3,0-6.7,0.1-10c0-0.9-0.3-1.1-1.2-1.1c-4.5,0-8.9,0-13.4,0C169.8,77,169.4,77,168.9,77z" />
		<path d="M168.7,123.1c0-7.4,0-14.7,0-22.1c0-2.4,0.1-4.7,0.1-7.1c0-0.8-0.3-1.1-1-1c-3.3,0-6.6,0-9.9,0c-0.8,0-1.1-0.2-1.1-1
		c0-2.8,0-5.6,0-8.4c0-0.8,0.3-1,1-1c5.4,0,10.8,0,16.2,0c1.4,0,2.7,0,4.1,0c0.6,0,0.9,0.1,0.9,0.8c0,2.8,0.1,5.7,0.1,8.5
		c0,18.1,0,36.2,0,54.3c0,1.5,0,1.5-1.5,1.5c-2.6,0-5.2,0-7.8,0c-1.3,0-1.3,0-1.3-1.3C168.7,138.6,168.7,130.9,168.7,123.1z" />
		<path d="M312,74.1c0,4-3.3,7.1-7.3,7.1c-3.9-0.1-7.1-3.4-7.1-7.3s3.3-7,7.4-7C308.9,67,312,70.2,312,74.1z M298.9,74
		c0,3.3,2.6,5.9,5.9,5.9s6-2.6,6-5.9c0-3.2-2.7-5.8-5.9-5.8C301.5,68.2,298.9,70.8,298.9,74z" />
		<path d="M307.1,73.9c0.2,1.3,0.4,2.4,0.6,3.4c-1.3,0.5-1.6,0.3-1.6-0.9c0-0.6,0-1.2-0.7-1.6c-1.2-0.5-1.9-0.1-1.9,1.2
		c0,0.4,0.1,0.7,0,1c-0.1,0.2-0.4,0.5-0.6,0.5c-0.3,0-0.7-0.3-0.7-0.5c-0.1-2-0.1-4,0-6c0-0.2,0.4-0.5,0.7-0.5c0.8-0.1,1.6,0,2.4,0
		c1,0,1.9,0.3,2.3,1.3C308,72.7,307.7,73.5,307.1,73.9z M304.7,73.6c0.9,0,1.6-0.1,1.7-1c0.1-0.7-0.6-1.1-1.8-1.1
		c-0.9,0-0.9,0.5-0.9,1.1C303.6,73.5,304,73.7,304.7,73.6z" />
	</g>
	<g>
		<g>
			<path d="M30.9,201c0-1,0-1.7,0-2.4c0-17.7,0-35.4,0-53c0-2,0.6-3.4,2-4.8c3.5-3.4,6.9-6.9,10.4-10.3c1.9-1.9,3.4-1.9,5.3,0
			c3.1,3,6.1,6.1,9.3,9.3c0.5-0.5,0.9-0.8,1.4-1.3c2.6-2.6,5.1-5.1,7.7-7.7c2.4-2.4,3.6-2.4,6-0.1c3,3,5.9,5.9,9.1,9.1
			c1.8-1.9,3.5-3.6,5.3-5.4c1.3-1.3,2.6-2.7,4-4c2-2,3.4-2,5.4,0c3,3,6.1,6.1,9.2,9.3c3.1-3.1,6-6,9-9c2.4-2.4,3.6-2.5,6.1,0
			c2.9,2.9,5.8,5.9,8.8,8.9c0.5-0.5,1-0.9,1.4-1.3c2.7-2.7,5.5-5.5,8.2-8.2c1.7-1.7,3.2-1.7,4.9,0c3.8,3.8,7.7,7.5,11.3,11.4
			c0.8,0.8,1.2,2.3,1.2,3.5c0.1,17.8,0,35.6,0,53.4c0,0.7,0,1.5,0,2.4c4.7,0,9.1,0,13.6,0c10.2,0,16.4,6.2,16.4,16.3
			c0,21.1,0,42.2,0,63.3c0,5-1.5,9.3-5.3,12.7c-0.5,0.4-0.7,1.3-0.7,1.9c-0.1,3.4,0,6.9,0,10.3c0,5.5-3.8,9.3-9.3,9.3
			c-51.8,0-103.6,0-155.4,0c-5.4,0-9.2-3.9-9.2-9.2c0-3.4,0.1-6.9-0.1-10.3c0-0.8-0.4-1.8-1-2.4C2.7,289.6,1,286,1,281.5
			c0-22,0-44,0-66c0-8.3,6.6-14.8,14.9-14.9C20.8,201,25.7,201,30.9,201z M12.9,207.8c-3.7,1.1-6,4.4-6,8.7c0,21.5,0,43,0,64.5
			c0,6.5,3.6,10,10.1,10c51.2,0,102.4,0,153.7,0c6.6,0,10.1-3.6,10.1-10.2c0-21.2,0-42.5,0-63.7c0-0.6,0-1.1,0-1.7
			c-0.1-3.4-3.4-7.5-6-7.4c0,6.4,0,12.7,0,19.1c0,2.9-1,3.9-3.9,3.9c-51.3,0-102.7,0-154,0c-2.9,0-3.9-1-3.9-3.9
			C12.9,220.7,12.9,214.4,12.9,207.8z M45.9,136.2c-2.7,2.7-5.2,5.3-7.7,7.8c-0.9,0.9-1.3,1.8-1.3,3.1c0,25.3,0,50.6,0,75.9
			c0,0.7,0,1.3,0,1.9c38.1,0,76,0,113.9,0c0-0.3,0.1-0.4,0.1-0.5c0-26,0-52,0-77.9c0-0.5-0.1-1.2-0.4-1.5c-2.8-2.9-5.6-5.7-8.5-8.6
			c-2.7,2.7-5.3,5.3-7.8,7.9c-4,4-4.4,4-8.3,0c-2.6-2.6-5.2-5.2-7.8-7.9c-3.2,3.3-6.3,6.3-9.3,9.3c-2,2-3.4,2-5.4,0
			c-1.9-1.9-3.8-3.8-5.7-5.7c-1.2-1.2-2.3-2.3-3.6-3.6c-3.1,3.1-6,6.1-8.9,9c-2.4,2.5-3.7,2.5-6.1,0c-2.9-2.9-5.9-5.9-8.9-9
			c-3.2,3.2-6.1,6.2-9.1,9.2c-2.2,2.2-3.5,2.2-5.7,0C52.1,142.5,49.1,139.5,45.9,136.2z M12.9,296.9c0,2.5,0,5,0,7.4
			c0,3.9,0.7,4.7,4.7,4.7c50.8,0,101.7,0,152.5,0c0.6,0,1.3,0,1.9,0c1.6-0.2,2.7-1.1,2.8-2.8c0.1-3.1,0-6.2,0-9.3
			C120.9,296.9,67,296.9,12.9,296.9z M19,207.1c0,6.1,0,11.9,0,17.8c4,0,7.9,0,11.8,0c0-6,0-11.9,0-17.8
			C26.8,207.1,23,207.1,19,207.1z M168.7,225c0-6.1,0-12,0-17.8c-4,0-7.9,0-11.9,0c0,5.7,0,11.4,0,17c0,0.2,0.1,0.5,0.1,0.8
			c0.3,0,0.5,0.1,0.8,0.1C161.3,225,164.9,225,168.7,225z" />
			<path d="M95.1,316c-26.3,0-52.6,0-78.9,0C10.3,316,6,311.7,6,305.8c0-1.3,0-2.6,0-3.9c0-2.1,0-4.3-0.1-6.4c0-0.6-0.3-1.3-0.7-1.7
			c-3.5-3.4-5.2-7.4-5.2-11.9v-5.6c0-19.8,0-40.2,0-60.3c0-8.8,7-15.8,15.9-15.9c3.4,0,6.7,0,10.2,0c1.3,0,2.5,0,3.8,0v-13.5
			c0-13.4,0-27.3,0-40.9c0-2.3,0.7-4,2.3-5.5c2.3-2.2,4.6-4.5,6.7-6.7c1.2-1.2,2.4-2.4,3.6-3.6c2.3-2.3,4.4-2.3,6.7,0
			c2.1,2.1,4.2,4.2,6.4,6.4l2.2,2.2c0.2-0.2,0.4-0.4,0.6-0.6c1.5-1.5,3-3,4.5-4.4l3.2-3.2c2.8-2.8,4.6-2.8,7.4-0.1
			c2,2,4.1,4.1,6.2,6.2l2.2,2.2l1-1c1.2-1.2,2.4-2.5,3.6-3.7c1.3-1.3,2.6-2.7,4-4c2.4-2.4,4.4-2.4,6.8,0c2.1,2.1,4.2,4.3,6.4,6.4
			l2.1,2.1l2.4-2.4c2-2,3.9-3.9,5.9-5.9c1.1-1.1,2.3-2.1,3.8-2.1l0,0c1.4,0,2.7,1,3.8,2.1c2,2,4,4,6.1,6.1l2.1,2.1
			c0.2-0.2,0.5-0.4,0.7-0.6c0.9-0.9,1.9-1.9,2.8-2.8c1.8-1.8,3.6-3.6,5.4-5.4c2.1-2.1,4.2-2.1,6.3,0l1.3,1.3
			c3.4,3.3,6.8,6.7,10.1,10.2c1,1.1,1.4,3,1.4,4.2c0.1,14.4,0.1,29,0.1,43.1v11.6h12.6c10.7,0,17.4,6.6,17.4,17.3c0,6,0,12,0,18.1
			c0,14.8,0,30.2,0,45.3c0,5.6-1.8,10-5.6,13.4c-0.2,0.2-0.4,0.7-0.4,1.2c0,2,0,4.1,0,6.2c0,1.4,0,2.8,0,4.1
			c0,6.1-4.3,10.3-10.3,10.3C146,316,120.6,316,95.1,316z M21.5,202c-1.9,0-3.7,0-5.6,0C8.1,202.1,2,208.2,2,215.9
			c-0.1,20.1,0,40.5,0,60.3v5.6c0,4,1.5,7.4,4.6,10.4c0.8,0.7,1.3,2,1.3,3c0.1,2.2,0.1,4.3,0.1,6.5c0,1.3,0,2.6,0,3.9
			c0,4.8,3.4,8.2,8.2,8.2c51.8,0,103.6,0,155.4,0c4.9,0,8.3-3.4,8.3-8.4c0-1.4,0-2.7,0-4.1c0-2,0-4.1,0-6.2c0-0.8,0.3-2,1-2.7
			c3.4-3.1,5-7,5-11.9c0-15.1,0-30.4,0-45.3c0-6,0-12,0-18.1c0-9.6-5.7-15.3-15.4-15.3h-14.6v-13.7c0-14.1,0-28.8-0.1-43.1
			c0-1.1-0.4-2.3-0.9-2.9c-3.2-3.5-6.7-6.9-10-10.1l-1.3-1.3c-1.3-1.3-2.2-1.3-3.5,0c-1.8,1.8-3.6,3.6-5.4,5.4
			c-0.9,1-1.9,1.9-2.8,2.8c-0.3,0.3-0.6,0.6-0.9,0.9l-1.2,1.1l-3.5-3.5c-2.1-2.1-4.1-4.1-6.1-6.1c-1.1-1.1-1.8-1.6-2.3-1.6l0,0
			c-0.5,0-1.3,0.5-2.3,1.5c-1.9,1.9-3.9,3.9-5.9,5.9l-3.8,3.8l-3.5-3.6c-2.2-2.2-4.3-4.3-6.4-6.4c-1.6-1.6-2.4-1.6-4,0
			c-1.3,1.3-2.7,2.6-4,4c-1.2,1.2-2.4,2.4-3.6,3.7l-2.4,2.5l-3.6-3.6c-2.1-2.1-4.2-4.2-6.2-6.2s-2.6-1.9-4.6,0.1l-3.2,3.2
			c-1.5,1.5-3,3-4.5,4.4c-0.3,0.3-0.6,0.6-0.9,0.9l-1.2,1.1l-3.6-3.6c-2.2-2.2-4.3-4.3-6.4-6.4c-1.5-1.5-2.3-1.5-3.9,0
			c-1.2,1.2-2.4,2.4-3.6,3.6c-2.2,2.2-4.5,4.5-6.8,6.7c-1.2,1.2-1.7,2.3-1.7,4c0,13.7,0,27.5,0,41v15.5h-1c-1.6,0-3.2,0-4.8,0
			C24.5,202,23,202,21.5,202z M171.2,310c-0.2,0-0.4,0-0.5,0h-0.5H17.6c-4.5,0-5.7-1.2-5.7-5.7v-8.4h163.9v1c0,0.9,0,1.8,0,2.7
			c0,2.2,0,4.4,0,6.6c-0.1,2.1-1.4,3.5-3.7,3.7C171.8,310,171.5,310,171.2,310z M13.9,297.9v6.4c0,3.4,0.3,3.7,3.7,3.7h152.5
			c0.2,0,0.4,0,0.5,0c0.4,0,0.8,0,1.2,0c1.2-0.1,1.9-0.8,1.9-1.8c0.1-2.2,0.1-4.4,0-6.5c0-0.6,0-1.2,0-1.7H13.9V297.9z M93.9,292
			c-25.6,0-51.2,0-76.8,0C10,292,6,288,6,281c0-21.5,0-43,0-64.5c0-4.7,2.6-8.4,6.7-9.6l1.3-0.4v7.1c0,4.6,0,9,0,13.5
			c0,2.4,0.6,2.9,3,2.9c51.3,0,102.7,0,154,0c2.4,0,2.9-0.5,2.9-2.9c0-4.5,0-9,0-13.5V207l0.9-0.1c1.2-0.1,2.4,0.5,3.7,1.6
			c1.9,1.7,3.3,4.5,3.4,6.8c0,0.6,0,1.2,0,1.7v63.7c0,7.2-4,11.2-11.1,11.2C145.1,292,119.5,292,93.9,292z M11.9,209.3
			c-2.5,1.3-4,3.9-4,7.2c0,21.5,0,43,0,64.5c0,5.9,3.2,9,9.1,9c51.2,0,102.4,0,153.7,0c6.1,0,9.1-3.1,9.1-9.2v-63.7
			c0-0.5,0-1.1,0-1.6c-0.1-1.8-1.2-4-2.7-5.4c-0.4-0.4-0.9-0.7-1.3-0.9v4.4c0,4.5,0,9,0,13.5c0,3.5-1.4,4.9-4.9,4.9
			c-51.3,0-102.7,0-154,0c-3.5,0-4.9-1.4-5-4.9c0-4.5,0-9,0-13.5L11.9,209.3z M166,226c-2.8,0-5.5,0-8.2,0c-0.2,0-0.4,0-0.7-0.1
			l-1-0.1l-0.1-1c0-0.2-0.1-0.4-0.1-0.6c0-4.8,0-9.6,0-14.5v-3.5h13.9V226h-2.4C166.9,226,166.4,226,166,226z M157.9,224
			c3.1,0,6.2,0,9.4,0h0.4v-15.8h-9.9v1.5C157.9,214.5,157.9,219.2,157.9,224z M31.8,225.9H18v-19.8h13.8V225.9z M20,223.9h9.8v-15.8
			H20V223.9z M151.6,225.9H35.9v-16c0-20.9,0-41.9,0-62.8c0-1.6,0.5-2.7,1.6-3.8c1.8-1.7,3.6-3.5,5.4-5.4c0.7-0.8,1.5-1.5,2.3-2.3
			l0.7-0.7l3.6,3.6c2.1,2.2,4.2,4.3,6.3,6.3c1.8,1.8,2.5,1.8,4.3,0c2.1-2.1,4.2-4.2,6.4-6.4l3.5-3.5l3.4,3.5
			c2.1,2.1,4.1,4.2,6.2,6.2c1.1,1.1,1.8,1.5,2.3,1.5c0.6,0,1.3-0.5,2.3-1.5c2-2,4-4.1,6.1-6.2l3.5-3.5l6.2,6.2
			c1.3,1.3,2.6,2.6,3.8,3.8c1.7,1.6,2.4,1.6,4,0c2.1-2.1,4.2-4.2,6.4-6.4l3.6-3.6l3.1,3.2c1.8,1.8,3.6,3.6,5.4,5.4
			c1.6,1.6,2.7,2.7,3.4,2.7s1.8-1.1,3.5-2.7c1.7-1.7,3.5-3.5,5.3-5.3l3.3-3.3l2.8,2.8c2.2,2.3,4.4,4.4,6.5,6.6
			c0.7,0.7,0.7,1.8,0.7,2.2c0,26,0,52,0,77.9c0,0.1,0,0.2,0,0.4L151.6,225.9z M37.9,223.9h111.9c0-25.8,0-51.6,0-77.5
			c0-0.4-0.1-0.8-0.2-0.8c-2.1-2.2-4.2-4.3-6.4-6.6l-1.3-1.3l-1.8,1.8c-1.8,1.8-3.5,3.6-5.3,5.3c-2.1,2.1-3.4,3.3-4.9,3.3
			s-2.8-1.2-4.9-3.3c-1.8-1.8-3.6-3.6-5.4-5.4l-1.7-1.7l-2.2,2.2c-2.2,2.2-4.3,4.3-6.4,6.4c-2.4,2.4-4.4,2.4-6.8,0
			c-1.3-1.3-2.6-2.6-3.8-3.8l-4.8-4.8l-2.1,2.1c-2.1,2.1-4.1,4.1-6.1,6.2c-1.1,1.1-2.3,2.1-3.8,2.1l0,0c-1.4,0-2.7-1-3.8-2.1
			c-2.1-2.1-4.1-4.1-6.2-6.2l-2-2l-2.1,2.1c-2.2,2.2-4.3,4.3-6.4,6.4c-2.6,2.6-4.5,2.6-7.1,0c-2.1-2.1-4.2-4.2-6.3-6.3l-2.2-2.2
			c-0.5,0.5-1.1,1.1-1.6,1.6c-1.9,1.9-3.6,3.7-5.5,5.5c-0.7,0.7-1,1.3-1,2.4c0,20.9,0,41.9,0,62.8L37.9,223.9z" />
		</g>
		<g>
			<path class="st0" d="M19,207.1c3.9,0,7.8,0,11.8,0c0,5.9,0,11.8,0,17.8c-3.9,0-7.8,0-11.8,0C19,219,19,213.2,19,207.1z" />
			<path d="M31.8,225.9H18v-19.8h13.8V225.9z M20,223.9h9.8v-15.8H20V223.9z" />
		</g>
		<g>
			<path class="st0" d="M168.7,225c-3.8,0-7.4,0-11,0c-0.2,0-0.5-0.1-0.8-0.1c0-0.3-0.1-0.5-0.1-0.8c0-5.6,0-11.2,0-17
			c4,0,7.9,0,11.9,0C168.7,213,168.7,218.9,168.7,225z" />
			<path d="M165.9,226c-2.8,0-5.5,0-8.2,0c-0.2,0-0.4,0-0.7-0.1l-1-0.1l-0.1-1c0-0.2-0.1-0.4-0.1-0.6c0-4.8,0-9.6,0-14.5v-3.5h13.9
			V226h-2.4C166.8,226,166.4,226,165.9,226z M157.9,224c3.1,0,6.2,0,9.4,0h0.4v-15.8h-9.9v1.5C157.9,214.5,157.9,219.2,157.9,224z" />
		</g>
		<g>
			<path d="M24.9,261c6.6,0,12,5.4,12,12s-5.5,12-12.1,12c-6.5,0-11.9-5.4-11.9-11.9C12.9,266.4,18.3,261,24.9,261z M25,279
			c3.2,0,5.9-2.8,5.9-6c0-3.3-2.7-6-6-6s-6.1,2.8-6,6.1C19,276.4,21.7,279,25,279z" />
			<path d="M24.9,286C24.9,286,24.8,286,24.9,286c-7.2,0-12.9-5.8-13-12.9c0-3.5,1.3-6.8,3.8-9.2c2.5-2.5,5.7-3.8,9.2-3.8l0,0
			c3.5,0,6.7,1.4,9.2,3.8c2.5,2.5,3.8,5.7,3.8,9.2s-1.4,6.7-3.8,9.2C31.6,284.6,28.3,286,24.9,286z M24.9,261v1
			c-2.9,0-5.7,1.2-7.8,3.2c-2.1,2.1-3.2,4.9-3.2,7.8c0,6,4.9,10.9,10.9,10.9c0,0,0,0,0.1,0c2.9,0,5.7-1.1,7.7-3.2
			c2.1-2.1,3.2-4.8,3.3-7.8c0-2.9-1.1-5.7-3.2-7.8c-2.1-2.1-4.8-3.2-7.8-3.2l0,0L24.9,261z M24.9,280c-3.8,0-6.9-3.1-7-6.9
			c0-1.9,0.7-3.7,2-5c1.3-1.4,3.1-2.1,5-2.1c3.8,0,6.9,3.1,7,7C31.9,276.8,28.8,280,24.9,280L24.9,280C25,280,24.9,280,24.9,280z
			 M24.9,268c-1.3,0-2.6,0.5-3.5,1.5c-1,1-1.5,2.2-1.5,3.6c0,2.7,2.3,4.9,5,4.9l0,0l0,0c2.7,0,4.9-2.3,4.9-5
			C29.9,270.3,27.6,268,24.9,268L24.9,268z" />
		</g>
		<g>
			<path d="M132.7,285c-6.6-0.1-11.9-5.6-11.8-12.2c0.1-6.6,5.6-11.9,12.2-11.8c6.5,0.1,11.8,5.5,11.7,12.1
			C144.8,279.7,139.3,285.1,132.7,285z M138.9,273c0-3.3-2.7-6-6-6s-6,2.7-6,5.9c0,3.3,2.7,6.1,6.1,6.1
			C136.2,279,138.9,276.2,138.9,273z" />
			<path d="M132.8,286h-0.1c-3.4,0-6.7-1.4-9.1-3.9c-2.4-2.5-3.8-5.8-3.7-9.3c0-3.4,1.4-6.7,3.9-9.1s5.8-3.7,9.3-3.7
			c7.1,0.1,12.8,6,12.7,13.1c0,3.4-1.4,6.7-3.9,9.1C139.5,284.7,136.3,286,132.8,286z M132.9,262c-2.9,0-5.6,1.1-7.7,3.1
			c-2.1,2-3.3,4.8-3.3,7.7c0,3,1.1,5.8,3.2,7.9c2,2.1,4.8,3.3,7.7,3.3l0,0c2.9,0.1,5.7-1.1,7.9-3.2c2.1-2.1,3.3-4.8,3.3-7.7
			c0-6-4.8-11-10.7-11.1C133,262,133,262,132.9,262z M132.9,280c-1.9,0-3.6-0.7-4.9-2.1c-1.3-1.4-2.1-3.1-2.1-5c0-3.8,3.2-6.9,7-6.9
			l0,0c3.8,0,6.9,3.1,7,7C139.9,276.8,136.8,280,132.9,280L132.9,280z M132.9,268c-2.7,0-5,2.2-5,4.9c0,1.3,0.5,2.6,1.5,3.6
			s2.2,1.5,3.6,1.5c2.7,0,4.9-2.3,4.9-5C137.8,270.3,135.6,268,132.9,268L132.9,268z" />
		</g>
		<g>
			<path d="M162.9,261c6.6,0,12,5.5,11.9,12.1c0,6.6-5.5,12-12.1,11.9c-6.5-0.1-11.8-5.5-11.8-12C150.9,266.4,156.3,261,162.9,261z
			 M168.8,272.9c0-3.3-2.8-5.9-6-5.9c-3.3,0-6,2.7-6,6s2.8,6.1,6.1,6C166.2,278.9,168.9,276.2,168.8,272.9z" />
			<path d="M162.8,286h-0.1c-7.1-0.1-12.8-5.9-12.8-13c0-3.5,1.4-6.7,3.8-9.2c2.5-2.5,5.7-3.8,9.2-3.8l0,0c3.5,0,6.7,1.4,9.2,3.8
			c2.5,2.5,3.8,5.8,3.8,9.2c0,3.5-1.4,6.7-3.9,9.1C169.5,284.7,166.3,286,162.8,286z M162.9,262c-2.9,0-5.7,1.1-7.8,3.2
			s-3.2,4.8-3.2,7.8c0,6,4.9,10.9,10.9,11c2.9,0,5.7-1.1,7.8-3.2s3.3-4.8,3.3-7.7c0-2.9-1.1-5.7-3.2-7.8
			C168.6,263.2,165.8,262,162.9,262L162.9,262L162.9,262z M162.9,280c-1.8,0-3.6-0.7-4.9-2c-1.4-1.3-2.1-3.1-2.1-5c0-3.8,3.1-7,7-7
			l0,0c3.8,0,7,3.1,7,6.9s-3,7-6.9,7.1C162.9,280,162.9,280,162.9,280z M162.8,268L162.8,268c-2.7,0-5,2.2-5,5
			c0,1.3,0.5,2.6,1.5,3.6s2.3,1.5,3.6,1.4c2.7,0,4.9-2.4,4.9-5.1C167.8,270.3,165.5,268,162.8,268z" />
		</g>
		<g>
			<path d="M93.9,207c-14.6,0-29.1,0-43.7,0c-3.4,0-4.3-0.9-4.3-4.3c0-15.1,0-30.2,0-45.4c0-3.4,0.9-4.3,4.3-4.3
			c29.1,0,58.2,0,87.3,0c3.4,0,4.3,0.9,4.3,4.3c0,15.1,0,30.2,0,45.4c0,3.4-0.9,4.3-4.3,4.3C123,207,108.4,207,93.9,207z
			 M135.8,159.2c-28,0-55.9,0-83.7,0c0,14,0,27.9,0,41.8c28,0,55.8,0,83.7,0C135.8,187,135.8,173.2,135.8,159.2z" />
			<path d="M108.4,208H50.2c-4,0-5.3-1.3-5.3-5.3v-45.4c0-4,1.3-5.3,5.3-5.3h87.3c4,0,5.3,1.3,5.3,5.3c0,15.1,0,30.2,0,45.4
			c0,4-1.3,5.3-5.3,5.3L108.4,208L108.4,208z M93.9,206h43.7c2.9,0,3.3-0.4,3.3-3.3c0-15.1,0-30.2,0-45.4c0-2.9-0.4-3.3-3.3-3.3
			H50.2c-2.9,0-3.3,0.4-3.3,3.3v45.4c0,2.9,0.4,3.3,3.3,3.3L93.9,206L93.9,206z M136.8,201.9H51v-43.8h85.7v43.8H136.8z M53,199.9
			h81.7v-39.8H53V199.9z" />
		</g>
		<g>
			<path d="M141.8,213.2c0,2,0,3.8,0,5.8c-23.9,0-47.7,0-71.7,0c0-1.9,0-3.8,0-5.8C93.9,213.2,117.8,213.2,141.8,213.2z" />
			<path d="M142.8,219.9H69v-7.8h73.7v7.8H142.8z M71,217.9h69.7v-3.8H71V217.9z" />
		</g>
		<g>
			<path d="M51.8,213.1c0,1.9,0,3.8,0,5.8c-1.9,0-3.8,0-5.8,0c0-1.9,0-3.8,0-5.8C47.9,213.1,49.7,213.1,51.8,213.1z" />
			<path d="M52.8,219.9H45v-7.8h7.8V219.9z M47,217.9h3.8v-3.8H47V217.9z" />
		</g>
		<g>
			<path d="M63.8,218.9c-2,0-3.8,0-5.8,0c0-1.9,0-3.8,0-5.8c1.9,0,3.8,0,5.8,0C63.8,215,63.8,216.9,63.8,218.9z" />
			<path d="M64.8,219.9H57v-7.8h7.8V219.9z M59,217.9h3.8v-3.8H59V217.9z" />
		</g>
		<g>
			<path d="M93.7,195c-2.9,0-5.8,0-8.7,0c0-9.9,0-19.8,0-29.8c2.9,0,5.7,0,8.7,0C93.7,175,93.7,184.9,93.7,195z" />
			<path d="M94.7,196H84v-31.8h10.7V196z M86,194h6.7v-27.8H86V194z" />
		</g>
		<g>
			<path d="M58,165.1c2,0,3.8,0,5.8,0c0,9.9,0,19.8,0,29.7c-1.8,0-3.7,0-5.8,0C58,185,58,175.2,58,165.1z" />
			<path d="M64.8,195.9H57v-31.7h7.8V195.9z M59,193.9h3.8v-27.7H59V193.9z" />
		</g>
		<g>
			<path d="M102.7,194.9c-2,0-3.8,0-5.8,0c0-9.9,0-19.8,0-29.7c1.9,0,3.8,0,5.8,0C102.7,175,102.7,184.9,102.7,194.9z" />
			<path d="M103.7,195.9h-7.8v-31.8h7.8V195.9z M98,193.9h3.8v-27.7H98V193.9z" />
		</g>
		<g>
			<path d="M117.7,194.9c-2,0-3.8,0-5.8,0c0-9.9,0-19.8,0-29.7c1.9,0,3.7,0,5.8,0C117.7,175,117.7,184.9,117.7,194.9z" />
			<path d="M118.7,195.9h-7.8v-31.7h7.8V195.9z M113,193.9h3.8v-27.7H113V193.9z" />
		</g>
		<g>
			<path d="M121,165.1c2,0,3.8,0,5.8,0c0,9.9,0,19.8,0,29.7c-1.9,0-3.8,0-5.8,0C121,185,121,175.2,121,165.1z" />
			<path d="M127.8,195.9H120v-31.8h7.8V195.9z M122,193.9h3.8v-27.7H122V193.9z" />
		</g>
		<g>
			<path d="M69.8,195c-1,0-1.8,0-2.7,0c0-9.9,0-19.8,0-29.8c0.8,0,1.7,0,2.7,0C69.8,175.1,69.8,184.9,69.8,195z" />
			<path d="M70.8,196h-4.7v-31.8h4.7V196z M68,194h0.7v-27.8H68V194z" />
		</g>
		<g>
			<path d="M75.8,195c-1,0-1.8,0-2.7,0c0-9.9,0-19.8,0-29.8c0.8,0,1.7,0,2.7,0C75.8,175.1,75.8,184.9,75.8,195z" />
			<path d="M76.8,196h-4.7v-31.8h4.7V196z M74,194h0.7v-27.8H74V194z" />
		</g>
		<g>
			<path d="M81.8,194.9c-1,0-1.8,0-2.8,0c0-10,0-19.9,0-29.8c0.9,0,1.8,0,2.8,0C81.8,175,81.8,184.9,81.8,194.9z" />
			<path d="M82.8,195.9H78v-31.8h4.8V195.9z M80,193.9h0.8v-27.8H80V193.9z" />
		</g>
		<g>
			<path d="M106,165.1c1,0,1.8,0,2.8,0c0,10,0,19.9,0,29.8c-0.9,0-1.8,0-2.8,0C106,185.1,106,175.2,106,165.1z" />
			<path d="M109.8,196H105v-31.8h4.8V196z M107,194h0.8v-27.8H107V194z" />
		</g>
	</g>
</svg>