<?xml version="1.0" encoding="utf-8"?>
<!-- Generator: Adobe Illustrator 22.1.0, SVG Export Plug-In . SVG Version: 6.00 Build 0)  -->
<svg version="1.1" id="Слой_1" xmlns="http://www.w3.org/2000/svg" xmlns:xlink="http://www.w3.org/1999/xlink" x="0px" y="0px"
	 viewBox="0 0 383.8 384" style="enable-background:new 0 0 383.8 384;" xml:space="preserve">
<g>
	<path d="M383.8,47.2c-0.7,1.6-1.3,3.2-2.2,4.7C377.8,59,371.6,62,363.7,62c-12.7,0-25.5,0-38.2,0c-1.4,0-2.7,0-4.7,0
		c-11.6,61.7-23.1,123.4-34.8,185.7c3.3,0,6.2,0,9.1,0c9.5,0,14.4,4.9,14.4,14.3c0,15.5,0,31,0,46.5c0,0.2,0.1,0.5,0.3,1.3
		c1.2,0,2.5,0,3.8,0c10.7,0,21.5,0,32.2,0c8,0,13.1,5.1,13.1,13.2c0.1,16,0.1,32,0,48c0,8-5.2,13.1-13.2,13.1
		c-98.9,0-197.7,0-296.6,0c-10.5,0-18.2-7-18.9-17.4c-1.2-19.7-1.9-39.4-2.8-59.2c-0.8-18.6-1.7-37.2-2.4-55.8
		c-0.1-2.6-0.7-3.9-3.6-4.4c-5.1-0.9-8.7-5.4-9.1-10.6c-0.3-4.5-0.3-9-0.1-13.5c0.3-7.7,5.2-12.3,13-12.5c1,0,2,0,3.5,0
		c-0.3-1.6-0.5-2.8-0.9-4.1c-8.9-34-18-68-26.7-102.1c-1.1-4.2-1.5-9-0.9-13.3c1.3-9.5,9.4-16.4,18.8-16.8
		c9.4-0.5,17.8,5.5,20.5,14.9c3.6,12.7,7,25.5,10.5,38.3c7.3,26.6,14.5,53.2,21.8,79.8c0.3,1.2,1.5,3.2,2.2,3.2
		c1.6,0,3.4-0.8,4.7-1.8c4.2-3.3,8.3-6.9,13.3-11.1c-1.5-15.2-3.2-32-4.9-48.6c-9.9-2-13-5.8-13-15.5c0-3.1-0.1-6.3,0-9.4
		c0.2-6.8,4.4-11.4,11.1-12.6c1.1-0.2,2.6-1.4,2.9-2.5c4.1-15.6,13.5-26.4,28.3-32.8c1.1-0.5,2.3-1.9,2.6-3.1
		c3.5-12.4,10.8-21.5,22.1-27.5c1.3-0.7,2.5-2.1,3-3.4c5.6-13.6,15.1-23,28.8-28.3c0.9-0.3,2-0.7,2.5-1.5C179.6,5.8,186,2.3,193.3,0
		c3,0,6,0,9,0c11,2.6,17.9,9.8,21.9,20c0.3,0.8,0.9,1.5,1.2,2.3c0.8,2.4,2.5,3.7,4.9,4.6c10.9,4.2,19.6,11.3,24.6,21.8
		c2.8,5.7,6.4,9.2,11.9,12.1c5.2,2.7,9.4,7.1,14,10.8c0-0.2,0.2-0.6,0.2-1.1c2.7-14.2,5.2-28.5,8-42.7c1.9-9.6,8.7-15.4,18.3-15.5
		c19.2-0.1,38.5-0.1,57.7,0c8.5,0.1,14.7,4.7,17.7,12.6c0.3,0.7,0.6,1.3,0.9,1.9C383.8,33.8,383.8,40.5,383.8,47.2z M266.8,148.9
		c-56,0-111.5,0-167.2,0c1.6,16.2,3.1,32.1,4.9,48c0.1,1,1.5,2,2.4,2.7c3.8,2.9,8,5.4,11.5,8.6c1.7,1.5,2.9,2.5,5.3,2.5
		c16.4-0.1,32.7-0.1,49.1,0c7.4,0,12.5,4.9,12.8,12.3c0.1,3,0,6,0,9c0,10.1-2.7,13.6-12.7,16.2c-0.9,20.3-1.9,40.7-2.8,61.3
		c9.4,0,18.4,0,27.8,0c0-1.6,0-2.9,0-4.2c0-14.5,0-29,0-43.5c0-9.1,5-14.1,14.2-14.1c9.7,0,19.5,0,29.2,0c2.3,0,4.7,0,7.2,0
		C254.7,214.6,260.7,181.9,266.8,148.9z M148.4,371.6c0-1.7,0-3.1,0-4.4c0-14.6,0-29.2,0-43.9c0-5.6,2.3-9.8,7.3-12.6
		c1.1-0.6,2.1-2.4,2.1-3.7c0.9-18.3,1.7-36.7,2.5-55.1c0.1-1.3,0-2.7,0-3.8c-0.6-0.3-0.8-0.4-1.1-0.4c-17.5,0-35,0-52.5-0.1
		c-2.4,0-2.5,1.4-2.7,3.1c-5.3,39.6-23.5,72.1-55,96.7c-5.5,4.3-7.6,8.3-6.8,15.1c0.9,7.3,2,9,9.3,9c30.7,0,61.5,0,92.2,0
		C145.3,371.6,146.6,371.6,148.4,371.6z M100.4,111.6c1.9,0,3.2,0,4.5,0c26.7,0,53.5,0,80.2,0c28,0,56-0.1,84,0.1
		c3.5,0,5.2-0.6,5.5-4.5c0.2-3.5,1.6-6.8,1.8-10.3c0.2-2.9,0.1-6.1-0.9-8.6c-4.4-10.8-12.5-17.5-23.7-20.4c-2-0.5-3.2-1.2-3.7-3.4
		c-3.7-14.4-12.8-23.6-27.2-27.6c-1.2-0.3-2.6-1.5-3.2-2.6c-2.3-4.1-4.4-8.4-6.4-12.7c-2.6-5.5-6.8-9-13.1-9
		c-6.3,0-10.4,3.4-13.2,8.9c-0.7,1.3-2.3,2.7-3.7,3.1c-14.3,4-23.1,13.1-27,27.4c-0.3,1.2-1.5,2.7-2.6,3
		c-11.9,4-18.9,12.3-21.1,24.5c-0.8,4.3-2.5,6.5-7.2,7.9C111.5,90.8,104,99.1,100.4,111.6z M210.6,309.5c28.9,0,57.5,0,86.1,0
		c0-16.5,0-32.8,0-49.1c-28.9,0-57.4,0-86.1,0C210.6,276.8,210.6,293,210.6,309.5z M161.1,322.2c0,16.5,0,32.7,0,49.1
		c28.8,0,57.4,0,86.2,0c0-16.5,0-32.7,0-49.1C218.6,322.2,190,322.2,161.1,322.2z M260.2,371.3c28.9,0,57.4,0,86.1,0
		c0-16.5,0-32.7,0-49.1c-28.9,0-57.4,0-86.1,0C260.2,338.6,260.2,354.8,260.2,371.3z M41.4,338.2c29.3-23.9,45.8-53.7,50.7-90.3
		c-18.4,0-36.5,0-54.8,0C38.7,277.9,40,307.5,41.4,338.2z M86.8,136.3c1.7,0,3.1,0,4.6,0c57.7,0,115.5,0,173.2,0
		c0.7,0,1.6,0.2,2.2-0.1c1-0.5,2.5-1.3,2.7-2.2c0.8-3.2,1.3-6.6,1.9-10c-61.6,0-123,0-184.5,0C86.8,128.2,86.8,132,86.8,136.3z
		 M295.4,62.2c-11.4,61.9-22.7,123.5-34.1,185.3c4.3,0,8.2,0,12.2,0c11.6-61.8,23.1-123.4,34.7-185.3
		C303.7,62.2,299.8,62.2,295.4,62.2z M59.7,210.6c-0.3-1.4-0.5-2.5-0.8-3.6c-7.8-28.6-15.6-57.3-23.5-85.9c-2.6-9.5-5.1-19-7.9-28.5
		c-1.2-4.2-4.4-6.2-8.5-5.8c-3.9,0.4-6.6,3.3-6.8,7.6c-0.1,2.2,0.1,4.5,0.7,6.7c4.6,18,9.4,36,14.1,53.9c4.6,17.5,9.2,35,13.9,52.4
		c0.3,1.2,1.5,3,2.4,3C48.8,210.8,54.1,210.6,59.7,210.6z M297.7,49.5c23,0,45.4,0,67.9-0.1c3.4,0,5.6-2.5,5.7-6.2c0.2-4,0.2-8,0-12
		c-0.2-4.2-2.4-6.5-6.6-6.5c-19-0.1-38-0.1-56.9,0c-3.6,0-5.8,1.9-6.5,5.5C300.1,36.5,299,42.8,297.7,49.5z M24.8,235.2
		c17.6,0,34.8,0,52.2,0c-1.1-4.1-2.2-8-3.4-12.1c-16.1,0-32.4,0-48.8,0C24.8,227.2,24.8,231,24.8,235.2z M173,223.2
		c-16.7,0-32.9,0-48.8,0c-1.2,4.3-2.2,8.2-3.3,12c17.4,0,34.6,0,52.1,0C173,231.1,173,227.2,173,223.2z M98.9,210.7
		c-6.9,0-12.3,5.4-12.3,12.3c0,6.8,5.6,12.4,12.3,12.4c6.7,0,12.4-5.7,12.4-12.4C111.3,216.1,105.8,210.7,98.9,210.7z"/>
	<path d="M148.2,98.9c-4.1,0-7.8,0-11.5,0c-2-11.9,10.3-24.5,24.2-24.4c0,3.5,0.1,7.1-0.1,10.6c0,0.6-0.9,1.6-1.5,1.7
		C152.5,88,149.3,92.4,148.2,98.9z"/>
	<path d="M235.4,98.8c-1.1-6.5-4.3-10.9-11.1-12.1c-0.6-0.1-1.4-1.3-1.5-2.1c-0.2-3.3-0.1-6.7-0.1-10c12.6-1.3,25.1,11,24.5,24.1
		C243.4,98.8,239.6,98.8,235.4,98.8z"/>
	<path d="M197.7,37.6c0,3.8,0,7.6,0,11.7c-7,1.1-11.4,5-12.3,12.5c-4,0-8,0-11.9,0C172.5,49.1,185,36.6,197.7,37.6z"/>
</g>
</svg>
