<?xml version="1.0" encoding="utf-8"?>
<!-- Generator: Adobe Illustrator 22.1.0, SVG Export Plug-In . SVG Version: 6.00 Build 0)  -->
<svg version="1.1" id="Слой_1" xmlns="http://www.w3.org/2000/svg" xmlns:xlink="http://www.w3.org/1999/xlink" x="0px" y="0px"
	 viewBox="0 0 384.1 346.8" style="enable-background:new 0 0 384.1 346.8;" xml:space="preserve">
<g>
	<path d="M384.1,284.4c-0.6,2.2-1,4.4-1.7,6.5c-4,12.3-11.9,21-23.9,25.6c-2.5,1-3.1,2.1-3,4.6c0.2,5,0.1,10,0,15
		c-0.1,7-3.7,10.6-10.7,10.7c-17.9,0.1-35.7,0-53.6,0c-4.6,0-7-1.9-7.1-5.4c-0.1-3.6,2.5-5.8,7.1-5.8c16.1,0,32.2,0,48.4,0
		c1.4,0,2.7,0,4.4,0c0-5.4,0-10.6,0-16c-101.2,0-202.4,0-303.7,0c0,5.3,0,10.4,0,16c1.6,0,3.2,0,4.8,0c71.7,0,143.5,0,215.2,0
		c1.6,0,3.3,0,4.8,0.4c2.7,0.8,4,2.9,3.8,5.7c-0.2,2.8-1.9,4.6-4.7,5c-1.2,0.2-2.5,0.1-3.7,0.1c-73.1,0-146.2,0-219.4,0
		c-9,0-12.2-3.2-12.2-12.1c0-4.6-0.1-9.3,0.1-13.9c0.1-2.4-0.7-3.4-3-4.3c-15.5-6.4-24.2-18.1-25.6-34.8
		c-1.5-18.5,4.5-33.5,21.6-42.6c4.3-2.3,9.3-3.4,14.8-5.3c0-0.7,0-2.1,0-3.6c0-20.9,0-41.7,0-62.6c0-7.8,2.5-10.4,10.3-10.4
		c23.7,0,47.5,0,71.2,0c7.4,0,10.1,2.8,10.1,10.3c0,4.9,0.1,9.8,0,14.6c-0.1,4.1-2.2,6.5-5.6,6.6c-3.5,0-5.5-2.3-5.6-6.5
		c-0.1-4.4,0-8.7,0-13.4c-23.1,0-45.9,0-68.9,0c0,21.8,0,43.5,0,65.5c22.9,0,45.7,0,68.9,0c0-6.7,0-13.3,0-19.9c0-1.5,0-3,0-4.5
		c0.2-3.7,2.1-5.9,5.3-6c3.3-0.1,5.7,2.1,5.9,5.9c0.2,5.5,0.1,11,0.1,16.5c0,2.6,0,5.2,0,8c6.2,0,12,0,18.1,0c0-1.6,0-2.9,0-4.3
		c0-21,0-42,0-63c0-7,2.7-9.8,9.7-9.8c24,0,48,0,72,0c7.2,0,9.9,2.8,9.9,10.1c0,20.9,0,41.7,0,62.6c0,1.4,0,2.7,0,4.4
		c6,0,11.8,0,18.1,0c0-1.5,0-3,0-4.5c0-20.6,0-41.2,0-61.9c0-8.2,2.6-10.7,10.8-10.7c19.7,0,39.5,0,59.2,0c1.5,0,2.9,0,4.7,0
		c0-6.8,0-13.2,0-19.5c0-5.4,0-10.7,0-16.1c0-9.3,2.4-12.7,11.2-15.9c0-22.7,0-45.4,0-68.6c-1.5,0-2.9,0-4.2,0c-12,0-24,0-36,0
		c-4.8,0-7.2-2-7.2-5.7c0.1-3.6,2.6-5.6,7.4-5.6c11.1,0,22.2,0,33.5,0c0-2.6,0-4.9,0-7.8c-1.2,0-2.5,0-3.8,0c-51.5,0-103,0-154.5,0
		c-1.1,0-2.5-0.4-3.3,0.2c-1.4,0.9-3.2,2.4-3.2,3.7c0,1.3,1.8,2.9,3.1,3.8c0.9,0.6,2.4,0.2,3.7,0.2c31.2,0,62.5,0,93.7,0
		c1.5,0,3,0,4.4,0.4c2.8,0.8,4,2.9,3.8,5.7c-0.2,2.8-1.9,4.6-4.7,5c-1.2,0.2-2.5,0.1-3.7,0.1c-19,0-38,0-57,0c-1.4,0-2.7,0-4.3,0
		c0,16.9,0,33.4,0,50.7c1.9,0,3.8-0.1,5.8,0c5.5,0.3,9,3.8,9.1,9.4c0.1,7.4,0.1,14.8,0,22.1c-0.1,5.5-3.6,9.3-9.1,9.3
		c-15.4,0.2-30.7,0.2-46.1,0c-5.7-0.1-9.3-3.8-9.4-9.5c-0.1-7.1-0.1-14.2,0-21.4c0.1-6.4,3.6-9.8,10.1-10c1.6,0,3.2,0,4.9,0
		c0-17,0-33.6,0-50.4c-1.2-0.2-2.3-0.2-3.4-0.4c-7.5-1.3-12.7-8.1-12.3-16c0.4-7.5,6.5-13.6,14-14c1.6-0.1,3.2-0.1,4.9-0.1
		c53.2,0,106.5,0,159.7-0.1c2.1,0,4.6-0.9,6.3-2.2c8.8-6.5,21-5.8,28.8,1.9c7.8,7.8,8.6,19.9,2.1,28.8c-1.3,1.7-2.2,4.2-2.2,6.3
		c-0.2,20-0.1,40-0.1,60c0,1.4,0,2.7,0,4.3c5.9,1.1,9.2,4.9,11.4,9.9C384.1,171.9,384.1,228.1,384.1,284.4z M191.9,307.9
		c49.9,0,99.7,0,149.6-0.1c3.9,0,8.1-0.3,11.8-1.5c12.7-4,19.6-14.9,19.5-30.3c0-17.9-11.9-30.2-29.6-30.2
		c-100.7-0.1-201.5-0.1-302.2,0.1c-4.3,0-8.8,0.8-12.7,2.6C13,255.2,8.2,271,12.8,287.8c3.5,12.7,14.6,20.1,28.8,20.1
		C91.7,308,141.8,307.9,191.9,307.9z M267.5,168.7c0,21.9,0,43.6,0,65.6c23,0,45.7,0,68.7,0c0-21.9,0-43.7,0-65.6
		c-5.6,0-10.9,0-16.5,0c0,8.9,0,17.5,0,26.1c0,5.9-2.9,8.7-8.8,8.8c-6.1,0.1-12.2,0.1-18.4,0c-5.5-0.1-8.3-2.9-8.4-8.4
		c-0.1-7.5,0-15,0-22.5c0-1.3-0.1-2.6-0.2-4C278.2,168.7,272.9,168.7,267.5,168.7z M226.4,234.3c0-22,0-43.8,0-65.5
		c-5.6,0-10.8,0-16.4,0c0,8.8,0.1,17.3,0,25.8c0,6.1-3,9-8.9,9.1c-6,0.1-12,0.1-18,0c-5.8-0.1-8.7-3-8.8-8.8c-0.1-4.9,0-9.7,0-14.6
		c0-3.8,0-7.6,0-11.4c-5.9,0-11.2,0-16.4,0c0,22,0,43.7,0,65.5C180.8,234.3,203.6,234.3,226.4,234.3z M372.4,245.9
		c0.2-0.4,0.3-0.5,0.3-0.6c0-41.7,0-83.4,0.1-125.2c0-2.5-1.1-3.2-3.4-3.2c-8,0.1-16,0.1-24,0c-2.6,0-3.5,0.9-3.5,3.5
		c0.1,11.5,0,23,0.1,34.5c0,1,0.3,2.5,1,2.9c4.2,2.3,4.6,6.1,4.6,10.3c-0.1,20.7,0,41.5,0,62.2c0,1.4,0.1,2.9,0.2,4.2
		C358.9,236.5,362.2,238.1,372.4,245.9z M171.2,117.1c14.1,0,27.9,0,41.8,0c0-6.2,0-12.1,0-18c-14,0-27.8,0-41.8,0
		C171.2,105.2,171.2,111,171.2,117.1z M197.8,87.4c0-17,0-33.5,0-50.2c-3.9,0-7.6,0-11.3,0c0,16.8,0,33.4,0,50.2
		C190.4,87.4,193.9,87.4,197.8,87.4z M353.7,43.8c0,20.7,0,41.1,0,61.7c2.6,0,5,0,7.6,0c0-20.7,0-41.1,0-61.7
		C358.7,43.8,356.3,43.8,353.7,43.8z M357.5,11.3c-5.9,0-10.8,4.8-10.8,10.6c0,5.7,4.7,10.5,10.4,10.6c6,0.1,10.8-4.5,10.9-10.4
		C368.2,16.2,363.4,11.3,357.5,11.3z M185.7,168.6c0,8,0,15.7,0,23.4c4.4,0,8.6,0,12.8,0c0-7.9,0-15.6,0-23.4
		C194.2,168.6,190.1,168.6,185.7,168.6z M308.1,192.2c0-7.9,0-15.7,0-23.4c-4.3,0-8.4,0-12.8,0c0,4.1,0,8,0,11.8c0,3.8,0,7.6,0,11.6
		C299.9,192.2,304,192.2,308.1,192.2z"/>
	<path d="M361.1,277c-0.1,12.2-9.8,21.8-22,21.7c-12.1-0.1-21.8-9.8-21.7-22c0.1-12.1,9.8-21.7,22-21.7
		C351.5,255.1,361.1,264.8,361.1,277z M349.8,276.8c0-6-4.7-10.6-10.7-10.5c-5.8,0.1-10.4,4.7-10.5,10.4
		c-0.1,5.9,4.6,10.7,10.6,10.7C345.2,287.5,349.8,282.8,349.8,276.8z"/>
	<path d="M103.8,298.7c-12.1,0-21.9-9.8-21.9-21.9c0-12.1,9.9-21.8,22-21.8c12.1,0,21.9,9.8,21.9,21.9
		C125.7,289,115.9,298.8,103.8,298.7z M103.7,287.5c6,0.1,10.7-4.5,10.8-10.5c0-5.8-4.5-10.5-10.3-10.6c-5.9-0.2-10.9,4.4-11,10.3
		C93,282.5,97.8,287.4,103.7,287.5z"/>
	<path d="M44.8,298.7c-12.1-0.1-21.8-9.8-21.7-22c0.1-12.2,9.8-21.7,22-21.7c12.1,0.1,21.8,9.8,21.7,22
		C66.8,289.2,57,298.8,44.8,298.7z M44.9,266.3c-6,0-10.6,4.8-10.5,10.8c0.1,5.8,4.7,10.4,10.5,10.4c5.9,0,10.7-4.7,10.7-10.6
		C55.6,271,50.9,266.3,44.9,266.3z"/>
	<path d="M280.5,298.7c-12.1,0.1-21.9-9.6-22-21.7c-0.1-12.1,9.7-21.9,21.8-21.9c12.1,0,22,9.7,22,21.7
		C302.4,288.8,292.6,298.7,280.5,298.7z M280.3,266.3c-6,0-10.7,4.8-10.6,10.7c0.1,5.8,4.7,10.4,10.5,10.4
		c5.9,0.1,10.8-4.7,10.8-10.5C291.1,271.1,286.2,266.3,280.3,266.3z"/>
	<path d="M162.8,298.7c-12.2,0-21.9-9.6-21.9-21.8c0-12.2,9.6-21.9,21.8-21.9c12.2,0,21.9,9.7,22,21.8
		C184.6,288.9,174.9,298.7,162.8,298.7z M162.7,287.5c5.9,0,10.7-4.8,10.6-10.7c0-5.9-4.9-10.6-10.8-10.5
		c-5.8,0.1-10.4,4.6-10.4,10.5C152.1,282.8,156.7,287.5,162.7,287.5z"/>
	<path d="M221.6,255c12.2,0,21.9,9.7,21.8,21.9c0,12.2-9.7,21.8-21.9,21.8c-12.1,0-21.9-9.8-21.9-21.9
		C199.6,264.7,209.4,255,221.6,255z M221.6,266.3c-5.9,0-10.7,4.7-10.7,10.6c0,5.9,4.8,10.6,10.7,10.6c5.8,0,10.4-4.6,10.5-10.4
		C232.2,271.1,227.6,266.3,221.6,266.3z"/>
</g>
</svg>
