<?xml version="1.0" encoding="utf-8"?>
<!-- Generator: Adobe Illustrator 22.1.0, SVG Export Plug-In . SVG Version: 6.00 Build 0)  -->
<svg version="1.1" id="Слой_1" xmlns="http://www.w3.org/2000/svg" xmlns:xlink="http://www.w3.org/1999/xlink" x="0px" y="0px"
	 viewBox="0 0 372.6 376.3" style="enable-background:new 0 0 372.6 376.3;" xml:space="preserve">
<g>
	<path d="M127.4,195.1c-0.6,1.2-1,2.7-2,3.6c-12.9,12.9-25.7,25.9-38.8,38.6c-11.9,11.6-31.2,6.4-35.6-9.5c-0.8-2.8-0.8-5.9-0.8-8.9
		c-0.1-8.3,0-16.7,0-24.9c-5.2-0.7-10.1-0.9-14.7-2.1c-20.4-4.9-35.1-23-35.2-44C0,113.8-0.1,79.7,0.2,45.6
		C0.4,20,21.3,0.1,47.7,0.1C89.5,0,131.4,0,173.3,0.1c9.7,0,19.5-0.3,29.2,0.6c22.9,2.2,40.6,21.7,40.9,44.8
		c0.3,27.4,0.1,54.7,0.1,82.1c0,1.5,0,3,0,5.1c1.6,0,3.1,0,4.5,0c25.7,0,51.5-0.1,77.2,0c23.8,0.1,42.7,16,46.7,39.4
		c0.5,3.1,0.5,6.2,0.5,9.3c0,31.9-0.5,63.8,0.2,95.6c0.6,26.5-20.1,49.2-47.6,49.1c-0.7,0-1.5,0.1-2.6,0.2c0,1.6,0,3.1,0,4.5
		c0,8.4,0.2,16.8-0.2,25.1c-0.4,8.9-5.1,15.4-13.4,18.6c-8.5,3.3-16.3,1.7-22.8-4.7c-13.8-13.6-27.5-27.3-41.2-41
		c-2-2-3.9-2.9-6.8-2.9c-20.6,0.1-41.2,0.2-61.9,0c-23.5-0.1-42.4-16.2-46.5-39.3c-0.5-3.1-0.5-6.2-0.5-9.3c0-25.6,0-51.2,0-76.9
		c0-1.4,0-2.7,0-4.1C128.5,196,127.9,195.5,127.4,195.1z M122,18c-24.6,0-49.2-0.1-73.8,0c-16.9,0.1-29.8,11.6-29.9,27.6
		C18,79.8,18,113.9,18.2,148c0.1,13.2,9.6,24.3,22.6,26.7c5.2,0.9,10.7,0.7,16,0.7c8.1,0.1,11.3,3.2,11.3,11.4c0,10.5,0,21,0,31.5
		c0,2.5-1,5.6,2.2,6.9c3.1,1.3,4.4-1.6,6.1-3.3c14.1-13.9,28.1-27.7,42-41.8c3.3-3.3,6.8-4.9,11.6-4.9c21.6,0.2,43.2,0.1,64.8,0.1
		c18.6,0,30.5-11.9,30.5-30.4c0-32.2,0-64.5,0-96.7c0-2.4,0-4.8-0.5-7.1c-2.8-14-14.3-23.1-29.5-23.2C170.9,18,146.5,18,122,18z
		 M147.3,193.4c-0.1,1.4-0.2,2.3-0.2,3.3c0,27.4,0,54.7,0,82.1c0,2.2,0.1,4.5,0.6,6.7c3,13.4,14.3,22.5,28.5,22.5
		c22.1,0.1,44.2,0.1,66.4-0.1c4.8,0,8.3,1.5,11.6,4.8c14.2,14.4,28.6,28.6,43.1,42.8c1.2,1.2,3.8,2.4,4.9,1.9
		c1.2-0.5,1.7-3.1,2.2-4.9c0.3-1.2,0.1-2.5,0.1-3.7c0-10.2-0.1-20.5,0-30.7c0.1-6.7,3.4-10,9.9-10.1c3.1,0,6.2,0,9.4,0
		c18.8,0,30.7-11.9,30.8-30.6c0-32.1,0-64.2,0-96.3c0-2.5,0-5-0.5-7.5c-2.8-13.7-14.2-22.9-28.5-23c-26.5-0.1-53,0-79.5,0
		c-0.8,0-1.7,0.2-2.5,0.2c-0.1,0.7-0.2,1.2-0.3,1.6c-4.8,26.1-22.6,40.8-49.2,40.9c-14.1,0-28.2,0-42.4,0
		C150.1,193.4,148.8,193.4,147.3,193.4z"/>
	<path d="M121.2,46.5c5.5,1.6,11.8,2.6,17.3,5.2c11.6,5.6,15.8,18.1,9.6,29.4c-3,5.5-7.6,10.5-12.4,14.8c-5.6,5-9.3,10.2-8.8,18
		c0.2,4.3-2.1,6.1-7.4,6.4c-5.2,0.3-7.8-1.2-8.3-5.4c-1.4-10.2,1.2-19,9.4-25.8c3.1-2.6,6.2-5,9-7.9c3-3.1,4.4-7,2.7-11.4
		c-1.7-4.3-5.5-5.6-9.6-6c-6.5-0.7-12,0.9-15.8,6.9c-2.5,4-5.7,4.7-9.6,2.9c-3.6-1.7-5.3-5.2-4.3-9.4c1.6-6.9,6.4-11.3,12.7-13.8
		C110.3,48.6,115.4,47.9,121.2,46.5z"/>
	<path d="M119,127.2c5.2,0.1,9.5,4.5,9.4,9.6c-0.2,5.1-4.7,9.4-9.8,9.3c-5-0.1-9.1-4.4-9.1-9.5C109.5,131.3,113.6,127.2,119,127.2z"
		/>
	<path d="M208.2,229.3c0.1,7.4-5.9,13.4-13.1,13.5c-7.3,0-13.3-6-13.3-13.3c0-7.2,5.8-13.1,13-13.3
		C202,215.9,208.2,221.9,208.2,229.3z"/>
	<path d="M319.8,229.3c0,7.3-6,13.4-13.3,13.4c-7.3,0-13.3-6.1-13.2-13.4c0-7.2,5.8-13.1,13-13.2C313.5,216,319.7,222.1,319.8,229.3
		z"/>
	<path d="M264.1,229.6c-0.1,7.2-6.4,13.3-13.5,13.2c-7.3-0.2-13.3-6.5-13.1-13.6c0.2-7.1,6.3-13,13.4-13
		C258,216.2,264.2,222.4,264.1,229.6z"/>
</g>
</svg>
