<?xml version="1.0" encoding="utf-8"?>
<!-- Generator: Adobe Illustrator 22.1.0, SVG Export Plug-In . SVG Version: 6.00 Build 0)  -->
<svg version="1.1" id="Слой_1" xmlns="http://www.w3.org/2000/svg" xmlns:xlink="http://www.w3.org/1999/xlink" x="0px" y="0px"
	 viewBox="0 0 370.7 355.3" style="enable-background:new 0 0 370.7 355.3;" xml:space="preserve">
<g>
	<path d="M240.9,288.2c5.7,11.3,10.8,21.6,16.2,31.9c0.5,0.9,2.1,1.5,3.3,1.5c6.6,0.1,13.2,0,19.9,0.1c5.1,0,6.8,1.7,6.9,6.7
		c0.1,6.6,0.1,13.2,0,19.9c0,5.3-1.7,7-7,7c-63.2,0-126.5,0-189.7,0c-5,0-6.7-1.7-6.8-6.8c-0.1-6.7-0.1-13.5,0-20.2
		c0.1-4.8,1.8-6.5,6.7-6.5c6.6,0,13.2,0.1,19.9-0.1c1.2,0,3.1-0.7,3.6-1.7c5.2-10.1,10.3-20.3,15.3-30.4c0.1-0.2,0-0.5,0-1.4
		c-1.4,0-2.8,0-4.3,0c-32.6,0-65.2,0-97.9,0c-13.8,0-23.8-7.7-26.5-20.2c-0.5-2.2-0.5-4.5-0.5-6.7c0-78.1,0-156.2,0-234.3
		C0,10.6,10.6,0,27,0c105.6,0,211.2,0,316.8,0c16.2,0,26.9,10.6,26.9,26.7c0,78.2,0,156.5,0,234.7c0,16.2-10.5,26.7-26.7,26.7
		c-32.6,0.1-65.2,0-97.9,0C244.7,288.2,243.2,288.2,240.9,288.2z M360.7,230.9c0-1.8,0-3.1,0-4.5c0-66.1,0-132.2,0-198.4
		c0-11.9-5.8-17.7-17.7-17.7c-105.1,0-210.2,0-315.3,0c-11.7,0-17.6,5.8-17.6,17.4c0,66.4,0,132.7,0,199.1c0,1.3,0.1,2.6,0.2,4
		C127.2,230.9,243.6,230.9,360.7,230.9z M10.1,241.6c0,6.2,0,12.2,0,18.1c0,12.7,5.6,18.4,18.2,18.4c104.7,0,209.5,0,314.2,0
		c1.2,0,2.5,0,3.7,0c6.4-0.4,12.9-4.5,13.5-10.5c0.9-8.6,0.2-17.3,0.2-26C243.6,241.6,127,241.6,10.1,241.6z M124.5,321.5
		c40.8,0,81,0,121.7,0c-5.4-10.7-10.5-21.1-15.9-31.4c-0.5-0.9-2.1-1.7-3.2-1.7c-27.9-0.1-55.7-0.1-83.6,0c-1,0-2.6,0.6-3,1.5
		C135.2,300.2,130,310.7,124.5,321.5z M276.7,332.4c-61.1,0-121.8,0-182.6,0c0,4.3,0,8.4,0,12.4c61,0,121.7,0,182.6,0
		C276.7,340.6,276.7,336.6,276.7,332.4z"/>
	<path d="M29,93.5c0-35.2,28.8-64.3,63.7-64.3c35.8,0,64.9,28.8,64.9,64.3c0,35.5-29.1,64.4-64.5,64.2C57.6,157.6,29,128.9,29,93.5z
		 M52.4,128.2c0.3-0.2,0.7-0.3,0.9-0.6c11.6-11.5,23.2-23.1,34.6-34.7c1-1,1.5-2.8,1.5-4.3c0.1-15.2,0.1-30.4,0.1-45.7
		c0-1.1-0.2-2.1-0.2-3.1C70.3,39.9,50.5,54.5,43,73.7C35.6,92.3,39.8,116.5,52.4,128.2z M59.8,135.6c15.6,13.5,39.9,15.8,58.8,5.8
		c16.2-8.6,29.8-29.2,28.1-42.5c-0.2-0.1-0.5-0.2-0.7-0.2c-11,0-22-0.1-33-0.1c-5.4,0-11.3-1.3-15.9,0.6c-4.6,1.9-7.9,7-11.7,10.8
		C76.9,118.4,68.4,126.9,59.8,135.6z M146.9,88.2c-0.8-23.4-23-46.1-46.9-48.1c0,16,0,32,0,48.1C115.8,88.2,131.4,88.2,146.9,88.2z"
		/>
	<path d="M256.5,140.1c0-21.5,0-43,0-64.5c0-6.1,1.4-7.5,7.5-7.5c8.1,0,16.2,0,24.4,0c4.5,0,6.4,1.8,6.4,6.4c0,43.7,0,87.4,0,131.2
		c0,4.7-1.8,6.5-6.6,6.5c-8.4,0-16.7,0-25.1,0c-4.8,0-6.5-1.6-6.5-6.6C256.5,183.8,256.5,162,256.5,140.1z M266.9,78.6
		c0,41.1,0,82,0,123c5.9,0,11.6,0,17.3,0c0-41.2,0-82.1,0-123C278.3,78.6,272.7,78.6,266.9,78.6z"/>
	<path d="M201.1,169.6c0,12,0,24,0,36c0,5-1.7,6.7-6.7,6.7c-8.4,0-16.7,0-25.1,0c-4.6,0-6.4-1.8-6.4-6.3c0-24.4,0-48.7,0-73.1
		c0-4.6,1.7-6.3,6.4-6.3c8.5,0,17,0,25.5,0c4.6,0,6.3,1.7,6.3,6.3C201.1,145.1,201.1,157.3,201.1,169.6z M173.4,136.8
		c0,21.7,0,43.3,0,64.9c5.9,0,11.5,0,17.2,0c0-21.8,0-43.3,0-64.9C184.7,136.8,179.2,136.8,173.4,136.8z"/>
	<path d="M341.5,169.4c0,12,0,24,0,36c0,5.3-1.5,6.8-6.9,6.9c-8.2,0-16.5,0-24.7,0c-4.8,0-6.5-1.8-6.6-6.6c0-24.2,0-48.5,0-72.7
		c0-4.8,1.8-6.4,6.6-6.5c8.4,0,16.7,0,25.1,0c4.9,0,6.4,1.6,6.5,6.6C341.5,145.2,341.5,157.3,341.5,169.4z M313.7,201.6
		c6,0,11.7,0,17.2,0c0-21.9,0-43.4,0-64.8c-5.9,0-11.5,0-17.2,0C313.7,158.5,313.7,179.9,313.7,201.6z"/>
	<path d="M247.9,186.9c0,6.2,0,12.5,0,18.7c0,4.9-1.7,6.6-6.4,6.6c-8.5,0-17,0-25.4,0c-4.4,0-6.3-1.7-6.3-6.1
		c-0.1-12.8-0.1-25.7,0-38.5c0-4.5,1.9-6.3,6.5-6.3c8.5-0.1,17-0.1,25.4,0c4.4,0,6.2,1.8,6.2,6.1
		C247.9,173.9,247.9,180.4,247.9,186.9z M237.5,201.7c0-10.1,0-20,0-29.8c-6,0-11.7,0-17.4,0c0,10.1,0,19.9,0,29.8
		C226,201.7,231.7,201.7,237.5,201.7z"/>
	<path d="M83.9,191.9c-15.6,0-31.2,0-46.8,0c-1.1,0-2.3,0.1-3.4-0.1c-2.6-0.4-4.4-1.8-4.6-4.6c-0.2-2.9,1.3-4.8,4.1-5.4
		c1.2-0.3,2.5-0.2,3.7-0.2c31.2,0,62.4,0,93.6,0c5.5,0,8,1.6,8.1,5.1c0,3.5-2.6,5.2-7.9,5.2C115.1,191.9,99.5,191.9,83.9,191.9z"/>
	<path d="M64.5,212.2c-9.6,0-19.2,0-28.8,0c-4.3,0-6.5-1.7-6.6-4.9c-0.1-3.3,2.3-5.3,6.7-5.3c19.1,0,38.2,0,57.3,0
		c4.3,0,6.6,1.8,6.7,5c0.1,3.2-2.4,5.2-6.8,5.2C83.5,212.2,74,212.2,64.5,212.2z"/>
	<path d="M191.2,259.7c0,3.1-2.5,5.7-5.7,5.8c-3.3,0.1-6.1-2.6-6-5.8c0.1-3.1,2.7-5.6,5.8-5.6C188.6,254,191.1,256.5,191.2,259.7z"
		/>
</g>
</svg>
