<?xml version="1.0" encoding="utf-8"?>
<!-- Generator: Adobe Illustrator 22.1.0, SVG Export Plug-In . SVG Version: 6.00 Build 0)  -->
<svg version="1.1" id="Слой_1" xmlns="http://www.w3.org/2000/svg" xmlns:xlink="http://www.w3.org/1999/xlink" x="0px" y="0px"
	 viewBox="0 0 346.8 427.1" style="enable-background:new 0 0 346.8 427.1;" xml:space="preserve">
<g>
	<path d="M72.6,427.1c-2.8-0.8-5.6-1.4-8.3-2.3c-20.4-6.3-34.7-25.5-35.8-48c-0.1-2.4-0.1-4.7-0.1-7.1c0-79.2,0-158.4,0.1-237.6
		c0-3.9-1.2-5.4-4.7-6.7C8.2,119.7-1.9,102.3,0.3,85.8C2.7,68,16.9,53.5,34.1,52.7c17.1-0.8,34.2-0.5,51.2-0.6c1.1,0,2.2,0,3.7,0
		c0.3-5.5,0.4-10.9,0.8-16.2c1.5-19.6,18-35.5,38.8-35.6c29.9-0.2,59.8-0.4,89.6,0.1c23,0.4,38.7,17.3,39.2,41c0.1,3.3,0,6.7,0,10.5
		c1.6,0.1,3.1,0.2,4.6,0.2c14.9,0,29.7-0.1,44.6,0c17.6,0.2,30.6,8,37.5,24.6c7.7,18.5-2.1,41.5-20.9,48.6c-3.7,1.4-4.9,3.1-4.9,7.1
		c0.1,79.5,0.1,159,0.1,238.5c0,16.5-4.6,31.2-16.9,42.9c-7,6.7-15.4,10.8-24.9,12.6c-0.8,0.1-1.5,0.5-2.2,0.8
		C207.2,427.1,139.9,427.1,72.6,427.1z M48.4,128.4c0,1.6,0,3,0,4.4c0,79.5,0,159,0,238.5c0,3,0.2,6.1,0.7,9.1
		c2.5,15.6,14.6,26.6,30,26.7c62.8,0.1,125.6,0.1,188.5,0c10.2,0,18.4-4.4,24.4-12.8c5-7,6.4-14.9,6.4-23.3c0-79.4,0-158.7,0-238.1
		c0-1.5-0.1-2.9-0.2-4.5C214.8,128.4,131.8,128.4,48.4,128.4z M173.5,108.1c43.6,0,87.3,0,130.9,0c2.1,0,4.2-0.1,6.2-0.3
		c9.7-1,16.6-9.4,15.8-19.1c-0.9-10.6-8.6-16.7-21-16.7c-87.9,0-175.9,0-263.8,0c-2.1,0-4.2,0.1-6.2,0.4
		c-8.5,1.3-14.6,8.2-15.1,16.9c-0.5,8.1,5.3,16,13.3,18c2.8,0.7,5.8,0.7,8.7,0.7C86,108.2,129.8,108.1,173.5,108.1z M237.1,51.9
		c0-5.3,0.4-10.2-0.1-15c-0.9-8.3-5.9-13.6-13.8-15.9c-2-0.6-4.1-0.8-6.2-0.8c-29,0-58.1-0.1-87.1,0c-10.4,0-18.3,5.8-19.9,15.4
		c-0.8,5.2-0.1,10.7-0.1,16.3C152.2,51.9,194.5,51.9,237.1,51.9z"/>
	<path d="M124.4,259c0,30.7,0,61.4-0.1,92.1c0,2.8-0.7,5.9-2,8.3c-1.8,3.5-5.4,4.7-9.3,4.1c-4-0.6-6.9-2.9-8-6.9
		c-0.4-1.6-0.7-3.3-0.7-4.9c0-61.5,0-123.1,0-184.6c0-2.3,0.4-4.8,1.4-6.8c1.8-3.9,5.3-5.6,9.6-5.2c4.3,0.4,7.2,2.8,8.4,6.9
		c0.6,2,0.6,4.1,0.6,6.2C124.4,198.5,124.4,228.8,124.4,259z"/>
	<path d="M163.5,259.2c0-30.7,0-61.4,0-92.1c0-7.2,3.1-11.4,8.8-12c5.3-0.5,9.5,2.4,10.6,7.7c0.4,1.6,0.5,3.3,0.5,4.9
		c0,61,0,122,0,182.9c0,1.8-0.2,3.6-0.6,5.3c-1.1,4.6-5.1,7.7-9.6,7.7c-4.5-0.1-8.5-3.3-9.5-7.9c-0.4-1.7-0.4-3.6-0.4-5.4
		C163.4,320.1,163.5,289.6,163.5,259.2z"/>
	<path d="M222.5,259.5c0-30.4,0-60.8,0-91.3c0-8.6,3.3-13.2,9.8-13.3c6.6-0.1,10.3,4.7,10.3,13.3c0,60.7,0,121.4,0,182.1
		c0,8.7-3.8,13.5-10.3,13.3c-6.4-0.2-9.7-4.7-9.7-13.4C222.5,320.1,222.5,289.8,222.5,259.5z"/>
</g>
</svg>
