<?xml version="1.0" encoding="utf-8"?>
<!-- Generator: Adobe Illustrator 22.1.0, SVG Export Plug-In . SVG Version: 6.00 Build 0)  -->
<svg version="1.1" id="Слой_1" xmlns="http://www.w3.org/2000/svg" xmlns:xlink="http://www.w3.org/1999/xlink" x="0px" y="0px" viewBox="0 0 511 483.4" style="enable-background:new 0 0 511 483.4;" xml:space="preserve">
	<style type="text/css">
		path {
			fill: #fff;
		}
	</style>
	<g>
		<path d="M511,124.5c-1.2,6.1-2.2,12.4-3.8,18.4c-9.1,34.8-30.1,59.8-62.7,74.9c-3.5,1.6-4.4,3.4-4.4,7.1c0.1,76,0.1,152,0.1,228.1
		c0,12.9-4.9,17.9-17.7,17.9c-94.5,0-189,0-283.5,0.1c-10.9,0-21.9,0-33.5,0C101.6,480.6,93,484,82,483.4c-6-0.3-12-0.1-18-0.1
		c-16.3,0-21.3-3.9-25.4-20.1c-5.1,0-10.3,0-15.6,0C8,463.1,0,455,0,440c0-16,0-31.9,0-47.9c0-1,0-2,0-3c0.4-4.7,3.5-7.8,7.6-7.7
		c4.1,0.1,7.2,3.2,7.3,7.9c0.2,8.1,0.1,16.3,0.1,24.5c0,9.1-0.1,18.3,0,27.4c0.1,5.1,1.9,6.9,6.9,7c5.5,0.1,10.9,0,16.7,0
		c0-34.7,0-69,0-103.9c-6.2,0-12.3-0.2-18.3,0.1c-3.5,0.2-5.2,2.6-5.3,6.1c-0.1,3,0.2,6-0.2,9c-0.5,4.2-3,6.7-7.3,6.7
		c-4.1,0.1-6.9-2.3-7.2-6.2c-0.4-4.9-0.5-10.1,0.4-14.9c1.9-9.5,9.8-15.6,19.8-15.9c6-0.2,12,0,18.1,0c0.4-1.6,0.7-3,1-4.5
		c2.1-9.4,9.1-15.3,18.7-15.5c9.5-0.2,19-0.1,28.4,0c10,0.1,16.9,5.8,19.3,15.5c0.3,1.1,0.5,2.2,0.9,3.6c5.6-1.9,9.2-5.6,11.8-10.4
		c4.6-8.7,9.1-17.4,13.3-26.2c0.9-2,1-4.5,1-6.8c0.1-29.4,0-58.9,0-88.3c0-12.3,4.5-16.8,16.8-16.8c48.7,0,97.5,0,146.2,0
		c2,0,3.9,0,6.9,0c-1.4-2.3-2.2-3.8-3.1-5.2c-23.9-39.9-24.2-80.5-0.1-119.9c24.4-39.9,61.3-57.9,108.4-54.2
		c5.9,0.5,9.1,3.6,8.8,8.1c-0.4,4.6-4.2,7.5-10.3,6.8c-16.6-1.7-32.6,0.4-47.8,7.2c-35.9,16-57,43.6-60.5,82.9
		c-4.5,49.5,27.4,93.7,75.3,105.2c54.8,13.2,114.7-24,121.6-83.9c5.1-44.1-16.9-84.1-57-103.1c-0.8-0.4-1.5-0.7-2.3-1.1
		c-4.3-2.4-5.9-6.1-4.3-9.9c1.7-4,6.1-5.9,10.5-3.6c8.4,4.4,17,8.6,24.5,14.3c25.6,19.3,39.7,45.4,43.6,77.2c0.1,1,0.5,1.9,0.8,2.8
		C511,110.5,511,117.5,511,124.5z M425,455.6c0-77,0-153.6,0-229.5c-14.2,0.8-28.2,1.7-42.8,2.6c0,8.2,0,17.3,0,26.4
		c0,8.3,0.2,16.6-0.1,24.9c-0.2,6.8-5.8,10.4-11.1,7.5c-3.4-1.9-3.9-5.1-3.8-8.6c0-16.6-0.1-33.3,0.1-49.9c0-3.7-1.2-5.2-4.6-6.2
		c-15.2-4.6-29.1-11.8-40.4-22.8c-6.4-6.3-13.2-5.1-20.9-4.7c0,2.2,0,4,0,5.8c0,20,0,39.9,0,59.9c0,5-1.2,9.3-6,11.7
		c-4.6,2.3-8.7,0.7-12.4-2.3c-7.2-5.6-14.6-11.1-21.6-17c-2.9-2.4-4.7-2.3-7.6,0c-7.9,6.4-15.8,12.7-24.1,18.5
		c-6.2,4.3-13.7,0.8-15.3-6.6c-0.4-2.1-0.5-4.3-0.5-6.4c0-19.5,0-38.9,0-58.4c0-1.8,0-3.5,0-5.3c-22.2,0-43.6,0-65.2,0
		c0,26.1,0,52,0,76.8c5.1,1.7,10,2.4,13.9,4.8c13.5,8.5,17.9,24.8,11.3,39.4c-2,4.5-4.3,8.9-6.9,14c2.5,0,4.2,0,6,0
		c28.3,0,56.5-0.1,84.8,0c13.3,0,22.9,7.1,25.2,18.9c0.8,3.9,0.1,8.1,0.1,12.5c13.9-1.1,25.1,3.5,28.9,17.8
		c3.4,12.8-2.3,22.2-12.8,26.8c-0.7,6.9-0.1,13.1-2,18.4c-3.7,10.2-12.1,14.5-22.7,14.5c-8.2,0-16.5,0-24.5,0c0,5.8,0,10.9,0,16.2
		c38.7,0,77.7,0,117.2,0c0-2.3,0-4.2,0-6.2c0-44.4,0-88.8,0-133.2c0-1.8-0.1-3.7,0.1-5.5c0.4-4,2.8-6.4,6.8-6.6
		c4-0.3,6.7,1.8,7.6,5.7c0.4,1.9,0.4,4,0.4,5.9c0,44.7,0,89.5,0,134.2c0,1.9,0,3.8,0,5.8C396.8,455.6,410.6,455.6,425,455.6z
		 M169.5,455.1c0,0.2,0,0.4,0,0.6c18.1,0,36.3,0,54.4,0c2,0,4-0.1,5.9-0.7c3.8-1.1,5.7-4.1,5.5-8c-0.3-4-2.4-6.9-6.8-7.3
		c-2.6-0.2-5.3-0.5-8-0.5c-9-0.1-18,0-26.9-0.2c-4.2-0.1-6.8-2.6-7-6.9c-0.2-4.3,2.1-6.9,6.3-7.6c1.8-0.3,3.6-0.3,5.5-0.3
		c24.4,0,48.9,0,73.3-0.1c1.8,0,3.7,0,5.5-0.2c4.4-0.6,6.9-3.4,7-7.7c0.1-4.1-2.2-6.9-6.2-8c-1.6-0.4-3.3-0.3-5-0.3
		c-22.6,0-45.2,0-67.9,0c-1.7,0-3.4,0.1-5-0.2c-4.1-0.8-6.6-3.3-6.4-7.6c0.1-4,2.6-6.4,6.5-7.1c1.6-0.3,3.3-0.2,5-0.2
		c26.9,0,53.9,0,80.8,0c1.8,0,4,0.4,5.4-0.4c2.3-1.2,5.3-3,5.8-5.1c0.6-2.4-0.5-6.3-2.2-7.9c-2-1.9-5.7-2.7-8.6-2.7
		c-26.8-0.2-53.6-0.1-80.3-0.1c-2.1,0-4.4-0.1-6.4-0.6c-3.7-1-5.4-3.7-5.2-7.5c0.2-3.6,2.2-5.9,5.7-6.6c1.9-0.4,4-0.4,6-0.4
		c16.6,0,33.3,0,49.9,0c2,0,4-0.1,5.9-0.4c4-0.7,6.2-3.3,6.4-7.2c0.3-3.9-1.8-6.8-5.5-7.9c-2.2-0.7-4.6-0.8-6.9-0.8
		c-29.3,0-58.5,0-87.8,0c-14.1,0-20.4-10.4-14.2-22.9c2.4-4.9,5.1-9.7,7-14.8c2.4-6.4,0.3-12.1-4.5-16.8c-3.4-3.4-5.3-2.9-7.5,1.4
		c-5,9.8-9.9,19.5-14.9,29.3c-5.1,9.9-11.9,18.1-23,21.5c-3.5,1.1-4.4,2.8-4.4,6.3c0.1,32.9,0.1,65.9,0.1,98.8c0,6.6,0,7,6.9,7.1
		C132.3,455.3,150.9,455.1,169.5,455.1z M54.1,396.5c0,21.6,0,43.2,0,64.8c0,5.7,1.2,6.8,6.6,6.9c8.1,0.1,16.3-0.1,24.4,0.1
		c4.6,0.1,6.7-1.8,6.6-6.5c-0.2-7.1,0-14.3,0-21.4c0-35.9,0-71.8,0-107.7c0-7.7-0.7-8.4-8.6-8.4c-7.1,0-14.3,0-21.4,0
		c-6.4,0-7.5,1.1-7.6,7.5C54.1,353.3,54.1,374.9,54.1,396.5z M286.1,195.4c-0.9-0.2-1.5-0.5-2.1-0.5c-17.1,0-34.2,0-51.3-0.1
		c-3.8,0-3.7,2.1-3.7,4.8c0,15.4,0,30.9,0,46.3c0,2.3,0,4.5,0,7.9c7.7-6,14.4-11.4,21.2-16.6c5.5-4.2,9.4-4.1,14.9,0
		c3.5,2.6,6.8,5.3,10.2,8c3.4,2.7,6.9,5.3,10.8,8.2C286.1,233.5,286.1,214.5,286.1,195.4z" />
		<path d="M377.5,146.4c22.3-25.1,44.2-49.6,66.2-74.2c1.2-1.4,2.4-2.8,3.8-3.9c3.1-2.5,6.5-2.6,9.6,0.1c3,2.6,3.4,6,1.4,9.5
		c-0.8,1.4-2,2.7-3.1,3.9c-21.7,24.4-43.4,48.7-65,73c-8.5,9.6-17.3,9.5-25.8,0c-9.2-10.3-18.3-20.7-27.4-31c-2.7-3-3.8-6.3-1.5-10
		c1.9-3,5-4.1,8.2-3c2,0.7,3.9,2.5,5.4,4.1c8.3,9.1,16.4,18.4,24.5,27.6C374.8,143.7,376,144.8,377.5,146.4z" />
	</g>
</svg>