<?xml version="1.0" encoding="utf-8"?>
<!-- Generator: Adobe Illustrator 22.1.0, SVG Export Plug-In . SVG Version: 6.00 Build 0)  -->
<svg version="1.1" id="Слой_1" xmlns="http://www.w3.org/2000/svg" xmlns:xlink="http://www.w3.org/1999/xlink" x="0px" y="0px"
	 viewBox="0 0 324.1 321.1" style="enable-background:new 0 0 324.1 321.1;" xml:space="preserve">
<g>
	<path d="M228.1,167.5c0,2.1,0,3.4,0,4.8c0,24.6,0,49.2,0,73.9c0,21.2-14.6,35.8-35.8,35.9c-31.1,0.1-62.2,0.1-93.4,0
		c-2.8,0-4.9,0.7-7.1,2.5c-13.9,11.2-27.9,22.3-41.9,33.5c-2.9,2.4-5.9,4.4-9.8,2.4c-3.9-2-4.1-5.5-4-9.3c0.1-9.5,0-19,0-28.7
		c-2.6-0.3-5.1-0.5-7.5-0.9c-16-2.6-28.3-16.4-28.4-32.5c-0.2-34-0.3-68,0-102c0.1-18.1,15.5-32.8,33.7-32.9c19.2-0.1,38.5,0,57.7,0
		c1.3,0,2.7,0,4.4,0c0-1.7,0-3,0-4.4c0-24.7,0-49.5,0-74.2C96.1,14.5,110.5,0,131.4,0c52.4,0,104.7,0,157.1,0
		c20.9,0,35.6,14.7,35.6,35.6c0,32.1,0,64.2,0,96.4c0,20.6-13.5,34.8-34.2,36c-0.5,0-0.9,0.1-1.8,0.2c0,5.7,0,11.3,0,16.9
		c0,4.6,0,9.2,0,13.9c0,3.3-1.1,5.9-4.2,7.4c-3.1,1.5-5.8,0.7-8.3-1.4c-9.4-7.5-18.8-15-28.1-22.4c-5.3-4.2-10.5-8.4-15.8-12.6
		C230.7,169.2,229.7,168.6,228.1,167.5z M276.1,189.9c0-9-0.1-17.1,0-25.2c0-5.5,3.2-8.6,8.6-8.7c1.4,0,2.7,0,4.1,0
		c13.9-0.2,23.2-9.6,23.2-23.4c0-32.4,0-64.7,0-97.1c0-14.2-9.3-23.5-23.5-23.5c-52.5,0-105,0-157.4,0c-13.9,0-23.1,9.1-23.1,22.9
		c0,32.7,0,65.5,0,98.2c0,1.6,0.1,3.3,0.4,4.8c2.1,10.9,10.7,18,22.1,18c30.6,0.1,61.2,0.3,91.8-0.1c7.7-0.1,13.8,1.8,19.7,6.9
		C252.9,172,264.3,180.5,276.1,189.9z M48.1,303.8c1.5-1.1,2.5-1.8,3.3-2.4c11.3-9,22.7-18,33.9-27.2c3.7-3,7.5-4.3,12.3-4.3
		c31.5,0.2,63,0.1,94.5,0.1c14.9,0,24-9.3,24-24.1c0-24.6,0-49.2,0-73.8c0-1.2,0-2.4,0-4c-1.8,0-3.3,0-4.8,0
		c-27.1,0-54.2,0.1-81.3-0.1c-17-0.1-30.5-11.6-33.3-28.2c-0.7-4.4-0.6-8.9-0.9-13.7c-0.9,0-1.7,0-2.6,0c-19.7,0-39.5-0.1-59.2,0
		c-12.1,0.1-21.8,9.8-21.9,22c-0.1,33.2-0.1,66.5,0,99.7c0,9,4.3,16,12.4,19.7c3.8,1.7,8.4,2.2,12.7,2.4c8.4,0.4,10.8,2.6,10.8,11.1
		C48.1,288.4,48.1,295.7,48.1,303.8z"/>
	<path d="M210.1,78c19.1,0,38.2,0,57.4,0c1,0,2-0.1,3,0c3.3,0.3,5.3,2.3,5.6,5.5c0.2,3.3-1.7,5.4-4.8,6.2c-1.3,0.3-2.7,0.2-4.1,0.2
		c-38,0-76,0-114,0c-0.4,0-0.7,0-1.1,0c-5,0-7.8-2.2-7.9-6c0-3.9,2.7-6,7.8-6C171.3,78,190.7,78,210.1,78z"/>
	<path d="M186,126c-11.6,0-23.2,0-34.9,0c-4.4,0-7.1-2.5-7-6.1c0-3.6,2.6-5.9,6.8-5.9c23.5,0,47,0,70.5,0c4.1,0,6.7,2.5,6.7,6
		c0,3.5-2.7,5.9-6.8,6C209.5,126,197.8,126,186,126z"/>
	<path d="M174.1,42c7.6,0,15.2,0,22.9,0c4.4,0,7.1,2.3,7.1,5.9c0,3.6-2.7,6-7.1,6c-15.2,0-30.5,0-45.7,0c-4.4,0-7.1-2.4-7.1-6
		c0-3.6,2.7-5.9,7.1-5.9C158.8,42,166.5,42,174.1,42z"/>
	<path d="M258.9,114c3.5,0,7,0,10.5,0c4.1,0.1,6.7,2.4,6.7,5.9c0,3.4-2.5,5.9-6.3,6c-7.4,0.1-14.7,0.1-22.1,0
		c-3.9-0.1-6.3-2.6-6.3-6c0-3.6,2.5-5.9,6.7-5.9C251.6,114,255.2,114,258.9,114z"/>
	<path d="M63.1,198c0-5,4.1-9,9.1-9c4.8,0,8.8,3.9,8.9,8.7c0.1,4.9-4,9.1-8.9,9.2C67.3,207,63.1,202.9,63.1,198z"/>
	<path d="M123.1,197.8c0.1,4.9-4,9.1-8.9,9.1c-4.9,0-9-4.1-9-9c0-4.8,3.9-8.8,8.7-8.9C118.8,188.9,123,192.8,123.1,197.8z"/>
	<path d="M147.1,197.5c0.3-4.9,4.5-8.7,9.5-8.5c4.8,0.3,8.6,4.4,8.4,9.2c-0.2,4.9-4.5,8.9-9.3,8.7
		C150.8,206.7,146.9,202.4,147.1,197.5z"/>
</g>
</svg>
