<?xml version="1.0" encoding="utf-8"?>
<!-- Generator: Adobe Illustrator 22.1.0, SVG Export Plug-In . SVG Version: 6.00 Build 0)  -->
<svg version="1.1" id="Слой_1" xmlns="http://www.w3.org/2000/svg" xmlns:xlink="http://www.w3.org/1999/xlink" x="0px" y="0px"
	 viewBox="0 0 278.1 384" style="enable-background:new 0 0 278.1 384;" xml:space="preserve">
<g>
	<path d="M178,0c5.9,1.9,10.2,5.9,14.3,10.4c6.6,7.2,13.4,14.1,20.1,21.2c6.4,6.8,6.7,15.4,0.8,22.7c-2.6,3.2-5.3,6.3-8,9.4
		c-2.5,2.8-5.8,3.3-8.3,1.3c-2.6-2.1-2.8-5.4-0.2-8.6c1.9-2.3,3.8-4.6,5.7-6.9c0-0.1,0-0.2-0.1-0.8c-4.5,0-9,0-13.6,0
		c-5.9,0-11.8-0.1-17.6,0.1c-1,0-2.6,1-2.8,1.9c-3.6,13-7,26-10.5,39.3c5.5,0.7,10.4,1.6,13.9-4.1c1.8-2.9,4.4-5.4,6.8-8
		c2.8-3.2,5.8-3.6,8.5-1.5c2.7,2.2,2.7,5.6-0.1,8.9c-2.7,3.3-5.5,6.5-8.2,9.7c-0.6,0.7-1.4,1.7-1.3,2.5c0.3,4.6,0.8,9.1,1.2,13.8
		c67.2,19.5,111.7,88.3,96.8,161.5c-13.3,65.5-71.4,112-138,111.2C71.9,383.2,14.6,335.4,2.6,272.2c-14.1-74.3,31-141.4,97-160.8
		c0.4-4.6,0.9-9.2,1.1-13.7c0-1-0.9-2.2-1.6-3.1C88,81.5,76.9,68.5,65.8,55.4c-7.2-8.4-7-16.7,0.6-24.7c6.5-6.9,13.2-13.7,19.6-20.7
		c4-4.4,8.3-8.3,14-10.1C126,0,152,0,178,0z M11,245c0.5,6,0.7,12,1.5,17.9c9.8,70.5,76.7,119.8,147.1,108.2
		c67.3-11,114.6-73,106.2-140.8c-6.4-51.2-34.8-86.2-82.6-105.3c-5.3-2.1-10.5-3.2-16.6-2.9c-18.3,0.7-36.7,0.3-55.1,0.3
		c-2.6,0-5.3-0.7-7.6-0.1C49.2,137.2,11.1,187.8,11,245z M121.1,48.8c2.8,10.6,5.5,20.9,8.2,31.1c2.8,10.7,2.8,10.6,13.7,10.5
		c2.5,0,3.4-1,4-3.3c2.8-11,5.7-22,8.6-32.9c0.5-1.7,0.8-3.5,1.3-5.4C144.8,48.8,133.2,48.8,121.1,48.8z M74.8,48.7
		C85.7,61.4,96.3,73.1,106,85.5c4.1,5.3,8.6,5.2,14.3,4.4c-3.5-13.3-7-26.5-10.5-39.6c-0.2-0.7-1.3-1.6-1.9-1.6
		C97.1,48.6,86.4,48.7,74.8,48.7z M166.6,101.9c-18.6,0-36.9,0-55.1,0c0,3.1,0,6,0,9c18.4,0,36.7,0,55.1,0
		C166.6,107.8,166.6,105,166.6,101.9z M139,15.7c-5,7.4-9.7,14.3-14.5,21.4c10,0,19.3,0,29,0C148.7,29.9,144.1,23.1,139,15.7z
		 M101.7,11.5c4.3,7.3,8.2,13.9,12.3,21c4.8-7.1,9.4-13.8,14.2-21C119.3,11.5,110.9,11.5,101.7,11.5z M149.8,11.5
		c4.9,7.2,9.5,13.9,14.2,20.9c4.2-7.2,8.1-13.8,12.3-20.9C167.2,11.5,158.8,11.5,149.8,11.5z M93.1,19C87.3,25.2,81.8,31,75.8,37.2
		c9.8,0,18.5,0,28,0C100.1,31,96.7,25.2,93.1,19z M202.3,37.3c-6.1-6.4-11.6-12.1-17.4-18.2c-3.6,6.2-7,12-10.7,18.2
		C183.8,37.3,192.5,37.3,202.3,37.3z"/>
	<path d="M245.4,49.2c-2.4,0-4.8,0.1-7.1,0c-3.6-0.3-5.7-2.5-5.6-5.7c0-3.3,2.1-5.3,5.8-5.4c4.7-0.1,9.5-0.1,14.2,0
		c3.7,0.1,5.8,2.2,5.8,5.4c0,3.2-2.1,5.4-5.7,5.7C250.4,49.4,247.9,49.2,245.4,49.2z"/>
	<path d="M49.7,26c-1.9-1.1-3.5-1.6-4.7-2.6c-3.5-3.2-6.8-6.6-10.1-10c-2.4-2.5-2.4-5.8-0.3-8c2.1-2.2,5.5-2.3,8,0
		C46.3,8.6,49.9,12,53,15.7c1.2,1.4,1.7,4.2,1.2,6C53.6,23.4,51.3,24.5,49.7,26z"/>
	<path d="M32.1,38c2.5,0,5-0.1,7.5,0c3.2,0.2,5.1,2,5.2,5.2c0.1,3.2-1.6,5.5-4.7,5.7c-5.5,0.3-11,0.3-16.4,0
		c-3.2-0.2-4.8-2.5-4.7-5.7c0.2-3.2,2.1-5,5.3-5.2C26.8,37.9,29.4,38,32.1,38z"/>
	<path d="M244.8,78.7c-1.1,1.3-2,3.5-3.5,4.1c-1.7,0.6-4.6,0.6-5.8-0.5c-4.1-3.4-7.8-7.3-11.4-11.3c-2.1-2.3-1.9-5.2,0.4-7.4
		c2.1-2.1,4.9-2.5,7.1-0.5c4.1,3.6,7.9,7.6,11.7,11.6C243.9,75.4,244.1,76.8,244.8,78.7z"/>
	<path d="M227.8,25.7c-1.4-1-3.5-1.9-4.2-3.4c-0.7-1.5-0.8-4.4,0.1-5.5c3.7-4.3,7.8-8.4,12.1-12.2c2.2-1.9,5.1-1.4,7.1,0.8
		c1.9,2,2.3,4.8,0.5,6.8c-3.7,4.2-7.8,8.1-11.8,11.9C230.7,24.9,229.4,25,227.8,25.7z"/>
	<path d="M48.8,61.9c4.6,0.1,7.8,4.8,5.3,7.9c-3.8,4.7-8.2,9-12.9,12.9c-1.1,0.9-5,0.3-6.2-1c-1.3-1.2-1.9-5.1-1-6.2
		c3.7-4.6,8.2-8.7,12.5-12.8C47.1,62.1,48.3,62,48.8,61.9z"/>
	<path d="M28,245c0.4-57.3,44.1-105,101.3-110.2c56.5-5.1,109.1,34.7,118.4,89.7c0.9,5.5-0.4,8.3-4.1,8.9c-3.8,0.6-6-1.6-7-6.8
		c-5.9-30.1-22-53.1-48.7-68.1c-60.1-34-135.4,2.3-147,70.4c-9.4,55.6,30.9,108.9,86.9,114.8c55.2,5.8,103.1-32.7,110.1-88.5
		c0.6-4.7,2.9-6.9,6.5-6.4c3.5,0.5,5.2,3.3,4.7,7.6c-5.6,47.9-38.8,85.4-85.4,96.4c-60.9,14.4-122.9-26.6-133.4-88.4
		C29.1,258,28.8,251.5,28,245z"/>
</g>
</svg>
