<?xml version="1.0" encoding="utf-8"?>
<!-- Generator: Adobe Illustrator 22.1.0, SVG Export Plug-In . SVG Version: 6.00 Build 0)  -->
<svg version="1.1" id="Слой_1" xmlns="http://www.w3.org/2000/svg" xmlns:xlink="http://www.w3.org/1999/xlink" x="0px" y="0px"
	 viewBox="0 0 352.3 344.1" style="enable-background:new 0 0 352.3 344.1;" xml:space="preserve">
<g>
	<path d="M293.3,61.5c0.2,3.9,0.4,7.7,0.5,11.6c0.1,3.3,1.7,5.4,4.9,6.2c5.7,1.4,11.4,2.8,17.1,4.3c2.9,0.8,5.8,1.7,8.5,2.8
		c10.3,4.5,14.4,12.8,11,23.4c-1.7,5.4-4.2,10.7-6.7,15.8c-6.1,12.7-6,13,5.1,21.8c4.2,3.3,8.4,6.7,12.1,10.6c8.6,9,8.6,19-0.1,27.9
		c-4.8,5-10.5,9.2-15.9,13.7c-6.5,5.5-6.7,6.5-3.3,14.3c2.7,6,5.8,11.9,8,18.1c4.5,12.8,0.2,21.9-12.5,26.3
		c-6.3,2.2-13,3.4-19.5,5.1c-8,2.1-8.6,2.6-9,10.8c-0.3,6.5-0.1,13-0.5,19.5c-0.9,13-9,20.4-20.8,19.5c-3.6-0.3-7.2-0.9-10.7-1.6
		c-4.7-0.9-9.3-1.9-13.9-3c-4.2-1-7,0.4-8.9,4.2c-2.3,4.7-4.5,9.5-7,14.1c-2.1,3.7-4.2,7.4-6.9,10.6c-5.5,6.4-13,8.1-20.7,4.5
		c-3.9-1.8-7.5-4.4-11.1-6.9c-3.6-2.5-6.8-5.5-10.4-8c-5.8-4.2-7.3-4.3-12.9-0.1c-3.5,2.6-6.8,5.5-10.4,8.1c-3.4,2.5-6.9,5-10.7,6.8
		c-8.1,3.8-16,2.1-21.6-4.8c-3.2-3.9-5.5-8.6-8-13c-2.1-3.7-3.9-7.5-5.7-11.4c-1.8-3.7-4.7-4.9-8.6-4c-6,1.3-11.9,2.7-18,3.8
		c-3.4,0.6-7,0.9-10.4,0.7c-9-0.8-14.9-5.9-16.4-14.8c-1-6.1-1.1-12.4-1.1-18.6c-0.1-14.1,0-14-13.8-17.3
		c-5.2-1.2-10.5-2.4-15.5-4.2C17.7,254,13.3,244.9,17.4,233c2.3-6.6,5.6-12.8,8.4-19.2c3.3-7.6,3.1-8.7-3.3-14
		c-5.2-4.4-10.8-8.5-15.6-13.4c-9.1-9.3-9.1-19.4,0-28.7c4.9-5,10.6-9.1,15.9-13.6c5.9-5,6.2-6.4,3.1-13.5
		c-2.7-6.2-5.9-12.1-8.2-18.5c-4.6-13-0.3-22.1,12.6-26.6c6.3-2.2,13-3.4,19.5-5.1c7.8-2,8.4-2.6,8.8-10.6c0.3-6.5,0.1-13,0.5-19.5
		c1-14,9.3-20.9,23.2-19.5c2.8,0.3,5.7,0.8,8.5,1.4c4.7,0.9,9.3,1.9,13.9,3c4,0.9,6.8-0.4,8.6-4.1c1.8-3.7,3.6-7.4,5.6-11
		c2.1-3.8,3.9-7.8,6.5-11.4C132-0.5,141.3-2.5,151,3.2c4.5,2.6,8.7,5.9,12.8,9.2c12.2,9.8,12.5,9.8,24.6,0.1
		c4.1-3.3,8.2-6.5,12.7-9.2C211-2.6,220.4-0.5,227,9c2.6,3.8,4.6,8,6.8,12.1c1.9,3.5,3.6,7.1,5.4,10.7c1.6,3.3,4.3,4.4,7.8,3.6
		c6.1-1.3,12.2-2.7,18.3-3.8c2.9-0.5,6-1,8.9-0.9c11.1,0.3,17.8,7.2,18.9,19.2c0.3,3.9,0.4,7.7,0.5,11.6
		C293.5,61.5,293.4,61.5,293.3,61.5z M75.1,281.7c0,3.8-0.1,7.6,0,11.3c0.1,3.3,1.7,5.1,5.3,4.3c5.4-1.1,10.8-2.1,16.1-3.2
		c18.4-3.9,25.8-0.2,33.9,16.6c1.8,3.7,3.5,7.4,5.4,11.1c3.8,7.3,4.8,7.5,11.3,2.7c3.5-2.6,6.9-5.4,10.3-8.1
		c14-11.1,23.3-11.1,37.3-0.1c4.1,3.2,8.2,6.6,12.5,9.6c4.4,3.2,5.4,3,8.1-1.9c3.2-5.8,5.8-11.9,9-17.7c6.5-11.9,14-15.4,27.3-13
		c6.1,1.1,12.2,2.7,18.3,3.8c6.2,1.1,7.3,0.1,7.5-6.1c0.2-5.9,0-11.8,0.2-17.6c0.5-14.5,5.8-21.1,19.7-24.9c5.4-1.5,10.9-2.5,16.4-4
		c7.5-2,8-3,4.9-10c-2.6-5.9-5.6-11.7-8.1-17.7c-4.3-10.1-2.3-19,5.9-26.5c1.5-1.3,3-2.7,4.5-3.9c3.8-3.1,7.6-6.1,11.3-9.3
		c5-4.4,5-5.9-0.1-10.3c-4.1-3.5-8.3-6.8-12.5-10.2c-12.1-9.9-14.1-18.3-7.8-32.6c2.4-5.4,5.1-10.6,7.4-16c2.2-5.3,1.7-6.4-3.9-8
		c-6.6-1.8-13.3-3.3-19.9-5.1c-10.5-2.9-16.7-9.6-17.4-20.7c-0.3-4.5-0.3-9-0.4-13.5c-0.1-3.2-0.1-6.5-0.3-9.7
		c-0.1-3.3-1.7-5.1-5.3-4.4c-5.4,1.1-10.8,2.1-16.1,3.2c-18.2,4-25.8,0.2-33.9-16.6c-2.1-4.4-4.2-8.8-6.6-13c-2.8-5-3.9-5.3-8.6-1.8
		c-4.2,3.1-8.3,6.5-12.4,9.7c-13.7,10.6-22.8,10.5-36.4-0.1c-0.5-0.4-1-0.8-1.5-1.2c-3.8-2.9-7.4-5.9-11.3-8.7
		c-4.4-3.1-5.4-3-8.1,1.9c-3.2,5.8-5.8,11.9-9,17.7c-6.5,11.9-13.9,15.4-27.3,13c-6.1-1.1-12.2-2.7-18.3-3.8
		c-6.2-1.1-7.3-0.1-7.5,6.1c-0.2,5.9,0,11.8-0.2,17.6C74.2,85.2,69,91.7,55,95.6C50,96.9,44.8,98,39.8,99.3c-8.9,2.3-9.2,3-5.6,11.3
		c2.9,6.6,6.1,13.1,8.6,19.9c3,8,0.8,15.3-5,21.4c-2,2.1-4.1,4-6.3,5.8c-3.6,3.1-7.4,5.9-11,9c-5.4,4.7-5.4,6,0.1,10.8
		c4.8,4.2,10,7.9,14.7,12.2c9.4,8.6,11.1,16.1,6.3,27.9c-2.2,5.4-4.9,10.6-7.3,16c-3.6,8.1-3.2,8.9,5.4,11.2
		c6.8,1.7,13.6,3.2,20.3,5.3c8.7,2.8,13.5,9.1,14.4,18.2C74.7,272.8,74.8,277.3,75.1,281.7z"/>
	<path d="M120.1,237.2c-2.6-2-5.3-3.3-6.8-5.4c-1.9-2.6-1.5-5.7,0.4-8.4c0.8-1.1,1.8-2.1,2.8-3c36-36,71.9-72,107.9-107.9
		c1.1-1.1,2.1-2.2,3.3-3c3.1-2.1,7.4-1.7,10,0.9c2.6,2.6,3.1,6.9,1,10c-0.8,1.2-1.9,2.3-3,3.4c-36.1,36.1-72.1,72.1-108.2,108.1
		C125.6,233.8,123.1,235.1,120.1,237.2z"/>
	<path d="M164.1,132.1c0,15.4-12.8,28-28.3,27.9c-15.2-0.1-27.8-12.9-27.7-28.1c0.1-15.3,12.7-27.9,27.9-27.9
		C151.4,103.9,164.2,116.7,164.1,132.1z M124.2,132c0,6.6,5.2,12,11.8,12.1c6.5,0.1,12.3-5.6,12.2-12.2c-0.1-6.5-5.5-11.8-12.1-11.8
		C129.4,120.1,124.3,125.3,124.2,132z"/>
	<path d="M188.2,212.1c0-15.3,12.5-27.9,27.8-28c15.5-0.1,28.2,12.5,28.3,27.9c0,15.3-12.8,28.2-28.2,28.1
		C200.7,240,188.2,227.4,188.2,212.1z M228.1,212.1c0-6.6-5.3-12-11.8-12.1c-6.5-0.1-12.3,5.7-12.2,12.2c0.1,6.5,5.5,11.8,12.1,11.8
		C222.8,223.9,228,218.7,228.1,212.1z"/>
</g>
</svg>
