<?xml version="1.0" encoding="utf-8"?>
<!-- Generator: Adobe Illustrator 22.1.0, SVG Export Plug-In . SVG Version: 6.00 Build 0)  -->
<svg version="1.1" id="Слой_1" xmlns="http://www.w3.org/2000/svg" xmlns:xlink="http://www.w3.org/1999/xlink" x="0px" y="0px"
	 viewBox="0 0 385 384.3" style="enable-background:new 0 0 385 384.3;" xml:space="preserve">
<g>
	<path d="M385,217.3c-1,7-1.7,14.1-2.9,21c-7.3,40.6-26.7,74.4-57.4,101.7c-26.5,23.5-57.4,38.3-92.5,42.6
		c-66.1,8-121.2-13.5-163.7-64.8c-29.8-36.1-41.8-78.4-38.8-125c0.3-4.2,0.8-8.5,1.5-12.7c0.6-4,1.4-8.1,2.2-12.4
		c-5.8-1.5-11.4-3.1-17.1-4.6c-12.7-3.4-18.1-12.8-13.5-25.1c3.8-10,8.3-19.8,12.3-29.7c0.6-1.5,0.8-3.6,0.3-5.2
		c-1.6-5.4-1.4-10.5,1.3-15.6c16.8-30.9,40.6-54.8,71.6-71.6c5-2.7,10.2-3,15.6-1.2c1.2,0.4,2.8,0.7,3.8,0.3
		c11.7-4.8,23.4-9.8,35.1-14.7c2.3,0,4.5,0,6.8,0c8.6,2.5,13,8.6,14.8,17.1c1.1,5.1,2.6,10.1,4,15.2c4.4-0.8,8.4-1.6,12.5-2.2
		c4.1-0.6,8.2-1.2,12.3-1.4c47.2-3,89.7,9.5,126.5,39.6c33.8,27.7,54.8,63.2,62.6,106.4c1.2,6.7,1.9,13.5,2.9,20.3
		C385,202.8,385,210,385,217.3z M48.1,171.8c-14.8,63.8,12,139.2,80.5,177.6c64.7,36.2,147.4,22.7,198.5-32.7
		c50.9-55.2,57.3-138.3,15.1-200.8c-43.7-64.7-117.4-81-169.9-68c0.7,2.9,1.6,5.7,2.1,8.7c0.3,1.9,0.7,4.4-0.2,5.8
		c-3.4,5.4-2.4,11.1-2.2,16.9c0.1,2-0.2,4-0.6,5.9c-2.3,12.1-10.1,20.1-20.1,26.2c-13.8,8.3-25.5,18.9-34.7,32.1
		c-3.4,4.8-6.3,9.9-9.9,14.5c-9,11.4-21,15.6-35.3,13.4c-1.3-0.2-3,0.1-4.1,0.8c-3.8,2.2-7.6,3-11.8,1.8
		C53.2,173,50.8,172.5,48.1,171.8z M58.9,159C76.6,109.3,110,76,159.2,58.5c0-0.4,0.2-0.8,0.1-1.2c-3.4-13-6.9-26-10.4-39
		c-0.7-2.8-2.4-3.2-4.8-2.2c-11.2,4.9-22.4,9.6-33.5,14.7c-3.8,1.7-6.9,1.9-10.5-0.6c-1.3-0.9-4-1.1-5.3-0.4
		c-27.9,15-49.4,36.5-64.4,64.5c-0.7,1.3-0.6,3.9,0.3,5c2.9,3.8,2.5,7.1,0.5,11.1c-4.3,8.9-8.5,17.8-12.1,26.9
		c-4.6,11.5-4.7,9.7,6.5,12.8C36.5,153.2,47.6,156,58.9,159z M75.8,156.4c6.4,0.8,11.7-0.5,15.8-4.6c3.1-3.1,5.9-6.8,8.3-10.5
		c10.7-17.1,24.6-31,41.7-41.8c3.5-2.2,6.9-4.6,9.8-7.4c4.5-4.4,6.4-9.9,5.3-16.7C118.4,91.1,91.7,117.9,75.8,156.4z"/>
	<path d="M207.1,116.4c52.8,0.3,94.3,45.3,89.4,98c-3.2,34.2-21.2,58.8-51.9,74c-4.8,2.4-9,1.2-11.1-2.7c-2.2-4.1-0.6-8.4,4.3-10.7
		c11.1-5.2,20.6-12.3,28-22c17.1-22.7,21.3-47.8,10.7-74.2c-10.6-26.4-30.7-42.1-58.9-46.3c-36.7-5.4-71.5,17-82.2,52.1
		c-10.8,35.6,5.8,73.3,39.5,89.7c5.2,2.5,7.1,5.1,6.6,8.8c-0.8,5.4-5.9,8-11.4,5.5c-16.9-7.6-30.2-19.4-39.8-35.2
		C96.9,199,130.1,127.4,193,117.7C197.7,116.9,202.4,116.8,207.1,116.4z"/>
	<path d="M177.1,206.3c0.1-16.6,13.6-29.8,30.3-29.6c16.4,0.2,29.7,13.7,29.6,30c-0.1,16.5-13.9,30.1-30.2,29.9
		C190.3,236.4,177,222.9,177.1,206.3z M192.1,206.7c0,8.3,6.8,15,15,14.9c8.2-0.1,15-7,14.9-15.1c-0.1-8.3-6.8-14.9-15.1-14.8
		C198.6,191.7,192.1,198.3,192.1,206.7z"/>
	<path d="M100.7,213.1c-0.6,5.7-5.9,9.7-10.6,7.3c-8.8-4.6-17.4-9.7-25.9-14.9c-3.4-2-4-6.3-2.1-9.6c1.9-3.3,6-5,9.4-3.1
		c8.7,4.8,17.4,9.8,25.8,15C98.8,208.8,99.5,211.3,100.7,213.1z"/>
	<path d="M322.1,192.1c1,0.4,2.7,0.9,4.2,1.7c7.4,4.2,14.7,8.4,22,12.7c4.6,2.7,6.1,7,3.7,10.9c-2.3,3.8-6.5,4.7-11.1,2.1
		c-7.8-4.4-15.6-8.9-23.3-13.5c-3.4-2-4.5-5.3-3.3-8.7C315.5,194,317.9,192.4,322.1,192.1z"/>
	<path d="M322.8,290.1c-1.9-1.5-4.5-2.7-5.7-4.7c-4.9-7.8-9.4-15.9-13.9-23.9c-2.2-4-0.9-8.3,2.7-10.4c3.6-2,7.8-1,10,2.8
		c4.8,8,9.5,16.1,14,24.3C332.9,283.5,329.2,289.4,322.8,290.1z"/>
	<path d="M97.6,277.3c-4.5,0-9,0.1-13.5,0c-4.8-0.1-8.1-3.2-8.1-7.5c0-4.2,3.4-7.4,8.1-7.5c9-0.1,17.9-0.1,26.9,0
		c4.8,0.1,7.9,3.2,7.8,7.7c-0.1,4.3-3.1,7.2-7.8,7.3C106.6,277.3,102.1,277.3,97.6,277.3z"/>
	<path d="M290.6,90.7c-1.5,2-2.7,4.5-4.6,5.8c-7.8,4.9-15.8,9.4-23.9,13.9c-4,2.2-8.3,1-10.4-2.7c-2.1-3.7-1-7.9,3-10.3
		c7.8-4.6,15.7-9.2,23.6-13.6C283.9,80.7,289.8,84.1,290.6,90.7z"/>
	<path d="M262.8,315.8c0-4.4-0.1-8.7,0-13.1c0.1-4.7,3.3-8.1,7.5-8.1c4.3,0,7.4,3.3,7.4,8.1c0.1,9,0.1,17.9,0,26.9
		c0,4.7-3,7.7-7.3,7.8c-4.4,0.1-7.5-3-7.7-7.8C262.7,325,262.8,320.4,262.8,315.8z"/>
	<path d="M131.7,330.6c-3.7-0.5-6-2.1-7-5.3c-1.1-3.2-0.3-6.3,2.4-8c8.6-5.3,17.3-10.3,26.2-15.1c3.4-1.8,7.5,0.1,9.2,3.4
		c1.7,3.3,0.9,7.6-2.4,9.6c-8.3,5-16.8,9.8-25.2,14.5C133.8,330.4,132.5,330.4,131.7,330.6z"/>
	<path d="M200.6,353.3c-6-0.7-9.8-6.3-7.2-11.3c4.6-8.6,9.5-16.9,14.5-25.2c2.2-3.6,6.4-4.3,9.9-2.3c3.4,2,4.9,6.1,2.9,9.7
		c-4.6,8.4-9.4,16.7-14.4,24.9C205.1,350.9,202.5,351.9,200.6,353.3z"/>
	<path d="M200.3,100.3c-5.8-0.9-9.5-6.4-7-11.1c4.6-8.7,9.6-17.2,14.7-25.5c2.1-3.4,6.3-4.1,9.6-2.2c3.4,1.9,5,6.1,3,9.7
		c-4.7,8.5-9.5,17-14.6,25.2C205,98.2,202.3,99,200.3,100.3z"/>
	<path d="M316.5,150.7c-4.5,0-9,0.1-13.5,0c-4.7-0.1-7.8-3.1-7.9-7.3c-0.1-4.1,3-7.5,7.6-7.6c9.2-0.2,18.5-0.2,27.7,0
		c4.7,0.1,7.6,3.4,7.5,7.7c-0.1,4.3-3.1,7.1-7.9,7.2C325.5,150.8,321,150.7,316.5,150.7z"/>
	<path d="M169,180.4c-0.1,4.2-3.6,7.5-7.8,7.4c-3.9-0.2-7.3-3.7-7.2-7.6c0.1-4.2,3.6-7.4,7.8-7.3C166,173.1,169.1,176.3,169,180.4z"
		/>
	<path d="M173.4,161.2c0-4.2,3.4-7.6,7.5-7.6c3.9,0.1,7.3,3.5,7.4,7.4c0,4.1-3.5,7.6-7.6,7.5C176.6,168.5,173.4,165.3,173.4,161.2z"
		/>
	<path d="M225.9,161.1c0-4.2,3.4-7.6,7.5-7.6c3.9,0.1,7.3,3.5,7.4,7.5c0,4.1-3.5,7.6-7.6,7.5C229.1,168.5,225.9,165.2,225.9,161.1z"
		/>
	<path d="M169,232.7c0.1,4.2-3.4,7.7-7.5,7.7c-3.9,0-7.4-3.4-7.4-7.4c-0.1-4.2,3.3-7.6,7.5-7.5C165.7,225.4,169,228.6,169,232.7z"/>
	<path d="M154.4,199.2c4.1-0.1,7.5,3.1,7.7,7.1c0.2,4.1-3.4,7.8-7.5,7.8c-4,0-7.4-3.4-7.4-7.4C147.1,202.5,150.2,199.2,154.4,199.2z
		"/>
	<path d="M259.5,199.2c4.1,0,7.5,3.2,7.6,7.2c0.1,4.1-3.5,7.8-7.6,7.7c-4-0.1-7.3-3.4-7.3-7.5C252.2,202.4,255.3,199.2,259.5,199.2z
		"/>
	<path d="M199.7,288.9c0.1-4.1,3.3-7.3,7.5-7.2c4.1,0,7.4,3.4,7.4,7.4c0,4.1-3.7,7.7-7.8,7.5C202.7,296.4,199.6,293,199.7,288.9z"/>
	<path d="M199.7,154.1c0-4.2,3.1-7.4,7.3-7.4c4.1-0.1,7.5,3.1,7.6,7.2c0.1,4.1-3.5,7.8-7.6,7.7C203,161.5,199.7,158.2,199.7,154.1z"
		/>
	<path d="M199.7,258.9c0.1-4.1,3.3-7.3,7.5-7.2c4.1,0,7.4,3.4,7.4,7.4c0,4.1-3.7,7.7-7.8,7.5C202.7,266.4,199.6,263,199.7,258.9z"/>
	<path d="M252.4,225.4c4.2,0,7.4,3.1,7.5,7.2c0.1,4.3-3.3,7.8-7.5,7.7c-4-0.1-7.4-3.5-7.4-7.5C245,228.7,248.4,225.4,252.4,225.4z"
		/>
	<path d="M180.8,259.4c-4.2,0-7.3-3.2-7.4-7.3c0-4.1,3.2-7.5,7.3-7.5c4.1-0.1,7.7,3.5,7.7,7.6C188.2,256.2,184.9,259.4,180.8,259.4z
		"/>
	<path d="M259.9,180.3c0,4.1-3.3,7.5-7.3,7.5c-4.1,0-7.7-3.6-7.6-7.7c0.1-4,3.5-7.3,7.6-7.2C256.8,173,259.9,176.2,259.9,180.3z"/>
	<path d="M233.4,259.4c-4.2,0-7.4-3-7.5-7.2c-0.1-4.2,3.3-7.7,7.5-7.7c4,0.1,7.4,3.5,7.4,7.5C240.8,256.1,237.5,259.4,233.4,259.4z"
		/>
	<path d="M120.2,48.6c3.9,0,7.4,3.4,7.5,7.3c0.1,4.1-3.4,7.6-7.5,7.6c-4.2,0-7.5-3.4-7.4-7.6C112.8,51.8,116.2,48.6,120.2,48.6z"/>
	<path d="M56.6,127.2c-3.9,0.1-7.4-3.3-7.6-7.3c-0.2-4.1,3.2-7.7,7.4-7.7c4.1,0,7.4,3.1,7.5,7.2C64.1,123.6,60.8,127.1,56.6,127.2z"
		/>
</g>
</svg>
