<?xml version="1.0" encoding="utf-8"?>
<!-- Generator: Adobe Illustrator 22.1.0, SVG Export Plug-In . SVG Version: 6.00 Build 0)  -->
<svg version="1.1" id="Слой_1" xmlns="http://www.w3.org/2000/svg" xmlns:xlink="http://www.w3.org/1999/xlink" x="0px" y="0px"
	 viewBox="0 0 377.8 377.9" style="enable-background:new 0 0 377.8 377.9;" xml:space="preserve">
<style type="text/css">
	.st0{fill:#434142;}
	.st1{fill:#E85222;}
</style>
<g>
	<path class="st0" d="M66,239.3C17.3,171.2,35.6,81.6,92.2,34.8c54.9-45.3,134.1-46.8,190.4-2.2c31.5,24.9,50.2,57.6,55.8,97.3
		c5.6,39.6-3.7,75.8-26.7,109.3c2,0,3.3,0,4.6,0c13.5,0,27,0,40.5,0c13.4,0,21.1,7.7,21.1,21.2c0,32.1,0,64.2,0,96.4
		c0,13.2-7.7,20.9-21,20.9c-112,0-224,0-336,0c-13,0-20.8-7.7-20.8-20.7c0-32.4,0-64.7,0-97.1c0-12.9,7.8-20.7,20.8-20.7
		c13.5,0,27,0,40.5,0C62.7,239.3,64.1,239.3,66,239.3z M188.8,239.3c34.4,0,68.7,0,103.1,0.1c2.6,0,4.3-0.7,5.9-2.9
		c27.5-36.6,36.4-77.2,24.7-121.4C300.9,33.3,212.8-9.1,134.2,23.7C51.4,58.3,23.8,165.7,79.6,236c1.9,2.4,3.7,3.4,6.8,3.4
		C120.5,239.2,154.7,239.3,188.8,239.3z M188.9,365.2c55.9,0,111.7,0,167.6,0c6.8,0,8.6-1.9,8.6-8.7c0-31.9,0-63.7,0-95.6
		c0-7-1.9-9-8.8-9c-111.6,0-223.2,0-334.9,0c-6.9,0-8.8,1.9-8.8,9c0,31.7,0,63.5,0,95.2c0,7.3,1.7,9.1,9,9.1
		C77.4,365.2,133.2,365.2,188.9,365.2z"/>
	<path class="st1" d="M188.9,101c27.9,0,50.3,22.4,50.3,50.2c0,28-22.6,50.5-50.5,50.4c-27.7-0.1-50.1-22.7-50.1-50.5
		C138.7,123.3,161,101,188.9,101z M151.2,151.3c0,20.9,16.8,37.6,37.6,37.7c20.9,0,37.7-16.7,37.7-37.6c0.1-21.1-16.9-38-37.8-37.9
		C167.9,113.6,151.2,130.4,151.2,151.3z"/>
	<path class="st0" d="M195.1,31.6c0,3.9-2.7,5.9-7.6,6.5c-9.2,1-18.5,1.6-27.4,3.8c-23,5.6-42,18-57.5,36c-0.7,0.9-1.4,1.8-2.2,2.6
		c-2.8,2.9-6.3,3.2-9,0.9c-2.7-2.3-3.2-6-0.5-9c6.1-6.5,11.9-13.2,18.8-18.8c22.5-18.4,48.6-27.7,77.7-28.2
		C192.3,25.3,195.1,27.6,195.1,31.6z"/>
	<path class="st0" d="M314.7,155.4c-0.7,21.9-6.7,42.3-17.9,61.1c-1.5,2.5-3.4,4.4-6.5,4.3c-5.1-0.1-7.5-5.2-5.1-10.2
		c3.9-7.9,8-15.8,11.1-24.1c4.1-10.7,5.6-22,5.8-33.4c0-1-0.1-2,0.2-3c0.7-3.2,2.7-5,6-5.2c3.1-0.2,5.9,2,6.4,5.2
		C314.9,151.9,314.7,153.7,314.7,155.4z"/>
	<path class="st1" d="M188.9,264.6c49.6,0,99.2,0,148.9,0c10.1,0,14.7,4.6,14.8,14.6c0,11.5,0,23,0,34.5c0,8.9-5.1,13.9-14,13.9
		c-99.7,0-199.5,0-299.2,0c-9,0-14-5-14-13.9c0-11.9,0-23.7,0-35.6c0-8.5,5.1-13.4,13.6-13.4C88.9,264.6,138.9,264.6,188.9,264.6z
		 M340,277.4c-100.8,0-201.3,0-301.9,0c0,12.5,0,24.8,0,37.3c100.6,0,201,0,301.9,0c0-11.1,0-22.1,0-33.1
		C340,280.3,340,279,340,277.4z"/>
	<path class="st1" d="M321.1,352.6c-8,0-16,0-23.9,0c-4.8,0-7.7-2.5-7.5-6.4c0.1-3.7,2.9-6,7.5-6c16,0,31.9,0,47.9,0
		c4.9,0,7.5,2.3,7.5,6.4c-0.1,3.8-2.7,6-7.4,6C337.1,352.6,329.1,352.6,321.1,352.6z"/>
	<path class="st1" d="M276.9,346.3c0,3.5-2.6,6.2-6.1,6.2c-3.7,0.1-6.4-2.7-6.3-6.3c0.1-3.5,2.7-6,6.2-6
		C274.3,340.2,276.9,342.9,276.9,346.3z"/>
	<path class="st1" d="M188.8,176.3c-13.9,0-25-11.2-25.1-25c-0.1-13.9,11.4-25.4,25.3-25.3c13.8,0.1,25,11.3,25.1,25.1
		C214.2,165.1,202.9,176.4,188.8,176.3z M201.5,151.4c0.1-6.9-5.7-12.7-12.6-12.7c-6.9,0-12.7,5.8-12.6,12.7
		c0,6.8,5.6,12.4,12.4,12.5C195.5,164,201.5,158.2,201.5,151.4z"/>
</g>
</svg>
