<?xml version="1.0" encoding="utf-8"?>
<!-- Generator: Adobe Illustrator 22.1.0, SVG Export Plug-In . SVG Version: 6.00 Build 0)  -->
<svg version="1.1" id="Слой_1" xmlns="http://www.w3.org/2000/svg" xmlns:xlink="http://www.w3.org/1999/xlink" x="0px" y="0px"
	 viewBox="0 0 409.6 409.6" style="enable-background:new 0 0 409.6 409.6;" xml:space="preserve">
<g>
	<path d="M409.6,216.8c-2.8,5.2-5,10.9-8.4,15.6c-28.4,38.2-57,76.2-85.5,114.2c-7.8,10.4-18.6,14-29.4,9.1
		c-3.8-1.7-7.6-4.7-10.1-8.1c-12.9-16.6-25.5-33.5-38-50.5c-7.3-10-6.8-22,0.8-30.5c7.2-8.1,19.2-10.4,28.8-4.9
		c3.4,1.9,6.4,4.8,8.8,7.9c6.4,8,12.4,16.3,18.8,24.9c1-1.2,1.8-2.2,2.6-3.2c16.4-21.8,32.8-43.7,49.1-65.6c1.4-1.9,2.2-4.6,2.2-6.9
		c0.1-64,0.1-128,0.1-192c0-10.2-3.8-13.9-14-13.9c-89.9,0-179.7,0-269.6,0c-10.2,0-13.8,3.7-13.8,14c0,17.7,0,35.5,0,53.2
		c0,1.1,0.1,2.1,0,3.2c-0.3,4.4-2.8,7.2-6.5,7.1c-3.7,0-6.3-2.7-6.4-7.2c-0.1-13.1-0.1-26.1-0.1-39.2c0-1.6,0-3.1,0-4.9
		c-6.1,0-11.8-0.4-17.5,0.1c-4.4,0.4-7.6,4.4-8.3,9.1c-0.2,1.2-0.1,2.4-0.1,3.6c0,101.9,0,203.7,0,305.6c0,2,0.1,4,0.7,5.9
		c1.2,3.9,3.9,6.7,7.9,7c5.5,0.4,11.1,0.1,17.2,0.1c0-2,0-3.8,0-5.6c0-83.5,0-166.9,0-250.4c0-2,0-4,0.4-6c0.6-3.2,2.9-4.8,5.9-4.9
		c3.1-0.1,5.5,1.4,6.2,4.6c0.4,1.9,0.5,4,0.5,5.9c0,89.1,0,178.1,0,267.2c0,1.6,0,3.2,0.1,4.8c0.3,5.9,4.2,9.9,10,10.5
		c1.2,0.1,2.4,0.1,3.6,0.1c90,0,180,0,270,0c2.1,0,4.3-0.1,6.3-0.7c5.1-1.5,7.5-5.5,7.5-12.2c0-20.8,0-41.6,0-62.4
		c0-1.2,0-2.4,0-3.6c0.2-4.5,2.7-7.2,6.3-7.3c3.6,0,6.4,2.8,6.5,7.2c0.2,5.9,0.1,11.7,0.1,17.6c0,16,0,32,0,48
		c0,16.6-9.8,26.4-26.3,26.4c-89.7,0-179.4,0-269.2,0c-17.4,0-25.4-6.9-27.9-23.9c-0.1-0.5-0.3-1-0.6-2.2c-5.6,0-11.3,0.4-17-0.1
		C9.3,382.2,0.8,373,0.1,361.1C0,360.3,0,359.5,0,358.7c0-102.5,0-205,0-307.6C0,36.9,8.5,27.5,22.6,26c3.4-0.4,6.9-0.2,10.4-0.2
		c1.7,0,3.4,0,5.4,0c0.4-2.7,0.5-5.3,1.1-7.6c2.2-8.5,7.5-14.2,15.9-17c1-0.3,1.9-0.8,2.9-1.2c94.7,0,189.3,0,284,0
		c16.1,6.5,19.8,12.1,19.8,29.9c0,56.5,0,113,0,169.6c0,1.5,0,3,0,4.6c2.1-1.5,3.3-3.1,4.6-4.8c8.7-10.5,22-12.6,32.8-5.1
		c5.5,3.8,8,9.4,9.9,15.4C409.6,212,409.6,214.4,409.6,216.8z M294.9,345.8c0.2-0.3,0.4-0.6,0.6-1c4.6,0,7.5-2.9,10-6.3
		c29.1-38.8,58.2-77.6,87.2-116.4c0.9-1.2,1.8-2.3,2.5-3.6c2.6-4.9,1.2-10.7-3.2-13.8c-4.3-3.1-10-2.6-13.8,1.3
		c-1.1,1.1-2.1,2.4-3,3.7c-24.3,32.4-48.6,64.8-72.9,97.2c-5,6.7-9,6.6-14.1-0.1c-7.7-10.2-15.3-20.5-23.1-30.6
		c-3.9-5.1-10.4-5.8-15.3-2.2c-4.6,3.4-5.6,10-1.9,15c12.8,17.2,25.6,34.4,38.7,51.4C288.6,342.8,292.1,344,294.9,345.8z"/>
	<path d="M200.4,90.5c-30.4,0-60.8,0-91.2,0c-1.5,0-3,0.1-4.4-0.1c-3.3-0.5-5.3-2.6-5.5-5.9c-0.2-3.3,1.6-5.6,4.8-6.5
		c1.4-0.4,2.9-0.4,4.4-0.4c61.4,0,122.9,0,184.3,0c1.5,0,3,0,4.3,0.4c3.2,1,4.8,3.3,4.5,6.6c-0.3,3.2-2.2,5.1-5.3,5.7
		c-1.4,0.3-2.9,0.2-4.4,0.2C261.4,90.5,230.9,90.5,200.4,90.5z"/>
	<path d="M174.8,163.9c21.9,0,43.7,0,65.6,0c1.3,0,2.7-0.1,4,0.1c3.3,0.5,5.3,2.5,5.5,5.8c0.2,3.3-1.5,5.7-4.7,6.5
		c-1.5,0.4-3.2,0.4-4.8,0.4c-43.9,0-87.7,0-131.6,0c-0.3,0-0.5,0-0.8,0c-5.7,0-8.8-2.3-8.8-6.5c0-4.2,3-6.4,8.8-6.4
		C130.3,163.9,152.5,163.9,174.8,163.9z"/>
	<path d="M174.4,198.4c22,0,44,0,66,0c1.5,0,3-0.1,4.4,0.2c3.2,0.7,5.1,2.8,5.2,6.2c0,3.4-1.8,5.5-5.1,6.2c-1.4,0.3-2.9,0.2-4.4,0.2
		c-43.9,0-87.7,0-131.6,0c-6.5,0-9.6-2.1-9.6-6.4c0-4.4,3.1-6.5,9.6-6.5C130.7,198.4,152.5,198.4,174.4,198.4z"/>
	<path d="M153.3,293.1c14.6,0,29.3,0,43.9,0c1.7,0,3.5,0.1,5.1,0.5c2.9,0.7,4.9,3.2,4.3,5.9c-0.4,2.2-2.4,4.5-4.2,6
		c-1.1,0.9-3.3,0.7-5,0.7c-29.6,0-59.1,0-88.7,0c-0.8,0-1.6,0-2.4,0c-4.3-0.4-7.2-3-7.1-6.6c0.1-3.6,2.8-6.3,7.3-6.4
		c10.9-0.1,21.8-0.1,32.8-0.1C143.9,293.1,148.6,293.1,153.3,293.1z"/>
	<path d="M200.4,125c-14.6,0-29.3,0-43.9,0c-1.5,0-2.9,0-4.4-0.2c-3.2-0.5-5-2.6-5.3-5.7c-0.3-3.1,1.2-5.5,4.2-6.5
		c1.6-0.5,3.4-0.6,5.1-0.6c29.6,0,59.1,0,88.7,0c0.5,0,1.1,0,1.6,0c4.9,0.1,8,2.6,7.9,6.6c0,4-2.9,6.3-8,6.3
		C231,125,215.7,125,200.4,125z"/>
	<path d="M122.9,327.7c5.3,0,10.6-0.1,16,0c4.9,0.1,7.6,2.4,7.7,6.3c0.1,3.9-2.7,6.6-7.4,6.6c-10.8,0.1-21.6,0.1-32.3,0
		c-4.6,0-7.6-2.8-7.5-6.6c0-3.8,2.9-6.3,7.6-6.3C112.2,327.7,117.5,327.7,122.9,327.7z"/>
	<path d="M291,176.7c-1.6,0-3.2,0.2-4.8,0c-3.5-0.4-5.9-3.1-5.9-6.4c0-3.4,2.6-6.1,6.3-6.3c2.8-0.2,5.6-0.1,8.3,0
		c4.1,0.2,6.7,2.7,6.7,6.4c0,3.6-2.5,6.2-6.7,6.4C293.7,176.8,292.4,176.8,291,176.7C291,176.7,291,176.7,291,176.7z"/>
	<path d="M290.9,198.5c1.7,0,3.5-0.2,5.2,0c3.4,0.5,5.5,2.6,5.6,6.1c0.2,3.4-2.1,6.2-5.7,6.5c-3.2,0.3-6.4,0.2-9.5,0
		c-3.5-0.2-6-2.9-6.1-6.2c-0.1-3.4,2.5-6.2,6.2-6.5C288,198.3,289.4,198.4,290.9,198.5C290.9,198.4,290.9,198.4,290.9,198.5z"/>
</g>
</svg>
