<?xml version="1.0" encoding="utf-8"?>
<!-- Generator: Adobe Illustrator 22.1.0, SVG Export Plug-In . SVG Version: 6.00 Build 0)  -->
<svg version="1.1" id="Слой_1" xmlns="http://www.w3.org/2000/svg" xmlns:xlink="http://www.w3.org/1999/xlink" x="0px" y="0px"
	 viewBox="0 0 313.3 384" style="enable-background:new 0 0 313.3 384;" xml:space="preserve">
<g>
	<path d="M242.9,0c1.6,1.4,3.2,2.8,4.7,4.3c20.7,20.7,41.3,41.4,62.1,62c2.6,2.6,3.7,5.3,3.6,9c-0.1,79-0.2,158,0.1,237
		c0.1,16.2-10.3,26.5-24.8,25.9c-0.4,0-0.7,0.1-1.5,0.2c0,7.2-1.2,14-6.6,19.4c-5.5,5.4-12.2,6.9-19.8,6.6c-0.3,1-0.5,1.8-0.7,2.6
		c-2.6,10.2-11.1,16.9-21.6,17c-12.4,0.1-24.7,0-37.1,0c-58.9,0-117.7,0-176.6,0C9,384,0,375.1,0,359.4c0-24.9,0-49.7,0-74.6
		c0-1.4-0.1-2.8,0.2-4.1c0.7-3.1,2.8-4.8,6-4.5c2.9,0.3,4.7,2.1,5,5.2c0.1,1.2,0.1,2.5,0.1,3.7c0,24.7,0,49.5,0,74.2
		c0,9.5,4,13.5,13.4,13.5c70.6,0,141.2,0,211.9,0c6.9,0,10.1-2.1,12.3-8.4c-1.6,0-3,0-4.4,0c-9,0-18,0-27,0c-4.5,0-6.9-2.1-6.9-5.7
		c0-3.5,2.3-5.6,6.5-5.6c15.1,0,30.2,0,45.4,0c9.6,0,14-4.9,13-14.8c-1.5-0.1-3.1-0.2-4.6-0.2c-64.1,0-128.2,0-192.4,0
		c-3,0-6-0.1-8.9-0.8c-8.6-1.9-15.3-9.5-16.5-18.3c-0.2-1.9-0.3-3.7-0.3-5.6c0-72.5,0-145,0-217.5c0-1.5,0-3,0.3-4.5
		c0.7-3,2.8-4.5,5.8-4.2c2.7,0.2,4.6,1.9,5,4.7c0.2,1.6,0.1,3.2,0.1,4.9c0,71.7,0,143.5,0,215.2c0,2,0,4,0.4,6
		c0.8,4.3,3.5,7.2,7.7,8.3c1.9,0.5,4,0.6,5.9,0.6c70,0,140,0,210,0c1.1,0,2.3,0,3.4-0.1c6.2-0.5,10.3-4.7,10.7-11c0.1-1,0-2,0-3
		c0-76.7,0-153.5,0-230.2c0-1.4,0-2.7,0-4.5c-1.6-0.1-2.9-0.2-4.2-0.2c-12.5,0-25,0-37.5,0c-16,0-24.9-8.8-24.9-24.7
		c0-12.5,0-25,0-37.5c0-1.3,0-2.7,0-4.4c-1.7,0-3,0-4.4,0c-51.2,0-102.5,0-153.7,0c-9.5,0-13.3,3.9-13.4,13.5c0,13.2,0,26.5,0,39.7
		c0,1.1,0,2.3,0,3.4c-0.2,3.7-2.2,5.8-5.5,5.8c-3.2,0-5.5-2.1-5.6-5.7c-0.2-6.9-0.1-13.7-0.1-20.6c0-3.1,0-6.2,0-9.2
		c-8.7-1.9-14.7,2.6-15,11c0,0.9,0,1.7,0,2.6c0,95.7,0,191.5,0,287.2c0,2.3,0.1,4.8,0.8,7c1.4,4.5,5.6,7.1,11.2,7.1
		c12.1,0.1,24.2,0,36.4,0c34.1,0,68.2,0,102.4,0c1.2,0,2.5-0.1,3.7,0.1c2.9,0.3,4.6,2.1,4.9,4.8c0.3,2.8-1,4.9-3.7,5.8
		c-1.4,0.4-2.9,0.5-4.4,0.5c-46.1,0-92.2,0-138.4,0c-15.1,0-24.2-9.2-24.2-24.4c0-92.5,0-185,0-277.5c0-1.6,0-3.2,0-4.7
		c-8.8-2-15,2.9-15,11.9c-0.1,22.6,0,45.2,0,67.9c0,38.9,0,77.7,0,116.6c0,1.6,0.4,3.7-0.4,4.7c-1.2,1.6-3.3,3.5-5,3.5
		c-1.7,0-3.9-1.8-5.1-3.3C-0.2,258,0,256,0,254.4C0,193,0,131.7,0,70.3c0-14.9,8.6-23.7,23.5-24.4c1.1-0.1,2.9-1,3.2-1.9
		C30.6,31.9,37.5,26.6,50,26.3c0.7,0,1.5-0.1,2.4-0.2c0.1-1.5,0.1-2.8,0.2-4.2c0.6-10.5,6.2-17.8,16.1-21.1c0.6-0.2,1.1-0.5,1.6-0.8
		C127.9,0,185.4,0,242.9,0z M292,66.6c-15.1-15.1-30.4-30.4-45.4-45.4c0,11-0.1,22.9,0,34.7c0.1,5.8,4.2,10.4,10,10.6
		C268.8,66.8,280.8,66.6,292,66.6z"/>
	<path d="M182.9,163.4c24,0,47.9,0,71.9,0c1.2,0,2.5-0.1,3.7,0.1c3,0.4,4.7,2.3,4.9,5.2c0.2,2.8-1.3,4.8-4,5.6
		c-1.4,0.4-3,0.4-4.4,0.4c-48.1,0-96.1,0-144.2,0c-1.2,0-2.5,0.1-3.7-0.1c-3.1-0.6-4.9-2.6-4.7-5.8c0.2-3.2,2-5.1,5.2-5.2
		c5-0.2,10-0.1,15-0.1C142.7,163.4,162.8,163.4,182.9,163.4z"/>
	<path d="M182.9,132.9c-24,0-47.9,0-71.9,0c-1.4,0-2.8,0.1-4.1-0.1c-2.6-0.4-4.2-2.1-4.5-4.8c-0.3-2.8,0.9-5,3.6-5.8
		c1.5-0.5,3.2-0.5,4.8-0.5c48.1,0,96.1,0,144.2,0c5.7,0,8.5,1.8,8.6,5.6c0.1,3.8-2.6,5.7-8.3,5.7C231.1,132.9,207,132.9,182.9,132.9
		z"/>
	<path d="M183,216.2c-23.9,0-47.7,0-71.6,0c-1.4,0-2.8,0-4.1-0.1c-3.1-0.4-4.7-2.2-4.9-5.2c-0.1-3,1.4-5,4.4-5.6
		c1.2-0.3,2.5-0.3,3.7-0.3c48.2,0,96.5,0,144.7,0c1.4,0,2.8,0,4.1,0.3c2.8,0.7,4.3,2.7,4.2,5.5c-0.1,2.9-1.7,4.9-4.8,5.3
		c-1.4,0.2-2.7,0.1-4.1,0.1C230.7,216.3,206.8,216.2,183,216.2z"/>
</g>
</svg>
