<?xml version="1.0" encoding="utf-8"?>
<!-- Generator: Adobe Illustrator 22.1.0, SVG Export Plug-In . SVG Version: 6.00 Build 0)  -->
<svg version="1.1" id="Слой_1" xmlns="http://www.w3.org/2000/svg" xmlns:xlink="http://www.w3.org/1999/xlink" x="0px" y="0px"
	 viewBox="0 0 360.1 360.1" style="enable-background:new 0 0 360.1 360.1;" xml:space="preserve">
<g>
	<path d="M53.2,228c4.1,0,8.2,0.1,12.3-0.1c0.7,0,1.9-1.2,2-1.9c3.5-16.9,6.8-33.8,10.2-50.7c0.2-0.9,0-2-0.2-2.9
		c-3.2-12.8-6.4-25.7-9.6-38.5c-0.1-0.6-0.3-1.1-0.7-2.4c-6.7,0-13.5,0.7-20.1-0.1C21.3,128,1.9,107.7,0.5,81.8
		c-0.7-13.1-0.8-26.7,1.4-39.6C6.1,17.9,28.5,0.2,53.2,0.1C101.6,0,150,0,198.4,0.1c11.3,0,19.9,5.3,25.6,14.9
		c1.4,2.5,2.9,3.2,5.6,3.1c5.2-0.2,10.5,0,15.7-0.1c7.4-0.1,13,3.2,16.5,9.7c1,1.8,2,2.4,4,2.4c4.5-0.1,9,0,13.5,0
		c12.5,0,18.9,5.4,21.1,18c9,0,18.1-0.1,27.2,0.1c2.4,0,5,0.6,7.2,1.5c7,3,13.8,6.4,20.7,9.6c2.6,1.2,4.5,2.8,4.5,5.8
		c0.1,3-1.7,4.8-4.2,6.1c-7.2,3.8-14.3,7.7-21.5,11.4c-1.8,0.9-4,1.4-6.1,1.4c-9.2,0.1-18.5,0.1-27.8,0.1c-0.4,1.7-0.6,3.3-1.1,4.8
		c-2.1,7.7-9.7,13.5-17.2,13.2c-3.5-0.1-5.8-2.2-6.1-5.4c-0.3-3.4,1.7-5.9,5.3-6.6c5.5-0.9,6.7-2.4,6.7-7.9c0-10.9,0-21.7,0-32.6
		c0-5.5-2-7.5-7.4-7.5c-5.4,0-10.7,0-16.5,0c0,1.6,0,2.9,0,4.2c0,16.1,0,32.2,0,48.4c0,11.9-7.5,19.4-19.5,19.4
		c-5.4,0-10.8,0.1-16.1,0c-2,0-3.1,0.5-4.1,2.3c-6,10.4-15.1,15.6-27.1,15.7c-10.1,0-20.2,0-30.5,0c-3.4,13.4-6.7,26.6-9.9,39.8
		c-1.9,7.5-2.7,8.2-10.4,8.2c-4.9,0-9.7,0-14.6,0c-0.2,0-0.5,0.1-1.1,0.2c-2.4,9.1-5,18.3-7.4,27.5c-4.7,17.5-9.4,35-13.9,52.5
		c-0.5,2-0.3,4.4,0.3,6.4c1.3,4.5,0.6,7.3-3,8.8c-3.5,1.5-6.3-0.1-8.2-4.2c-2.2-4.5-2.4-8.7-1-13.7c7.4-26.7,14.4-53.5,21.4-80.3
		c0.6-2.2,0.6-4.7,0.1-6.9c-3.3-14-6.9-27.9-10.3-41.8c-1.4-5.6,1-8.7,6.8-8.7c26.7,0,53.5,0,80.2,0c13.4,0,20.4-6.9,20.4-20.2
		c0-22.6,0-45.2,0-67.9c0-12.9-7.1-19.9-20-19.9c-46.7,0-93.5,0-140.2,0c-25.9,0-43.8,17.9-43.8,43.9c0,9.5-0.4,19.1,0.7,28.4
		c2.3,19.8,19.4,34.9,39.3,35.6c6.2,0.2,12.5,0,18.7,0.1c4.3,0,6.1,1.4,7.2,5.6C82,141,86,156.4,89.6,171.8c0.7,3.1-0.3,6.6-0.9,9.9
		c-3.4,17.3-6.9,34.5-10.3,51.8c-1.1,5.3-2.7,6.6-8.2,6.6c-5.9,0-11.7,0-18,0c-1.2,15.9-2.3,31.7-3.5,48c1.8,0,3.2,0,4.7,0
		c27.6,0,55.2,0,82.9,0c26,0,44,18,44,44.1c0,6.9,0,13.7,0,20.6c0,5.1-2.2,7.3-7.3,7.3c-43.4,0-86.7,0-130.1,0
		c-10.8,0-18.5-7.8-18.5-18.4c-0.1-11.7,0-23.5,0-35.2c0-6.8,2.9-12.2,8.8-15.5c3-1.6,3.7-3.6,3.9-6.7c3.1-44.4,6.3-88.7,9.5-133.1
		c0.4-5,2.9-7.5,6.8-7c3.7,0.5,5.5,3.5,5.1,8.2c-1.8,24.8-3.6,49.6-5.4,74.4C52.9,227,53.1,227.3,53.2,228z M132.1,348
		c0-3.5,0-6.5,0-9.6c0-6.6-1.7-8.4-8.5-8.4c-22.9,0-45.7,0-68.6,0c-4.7,0-7-2-7.1-5.8c-0.1-3.9,2.4-6.2,7.2-6.2
		c23.5,0,47-0.1,70.5,0c10.7,0,18.4,7.8,18.5,18.5c0,3.7,0,7.4,0,11.3c8.2,0,15.9,0,24,0c0-5.9,0-11.7,0-17.4
		c-0.2-17.4-13-30.3-30.4-30.4c-31.4-0.1-62.7,0-94.1,0c-5.6,0-7.5,2-7.5,7.7c0,10.6,0,21.2,0,31.9c0,6.7,1.7,8.4,8.4,8.4
		c27.9,0,55.7,0,83.6,0C129.3,348,130.5,348,132.1,348z M228.4,30.1c0,24.2,0,48,0,72c6.1,0,11.9,0.1,17.8,0c3.6-0.1,5.9-2.3,5.9-6
		c0.1-20,0.1-39.9,0-59.9c0-3.7-2.2-5.9-5.8-6C240.4,30,234.6,30.1,228.4,30.1z M145.4,167.9c3-11.9,5.9-23.7,8.9-35.7
		c-11,0-21.6,0-32.5,0c3,12,6,23.9,8.9,35.7C135.8,167.9,140.5,167.9,145.4,167.9z M340.4,65.4c-4.2-1.8-8-4.8-12.1-5.1
		c-9.2-0.8-18.6-0.2-28-0.2c0,4.2,0,7.9,0,12c6.6,0,13-0.5,19.2,0.1C327.5,73,333.8,69.9,340.4,65.4z"/>
	<path d="M78.1,48c-7.5,0-15,0-22.5,0c-5.4,0-7.4,2.1-7.4,7.5c0,7,0,14,0,21c0,5.4,2.1,7.4,7.5,7.4c7.1,0,14.2,0,21.4,0
		c4.5,0,7,2.3,6.9,6.1c-0.1,3.6-2.6,5.9-6.8,5.9c-7.7,0.1-15.5,0.1-23.2,0c-9.8-0.2-17.6-7.8-17.8-17.7C36,70.2,36,62.1,36.2,54
		c0.2-10,7.9-17.8,17.9-17.9c16-0.1,32-0.1,48,0c10,0.1,17.8,7.8,18,17.8c0.1,8.1,0.1,16.2,0,24.4c-0.1,9.2-7.2,16.8-16.2,17.7
		c-4.3,0.4-7.2-1.6-7.7-5.3c-0.4-3.5,1.8-5.9,6-6.6c4.1-0.7,5.8-2.6,5.9-6.8c0.1-7.5,0.1-15,0-22.5c0-4.5-2.2-6.6-6.8-6.6
		C93.6,48,85.8,48,78.1,48z"/>
	<path d="M161.7,48c-7.6,0-15.2,0-22.8,0c-4.5,0-6.9-2.2-6.8-6.1c0.1-3.6,2.5-5.9,6.7-5.9c15.6,0,31.2,0,46.8,0
		c4.3,0,6.6,2.2,6.6,5.9c0,3.8-2.3,6-6.5,6C177.7,48.1,169.7,48,161.7,48z"/>
	<path d="M161.9,72c-7.6,0-15.2,0-22.8,0c-4.6,0-7-2-7.1-5.9c0-3.8,2.4-6.1,6.9-6.1c15.5,0,30.9,0,46.4,0c4.5,0,6.9,2.2,6.8,6.1
		c-0.1,3.8-2.4,5.9-7,5.9C177.4,72.1,169.6,72,161.9,72z"/>
	<path d="M162,84c7.6,0,15.2,0,22.8,0c4.5,0,7.1,2.2,7.1,5.9c0,3.7-2.6,6.1-7,6.1c-15.2,0-30.5,0-45.7,0c-4.5,0-7.1-2.2-7.1-5.9
		c0-3.7,2.5-6,7-6C146.8,84,154.4,84,162,84z"/>
</g>
</svg>
