<?xml version="1.0" encoding="utf-8"?>
<!-- Generator: Adobe Illustrator 22.1.0, SVG Export Plug-In . SVG Version: 6.00 Build 0)  -->
<svg version="1.1" id="Слой_1" xmlns="http://www.w3.org/2000/svg" xmlns:xlink="http://www.w3.org/1999/xlink" x="0px" y="0px"
	 viewBox="0 0 336.1 252" style="enable-background:new 0 0 336.1 252;" xml:space="preserve">
<g>
	<path d="M15.9,216.1c-4.8-4.7-9-8.8-13.2-12.9c-3.7-3.7-3.6-6.6,0.1-10.3c3.3-3.4,6.5-6.9,10.1-10c1.8-1.5,4.3-2.6,6.6-2.7
		c9.1-0.3,18.2-0.2,27.4-0.1c4.5,0,7.1,2.3,7.1,5.9c0,3.7-2.6,6-7,6c-6.7,0-13.5,0.5-20.2-0.1c-5.6-0.5-8.9,1.9-12.1,6.6
		c4,3.9,8.2,7.9,12.2,11.9c4.4,4.4,4.4,7-0.1,11.4c-4,4-8,7.8-12.2,11.9c3.1,4.1,6,6.6,11.5,6.5c41.5-0.3,83-0.2,124.5-0.2
		c1.3,0,2.7,0,4,0c0.1-0.2,0.1-0.4,0.2-0.6c-0.9-0.5-1.8-1.1-2.7-1.5c-19.6-10.2-35.4-24.6-47.5-43.1c-1.3-2-2.6-2.9-5.1-2.8
		c-8.6,0.2-17.2,0.1-25.9,0.1c-4.8,0-7.5-2.2-7.5-5.9c0-3.7,2.7-6,7.4-6.1c7.4,0,14.7,0,22.1,0c-2.5-7.6-5.5-14.9-7.4-22.4
		C69.4,86.2,117,13.1,189.7,1.6c67.1-10.7,130.6,33.2,143.9,99.5c13.5,67.1-29,132.7-96,147.7c-9.3,2.1-19,3-28.6,3.1
		c-62.9,0.3-125.7,0.1-188.6,0.2c-3.4,0-6-0.9-8.3-3.4c-3.1-3.4-6.6-6.5-9.8-9.9c-3.1-3.3-3.2-6.3,0-9.5
		C6.7,224.9,11.1,220.7,15.9,216.1z M209.9,12C147.1,12.1,96,63.3,96.1,126.1C96.2,189,147.4,240.1,210.2,240
		c62.9-0.1,113.9-51.3,113.8-114.1C324,63,272.8,11.9,209.9,12z"/>
	<path d="M209.8,222c-49.3-0.2-89.2-37.3-95-84.1c-6.2-50.4,27.7-96.8,76.9-106c32.7-6.1,61.3,2.8,85.5,25.6
		c2.3,2.2,3.5,4.6,2.3,7.7c-1.6,4.1-6.6,4.8-10.2,1.4c-7.3-7.1-15.6-12.8-24.9-17.1c-51.3-23.5-111.7,10.8-117.8,66.9
		c-4.9,45.3,25.6,85.8,70.6,92.7c26.5,4.1,49.9-3.5,69.9-21.4c0.5-0.4,0.9-0.9,1.4-1.3c3.1-2.8,6.6-2.9,9-0.3c2.4,2.5,2.2,6.1-0.7,9
		c-7.6,7.4-16.2,13.4-25.7,17.9C238.2,218.9,224,222,209.8,222z"/>
	<path d="M206.7,198c-16-0.3-32.7-6.9-46.6-20.2c-2.8-2.7-3-6.1-0.7-8.7c2.3-2.5,5.8-2.6,8.7-0.1c0.6,0.5,1.1,1,1.7,1.5
		c23.2,20.8,57.7,21,80.5-0.2c18.2-16.9,24.2-38.1,16.9-61.8c-7.4-23.8-24.3-38-49-41.8c-18.5-2.8-34.8,2.8-48.8,15.2
		c-0.7,0.7-1.4,1.4-2.2,2c-2.7,2.3-6.2,2.4-8.4,0.1c-2.5-2.5-2.5-5.9,0.2-8.7c7.4-7.6,16.2-13.3,26.2-16.9
		c48.9-17.7,99.6,19.9,96.7,71.8C279.9,168,248,198.1,206.7,198z"/>
	<path d="M210.1,168c-23.1,0-42-18.7-42-41.8C168,102.9,187,83.9,210.2,84c23.1,0.1,41.9,19,41.9,42
		C252,149.1,233.2,167.9,210.1,168z M210.1,156c16.6,0,30-13.5,30-30.1c0-16.4-13.4-29.8-29.8-29.9c-16.6-0.1-30.1,13.4-30.2,29.9
		C180,142.5,193.5,156,210.1,156z"/>
</g>
</svg>
