<?xml version="1.0" encoding="utf-8"?>
<!-- Generator: Adobe Illustrator 22.1.0, SVG Export Plug-In . SVG Version: 6.00 Build 0)  -->
<svg version="1.1" id="Слой_1" xmlns="http://www.w3.org/2000/svg" xmlns:xlink="http://www.w3.org/1999/xlink" x="0px" y="0px"
	 viewBox="0 0 408.5 409.7" style="enable-background:new 0 0 408.5 409.7;" xml:space="preserve">
<g>
	<path d="M216.4,0c8.2,1.1,16.4,1.8,24.5,3.3c79.9,14.2,145.8,77.3,163.2,156.4c2.1,9.5,3.1,19.2,4.3,28.8c0.7,5.6-1.3,8.4-5.1,8.7
		c-4,0.3-6.4-2.4-6.8-8c-1.2-14.8-4.1-29.2-8.6-43.4c-0.7-2.2-1.6-2.9-4-3.4c-13.8-2.9-27.7-5.4-41.2-9.5
		c-15-4.5-28.1-21.9-23.3-40.4c1.5-5.9,0.9-11.6-1.1-17.3c-2.9-8.6-5.8-17.2-4.3-26.5c0.2-1-1.1-2.6-2.1-3.3
		c-24-16.2-50.3-26.6-78.9-30.8c-42.9-6.2-83.5,1.1-121.6,22.1c-0.7,0.4-1.3,0.8-2.2,1.4c8.1,3.7,15.6,7.4,24.8,6.9
		c13.6-0.7,27.2-0.2,40.8-0.2c1.3,0,2.7-0.1,4,0.3c3,1,4.6,3.2,4.2,6.4c-0.4,3.3-2.6,5.1-5.7,5.1c-18,0.1-36,0.1-54-0.1
		c-1.9,0-3.8-1-5.7-1.8c-4.4-1.8-9.1-3.3-13.2-5.7c-6-3.5-10.6-2.6-15.5,2C82.5,57,75.6,62.3,68.8,68c2.9,3,5.4,5.6,7.8,8.2
		c9.2,10.3,11.6,22,5.3,34.3c-3.3,6.4-3.1,11.6,0.1,17.8c4,7.6,7.3,15.7,10.7,23.6c1,2.4,2.3,3.1,4.8,3.1c7.2-0.2,14.4-0.1,21.6,0
		c8.2,0.1,12.2,3.3,14,11.3c2.9,13.1,5.9,26.2,8.6,39.4c0.5,2.4,1.6,3.6,3.8,4.4c14.8,5.6,29.8,10.9,44.3,17.2
		c14.9,6.5,22.7,22,21.1,38.3c-0.6,5.9-0.5,12-0.2,18c0.4,7.1,4.6,11.7,11.1,14.2c5.6,2.1,11.2,4.2,16.8,6.2
		c7.9,2.9,9.6,6.4,10.5,14.6c1.7,16.6-3.3,31.6-9.5,46.4c-4,9.6-3,19.3-3.1,29.7c6.7-1.6,13.2-1,18.3-7.3
		c16.3-20.4,33.1-40.4,50-60.3c4.9-5.8,7.6-12,6.7-19.4c-1.3-11.4,2.8-18.7,14.1-22c4-1.2,7.9-3.3,11.6-5.3c3.9-2.1,6-5.6,6.2-10.1
		c0.2-4.1-1.8-6.8-5.8-6.3c-11.1,1.3-17-4.1-21-13.7c-3-7.2-7.2-13.9-10.7-21c-4-8-10.2-11.9-19.2-11.8c-10.5,0.1-21.1,0.1-31.6,0
		c-4.2,0-7.7,1.3-11,4c-10.8,8.9-20.2,9.5-32.2,2.2c-9.1-5.6-18.1-11.3-27.3-16.7c-5-3-7.3-7.1-7.2-12.8c0.1-6.4-0.1-12.8,0-19.2
		c0.2-8.4,4.5-12.7,13-12.9c5.1-0.1,10.1,0,15.2-0.1c5.4-0.1,9.5,2.1,12.4,6.6c1.2,1.9,2.7,3.6,4.4,5.8c0.9-1.4,1.7-2.6,2.3-3.8
		c7.3-13.5,14.6-26.9,21.7-40.5c2.9-5.6,7.1-8.4,13.4-8.1c4,0.1,8,0,12.5,0c0-5.4,0.2-10.4,0-15.4c-0.4-7.7,2-13.6,10.7-15.9
		c-11.2-7.4-21.8-14.6-32.5-21.5c-5.1-3.3-10.4-6.5-15.9-9.1c-7.5-3.7-15.8-3.5-23.9-3.4c-2.1,0-4.3,0.2-6.4-0.1
		c-3.3-0.5-5.4-2.6-5.3-5.9c0.1-3.3,2.1-5.6,5.5-5.8c15.6-0.8,30.9,0.1,44.5,9.3c13.1,8.9,26.5,17.4,39.8,26
		c4.4,2.9,7.6,6.4,6.9,12.1c-0.7,5.6-3.8,9.1-9.5,10.5c-0.8,0.2-1.7,2.1-1.8,3.3c-0.2,5.2,0,10.4-0.1,15.6
		c-0.2,7.7-4.4,12.1-12.2,12.5c-3.5,0.2-6.9,0.2-10.4,0c-2.8-0.2-4.3,0.8-5.6,3.3c-7.3,13.8-14.7,27.5-22.1,41.2
		c-5.8,10.6-15.5,11.6-22.3,1.7c-3.4-4.9-7-7-12.8-6.2c-3,0.4-6.1,0.1-9.6,0.1c0,7.1-0.1,13.7,0.1,20.3c0,1,1.3,2.3,2.3,2.9
		c9.1,5.7,18.3,11.4,27.6,17c6.1,3.6,10.8,3.5,16.1-1.2c6.4-5.6,13.7-7.7,22.1-7.5c10,0.2,20,0.1,30,0.1c12.8,0,22.2,5.7,28.2,16.9
		c4.7,8.8,9.3,17.7,13.8,26.6c1,2.1,2.3,2.9,4.6,2.8c2.6-0.1,5.4-0.1,7.9,0.5c9.6,2.2,15.1,11.6,13,21.6c-1.7,8.2-6.3,14.3-13.9,18
		c-4.2,2-8.4,4.1-12.8,5.7c-3.8,1.4-5.7,3.3-5,7.6c0.3,1.8-0.1,3.7,0,5.6c0.2,8.8-3,16.2-8.7,23c-13.2,15.7-26.3,31.6-39.4,47.3
		c-0.8,1-1.6,2-2.4,3c0.2,0.3,0.4,0.6,0.6,0.9c7.8-3.8,15.9-7.1,23.5-11.4c45.1-25.6,76-63,91.4-112.5c3.9-12.5,5.2-25.8,7.7-38.7
		c0.2-1,0.1-2.1,0.3-3.2c0.8-4.1,3.2-6.1,6.8-5.7c3.3,0.4,5.4,2.8,5,6.9c-0.7,7.3-1.3,14.6-2.7,21.8
		c-13.8,67.5-51.5,116.8-113.2,147.4c-32.2,15.9-66.6,22.6-102.4,19.2c-82.2-7.7-140.3-50-174.1-124.9C1,250.8-2.6,215.5,1.7,179.5
		c5.6-45.8,24.7-85.2,57.1-117.8c28.8-29,63.4-47.9,103.3-56.7c9.2-2,18.7-2.8,28-4.2c1.3-0.2,2.6-0.5,3.9-0.8
		C201.5,0,208.9,0,216.4,0z M60.9,77.4C9.6,133.6-6.5,223.9,37.6,300.6c44.2,76.9,126.3,103.8,186.9,95.5c0.1-1.1,0.3-2.3,0.2-3.5
		c-1.4-14.3,1.6-27.8,7.2-40.8c0.5-1.2,0.8-2.6,1.4-3.7c5.1-10.1,4.1-20.9,3.9-31.9c-6.6-2.5-13.2-4.8-19.8-7.4
		c-10.6-4.2-17.1-11.9-18.3-23.2c-0.7-6.5-0.5-13.1,0-19.6c1.2-15-4.7-24.7-18.8-30.1c-13.3-5.1-26.6-10.2-40-15.1
		c-5.6-2-8.8-5.6-9.9-11.4c-1-5.5-2.4-10.9-3.6-16.4c-1.9-8.7-3.8-17.3-5.8-26.1c-8.1,0-15.8-0.2-23.6,0.1
		c-7.6,0.2-12.6-2.7-15.5-9.9c-3.7-9.1-7.5-18.3-12.1-26.9c-4.3-7.9-3.9-15,0.4-22.6c1.6-2.8,2.6-6.2,2.9-9.4
		C74,88.5,66.8,83.3,60.9,77.4z M326.6,56.3c-0.4,0.1-0.8,0.3-1.2,0.4c1.3,4.5,2.5,9.1,4,13.6c2.7,8.2,3.8,16.4,1.6,25.1
		c-2.9,11.7,4,22.2,15.7,26.1c11,3.7,22.7,5.4,34.1,8c0.1,0,0.4-0.3,0.7-0.6C369,100.3,350.7,76.1,326.6,56.3z"/>
</g>
</svg>
