<?xml version="1.0" encoding="utf-8"?>
<!-- Generator: Adobe Illustrator 22.1.0, SVG Export Plug-In . SVG Version: 6.00 Build 0)  -->
<svg version="1.1" id="Слой_1" xmlns="http://www.w3.org/2000/svg" xmlns:xlink="http://www.w3.org/1999/xlink" x="0px" y="0px"
	 viewBox="0 0 312.2 312.2" style="enable-background:new 0 0 312.2 312.2;" xml:space="preserve">
<g>
	<path d="M312.2,60.3c-0.5,16.5-6.3,30.8-17.9,42.5c-24.2,24.4-48.6,48.6-72.9,72.9c-37.9,37.9-75.8,75.9-113.8,113.7
		c-1.9,1.9-4.7,3.4-7.4,3.9c-28.4,6.3-56.8,12.4-85.2,18.5c-9.1,2-16.7-5.9-14.7-14.9c6.2-28.4,12.2-56.8,18.5-85.2
		c0.6-2.5,2-5.2,3.8-7.1c49.9-50,99.8-99.9,149.8-149.8c13.4-13.4,26.2-27.6,40.5-40c35-30.5,88.7-11.6,97.8,33.9
		C311.6,52.5,311.7,56.4,312.2,60.3z M27.8,284.1c0.8,0,1.2,0.1,1.5,0c20-4.3,40-8.5,60-13c2-0.5,4.2-1.7,5.7-3.2
		c45.8-45.7,91.6-91.5,137.4-137.3c0.9-0.9,1.7-1.8,2.2-2.3c-17-17-33.9-33.9-50.8-50.8c0.1-0.1-0.1,0-0.3,0.2
		C136.7,124.6,90,171.3,43.3,218.1c-1,1-1.7,2.5-2,3.8C36.7,242.5,32.3,263.1,27.8,284.1z M252.2,109.9c8.5-8.2,17.4-16.6,26-25.3
		c17.6-17.9,10.5-49.6-13.2-58c-14.3-5.1-27.4-2.5-38.3,8.2c-8.4,8.3-16.6,16.8-24.6,24.9C218.9,76.6,235.7,93.4,252.2,109.9z"/>
</g>
</svg>
