<?xml version="1.0" encoding="utf-8"?>
<!-- Generator: Adobe Illustrator 22.1.0, SVG Export Plug-In . SVG Version: 6.00 Build 0)  -->
<svg version="1.1" id="Слой_1" xmlns="http://www.w3.org/2000/svg" xmlns:xlink="http://www.w3.org/1999/xlink" x="0px" y="0px"
	 viewBox="0 0 384 287.8" style="enable-background:new 0 0 384 287.8;" xml:space="preserve">
<g>
	<path d="M384,257.2c-1,3.1-1.7,6.3-3,9.2c-6.1,13.4-16.7,20.4-31.4,21.4c-1.1,0.1-2.2,0.1-3.4,0.1c-102.9,0-205.7,0-308.6,0
		c-17.2,0-30.7-8.9-35.6-23.9c-1.3-3.8-2-8.1-2-12.1C0,179.8,0,108,0,36.1c0-20.3,15.1-35.5,35.4-36C41.3-0.1,47.2,0,53,0
		c97.7,0,195.5,0,293.2,0c17.4,0,30.8,9,35.9,24.2c0.7,2.1,1.3,4.3,1.9,6.4C384,106.2,384,181.7,384,257.2z M22.5,68.7
		c0,2,0,3.4,0,4.8c0,58.7,0,117.5,0,176.2c0,10.8,4.7,15.6,15.5,15.6c102.7,0,205.5,0,308.2,0c10.5,0,15.3-4.9,15.3-15.4
		c0-58.9,0-117.7,0-176.6c0-1.3,0-2.6,0-4.6c-2,1.3-3.4,2.2-4.8,3.1c-47.9,31.9-95.8,63.9-143.7,95.8c-14,9.3-28.1,9.2-42-0.1
		C122.7,135.3,74.5,103.1,26.2,71C25.2,70.3,24.2,69.7,22.5,68.7z M192.2,22.5c-51.4,0-102.7,0-154.1,0c-8.3,0-13,2.9-15,9.2
		c-1.9,6,0.2,10.3,7.3,15C81,80.5,131.6,114.2,182.2,148c7.9,5.2,11.7,5.3,19.5,0.1c32.2-21.5,64.4-43,96.6-64.4
		c19-12.7,38-25.3,57-38c5.6-3.8,7.5-9.2,5.2-14.9c-2.1-5.4-6.8-8.1-13.9-8.1C295.2,22.5,243.7,22.5,192.2,22.5z"/>
</g>
</svg>
