<?xml version="1.0" encoding="utf-8"?>
<!-- Generator: Adobe Illustrator 22.1.0, SVG Export Plug-In . SVG Version: 6.00 Build 0)  -->
<svg version="1.1" id="Слой_1" xmlns="http://www.w3.org/2000/svg" xmlns:xlink="http://www.w3.org/1999/xlink" x="0px" y="0px"
	 viewBox="0 0 384 287.7" style="enable-background:new 0 0 384 287.7;" xml:space="preserve">
<g>
	<path d="M384,80.9c0,58.8,0,117.5,0,176.3c-0.1,0.2-0.4,0.4-0.4,0.6c-5.1,20.3-17.5,30-38.4,30c-102.1,0-204.2,0-306.3,0
		c-1.2,0-2.5,0-3.7,0c-20.1-0.7-35-15.9-35-36c-0.1-56,0-112,0-168c0-0.9,0.2-1.8,0.3-2.9c0.7,0.4,1,0.5,1.3,0.7
		c51.9,34.6,103.7,69.2,155.6,103.7c23.3,15.5,46.3,15.5,69.6,0c46.4-30.9,92.7-61.8,139.1-92.7C371.9,88.7,378,84.8,384,80.9z"/>
	<path d="M384,40.4c-1.4,3.8-2.2,8.1-4.4,11.4c-3.1,4.4-6.7,9-11.1,11.9c-52.1,35.1-104.4,69.9-156.8,104.6
		c-12.9,8.6-26.5,8.5-39.5,0C119.8,133.4,67.4,98.5,15.1,63.5C2.5,55.1-2.7,40.6,1.3,26.1c4.1-14.8,16.8-24.9,32.6-26
		C35.1,0,36.2,0,37.3,0c103.1,0,206.2,0,309.4,0c17.1,0,30.4,9.1,35.5,24.2c0.7,2.1,1.2,4.3,1.9,6.4C384,33.9,384,37.1,384,40.4z"/>
</g>
</svg>
