<?xml version="1.0" encoding="utf-8"?>
<!-- Generator: Adobe Illustrator 22.1.0, SVG Export Plug-In . SVG Version: 6.00 Build 0)  -->
<svg version="1.1" id="Слой_1" xmlns="http://www.w3.org/2000/svg" xmlns:xlink="http://www.w3.org/1999/xlink" x="0px" y="0px"
	 viewBox="0 0 409.6 383.8" style="enable-background:new 0 0 409.6 383.8;" xml:space="preserve">
<g>
	<path d="M409.6,373.5c-2.8,7.7-8.5,10.4-16.5,10.4c-59.2-0.1-118.4-0.1-177.6-0.1c-3.1,0-6.2-0.9-9.4-1.4c-0.8-0.1-1.5-0.2-2.3-0.2
		c-4.7,0.5-9.4,1.6-14.1,1.6c-57.7,0.1-115.4,0.1-173.2,0.1C4.5,383.8,0,379.2,0,367.1c0-29.5,0-58.9,0-88.4
		c0-20.1,9.9-34.5,28.6-41.8c15.1-5.9,30.2-11.8,45.5-17.5c2.9-1.1,3.7-2.4,3.9-5.4c0.2-4.3-0.8-7.4-4.2-10.4
		c-6.1-5.3-9.6-12.3-11.5-20.2c-0.6-2.5-1.6-3.9-4.5-4.6c-13-3.5-18.7-18.5-11.9-30.2c0.9-1.6,1.3-3.7,1.5-5.6
		c0.9-9.5,0.3-19.4,2.6-28.5C55,94.7,68.4,81.8,87.7,75.1c3.6-1.2,6.7,0.3,7.9,3.5c1.1,3.1-0.2,6.3-3.9,7.6
		c-8.5,3.2-16,7.8-21.8,14.9C61,112,58.7,124.6,59.6,138.2c0,0.2,0.3,0.3,0.7,0.6c0.4-0.3,1-0.4,1.2-0.8c2.4-4.6,6.4-5.6,11.1-5.4
		c12.9,0.5,25.2-1.9,36.9-7.1c4.1-1.8,8-4.1,12-6.3c5.8-3.2,9.8-2.7,14.3,2.1c3.8,4,7.4,8,11,12.1c1.2,1.4,1.9,3.1,2.9,4.7
		c0.1,0,0.5-0.1,0.5-0.2c1.1-15-1.7-28.9-12.9-39.6c-4.6-4.4-10.6-7.3-16.1-10.8c-1.4-0.9-3.2-1.2-4.8-1.9c-3.6-1.6-5-4.5-3.9-7.6
		c1.2-3.2,4.3-5,7.8-3.5c6.2,2.6,12.2,5.8,18.3,8.8c1.1,0.6,2.1,1.4,2.9,1.9c1.6-3.5,3.2-6.8,4.6-10.2c0.6-1.4,0.7-3.1,0.8-4.6
		c0.7-9.3,0.1-18.8,2.2-27.8c5.9-25.6,31.3-44.1,57.1-42.7c28,1.5,50.8,21.4,54.6,48.3c1,6.8,0.5,13.8,1,20.7c0.2,2.5,1.1,5,1.9,7.4
		c1,3,2.1,5.9,3.3,9.1c8.3-6.7,17.7-10.9,28.3-12.6c32.1-5.4,64,20.1,65.5,52.6c0.2,3.5,0.3,6.9,0.3,10.4c0,5.3,0.3,10.2,2.8,15.3
		c5.4,11-1.3,24.3-13.2,27.6c-2.6,0.7-3.7,1.9-4.3,4.3c-1.8,8.3-6.1,15.2-12.2,21.1c-2.2,2.1-3.9,10.4-2.4,13
		c0.5,0.9,1.9,1.4,2.9,1.8c15.5,6,31,12,46.5,18c15,5.9,24.5,16.4,27.6,32.5c0.1,0.5,0.4,1,0.6,1.5c0,11.2,0,22.4,0,33.6
		c-2.1,2.5-4.3,4.9-8,3.4c-3.7-1.5-4-4.6-4-7.9c0.1-7.6,0.1-15.2,0-22.8c-0.2-12-5.1-21.7-16-27c-10.4-5-21.4-8.7-32.3-13
		c-4.2,8.4-8.3,16.5-12.3,24.5c-4.1,8.1-7.5,9.5-16.9,6c-0.3,2.4-1.1,4.7-0.8,6.7c4,24.4,8,48.9,12.3,73.3c0.9,5.1,0,9.1-3.7,12.7
		c-3.3,3.3-6.3,6.9-9.9,10.9c15.1,0,29.3,0,43.8,0c0-1.8,0-3.4,0-5c0-26.4,0-52.8,0-79.2c0-1.7,0.1-3.5,0.6-5.1
		c0.9-2.9,3.3-4.7,6.1-3.8c2,0.7,3.8,2.8,5.1,4.7c0.7,1,0.3,2.8,0.3,4.3c0,26.5,0,53,0,79.6c0,1.5,0,3,0,4.8
		c7.2,0,13.8-0.1,20.3,0.1c2.8,0.1,3.7-0.9,3.6-3.7c-0.1-11.7,0-23.5-0.1-35.2c0-3.4,0.4-6.5,4.1-7.9c3.7-1.4,6,0.9,8,3.6
		C409.6,343.6,409.6,358.5,409.6,373.5z M60.4,237.5c-9,3.5-17.7,6.9-26.5,10.3c-15.5,6-21.9,15.3-21.9,32c0,24.4,0,48.8,0,73.2
		c0,6.1,0.3,12.2,0.5,18.3c6.2,0.2,12.4,0.4,18.6,0.6c1.5,0,3,0,4.8,0c0-2.3,0-3.9,0-5.5c0-26.1,0-52.2,0-78.4c0-1.3-0.1-2.7,0.1-4
		c0.3-3.4,2.1-5.5,5.6-5.7c3.5-0.2,5.5,1.7,6.1,5c0.3,1.4,0.2,2.9,0.2,4.4c0,26.4,0,52.8,0,79.2c0,1.5,0,3.1,0,4.6
		c14.7,0,28.9,0,43.7,0c-3.7-4.1-6.7-7.7-10.1-11.1c-3.4-3.4-4.3-7.3-3.5-12c4.3-24.5,8.4-49.1,12.4-73.6c0.3-2.1-0.5-4.3-0.8-6.7
		c-9.6,3.5-12.9,2.2-17.1-6.3C68.5,253.7,64.5,245.7,60.4,237.5z M121.4,268c-0.4,2.2-1.5,4.3-1.1,6.3c4,24.2,8,48.3,12.3,72.5
		c1.1,5.9,0.2,10.7-4.3,14.8c-3.1,2.9-5.8,6.3-9.1,9.9c15.1,0,29.3,0,43.9,0c0-1.8,0-3.4,0-4.9c0-26.9,0-53.9,0-80.8
		c0-4.9,2-7.5,5.7-7.6c3.9-0.1,6.1,2.6,6.3,7.6c0,0.9,0,1.9,0,2.8c0,26.1,0,52.3,0,78.4c0,1.5,0,3,0,4.8c7.2,0,13.8-0.1,20.3,0
		c2.6,0.1,3.5-0.9,3.5-3.5c-0.1-30.4,0.1-60.8-0.1-91.2c-0.1-14.1-7.1-23.9-20.5-28.9c-5.2-2-10.4-4-15.6-6c-4-1.6-8.1-3.1-12.2-4.7
		c-4.2,8.4-8.2,16.4-12.1,24.3C134.1,270,130.8,271.3,121.4,268z M288.5,267.8c-9.3,3.7-13,2.3-17-5.6c-4.1-8.2-8.2-16.4-12.4-24.7
		c-9,3.5-17.7,6.9-26.4,10.3c-15.6,6.1-22,15.3-22,31.9c0,29.1,0,58.1,0,87.2c0,0.9-0.2,2,0.1,2.8c0.3,0.8,1.2,2,1.8,2.1
		c7.2,0.1,14.3,0.1,21.8,0.1c0-2.1,0-3.6,0-5.2c0-26.4,0-52.8,0-79.2c0-1.6,0.1-3.2,0.4-4.7c0.8-3.1,3-4.7,6.3-4.3
		c3,0.3,4.8,2.2,5.2,5.2c0.2,1.3,0.1,2.7,0.1,4c0,26.4,0,52.8,0,79.2c0,1.6,0,3.1,0,4.8c14.7,0,28.9,0,43.8,0
		c-3.9-4.3-7.2-8-10.7-11.7c-2.7-2.9-3.7-6.2-3-10.3c4.3-24.8,8.5-49.6,12.5-74.5C289.5,272.8,288.8,270.5,288.5,267.8z M72.8,146.1
		c0,9.1-0.4,19.1,0.1,29.1c0.8,16.5,15.3,29.4,32.5,29.4c16.2,0,30.3-12.6,31.4-28.6c0.6-8.2-0.1-16.5,0.6-24.7
		c0.7-7.7-1.4-13.6-7.3-18.6c-2.3-1.9-3.5-2.5-6.3-1c-6.1,3.1-12.4,6.5-19,8.2C94.5,142.5,83.9,144,72.8,146.1z M172.5,72.6
		c0,11-0.9,21.9,0.2,32.5c1.6,15.9,16,27.2,32.5,27c16-0.2,29.6-11.9,30.9-27.7c1-11.5,0.5-23.1,0.6-34.7c0-0.8-0.4-1.8-1-2.5
		c-2.9-3.3-5.9-6.4-8.9-9.6C200.8,69.8,200.8,69.8,172.5,72.6z M271.3,146.2c0,5-0.2,10.8,0,16.6c0.2,5.8-0.1,11.9,1.3,17.4
		c4.1,16.7,18.6,25.9,36.4,23.8c15-1.8,26.6-15.1,27-31.3c0.2-7.1-0.6-14.2,0.2-21.2c0.9-8.3-1.9-14.3-7.9-19.5
		c-1.9-1.6-2.9-1.8-5.1-0.7c-6.3,3.1-12.6,6.6-19.3,8.4C293.5,142.5,282.7,144,271.3,146.2z M259,138.9c2.8-3.7,5.8-6.6,10.8-6.4
		c18.4,0.9,35.3-4,50.9-13.5c5.2-3.2,9.4-2.5,13.6,2c5.1,5.5,9.9,11.1,14.7,16.5c1.6-18.7-3.9-35-20.7-45.7
		C312.6,81.7,296,81.5,280,91.3C262.4,102,256.7,118.7,259,138.9z M249.5,64.8C252,45.4,243,26.9,226,17.6
		c-16.3-8.9-36.7-6.9-50.9,5.1c-12.5,10.6-19.8,30.9-15.2,44.5c2.6-5.5,6.8-6.8,12.1-7c7.7-0.3,15.6-0.5,22.9-2.5
		c8.8-2.5,17.2-6.8,25.6-10.7c4.1-1.9,8.3-3.6,11.9-0.2C238.6,52.5,244.1,58.9,249.5,64.8z M163.6,172.7c-4.7,2.3-9,4.3-13.3,6.6
		c-1,0.5-1.9,1.8-2.2,2.9c-2.1,9.1-6.6,16.7-13.5,23c-0.7,0.7-1.5,1.6-1.7,2.6c-1.6,7.4-0.2,10,6.9,12.7c14.6,5.6,29.2,11.3,44.1,17
		c2-12,3.9-23.6,6-35.3c0.5-2.9,0-4.8-2.2-6.4c-7.3,3.3-11.6,1.8-15.1-5.2C169.4,184.3,166.3,178.1,163.6,172.7z M225.7,237.6
		c15.8-6.1,31.2-12.1,46.6-18c5.3-2.1,6.7-10,2.2-14c-7-6.3-11.9-13.9-14-23.2c-0.2-1-0.8-2.4-1.7-2.9c-4.3-2.2-8.6-4.1-13.1-6.2
		c0.2-0.2,0,0-0.1,0.2c-2.6,5.1-5.1,10.2-7.7,15.3c-4.5,9-6.9,10-16.9,6.9c-0.5,1.7-1.7,3.4-1.4,5
		C221.4,212.9,223.5,225,225.7,237.6z M102.6,276.5c-0.2,0.6-0.4,1.1-0.5,1.6c-4.1,23.9-8.2,47.8-12.2,71.7
		c-0.2,0.9,0.2,2.2,0.8,2.8c4.7,5.4,9.6,10.6,14.6,16.2c4.9-5.4,9.8-10.5,14.4-15.9c0.9-1,1.1-3,0.9-4.4
		c-3.8-22.6-7.8-45.1-11.4-67.7C108.5,276.3,106.7,275.4,102.6,276.5z M304.2,368.7c4.9-5.4,9.7-10.5,14.2-15.7
		c0.8-0.9,1.2-2.6,1-3.8c-2.5-15.5-5.1-31-7.7-46.5c-1.5-8.8-3-17.5-4.5-26.2c-5.8-0.8-5.9-0.8-6.8,4.4
		c-3.9,22.6-7.7,45.1-11.5,67.7c-0.2,1.2-0.2,2.9,0.5,3.7C294.2,357.9,299.2,363.2,304.2,368.7z M201.8,204
		c-2.2,12.7-4.3,25.1-6.4,37.4c-0.2,1.1-0.1,2.6,0.6,3.3c2.8,3.3,5.9,6.3,8.8,9.3c2.9-3,5.8-6,8.5-9c0.6-0.7,1.1-1.9,0.9-2.8
		c-2.1-12.7-4.3-25.4-6.5-38.2C205.7,204,203.9,204,201.8,204z M105.4,238.9c4.6-5.6,8.7-11,13.1-16.1c2.4-2.7,2.8-5.4,1.9-9.1
		c-10.1,3.7-20.1,3.2-31.3,0c0.9,3.2,0.9,5.8,2.2,7.5C95.6,227.1,100.3,232.7,105.4,238.9z M288.6,213.9c0.2,2.6-0.4,4.9,0.5,6.2
		c4.7,6.4,9.8,12.4,15,18.8c4.8-5.9,9-11.3,13.5-16.6c2.1-2.5,2.5-5,1.5-8.4C309.2,217.2,299.2,217.2,288.6,213.9z M219.8,141.5
		c-10.1,3.5-20,3.1-30.8,0.2c0.4,2.7,0.1,5.2,1.2,6.6c4.6,6.2,9.5,12,14.6,18.2c4.5-5.5,8.5-10.8,12.9-15.8
		C220,148.1,220.7,145.3,219.8,141.5z M164.2,150.5c3.9-1.5,6.6-2.5,9.4-3.6c3.8-1.5,5.8-9.8,2.6-12.5c-7.9-6.7-12.7-15.1-15.2-25.1
		c-0.2-1-1.4-1.7-2.2-2.6c-0.4,0.2-0.7,0.5-1.1,0.7c5.3,11.1,4.7,23,4.8,34.8C162.5,144.8,163.5,147.4,164.2,150.5z M250.9,107.5
		c-0.5-0.3-1-0.6-1.5-0.8c-0.7,1.1-1.7,2.1-2,3.3c-2,9-6.5,16.4-13.2,22.7c-1.1,1-1.9,2.9-2,4.4c-0.4,8.2-0.3,8.2,7.3,11.2
		c0.4,0.1,0.7,0.3,1.1,0.4c3.4,1.3,5.2,0.2,5.5-3.5c0.2-1.6,0.1-3.2,0-4.8C246.2,129.3,246,118.1,250.9,107.5z M326.1,256.7
		c4-8,7.8-15.7,11.7-23.5c-3.1-1.2-5.8-2.4-8.5-3.3c-0.8-0.3-2.2,0-2.7,0.6c-4.6,5.5-9.1,11.1-13.7,16.8
		C317.5,250.5,321.7,253.5,326.1,256.7z M270.6,233.3c3.9,7.9,7.7,15.5,11.7,23.4c2.6-1.8,4.6-3.2,6.7-4.7c2.1-1.5,4.2-3,6.5-4.7
		c-3.1-3.9-5.9-7.4-8.8-10.9C280.4,228.7,280.4,228.7,270.6,233.3z M127.3,256.7c4-8.1,7.8-15.7,11.7-23.5c-3.2-1.3-5.7-2.4-8.4-3.2
		c-0.8-0.3-2.3-0.1-2.7,0.4c-4.7,5.5-9.2,11.2-13.8,17C118.6,250.5,122.7,253.4,127.3,256.7z M226.7,184.3c4-8.1,7.8-15.7,11.7-23.6
		c-3-1.2-5.5-2.4-8.1-3.1c-1.1-0.3-2.9,0.2-3.5,1c-4.5,5.2-8.7,10.7-13.3,16.3C217.9,178.1,222.2,181.1,226.7,184.3z M71.8,233.4
		c3.9,7.8,7.7,15.4,11.6,23.3c4.5-3.2,8.7-6.2,13.2-9.4c-3.2-4-6-7.5-8.8-11c-6.1-7.6-6.1-7.6-15-3.6
		C72.6,232.8,72.4,233,71.8,233.4z M196.1,174.9c-4.6-5.7-8.8-11-13.2-16.2c-0.7-0.8-2.3-1.4-3.2-1.2c-2.9,0.8-5.7,2.1-8.6,3.3
		c4,8,7.8,15.6,11.8,23.5C187.4,181.1,191.6,178.1,196.1,174.9z M211.4,188.5c-7.7-5.8-5.4-6.3-14.1,0.8c2.1,1,3.8,2.4,5.4,2.4
		C205.8,191.6,209.9,193.6,211.4,188.5z M98.6,260.7c1.9,5.4,6.2,3,9.5,3.2c1.4,0.1,2.9-1.5,4.9-2.7c-3.2-2.3-5.3-3.8-7.6-5.4
		C103.1,257.5,100.8,259.1,98.6,260.7z M297.4,260.7c2,5.2,6,3.1,9.1,3.2c1.5,0.1,3.1-1.3,5.6-2.5c-3.4-2.4-5.6-4-8-5.6
		C301.8,257.5,299.7,259,297.4,260.7z M348.4,151.3c0,5.4,0,10.4,0,15.7c3.7-1.8,5.4-4.4,5.3-8C353.6,155.4,352,152.9,348.4,151.3z
		 M60.4,151.6c-3.8,1.9-5.7,4.5-5.4,8.3c0.3,3.4,1.9,5.7,5.4,6.9C60.4,161.6,60.4,156.9,60.4,151.6z M159.8,94.6
		c0-5.3,0-10.1,0-15.4c-3.4,1.7-5.4,4-5.4,7.5C154.3,90.3,155.9,93,159.8,94.6z M248.9,94.6c4.3-2,5.8-5,5.3-8.9
		c-0.4-3.1-2-5.5-5.3-6.5C248.9,84.4,248.9,89.2,248.9,94.6z M149.5,166.7c4.1-1.5,5.5-4.5,5.3-8.1c-0.2-3.2-1.5-6-5.3-7
		C149.5,156.7,149.5,161.6,149.5,166.7z M258.9,166.9c0-5.3,0-10.1,0-15.4c-3.4,2.1-5.4,4.4-5.2,7.9
		C253.8,162.8,255.5,165.3,258.9,166.9z"/>
</g>
</svg>
