<?xml version="1.0" encoding="utf-8"?>
<!-- Generator: Adobe Illustrator 22.1.0, SVG Export Plug-In . SVG Version: 6.00 Build 0)  -->
<svg version="1.1" id="Слой_1" xmlns="http://www.w3.org/2000/svg" xmlns:xlink="http://www.w3.org/1999/xlink" x="0px" y="0px" viewBox="0 0 409.5 358.7" style="enable-background:new 0 0 409.5 358.7;" xml:space="preserve">
	<style xmlns="http://www.w3.org/2000/svg" type="text/css">
		path {
			fill: #e55021;
		}
	</style>
	<g>
		<path d="M409.5,247.6c-0.5,9-1.1,18-1.5,27.1c-1.1,25.6-2.1,51.1-3.2,76.7c-0.2,4.4-2,6.9-5.3,7.3c-3.9,0.5-6.8-2.6-6.6-7.6
		c0.5-14.8,1.2-29.6,1.8-44.4c0.9-22.5,1.9-45,2.8-67.5c0.1-2.9-0.3-5.8-0.5-9.5c-1.4,1.3-2.3,2-3.1,2.7c-4.6,4.6-9.2,9.3-13.9,13.8
		c-6.6,6.4-9.7,14-9.7,23.2c0.2,26.4,0.1,52.8,0.1,79.2c0,6.9-1.8,9.9-5.9,10c-4.2,0.1-6.1-2.9-6.1-9.8c0-26.1,0.2-52.3-0.1-78.4
		c-0.1-13.3,4.4-24.4,14-33.6c6.2-5.9,12.1-12,18.8-18.7c-3.9-2.5-7.2-5.3-11-6.9c-9.9-4.2-20-7.9-30.5-11.9
		c-0.8,1.2-1.7,2.3-2.5,3.5c-6.1,9.2-12.3,18.4-18.4,27.6c-7.2,10.8-12.2,12.8-25,9.6c0,1.2,0,2.4,0,3.5
		c1.6,35.6,3.1,71.1,4.7,106.7c0.3,6.1-3.6,9.9-8.2,7.8c-2.8-1.2-3.7-3.6-3.8-6.5c-0.7-15.3-1.4-30.6-2.1-45.9
		c-0.8-18.5-1.6-37-2.4-55.5c0-0.5-0.1-1-0.2-1.7c-4.1,0-8,0-12.2,0c-0.3,6.1-0.7,12.1-0.9,18.1c-1.2,27.2-2.3,54.3-3.5,81.5
		c-0.1,2.1-0.2,4.3-0.7,6.3c-0.7,3-3.1,4.5-6,4.2c-2.9-0.3-4.9-2-5.3-5.1c-0.2-1.3-0.1-2.7-0.1-4c1.5-35.4,3.1-70.8,4.7-106.3
		c0-0.9,0-1.8,0-2.9c-3.3,0.5-6.5,1.5-9.7,1.3c-6.1-0.4-10.6-3.8-14-8.9c-6.6-10-13.3-20-19.9-29.9c-0.7-1.1-1.5-2.2-2.5-3.6
		c-11,4.4-22,8.8-32.9,13.3c-1.4,0.5-2.6,1.5-3.9,2c-3,1-5.6,0.2-7.3-2.6c-1.6-2.8-1.1-5.6,1.4-7.5c2.7-1.9,5.7-3.4,8.7-4.7
		c3.5-1.6,7.1-3.1,10.8-4.1c14.5-4.2,26.5-12,36.9-23.2c4-4.3,5.6-8,5-13.1c-0.3-2.2-1-4.7-2.3-6.4c-5.9-7.4-10.2-15.6-12.4-24.8
		c-0.6-2.3-1.4-3.6-4.1-3.8c-5.3-0.4-9.2-3.4-11.9-7.8c-5.5-8.8-3.3-22.5,5-28.8c2.2-1.7,1.3-3.4,1.1-5.3c-1.1-11.6-3-23.3-2.9-34.9
		c0.1-15.9,9.2-25.9,24.6-29.6c1.4-0.3,2.7-1.1,3.9-1.9c27.3-18.5,56.5-20.7,86.3-8.3c20.5,8.5,30.8,25.9,32.9,47.5
		c1,10.4-0.4,20.9-0.6,31.4c0,1.7,0.4,3.6,1.3,5c4.8,8.2,5,16.5,0.6,24.7c-2.5,4.7-6.8,7.6-12.2,7.9c-2.3,0.2-3.3,1.1-3.7,3.2
		c-2.2,9.8-6.9,18.3-13.1,26.2c-1.4,1.7-1.4,4.6-1.7,7c-0.4,4.3-0.2,7.9,4.4,10.9c5.2,3.5,9.1,8.9,13.8,13.3
		c1.5,1.4,3.3,2.6,5.3,3.4c9.4,3.8,18.8,7.3,28.3,11c14.2,5.6,23.2,15.6,26.1,30.8c0.1,0.5,0.5,0.9,0.7,1.4
		C409.5,236.9,409.5,242.2,409.5,247.6z M235.2,88.2c1.5-1.5,3.1-3.1,4.7-4.6c2.9-2.7,6-2.9,8.5-0.6c2.4,2.2,2.6,5.7,0.2,8.6
		c-2.1,2.4-4.3,4.8-6.7,6.8c-5.8,4.9-8.4,4.9-14.2,0c-2.2-1.8-4.7-2.4-6.9-0.5c-3.2,2.9-2.5,6.8-1.8,10.5c0.5,3.1,2.9,4.1,5.9,4.3
		c6.5,0.6,10.3,3.9,11.6,10.2c2.3,10.8,7.6,19.7,15.5,27.3c18,17.1,49.6,17,67.3-0.2c7.7-7.4,12.9-16.2,15.2-26.6
		c1.2-5.6,4.3-9.4,10.1-10.5c7.1-1.3,8.9-3.6,7.9-10.8c-0.5-3.8-2.8-5.6-6.6-5.4c-9.6,0.7-11.4-0.4-15.1-9.3
		c-0.5-1.2-1.2-2.4-1.5-3.7c-0.7-2.7-2.3-3-4.8-2.6c-12.8,2.4-25.7,3-38.6,1.5c-16.6-2-31.6-7.4-43-20.4c-3.1-3.5-3.5-7-0.8-9.5
		c2.7-2.6,5.9-2.1,9.5,1.1c3.6,3.3,7.2,6.8,11.4,9.2c11.5,6.8,24.3,8.7,37.3,8.2c9.5-0.4,19-2,28.5-3.1c5.2-0.6,6.9,0.2,9,5
		c1.2,2.8,2.4,5.6,3.5,8.5c0.8,1.9,1.3,3.6,4.1,3.3c3.1-0.3,2.8-2.5,2.9-4.3c0.4-6.1,1-12.2,0.8-18.3c-0.4-10.5-2.9-20.6-9.1-29.3
		c-8.3-11.8-20.3-17.3-34.1-19.4c-21.7-3.3-41.9,0-59.8,13.6c-1.5,1.1-3.5,1.8-5.4,2.2c-10.3,2.1-16.1,7.9-16.1,18.2
		c0,9.8,1.3,19.6,2,29.4C227.2,82.4,228.7,87,235.2,88.2z M319,165.6c-22.5,12.7-44.4,12.5-66.6,0.1c0,2.1,0.2,3.4,0,4.7
		c-0.6,4.6,1,7.8,4.8,10.9c9.1,7.4,17.7,15.4,26.6,23.1c0.7,0.6,1.4,1,2.2,1.5c10.6-9.3,21-18.4,31.4-27.6c0.8-0.7,1.5-1.9,1.6-2.9
		C319.1,172.4,319,169.4,319,165.6z M330.1,183.2c-12,10.5-23.7,20.8-35.8,31.4c4.5,4.4,8.5,8.4,12.6,12.4c4.3,4.2,7.1,3.9,10.6-1.2
		c6.1-9.1,12.1-18.2,18.2-27.3c1.3-2,2.6-3.9,3.9-5.9C336.3,189.3,333.4,186.5,330.1,183.2z M231.8,192.7
		c7.6,11.5,15.1,22.8,22.7,34c2.4,3.6,5.6,4.2,8.4,1.6c4.7-4.5,9.2-9.2,13.9-14c-11.9-10.4-23.7-20.7-35.6-31.1
		C237.9,186.4,235,189.4,231.8,192.7z M280.2,236c3.8,0,7.3,0,10.7,0c1.1-5.7-0.2-10.2-5.4-12.9C279.8,227.8,279.7,228,280.2,236z" />
		<path d="M198,253.9c-5.6,6.7-10.9,13-16.1,19.5c-5.4,6.7-7.3,14.6-7.2,23.2c0.1,17.6,0,35.2,0,52.8c0,6.4-2,9.5-6.1,9.3
		c-4-0.1-5.9-3-5.9-9.2c0.1-19.1,0.1-38.1,0.2-57.2c0.1-11.2,4.7-20.6,11.7-29c5-6,10-12,15.5-18.7c-10.3-4.6-20.1-8.9-30.3-13.4
		c-4.3,6.9-8.4,13.5-12.5,20.2c-1.7,2.8-3.4,5.7-5.2,8.5c-4.5,6.9-11.6,8.1-18.2,3c-3.6-2.7-6.9-5.8-11.1-9.4c0,2.3,0,3.7,0,5.1
		c0,29.9,0,59.7,0,89.6c0,1.1,0,2.1,0,3.2c-0.1,4.5-2.2,7.1-5.7,7.3c-3.6,0.2-6.2-2.6-6.3-7.2c-0.1-4.9,0-9.9,0-14.8
		c0-25.9,0-51.7,0-77.6c0-1.5,0-2.9,0-5.4c-4,3.3-7.3,6.2-10.7,9c-6,4.7-12.7,4.4-17.1-0.9c-1.1-1.3-2-2.8-2.9-4.3
		c-5.3-8.6-10.6-17.2-16.2-26.2c-10,4.4-19.8,8.7-30.2,13.3c1.3,1.7,2.2,2.9,3.2,4.1c5.1,6.2,10.3,12.3,15.2,18.6
		c6.3,8.2,9,17.7,9,28c0,18.5,0,37.1,0,55.6c0,5.1-2.2,7.9-5.9,7.9c-3.8,0-6.1-2.8-6.1-7.8c0-18.1-0.2-36.3,0-54.4
		c0.1-10-3-18.5-9.5-26c-4.6-5.3-9-10.8-13.8-16.6c-3.2,5.2-4.1,10.4-3.9,15.9c0.6,14.4,1.2,28.8,1.8,43.2c0.5,12.5,1.1,25,1.6,37.6
		c0.2,5-1.9,8-5.6,8.1c-3.6,0.2-6.1-2.7-6.3-7.6c-0.9-21.6-1.8-43.2-2.7-64.7c-0.3-7.7-1.2-15.5-0.3-23.1
		c1.7-15.2,10.4-25.9,24.3-32.3c2.7-1.2,5.3-2.5,8.1-3.5c13.7-4.8,25.7-12,34.9-23.5c0.5-0.6,1.1-1.4,1.8-1.6c3.9-1,3.3-4,3.5-6.9
		c0.3-3.2-1.1-5-3.5-6.8C58,180.1,50.5,168.9,47,155.1c-0.7-2.6-1.5-4-4.7-4.6c-3.5-0.7-7.3-2.9-9.8-5.5c-7-7.4-6.1-21.9,1-29.3
		c1-1.1,1.7-3.3,1.5-4.8c-4.9-30,5.6-53.5,29.9-71.3c1.2-0.9,2.2-2.6,2.4-4.1C70,17.6,80.1,6.5,97.4,1.7
		c14.7-4.1,31.8,1.8,41.7,14.6c4.1,5.4,6.4,11.6,7.4,18.3c0.3,1.8,1.4,4.1,2.8,5.1c16.5,11.7,27.1,27.1,29.9,47.2
		c1.1,7.8,0,15.9-0.4,23.8c-0.1,2.2-0.1,3.6,1.6,5.2c7.5,7.2,7.8,22.6,0.3,29.8c-2.3,2.2-5.5,4.3-8.5,4.7c-3.8,0.5-4.6,2.2-5.4,5.3
		c-3.6,13.6-11.1,24.7-22.3,33.2c-5,3.8-4.7,9.5-0.1,13.4c5.1,4.3,9.5,9.4,14.3,13.9c1.5,1.4,3.3,2.7,5.2,3.5
		c8.1,3.7,16.3,7.2,24.5,10.8c17.7,7.8,26.5,22.4,25.5,41.6c-1.3,26.1-2.3,52.2-3.4,78.3c-0.1,1.2,0,2.4-0.3,3.6
		c-0.7,2.9-2.9,5-5.7,4.5c-2.1-0.4-4.2-2.4-5.5-4.3c-0.8-1.2-0.4-3.3-0.4-5.1c1.1-26.5,2.3-53,3.4-79.5
		C202.1,264.3,201.3,259,198,253.9z M56.9,114.8c0.5-0.7,1.1-1.5,1.8-2.3c0.8-0.9,1.6-1.8,2.5-2.6c2.9-2.6,6.1-2.8,8.5-0.4
		c2.4,2.3,2.7,5.5,0.3,8.3c-2.3,2.7-4.9,5.3-7.6,7.6c-4.8,4.1-8.1,3.8-13.1-0.2c-1.5-1.2-4.4-2.2-6-1.6c-4.5,1.7-3.5,6.1-3.3,9.7
		c0.2,3.1,1.7,5.2,5.2,5.6c8.4,1,11.1,3.6,13.1,12c2.6,11,8.3,20.3,17.1,27.2c29.8,23.5,71.9,8.5,80.5-28.3
		c1.6-7,5.1-10.1,12.3-10.9c4.8-0.5,6.7-4.1,5.6-10.7c-0.7-4.2-3.4-6.3-7.8-4.7c-5.3,1.9-9.3,0.5-12.9-3.4c-2-2.1-4.3-2.6-7.2-2.5
		c-16.4,0.3-32.5-1.7-48-7.1c-13.1-4.6-24.8-11.7-34-22.3c-3.5-4-2.7-9.3,1.9-10.2c2.1-0.4,5.1,0.9,7,2.3c5.7,4.1,10.6,9.5,16.6,13
		c16.9,9.9,35.8,12.5,55.1,12.4c6.2,0,11.5,0.6,16.1,5c2.6,2.5,5.9,1,6.6-2.7c2.3-12.2,1-23.9-4.5-35c-18.6-37.5-70-46-99.6-16.4
		C48.7,70.9,43,88.2,46.9,108.4c0.2,1.2,1.2,2.5,2.3,3.1C51.4,112.7,53.8,113.5,56.9,114.8z M128.7,198.6c-7.4,1-14.6,2.7-21.8,2.6
		c-7.3,0-14.5-1.7-22-2.7c0,2.1-0.1,4.4,0,6.6c0.1,1.9,0,4.4,1.1,5.6c6.7,7.1,13.8,14,21,21.2c5.7-5.7,10.9-11.7,16.9-16.6
		C130,210.3,129.2,204.4,128.7,198.6z M97.6,240.5c-8.4-8.4-16.6-16.5-24.5-24.3c-2.8,2.7-5.9,5.6-9,8.6
		c5.9,9.6,11.8,19.2,17.9,29.1C87.6,249,92.7,244.7,97.6,240.5z M141.1,215.9c-8.3,8.3-16.5,16.4-24.7,24.7c4.8,4.1,10,8.5,15,12.8
		c0.5-0.3,0.9-0.4,1-0.6c3.9-6.2,7.7-12.4,11.6-18.6C150.2,223.9,150.2,223.9,141.1,215.9z M133.1,31.3
		c-2.6-11.2-14.7-19.4-27.2-18.9c-12,0.5-23.5,9.1-24.9,18.9C98.4,25.2,115.7,25.3,133.1,31.3z" />
		<path d="M240.9,264.2c3.6,0,7.2-0.1,10.8,0c3.6,0.1,5.8,1.9,6.1,5.5c0.3,3.4-1.9,6.1-5.8,6.3c-7.4,0.3-14.9,0.3-22.4,0
		c-3.9-0.1-6.1-2.8-5.9-6.2c0.1-3.4,2.4-5.5,6.4-5.7C233.7,264.1,237.3,264.2,240.9,264.2C240.9,264.2,240.9,264.2,240.9,264.2z" />
		<path d="M76.3,290.7c2.7,0,5.3-0.1,8,0c3.6,0.2,6,2.4,6.1,5.6c0.1,3.5-1.8,5.9-5.1,6.1c-6.1,0.4-12.2,0.3-18.3,0
		c-3.3-0.2-5.1-2.7-5.1-6.1c0-3.2,2.5-5.4,6.1-5.6C70.7,290.6,73.5,290.7,76.3,290.7z" />
	</g>
</svg>