<?xml version="1.0" encoding="utf-8"?>
<!-- Generator: Adobe Illustrator 22.1.0, SVG Export Plug-In . SVG Version: 6.00 Build 0)  -->
<svg version="1.1" id="Слой_1" xmlns="http://www.w3.org/2000/svg" xmlns:xlink="http://www.w3.org/1999/xlink" x="0px" y="0px"
	 viewBox="0 0 360 360" style="enable-background:new 0 0 360 360;" xml:space="preserve">
<g>
	<path d="M360,179.9c0.2,99-80.5,180-179.6,180.1C80.8,360.1,0.2,279.7,0,179.9C-0.2,81.3,80.5,0.1,179,0
		C279.1-0.2,359.8,80,360,179.9z M179.9,24C94.1,23.9,24.2,93.8,24,179.7C23.8,265.3,93.6,335.9,178.5,336
		c87.3,0.1,157.4-69.1,157.5-155.5C336.2,94,266.4,24.1,179.9,24z"/>
	<path d="M168,149.6c0-21.6,0-43.2,0-64.9c0-9.2,8.2-15.1,16.3-11.9c4.9,1.9,7.5,5.7,7.7,11c0.1,4.1,0,8.2,0,12.4
		c0,39.1,0,78.2,0,117.4c0,1.6,0.1,3.3-0.3,4.8c-1.2,6-6.9,10.2-12.9,9.5c-6.2-0.6-10.7-5.7-10.8-12.3c-0.1-19.6,0-39.2,0-58.9
		C168,154.4,168,152,168,149.6z"/>
	<path d="M180.1,276c-6.5,0.1-12-5.3-12.1-11.8c-0.1-6.7,5.4-12.2,12.1-12.2c6.5,0,11.9,5.4,11.9,12
		C192,270.5,186.6,275.9,180.1,276z"/>
</g>
</svg>
