<?xml version="1.0" encoding="utf-8"?>
<!-- Generator: Adobe Illustrator 22.1.0, SVG Export Plug-In . SVG Version: 6.00 Build 0)  -->
<svg version="1.1" id="Слой_1" xmlns="http://www.w3.org/2000/svg" xmlns:xlink="http://www.w3.org/1999/xlink" x="0px" y="0px"
	 viewBox="0 0 384 331.7" style="enable-background:new 0 0 384 331.7;" xml:space="preserve">
<g>
	<path d="M384,327.9c-1.7,2.9-4.1,3.9-7.5,3.9c-123-0.1-246-0.1-369-0.1c-0.6,0-1.3,0-1.9,0c-3.3-0.2-5.5-2.4-5.6-5.4
		c-0.1-3,2-5.5,5.2-5.8c3.1-0.2,6.2-0.1,9.4-0.1c0.4-7.5,0.6-14.6,1.1-21.7c1.9-27.1,5.8-53.9,15.7-79.4c0.5-1.4,1.2-2.8,1.7-4.2
		c1.3-3.5,3.4-6.2,7.5-6.1c4,0.1,6,2.7,7.2,6.1c2.8,8,5.5,16,8.2,24.1c0.4,1,0.6,2.1,0.8,2.7C60.6,232,64.3,222,68,212
		c0.3-0.8,0.3-1.7,0.3-2.6c0-14.7,0-29.5,0-44.2c0-0.6-0.1-1.2-0.1-2.1c-8.1-1-15.6-3.7-21.9-8.8c-11.7-9.5-16.7-21.8-15.4-36.7
		c0.3-3.4,2.1-5.4,5.7-5.8c10.4-1.2,19.8,1.3,28.4,7.2c1,0.7,2,1.4,3.5,2.5c0-2.9,0.1-5.3-0.1-7.6c0-0.7-0.7-1.6-1.3-1.9
		c-7-2.8-10.9-8-12.5-15.4c-10.7,3-19.2,0.2-24.7-9.5c-4.5-7.9-2.7-15.7,5-24.7c-4.2-3.7-7.5-8.3-7.1-14.1c0.2-3.9,1.1-8,2.9-11.4
		C34.9,28.6,43,26,54.1,28.4c4.5-12,10.2-16.6,20.3-16.4C84,12.1,89.7,17,93.6,28.3c12.5-1.9,19.8,0.9,24.4,9.3
		c4.5,8.2,3.1,15.7-4.8,25c7.5,7.2,9.6,15.5,4.6,24.9c-4.5,8.5-11.3,10.9-24.4,9.2c-1.6,7.2-5.5,12.6-12.7,15.3
		c-0.6,0.2-1.1,1.3-1.1,2c-0.1,10.2-0.1,20.4-0.1,31.3c1.5-1.1,2.6-1.8,3.7-2.5c8.5-5.8,17.8-8.3,28.1-7.1c3.7,0.4,5.5,2.4,5.8,6
		c2.3,21.9-12.6,41.2-35,45c-0.7,0.1-1.5,0.2-2.5,0.4c0,8-0.2,16,0.1,23.9c0.1,2.2,1.8,4.3,2.6,6.6c1.8,5,3.7,10.1,5.3,15.2
		c1.6,4.7,0.3,7.9-3.2,8.9c-3.5,1-5.9-0.8-7.4-5.4c-0.9-2.8-1.9-5.7-3.1-9.5c-10.6,30.8-13.7,61.7-14.4,93.3c7.6,0,15,0,22.5,0
		c0.7-6.8,1.3-13.6,2-20.4c0.3-2.9,0.7-5.7,1.3-8.5c2-8.6-0.8-16.8-1.6-25.2c0-0.5-0.2-1-0.3-1.5c-0.5-3-0.4-5.9,2.7-7.5
		c3.2-1.6,5.8-0.5,7.9,2.5c2.5-4.5,4.7-8.9,7.3-13.1c3.7-6,9.6-6,13.4,0.1c2.4,3.9,4.5,8,7,12.5c2.1-8.9,4-17.3,6.1-25.9
		c-1,0.1-1.9,0.2-2.7,0.3c-6.2,1-11.4-0.9-15.2-6c-3.8-5.3-3.8-11-0.9-16.6c1.2-2.3,1.4-4,0.1-6.4c-3.6-6.8-2.5-13.8,2.4-18.6
		c5-4.9,12.3-5.9,19-2.2c2,1.1,3.4,1.1,5.4,0c6.7-3.7,14.1-2.7,19,2.2c4.9,4.9,5.9,12.3,2.3,19c-1.1,2-1.2,3.3-0.1,5.4
		c3.2,6.1,3.2,12.2-1.1,17.9c-0.6,0.8-1.1,2.1-0.9,2.9c2.1,9,4.3,17.9,6.5,26.9c0,0.2,0.4,0.3,0.5,0.5c2.4-4.3,5-8.6,7.3-13
		c0.5-1,0.5-2.4,0.5-3.6c0.1-5.4,0-10.8,0.1-16.1c0.1-3.7,2.1-5.9,5.3-6c3.3-0.1,5.7,2.1,5.9,5.9c0.2,5-0.2,10,0.2,15
		c0.2,2.6,1,5.3,2.1,7.7c1.7,3.7,3.8,7.2,5.7,10.9c2.4-9.5,4.7-18.9,7.3-28.2c1.5-5.4,3.9-10.5,5.8-15.8c1.3-3.4,3.3-6,7.2-6
		c3.9,0,5.9,2.5,7.4,5.9c5.6,12.8,9.1,26.1,11.9,39.7c0.3,1.4,0.6,2.8,1,4.6c2.5-4.5,4.6-8.7,7.1-12.7c3.8-6.1,9.6-6,13.4,0
		c1.9,2.9,3.5,6,5.6,9.7c0.8-3.2,1.2-5.8,2-8.3c3.7-11.6,7.5-23.2,11.3-34.8c0.3-0.8,0.7-1.7,0.8-2.5c0.1-7.7,0-15.5,0-23.4
		c-9.8-1.2-18.3-4.7-25.2-11.5c-9.5-9.3-13.6-20.7-12.3-34c0.4-3.7,2.2-5.5,5.9-5.9c10.3-1.1,19.6,1.4,28,7.2c1,0.7,2,1.4,3.6,2.5
		c0-5.3,0-9.9,0-14.6c0-3-0.2-6,0-9c0.3-5.5,0.5-10.1-6.2-12.7c-4.7-1.9-6.6-7.2-7.7-12.5c-11.1,2.8-20,0-25.2-10.5
		c-4-8-2.1-15.7,5.5-23.7c-4.6-3.8-7.7-8.7-7.3-14.8c0.3-3.8,1.4-8,3.3-11.3c4.6-7.9,12.8-10.4,23.5-7.9c3-11.4,10.2-17.3,22.3-16.3
		c8.3,0.7,14.1,6.2,17.1,16.4c10.6-3.1,19.2-0.2,24.7,9.7c4.4,7.8,2.6,15.8-5,24.4c7.9,7.7,9.9,16.6,3.8,26.2
		c-5.5,8.6-13.7,10.6-23.6,7.8c-1.6,7.3-5.5,12.8-12.7,15.5c-0.7,0.3-1.2,1.8-1.2,2.7c-0.1,31.7-0.1,63.5,0,95.2
		c0,0.8,0.1,1.8,0.5,2.5c6.6,14.4,10.5,29.6,13.6,45.1c0.1,0.5,0.2,1,0.5,1.8c2.4-4.4,4.5-8.5,6.9-12.5c4-6.5,9.8-6.6,13.8-0.1
		c2.3,3.8,4.4,7.8,6.9,12.4c0.8-3.8,1.3-7,2.2-10.1c3.5-11.4,7.1-22.9,10.7-34.2c1.1-3.5,3.4-5.9,7.4-5.8c3.8,0.1,5.7,2.5,7.1,5.7
		c6.9,15.9,10.8,32.7,13.7,49.7c0.7,4.1-1.1,6.8-4.5,7.4c-3.6,0.6-5.7-1.6-6.7-5.9c-2.6-11.4-5.4-22.8-8.1-34.2
		c-0.3-1.2-0.8-2.3-1.7-3.5c-10.6,29.7-13.6,60.4-14.3,91.9c9.6,0,18.9,0,28.4,0c0-4.8,0.1-9.6,0-14.4c-0.1-4.1-0.6-8.2-0.8-12.3
		c-0.2-3.6,1.9-6,5-6.3c3.2-0.3,5.7,1.6,6,5.2c0.6,7.5,0.9,15,1.3,22.4c0.1,1.7,0,3.4,0,5.2c5.3,1.3,11.4-1.7,15,4.1
		C384,325.4,384,326.6,384,327.9z M283.6,320.2c0.7-7.5,1.4-14.8,2.2-22.1c0.5-4.7,2.3-9.5,1.8-14c-1.4-11.9-3.7-23.7-5.7-35.4
		c-0.6-3.5-1.8-7-2.8-10.5c-1-3.4-2.2-6.8-3.2-10.3c-11,30-14.1,61-14.8,92.3C269,320.2,276.3,320.2,283.6,320.2z M210.7,227.7
		c-0.5,0.1-1,0.2-1.5,0.3c-10.2,29.9-13.3,60.8-13.9,92.2c7.8,0,15.1,0,22.4,0c0.7-7.7,1.4-15.1,2.2-22.5c0.5-4.9,1.9-9.9,1.7-14.8
		c-0.2-6.4-1.3-12.9-2.7-19.2C216.4,251.6,213.4,239.6,210.7,227.7z M139.5,233.5c-8.5,28.2-11.5,57.2-12.1,86.7c7.7,0,15,0,22.2,0
		c0.9-8.5,1.8-16.8,2.7-25.1c0.5-4.7,2-9.5,1.3-14c-2.4-14.7-5.6-29.4-8.4-44C144.6,234.1,143,233.1,139.5,233.5z M41.5,228.1
		c-0.5,0.1-1,0.1-1.6,0.2c-10,29.8-13.2,60.6-13.8,92c7.6,0,14.7,0,22,0c0.4-7.5,0.6-14.8,1.1-22.1c0.9-13.6,3.5-27.2-0.4-40.8
		C46,247.7,43.9,237.8,41.5,228.1z M183.7,320.3c0.5-9.5,1.1-18.7,1.5-27.9c0.1-3,0.6-6.1-0.2-8.9c-2.2-7.5-4.9-14.9-7.5-22.3
		c-0.4-1.2-1.2-2.2-2.1-3.9c-10.1,20.2-13.3,41.2-14.2,62.9C168.9,320.3,176.1,320.3,183.7,320.3z M108.5,257.2
		c-9.3,13.3-15.7,48.3-14.5,63c7.3,0,14.6,0,21.9,0c0.5-8.9,0.8-17.6,1.5-26.3c0.5-5.3,0.6-10.4-1.3-15.5
		C113.7,271.5,111.2,264.7,108.5,257.2z M309.9,257.4c-9.4,14-15.8,50.5-14.1,62.7c7.3,0,14.6,0,21.8,0c0.5-9.1,0.5-18,1.5-26.8
		C320.6,280.2,314.6,269.3,309.9,257.4z M229.4,320.1c6.7,0,13.5,0,20.1,0c0.6-10.4,0.7-20.6,2-30.6c1-7.5-0.2-14.3-3-21.1
		c-1.5-3.6-3.1-7.1-4.8-11.1C235.3,271.9,228.8,300.9,229.4,320.1z M148.6,196.6c-0.9-1.3-1.7-3.2-2.6-3.4c-1.9-0.3-4.3,0-5.9,0.9
		c-7.1,4.4-7,4.6-13.7,0c-2.2-1.5-4.6-2.5-6.8-0.5c-2.4,2.3-1.3,4.8,0.3,7.1c4.6,6.7,4.6,6.9,0.1,13.3c-1.6,2.3-2.8,4.8-0.4,7.1
		c2.3,2.3,4.9,1.1,7.1-0.5c6.4-4.5,6.9-4.5,13-0.1c2.2,1.6,4.8,2.9,7.1,0.7c2.6-2.4,1.2-5-0.5-7.4c-0.1-0.2-0.3-0.4-0.5-0.6
		c-3.7-4.8-3.7-6.9-0.1-11.6C146.7,200.3,147.4,198.6,148.6,196.6z M87,62.4c0-7.3-5.8-13-13.1-13c-7.2,0-13.1,5.8-13.2,13
		c0,7.3,6.1,13.4,13.3,13.3C81.3,75.6,87,69.6,87,62.4z M262.4,62.5c0,7.2,5.9,13.1,13,13.2c7.2,0,13.4-6.2,13.2-13.4
		c-0.1-7.2-6.1-12.9-13.3-12.9C268,49.5,262.4,55.2,262.4,62.5z M243.6,146.8c0,14.8,13.4,29.1,26.1,28.4c1-7,0.6-13.5-5-18.9
		C258.8,150.5,252.1,147,243.6,146.8z M42,122.8c-0.3,14.5,13.3,29.2,26,28.4c0.9-7.1,0.6-13.8-5.2-19.2C57,126.4,50.4,123,42,122.8
		z M105.7,147c-16.3-0.2-27.9,12.6-25.9,28.3C93.2,175.3,106.4,160.9,105.7,147z M91.3,80.6c3.5,4.9,8.5,7.1,12.7,5.3
		c3.4-1.5,5.8-5.5,5.3-9c-0.6-4.5-5.2-7.9-11-8.3C95.9,72.6,93.6,76.5,91.3,80.6z M81,86.6c-4.9,0-9.4,0-14,0
		c-2.4,5.6-1.8,10.8,1.7,13.5c2.9,2.3,7.4,2.4,10.5,0.1C82.6,97.6,83.3,92.7,81,86.6z M80.9,38.5c2.4-6.2,1.7-11.3-2.1-13.9
		c-3-2.1-7.8-1.9-10.5,0.4c-3.4,2.9-3.8,8.5-1.3,13.5C71.7,38.5,76.1,38.5,80.9,38.5z M268.6,38.5c4.6,0,9.2,0,13.8,0
		c2.4-5.6,1.9-10.8-1.5-13.6c-2.9-2.4-7.9-2.4-10.8,0C266.6,27.7,266,33,268.6,38.5z M251.1,68.5c-5.4,0.3-10.1,3.5-10.9,7.9
		c-0.7,3.6,1.7,7.9,5.2,9.4c4.1,1.8,9.1-0.4,12.7-5.3C255.8,76.5,253.5,72.6,251.1,68.5z M292.8,80.7c4.3,5.2,9,7,13,5
		c3.6-1.7,5.6-5.8,4.8-9.7c-0.9-4.1-5.8-7.4-10.8-7.4C297.4,72.7,295.2,76.5,292.8,80.7z M98.3,56.5c5.6-0.5,10-3.6,10.8-7.9
		c0.7-3.6-1.7-7.9-5.2-9.4c-4.1-1.7-8.8,0.3-12.7,5.2C93.6,48.4,95.9,52.4,98.3,56.5z M49.6,68.5c-5.8,0.5-10.2,3.8-10.8,8.1
		c-0.5,3.7,1.7,7.7,5.1,9.2c4.1,1.8,9.1-0.3,12.7-5.2C54.2,76.5,51.9,72.5,49.6,68.5z M292.8,44.3c2.5,4.3,4.8,8.2,7.1,12.3
		c6.3-0.9,10.3-4,10.8-8.3c0.4-3.8-1.7-7.6-5.2-9.1C301.4,37.4,297,39.2,292.8,44.3z M56.6,44.3c-4.3-5.2-9-7.1-13.2-5
		c-3.4,1.7-5.4,6-4.6,9.8c1,4.1,5.7,7.2,10.7,7.3C51.9,52.4,54.2,48.5,56.6,44.3z M268.5,86.6c-2.5,5.6-1.9,10.8,1.6,13.5
		c3.1,2.4,7.8,2.3,10.7-0.1c3.4-2.8,4-8.4,1.5-13.4C277.7,86.6,273.1,86.6,268.5,86.6z M258.4,44.7c-4.5-5.5-9.2-7.4-13.3-5.4
		c-3.3,1.6-5.5,5.9-4.8,9.3c0.9,4.4,5.6,7.6,11.3,7.8c0.9-2,1.7-4.1,2.8-6C255.5,48.4,257.1,46.6,258.4,44.7z"/>
	<path d="M136.3,120.2c-7.9-8.1-9.5-16.6-4.8-25c4.7-8.4,13.2-11.7,24.4-9.1c2.9-11,9.8-17,21.6-16.4c8.8,0.5,14.3,5.6,17.8,16.5
		c5.6-2,11.4-2.2,16.4,1.2c3.2,2.2,6.2,5.1,8.2,8.4c4.5,7.8,2.7,15.6-4.8,24.3c7.9,7.9,9.8,16.8,3.6,26.5
		c-4.9,7.6-12.3,9.9-23.3,7.5c-1.7,7.2-5.5,12.7-12.6,15.5c-0.8,0.3-1.2,2.2-1.3,3.4c-0.1,8.1,0.1,16.2-0.2,24.4
		c-0.1,2.1-1.3,4.8-2.8,6c-3.5,2.7-8.1-0.2-8.2-5c-0.2-8.2-0.1-16.5,0-24.7c0-2.6-0.6-3.9-3.2-5c-6.2-2.6-9.4-7.9-10.9-14.6
		c-5.7,1.7-11.4,2.2-16.3-1.2c-3.3-2.3-6.5-5.3-8.4-8.7C126.7,136.3,128.5,128.6,136.3,120.2z M162.5,119.8
		c-0.2,7.4,5.6,13.5,13,13.6c7.1,0.1,13.2-5.8,13.3-13c0.2-7.1-5.7-13.2-12.9-13.3C168.6,107,162.7,112.5,162.5,119.8z M182.6,96.2
		c2.4-6.2,1.7-11.3-2-13.9c-3.1-2.1-8.1-1.8-10.8,0.7c-3.1,2.9-3.5,8.5-1,13.2C173.3,96.2,177.8,96.2,182.6,96.2z M200,114.3
		c6.6-1.1,10.6-4.3,10.8-8.9c0.2-4-2.3-7.7-6.1-8.9c-4-1.2-9.2,1.5-11.7,5.7C195.4,106.3,197.6,110.2,200,114.3z M158.3,102.1
		c-3.9-5-8.6-7-12.7-5.3c-3.5,1.5-5.9,5.8-5.2,9.4c0.8,4.3,5.6,7.6,10.9,7.8C153.6,110.1,155.9,106.2,158.3,102.1z M151.2,126.2
		c-6.1,0.8-10.4,4.1-10.9,8.3c-0.5,3.7,2.1,7.9,5.7,9.2c4.1,1.5,9.3-1,12.2-5.5C155.8,134.2,153.6,130.3,151.2,126.2z M199.9,126.3
		c-2.3,4-4.6,8-7,12c3.8,5,8.7,7.1,12.8,5.2c3.6-1.6,5.7-5.7,5-9.6C210,129.9,205.4,126.7,199.9,126.3z M168.6,144.3
		c-2.4,5.7-1.8,10.9,1.7,13.6c3.1,2.3,7.8,2.3,10.7-0.2c3.4-2.8,3.9-8.4,1.4-13.4C177.8,144.3,173.2,144.3,168.6,144.3z"/>
	<path d="M177.3,3.7c4.5-3,9.3-4.6,14.6-3.3c10,2.5,14.4,13,9.5,22.7c-1.1,2.2-1.4,3.8-0.1,6.1c3.7,6.8,2.6,14.1-2.4,19
		c-5.1,4.9-12.3,5.8-19,2c-2-1.1-3.4-1-5.4,0c-7,3.8-13.9,2.9-19-2.2c-5-5-5.8-11.9-2.4-19c0.6-1.3,1-3.4,0.4-4.6
		c-3.9-8.1-3.3-14.7,2.1-20c5.3-5.2,12.2-5.7,20-1.5C176.2,3.2,176.7,3.4,177.3,3.7z M192.1,16.4c0.1-3.9-2.3-5.8-5.2-4.9
		c-1.6,0.5-3.1,1.6-4.4,2.7c-3.9,3-6.6,3-10.4,0c-1.2-0.9-2.4-2.1-3.7-2.4c-1.4-0.3-3.6-0.3-4.4,0.6c-1,1-1.3,3.1-1.1,4.6
		c0.2,1.5,1.5,2.8,2.5,4.1c2.8,3.6,2.9,6.6,0.1,10.2c-0.8,1.1-2.1,2.1-2.3,3.3c-0.2,1.8-0.3,4.2,0.7,5.4c0.8,0.9,3.4,0.8,5,0.5
		c1.3-0.3,2.5-1.6,3.7-2.5c3.3-2.5,6.2-2.5,9.6,0c1.3,1,2.5,2.3,4,2.6c1.5,0.4,3.8,0.3,4.7-0.6c1-0.9,1-3.1,1-4.7
		c0-0.9-0.8-1.8-1.4-2.6c-4.3-6-4.3-7-0.1-12.7C191.2,18.7,191.7,17.1,192.1,16.4z"/>
	<path d="M349.3,145.4c1.2,3.6,2.8,6.7,3.1,9.9c1.4,12.4-10.5,20.5-22,15.1c-2.9-1.4-4.9-1.4-7.8,0c-6.3,3.2-13.4,1.9-18-2.8
		c-4.8-4.9-5.9-12.1-2.3-18.7c1.2-2.2,1.3-3.8,0-6.1c-3.6-6.6-2.5-13.8,2.3-18.7c4.9-4.9,12.2-5.9,19-2.4c1.7,0.9,2.9,1.7,5.1,0.5
		c7.6-4.1,14.4-3.3,19.6,1.9c5.2,5.2,5.8,12.3,1.6,20C349.6,144.9,349.4,145.4,349.3,145.4z M336.4,160.9c3.5,0.1,5.5-1.8,4.9-4.5
		c-0.4-1.8-1.5-3.6-2.7-5.2c-2.8-3.8-2.9-6.7,0.1-10.4c0.5-0.6,1-1.1,1.4-1.8c1.4-2.2,2.3-4.6,0.1-6.8c-2.1-2-4.7-1.5-6.5,0.2
		c-4.9,4.7-9.5,4.8-14.3,0c-0.3-0.3-0.6-0.5-1-0.5c-1.9,0-4.5-0.6-5.4,0.4c-1,1.2-1.4,4.5-0.6,5.5c5.2,5.7,5.1,10.8-0.1,16.4
		c-0.9,1-0.6,4.4,0.4,5.2c1.2,1,3.8,0.6,5.7,0.6c0.6,0,1.3-0.7,1.9-1.2c5.3-4,6.9-4,12.1-0.1C333.9,159.8,335.5,160.4,336.4,160.9z"
		/>
</g>
</svg>
