<?xml version="1.0" encoding="utf-8"?>
<!-- Generator: Adobe Illustrator 22.1.0, SVG Export Plug-In . SVG Version: 6.00 Build 0)  -->
<svg version="1.1" id="Слой_1" xmlns="http://www.w3.org/2000/svg" xmlns:xlink="http://www.w3.org/1999/xlink" x="0px" y="0px" viewBox="0 0 376.8 384.1" style="enable-background:new 0 0 376.8 384.1;" xml:space="preserve">
	<style type="text/css">
		path {
			fill: #fff;
		}
	</style>
	<g>
		<path d="M289.7,0c1.4,0.4,2.9,0.8,4.3,1.2c15.3,4.2,25.5,17.4,25.6,33.5c0.1,16.2,0,32.5,0,48.7c0,1.4,0,2.7,0,4.2
		c12.2-3,24.3-1.6,36.3-1.5c12.2,0,20.7,9.2,20.8,21.4c0.1,8,0,16,0,24c0,4.3-2.2,6.9-5.7,6.9c-3.5,0-5.6-2.6-5.7-6.9
		c0-7.5,0-15,0-22.5c0-7.9-3.6-11.6-11.3-11.6c-8,0-16-0.1-24,0c-6.7,0.1-10.4,3.8-10.4,10.5c0,35.2,0,70.5,0.1,105.7
		c0,1.4,0.9,3,1.8,4c2.7,3,2.5,6.5-0.7,9.1c-1.1,0.9-2.1,2.1-2.5,3.4c-4.1,11.7-13.8,18.9-26.1,18.9c-69.2,0-138.5,0-207.7,0
		c-12.1,0-21.9-7.3-25.9-18.6c-0.5-1.4-1.5-2.7-2.7-3.7c-3.1-2.6-3.3-6.1-0.5-9.1c0.9-1,1.7-2.4,1.7-3.7c0.1-35.4,0.1-70.7,0-106.1
		c0-6.5-3.8-10.3-10.2-10.4c-8.4-0.1-16.7-0.1-25.1,0c-6.4,0.1-10.4,3.9-10.4,10.2c0,39-0.4,78,0.1,117c0.5,36,30.6,66.2,66.6,68
		c2.2,0.1,4.5,0.2,6.7,0.2c69,0,138,0,207,0c28.2,0,49.8-12,64.2-36.3c6.3-10.6,9.1-22.4,9.2-34.7c0-19.9,0-39.7,0-59.6
		c0-1.2-0.1-2.5,0.1-3.7c0.6-3.1,2.6-4.8,5.8-4.7c3,0.1,4.8,1.9,5.3,4.8c0.2,1,0.1,2,0.1,3c0,19.9,0.1,39.7,0,59.6
		c-0.1,40.1-26.7,72.9-65.9,81.4c-2.7,0.6-5.4,1-8.4,1.5c4.4,12.5,8.7,24.8,13,37.1c2.6,7.5,5.3,15.1,8,22.6
		c4.1,11.9-1.7,20.2-14.2,20.2c-3.1,0-6.3-0.2-9.4,0c-7.2,0.4-11.9-2.7-15.6-8.9c-12.8-21.5-26-42.7-38.6-64.2
		c-3-5.1-6.1-6.9-11.9-6.8c-31.5,0.3-63,0.2-94.5,0.1c-2.8,0-4.4,0.8-5.9,3.3c-13.6,22.7-27.4,45.3-41,68c-3.5,5.8-8.2,8.8-15,8.5
		c-3.5-0.2-7,0-10.5,0c-11.3-0.1-17.4-8.6-13.7-19.2c6.7-19.1,13.4-38.1,20.1-57.2c0.4-1.1,0.8-2.3,1.2-3.6
		c-17.9-2.1-33.5-8.7-46.7-20.7c-17.4-15.8-27.1-35.5-27.4-59.1c-0.4-39-0.2-78-0.1-117c0-11.7,8.4-20.6,20-21.1
		c9.5-0.4,19-0.2,28.5,0c2.7,0,5.4,0.9,8.6,1.5c0-4,0-8,0-12c0-1.5,0-3,0.4-4.4c0.8-2.7,2.8-4.2,5.6-4c2.9,0.2,4.9,1.8,5.3,4.9
		c0.2,1.4,0.1,2.7,0.1,4.1c0,31.1,0,62.2,0,93.4c0,1.4,0,2.9,0,5.2c9.7-6.6,20-4.8,30-5c4.3-0.1,7,2.2,7.1,5.6
		c0.1,3.5-2.6,5.8-7.2,5.8c-4.5,0.1-9,0-13.5,0c-9.8,0.2-16.2,6.4-16.4,16.2c-0.1,6.1,0,12.2,0,18.6c79.9,0,159.4,0,238.9,0
		c0-7.8,0.8-15.7-0.2-23.4c-0.8-6.2-5.8-10-12.2-11.1c-1.8-0.3-3.7-0.3-5.6-0.3c-52.9,0-105.7,0-158.6,0c-1.6,0-3.3,0-4.9-0.2
		c-3-0.4-4.8-2.3-4.9-5.2c-0.2-3,1.4-5,4.3-5.8c1.4-0.4,3-0.3,4.5-0.3c52,0,104,0,156,0c7.6,0,15,0.1,22.3,5.1c0-2.1,0-3.4,0-4.7
		c0-44.4,0-88.7,0-133.1c0-16-9.5-25.5-25.4-25.5c-63,0-126,0-189,0c-15.7,0-25.1,9.6-25.2,25.3c0,3.2,0.1,6.5-0.1,9.7
		c-0.2,3.2-2.1,5.1-5.3,5.3c-3,0.2-5.5-1.4-5.7-4.3c-1.2-13.6-0.8-26.8,9.9-37.3C73,4.6,79.8,1.7,87.2,0C154.7,0,222.2,0,289.7,0z
		 M70,228c3.7,7.5,9.6,9.7,16.9,9.7c67.7,0,135.4,0,203.1,0c1.2,0,2.5,0,3.7-0.1c5.9-0.8,10.4-3.6,13.2-9.6
		C227.8,228,149.2,228,70,228z M255,304.3c0.9,1.7,1.5,2.8,2.2,4c10.8,17.8,22.2,35.3,32.1,53.7c4.8,8.8,10.5,12.4,20,10.7
		c0.2,0,0.5,0,0.7,0c3.1,0,4-1.3,2.9-4.3c-7.3-20.6-14.5-41.2-21.8-61.7c-0.3-0.9-1.5-2.2-2.4-2.2
		C277.7,304.3,266.6,304.3,255,304.3z M122,304.3c-11.7,0-22.5-0.1-33.4,0.1c-1,0-2.6,1.4-3,2.4c-7.3,20.4-14.5,40.9-21.7,61.4
		c-1.2,3.4-0.5,4.3,3,4.4c3.2,0.1,6.5-0.2,9.7,0.1c2.9,0.2,4.5-0.8,6-3.3c8.6-14.4,17.3-28.7,25.9-43
		C113,319.3,117.3,312.2,122,304.3z" />
		<path d="M251.8,79.6c-10.4,0-18.9-8.3-19-18.7c-0.1-10.5,8.5-19,19.1-19c10.4,0,18.8,8.5,18.8,18.9
		C270.7,71.2,262.2,79.6,251.8,79.6z M251.6,68.2c4.1,0.1,7.4-3.1,7.5-7.2c0.1-4.1-3-7.5-7-7.7c-4.2-0.2-7.7,3.2-7.7,7.4
		C244.3,64.8,247.6,68.1,251.6,68.2z" />
		<path d="M125.2,79.6c-10.4,0-18.9-8.2-19-18.6c-0.2-10.4,8.5-19.1,19-19c10.4,0,18.8,8.5,18.9,18.8
		C144.1,71.1,135.6,79.5,125.2,79.6z M125.2,53.3c-4.1-0.1-7.4,3.1-7.5,7.2c-0.1,4.2,3,7.5,7.1,7.7c4.2,0.2,7.7-3.2,7.8-7.4
		C132.6,56.8,129.3,53.4,125.2,53.3z" />
		<path d="M251.8,143.5c-10.4,0-18.9-8.3-19-18.7c-0.1-10.4,8.6-19.1,19-19.1c10.3,0,18.8,8.6,18.8,18.9
		C270.7,135,262.2,143.5,251.8,143.5z M251.7,132.1c4.2,0,7.4-3.2,7.4-7.3c0.1-4.2-3.4-7.7-7.6-7.6c-4,0.1-7.3,3.5-7.2,7.6
		C244.4,128.9,247.6,132.1,251.7,132.1z" />
		<path d="M125.2,143.5c-10.4,0-18.9-8.3-19-18.7c-0.1-10.3,8.4-18.9,18.7-19c10.5-0.1,19.2,8.5,19.2,18.9
		C144,135.1,135.6,143.5,125.2,143.5z M125,132.1c4.1,0,7.4-3.1,7.5-7.2c0.1-4.2-3.4-7.7-7.5-7.7c-4,0.1-7.3,3.4-7.3,7.5
		C117.7,128.8,120.9,132,125,132.1z" />
		<path d="M207.3,124.7c0,10.5-8.3,18.8-18.8,18.8c-10.6,0-19-8.4-18.9-19.1c0.1-10.4,8.6-18.7,19-18.7
		C199,105.8,207.3,114.3,207.3,124.7z M188.4,132.1c4.1,0,7.4-3.2,7.4-7.3c0-4-3.3-7.5-7.3-7.6c-4.1-0.1-7.7,3.5-7.6,7.6
		C181,128.9,184.3,132.1,188.4,132.1z" />
		<path d="M188.5,41.9c10.5,0,18.8,8.3,18.8,18.8c0,10.6-8.4,19-19,18.9c-10.4-0.1-18.7-8.5-18.6-19C169.6,50.2,178,41.9,188.5,41.9z
		 M188.4,53.3c-4,0-7.4,3.4-7.5,7.4c-0.1,4,3.3,7.5,7.3,7.6c4.2,0.1,7.7-3.4,7.7-7.5C195.8,56.7,192.5,53.3,188.4,53.3z" />
	</g>
</svg>