<?xml version="1.0" encoding="utf-8"?>
<!-- Generator: Adobe Illustrator 22.1.0, SVG Export Plug-In . SVG Version: 6.00 Build 0)  -->
<svg version="1.1" id="Слой_1" xmlns="http://www.w3.org/2000/svg" xmlns:xlink="http://www.w3.org/1999/xlink" x="0px" y="0px"
	 viewBox="0 0 409.6 409.6" style="enable-background:new 0 0 409.6 409.6;" xml:space="preserve">
<g>
	<path d="M170.4,0c10.5,3.2,15.7,10.5,17.1,21.2c1,7.6,2.8,15.2,4.6,22.7c0.3,1.4,1.7,2.9,3,3.5c2.6,1.4,5.7,1.7,8.1,3.3
		c5.3,3.6,9.7,2.9,14.6-1c5.5-4.4,11.6-8,17.5-11.9c9.9-6.5,19.4-5.5,27.9,2.8c3.9,3.8,7.8,7.7,11.6,11.6c7.5,7.9,8.5,17.5,2.5,26.6
		c-4.9,7.5-9.8,14.9-14.9,22.3c-1.4,2-1.6,3.5-0.5,5.8c2,4.1,3.4,8.4,5.4,12.5c0.7,1.4,2.3,2.9,3.7,3.2c8.7,2,17.5,3.6,26.2,5.4
		c11,2.2,17.2,9.4,17.5,20.6c0.2,6.1,0.2,12.3-0.1,18.4c-0.4,10.2-6.4,17.3-16.3,19.5c-9,2-18,3.8-27,5.4c-2.5,0.5-3.6,1.6-4.3,3.9
		c-1.3,3.8-2.8,7.5-4.5,11.1c-1.8,3.9-5.1,5.3-8.4,3.9c-3.5-1.5-4.8-4.9-3.3-9c2-5.4,4.2-10.7,6-16.1c1.2-3.6,3.9-4.8,7.2-5.4
		c9.8-1.9,19.6-3.9,29.4-5.8c6.8-1.3,8.4-3.3,8.4-10.3c0-5.1,0.1-10.1,0-15.2c-0.1-4.7-2-7.1-6.6-8.1c-10.6-2.2-21.1-4.3-31.7-6.4
		c-3.5-0.7-5.6-2.4-6.9-5.8c-2.7-7.1-5.6-14.1-8.7-21c-1.5-3.3-1.3-6,0.7-9c5.8-8.5,11.4-17,17.1-25.6c3.8-5.7,3.5-8.3-1.2-13
		c-3.5-3.5-6.9-7-10.5-10.4c-4-3.9-6.8-4.2-11.4-1.1c-8.8,5.8-17.6,11.6-26.3,17.5c-3.2,2.2-6.1,2.3-9.7,0.7
		c-6.5-3-13.1-5.8-19.9-8.2c-3.9-1.4-5.8-3.7-6.6-7.6c-1.8-9.8-3.9-19.6-5.8-29.4c-1.3-6.7-3.5-8.6-10.3-8.6c-4.9,0-9.9-0.1-14.8,0
		c-5.2,0.1-7.5,2-8.6,7.1c-2.2,10.4-4.3,20.9-6.3,31.3c-0.7,3.7-2.7,5.8-6.1,7.1c-6.8,2.6-13.6,5.4-20.3,8.4
		c-3.6,1.6-6.5,1.5-9.7-0.7c-8.5-5.8-17-11.4-25.6-17.1c-5.3-3.5-7.9-3.2-12.3,1.1c-3.4,3.4-6.8,6.8-10.2,10.2
		c-4.6,4.7-4.9,7.2-1.3,12.6c5.7,8.6,11.3,17.1,17.1,25.6c2.2,3.2,2.3,6.1,0.7,9.7c-3,6.6-5.8,13.4-8.4,20.3
		c-1.3,3.5-3.4,5.4-7.1,6.1c-10.3,2-20.6,4.1-30.9,6.2c-5.6,1.2-7.4,3.4-7.5,9.1c-0.1,4.9,0,9.9,0,14.8c0,6.1,1.9,8.5,7.9,9.7
		c9.8,2,19.6,4,29.4,5.8c4.6,0.8,7.1,3,8.7,7.5c2.3,6.6,5.2,13.1,8.1,19.5c1.5,3.2,1.4,6-0.7,9c-5.8,8.6-11.6,17.3-17.3,25.9
		c-3.6,5.4-3.3,8,1.3,12.6c3.4,3.4,6.8,6.8,10.2,10.2c4.3,4.2,7.1,4.5,12,1.3c8.7-5.7,17.4-11.4,25.9-17.3c3.2-2.2,6.1-2.4,9.7-0.7
		c6.5,3,13.2,5.7,19.9,8.2c3.8,1.4,5.9,3.6,6.6,7.6c1.9,10.2,4,20.4,6.1,30.5c1.2,5.6,3.3,7.3,9.1,7.4c5.1,0,10.1,0,15.2,0
		c5.9,0,8.1-1.9,9.3-7.7c2-9.8,4-19.6,5.7-29.4c0.8-4.6,2.9-7.3,7.5-8.7c4.6-1.3,9-3.3,13.5-5c4.3-1.6,7.7-0.5,9.2,2.9
		c1.6,3.6,0,7-4.3,9c-2.5,1.2-5.1,2.6-7.7,3.2c-4.7,0.9-6.3,3.7-7,8.2c-1.3,8-3,16-4.7,23.9c-2.3,10.2-9.3,16.1-19.7,16.5
		c-6.1,0.2-12.3,0.2-18.4,0c-10.9-0.4-18.2-6.6-20.4-17.3c-1.8-8.7-3.6-17.5-5.2-26.2c-0.4-2.3-1.4-3.3-3.6-4.1
		c-4.3-1.5-8.4-3.3-12.5-5.2c-2.1-1-3.6-0.7-5.4,0.5c-7.1,4.9-14.4,9.7-21.6,14.4c-10.1,6.7-19.6,5.7-28.2-2.7
		c-3.8-3.7-7.6-7.5-11.3-11.3c-7.8-8-8.8-17.5-2.7-26.9c4.8-7.5,9.8-14.9,14.9-22.3c1.4-2,1.5-3.6,0.4-5.8
		c-1.9-4.1-3.3-8.4-5.3-12.5c-0.7-1.4-2.4-2.9-3.8-3.2c-9-2-18-3.6-27-5.6C6.1,184.2,0.1,176.6,0,165.6c0-5.5,0-10.9,0-16.4
		c0.1-11.5,6.4-19,17.7-21.3c8.4-1.7,16.7-3.4,25.1-4.9c2.7-0.5,4.5-1.6,5.2-4.5c0.6-2.4,1.3-5,2.7-7c3.6-5.3,2.9-9.7-1.1-14.6
		c-4.4-5.5-8-11.6-11.9-17.5c-6.5-9.9-5.5-19.4,2.9-27.8c3.7-3.8,7.5-7.6,11.3-11.3c8-7.8,17.5-8.8,26.9-2.8
		c7.5,4.8,14.9,9.8,22.3,14.9c2,1.4,3.6,1.5,5.8,0.5c4-1.9,8-3.6,12.2-5c2.3-0.8,3.3-2.1,3.8-4.5c1.3-7.1,3.2-14,4.1-21.2
		c1.4-10.9,6.2-18.7,17-22.2C152.8,0,161.6,0,170.4,0z"/>
	<path d="M409.6,313.6c-2.9,7.8-8.7,11.7-16.8,12.6c-3.2,0.4-6.3,1.4-9.4,1.7c-3.8,0.3-5.5,2.3-7,5.7c-1.7,3.9-1.6,6.7,1.1,10.1
		c2.8,3.4,5,7.2,7.3,10.9c4.2,6.8,3.5,14-2,19.8c-2.8,2.9-5.6,5.7-8.5,8.5c-5.6,5.3-12.9,6-19.5,1.9c-4.5-2.8-9-5.8-13.3-8.8
		c-1.8-1.3-3.3-1.3-5.4-0.6c-5.2,1.6-8.2,4.3-8.6,10.2c-0.3,4.2-1.5,8.4-2.6,12.5c-1.9,6.9-7.4,11.3-14.6,11.5c-4,0.1-8,0.1-12,0
		c-8.3-0.1-14.1-4.9-15.8-13.1c-1.1-5.2-2-10.5-3.3-15.6c-0.3-1.3-1.6-2.5-2.7-3.3c-4.8-3.3-9.3-3.2-13.9,0.9
		c-2.8,2.6-6.3,4.4-9.6,6.5c-6.6,4.1-13.8,3.3-19.5-2c-3-2.8-5.9-5.7-8.7-8.8c-5.1-5.5-5.9-12.7-1.9-19.1c2.9-4.8,6.3-9.3,9.2-14.1
		c0.7-1.1,0.8-2.9,0.5-4.3c-1.2-5.8-4.6-8.9-10.8-9.3c-4.1-0.3-8.1-1.4-12.1-2.5c-6.7-1.8-11-7.4-11.2-14.4c-0.1-4.4-0.2-8.8,0-13.2
		c0.3-7.4,5.6-13.5,12.8-14.8c4-0.7,7.2,1,8.3,4.5c1,3.4-0.7,6.7-4.8,7.9c-2.7,0.8-3.7,2.2-3.6,4.9c0.1,2.8,0.1,5.6,0,8.4
		c-0.1,3,1.2,4.3,4.1,4.8c6.4,1.1,12.8,2.6,19.2,3.8c3.3,0.6,5.4,2.4,6.6,5.6c1.6,4.4,3.4,8.7,5.3,12.9c1.4,3.1,1.3,5.8-0.6,8.6
		c-3.7,5.4-7.2,10.9-10.9,16.3c-1.7,2.4-1.6,4.2,0.5,6.3c11,10.5,6.7,9.9,18.8,2.2c3.3-2.1,6.5-4.2,9.6-6.4c2.9-2.1,5.8-2.1,9-0.6
		c4.1,1.9,8.3,3.7,12.5,5.2c3.4,1.2,5.2,3.4,5.8,6.9c1.2,6.3,2.6,12.5,3.7,18.8c0.5,3.1,1.9,4.3,5.1,4.3
		c14.5-0.3,11.6,2.1,14.5-11.7c0.8-3.9,1.6-7.8,2.4-11.7c0.6-3.2,2.3-5.2,5.4-6.3c4.5-1.6,8.9-3.5,13.3-5.5c3.1-1.4,5.8-1.2,8.6,0.7
		c5.4,3.7,10.9,7.2,16.3,10.9c2.2,1.5,4,1.7,6-0.4c2.1-2.3,4.3-4.4,6.5-6.5c1.9-1.8,1.9-3.5,0.5-5.6c-3.7-5.4-7.2-10.9-10.9-16.3
		c-2.1-3.1-2.3-6-0.7-9.4c1.9-4,3.6-8,5-12.1c1.2-3.5,3.4-5.4,7.1-6.1c6.3-1.1,12.5-2.6,18.8-3.7c2.9-0.5,4.2-1.8,4.1-4.8
		c-0.3-14.9,2.2-11.8-11.8-14.8c-3.6-0.8-7.3-1.6-11-2.2c-3.7-0.6-5.9-2.4-7.2-6c-1.5-4.3-3.3-8.4-5.2-12.5c-1.5-3.2-1.3-6.1,0.7-9
		c3.7-5.4,7.2-10.9,10.9-16.3c1.6-2.3,1.4-4-0.6-5.9c-11-10.5-6.8-10-18.8-2.3c-3.4,2.2-6.7,4.4-10,6.6c-2.7,1.8-5.3,2-8.3,0.7
		c-4.4-2-8.8-3.9-13.3-5.5c-3.3-1.2-4.9-3.3-5.5-6.6c-1.2-6.4-2.7-12.8-3.8-19.2c-0.5-3-2-4.1-4.9-3.9c-2.1,0.1-4.3,0-6.4,0
		c-5.9,0-6,0.1-7.2,6c-1.1,5.6-2.3,11.2-3.3,16.9c-0.6,3.5-2.3,5.7-5.8,6.9c-4.4,1.5-8.7,3.4-12.9,5.3c-3.1,1.4-5.8,1.3-8.6-0.6
		c-5.4-3.7-10.9-7.2-16.3-10.9c-2.4-1.7-4.2-1.6-6.3,0.6c-10.4,10.9-9.8,6.7-2.1,18.8c2.1,3.3,4.2,6.5,6.4,9.6
		c1.9,2.8,2.1,5.5,0.7,8.6c-1.9,4.2-3.7,8.6-5.4,12.9c-1.8,4.5-4.8,6.4-8.5,5.1c-3.7-1.2-5.1-4.7-3.7-9.2c0.5-1.8,0.8-3.8,1.8-5.3
		c3.7-5.3,2.1-9.7-1.7-14.2c-2.3-2.7-4.1-5.9-6-9c-3.9-6.5-3.2-13.6,1.9-19.2c2.8-3,5.7-6,8.8-8.8c5.8-5.4,13-6,19.8-1.8
		c4.4,2.8,8.7,5.7,13,8.6c1.8,1.3,3.3,1.3,5.4,0.7c5.2-1.6,8.3-4.3,8.6-10.2c0.2-3.7,1.3-7.3,2.1-11c1.8-8.1,7.6-12.9,15.9-13
		c4-0.1,8-0.1,12,0c7.1,0.2,12.8,4.6,14.5,11.5c1.4,5.4,2.4,10.9,3.4,16.4c0.4,2.4,1.7,3.4,3.7,4.5c4.8,2.7,8.7,2.5,12.9-1.2
		c2.9-2.5,6.3-4.4,9.6-6.5c6.9-4.3,14.2-3.5,20.1,2.1c2.7,2.6,5.3,5.2,7.9,7.9c5.8,6.1,6.5,13.3,2,20.4c-2.9,4.5-6,8.8-8.8,13.4
		c-0.7,1.1-0.8,2.9-0.5,4.3c1.3,5.4,4.1,9.2,10.5,9.2c2.3,0,4.7,1,7.1,1.3c8.1,1,13.9,4.8,16.7,12.7
		C409.6,300.8,409.6,307.2,409.6,313.6z"/>
	<path d="M118,157.3c0.1-21.5,18.1-39.5,39.5-39.3c21.5,0.1,39.4,18.1,39.2,39.6c-0.1,21.4-18.3,39.3-39.7,39.1
		C135.8,196.6,118,178.6,118,157.3z M157.3,131c-14.6,0.1-26.4,12-26.2,26.6c0.1,14.4,11.9,26.2,26.3,26.3
		c14.3,0.1,26.6-12.2,26.6-26.5C183.9,142.9,171.8,130.9,157.3,131z"/>
	<path d="M230.4,157.6c-0.5,10.7-2.7,20.9-7.2,30.6c-2.4,5.1-5.6,6.9-9.6,5c-3.6-1.7-4.5-5.4-2.2-10.4c6.1-13.1,7.3-26.6,3.8-40.5
		c-10.7-42.6-63.6-59.1-96.7-30.2c-1,0.9-2,1.8-3.1,2.6c-3.1,2.3-6.7,2-9-0.6c-2.4-2.7-2.2-6.4,0.8-9.3C114.1,98.2,122,93,131,89.7
		c42.5-15.9,87.4,8.3,97.4,52.5C229.6,147.2,229.8,152.5,230.4,157.6z"/>
	<path d="M158.1,230.1c-49.4,0.2-84.8-47.7-69.9-94.4c0.7-2.3,3-4.8,5.2-5.7c1.6-0.6,5.2,0.6,6.1,2.1c1.2,2.1,1.3,5.4,0.7,7.8
		c-5.3,19.7-2.2,37.7,10.1,54c18,23.9,52.3,30.2,77.8,14.6c1.5-0.9,2.9-1.9,4.4-2.7c3.7-2,7.2-1.2,9.1,1.9c1.9,3.1,1.1,6.7-2.3,9.1
		c-10.1,7.1-21.3,11.4-33.6,12.8C163.1,229.8,160.4,229.9,158.1,230.1z"/>
	<path d="M267.9,304.1c-0.1-19.4,15.2-35.3,34.7-36.2c19.2-0.8,35.8,13.9,37.3,33.1c0.4,5.8-1.5,8.9-5.6,9.3
		c-4.1,0.4-6.6-2.5-7.2-8.2c-1.1-11.4-9.9-20.4-20.8-21.3c-11.7-1-21.8,6.1-24.8,17.5c-2.3,8.8,1,18.3,8.6,24.1
		c7.3,5.6,17.6,6.2,25.6,1.5c1-0.6,2-1.3,3.1-1.8c3.5-1.8,6.9-1.1,8.8,1.9c2,3.1,1.2,6.7-2.1,9.1c-8.8,6.3-18.6,8.4-29.2,6.1
		C279.7,335.6,268,320.9,267.9,304.1z"/>
</g>
</svg>
