<?xml version="1.0" encoding="utf-8"?>
<!-- Generator: Adobe Illustrator 22.1.0, SVG Export Plug-In . SVG Version: 6.00 Build 0)  -->
<svg version="1.1" id="Слой_1" xmlns="http://www.w3.org/2000/svg" xmlns:xlink="http://www.w3.org/1999/xlink" x="0px" y="0px"
	 viewBox="0 0 512 218.4" style="enable-background:new 0 0 512 218.4;" xml:space="preserve">
<g>
	<path d="M0,51.5c2.8-5.1,7-6.2,12.3-4.4c3.2,1.1,5.1,0.6,6.9-3c9.8-19.7,26.9-30.7,47.3-36.3c38.4-10.5,77.1-10.7,115.3,0.8
		c25.9,7.8,44.2,24.1,50.7,51.5c0.9,3.7,1.4,7.5,2,10.9c14.2,0,28.2,0,42.9,0c0.2-1.5,0.6-3.7,1-6c4.4-25.2,18.7-42.4,41.9-52.7
		C337.6,4.6,356,1.9,374.7,0.9c19.7-1,39.3-0.3,58.7,3.7c2.5,0.5,5.7,1.4,6.9,3.3c1.4,2.1,1.7,5.8,0.9,8.2c-1.3,3.7-4.9,4.6-8.8,3.7
		c-16.9-3.6-34-4.6-51.2-4c-16.3,0.5-32.5,2.3-48.1,7.7c-32,10.9-44.9,37-39.5,71.3c61.8-14.3,123.6-28.6,185.9-43
		c-3.8-8-9.1-13.8-15.6-18.6c-1.3-1-2.8-1.8-4.1-2.8c-4.3-3-5.4-7.5-2.9-11.1c2.4-3.6,6.7-4.3,11-1.7c9.2,5.6,16.9,13,22.5,22.2
		c0.3,0.4,0.6,0.8,0.7,1.3c1.9,5.5,4.8,8,11,5.5c4.4-1.7,7.6,1.1,9.8,4.8c0,1.7,0,3.3,0,5c-3.7,2.4-7.5,4.8-12.2,7.9
		c3.2,20.5,0.9,41.9-8.1,62.3c-9,20.5-23.1,36.8-42.1,49.5c1.1,1.3,2,2.4,3,3.4c8.2,8.3,16.5,16.5,24.7,24.8c4,4.1,4.2,8.6,0.8,11.9
		c-3.4,3.2-7.5,2.9-11.5-1c-9.5-9.4-18.9-18.8-28.2-28.3c-2.2-2.3-4-2.5-6.9-1.4c-56.1,22.3-117.5-1.5-143.5-55.6
		c-1.4-2.8-3.1-4.3-6.2-4.9c-7.5-1.5-14.9-3.5-22.4-5.1c-2.1-0.4-4.3-0.5-6.4-0.1c-7.8,1.7-15.6,3.4-23.3,5.5
		c-2.2,0.6-4.6,2.6-5.6,4.6c-26.5,54.3-87.8,78-144.1,55.4c-2.9-1.2-4.5-0.5-6.5,1.5c-9.2,9.4-18.5,18.8-28,27.9
		c-2,1.9-5.2,3.4-7.8,3.3c-2-0.1-5.2-2.7-5.6-4.6c-0.5-2.6,0.3-6.5,2.1-8.4c7.7-8.3,15.8-16.2,23.9-24.2c1.3-1.3,2.9-2.2,4.9-3.6
		C23.2,148.6,6.3,110.9,12,64.2C7.8,61.5,3.9,59,0,56.5C0,54.8,0,53.2,0,51.5z M88.3,171.9c43.2,17.9,96.8-1.6,117.1-40.7
		c-0.3,0-0.7-0.2-0.9-0.1c-10.9,2.5-21.7,5-32.6,7.4c-7.6,1.7-11.6,0.3-12.8-4.5c-1.4-5.3,1.8-8.6,9.8-10.4
		c14.1-3.2,28.2-6.5,42.3-9.8c1.6-0.4,3-1.8,4.5-2.7c-0.2-0.5-0.4-1-0.6-1.5C152.6,95.2,90.2,80.7,27.8,66.3
		C20.4,102,38.7,146,74.1,165c7.2-7.2,14.4-14.6,21.8-21.7c2-1.9,4.5-3.6,7.1-4.3c10.1-2.6,20.4-4.9,30.6-7.2
		c5.3-1.2,9.3,0.9,10.4,5.2c1.2,4.6-1.4,8.3-6.9,9.6c-8.6,2.1-17.2,4-25.7,6.1c-1.9,0.5-4.1,1-5.4,2.2
		C100,160.2,94.4,165.9,88.3,171.9z M32.5,51.8c62.5,14.5,124.2,28.7,185.9,43c5.2-31.5-5.7-58.8-37.1-70.3
		c-3.9-1.4-7.9-2.8-11.9-3.7c-25.9-6.1-52.2-6.3-78.4-2.9c-13.1,1.7-25.8,5-37.4,11.7C44.7,34.8,37.4,41.6,32.5,51.8z M438,165.2
		c40.6-23.3,53-69.9,46-98.9c-62.4,14.5-124.8,28.9-187.3,43.4c-0.1,0.6-0.2,1.2-0.4,1.9c2,0.9,3.9,2.2,5.9,2.6
		c35.2,8.2,70.4,16.2,105.5,24.5c3,0.7,6.2,2.6,8.5,4.8C423.7,150.5,430.9,158,438,165.2z M423.8,171.9
		c-5.5-5.3-10.3-10.3-15.6-14.9c-2.2-2-5.1-3.7-8-4.4c-29.6-7-59.2-13.8-88.9-20.7c-1.6-0.4-3.3-0.7-5.5-1.1
		C330.6,173.7,383.3,188.6,423.8,171.9z M234.1,97.7c14.9,6.3,29.4,6.4,44.1-0.1c-0.4-3.3-0.8-6.6-1.2-9.9c-11.1-2.6-22-3.1-33-1.6
		C233.5,87.7,234.9,85.5,234.1,97.7z"/>
</g>
</svg>
