<?xml version="1.0" encoding="utf-8"?>
<!-- Generator: Adobe Illustrator 22.1.0, SVG Export Plug-In . SVG Version: 6.00 Build 0)  -->
<svg version="1.1" id="Слой_1" xmlns="http://www.w3.org/2000/svg" xmlns:xlink="http://www.w3.org/1999/xlink" x="0px" y="0px" viewBox="0 0 426.6 426.6" style="enable-background:new 0 0 426.6 426.6;" xml:space="preserve">
	<style type="text/css">
		path {
			fill: #e55021;
		}
	</style>
	<g>
		<path d="M426.6,215.8c-2.5,6.3-7.3,8.5-13.8,8.3c-9.7-0.3-19.4-0.1-29.3-0.1c-3.4,42.8-19.6,79.5-49.7,109.6
		c-30.1,30.1-66.8,46.4-109.7,49.8c0,7.4,0,14.7,0,22.1c0,3.2,0.1,6.4,0,9.6c-0.2,6.8-4.6,11.4-10.7,11.5c-6.1,0-10.6-4.6-10.7-11.4
		c-0.1-10.4,0-20.8,0-30.7C109.4,370.6,56.2,317.5,42,224c-8,0-16.8,0-25.7,0c-1.9,0-3.9,0.1-5.8-0.1C4.3,223.5,0,219.1,0,213.3
		c0-5.8,4.4-10.4,10.6-10.6c8.5-0.2,16.9-0.1,25.4-0.1c2.2,0,4.4,0,6,0C55.9,109.5,109,56.4,202.6,42.1c0-0.9,0-2.9,0-4.9
		c0-7.8,0.2-15.6-0.1-23.3c-0.2-6.6,2-11.3,8.3-13.8c1.7,0,3.3,0,5,0c6.3,2.5,8.5,7.2,8.3,13.8c-0.3,7.9-0.1,15.8-0.1,23.7
		c0,1.9,0,3.8,0,5.6c43.1,3.5,79.7,19.7,109.8,49.9c30.1,30.1,46.2,66.9,49.6,109.6c9.9,0,19.6,0.2,29.3-0.1
		c6.6-0.2,11.3,2,13.8,8.3C426.6,212.5,426.6,214.1,426.6,215.8z M64,213.2c-0.1,82.4,66.4,149.1,148.9,149.4
		c82.4,0.3,149.5-66.7,149.6-149.2c0.1-82.4-66.4-149-148.9-149.3C131.1,63.8,64.1,130.6,64,213.2z" />
		<path d="M213,298.6c-47.3-0.2-85.2-38.4-85-85.5c0.2-47.2,38.4-85.2,85.5-85c47.3,0.2,85.2,38.3,85,85.5
		C298.4,260.8,260.1,298.8,213,298.6z M277.3,213.4c0.1-35.1-28.6-63.9-63.7-64.1c-35.3-0.2-64.3,28.7-64.3,63.9
		c0,35.1,28.6,64,63.7,64.1C248.2,277.5,277.2,248.7,277.3,213.4z" />
	</g>
</svg>