<?xml version="1.0" encoding="utf-8"?>
<!-- Generator: Adobe Illustrator 22.1.0, SVG Export Plug-In . SVG Version: 6.00 Build 0)  -->
<svg version="1.1" id="Слой_1" xmlns="http://www.w3.org/2000/svg" xmlns:xlink="http://www.w3.org/1999/xlink" x="0px" y="0px"
	 viewBox="0 0 409.6 262.5" style="enable-background:new 0 0 409.6 262.5;" xml:space="preserve">
<g>
	<path d="M409.6,258.6c-2.2,2.4-4.3,4.8-8.1,3.3c-3.7-1.5-3.9-4.6-3.9-7.9c0-20,0-40,0-60c0-1.7-0.2-3.3-0.3-5.7
		c-7.5,6.8-14.3,12.4-13.6,23.6c0.9,14.2,0.3,28.5,0.1,42.8c0,2.2-1.1,5.2-2.7,6.6c-3.7,3.2-8.9,0.2-9.1-5.1
		c-0.2-5.9-0.1-11.7-0.1-17.6c0-9.9,0.1-19.7,0-29.6c-0.2-8.5,2.7-15.7,8.9-21.4c2.8-2.6,5.8-5.1,9.1-8
		c-12.8-6.4-24.5-12.3-36.6-18.4c-4.3,4.4-8.9,8.9-13.2,13.6c-0.9,1-1,2.9-1,4.4c-0.1,24.7,0,49.3-0.1,74c0,1.7-0.1,3.5-0.5,5.1
		c-0.8,3-3.1,4.4-6,4.1c-2.9-0.3-4.9-2-5.3-5.1c-0.2-1.3-0.1-2.7-0.1-4c0-24.5-0.1-49.1,0.1-73.6c0-2.9-0.8-5-2.9-6.9
		c-4-3.7-7.7-7.8-11.5-11.7c-1.5,0.7-2.6,1.3-3.8,1.8c-2.9,1.2-5.3,0.4-7-2.1c-1.8-2.6-1.8-5.9,0.9-7.5c5.7-3.5,5.3-8.7,5-14.1
		c-0.1-1.1-0.7-2.3-1.4-3.1c-8.2-8.2-11.8-18.2-11.3-29.7c0.1-2.2,0.4-4.4-2.9-5.1c-1.3-0.3-3-2.4-3.1-3.7
		c-0.5-10.4-1.5-20.9,3.4-30.6c7.2-14.3,19.2-21.4,35-21.7c6.9-0.2,14-0.3,20.6,1.3c18.3,4.3,29.1,18.8,29.5,37.8
		c0.1,3.2,0,6.4,0,9.6c0,5.3-1,6.7-6.1,8.5c-0.3,4.1-0.4,8.2-0.9,12.2c-1,8.1-4.7,14.9-10.2,20.8c-4.2,4.5-2.6,14.3,2.9,17.2
		c9,4.6,18,9.4,27.2,13.5c9.7,4.3,16.7,10.7,19.2,21.3C409.6,211.1,409.6,234.9,409.6,258.6z M307.1,106.4
		C307.1,106.4,307.1,106.4,307.1,106.4c0,0.8,0,1.6,0,2.4c0.6,18.2,17.2,30.4,34,24.8c13.2-4.4,19.2-15.7,17.9-30.3
		c-0.1-0.8-1.8-1.9-2.9-2.2c-9-2.4-18.3-3.8-26.9-7.1c-5.7-2.2-10.2-3.2-14.8,1.5c-1.1,1.1-2.7,1.7-4.2,2.2
		c-2.6,0.9-3.5,2.6-3.1,5.2C307.2,104,307.1,105.2,307.1,106.4z M365.2,89.8c2-15.9-5.7-29-19.6-31.6c-8.1-1.5-16.9-1.4-25,0
		c-13.7,2.4-22.7,17.4-19,31.1c4.5-3.1,8.9-5.8,12.9-9c4.5-3.6,5.6-3.8,10.7-1.1C337.6,85.7,351,89.1,365.2,89.8z M319.6,144.6
		c0.2,2.7-0.5,5.5,0.6,6.8c3.9,4.6,8.5,8.7,13.1,13.3c3.7-3.8,6.8-7.5,10.4-10.6c3-2.7,3.8-5.4,2.1-9.3
		C337.3,147.6,328.8,147.5,319.6,144.6z"/>
	<path d="M282.3,176.4c-6,5.6-12.3,10.7-17.7,16.7c-1.9,2.1-2.3,6.2-2.3,9.4c-0.2,16.9-0.1,33.9-0.1,50.8c0,1.7,0.3,3.9-0.7,5
		c-1.4,1.7-3.9,3.9-5.7,3.7c-1.9-0.1-3.8-2.6-5.2-4.4c-0.7-0.9-0.3-2.6-0.3-3.9c0-16.9,0.1-33.9-0.1-50.8c-0.1-9,2.9-16.3,9.3-22.5
		c5.8-5.5,11.3-11.2,17.5-17.4c-2.9-1.7-5.1-3.4-7.5-4.5c-10-4.6-20.2-9-30.2-13.6c-2.1-1-3.5-0.8-5.2,0.9
		c-6.8,7-13.8,13.7-20.5,20.8c-1.4,1.5-2.5,4.1-2.5,6.2c-0.2,26.5-0.1,53.1-0.1,79.6c0,1.7,0,3.5-0.3,5.2c-0.5,3.1-2.7,4.7-5.6,4.7
		c-2.9,0-5.1-1.5-5.7-4.6c-0.3-1.7-0.3-3.4-0.3-5.2c0-26.5,0-53.1,0-79.6c0-2.8-0.8-4.7-2.8-6.6c-6.9-6.7-13.7-13.5-20.4-20.4
		c-1.6-1.7-2.9-2.1-5.2-1c-10.2,4.7-20.4,9.1-30.6,13.7c-2.4,1.1-4.5,2.7-7.2,4.4c5.3,5.3,10,10.4,15.2,15
		c8.5,7.5,12.1,16.5,11.7,27.9c-0.6,15.7-0.1,31.5-0.2,47.2c0,1.5,0,3-0.2,4.4c-0.5,3.1-2.8,5-5.6,4.6c-2.1-0.3-4.2-2.3-5.6-4.1
		c-0.9-1.2-0.6-3.3-0.6-5c0-16.8-0.1-33.6,0-50.4c0.1-5.5-1.7-9.8-5.6-13.5c-4.6-4.4-9-9.1-13.4-13.6c-0.4,0.1-0.7,0.3-1.1,0.4
		c0,1.4,0,2.7,0,4.1c0,24.1,0,48.3,0,72.4c0,1.2,0,2.4,0,3.6c-0.2,3.9-2.4,6.3-5.7,6.5c-3.2,0.1-5.7-2.4-6.2-6.1
		c-0.1-1.1-0.1-2.1-0.1-3.2c0-24.4,0.1-48.8,0-73.2c-0.1-15.9,7-26.9,21.6-33.2c10-4.3,19.9-8.9,30-13.2c4.4-1.9,6.2-4.7,6.3-9.5
		c0.1-4.8-1-8.3-4.7-11.8c-9.7-9.4-14.1-21.3-14.8-34.8c-0.1-1.7-1.4-3.4-2.3-5c-1.2-2.2-3.2-4.3-3.5-6.5
		c-1.6-14.8-0.9-29.3,7.7-42.3c8.9-13.3,21.3-21.3,37.2-22.8c13.9-1.3,28.1-1.9,41.1,5.1c18.2,9.7,27.4,25.1,28,45.6
		c0.1,4-1.3,7.5-4.2,10.4c-1.1,1.1-1.9,3-2.1,4.7c-0.9,8-0.8,16.3-2.3,24.2c-1.8,9.4-7.3,17-14.3,23.5c-5.4,5-3.7,16,3.1,19
		c10.4,4.7,20.9,9.4,31.4,14c13.8,6.1,20.5,16.8,20.6,31.8c0.1,24.9,0,49.9,0,74.8c0,1.6,0.2,3.7-0.7,4.6c-1.5,1.7-3.9,3.8-5.8,3.6
		c-1.9-0.2-3.9-2.6-5.2-4.5c-0.8-1.1-0.3-3.1-0.3-4.7c0-24.1,0-48.3,0-72.4C282.3,179,282.3,177.5,282.3,176.4z M249.7,52.9
		c2.1-15.3-10.2-33.2-25.5-38.3c-8.1-2.7-16.3-2.4-24.5-2.3c-26.5,0.2-44.3,21.8-39.5,51.5c2.9-1.8,5.5-3.5,8.1-5.2
		c3.6-2.5,7.1-2.3,9.2,0.6c2.1,2.8,1.4,6.4-2.1,9c-2.3,1.8-5,3.1-7.2,4.9c-1.1,0.8-2.2,2.4-2.2,3.6c0.2,10.9,4,20.4,11.8,27.9
		c13.1,12.6,31.1,14.7,47.1,5.3c15-8.9,21-25.2,18.2-44.2c-8.8,0-17.7,0.7-26.5-0.2c-13-1.3-24.6-6.6-34.3-15.7
		c-3.2-2.9-3.4-6.6-1-9.2c2.4-2.5,5.7-2.6,8.9,0.2C207.9,56.3,228.4,56.4,249.7,52.9z M204.8,158.2c7.2-7.3,14.1-14.1,20.9-21
		c0.5-0.5,1.1-1.4,0.9-2c-0.9-3.7-1.9-7.3-3-11.1c-12.7,4.9-25.5,4.6-37.9,0.1c-1,3.7-1.9,7-2.6,10.3c-0.2,0.8,0.1,2.1,0.7,2.7
		C190.7,144.1,197.6,151,204.8,158.2z"/>
	<path d="M84.1,180.2c-4.4,4.5-8.9,8.8-13.1,13.4c-0.9,1-1.3,2.8-1.3,4.3c-0.1,18.4-0.1,36.8-0.1,55.2c0,1.2,0,2.4-0.1,3.6
		c-0.4,3.4-2.4,5.4-5.7,5.5c-3.1,0.1-5.3-1.7-5.9-4.9c-0.3-1.4-0.3-2.9-0.3-4.4c0-18.3,0.1-36.5-0.1-54.8c0-2-1.1-4.3-2.4-5.8
		c-3.7-4.3-7.9-8.3-11.7-12.2c-9.3,4.7-18,9.2-27.4,14c4.6,4.5,8.6,8.5,12.7,12.5c6.1,5.9,9,12.9,8.9,21.5c-0.2,8.9,0,17.9-0.1,26.8
		c0,4.7-2.3,7.5-5.9,7.5c-3.7,0-6-2.8-6-7.5c-0.1-8.8-0.2-17.6,0-26.4c0.2-5.6-1.6-10.1-5.8-13.8c-2.5-2.2-4.6-4.8-6.9-7.2
		c-0.4,0.1-0.7,0.2-1.1,0.3c0,1.2,0,2.4,0,3.6c0,14,0,28,0,42c0,1.3,0.1,2.7-0.2,4c-0.6,3.2-2.7,5-5.8,5c-3.1,0-5.3-1.9-5.8-5
		c-0.3-1.8-0.2-3.7-0.2-5.6c0-15.3,0-30.7,0-46c0-11.4,5-19.6,15.2-24.7c6.1-3,12.1-6.1,18.2-9.1c3.5-1.7,4.9-4.3,5.2-8.2
		c0.5-7.4-0.8-13.1-7.1-18.3c-6.8-5.6-10.4-13.9-11.4-22.7c-1.3-11.3-2-22.6,1.4-33.7c2.7-9,8-16.2,15.5-21.8c2-1.5,2.5-2.9,2.1-5.3
		c-1.7-10.6,2.1-19.2,10.9-25.2c8.3-5.7,19.7-5.6,27.8,0.1c8.8,6.2,12.4,14.8,10.7,25.4c-0.4,2.4,0.1,3.5,1.9,4.9
		c11.4,8.7,17.5,20.3,17.7,34.6c0.1,9.2,1,18.4-2.1,27.3c-2.8,8.2-7.3,15.1-14,20.5c-2.2,1.7-3.5,3.5-3,6.3c0.2,1,0.1,2.1,0,3.2
		c-1,7.1,1.3,12,8.5,14.7c4.2,1.6,5.3,5,3.7,8.3c-1.6,3.2-4.8,4.1-8.9,2.2C89.6,183.2,87.2,181.8,84.1,180.2z M31.4,115.2
		c-0.6,17.5,14.2,32.7,32.4,32.6c17-0.1,32.7-15,31.7-30.5c-16.3,3.3-30.8-0.6-43.4-11.4c-0.7-0.6-2.5-0.6-3.4-0.1
		C43.1,108.7,37.6,111.8,31.4,115.2z M95.8,104.8c1.9-18.2-12.6-33.9-31.5-34.7c-17-0.7-32.4,13.9-32.6,32.3c4.7-3.2,9-5.6,12.9-8.7
		c5.6-4.5,7.8-4.5,12.8,0.6C68,105.1,80.7,108.9,95.8,104.8z M76.7,158.9c-8.7,0-17.3,0-26.1,0c-0.1,2.7-0.4,6-0.4,9.3
		c0,0.9,0.1,2,0.6,2.5c4.2,4.4,8.4,8.7,12.7,13.1c1.2-1.2,1.9-1.8,2.6-2.4c3.4-3.4,6.8-6.7,10.1-10.2c0.7-0.7,1.2-1.8,1.2-2.7
		C77.3,165.1,76.9,161.7,76.7,158.9z M76.6,58.9c0.5-5.5-1.7-10.3-6.7-12.8c-5-2.6-9.8-2.2-14.3,1.2c-4,3.1-5.6,7.2-5.1,11.6
		C59.5,58.9,67.9,58.9,76.6,58.9z"/>
</g>
</svg>
