<?xml version="1.0" encoding="utf-8"?>
<!-- Generator: Adobe Illustrator 22.1.0, SVG Export Plug-In . SVG Version: 6.00 Build 0)  -->
<svg version="1.1" id="Слой_1" xmlns="http://www.w3.org/2000/svg" xmlns:xlink="http://www.w3.org/1999/xlink" x="0px" y="0px"
	 viewBox="0 0 384 347" style="enable-background:new 0 0 384 347;" xml:space="preserve">
<g>
	<path d="M384,343.7c-2.2,2.8-5.1,3.4-8.5,3.4C253.2,347,130.9,347,8.7,347c-6,0-8.8-1.8-8.7-5.7c0.1-3.8,2.7-5.5,8.6-5.5
		c7.5,0,15,0,22.9,0c0-1.6,0-3,0-4.3c0-18.7,0-37.5,0-56.2c0-9.9,5-15,15-15c12.2,0,24.5-0.1,36.7,0c9.6,0.1,14.7,5.2,14.7,14.9
		c0,18.5,0,37,0,55.5c0,1.5,0,3,0,4.8c6.1,0,12,0,18.3,0c0-8.8,0-17.5,0-26.3c0-1.5-0.1-3,0-4.5c0.2-3.8,2.4-6.1,5.7-6.1
		c3.4,0,5.5,2.3,5.5,6.2c0.1,9.2,0,18.5,0,27.7c0,0.9,0,1.7,0,2.9c14.7,0,29.1,0,44,0c0-1.2,0-2.4,0-3.7c0-32.1,0-64.2,0-96.4
		c0-5,0-5-5.1-5c-11.6,0-23.2,0.1-34.9-0.1c-3.1,0-4.2,1-4.1,4.1c0.1,15.1,0.1,30.2,0,45.4c0,1.9-0.5,4.2-1.6,5.4
		c-1.1,1.2-3.9,2-5.3,1.4c-1.7-0.7-3.3-2.8-4.1-4.7c-0.7-1.7-0.2-3.9-0.2-5.9c0-14,0-28,0-42c0-9.8,5.2-14.9,15.1-15
		c12.1,0,24.2,0,36.4,0c9.8,0,15.1,5.2,15.1,15c0,32.2,0,64.5,0,96.7c0,1.5,0,2.9,0,4.6c6.2,0,12,0,18.3,0c0-1.7,0-3.3,0-4.9
		c0-45.5,0-91,0-136.5c0-11.1,4.9-16.1,15.9-16.1c11.7,0,23.5,0,35.2,0c10.2,0,15.4,5.2,15.4,15.5c0,45.7,0,91.5,0,137.2
		c0,1.5,0,2.9,0,4.7c6.1,0,11.9,0,18.3,0c0-1.7,0-3.2,0-4.8c0-59.2,0-118.5,0-177.7c0-4.2,0.1-8.6,3.6-11.4c2.6-2.1,6-4.1,9.2-4.2
		c13.6-0.5,27.2-0.4,40.9-0.1c7.6,0.1,12.8,5.7,12.9,13.3c0.1,18.7,0.1,37.5,0,56.2c0,4.1-2.2,6.5-5.6,6.5c-3.5,0-5.6-2.4-5.6-6.5
		c0-17.9-0.1-35.7,0-53.6c0-3.5-0.8-4.9-4.6-4.8c-11.7,0.2-23.5,0.2-35.2,0c-3.3,0-4.3,1.1-4.3,4.4c0.1,59.9,0.1,119.7,0.1,179.6
		c0,1,0.1,1.9,0.2,3.2c14.5,0,28.8,0,43.7,0c0-1.4,0-2.9,0-4.3c0-32.6,0-65.2,0-97.9c0-1.1-0.1-2.3,0-3.4c0.3-3.2,2.3-5.1,5.4-5.2
		c3.1-0.1,5.2,1.7,5.7,4.8c0.2,1.2,0.1,2.5,0.1,3.7c0,32.5,0,65,0,97.5c0,1.5,0,3,0,5c7.9,0,15.4,0.1,23,0c3.4-0.1,6.4,0.6,8.5,3.5
		C384,340.7,384,342.2,384,343.7z M256.2,335.5c0.1-1,0.1-1.6,0.1-2.2c0-46.7,0-93.4,0-140.1c0-3-1.1-4-4-3.9
		c-11.6,0.1-23.2,0-34.8,0c-5.2,0-5.2,0.1-5.2,5.3c0,45.6,0,91.2,0,136.8c0,1.3,0,2.7,0,4.2C227.2,335.5,241.5,335.5,256.2,335.5z
		 M86.4,335.5c0.1-0.8,0.3-1.3,0.3-1.8c0-19.6,0-39.2,0.1-58.8c0-2.9-1.4-3.5-3.9-3.5c-11.9,0.1-23.7,0.2-35.6,0
		c-3.8-0.1-4.6,1.3-4.6,4.8c0.1,18.5,0.1,37,0.1,55.4c0,1.2,0,2.4,0,3.9C57.5,335.5,71.8,335.5,86.4,335.5z"/>
	<path d="M310.4,72.2c-2-20.3-4-39.8-6-59.6c-19.3,5-38.2,9.9-58,15.1c4.3,3,8,5.6,11.8,8.3c4.5,3.2,5.1,5.4,2.3,10.1
		c-8.2,13.9-18.7,25.9-30,37.3c-2.6,2.6-6.1,2.6-8.3,0.3c-2.3-2.3-2.1-5.4,0.4-8.4c8.2-9.7,16.4-19.5,24.6-29.2
		c0.6-0.8,1.1-1.7,1.8-2.8c-6-4.2-11.9-8.3-17.8-12.4c-2.3-1.6-4-3.4-3.5-6.4c0.5-3,2.6-4.2,5.4-4.9c24.2-6.2,48.3-12.5,72.5-18.8
		c6.7-1.7,9-0.2,9.7,6.7c2.6,25,5,50,7.6,74.9c0.3,2.8-0.3,5-2.8,6.4c-2.5,1.5-4.7,0.7-6.9-0.8c-5.9-4.2-11.8-8.3-17.8-12.4
		c-4.6,5.5-8.9,10.9-13.4,16c-42.4,47.8-95.8,76.7-157.3,91.7c-20.4,5-41.2,8-62.1,9.6c-7.4,0.6-13-3.3-14.4-9.7
		c-1.5-7,1.9-12.8,9.4-15.2c30.3-9.6,59.7-21.2,87.7-36.3c20.8-11.2,40.5-24.1,58.8-39.3c0.4-0.3,0.8-0.6,1.2-1
		c3.4-2.6,6.8-2.6,8.9,0.2c2.1,2.7,1.6,5.8-1.7,8.5c-5.5,4.5-11.1,9-16.8,13.2c-37,27.1-77.9,46.4-121.2,61.1
		c-4.1,1.4-8.3,2.6-12.4,4.1c-1,0.4-1.8,1.4-2.6,2.1c1,0.4,2.1,1.2,3.1,1c16.9-2.4,34-4,50.7-7.4c42.2-8.6,81.3-24.8,116.4-50.1
		c22.2-16,41.4-35,57.8-56.8c4.8-6.4,6.3-6.6,12.8-2.1C303.2,67.2,306.5,69.5,310.4,72.2z"/>
</g>
</svg>
