<?xml version="1.0" encoding="utf-8"?>
<!-- Generator: Adobe Illustrator 22.1.0, SVG Export Plug-In . SVG Version: 6.00 Build 0)  -->
<svg version="1.1" id="Слой_1" xmlns="http://www.w3.org/2000/svg" xmlns:xlink="http://www.w3.org/1999/xlink" x="0px" y="0px"
	 viewBox="0 0 384 237.1" style="enable-background:new 0 0 384 237.1;" xml:space="preserve">
<g>
	<path d="M384,111.8c-2.1,4.9-5.9,7.6-10.9,9.3c-8.3,3-16.5,6.3-24.7,9.7c-5,2.1-9.6,2.3-14.1-1.2c-0.6-0.5-2.2-0.5-2.9,0
		c-6.7,4.1-13.3,8.4-19.8,12.6c4.3,21.3-5.5,33-26.2,31.6c-4.2,15.5-10.1,20-26.9,20.6c-0.7,7.3-3.6,13.6-10,17.8
		c-6.2,4.1-13,4.7-20.3,2.6c-2.1,10.4-7.9,17.2-18.4,19.4c-10.7,2.3-18-4-25.9-10.1c-1.8,2-3.4,4-5.1,5.9
		c-5.7,6.1-12.6,8.4-20.7,6.3c-8.1-2.2-12.9-7.6-14.9-15.7c-0.3-1.1-1.6-2.5-2.5-2.6c-11.9-1.4-17.4-6.1-20.4-17.9
		c-0.1-0.4-0.3-0.7-0.4-1c-14.4-1.8-20.1-6.7-22.5-19.3c-19.7-3.2-27.1-14.9-19.7-31.7c-1.3-0.9-2.6-2-4-2.9
		c-7.3-4.6-14.5-9.3-21.9-13.7c-1.1-0.6-2.8-0.3-4.2-0.2c-3.3,0.1-6.9,1.3-9.7,0.3c-10.3-3.5-20.2-7.8-30.4-11.7
		c-3.8-1.5-5.7-4.6-7.4-7.9c0-2,0-4,0-6c2.2-5.3,4.5-10.5,6.6-15.8C17.2,63.2,27.8,36.4,38.3,9.6c3.6-9,9-11.5,18-8
		c9.1,3.5,18.1,7.1,27.2,10.7c5.6,2.2,8.6,6.1,8.6,12.3c0,0.9,0.9,2.2,1.7,2.6c7.1,3.5,14.5,5.2,22.6,5.4c15.7,0.3,31.5,0,46.8,5
		c0.9,0.3,2.3-0.2,3.2-0.9c1.4-1,2.6-2.4,3.8-3.6c7.6-7.9,16.9-10.7,27.6-8.9c6,1,12.1,1.9,18.1,2.9c4,0.7,6.3,3.1,6,6.3
		c-0.4,3.5-3.2,5.4-7.5,4.8c-6.8-1-13.6-2.1-20.4-3.1c-5.7-0.9-10.7,0.8-14.7,4.8c-16.3,16.2-33.4,31.2-52.6,43.9
		c-3.3,2.2-3.3,4.3-0.2,6.8c6.5,5.4,13.9,5.8,21.6,3.5c9.9-3,18-9,25.7-15.7c7.7-6.6,13.7-6.5,20.9,0.5c15.3,14.9,33.4,22,54.9,19.2
		c4.3-0.6,7.6,0.5,11,3.1c14.4,10.8,28.9,21.4,43.6,32.2c8-5.1,15.9-10.2,24.1-15.5c-10.7-27.1-21.3-53.9-32-81.1
		c-3.7,1.3-7.2,2.3-10.5,3.8c-11.4,5.2-23.1,6-35.1,3.3c-2.8-0.6-5.7-0.9-8.5-1.4c-3.8-0.7-5.7-3.1-5.3-6.4c0.4-3.3,2.9-5.2,6.8-4.7
		c5.2,0.6,10.4,1.4,15.5,2.4c6,1.1,11.7,0.3,17.3-1.7c5.1-1.9,10.3-3.8,15.3-5.7c0.1-8.8,1.9-11.5,10.1-14.8
		c8.9-3.6,17.9-7.1,26.8-10.6c7.4-2.9,13.3-0.3,16.3,7.1c4.7,11.7,9.3,23.4,13.9,35.1c1.6,4.1,0.6,7.1-2.6,8.5
		c-3.3,1.4-6.2-0.2-7.9-4.6c-4.7-11.9-9.5-23.9-14.4-36.3c-10.3,4.1-20.4,8-31,12.2c12.9,32.7,25.7,65.1,38.6,97.9
		c10.5-4.1,20.6-8.1,31-12.2c-4.4-11.2-8.7-22.1-13-33c-0.4-0.9-0.8-1.8-1.1-2.8c-0.9-3.1,0.4-6.1,3.2-7.1c2.8-1.1,5.8,0,7.2,3
		c1.4,2.9,2.4,6,3.7,9c3.7,9.2,7.5,18.4,11.3,27.6C384,107.8,384,109.8,384,111.8z M191,216c4,2.4,7.7,5.3,11.9,6.9
		c4.9,2,10.5-1,12.8-5.8c2.3-4.8,1.1-9.5-3.3-12.9c-3.1-2.4-6.2-4.6-9.1-7.2c-3.3-2.8-3-7.1,0.3-9.2c2.6-1.6,5-0.8,7.2,0.9
		c5.9,4.6,11.8,9.2,17.9,13.6c5.5,3.9,12.3,2.9,16-2.1c3.7-5,2.6-11.4-2.9-15.7c-4.6-3.6-9.3-7.1-13.9-10.8
		c-2.9-2.3-3.4-5.7-1.4-8.2c2-2.6,5.1-2.9,8.3-0.6c1.6,1.2,3.2,2.4,4.8,3.7c5.4,4.1,10.6,8.3,16.1,12.2c5.4,3.8,12.4,2.6,16-2.4
		c3.2-4.6,2.5-11.9-3-15.5c-5.7-3.8-11.1-8.1-16.3-12.6c-1.4-1.2-2.5-4-2.2-5.8c0.3-1.6,2.4-3.7,4.1-4.1c1.7-0.4,4.1,0.7,5.7,1.8
		c7.8,5.7,15.3,11.7,23,17.4c1.9,1.4,4.4,2.5,6.7,2.9c4.9,0.7,9.6-2.4,11.3-6.9c1.9-4.9,0.2-10.3-4.6-13.9
		c-13.9-10.3-27.9-20.7-42-30.8c-1.4-1-3.4-1.5-5.1-1.4c-24.3,2.2-45-5.8-62.3-22.6c-2.3-2.2-3.7-2.3-6.1-0.2
		c-8.5,7.6-17.8,14.1-28.9,17.6c-11.1,3.5-21.7,2.9-31.4-4.2c-10.7-7.9-10.2-19,0.5-26.7c10.7-7.7,21-16.1,31.4-24.3
		c0.8-0.6,1.4-1.5,2.4-2.5c-2.3-0.5-4-1-5.8-1.1c-11.8-0.8-23.7-1.7-35.5-2c-6.3-0.2-12.4-0.9-18.2-3.5c-2.6-1.1-5.2-2.2-8.1-3.3
		c-11,27.8-21.8,55.3-32.7,82.9c10.2,6.5,20.2,12.8,30.3,19.2c3.1-3.6,5.9-7.1,9-10.4c5.5-5.9,12.4-7.9,20.2-5.8
		c7.9,2.1,12.8,7.4,14.8,15.3c0.3,1.1,0.6,2.1,0.9,3.2c5.8-0.2,10.9,1.3,15.2,4.9c4.4,3.7,6.4,8.7,7.4,14.1
		c13.5,0.8,19,5.5,22.8,19.2C195.2,179,204.9,201,191,216z M49.8,11.1C36.8,44,24.1,76.4,11.2,109c10.5,4.1,20.7,8.1,31,12.2
		C55.2,88.4,68,56,80.9,23.4C70.3,19.2,60.2,15.2,49.8,11.1z M96.5,168.1c1-0.5,3.4-1,4.8-2.4c5.4-5.9,10.6-11.9,15.5-18.2
		c2.9-3.8,1.7-9.1-2-12.1c-3.5-2.8-8.8-2.9-11.9,0.5c-5.3,5.8-10.4,11.8-15.3,17.9c-2.3,2.9-2.1,6.4-0.4,9.5
		C88.9,166.5,91.7,168,96.5,168.1z M108.2,177.8c0.5,4,2.7,7.4,6.1,8.8c3.7,1.6,7.6,0.8,10.6-2.5c4.6-5.2,9.2-10.5,13.6-15.9
		c3.7-4.5,3.3-10-0.7-13.4c-4-3.4-9.5-2.9-13.3,1.4c-4.5,5.1-9,10.4-13.3,15.7C109.8,173.6,109.2,175.8,108.2,177.8z M186.9,200.7
		c-0.5-4.1-2.6-7.3-6.1-8.8c-3.7-1.6-7.7-0.8-10.5,2.5c-4.6,5.1-9,10.4-13.4,15.6c-3.9,4.6-3.6,10.2,0.5,13.7
		c4.1,3.5,9.6,2.9,13.6-1.7c4.4-5,8.7-10,12.8-15.1C185.1,205,185.8,202.7,186.9,200.7z M164.2,181.5c-0.5-4.1-2.6-7.4-6-8.9
		c-3.7-1.6-7.7-0.9-10.6,2.4c-4.6,5.2-9.2,10.5-13.6,15.9c-3.8,4.6-3.5,9.9,0.6,13.4c4,3.5,9.7,2.9,13.6-1.6c4.4-5,8.7-10,12.8-15.1
		C162.4,185.8,163.1,183.6,164.2,181.5z"/>
</g>
</svg>
