<?xml version="1.0" encoding="utf-8"?>
<!-- Generator: Adobe Illustrator 22.1.0, SVG Export Plug-In . SVG Version: 6.00 Build 0)  -->
<svg version="1.1" id="Слой_1" xmlns="http://www.w3.org/2000/svg" xmlns:xlink="http://www.w3.org/1999/xlink" x="0px" y="0px"
	 viewBox="0 0 409.7 407.8" style="enable-background:new 0 0 409.7 407.8;" xml:space="preserve">
<g>
	<path d="M409.7,377.4c-1.7,7.8-4.5,15-10.5,20.6c-7.4,7-16.2,9.8-26.3,9.8c-64.8,0-129.6,0-194.4,0c-47.3,0-94.7,0-142,0
		c-14.7,0-26.3-5.8-32.8-19.3c-2.3-4.9-3.5-10.7-3.6-16.2c-0.4-22.1-0.5-44.3,0-66.4c0.1-5.8,1.7-12,4.3-17.2
		c27.6-55.9,55.6-111.5,83.4-167.3c7-14,18.2-21,34-20.9c24.3,0.1,48.5,0,72.8,0.1c1.8,0,3.8,0.1,5.5,0.6c3.8,1.1,6.1,4.7,5.8,8.5
		c-0.3,3.9-3.1,7-7,7.6c-1.6,0.2-3.2,0.2-4.8,0.2c-23.7,0-47.5,0.2-71.2-0.1c-9.7-0.1-16.1,3.9-20.3,12.5
		C80,175.8,57.1,221.7,34.2,267.5c-0.5,1-0.9,2.1-1.5,3.5c114.9,0,229.4,0,344.5,0c-0.7-1.5-1.2-2.8-1.8-4
		c-9.2-18.3-18.3-36.7-27.5-55c-0.8-1.5-1.6-3.1-2-4.8c-1-3.8,0.9-7.8,4.2-9.5c3.6-1.9,7.8-1,10.4,2.3c1.1,1.5,2,3.1,2.8,4.8
		c13.3,26.5,26.6,53.1,39.8,79.7c2.6,5.2,4.4,10.8,6.6,16.2C409.7,326.2,409.7,351.8,409.7,377.4z M205.2,288.3
		c-56.2,0-112.5,0-168.7,0c-11.9,0-19.1,6.3-19.2,17.6c-0.3,22.4-0.2,44.8,0,67.2c0,7.4,3.5,13.2,10.5,16c3.1,1.2,6.8,1.5,10.2,1.5
		c98.2,0.1,196.5,0.1,294.7,0.1c13.7,0,27.5,0.1,41.2,0c12-0.1,18.9-7,18.9-18.9c0.1-21.6,0-43.2,0-64.8c0-5.1-1.3-9.8-4.9-13.5
		c-4.1-4.2-9.3-5.2-15-5.2C316.9,288.4,261.1,288.3,205.2,288.3z"/>
	<path d="M409.7,99.8c-1.6,6.7-2.9,13.5-4.8,20.1c-1.8,6.6-5.3,8.5-11.9,7.2c-5.3-1.1-8.5-0.1-10.5,3.3c-2,3.3-1.2,6.9,2.2,10.8
		c4.6,5.2,4.6,8.9,0,14c-13.2,14.5-29.4,24-48.5,28.4c-6.5,1.5-10.1-0.6-12.1-7c-1.6-5.2-4.4-7.8-8.4-7.7c-3.9,0.1-6.6,2.6-8.2,7.9
		c-1.9,6-5.4,8.3-11.5,6.9c-19.9-4.4-36.5-14.4-50-29.6c-3.5-3.9-3.2-8.2,0.4-12.2c0.8-0.9,1.7-1.7,2.4-2.7c2-2.9,2.3-6,0.3-9
		c-1.9-3-4.7-4.2-8.3-3.6c-0.9,0.2-1.8,0.3-2.7,0.5c-5.6,1.1-9.1-0.6-11-5.9c-6.8-19.4-6.8-38.9,0-58.4c1.8-5.3,5.5-7.2,11-6.1
		c1,0.2,2.1,0.5,3.1,0.7c3.7,0.4,6.6-1,8.3-4.3c1.6-3.2,1.1-6.2-1.2-8.9c-0.5-0.6-1.1-1.2-1.6-1.8c-4.1-4.7-4.1-8.7,0.1-13.4
		c13-14.2,28.8-23.8,47.7-28.3c7.8-1.9,11.1-0.1,13.4,7.7c0.9,3.2,2.7,5.5,5.9,6.5c4.3,1.3,8.7-1.1,9.8-5.8c1.8-8,6.8-10.2,15-8
		c18.3,4.9,33.7,14.3,46.5,28.2c4.3,4.6,4.2,8.7,0.1,13.4c-1.1,1.3-2.9,2.7-2.9,4.1c-0.1,2.7,0.2,5.8,1.5,8.1
		c1.8,3.1,5.3,3.1,8.6,2.4c7.8-1.7,10.8,0,13,7.7c1.7,6.2,3,12.6,4.5,18.9C409.7,89.1,409.7,94.4,409.7,99.8z M338.5,165.3
		c11.1-3.5,21-9.3,29.5-17.5c-4.7-8.8-5.2-17.5-0.2-26c5-8.6,13.2-11.8,22.5-12.6c2.6-10.3,2.7-20.3,1-30.4
		c-0.6-3.2-1.8-4.4-5.1-4.6c-10.8-0.9-19.2-9-21.4-19.6c-1.4-6.6,0.4-12.6,3.1-18.4c-8.7-8.1-18.3-14-29.4-17.3
		c-12,18.8-35.3,16.9-45.3,0.1c-10.1,2.6-22.5,10-29.1,17.3c0,0.3,0,0.6,0.1,0.8c9.8,17.9-3.7,37.4-20.7,37.8
		c-0.9,0-2.2,1.3-2.4,2.2c-2.6,10.7-2.4,21.3,0.4,31.8c0.3,0.2,0.4,0.3,0.6,0.3c21.7,1,30.8,22.3,22.7,36.9c-0.4,0.7,0,2.4,0.6,3
		c8.2,7.4,17.5,12.9,28,16.1C304.4,147.2,327.6,147.5,338.5,165.3z"/>
	<path d="M204.9,356.6c52.9,0,105.8,0,158.7,0c1.7,0,3.5,0,5.2,0.3c4.2,0.9,6.8,4.5,6.6,8.8c-0.3,4-3.2,7.1-7.4,7.7
		c-1.4,0.2-2.9,0.2-4.4,0.2c-105.8,0-211.6,0-317.5,0c-1.5,0-2.9,0-4.4-0.2c-4.2-0.5-7.1-3.7-7.3-7.7c-0.3-4.3,2.3-7.8,6.6-8.7
		c1.7-0.4,3.4-0.3,5.2-0.3C99.1,356.5,152,356.6,204.9,356.6z"/>
	<path d="M68.3,322.6c-0.1,9.4-7.8,17-17.1,16.9c-9.4-0.1-16.8-7.8-16.8-17.2c0.1-9.4,7.7-16.9,17.1-16.8
		C60.9,305.5,68.4,313.1,68.3,322.6z"/>
	<path d="M119.5,322.6c-0.1,9.4-7.8,17-17.2,16.8c-9.4-0.2-16.8-7.8-16.7-17.3c0.1-9.4,7.8-16.9,17.2-16.8
		C112.1,305.5,119.6,313.2,119.5,322.6z"/>
	<path d="M315.9,49.4c23.4,0,42.7,19.3,42.6,42.8c-0.1,23.2-19.2,42.4-42.5,42.6c-23.2,0.2-42.8-19.4-42.9-42.7
		C273.1,68.7,292.5,49.4,315.9,49.4z M316,117.5c14-0.1,25.4-11.5,25.5-25.4c0.1-13.9-11.8-25.8-25.7-25.7
		c-14.1,0.1-25.5,11.8-25.3,25.9C290.6,106.4,302,117.6,316,117.5z"/>
</g>
</svg>
