<?xml version="1.0" encoding="utf-8"?>
<!-- Generator: Adobe Illustrator 22.1.0, SVG Export Plug-In . SVG Version: 6.00 Build 0)  -->
<svg version="1.1" id="Слой_1" xmlns="http://www.w3.org/2000/svg" xmlns:xlink="http://www.w3.org/1999/xlink" x="0px" y="0px"
	 viewBox="0 0 371.5 371.2" style="enable-background:new 0 0 371.5 371.2;" xml:space="preserve">
<g>
	<path d="M29.5,291.3c-5.7-3.6-12.3-7-18-11.5c-10.7-8.4-14.1-20-9.4-31.7c1.7-4.2,4.9-8.1,8.1-11.4c1.9-2,2.8-3.6,2.8-6.3
		c-0.1-43.7,0-87.5-0.1-131.2c0-3.7,1-6.7,3.2-9.6C27.3,74.8,38.4,60,49.4,45.1c1.1-1.6,1.9-3.8,1.9-5.7c0.2-10.5,0.1-21,0.1-31.5
		C51.4,2.3,53.5,0,59,0c37.5,0,75,0,112.5,0c5.5,0,7.7,2.2,7.7,7.8c0.1,10.2-0.1,20.5,0.1,30.7c0.1,2.5,1,5.4,2.5,7.4
		c10.9,14.8,22.1,29.4,32.9,44.2c1.7,2.3,2.8,5.6,2.8,8.5c0.3,11.6,0.1,23.2,0.1,35.2c17.1,0.9,31.4,8.2,45.8,17.7
		c-0.3-3.6-0.1-7.3-1-10.7c-2.5-9.4-5.3-18.7-8.3-27.9c-3.9-11.7-6.9-23.5-4.8-36c1.3-7.7,3.8-14.9,7.4-22.1
		c3.9,1.9,7.5,3.8,10.8,5.4c-1.9,6.2-4,11.9-5.3,17.8c-2.4,10.7,0.7,20.7,4.1,30.8c3.7,11.1,7.1,22.3,10.6,33.7
		c0.3-0.1,1.5-0.6,2.7-1.2c15.3-7.4,31-10.4,47.4-3.7c14.4,5.8,24.5,16.6,30.9,30.2c18.8,39.7,18.9,78.8-5.7,116.5
		c-7.1,10.9-16.5,19.7-27.7,26.8c6.1,4.9,12.5,9.3,18.1,14.4c4.6,4.3,9.1,9,12.5,14.3c6.2,9.6,3.3,18.5-6.8,23.7
		c-8.7,4.5-18.3,5.7-27.9,6.5c-25.5,2.2-50.9,0.8-76.4-1.5c-28.1-2.6-56.1-6.1-83.6-12.8c-11.2-2.8-22.3-6.4-33-10.8
		c-15.7-6.4-28.7-15.9-31.9-34.4c-6,5.7-11.4,11.7-17.6,16.6c-7.6,6-15.6,11.7-24.1,16.2c-12.1,6.4-23.8,4-34.2-4.6
		c-11.3-9.3-13-23.2-3.9-34.6C19.8,299.2,25.1,295.3,29.5,291.3z M261.7,167c-2.4-1.7-4.3-3-6.2-4.4c-7.5-5.6-15.5-10.5-24.5-13.4
		c-16.7-5.4-31.7-2.5-43.2,11.1c-18.8,22.2-23.2,48.5-20.1,76.6c0.1,1,1.8,2.1,2.9,2.5c8.2,2.5,16.7,4.4,24.7,7.3
		c39.6,14.4,77.4,32.9,113.5,54.6c2.5,1.5,4.3,1.5,6.7,0.1c9.5-5.4,17.4-12.6,23.9-21.3c16.4-22.1,21.9-47,17.8-74
		c-2.5-16.1-7.6-31.3-18.2-44.1c-6.8-8.2-15-13.8-25.9-15c-13.4-1.5-24.9,3.6-35.9,10.4c-0.6,0.3-1.1,1.1-1.2,1.7
		c-1,5.5-1.9,10.9-2.8,16.4c0.2,0.2,0.5,0.5,0.7,0.7c1.9-2.1,3.8-4.2,5.8-6.4c3.4,2,6.9,4,10.6,6.2c-6.8,10.5-16.1,16.1-28.3,15.9
		c-11.7-0.2-20.6-5.7-27.1-15.9c3.8-2.2,7.3-4.2,11-6.3c3.2,4.5,6.9,7.8,12.6,8.9C259.5,174.7,260.6,170.8,261.7,167z M296.3,335.5
		c1.9-6.6,3.5-12.8,5.5-18.8c1-3,0.5-4.5-2.4-6.2c-26.5-15.7-53.9-29.3-82.2-41.5c-6.3-2.7-12.8-5.2-19.4-7.9
		c-5.4,18.4-10.6,36.3-15.8,54.5c-4.4-1.3-8.3-2.4-12.2-3.6c5.4-18.6,10.6-36.7,15.9-55.1c-13.3-4.2-26.4-7.8-40.2-8.2
		c-13.1-0.3-23,5.3-27.7,17.6c-3.8,9.9-7.2,20.3-9.1,30.7c-2.8,15.3,2.1,24.4,15.7,32c5.1,2.9,10.5,5.2,16,7.2
		c19.6,7.4,40.2,11,60.8,14.2c7.6,1.2,15.3,2.1,23.1,3.2c2.4-8,4.6-15.7,7-23.7c4.3,1.3,8.2,2.4,12.2,3.6
		c-2.1,7.3-4.1,14.2-6.1,21.2c0.6,0.2,0.9,0.4,1.3,0.4c24.6,2.6,49.3,4.1,74.1,2.6c9.3-0.6,18.5-2.5,27.6-4.7c6-1.5,6.5-3.9,2.6-8.8
		c-7.8-10-18.2-16.9-28.8-24.3c-2,6.6-3.8,12.7-5.7,19.1C304.4,337.8,300.6,336.7,296.3,335.5z M34.2,241.7
		c-0.1,0.2-0.1,0.4-0.2,0.6c-3.1,0.4-6.2,0.5-9.3,1.2c-11.5,2.6-15.6,15.1-7.7,23.8c2.8,3.1,6.3,5.8,10.1,7.6
		c7.1,3.4,14.4,6.1,21.8,8.8c3.5,1.3,6.8,2.5,6.9,6.7c0.1,4.3-2.9,5.8-6.5,7.1c-3.9,1.3-7.9,2.7-11.3,4.9c-4.4,2.8-8.7,5.9-12.1,9.8
		c-4.8,5.6-3.9,11.7,1.6,16.5c5.9,5,12.5,7.2,20.1,3.7c2.6-1.2,5.2-2.4,7.6-3.9c10.6-6.5,19.4-15.2,28.3-23.9
		c8.9-8.7,15.6-18.4,17.5-30.9c0.4-2.8,1.7-5.7,1.4-8.4c-1.8-17.1-5.3-33.8-12.3-49.6c-2.2-4.9-5.2-9.7-8.7-13.8
		c-4.5-5.3-15.3-6-21.2-2.4c-5,3-6.9,9.4-3.7,17.1c2.8,6.7,7,12.9,10.9,19c1.9,3,4,5.7,1.7,9.2c-2.3,3.6-5.7,3.2-9.3,2.3
		C51.3,245.1,42.7,243.5,34.2,241.7z M26,153.7c0,25.6,0,50.7,0,75.8c7.5,0.3,14.8,0.7,21.9,1c-1.5-3.9-3.3-7.8-4.4-11.8
		c-4.6-16.7,3.4-31,19.2-33.6c12.9-2.1,24,1.3,31.9,12.5c6.8,9.5,10.7,20.3,13.7,31.4c1.8,6.6,3.2,13.4,4.7,19.7
		c3.9-2.8,7.6-5.8,11.7-8.1c2.4-1.4,3.3-2.6,3.3-5.4c-0.1-25.9-0.1-51.7-0.1-77.6c0-1.2,0-2.4,0-3.9C93.9,153.7,60.1,153.7,26,153.7
		z M141,236.1c4.6,0,8.8,0,13.1,0c0-1.5,0.1-2.9,0-4.4c-1.3-19.4,1.6-38.1,9.1-56c6.3-15.2,15.5-28.3,30.5-36.1
		c3.5-1.8,7.3-3.1,10.9-4.6c0-10.8,0-21.6,0-32.3c-21.4,0-42.4,0-63.6,0C141,147.1,141,191.3,141,236.1z M26,102.5
		c0,12.9,0,25.4,0,38c34.1,0,67.9,0,101.7,0c0-12.8,0-25.3,0-38C93.8,102.5,60.1,102.5,26,102.5z M32.1,89.6c33.1,0,65.2,0,97.3-0.1
		c1.2,0,2.7-1.1,3.5-2.2c8.6-11.2,17-22.5,25.5-33.8c0.4-0.5,0.7-1.2,1.1-2c-0.8-0.1-1.3-0.2-1.8-0.2c-31.5,0-63,0-94.5,0.1
		c-1.3,0-3.1,1-3.9,2.1c-6.5,8.4-12.8,16.9-19.2,25.4C37.6,82.2,35.1,85.5,32.1,89.6z M64.4,13c0,8.4,0,16.8,0,25.2
		c34.1,0,67.8,0,101.7,0c0-8.5,0-16.8,0-25.2C132.1,13,98.4,13,64.4,13z M198.4,89.4c-8.7-11.6-17-22.7-25.5-33.9
		C164.3,66.9,156,78,147.4,89.4C164.6,89.4,181.1,89.4,198.4,89.4z"/>
	<path d="M297.4,115.2c-11.3-0.4-20.1-5.2-26.6-14.4c-2.3-3.3-2.2-6.3,0-9.7c12.4-18.9,40.8-19,53.3-0.1c2.3,3.5,2.4,6.6,0,10
		C317.5,110.2,308.6,114.9,297.4,115.2z M311.5,96c-7.8-8.5-20.4-8.5-28-0.1C290.5,104.4,303.5,104.6,311.5,96z"/>
</g>
</svg>
