<?xml version="1.0" encoding="utf-8"?>
<!-- Generator: Adobe Illustrator 22.1.0, SVG Export Plug-In . SVG Version: 6.00 Build 0)  -->
<svg version="1.1" id="Слой_1" xmlns="http://www.w3.org/2000/svg" xmlns:xlink="http://www.w3.org/1999/xlink" x="0px" y="0px"
	 viewBox="0 0 409.5 348.6" style="enable-background:new 0 0 409.5 348.6;" xml:space="preserve">
<g>
	<path d="M409.5,132.8c-0.7,3.1-1.3,6.2-2,9.2c-5.3,22.8-17.2,42.3-31.2,60.6c-23,30.2-50.8,55.7-79.7,80
		c-27.3,22.9-56,43.9-85.6,63.6c-4,2.6-7.6,3.3-11.8,0.5c-50.6-33.7-98.6-70.6-140.8-114.6c-18.5-19.3-35-40.2-47.2-64.2
		C-2.3,141.5-3,114.3,5.9,86.6c9.7-30.4,28.4-54.1,56-70.2C85.5,2.5,111.2-2.5,138.4,1.2c24.2,3.3,45.3,13.3,63.5,29.5
		c0.8,0.7,1.6,1.4,2.6,2.2c4.3-3.4,8.4-6.9,12.8-10.1c25.1-18.1,53.2-25.7,83.8-21.9c38.7,4.7,68.4,24.4,89.3,57.3
		c10.8,16.9,16.7,35.6,18.5,55.5c0.1,1,0.4,2,0.6,3.1C409.5,122.1,409.5,127.5,409.5,132.8z M115.8,15.9c-5.4,1.1-16.2,2.2-26.1,5.5
		c-31,10.3-52.7,31.1-65.2,61.1c-11.7,28.2-11.8,56,3.6,83.4c11.8,21,26.8,39.4,43.4,56.6c39.4,40.9,84.1,75.3,130.9,107.2
		c1.9,1.3,3.1,1.1,4.9-0.1c46.7-31.8,91.4-66.1,130.6-106.9c15.5-16.1,29.9-33,41-52.5c8.1-14.2,14.8-29.1,14.6-45.9
		c-0.2-23.8-7.3-45.5-21.4-64.9C336.6,10.9,269.5,1.7,222.5,39.1c-3.8,3.1-7.3,6.6-10.9,9.9c-5,4.7-8.8,4.7-13.9-0.1
		c-1.4-1.3-2.6-2.6-4-3.9C173.3,25.7,149,16.3,115.8,15.9z"/>
	<path d="M367.1,118.8c-0.4,7.6-2.8,11.3-8.1,11.6c-5.4,0.3-8.3-3.5-8.6-11.1c-1.1-25.6-17.4-48.1-41.4-57
		c-6.3-2.3-8.8-6.6-6.7-11.4c1.9-4.3,5.9-5.8,11.1-4c25.3,9,41.6,26.6,49.6,52C365,105.4,365.7,112.2,367.1,118.8z"/>
	<path d="M278.7,60.1c-4.4-0.1-7.7-3.6-7.6-8c0-4.5,3.8-8,8.2-7.9c4.3,0.2,7.8,3.7,7.7,8C287,56.6,283.2,60.2,278.7,60.1z"/>
</g>
</svg>
