<?xml version="1.0" encoding="utf-8"?>
<!-- Generator: Adobe Illustrator 22.1.0, SVG Export Plug-In . SVG Version: 6.00 Build 0)  -->
<svg version="1.1" id="Слой_1" xmlns="http://www.w3.org/2000/svg" xmlns:xlink="http://www.w3.org/1999/xlink" x="0px" y="0px"
	 viewBox="0 0 384 252" style="enable-background:new 0 0 384 252;" xml:space="preserve">
<g>
	<path d="M384,232.5c-0.3,0.8-0.7,1.6-0.9,2.4c-3.1,9.9-11.5,16.5-21.9,17c-1.1,0.1-2.2,0-3.4,0c-80.2,0-160.5,0-240.7,0
		c-1.4,0-2.8,0.1-4.1-0.2c-3-0.8-4.7-2.8-4.4-6c0.3-3,2.1-4.7,5.1-5c1.4-0.1,2.7-0.1,4.1-0.1c79.6,0,159.2,0,238.9,0
		c1.1,0,2.3,0,3.4,0c7.4-0.2,12.8-5.6,12.7-12.5c-0.1-6.8-5.5-12-12.7-12.1c-9.6-0.1-19.2,0-28.9,0c-14.7,0-29.5,0-44.2,0
		c-4.5,0-7-2-7.1-5.4c-0.1-3.6,2.5-5.8,7.1-5.8c19.5,0,39,0,58.5,0c1.4,0,2.7,0,4.8,0c-4.5-51-18.4-97.5-56.6-135.1
		c-1.7,12.1-3.2,23.2-4.7,34.3c-1.8,13.6-3.6,27.2-5.4,40.8c-1.3,9.5-9.4,15.6-18.7,14.1c-8.6-1.3-14.3-9.7-13-18.9
		c4-29.2,7.8-58.4,11.8-87.6c0.3-2.1-0.1-3.2-2.1-4c-7.9-3-15.8-6.1-24.3-9.4c-0.5,5.1-1,9.4-1.4,13.7c-2.3,26.8-4.7,53.5-6.9,80.3
		c-1.6,19.2-17.5,34-36.8,34c-19.3,0-35.1-14.8-36.7-34.1c-2.5-29.6-5.1-59.2-7.7-88.9c-0.1-1.4-0.4-2.7-0.7-4.9
		c-9.1,3.4-17.9,6.7-26.7,10c1.2,8.6,2.2,16.5,3.3,24.4c0.1,0.7,0.3,1.5,0.3,2.2c0.2,3.5-1.7,6.1-4.8,6.5c-3.2,0.5-5.9-1.7-6.4-5.4
		c-1.5-10.6-2.9-21.3-4.4-31.9c-0.6-4.2-2.4-6-5.4-5.7c-3.1,0.3-4.4,2.7-3.8,7.2c4.3,31.9,8.6,63.9,12.9,95.8c0.5,4,2.6,5.9,5.7,5.3
		c2.9-0.5,4.2-2.9,3.7-6.7c-1.8-13.2-3.6-26.5-5.4-39.7c-0.6-4.2,1.3-7.1,4.7-7.6c3.4-0.5,5.8,1.8,6.4,6.2
		c1.9,13.7,3.8,27.5,5.6,41.2c1.1,8.2-4.8,16.2-12.8,17.7c-8.3,1.6-16.7-3.3-18.4-11.5c-1.8-8.5-2.6-17.3-3.8-25.9
		c-2.3-16.7-4.5-33.4-6.8-50.1c0-0.2-0.2-0.4-0.7-1.1c-37.7,37-51.6,83.5-56.1,134.6c2,0,3.6,0,5.2,0c73.4,0,146.7,0,220.1,0
		c1.5,0,3-0.1,4.5,0.1c3.1,0.6,4.9,2.6,4.8,5.8c-0.2,3.1-2.1,5-5.3,5.3c-1.4,0.1-2.7,0.1-4.1,0.1c-77.2,0-154.5,0-231.7,0
		c-1.2,0-2.5,0-3.7,0c-7,0.3-12.2,5.5-12.2,12.2c-0.1,6.6,5.1,12.1,12,12.4c3.9,0.2,7.7,0,11.6,0c18.5,0,37,0,55.5,0
		c4.9,0,7.7,3.3,6.3,7.3c-1,3.1-3.5,3.9-6.5,3.9c-9.4,0-18.7,0-28.1,0c-12.9,0-25.8,0.1-38.6-0.1c-10.9-0.2-20-7.4-22.6-17.5
		c-2.6-10.1,1.4-20.7,10.4-25.9c3.4-2,7.3-2.9,11.3-4.4c1-8.1,1.7-16.6,3.1-25.1c6.1-37.3,18.4-72.1,42.7-101.7
		c5.4-6.5,11.6-12.4,17.8-18.2c2.1-2,2.7-3.8,2.3-6.5c-0.5-3.3-1.2-6.7-0.9-10c0.5-6.8,5.5-12.4,11.8-14c6.7-1.6,13.4,0.9,17.4,6.7
		c0.6,0.8,1,1.7,1.5,2.4c9.3-3.3,18.5-6.5,28-9.8c-0.2-2.9-0.5-6.1-0.6-9.3c-0.5-10.5,6.7-18.4,17.2-18.5c19.6-0.1,39.2-0.1,58.9,0
		C231.8,0.2,239,8,238.6,18.3c-0.1,3.2-0.4,6.4-0.7,9.6c9.4,3.3,18.6,6.5,28,9.8c3.6-6.6,9.1-10.3,17-9.3c8.4,1,15.3,9,13.5,17.2
		c-1.9,8.3,1,13.1,7,18.7c22.5,20.9,36.5,47.3,45.8,76.2c6.3,19.4,10.2,39.4,11.6,59.8c0.1,1.4,0.3,2.7,0.5,4.3
		c1,0.2,1.9,0.5,2.8,0.7c10,2,16.4,7.9,19.1,17.8c0.1,0.5,0.4,0.9,0.7,1.3C384,227,384,229.7,384,232.5z M227.2,20.1
		c0.4-6.9-1.4-8.8-7.8-8.8c-17.4,0-34.7,0-52.1,0c-10.3,0-11.3,1.2-10.4,11.6c3.2,36.1,6.4,72.2,9.5,108.3
		c1.2,14.3,12,24.7,25.7,24.6c13.7-0.1,24.3-10.5,25.5-24.5c1-12.7,2.2-25.4,3.3-38.1C223,68.7,225.1,44.2,227.2,20.1z M262.6,143.3
		c-0.1,2,1.6,4.3,4.3,4.6c3,0.3,4.8-1.5,5.3-5.4c4.3-32,8.6-64.1,12.9-96.1c0.6-4.1-0.8-6.5-3.8-6.9c-3.1-0.4-4.9,1.5-5.5,5.6
		c-2.2,15.7-4.3,31.4-6.4,47.1C267.2,108.9,265,125.6,262.6,143.3z"/>
</g>
</svg>
