<?xml version="1.0" encoding="utf-8"?>
<!-- Generator: Adobe Illustrator 22.1.0, SVG Export Plug-In . SVG Version: 6.00 Build 0)  -->
<svg version="1.1" id="Слой_1" xmlns="http://www.w3.org/2000/svg" xmlns:xlink="http://www.w3.org/1999/xlink" x="0px" y="0px"
	 viewBox="0 0 384 372.4" style="enable-background:new 0 0 384 372.4;" xml:space="preserve">
<g>
	<path d="M0,334.7c2.7-6.5,7.6-9.1,14.6-8.5c2.7,0.3,5.5,0,8.7,0c0-1.9,0-3.4,0-5c0-63.5,0-127,0-190.5c0-12.7,6.9-22.1,18.4-25
		c2.6-0.7,5.4-0.8,8.2-0.8c12.9-0.1,25.7,0,38.6,0c1.4,0,2.7,0,4,0c0.3-0.6,0.6-0.9,0.6-1.2C92.1,95,96.4,90,104.1,87.1
		c3-1.2,5.8-2.9,8.7-4.4c-0.1-0.4-0.3-0.8-0.4-1.2c-0.9-0.1-1.8-0.3-2.7-0.3c-12.7,0-25.5,0-38.2-0.1c-2.2,0-3.2,0.7-4.2,2.6
		c-3.8,7.1-11.8,10.5-19.4,8.5C40.3,90.3,35,83.3,35,75.3c0.1-7.8,5.4-14.7,12.8-16.5c7.7-1.9,15.6,1.3,19.4,8.5
		c1.1,2.1,2.3,2.7,4.6,2.7c14.2-0.1,28.5,0,43.3,0c-3.3-9.1-7.9-18.1,3.2-25.1c-7.3-7.3-14.1-14.2-21.1-21c-0.7-0.7-2-0.9-3.1-1
		c-1.9-0.1-3.8,0.1-5.6-0.1c-4.8-0.4-8.6,0-11.6,5.2c-3.7,6.4-12.4,8-19.4,5.3c-7-2.7-11.5-9.8-11-17.1c0.5-7.5,5.7-13.7,13-15.6
		c7.1-1.9,15.1,1.1,18.7,7.7c1.6,2.8,3.3,3.4,6.1,3.4c18.8-0.1,15.6-0.9,28.3,11.7c4.3,4.3,8.6,8.7,12.7,12.9
		c0.7-0.2,1.1-0.2,1.2-0.3c5.3-6.6,11.8-7.9,19.3-4.2c0.9,0.4,2,0.5,2.8,1c5.7,3.5,10.4-0.3,15.4-2.1c0.8-0.3,1.2-1.5,1.7-2.4
		c1.7-3.2,3.3-6.4,4.9-9.7c2.2-4.5,5.8-6.8,10.7-6.9c7-0.1,14-0.1,21,0c4.9,0.1,8.6,2.3,10.7,6.9c0.7,1.5,1.7,2.8,2.1,4.4
		c1.9,6.5,6.8,9.4,12.7,11.2c1,0.3,2.2,0.2,3.2,0c3-0.9,6-1.8,8.9-3c6.2-2.5,11.5-1.5,15.9,3.6c0.5,0.6,1.1,1,2.8,2.7
		c1.9-2.4,3.5-4.9,5.5-7c4.6-4.8,9.4-9.3,14-14.1c3.1-3.2,6.7-4.6,11.1-4.6c3.9,0,7.8-0.1,11.6,0c2,0.1,3-0.6,4-2.4
		c4.1-7.5,12.2-10.8,20.1-8.4c7.7,2.4,12.9,9.8,12.3,17.6c-0.6,8.2-6.6,14.6-14.9,16c-6.8,1.1-14-2.4-17.5-9c-1-2-2.3-2.3-4.3-2.6
		c-9.4-1.5-16.5,1.7-22.4,9.1c-3.6,4.6-8.2,8.3-12.8,12.8c11.2,7.1,6.7,16.1,3.3,25.2c6.8,0,13.1,0,19.3,0c6.6,0,13.3-0.1,19.9,0
		c4.3,0.1,7.6-0.1,10.3-4.8c3.8-6.6,12.5-8.5,19.6-5.8c7.2,2.7,11.5,9.6,11,17.4c-0.5,7.3-5.7,13.6-12.8,15.4
		c-7.4,1.9-15.4-1.2-19-7.9c-1.4-2.7-3.1-3.3-5.8-3.2c-12,0.1-24,0.1-36,0.1c-1.2,0-2.4,0-3.6,0c-0.1,0.3-0.3,0.6-0.4,0.9
		c0.9,0.8,1.8,1.7,2.8,2.3c2.7,1.5,5.5,3,8.4,4.2c5.9,2.5,8.6,6.9,8.3,13.2c0,0.9,0.1,1.7,0.2,3.1c1.4,0,2.7,0,4.1,0c13,0,26,0,39,0
		c16.6,0.1,26.6,10,26.6,26.6c0,63.2,0,126.5,0,189.7c0,1.5,0,3,0,5c3.1,0,5.9,0.2,8.7,0c7-0.7,11.8,2,14.6,8.5c0,5.8,0,11.5,0,17.3
		c-1.4,3.3-2.5,6.9-4.4,9.8c-5.3,7.9-13.2,10.6-22.6,10.6c-110-0.1-219.9-0.1-329.9-0.1c-1.2,0-2.5,0-3.7-0.1
		c-8.8-0.5-15.5-4.6-19.9-12.1c-1.5-2.5-2.3-5.5-3.4-8.3C0,346.2,0,340.4,0,334.7z M11.3,337.5c0,4.3-0.2,8.2,0.1,12
		c0.4,5.4,4.8,10.2,10.1,11.2c1.8,0.4,3.7,0.3,5.6,0.3c110,0,220,0,330,0c1.1,0,2.3,0,3.4-0.1c6.1-0.4,11.3-4.8,12.1-10.9
		c0.5-4,0.1-8.2,0.1-12.4c-1.3-0.1-2.4-0.2-3.5-0.2c-41.7,0-83.5,0-125.2,0.1c-1.7,0-4,0.9-5.1,2.2c-6.2,6.7-13.6,9.5-22.7,9.3
		c-16.1-0.3-32.2-0.3-48.4,0c-8.8,0.1-16-2.7-22.1-9.1c-1.3-1.4-3.8-2.4-5.8-2.4c-17.6-0.2-35.2-0.1-52.9-0.1c-1.5,0-3,0-4.5-0.4
		c-2.8-0.7-4.2-2.8-4.1-5.5c0.2-2.9,1.8-4.9,4.9-5.2c1.1-0.1,2.2-0.1,3.4-0.1c17.5,0,35,0.3,52.5-0.1c6.3-0.1,11.1,1.3,15,6.3
		c3.2,4.2,7.7,5.5,12.9,5.4c15.6-0.2,31.3-0.4,46.9,0.1c7.7,0.2,13.7-1.7,18.4-7.8c2.4-3.2,5.6-4,9.5-3.9
		c34.4,0.1,68.7,0.1,103.1,0.1c1.4,0,2.9,0,4.6,0c0-1.7,0-2.8,0-3.9c0-63.7,0-127.5,0-191.2c0-9.9-5.1-15-15.1-15c-95,0-190,0-285,0
		c-9.9,0-14.9,5.1-14.9,15.1c0,63.6,0,127.2,0,190.9c0,1.3,0.1,2.6,0.2,4c1.3,0.1,2.2,0.1,3,0.1c6.6,0,13.2,0,19.9,0.1
		c3.2,0,5.1,1.8,5.5,5c0.3,3.1-1.6,5.5-4.8,6c-1.3,0.2-2.7,0.2-4.1,0.2C40,337.5,25.9,337.5,11.3,337.5z M104.8,104.4
		c0.3,0.1,0.7,0.3,1,0.3c14.6,0,29.2,0.1,43.9-0.1c0.9,0,2.1-1.6,2.6-2.7c2.7-5.5,5.2-11.2,8.1-16.7c0.6-1.2,2.5-2.6,3.8-2.5
		c1.9,0.1,4.2,0.9,5.5,2.2c2,2,1.4,4.6-0.3,6.8c-2.9,3.8-5.2,7.8-5.9,12.7c19.2,0,38,0,57.1,0c-0.2-1-0.2-1.7-0.4-2.4
		c-3.7-12.9-15.2-21.1-29.4-21c-4.8,0-7.3-1.9-7.3-5.5c0-3.6,2.6-5.6,7.3-5.7c19.7-0.5,36.5,12.5,40.9,31.8c0.6,2.5,1.5,3.2,3.9,3.2
		c13.6-0.1,27.2,0,40.9-0.1c1,0,2-0.1,2.9-0.2c1.3-3.5,0.2-5.5-3.1-6.8c-3-1.2-6-2.5-8.7-4.4c-2.2-1.6-4.8-3.7-5.7-6.1
		c-6-15.4-7.3-10-1.5-26.9c0.2-0.6,0.6-1.2,0.6-1.8c-0.2-1.4-0.2-3.2-1-4.2c-3.1-3.4-6.7-6.4-9.7-9.9c-2.5-3-5.1-3.9-8.7-2.1
		c-7.9,4-15.5,4-23.5-0.2c-4.4-2.3-8.5-4.5-10-9.4c-2.5-8.3-7.6-10.5-16.2-10.4c-8,0.1-12.2,2.1-15.3,9.6
		c-4.4,10.6-18.1,16.3-28.7,12c-7.2-2.9-11.6-1.8-17.3,3.7c-6.3,6.2-8.6,11.4-4.5,19.5c1.3,2.6,1.6,6.5,0.8,9.3
		c-2.6,9.4-6.8,17.8-17.4,20.6c-0.5,0.1-0.9,0.5-1.3,0.7C104.7,98.9,103.4,101,104.8,104.4z M69.8,17.1c-0.1-3.3-2.7-5.8-6-5.7
		c-3.3,0-5.9,2.7-5.9,5.9c0,3.3,3,6.2,6.3,6C67.4,23.1,69.9,20.4,69.8,17.1z M326.1,17.7c0.2-3.2-2.3-6.1-5.5-6.3
		c-3.4-0.2-6.1,2.1-6.4,5.3c-0.3,3.4,2.2,6.4,5.6,6.6C322.9,23.5,325.9,20.8,326.1,17.7z M58.2,75.4c-0.1-3.3-2.9-5.9-6.2-5.8
		c-3.3,0.1-5.8,2.8-5.8,6.1c0.1,3.4,2.7,5.9,6.1,5.8C55.7,81.3,58.3,78.6,58.2,75.4z M331.9,81.4c3.3-0.1,5.8-2.7,5.8-6.1
		c-0.1-3.4-2.7-5.9-6.1-5.8c-3.3,0.1-5.9,2.9-5.8,6.1C325.9,78.9,328.6,81.5,331.9,81.4z"/>
	<path d="M192.4,128.2c45.4,0,90.7,0,136.1,0c7.6,0,9,1.3,9,8.9c0,56.1,0,112.2,0,168.3c0,7.2-1.5,8.8-8.8,8.8
		c-91.1,0-182.2,0-273.3,0c-7.2,0-8.8-1.5-8.8-8.8c0-56.1,0-112.2,0-168.3c0-7.5,1.3-8.8,9-8.8C101.2,128.2,146.8,128.2,192.4,128.2
		z M326.1,139.6c-89.5,0-178.7,0-268,0c0,54.5,0,108.7,0,163c89.5,0,178.6,0,268,0C326.1,248.3,326.1,194.2,326.1,139.6z"/>
	<path d="M203.9,186c-4.4,0-8.3,0.1-12.1,0c-8.9-0.4-15.9-6.7-16.9-15.1c-1.1-8.4,4.2-16.3,12.3-18.7c1.2-0.3,2.4-0.6,3.7-0.6
		c20.1,0,40.2-0.2,60.4,0c8.8,0.1,15.6,7.1,16.3,16.1c0.7,8.3-5.4,16.3-13.9,17.8c-3.7,0.6-7.5,0.4-11.2,0.5c-1.1,0-2.2,0-3.9,0
		c0,2.7,0.1,5.3,0,7.9c-0.1,4.1-2.3,6.5-5.7,6.5c-3.4,0-5.5-2.5-5.5-6.6c0-4.1,0-8.2,0-12.4c0.1-4.7,1.9-6.6,6.6-6.7
		c5-0.1,10,0,15,0c4.6,0,7.5-2.4,7.5-6.1c0-3.7-2.7-6-7.5-6c-18.5,0-37,0-55.5,0c-4.5,0-7.2,2.2-7.3,5.8c-0.1,3.7,2.7,6.2,7.3,6.2
		c4.7,0.1,9.5,0,14.2,0c5.8,0,7.6,1.8,7.6,7.6c0,29.2,0,58.5,0,87.7c0,1.2-0.1,2.5,0.1,3.7c0.3,3.3,2.3,5.3,5.6,5.5
		c3.3,0.2,5.4-1.6,6.2-4.8c0.3-1.2,0.2-2.5,0.2-3.7c0-16.2,0-32.5,0-48.7c0-5.3,4.5-8.4,8.3-5.7c1.5,1.1,2.8,3.4,2.8,5.2
		c0.2,17.5,0.3,35,0,52.5c-0.1,9.5-8,16.7-17.3,16.6c-9.5-0.1-17-7.5-17.1-17.2c-0.1-27.5,0-55,0-82.5
		C203.9,189.6,203.9,188.1,203.9,186z"/>
	<path d="M162.7,221.3c0,17.4,0.1,34.7,0,52.1c0,8-5.1,14.6-12.5,16.8c-7.2,2.1-15.1-0.6-19-7.1c-1.6-2.7-2.9-6-2.9-9.1
		c-0.2-35.2-0.2-70.4-0.1-105.7c0-9.5,7.6-16.8,17-16.8c9.7-0.1,17.3,7.3,17.4,17.3C162.8,186.3,162.7,203.8,162.7,221.3z
		 M139.4,221.1c0,16,0,32,0,47.9c0,1.6-0.1,3.3,0.1,4.9c0.3,3.3,2.2,5.2,5.5,5.6c3.2,0.3,5.8-1.9,6.4-5.1c0.2-1,0.1-2,0.1-3
		c0-33.5,0-66.9,0-100.4c0-1.6-0.1-3.3-0.7-4.7c-1-2.6-3.3-3.7-6-3.4c-2.8,0.3-4.5,2-5.1,4.7c-0.3,1.2-0.1,2.5-0.1,3.7
		C139.4,187.9,139.4,204.5,139.4,221.1z"/>
</g>
</svg>
