<?xml version="1.0" encoding="utf-8"?>
<!-- Generator: Adobe Illustrator 22.1.0, SVG Export Plug-In . SVG Version: 6.00 Build 0)  -->
<svg version="1.1" id="Слой_1" xmlns="http://www.w3.org/2000/svg" xmlns:xlink="http://www.w3.org/1999/xlink" x="0px" y="0px"
	 viewBox="0 0 335.7 335.8" style="enable-background:new 0 0 335.7 335.8;" xml:space="preserve">
<g>
	<path d="M279.7,322.9c-4.9-4.8-9.7-9.6-14.6-14.5c-6-6.1-5.6-14.2,1.2-19.5c27.3-21.4,44.5-49.4,52.5-82.9
		c10.5-44.1,4.6-85.8-20.3-124.2c-2.9-4.5-6.4-8.6-9.7-12.9c-2.8-3.7-2.8-6.8,0.2-9.2c2.9-2.4,6.1-2,9.1,1.5
		c19.2,22.7,31,48.9,35.4,78.1c7.5,50.1-4.1,95.5-35.7,135.3c-7.2,9-15.9,16.9-23.6,24.9c4.1,4.3,8.6,9.3,13.3,14.1
		c4.9,5,6.1,9.2,3.9,14.4c-2.4,5.7-7,7.6-12.9,7.6c-29.7-0.1-59.5,0-89.2,0c-0.6,0-1.3,0-1.9,0c-3.9-0.2-6.4-2.5-6.4-5.9
		c-0.1-3.6,2.4-6,6.6-6c9.6-0.1,19.2,0,28.9,0c19.6,0,39.2,0,58.9,0c1.3,0,2.7,0,4,0C279.4,323.5,279.6,323.2,279.7,322.9z"/>
	<path d="M161.9,0c43.3,0.7,79,12.4,110.6,36.6c1.1,0.8,2.3,1.6,3.1,2.7c2.2,2.5,2.3,5.3,0.2,7.8c-2,2.4-4.6,2.9-7.4,1.4
		c-1.7-1-3.2-2.4-4.8-3.5C209.2,7.2,151.5-0.7,92.6,31.4C46.9,56.2,19.7,96,13,148.5c-0.8,5.8-0.7,11.7-1,17.6
		c-0.2,5.1-2.2,7.8-6.1,7.7C2,173.6,0,171,0,165.8c0.4-45.6,17.3-84.3,49.1-116.6c24.8-25.2,54.5-41,89.3-46.8
		C147.4,0.9,156.5,0.5,161.9,0z"/>
	<path d="M167.9,257.8c-5.9,0-11.7,0.1-17.6,0c-8.9-0.1-15.6-5.3-17.6-13.5c-2.1-8.7,1.3-16.1,9-20.6c1.1-0.6,2.1-2.4,2.1-3.6
		c0.2-10.9,0-21.7,0.2-32.6c0-2.1-0.8-3-2.5-3.9c-7.6-4.1-10.9-11.7-8.8-20.3c1.9-8,8.7-13.4,17.2-13.5c12-0.1,24-0.1,36,0
		c8.6,0.1,15.3,5.3,17.3,13.3c2.2,8.6-1.2,16.3-8.8,20.7c-1.1,0.6-2.3,2.3-2.3,3.5c-0.2,11-0.2,22,0,33c0,1.2,1.2,2.9,2.3,3.5
		c7.5,4.4,11.1,12.3,9.1,20.3c-2.1,8.2-8.9,13.5-17.5,13.6C179.9,257.9,173.9,257.8,167.9,257.8z M168,245.8
		C168,245.8,168,245.8,168,245.8c5.9,0,11.7,0.1,17.6,0c3.8-0.1,6.1-2.3,6.3-5.6c0.2-3.3-1.9-5.7-5.6-6.3c-4.7-0.8-6.3-2.5-6.3-7.2
		c0-15.2,0-30.5,0-45.7c0-4.5,1.7-6.4,6-7.1c4-0.7,6.1-3,5.9-6.4c-0.2-3.5-2.6-5.6-6.7-5.6c-11.5-0.1-23-0.1-34.5,0
		c-4,0-6.4,2.2-6.6,5.6c-0.2,3.4,1.9,5.7,6,6.3c4,0.7,5.9,2.6,5.9,6.4c0.1,15.7,0.1,31.5,0,47.2c0,3.6-2,5.7-5.6,6.3
		c-4.3,0.7-6.6,3-6.3,6.4c0.3,3.6,2.9,5.6,7.5,5.6C157,245.9,162.5,245.8,168,245.8z"/>
	<path d="M154.8,335.6c-50.2-3.8-91.2-26.2-121.5-67.7c-14.9-20.4-24.8-43.2-29.8-68c-0.8-4.2,0.7-7.1,4.1-7.9
		c3.6-0.9,6.6,1,7.5,5.3c6.2,29,18.8,54.9,38.7,77c24.5,27.2,55,43.3,91.4,48.1c3.8,0.5,7.7,0.9,11.5,1.3c4.1,0.5,6.4,3,6,6.6
		C162.3,333.8,159.7,335.8,154.8,335.6z"/>
	<path d="M195,104.7c0,15.1-11.6,26.7-26.8,26.9c-15.3,0.1-27.2-11.7-27.2-26.9c0.1-15.1,11.8-26.7,27-26.7
		C183.2,78.1,194.9,89.6,195,104.7z M168.1,119.7c8.5-0.1,14.9-6.6,14.8-15c-0.1-8.4-6.7-14.8-15.1-14.7c-8.5,0.1-14.9,6.6-14.8,15
		C153.1,113.4,159.7,119.8,168.1,119.7z"/>
	<path d="M171.9,35.9c0,3.8-2.2,5.9-6.5,6c-11.4,0.3-22.6,1.8-33.6,5c-20.3,6-37.8,16.7-52.7,31.7c-1.1,1.1-2,2.2-3.1,3.2
		c-2.8,2.6-6.2,2.7-8.7,0.3c-2.5-2.4-2.6-5.9,0.2-8.7c5-4.9,9.9-10,15.3-14.3C106.6,40,134,30.6,164.5,29.9
		C169.3,29.8,171.8,31.9,171.9,35.9z"/>
</g>
</svg>
