<?xml version="1.0" encoding="utf-8"?>
<!-- Generator: Adobe Illustrator 22.1.0, SVG Export Plug-In . SVG Version: 6.00 Build 0)  -->
<svg version="1.1" id="Слой_1" xmlns="http://www.w3.org/2000/svg" xmlns:xlink="http://www.w3.org/1999/xlink" x="0px" y="0px"
	 viewBox="0 0 434.5 397.2" style="enable-background:new 0 0 434.5 397.2;" xml:space="preserve">
<style type="text/css">
	.st0{stroke:#000000;stroke-width:4;stroke-miterlimit:10;}
</style>
<g>
	<path d="M355,128.7c2.7,25.3,5.4,50.7,8.1,76.1c2.5-2.6,5.4-4.8,8.5-6.6c1.1-0.8,2.1-1.6,2.7-2c-0.5-4.5-1-9-1.4-13.5
		c-2.1-19.8-4.1-39.5-6.2-59.3c-0.6-5.3-2.6-7-8.2-7c-15.6,0-31.2,0-46.9,0h-4.4V111h3.9c15.9,0,31.7,0,47.6,0c5.7,0,7.8-2,7.8-7.6
		c0-31.9,0-63.7,0-95.6c0-5.9-2-7.8-8-7.8c-57,0-114,0-171,0c-5.7,0-7.8,2-7.8,7.6c0,32,0,64,0,96c0,5.4,2.1,7.4,7.5,7.4
		c15.9,0,31.7,0,47.6,0h4.2v5.1h-76.6v-4.5c0-23.9,0-47.7,0-71.6c0-1.2,0-2.5-0.1-3.7c-0.2-3.2-1.8-5.4-4.8-6.5
		c-2.9-1.1-5.7-0.5-7.5,1.8c-4.6,5.6-12.7,5.7-17.8,0.3c-3.7-4-9-3.7-13.1-0.1c-6.4,5.6-11.2,5.7-17.4,0.1
		c-4.4-3.9-9.2-3.8-13.7,0.3c-5.7,5.2-11.3,5.1-16.8-0.2c-2.5-2.4-5.2-3.4-8.5-2c-3.3,1.4-4.4,4.1-4.4,7.6c0,24.6,0,49.2,0,73.9
		c0,1.5,0,3,0,4.8c-1.6,0.1-2.9,0.2-4.2,0.2c-9.6,0-19.2,0-28.9,0c-5.3,0-7.3,1.8-7.9,7c-3.1,29.3-6.2,58.6-9.2,88
		c-2.5,23.7-5,47.5-7.5,71.2c-0.1,0.8-0.4,1.7-0.6,2.5c0,33,0,66,0,99h331.6c-5.2-3.1-9.2-7.3-11.9-12.1H11.8v-72.7h323.9
		c3.4-5.2,8.2-9.5,13.7-12.5H12.2c5.6-52.9,11.2-105.5,16.8-158.1h29.1v54.1c-3.4,0.3-6.4,0.3-9.3,0.9
		c-12.6,2.7-20.7,13.9-19.5,26.8c1.1,12,11.6,22,24,22c38,0.2,76,0.2,114,0c13.5-0.1,24.1-11.2,24.2-24.6
		c0.1-13.6-10.6-24.4-24.3-24.8c-1.4,0-2.7,0-4.4,0v-54.3H355z M294.6,116.1h-43.2v-4.7h43.2V116.1z M191.8,98.8V12.2h162.3v86.6
		H191.8z M70.7,46.2c8.8,3.1,16.8,1.9,24.2-4c10.1,7.5,20.4,7.7,30.1,0.5c4.3,1.7,8.2,3.8,12.3,4.6c4,0.8,8.3,0.2,12.8,0.2v154.1
		H70.7V46.2z M165.3,201.7c-0.7-0.1-1.5-0.1-2.6-0.1v-6.4c5.4-1,10.3-0.1,14,4.5c3.2,4.1,3.7,8.7,1.5,13.4
		c-2.5,5.1-6.9,7.3-12.5,7.3c-36.6,0-73.2,0-109.8,0c-9.4,0-15.3-5.7-14.6-14c0.6-7.8,7.5-12.4,17-11.1v6.1
		c-1.1,0.1-2.2,0.2-3.3,0.3c-3.3,0.5-5.2,2.5-5.3,5.7c-0.1,3.3,1.8,5.4,5,6c1.2,0.3,2.5,0.2,3.7,0.2c34.6,0,69.2,0,103.8,0
		c1,0,2,0.1,3,0c3.6-0.4,5.9-2.8,5.8-6.1C171,204.4,168.8,202.1,165.3,201.7z"/>
	<path d="M232.1,181.6c-3.6,0-7.2,0-10.9,0c-4.5-0.1-6.7-2.1-6.8-6.6c-0.1-7.4-0.1-14.7,0-22.1c0-4,2.3-6.4,6.3-6.4
		c7.5-0.1,15-0.1,22.5,0c4.2,0.1,6.4,2.5,6.5,6.7c0.1,7.2,0.1,14.5,0,21.7c-0.1,4.5-2.3,6.7-6.7,6.7
		C239.4,181.6,235.8,181.6,232.1,181.6z M237.6,158.5c-3.9,0-7.3,0-10.9,0c0,3.7,0,7.3,0,10.7c3.8,0,7.3,0,10.9,0
		C237.6,165.6,237.6,162.2,237.6,158.5z"/>
	<path d="M275.8,181.6c-3.6,0-7.2,0.1-10.9,0c-4.3-0.1-6.6-2.2-6.7-6.4c-0.1-7.5-0.1-15,0-22.5c0.1-4,2.5-6.2,6.5-6.3
		c7.5-0.1,15-0.1,22.5,0c4,0.1,6.2,2.4,6.2,6.4c0.1,7.5,0.1,15,0,22.5c-0.1,4.1-2.3,6.1-6.4,6.2
		C283.3,181.6,279.5,181.6,275.8,181.6z M281.2,158.6c-3.9,0-7.3,0-10.9,0c0,3.7,0,7.1,0,10.7c3.7,0,7.3,0,10.9,0
		C281.2,165.7,281.2,162.2,281.2,158.6z"/>
	<path d="M293.4,208.1c0,3.6,0.1,7.2,0,10.9c-0.1,3.9-2.2,6.1-6,6.2c-7.7,0.1-15.5,0.1-23.2,0c-3.7-0.1-5.8-2.3-5.9-5.9
		c-0.2-7.6-0.2-15.2,0-22.9c0.1-3.8,2.3-6.1,6.1-6.2c7.7-0.2,15.5-0.2,23.2,0c3.8,0.1,5.8,2.4,5.9,6.4
		C293.5,200.4,293.4,204.2,293.4,208.1z M281.2,202.3c-3.8,0-7.3,0-10.8,0c0,3.7,0,7.1,0,10.7c3.8,0,7.3,0,10.8,0
		C281.2,209.2,281.2,205.8,281.2,202.3z"/>
	<path d="M293.4,251.4c0,3.7,0.1,7.5,0,11.2c-0.1,3.9-2.2,6.2-6,6.2c-7.6,0.2-15.2,0.2-22.9,0c-4-0.1-6.3-2.4-6.3-6.4
		c-0.1-7.5-0.1-15,0-22.5c0.1-4,2.4-6.2,6.5-6.2c7.5-0.1,15-0.1,22.5,0c4.1,0.1,6.1,2.2,6.2,6.4
		C293.5,243.9,293.4,247.7,293.4,251.4z M270.3,256.7c3.8,0,7.3,0,10.9,0c0-3.7,0-7.1,0-10.7c-3.7,0-7.2,0-10.9,0
		C270.3,249.7,270.3,253,270.3,256.7z"/>
	<path d="M302,251.1c0-3.6-0.1-7.2,0-10.9c0.1-4.2,2.1-6.4,6.2-6.4c7.6-0.1,15.2-0.1,22.9,0c3.9,0.1,6,2.2,6.1,6.1
		c0.2,7.6,0.2,15.2,0,22.9c-0.1,3.8-2.3,6-6.2,6.1c-7.6,0.2-15.2,0.2-22.9,0c-4-0.1-6-2.4-6.1-6.6C301.9,258.6,302,254.9,302,251.1z
		 M324.9,246c-3.7,0-7.1,0-10.6,0c0,3.7,0,7.1,0,10.5c10.5,1.9,11.7,0.9,11-9.2C325.2,247,325,246.6,324.9,246z"/>
	<path d="M319.7,181.6c-3.7,0-7.5,0.1-11.2,0c-4.1-0.1-6.4-2.1-6.4-6.2c-0.1-7.6-0.1-15.2,0-22.9c0.1-3.8,2.3-6.1,6.1-6.1
		c7.6-0.1,15.2-0.1,22.9,0c3.8,0.1,6,2.4,6.1,6.2c0.2,7.6,0.2,15.2,0,22.9c-0.1,4-2.5,6-6.6,6.1C327,181.6,323.4,181.6,319.7,181.6z
		 M324.9,169.4c0-3.6,0-7.2,0-10.7c-3.8,0-7.2,0-10.7,0c0,3.7,0,7.1,0,10.7C317.7,169.4,321,169.4,324.9,169.4z"/>
	<path d="M214.5,207.8c0-3.6-0.1-7.2,0-10.9c0.1-4.3,2-6.7,6.3-6.8c7.5-0.2,15-0.2,22.5,0c4.3,0.1,6.4,2.4,6.5,6.6
		c0.1,7.4,0.1,14.7,0,22.1c-0.1,4-2.2,6.3-6.3,6.4c-7.6,0.1-15.2,0.1-22.9,0c-3.9-0.1-5.9-2.3-6-6.2
		C214.4,215.2,214.5,211.5,214.5,207.8z M226.7,213c3.8,0,7.2,0,10.8,0c0-3.7,0-7.2,0-10.8c-3.7,0-7.2,0-10.8,0
		C226.7,205.9,226.7,209.3,226.7,213z"/>
	<path d="M249.7,251.5c0,3.5,0.1,7,0,10.5c-0.1,4.5-2.2,6.8-6.6,6.9c-7.4,0.1-14.7,0.1-22.1,0c-4.4-0.1-6.5-2.4-6.5-6.9
		c-0.1-7.1-0.1-14.2,0-21.4c0-4.7,2.1-6.8,6.9-6.9c7.1-0.1,14.2-0.1,21.4,0c4.9,0.1,6.9,2.2,7,7.3
		C249.8,244.5,249.7,248,249.7,251.5z M226.6,256.8c3.7,0,7.2,0,10.8,0c0-3.8,0-7.3,0-10.8c-3.7,0-7.2,0-10.8,0
		C226.6,249.7,226.6,253.1,226.6,256.8z"/>
	<path d="M319.3,225.2c-3.5,0-7,0.1-10.5,0c-4.6-0.1-6.7-2.1-6.8-6.6c-0.1-7.4-0.1-14.7,0-22.1c0.1-4.1,2.1-6.3,6.2-6.4
		c7.6-0.2,15.2-0.2,22.8,0c3.8,0.1,6,2.4,6.1,6.2c0.2,7.6,0.2,15.2,0,22.8c-0.1,3.9-2.4,5.9-6.3,6
		C327,225.3,323.2,225.2,319.3,225.2C319.3,225.2,319.3,225.2,319.3,225.2z M325.3,213.1c0-3.3,0.1-6.1-0.1-9
		c-0.1-0.7-1.2-1.9-1.9-2c-2.9-0.2-5.9-0.1-9-0.1c0,4,0,7.5,0,11.1C318,213.1,321.4,213.1,325.3,213.1z"/>
	<path d="M192,355.8c-27.9,0-55.7,0-83.6,0c-10.9,0-15.5-4.6-15.5-15.5c0-4-0.1-8,0-12c0.1-7.6,5.4-12.9,13-13.1c1.2,0,2.5,0,3.7,0
		c55.4,0,110.7,0,166.1,0c10.5,0,15.3,4.8,15.3,15.4c0,3.9,0,7.7,0,11.6c-0.1,8.4-5.1,13.6-13.5,13.6c-12.7,0.1-25.5,0-38.2,0
		C223.5,355.8,207.8,355.8,192,355.8z M278.8,327.4c-58.1,0-115.8,0-173.6,0c0,5.5,0,10.7,0,16.1c58,0,115.7,0,173.6,0
		C278.8,338.1,278.8,332.9,278.8,327.4z"/>
	<path d="M136.2,94.6c-1.2,2.3-1.7,3.9-2.6,5.1c-12.2,16.7-24.5,33.4-36.8,50.1c-2.6,3.5-6.1,4.4-9,2.3c-3-2.2-3.3-5.8-0.5-9.5
		c12.2-16.6,24.4-33.2,36.5-49.8c1.9-2.6,4.3-4.7,7.6-3.1C133.3,90.7,134.6,93,136.2,94.6z"/>
	<path d="M93.5,120.2c-8.8,0-15.6-6.9-15.6-15.7c0-8.7,7.1-15.7,15.8-15.6c8.6,0.1,15.8,7.3,15.7,15.8
		C109.3,113.2,102.2,120.2,93.5,120.2z M94.3,100.3c-0.6,0-1.2,0-1.7,0c-0.9,1.5-2.5,3.1-2.4,4.5c0.1,1.2,2.3,3.2,3.5,3.1
		c1.3-0.1,3.4-2.1,3.4-3.3C97.1,103.2,95.3,101.7,94.3,100.3z"/>
	<path d="M111.5,138.1c-0.1-8.7,6.9-15.8,15.6-15.8c8.6,0,15.7,7,15.8,15.6c0.1,8.7-6.9,15.8-15.6,15.8
		C118.5,153.8,111.5,146.8,111.5,138.1z M126.1,142.3c0.5,0,1.1,0,1.6,0c1-1.3,2.6-2.5,2.9-4c0.5-2.3-1.2-4.1-3.4-3.8
		c-1.4,0.2-3.4,2-3.5,3.3C123.6,139.2,125.3,140.8,126.1,142.3z"/>
	<path d="M273.4,18.8c21.9,0,43.7,0,65.6,0c6.6,0,8.4,1.8,8.4,8.4c0,18.9,0,37.7,0,56.6c0,6.4-1.8,8.3-8.2,8.3
		c-44.1,0-88.2,0-132.4,0c-6.4,0-8.2-1.8-8.2-8.3c0-19,0-38,0-57c0-6.2,1.9-8.1,8-8.1C228.9,18.8,251.1,18.8,273.4,18.8z
		 M335.2,31.1c-41.7,0-83,0-124.3,0c0,16.4,0,32.6,0,48.9c41.5,0,82.8,0,124.3,0C335.2,63.6,335.2,47.5,335.2,31.1z"/>
</g>
<g>
	<path class="st0" d="M379.6,204.1c2.3-0.7,3.9,0.1,5.5,1.8c5.6,6,11.4,11.8,17.1,17.7c1.3,1.3,1.8,2.7,1.8,4.5
		c-0.4,22.4-0.8,44.7-1.2,67.1c0,1.1,0.1,1.7,1.2,2.3c25.4,12.6,35.7,44.1,22.8,69.4c-13.6,26.7-46.5,36.2-72.4,21.1
		c-25.3-14.8-33-48.3-16.7-72.9c5.4-8.1,12.5-14.3,21.4-18.4c1-0.4,1.3-1,1.3-2c0-4.9,0.2-9.7,0.2-14.6c0-1.7,0.6-3.1,1.8-4.2
		c1.7-1.6,3.4-3.2,5.2-5c-1.5-1.6-3-3.1-4.4-4.5c-0.5-0.5-1.1-1.1-1.5-1.6c-1.1-1.4-1.1-3.2,0.2-4.6c0.8-1,1.8-1.8,2.9-2.8
		c-0.9-0.9-1.6-1.6-2.3-2.4c-1.9-2-1.8-3.9,0.1-5.9c2-2,4.1-4,6.3-6.1c-2-2.1-3.8-4.1-5.8-6c-1.2-1.2-1.8-2.6-1.7-4.3
		c0.1-2.4,0.1-4.9,0.2-7.3c0.1-1.4,0.2-2.8,0.4-4.2C367.9,215.4,373.8,209.8,379.6,204.1z M384.8,216.5c-1-1.2-2.2-2.4-3.3-3.5
		c-0.3,0.1-0.4,0.2-0.5,0.2c-2.4,2.3-4.9,4.7-7.3,7c-1.5,1.5-3.5,2.7-4.3,4.5c-0.8,1.8-0.3,4.2-0.3,6.3c0,0.7,0.3,1.5,0.8,1.9
		c2.1,2.3,4.3,4.5,6.5,6.8c2.3,2.4,2.2,4.3-0.1,6.5c-2,1.9-3.9,3.8-5.9,5.7c1.2,1.9,3.5,2.9,3.5,5.3c0,2.6-2.3,3.5-3.7,5.4
		c1.7,1.8,3.4,3.5,5.1,5.2c2.1,2.1,2.1,4.2,0,6.2c-2,2-4.1,3.9-6.1,5.9c-0.5,0.5-0.9,1.3-0.9,2c-0.2,5.1-0.3,10.1-0.3,15.2
		c0,2.8-1,4.4-3.7,5.4c-7,2.7-12.9,7.2-17.7,13c-15.3,18.6-12.5,46.7,6.2,62c20,16.4,49.8,12.1,64.4-9.3c15.5-22.6,6.5-54-18.5-65.1
		c-3.1-1.4-3.6-2.1-3.5-5.4c0.4-22.6,0.8-45.2,1.1-67.9c0-0.5,0.2-1.3-0.1-1.6c-1.4-1.6-2.9-3-4.3-4.5L384.8,216.5z"/>
	<path class="st0" d="M370.3,375.6c-5.3-5.5-5.2-14.5,0.3-19.9c5.5-5.4,14.6-5.3,20,0.3c5.3,5.6,5.2,14.5-0.3,19.9
		C384.8,381.3,375.7,381.2,370.3,375.6z M376.1,361c-2.7,2.5-2.8,6.7-0.3,9.3c2.5,2.6,6.6,2.7,9.3,0.2c2.6-2.4,2.7-6.6,0.3-9.2
		C382.8,358.7,378.7,358.5,376.1,361z"/>
</g>
</svg>
