<?xml version="1.0" encoding="utf-8"?>
<!-- Generator: Adobe Illustrator 22.1.0, SVG Export Plug-In . SVG Version: 6.00 Build 0)  -->
<svg version="1.1" id="Слой_1" xmlns="http://www.w3.org/2000/svg" xmlns:xlink="http://www.w3.org/1999/xlink" x="0px" y="0px" viewBox="0 0 409.7 315.1" style="enable-background:new 0 0 409.7 315.1;" xml:space="preserve">
	<style type="text/css">
		path {
			fill: #FFFFFF;
		}
	</style>
	<g>
		<path d="M0,283.9c7.1-13.8,13.6-28,21.5-41.4c8.9-14.9,11.8-30.4,11.5-47.8c-0.8-60-0.3-120-0.3-179.9C32.8,4.1,36.8,0,47.4,0
		c104.9,0,209.8,0,314.7,0c10.6,0,14.7,4.1,14.7,14.8c0,66.9,0,133.8,0.1,200.7c0,2.8,0.8,5.8,2,8.3c9.3,18.6,18.8,37,28,55.6
		c1.6,3.2,2.1,7,2.6,10.6c0.4,3.5,0.2,7.2,0.1,10.8c-0.2,7.8-5.3,13.3-13.1,14.1c-1.6,0.2-3.2,0.1-4.8,0.1
		c-124.4,0-248.7,0-373.1,0.1c-8.6,0-15-2.2-18.6-10.4C0,297.8,0,290.8,0,283.9z M45,12.1C45,80,45,147.5,45,215
		c106.7,0,213.1,0,319.4,0c0-67.8,0-135.3,0-202.9C257.9,12.1,151.7,12.1,45,12.1z M261.9,279.6c44.1,0,87.7,0,131.7,0
		c-8.4-16.5-16.6-32.6-24.7-48.8c-1.3-2.6-2.7-3.6-5.7-3.6c-105.7,0.1-211.4,0.1-317.1,0c-2.8,0-4.2,0.9-5.4,3.4
		c-7.6,15.3-15.4,30.4-23,45.6c-0.6,1.1-1,2.2-1.6,3.4c44.3,0,87.9,0,131.6,0c2-7.4,4-14.6,6-21.8c2-7.3,5.7-10.1,13.2-10.2
		c25.2,0,50.4,0,75.6,0c7.8,0,11.4,2.8,13.5,10.3C258,265.2,259.9,272.4,261.9,279.6z M12.1,292c-0.1,1.2-0.1,2-0.1,2.7
		c0,8.9-1,8.2,8.1,8.2c123.5,0,247.1,0,370.6,0c1.3,0,2.8,0.3,4-0.1c1.1-0.4,2.6-1.6,2.8-2.5c0.4-2.7,0.1-5.5,0.1-8.3
		C268.9,292,140.7,292,12.1,292z M249.5,279.8c-1.7-6.2-3.2-12.2-5-18.2c-0.3-0.8-1.9-1.8-2.9-1.8c-24.5-0.1-49-0.1-73.5,0
		c-1,0-2.6,1-2.9,1.8c-1.8,5.9-3.3,12-5,18.2C190,279.8,219.6,279.8,249.5,279.8z" />
		<path d="M340,37c-90.3,0-180.1,0-270.4,0c0,1.6,0,3,0,4.4c0,17.9,0,35.7,0,53.6c0,1.6,0.3,3.7-0.6,4.6c-1.5,1.7-3.9,3.9-5.8,3.7
		c-1.9-0.1-3.9-2.6-5.3-4.4c-0.7-0.8-0.3-2.6-0.3-3.9c0-19.3,0-38.7,0-58c0-8.7,3.5-12.2,12-12.2c90.1,0,180.2,0,270.4,0
		c8.6,0,12,3.5,12,12.2c0,19.3,0,38.7,0,58c0,1.3,0.4,3.1-0.3,3.9c-1.5,1.8-3.4,4.3-5.3,4.4c-1.9,0.1-4.3-2-5.7-3.7
		c-0.9-1.1-0.6-3.3-0.6-5C340,75.5,340,56.5,340,37z" />
		<path d="M69.6,190.3c90.3,0,180.1,0,270.4,0c0-1.5,0-2.9,0-4.3c0-17.9,0-35.7,0-53.6c0-1.6-0.3-3.7,0.6-4.6
		c1.5-1.7,3.9-3.8,5.8-3.7c1.9,0.1,3.9,2.5,5.3,4.3c0.7,0.8,0.3,2.6,0.3,3.9c0,19.3,0,38.6,0,58c0,8.8-3.3,12.1-12,12.1
		c-90.1,0-180.2,0-270.3,0c-8.9,0-12.1-3.3-12.1-12c0-19.5,0-38.9,0-58.4c0-1.1-0.1-2.2,0.1-3.2c0.6-2.9,2.3-4.8,5.4-5
		c3.3-0.3,5.4,1.4,6.2,4.5c0.4,1.4,0.3,2.9,0.3,4.4c0,17.6,0,35.2,0,52.8C69.6,187,69.6,188.4,69.6,190.3z" />
	</g>
	<g>
		<path d="M288.2,143.7c0,3.6,0,7,0,10.6c-0.4,0-0.8,0-1.1,0c-6.9,0-13.7,0-20.6,0c-18.7,0-37.5,0-56.2,0c-4.3,0-8.5-0.4-12.7-1.5
		c-13.3-3.2-22.7-11.2-28-23.8c-8.6-20.6,0.7-43.5,21.1-52.7c17-7.7,37.9-2.2,49,12.8c4.9,6.7,7.7,14.2,8.1,22.5
		c0.1,1.4,0.1,1.4-1.4,1.4c-2.8,0-5.6,0-8.5,0c-0.8,0-1-0.3-1.1-1c-0.9-16.9-15.1-29.4-31.9-28.3c-16.3,1.1-29,15.8-27.5,32.1
		c1,11,6.6,19.1,16.3,24.2c3.6,1.9,7.5,2.7,11.5,3c3,0.3,5.9,0.4,8.9,0.4c18.1,0,36.2,0,54.3,0c6.3,0,12.6,0.1,18.8,0.1
		C287.6,143.7,287.9,143.7,288.2,143.7z" />
		<path d="M288.2,126.8c0,3.4,0,6.8,0,10.2c-0.4,0-0.7,0-1.1,0c-4.7,0-9.4,0-14.1,0c-20.2,0-40.4,0.1-60.5,0c-3.4,0-6.9-0.2-10.3-0.9
		c-14.6-2.8-22.6-19.4-15.9-32.7c7.4-14.8,26.6-17.7,38-5.7c3.8,4,5.8,8.8,6.2,14.3c0.1,0.9-0.2,1.2-1.1,1.2c-2.7-0.1-5.4-0.1-8.1,0
		c-0.9,0-1.2-0.3-1.4-1.2c-0.8-5.4-3.7-9.1-8.9-10.6c-5.1-1.6-9.7-0.3-13.4,3.7c-3.3,3.6-4.1,8-2.5,12.6c1.6,4.7,5,7.6,10,8.4
		c3,0.4,6.1,0.5,9.2,0.6c13.8,0.1,27.7,0,41.5,0c10.5,0,20.9,0.1,31.4,0.1C287.5,126.8,287.8,126.8,288.2,126.8z" />
		<path d="M133.3,83.7c0-0.4,0-0.8,0-1.1c0-2.8,0-5.6,0-8.5c0-0.9,0.2-1.2,1.2-1.2c8.1,0,16.2,0,24.3,0c0.9,0,1.1,0.3,1.1,1.2
		c0,13.5,0.1,27,0.1,40.5c0,12.8,0,25.6,0,38.3c0,1.3,0,1.3-1.3,1.3c-2.9,0-5.8,0-8.6,0c-0.8,0-1-0.2-1-1c0-19.5,0-39,0-58.5
		c0-3.3,0-6.7,0.1-10c0-0.9-0.3-1.1-1.2-1.1c-4.5,0-8.9,0-13.4,0C134.2,83.7,133.8,83.7,133.3,83.7z" />
		<path d="M133.1,129.8c0-7.4,0-14.7,0-22.1c0-2.4,0.1-4.7,0.1-7.1c0-0.8-0.3-1.1-1-1c-3.3,0-6.6,0-9.9,0c-0.8,0-1.1-0.2-1.1-1
		c0-2.8,0-5.6,0-8.4c0-0.8,0.3-1,1-1c5.4,0,10.8,0,16.2,0c1.4,0,2.7,0,4.1,0c0.6,0,0.9,0.1,0.9,0.8c0,2.8,0.1,5.7,0.1,8.5
		c0,18.1,0,36.2,0,54.3c0,1.5,0,1.5-1.5,1.5c-2.6,0-5.2,0-7.8,0c-1.3,0-1.3,0-1.3-1.3C133.1,145.3,133.1,137.6,133.1,129.8z" />
		<path d="M276.4,80.8c0,4-3.3,7.1-7.3,7.1c-3.9-0.1-7.1-3.4-7.1-7.3s3.3-7,7.4-7C273.3,73.7,276.4,76.9,276.4,80.8z M263.3,80.7
		c0,3.3,2.6,5.9,5.9,5.9s6-2.6,6-5.9c0-3.2-2.7-5.8-5.9-5.8C265.9,74.9,263.3,77.5,263.3,80.7z" />
		<path d="M271.5,80.6c0.2,1.3,0.4,2.4,0.6,3.4c-1.3,0.5-1.6,0.3-1.6-0.9c0-0.6,0-1.2-0.7-1.6c-1.2-0.5-1.9-0.1-1.9,1.2
		c0,0.4,0.1,0.7,0,1c-0.1,0.2-0.4,0.5-0.6,0.5c-0.3,0-0.7-0.3-0.7-0.5c-0.1-2-0.1-4,0-6c0-0.2,0.4-0.5,0.7-0.5c0.8-0.1,1.6,0,2.4,0
		c1,0,1.9,0.3,2.3,1.3C272.4,79.4,272.1,80.2,271.5,80.6z M269.1,80.3c0.9,0,1.6-0.1,1.7-1c0.1-0.7-0.6-1.1-1.8-1.1
		c-0.9,0-0.9,0.5-0.9,1.1C268,80.2,268.4,80.4,269.1,80.3z" />
	</g>
</svg>