<?xml version="1.0" encoding="utf-8"?>
<!-- Generator: Adobe Illustrator 22.1.0, SVG Export Plug-In . SVG Version: 6.00 Build 0)  -->
<svg version="1.1" id="Слой_1" xmlns="http://www.w3.org/2000/svg" xmlns:xlink="http://www.w3.org/1999/xlink" x="0px" y="0px"
	 viewBox="0 0 384 321.3" style="enable-background:new 0 0 384 321.3;" xml:space="preserve">
<g>
	<path d="M384,282.8c-0.4,1.7-0.9,3.4-1.3,5c-4.2,16-14.3,26.8-30.2,31.4c-16.3,4.8-30.8,0.5-43.1-11.2c-1.2-1.1-3.2-2-4.8-2
		c-9.6-0.2-19.2-0.1-28.9-0.1c-2.9,0-5.2-0.9-6.3-3.7c-1.5-3.8,1.3-7.4,5.7-7.5c6.9-0.1,13.7,0,20.6,0c1.4,0,2.7,0,4.6,0
		c-5.2-13.7-4.4-26.8,2.7-39.5c-2.4-0.6-4.6-1-6.8-1.6c-6-1.7-9.7-6.3-9.9-12.5c-0.1-2.5,0-5,0-7.5c-0.2-6.5-3.9-10.2-10.4-10.2
		c-22.5,0-45,0-67.5,0c-1.1,0-2.3,0.1-3.4,0c-3.8-0.3-5.9-2.6-5.8-6c0.2-3.2,2.4-5.1,6.1-5.2c12.4,0,24.7,0,37.1,0
		c1.7,0,3.5,0,5.5,0c0-4.9,0-9.6,0-14.4c-31.4,0-62.7,0-94.2,0c0,4.8,0,9.4,0,14.4c7.3,0,14.5,0,21.7,0c5.9,0,8.5,1.6,8.6,5.4
		c0.1,3.9-2.8,5.8-8.7,5.8c-16.2,0-32.5,0-48.7,0c-7.2,0-10.8,3.5-11,10.7c-0.1,2.2,0,4.5-0.1,6.7c-0.3,6.9-4.1,11.4-10.8,13.1
		c-1.8,0.4-3.7,0.7-5.9,1.2c7,12.7,8,25.6,2.7,39.5c1.9,0,3.3,0,4.7,0c46.1,0,92.2,0,138.4,0c1.2,0,2.5-0.1,3.7,0
		c3.2,0.2,5,2.1,5.3,5.3c0.3,2.9-2,5.5-5.1,5.9c-1.2,0.2-2.5,0.1-3.7,0.1c-48.9,0-97.7,0-146.6-0.1c-2.6,0-4.3,0.7-6.2,2.5
		c-13.1,12.3-28.4,16.1-45.3,9.9c-17.3-6.4-27.1-19.5-28.5-37.8c-1.3-17.3,6.2-30.7,20.8-40.1c0.8-0.5,1.7-1.1,2.5-1.6
		c0.1-0.1,0.1-0.2,0.3-0.7c-5.2-2.1-10.5-4.2-15.8-6.2C7.8,224.7,0,213.4,0,193.6c0-11.7,0-23.5,0-35.2c0-13.2,8.6-21.8,21.8-21.9
		c12.1-0.1,24.2,0,36.4,0c1.2,0,2.4,0,4.1,0c-0.8-1.7-1.3-2.9-1.9-4.1C55,121.7,49.8,111,44.2,100.6c-3-5.5-4.5-11-4-17.1
		c0.3-3.7,0.1-7.4,0.1-11.6c-1.6,0-2.8,0-4.1,0c-6.4-0.1-8.1-1.8-8.1-8.3c0-17.4,0-34.7,0-52.1c0-1.7-0.1-3.5,0-5.2
		C28.3,2,30.2,0.1,34.4,0C41.7,0,48.9,0,56.2,0c5.5,0,7.4,1.9,7.4,7.5c0,17.1,0,34.2,0,51.4c0,1.9,0,3.8,0,5.6
		c-0.1,5.5-2,7.4-7.5,7.4c-1.4,0-2.7,0-4.7,0c0.7,8.3-1.1,16.2,3,24.3c18.8,36,37,72.2,55.3,108.4c2.7,5.3,6.4,7.9,12.4,7.6
		c6.6-0.3,13.2-0.1,20.1-0.1c0-4.8,0-9.4,0-14.6c-3.7,0-7.5,0-11.4,0c-9.8,0-14.8-5-14.9-14.7c0-14.1-0.1-28.2,0-42.4
		c0-9.5,5.1-14.6,14.6-14.6c3.1,0,6.3-0.1,9.4,0.1c3.3,0.2,5.5,2.4,5.6,5.4c0,3-2.1,5.4-5.4,5.7c-3.2,0.2-6.5,0.2-9.7,0.1
		c-2.2,0-3.2,0.9-3.2,3.1c0,14.4,0,28.7,0,43.1c0,2.3,1.1,3.1,3.2,3c2.9-0.1,5.7,0,8.6,0c43.5,0,87,0,130.5,0c5.5,0,5.5,0,5.5-5.6
		c0-6.6-0.1-13.3,0-19.9c0.1-3.1-1.1-4.2-4.2-4.1c-8,0.2-16,0-24,0.1c-6.3,0.1-11.7-1.9-16.4-6.2c-3.5-3.2-7.3-6.1-10.7-9.4
		c-3.3-3.2-7-4.3-11.5-4.2c-13,0.2-26,0.1-39,0.1c-1.1,0-2.3,0.1-3.4-0.1c-3.2-0.4-5.4-2.8-5.4-5.7c0.1-2.9,2.3-5.4,5.6-5.4
		c15.9-0.1,31.8-0.3,47.6,0.3c3.9,0.1,8,2.7,11.4,5c4.7,3.3,8.6,7.7,13.2,11c2.4,1.7,5.6,3,8.5,3.1c8.5,0.4,17,0.1,25.5,0.2
		c8.4,0.1,13.9,5.4,14,13.8c0.1,8.1,0.1,16.3,0,24.4c-0.1,8.5-5.5,13.7-13.9,13.9c-4.1,0.1-8.2,0-12.4,0c-0.1,1.4-0.3,2.4-0.3,3.4
		c0,3.6,0,7.2,0,11.3c5.4,0,10.5,0,15.6,0c13.8,0,22.3,8.6,22.4,22.5c0,7.8,0.1,7.6,7.5,9.4c4,1,7,0.4,10.6-2.1
		c26-18.3,62.2-3.1,67.5,28.2c0.1,0.7,0.5,1.4,0.7,2.1C384,275.8,384,279.3,384,282.8z M76.3,163.6c-2.5-4.9-4.7-9.1-6.7-13.4
		c-0.9-2-2.2-2.6-4.3-2.6c-14.4,0.1-28.7,0-43.1,0.1c-7.2,0-10.9,3.7-10.9,10.8c0,12.4,0,24.7,0,37.1c0,12.3,5.6,20.4,17.2,25
		c9.8,3.8,19.5,7.7,29.3,11.4c2.9,1.1,6,1.5,8.9,2.4c6,2,12.7,3,17.7,6.5c5.5,3.9,10.4,4.2,16.2,2.5c0.1,0,0.2-0.1,0.4-0.1
		c2.9-0.1,3.8-1.7,3.6-4.4c-0.3-6.4-0.1-12.8,3.4-17.4c-3.3-4.9-6.3-9.2-9-13.8c-1.1-1.9-2.3-2.6-4.4-2.5c-4.5,0.1-9,0.1-13.5,0
		c-4.2-0.1-6.6-2.2-6.7-5.5c-0.1-3.5,2.4-5.6,6.8-5.7c3.3-0.1,6.7,0,10.6,0c-3-6-5.8-11.2-8.3-16.6c-1-2-2.2-2.6-4.3-2.6
		c-4.9,0.1-9.7,0.1-14.6,0c-4.4,0-6.8-2.1-6.8-5.7c0.1-3.4,2.5-5.4,6.6-5.5C68.1,163.6,71.8,163.6,76.3,163.6z M93.9,277.5
		c0-17.8-14.4-32.2-32.2-32.2c-17.6,0-32.2,14.5-32.3,32.1c-0.1,17.8,14.6,32.4,32.4,32.3C79.6,309.7,93.9,295.3,93.9,277.5z
		 M340.5,309.8c17.7,0,32.2-14.5,32.2-32.2c0-17.7-14.4-32.2-32.1-32.3c-17.8-0.1-32.4,14.5-32.4,32.4
		C308.3,295.4,322.8,309.8,340.5,309.8z M52.1,60.4c0-16.6,0-32.8,0-48.9c-4.4,0-8.4,0-12.6,0c0,16.4,0,32.6,0,48.9
		C43.8,60.4,47.8,60.4,52.1,60.4z"/>
	<path d="M218.9,259.1c0,2.5,0.1,5,0,7.5c-0.2,3.4-2.7,5.7-5.8,5.6c-3.1-0.1-5.3-2.5-5.4-6c-0.1-4.9-0.1-9.7,0-14.6
		c0.1-3.4,2.1-5.5,5.1-5.7c3.2-0.2,5.7,1.9,6,5.3C219,253.9,218.9,256.5,218.9,259.1C218.9,259.1,218.9,259.1,218.9,259.1z"/>
	<path d="M170.3,259c0,2.6,0.1,5.2,0,7.8c-0.2,3.2-2.1,5-5.2,5.4c-2.9,0.3-5.7-1.9-5.9-5c-0.2-5.5-0.3-11,0.1-16.4
		c0.2-3,2.4-4.9,5.7-4.8c3.2,0.1,5.1,2,5.3,5.2C170.4,253.7,170.3,256.4,170.3,259z"/>
	<path d="M243,259.1c0,2.5,0.1,5,0,7.5c-0.2,3.3-2.4,5.5-5.3,5.7c-3.1,0.1-5.7-2.2-5.8-5.5c-0.2-5.1-0.2-10.2,0-15.3
		c0.1-3.4,2.7-5.6,5.9-5.4c3.1,0.1,5,2.3,5.3,5.7c0,0.2,0,0.5,0,0.7C243.1,254.6,243.1,256.8,243,259.1
		C243,259.1,243,259.1,243,259.1z"/>
	<path d="M194.5,259.2c0,2.6,0.2,5.2,0,7.8c-0.2,3.2-2.2,5.1-5.3,5.2c-3.1,0.1-5.4-1.7-5.6-4.9c-0.3-5.5-0.3-10.9,0-16.4
		c0.1-3.1,2.3-4.9,5.5-4.9c3.2,0,5.2,1.8,5.4,5C194.7,253.7,194.5,256.4,194.5,259.2C194.5,259.2,194.5,259.2,194.5,259.2z"/>
	<path d="M44,277.5c0-9.7,7.8-17.6,17.6-17.7c9.8-0.1,17.9,8.1,17.9,17.8c-0.1,9.6-8,17.6-17.7,17.7C52,295.5,44,287.4,44,277.5z
		 M68.2,277.6c0-3.4-2.9-6.4-6.3-6.5c-3.5-0.1-6.4,2.7-6.5,6.2c-0.1,3.7,2.8,6.8,6.5,6.7C65.2,284.1,68.2,281.1,68.2,277.6z"/>
	<path d="M340.6,295.4c-9.7,0.1-18-8.1-17.9-17.8c0-9.6,7.9-17.6,17.6-17.7c9.7-0.1,18,8,17.9,17.8
		C358.2,287.3,350.3,295.3,340.6,295.4z M347,277.8c0.1-3.4-2.8-6.5-6.2-6.6c-3.5-0.1-6.5,2.6-6.7,6.1c-0.2,3.5,2.8,6.8,6.4,6.8
		C343.8,284.1,346.9,281.2,347,277.8z"/>
</g>
</svg>
