<?xml version="1.0" encoding="utf-8"?>
<!-- Generator: Adobe Illustrator 22.1.0, SVG Export Plug-In . SVG Version: 6.00 Build 0)  -->
<svg version="1.1" id="Слой_1" xmlns="http://www.w3.org/2000/svg" xmlns:xlink="http://www.w3.org/1999/xlink" x="0px" y="0px"
	 viewBox="0 0 307.1 383.9" style="enable-background:new 0 0 307.1 383.9;" xml:space="preserve">
<g>
	<path d="M155.8,0c3.4,2.2,4.3,5.4,4.2,9.3c-0.1,6.7,0,13.5-0.1,20.2c0,1.7-0.1,3.6-0.8,5.1c-1.1,2.7-3.5,3.9-6.4,3.6
		c-3.3-0.4-5.4-2.4-5.4-5.7c-0.2-8.9-0.3-17.7,0.1-26.6c0.1-2,2.5-4,3.8-5.9C152.8,0,154.3,0,155.8,0z"/>
	<path d="M121.5,281.6c0,2,0,3.5,0,5c0.2,5.4,2.4,7.7,7.8,7.8c6.6,0.1,13.2,0,19.9,0c1.1,0,2.3,0,3.4,0c4.6,0.2,7.2,2.6,7.2,6.4
		c0,3.8-2.7,6.3-7.3,6.4c-7.1,0.1-14.2,0-21.4,0.1c-1.5,0-3,0-4.5,0.3c-3.1,0.6-4.8,2.7-5,5.7c-0.2,3,1.3,5.4,4.3,6.2
		c1.6,0.5,3.4,0.5,5.2,0.5c7,0.1,14,0,21,0c4.9,0,7.6,2.4,7.6,6.4c0,3.9-2.8,6.3-7.6,6.4c-7.9,0.1-15.7-0.1-23.6,0.1
		c-5.1,0.1-8.4,4.3-6.3,8.4c1,1.9,3.5,3.5,5.6,4.2c4.7,1.5,6.9,3.8,6.3,7.7c-0.6,3.8-3.9,5.6-8.6,5c-14.2-1.9-22.3-18.6-11.9-31.7
		c-6.1-8.3-6.6-16.9,0.1-25.8c-4.7-5.2-5.2-11.7-5.1-18.4c0-0.9-1-2.2-1.9-2.7c-7.4-4.1-10.8-10.4-10.9-18.7c0-3.7-0.1-7.5,0-11.2
		c0.3-7-2.3-12.6-7.5-17.2c-8.2-7-15.4-15-21.2-24.1c-12.4-19.9-17.7-41.5-15.3-64.7c3.4-32.7,19-58.4,46.7-76.1
		c28.3-18.1,58.9-21.5,90.3-9.5c34.1,13,55.8,38,64.2,73.6c6.7,28.1,1.6,54.7-14.6,78.6c-5.3,7.8-12.1,14.6-18.8,21.2
		c-5.5,5.4-9,11.2-8.5,19.1c0.2,3.7,0.1,7.5,0,11.2c-0.2,7.9-3.7,13.8-10.5,17.8c-1.1,0.6-2.1,2.4-2.1,3.6c0,6.4-0.5,12.5-5.1,17.5
		c6.5,8.7,6.5,17.2,0.1,25.8c3.6,4.8,5.6,10,4.5,16.1c-1.2,6.3-4.7,10.8-10.4,13.9c-1.3,0.7-2.8,2.2-3.2,3.6
		c-6.8,24.1-35.3,32-53.3,14.7c-3.5-3.4-4-6.9-1.3-9.8c2.5-2.8,6.3-2.6,10,0.5c11.6,9.7,26.3,6.8,31.5-6.5c-1-0.1-1.9-0.3-2.8-0.3
		c-6.7,0-13.5,0.1-20.2,0c-4.5-0.1-7.3-2.6-7.4-6.3c-0.1-3.9,2.8-6.4,7.6-6.4c9.4-0.1,18.7,0,28.1,0c1.4,0,2.8-0.1,4.1-0.4
		c3.3-0.7,4.8-3,4.8-6.2c0-3.1-2.3-5.7-5.6-6c-2.1-0.2-4.2,0-6.4-0.2c-4.4-0.3-7.2-3-7.1-6.7c0.2-3.6,2.9-5.9,7.2-6.1
		c2.2-0.1,4.5,0,6.7-0.4c3.3-0.6,5.3-3.3,5.1-6.4c-0.2-3.1-2.4-5.5-5.7-5.9c-2.1-0.2-4.2-0.1-6.4-0.2c-4.2-0.3-6.9-2.9-6.9-6.4
		c0-3.6,2.7-6.1,6.9-6.4c0.6,0,1.2,0,1.9,0c9.2-0.1,11.7-3.2,9.8-13c-4.1,0-8.3,0.2-12.5-0.1c-3.7-0.2-6.2-2.9-6.1-6.3
		c0-3.2,2.4-5.6,5.9-6.2c1.1-0.2,2.2-0.2,3.4-0.2c4.7,0,9.5,0,14.2,0c6.3-0.1,8.4-2.2,8.5-8.7c0-3.6,0.1-7.3,0-10.9
		c-0.2-10.7,3.8-19.5,11.9-26.4c9.4-7.9,17.3-17,22.7-28.1c15.4-31.4,13.7-62-5.6-91c-16-24.1-39.3-37.4-68.2-39.4
		c-27-1.8-50.4,7.3-69.4,26.7c-19.2,19.5-27.4,43.3-25.2,70.3c1.8,22.1,10.3,41.8,27.1,56.3c12.7,11,18.9,23.4,17.1,39.9
		c-0.1,0.9,0,1.7,0,2.6c0.1,6.2,2.2,8.4,8.3,8.4c11,0,22,0,33,0c1.1,0,2.3,0,3.4,0.1c4.1,0.5,6.4,2.9,6.4,6.5
		c-0.1,3.6-2.5,6.1-6.6,6.2c-8.1,0.2-16.2,0.1-24.4,0.1C126.6,281.6,124.4,281.6,121.5,281.6z"/>
	<path d="M134.3,179.2c-4.7,0-8.8,0.1-12.9,0c-11.5-0.5-20.8-7.4-24.1-17.6c-3.4-10.7,0-21.6,9-28.4c7.8-5.8,16.6-6.8,25.5-2.9
		c8.9,3.9,14.1,11,15,20.8c0.4,4.9,0.1,9.9,0.1,15.1c4.6,0,8.6,0,13.4,0c0-5-0.3-10.1,0.1-15.2c0.8-12.5,11.6-22.5,24.4-22.9
		c12.8-0.4,24.2,8.9,25.9,21.3c2.3,16.1-8.9,29.3-25.4,29.8c-4,0.1-8,0-12.5,0c0,1.7,0,3.2,0,4.6c0,20.4,0,40.7,0,61.1
		c0,0.9,0,1.7,0,2.6c-0.1,5.5-2.3,8.3-6.5,8.3c-4.1,0-6.3-2.8-6.3-8.4c0-21.1,0-42.2,0-63.4c0-1.5,0-2.9,0-4.6c-4.3,0-8.3,0-12.8,0
		c0,1.4,0,2.9,0,4.3c0,20.5,0,41,0,61.5c0,1,0,2,0,3c-0.2,5-2.4,7.6-6.4,7.6c-4,0-6.4-2.7-6.4-7.6c-0.1-12.5,0-25,0-37.5
		C134.3,200.4,134.3,190,134.3,179.2z M134.2,166.3c0-4.5,0.2-8.9,0-13.2c-0.3-7-5.6-12-12.3-12.2c-6.9-0.1-12.5,4.8-13.1,11.8
		c-0.6,6.5,4.1,12.7,10.9,13.5C124.4,166.7,129.1,166.3,134.2,166.3z M172.9,166.7c5.7-0.3,11.1-0.1,16.3-1.1
		c6.2-1.2,9.9-7.6,8.9-13.8c-1-6.7-6.3-11.1-13-11c-6.4,0.2-11.7,5-12.1,11.5C172.7,156.8,172.9,161.4,172.9,166.7z"/>
	<path d="M233.6,26.7c-0.4,1-0.8,2.5-1.6,3.9c-3.7,6.5-7.4,13-11.2,19.4c-2.6,4.4-6.1,5.7-9.5,3.8c-3.4-1.9-4-5.7-1.5-10.1
		c3.8-6.7,7.7-13.4,11.6-20.1c1.6-2.8,4-4.4,7.5-3.5C231.8,20.8,233.2,23,233.6,26.7z"/>
	<path d="M25,73c2.4,1,4,1.4,5.4,2.2c6.6,3.7,13.2,7.5,19.8,11.4c4.2,2.5,5.5,5.8,3.6,9.3c-1.9,3.6-5.6,4.2-10,1.7
		c-6.8-3.9-13.6-7.8-20.4-11.8c-2.9-1.7-4.5-4.5-3.1-7.6C21.1,76.1,23.4,74.7,25,73z"/>
	<path d="M81.2,19.7c1,0.8,3.4,2,4.6,3.9C90,30.4,94,37.5,98,44.6c2,3.7,1.1,7.4-2,9.2c-3.2,1.8-6.8,0.9-9-2.7
		c-4.2-7.1-8.4-14.2-12.3-21.4C72.1,24.9,74.9,19.9,81.2,19.7z"/>
	<path d="M287.3,81.3c-0.7,0.9-1.7,3.2-3.5,4.3c-7.1,4.4-14.4,8.5-21.7,12.6c-3.3,1.8-6.8,0.9-8.6-1.9c-1.9-3-1.3-6.8,2-8.8
		c7.4-4.5,15-9,22.7-13C282.6,72.1,287.3,75.3,287.3,81.3z"/>
	<path d="M54.5,215.9c-0.7,0.8-1.7,3-3.4,4.1c-7.1,4.4-14.4,8.5-21.7,12.6c-3.5,1.9-7,0.9-8.8-2.1c-1.8-2.9-0.9-6.7,2.4-8.8
		c7.3-4.4,14.6-8.7,22-12.7C49.7,206.5,54.7,209.6,54.5,215.9z"/>
	<path d="M280.1,233.4c-0.7-0.3-2.3-0.8-3.7-1.6c-6.5-3.7-13-7.4-19.4-11.2c-4.4-2.6-5.7-6.1-3.5-9.6c2-3.3,5.7-3.9,9.8-1.5
		c6.8,3.9,13.6,7.8,20.4,11.8c3,1.8,4.4,4.5,3.3,7.9C286.1,232.1,283.9,233.4,280.1,233.4z"/>
	<path d="M19,159.9c-4.1,0-8.2,0.1-12.3,0c-4-0.1-6.6-2.7-6.6-6.2c-0.1-3.2,2.4-6.3,6.1-6.4c8.7-0.3,17.4-0.3,26.1,0
		c4,0.1,6.2,3.1,6,6.7c-0.2,3.4-2.6,5.7-6.5,5.8C27.4,160,23.2,159.9,19,159.9z"/>
	<path d="M287.7,159.9c-4,0-8,0.1-12,0c-4.2-0.1-6.6-2.4-6.8-6c-0.2-3.7,2.3-6.6,6.5-6.7c8.3-0.2,16.7-0.2,25,0
		c4.1,0.1,6.8,3.1,6.7,6.6c-0.1,3.6-2.8,6-7.1,6.1C295.9,160,291.8,159.9,287.7,159.9z"/>
</g>
</svg>
