<?xml version="1.0" encoding="utf-8"?>
<!-- Generator: Adobe Illustrator 22.1.0, SVG Export Plug-In . SVG Version: 6.00 Build 0)  -->
<svg version="1.1" id="Слой_1" xmlns="http://www.w3.org/2000/svg" xmlns:xlink="http://www.w3.org/1999/xlink" x="0px" y="0px"
	 viewBox="0 0 344 312.1" style="enable-background:new 0 0 344 312.1;" xml:space="preserve">
<g>
	<path d="M0,155.7c0-37.1-0.1-74.2,0-111.4C0.1,23.2,13.7,6,34.2,1.2c3.4-0.8,6.9-1.1,10.4-1.1C86.8,0,129.1,0,171.3,0
		c24.8,0,44,18.8,44.6,43.6c0.3,10.5,0.1,21,0,31.5c-0.1,7.7-5.2,12.9-12.2,12.7c-6.9-0.1-11.6-5.3-11.6-12.9
		c-0.1-9.7,0-19.5,0-29.2C192,32.3,183.7,24,170.3,24c-41.5,0-83,0-124.5,0C32.2,24,24,32,24,45.6c0,73.6,0,147.2,0,220.9
		c0,13.5,8.2,21.6,21.8,21.6c41.5,0,83,0,124.5,0c13.4,0,21.7-8.3,21.7-21.8c0-9.6,0-19.2,0-28.9c0-7.8,4.8-13.2,11.7-13.2
		c7.1-0.1,12.2,5.3,12.2,13.2c0,12,0.4,24-0.6,36c-1.8,21.3-20.5,38.4-41.9,38.6c-43.6,0.3-87.2,0.3-130.9,0
		C19,311.7,0.2,292,0.1,267.9C-0.1,230.5,0,193.1,0,155.7z"/>
	<path d="M302.9,168c-2.4,0-3.9,0-5.4,0c-73,0-146,0-219,0c-2,0-4-0.1-5.9-0.6c-5.6-1.6-9.1-6.9-8.5-12.5
		c0.6-5.8,5.3-10.3,11.2-10.8c1.4-0.1,2.7,0,4.1,0c72.7,0,145.5,0,218.2,0c1.5,0,2.9,0,5.2,0c-1.3-1.5-2.2-2.5-3.1-3.4
		c-13.1-13.1-26.1-26.2-39.2-39.2c-3.6-3.6-4.9-7.8-3.5-12.7c1.3-4.4,4.5-7.2,9-8.1c4.1-0.9,7.8,0.2,10.7,3.1
		c21.3,21.3,42.7,42.5,63.9,63.9c4.9,4.9,4.8,11.9-0.1,16.8c-21.2,21.4-42.5,42.7-63.9,63.9c-4.9,4.8-12.2,4.7-16.9,0.1
		c-4.8-4.7-4.9-12,0.2-17.1c13.2-13.3,26.5-26.5,39.7-39.8C300.4,170.6,301.3,169.6,302.9,168z"/>
</g>
</svg>
