<?xml version="1.0" encoding="utf-8"?>
<!-- Generator: Adobe Illustrator 22.1.0, SVG Export Plug-In . SVG Version: 6.00 Build 0)  -->
<svg version="1.1" id="Слой_1" xmlns="http://www.w3.org/2000/svg" xmlns:xlink="http://www.w3.org/1999/xlink" x="0px" y="0px"
	 viewBox="0 0 392.1 297.9" style="enable-background:new 0 0 392.1 297.9;" xml:space="preserve">
<g>
	<path d="M0,44c0.8-3.2,1.4-6.5,2.4-9.6C8.8,14.7,26.5,0.5,47.3,0.3c55.4-0.4,110.8-0.5,166.2,0.1c24.7,0.2,45.5,22.1,46.2,46.9
		c0.3,11.4,0.2,22.7,0.1,34.1c0,5.9-4.2,10.2-9.7,10.2c-5.5,0-9.7-4.1-9.8-10c-0.1-10,0-19.9-0.1-29.9c-0.1-15.7-8.2-26.9-22.5-30.8
		c-3.1-0.9-6.5-1.2-9.8-1.2c-52.1-0.1-104.1-0.1-156.2,0c-15.8,0-27.3,8.5-31.1,23.1c-0.7,2.6-0.9,5.3-0.9,7.9
		c0,65.5-0.1,131,0,196.4c0,15.2,8.4,26.2,22.4,30c3.1,0.9,6.5,1.2,9.8,1.2c51.9,0.1,103.9,0.1,155.8,0c16.1,0,27.6-8.5,31.4-23.3
		c0.8-3,0.9-6.3,0.9-9.5c0.1-9.6,0-19.1,0.1-28.7c0.1-6.3,4.2-10.5,9.8-10.5c4.5,0,9.5,3.4,9.5,7.8c0,15.9,2.4,32-1.7,47.6
		c-5.2,20.2-23.9,35.1-44.7,35.8c-12.2,0.4-24.5,0.2-36.8,0.2c-41.5,0-83,0-124.4,0c-19.9,0-35.4-8.1-45.3-25.4
		c-3.2-5.6-4.5-12.4-6.6-18.6C0,183.9,0,113.9,0,44z"/>
	<path d="M358.7,158.8c-2.4,0-3.8,0-5.1,0c-58.5,0-116.9,0-175.4,0c-8.4,0-13.2-3.7-13.1-10c0.1-6.2,4.8-9.8,13-9.8
		c58.3,0,116.7,0,175,0c1.5,0,3,0,5.5,0c-1.5-1.5-2.4-2.5-3.3-3.4c-15.2-15.2-30.4-30.3-45.4-45.5c-1.6-1.7-3.1-3.8-3.8-6
		c-1.3-4,0.4-8.1,3.8-10.4c3.2-2.2,8-2.1,11.2,0.2c1.1,0.8,2.1,1.8,3.1,2.8c21,21,42.1,42,63.1,63.1c6.5,6.5,6.5,11.5,0.1,18
		c-21.2,21.2-42.4,42.4-63.6,63.7c-2.4,2.5-5.1,4.3-8.7,4.2c-3.9-0.1-7-1.8-8.6-5.4c-1.6-3.5-1.3-7,1.1-10.1
		c0.9-1.2,2.1-2.3,3.1-3.3C326.4,191.1,342.1,175.4,358.7,158.8z"/>
</g>
</svg>
