<?xml version="1.0" encoding="utf-8"?>
<!-- Generator: Adobe Illustrator 22.1.0, SVG Export Plug-In . SVG Version: 6.00 Build 0)  -->
<svg version="1.1" id="Слой_1" xmlns="http://www.w3.org/2000/svg" xmlns:xlink="http://www.w3.org/1999/xlink" x="0px" y="0px"
	 viewBox="0 0 409.6 409.7" style="enable-background:new 0 0 409.6 409.7;" xml:space="preserve">
<g>
	<path d="M168.8,0c7.7,0,15.5,0,23.2,0c1.2,0.2,2.3,0.6,3.5,0.7c19.7,1.5,38.8,5.9,56.6,14.3c64.7,30.4,101.2,81.1,108,152.4
		c3.1,32.7-3.4,64-18.4,93.2c-6.3,12.3-14.3,23.6-21.9,36.1c0.4,0.3,1.8,1.2,2.9,2.3c26.1,26.1,52.3,52.1,78.3,78.4
		c3.5,3.5,5.8,8.1,8.7,12.1c0,2.4,0,4.8,0,7.2c-0.2,0.3-0.6,0.5-0.7,0.8c-5.4,13.2-18.7,16-28.8,5.9c-23.5-23.4-47-46.9-70.4-70.4
		c-4.6-4.6-9.1-9.3-13.8-14.1c-1.4,1.1-2.6,2-3.7,2.8c-42.8,32.8-90.8,45.2-144,35.8C66,343.2,4,272.4,0.2,189
		C-1.4,153,6.7,119.1,25.5,88.3c28.2-46.1,68.9-74.6,122-85.1C154.6,1.8,161.7,1,168.8,0z M327.4,180.2
		C327.1,99,260.8,32.9,180.1,33.4C98.8,33.9,33.5,99.3,33.4,180.3c-0.1,80.9,66.1,147.1,147,147C261.5,327.3,327.6,261,327.4,180.2z
		"/>
</g>
</svg>
