<?xml version="1.0" encoding="utf-8"?>
<!-- Generator: Adobe Illustrator 22.1.0, SVG Export Plug-In . SVG Version: 6.00 Build 0)  -->
<svg version="1.1" id="Слой_1" xmlns="http://www.w3.org/2000/svg" xmlns:xlink="http://www.w3.org/1999/xlink" x="0px" y="0px"
	 viewBox="0 0 383.8 336.1" style="enable-background:new 0 0 383.8 336.1;" xml:space="preserve">
<g>
	<path d="M383.8,119.6c-1.6,8-2.7,16.2-4.9,24.1c-7.6,26.4-21.9,49.1-38.9,70.3c-29.8,37.1-65.7,67.8-104.2,95.4
		c-11.6,8.3-23.6,15.9-35.4,23.9c-5.6,3.8-10.9,3.7-16.7,0.1c-49.3-31.1-94.8-66.7-133.1-111c-19-22-35-45.8-44.4-73.6
		C-13.5,90.1,14.9,28.1,72.3,7.5c43.4-15.6,82.6-6.4,116.5,24.9c0.8,0.8,1.6,1.6,2.4,2.3c0.1,0.1,0.2,0.1,0.7,0.4
		c0.8-0.7,1.6-1.6,2.5-2.4C227,2.4,265-7.8,307.2,6.1c42.3,13.9,67.3,44.5,75.3,88.5c0.5,2.8,0.9,5.6,1.3,8.4
		C383.8,108.6,383.8,114.1,383.8,119.6z M359.9,109.7c-0.1-1.8-0.3-4.9-0.7-8C353,44.6,293.6,9.1,240.4,30.6
		c-15.4,6.2-28,16.1-37.9,29.6c-4.1,5.6-9.2,7.8-14.5,5.4c-2.8-1.3-5.4-3.6-7.3-6.1C149.8,18.2,90.4,12.4,52.3,47.1
		c-27,24.5-35.4,61.6-22.1,97.9c8.5,23.2,22.4,43.2,38.4,61.7c35,40.5,76.9,73,121.4,102.4c2,1.3,3.1,0.4,4.6-0.5
		c31-20.3,60.5-42.6,87.6-67.8c23-21.3,44.1-44.3,59.9-71.6C352.5,151.2,359.6,132.2,359.9,109.7z"/>
</g>
</svg>
