<?xml version="1.0" encoding="utf-8"?>
<!-- Generator: Adobe Illustrator 22.1.0, SVG Export Plug-In . SVG Version: 6.00 Build 0)  -->
<svg version="1.1" id="Слой_1" xmlns="http://www.w3.org/2000/svg" xmlns:xlink="http://www.w3.org/1999/xlink" x="0px" y="0px"
	 viewBox="0 0 384.1 344.2" style="enable-background:new 0 0 384.1 344.2;" xml:space="preserve">
<g>
	<path d="M384.1,39.9c-2.1,4.5-5.4,7.4-11.2,6.9c0,1.8,0,3.2,0,4.7c0,36.5,0,73,0,109.5c0,9.1-3.3,12.3-12.5,12.3
		c-21.6,0-43.2,0-64.9,0c-1.5,0-3,0-4.4,0c-1.6,5.9-1.2,7,3.5,10.1c6.5,4.3,9.4,12.4,7.1,19.7c-2.3,7.5-9,12.5-16.8,12.5
		c-7.7,0-14.4-4.8-16.8-12c-2.4-7.3,0.3-15.5,6.6-19.9c4.8-3.4,4.8-3.4,4.2-10.4c-1.1,0-2.3,0-3.5,0c-17,0-34,0-51,0
		c-2.3,0-3.9,0.6-5.3,2.6c-7.3,9.9-14.8,19.8-22.4,29.9c9,8.9,9.8,20.1,9.7,31.7c-0.2,30.1-0.1,60.2-0.1,90.4c0,6.8-1.6,8.4-8.4,8.4
		c-46.4,0-92.7,0.1-139.1-0.1c-4.8,0-8.8,1-13,3.4c-10.8,6.1-22,6.3-32.7-0.2c-8.4-5.1-12.8-13.1-12.8-22.8
		c-0.2-29.4-0.2-58.7,0-88.1c0.1-17.7,14.1-32,31.8-32.5c13.2-0.4,26.5-0.1,39.7-0.1c1.5,0,3,0,5.1,0c0-4.7,0-9.1,0-13.6
		c0-1.6-0.2-3.3,0-4.9c0.5-3.7-0.8-6-4-8.2c-10.6-7.4-17.1-17.6-19.5-30.4c-0.2-1.1-0.5-2.2-0.8-3.6c-2.9,0-5.7,0.1-8.6,0
		c-8.8-0.2-15.5-4-19-12.1c-3.5-8.1-1.9-15.6,4-22.2c0.9-1,1.5-2.6,1.5-3.9c0.2-4.6,0-9.2,0.1-13.9c0.1-4.3,2.4-7,5.7-6.9
		c3.3,0.1,5.4,2.6,5.5,6.7c0.1,3.8,0,7.7,0,11.7c3.7,0,7,0,10.8,0c0-1.5,0-2.9,0-4.2c0-10-0.1-20,0-30c0.1-10.5,7.2-17.5,17.6-17.9
		c7.2-0.3,13.9,0.9,20.6,4.2c15.4,7.8,32,11,49.3,10.5c9.8-0.3,13.9,3.7,13.9,13.6c0,7.6,0,15.2,0.1,22.9c0,0.2,0.2,0.4,0.3,0.9
		c3.2,0,6.5,0,10,0c0.1-0.7,0.2-1.3,0.2-1.8c0-16.2,0.2-32.5-0.1-48.7c-0.3-18.8-14.4-32.4-33.1-32.5c-12.9-0.1-25.7,0-38.6,0
		c-8.4,0-14.7,3.8-18.5,11.2c-1.7,3.3-3.9,4.8-7.7,4.7c-3.7-0.1-7.6-0.1-11.2,0.6C48,29.4,42.7,35.4,41.9,43
		c-0.4,3.8-0.2,7.7-0.3,11.6c-0.1,4.2-2.2,6.5-5.7,6.4c-3.3-0.1-5.5-2.3-5.4-6.3c0-5.2-0.2-10.6,0.8-15.7c2.7-13.7,14.7-23,28.9-23
		c3.3,0,5.3-0.8,7.4-3.6c5.9-8,14.1-12.2,24.1-12.3c13.9-0.2,27.7-0.2,41.6,0c22.5,0.3,41.7,18.8,42.4,41.4
		c0.5,18.1,0.1,36.2,0.3,54.4c0,1.8,0.9,3.8,2,5.2c5.4,6.6,7,13.8,3.7,21.7c-3.3,7.9-9.7,11.8-18.2,12.3c-3.1,0.2-6.2,0-9.6,0
		c-0.4,1.9-0.7,3.6-1.1,5.2c-3,12.6-9.8,22.6-20.6,29.7c-2.1,1.4-2.8,2.8-2.7,5.1c0.1,6.6,0.1,13.2,0.1,20
		c19.4,2.1,38.9-2.4,58.4,3.3c5.9-7.9,12.2-16.2,18.6-24.7c-0.6-0.3-0.9-0.5-1.2-0.5c-7.5-1.2-10-4.2-10.1-11.8c0-12.5,0-25,0-37.5
		c0-24.1,0-48.2,0-72.4c0-1.5,0-2.9,0-4.3c-9.4-1.9-11.2-4.1-11.2-13.6c0-2-0.1-4,0-6c0.3-6.3,3.8-9.8,10.2-10.1c0.7,0,1.5,0,2.2,0
		c58.5,0,117,0,175.5-0.1c5.7,0,10,1.7,12.1,7.3C384.1,29.9,384.1,34.9,384.1,39.9z M206.7,161.6c5.7,1.4,9.7,0.3,12.9-4.9
		c3.4-5.6,7.8-10.7,11.9-15.9c2.1-2.7,5.5-3,8-1.1c2.4,1.9,2.8,4.8,1,7.7c-0.7,1.2-1.6,2.2-2.4,3.3c-2.6,3.5-5.3,7.1-8.2,11
		c44.3,0,88,0,131.6,0c0-38.4,0-76.4,0-114.7c-51.6,0-103,0-154.6,0C206.7,85.4,206.7,123.4,206.7,161.6z M103.1,212.3
		c-2.8,4.7-5.4,9.1-8,13.5c-4.3,7.2-10.2,8.1-16.4,2.7c-3.5-3-6.9-6.1-10.4-9.1c-4.7-4.1-8.9-9.7-14.4-11.8
		c-5.5-2.1-12.3-0.6-18.6-0.6c-15,0-24,9-24,24c0,27.4,0,54.7,0,82.1c0,13.5,7.1,20.4,20.7,19.3c3.1-0.3,6.3-1.6,9.1-3.1
		c15.5-8.8,31-17.8,46.4-26.7c4.6-2.7,8-2.3,9.8,0.9c1.8,3.2,0.4,6.2-4.3,8.9c-5.9,3.4-11.9,6.9-17.8,10.3c-0.9,0.5-1.7,1.1-2.9,1.9
		c29.7,0,58.8,0,88.2,0c0-10.2,0-20,0-29.9c0-4.3,1.9-6.6,5.4-6.7c3.6-0.1,5.7,2.3,5.8,6.7c0.1,2.9,0,5.7,0,8.6c0,7.1,0,14.2,0,21.2
		c8,0,15.5,0,23.2,0c0-32.6,0.1-65-0.1-97.4c0-4.5-1.6-8.7-5.2-12.3c-6.5,8.6-12.9,17-19,25.4c-0.6,0.8-0.4,2.6,0,3.6
		c4.4,11.2,0.8,22.7-9.6,28.9c-13.7,8.2-27.6,16.1-41.5,24c-3.6,2-6.8,1.4-8.5-1.4c-1.8-3-0.7-6.1,3-8.4c3.7-2.2,7.5-4.4,11.3-6.6
		c-4-6.9-7.7-13.3-11.6-20.1c-1.6,0.9-3,1.6-4.4,2.4c-21.6,12.5-43.2,25-64.9,37.4c-5.5,3.2-9.8,0.8-9.8-5.5c-0.1-7.9,0-15.7,0-23.6
		c0-4.3,2.3-6.9,5.7-6.9c3.5,0.1,5.5,2.6,5.5,7c0,4.8,0,9.6,0,15c1.6-0.9,2.7-1.4,3.8-2c27.8-16,55.7-31.9,83.3-48.2
		c9.3-5.5,18.4-8.4,28.5-2.6c6.4-8.5,12.6-16.7,19.3-25.7c-3.3-0.4-5.8-0.9-8.4-1c-5.7-0.1-11.5-0.2-17.2,0c-1.8,0.1-3.9,0.8-5.3,2
		c-7.4,6.2-14.5,12.6-21.7,19c-6.9,6.1-12.5,5.2-17.2-2.5C108.4,221.2,105.9,216.9,103.1,212.3z M142.5,68.4c-2,0-3.5,0-5,0
		c-18.3,0.1-35.8-3.5-52.1-11.7c-5-2.5-9.9-3.2-15.2-3c-4.4,0.2-6.6,2.4-6.6,6.9c0,23.6-0.1,47.2,0.1,70.8
		c0.1,10,4.3,18.4,11.4,25.2c8.8,8.5,19.6,10.7,31.4,10.2c19.9-0.8,35.7-16.4,36-36.4c0.2-19.9,0.1-39.7,0.1-59.6
		C142.6,70.2,142.5,69.4,142.5,68.4z M195.5,35.3c59.2,0,118.1,0,177.1,0c0-2.2,0-4.1,0-6.2c-59.1,0-118,0-177.1,0
		C195.5,31.2,195.5,33,195.5,35.3z M123.4,254.9c4,7,7.8,13.5,11.7,20.2c7.3-4.3,14.3-8.1,21-12.3c5.3-3.4,6.6-10.2,3.4-15.5
		c-3.1-5.1-9.7-7.3-15-4.4C137.5,246.6,130.7,250.7,123.4,254.9z M118,195.4c0-6.4,0-12.4,0-18c-10.1,0-19.9,0-29.8,0
		c0,5.7,0,11.7,0,18C98.1,195.4,107.9,195.4,118,195.4z M52.1,106c-3.4,0-6.5-0.2-9.6,0c-4.8,0.4-8.1,4-8.2,8.5
		c-0.1,4.6,2.9,8.5,7.7,9c3.3,0.4,6.6,0.1,10.2,0.1C52.1,117.8,52.1,112.1,52.1,106z M154,123.8c3.5,0,6.6,0.2,9.7,0
		c4.5-0.4,7.8-3.7,8.2-7.8c0.4-4.5-1.9-8.5-6.2-9.3c-3.8-0.7-7.7-0.5-11.6-0.7C154,112.2,154,117.7,154,123.8z M134.7,207.3
		c-7.6,0-14.3,0-21.4,0c2.6,4.3,4.9,8.2,7.4,12.3C125.4,215.4,129.7,211.6,134.7,207.3z M93,207.2c-7.3,0-14,0-21.5,0
		c5.1,4.4,9.5,8.3,14.1,12.4C88.2,215.3,90.4,211.5,93,207.2z M284.9,191.7c-3.4-0.1-6.5,2.9-6.5,6.4c0,3.4,2.7,6.2,6.1,6.3
		c3.7,0.1,6.5-2.5,6.6-6.1C291.2,194.7,288.4,191.7,284.9,191.7z"/>
	<path d="M103.1,149.6c-5.3,0.2-10-1.4-14.1-4.8c-3.1-2.6-3.6-5.9-1.5-8.5c2.1-2.5,5.1-2.7,8.3-0.4c4.9,3.4,9.7,3.5,14.5,0.1
		c3.3-2.4,6.5-2.2,8.6,0.5c2,2.7,1.4,5.8-1.8,8.5C113,148.3,108.4,149.8,103.1,149.6z"/>
</g>
</svg>
