<?xml version="1.0" encoding="utf-8"?>
<!-- Generator: Adobe Illustrator 22.1.0, SVG Export Plug-In . SVG Version: 6.00 Build 0)  -->
<svg version="1.1" id="Слой_1" xmlns="http://www.w3.org/2000/svg" xmlns:xlink="http://www.w3.org/1999/xlink" x="0px" y="0px"
	 viewBox="0 0 384 268.7" style="enable-background:new 0 0 384 268.7;" xml:space="preserve">
<g>
	<path d="M384,138.1c-1.7,3.1-3.1,6.5-5.3,9.3c-3.4,4.2-8.2,5.9-13.6,6.2c-1.6,0.1-3.2,0-4.9,0c-112.6,0-225.2,0-337.8,0
		c-3.2,0-6.6-0.3-9.6-1.2c-8.4-2.7-13.6-11.1-12.8-19.8c0.8-8.7,7.6-15.8,16.4-17c2.1-0.3,4.2-0.3,6.4-0.3
		c112.4,0,224.7,0.1,337.1-0.1c11.9,0,20.3,3.9,24.1,15.6C384,133.1,384,135.6,384,138.1z"/>
	<path d="M384,22.6c-2.4,7.8-6.9,13.5-15.3,15.3c-1.7,0.4-3.5,0.5-5.2,0.5c-82.4,0-164.7,0-247.1,0c-10.5,0-18.3-6.3-20.1-16
		c-1.6-8.7,3.5-17.9,12-21c2.4-0.9,5.1-1.3,7.7-1.3C198.7,0,281.4,0,364.2,0c9.4,0,15.9,4.7,19,13.5c0.2,0.5,0.5,1,0.8,1.6
		C384,17.6,384,20.1,384,22.6z"/>
	<path d="M384,253.6c-1.1,2.2-1.9,4.6-3.3,6.6c-3.8,5.7-9.3,8.5-16.2,8.5c-16.9,0-33.7,0-50.6,0c-40.3,0-80.7,0-121,0
		c-10.5,0-18.4-6.5-19.8-16.2c-1.7-11.5,6.8-21.8,18.4-22.1c6.2-0.2,12.5,0,18.7,0c50.1,0,100.2,0,150.3,0
		c13.7,0,18.3,3.1,23.5,15.8C384,248.6,384,251.1,384,253.6z"/>
</g>
</svg>
