<?xml version="1.0" encoding="utf-8"?>
<!-- Generator: Adobe Illustrator 22.1.0, SVG Export Plug-In . SVG Version: 6.00 Build 0)  -->
<svg version="1.1" id="Слой_1" xmlns="http://www.w3.org/2000/svg" xmlns:xlink="http://www.w3.org/1999/xlink" x="0px" y="0px"
	 viewBox="0 0 360 324" style="enable-background:new 0 0 360 324;" xml:space="preserve">
<style type="text/css">
	.st0{fill:#E85222;}
	.st1{fill:#434142;}
	.st2{enable-background:new    ;}
</style>
<g>
	<path class="st0" d="M286.7,288c9.8,0,19,0,28.2,0c1.2,0,2.5-0.1,3.7,0.1c3.2,0.5,5.2,2.5,5.3,5.8c0,3.3-1.9,5.3-5.1,6
		c-1.2,0.2-2.5,0.1-3.7,0.1c-90,0-180,0-270,0c-6.2,0-9-1.9-9-5.9c0-4.1,2.8-6.1,8.9-6.1c9.2,0,18.5,0,28.3,0
		C48,250.7,41,210.9,54.9,168.3c9.5-29.3,27.7-52.4,53.5-69.2c51.8-33.6,119.6-26.6,163.9,16.5C316.1,158.3,327.4,230.4,286.7,288z
		 M180,288c29.2,0,58.5,0,87.7,0c2.5,0,4.1-0.6,5.7-2.6c21.4-27.5,30.2-58.5,25.2-93.1c-10.3-70.8-80.7-117-149.7-98.2
		C65.4,116.8,32.5,216.9,86.2,284.8c1.8,2.2,3.5,3.3,6.5,3.2C121.8,287.9,150.9,288,180,288z"/>
	<path class="st1" d="M12.2,276c0,12.2,0,23.9,0,35.8c111.9,0,223.5,0,335.5,0c0-11.7,0-23.5,0-35.8c-1.2,0-2.5,0-3.9,0
		c-10.1,0-20.2,0-30.4,0c-4.7,0-7.5-2.3-7.4-6c0-3.7,2.8-5.9,7.5-6c13,0,26,0,39,0c5.4,0,7.5,2.1,7.5,7.5c0,15,0,30,0,45
		c0,5.4-2.1,7.5-7.5,7.5c-115,0-230,0-344.9,0c-5.4,0-7.5-2.1-7.5-7.5c0-15,0-30,0-45c0-5.4,2.1-7.5,7.4-7.5c13,0,26,0,39,0
		c4.8,0,7.5,2.2,7.5,5.9c0,3.7-2.7,6-7.4,6C35.2,276,23.8,276,12.2,276z"/>
	<path class="st1" d="M186,27.3c0,6.5,0,13,0,19.5c0,4.4-2.3,7.1-6,7.1c-3.6,0-6-2.7-6-7.1c0-13.2,0-26.5,0-39.7
		c0-4.4,2.3-7.1,5.9-7.1c3.6,0,6,2.7,6,7.1C186,13.8,186,20.6,186,27.3z"/>
	<path class="st1" d="M78,75.2c0,4.6,0,9.2,0,13.9c-0.1,4.1-2.4,6.8-5.9,6.9c-3.6,0-6.1-2.7-6.1-7c0-9.4-0.1-18.7,0-28.1
		c0-4.2,2.3-6.8,5.8-6.9c3.7-0.1,6.1,2.6,6.1,7C78.1,65.7,78,70.5,78,75.2z"/>
	<path class="st1" d="M294,75c0,4.7,0.1,9.5,0,14.2c-0.1,4.1-2.5,6.7-6,6.7s-5.9-2.6-6-6.7c-0.1-9.5-0.1-19,0-28.5
		c0-4.1,2.4-6.7,6-6.7c3.5,0,5.9,2.6,6,6.7C294.1,65.5,294,70.2,294,75z"/>
</g>
<g class="st2">
	<path class="st0" d="M136.3,203.4H150v-60.6c4.9-1,10-1.8,15.6-2.2c5.5-0.4,11-0.6,16.6-0.6c6,0,11.9,0.6,17.5,1.7
		c5.7,1.1,10.7,3,15.1,5.8c4.4,2.8,7.9,6.6,10.6,11.4c2.7,4.8,4,10.9,4,18.3c0,7.2-1.4,13.2-4.2,18.1c-2.8,4.9-6.5,8.8-11,11.8
		c-4.5,3-9.7,5.2-15.5,6.5c-5.8,1.3-11.6,2-17.6,2h-14.9v12.7H198v12.2h-31.6v22.8H150v-22.8h-13.7v-12.2H150v-12.7h-13.7V203.4z
		 M182.7,154.2c-3.2,0-6.3,0.1-9.3,0.3c-3,0.2-5.4,0.5-7.1,0.7v48.1h14.1c3.8,0,7.5-0.4,11.3-1.1c3.8-0.8,7.1-2.1,10.1-4.1
		c3-2,5.4-4.6,7.3-8c1.9-3.4,2.8-7.6,2.8-12.7c0-4.5-0.8-8.3-2.3-11.2c-1.5-3-3.6-5.3-6.3-7.1c-2.6-1.8-5.8-3.1-9.3-3.8
		C190.5,154.6,186.7,154.2,182.7,154.2z"/>
</g>
</svg>
