<?xml version="1.0" encoding="utf-8"?>
<!-- Generator: Adobe Illustrator 22.1.0, SVG Export Plug-In . SVG Version: 6.00 Build 0)  -->
<svg version="1.1" id="Слой_1" xmlns="http://www.w3.org/2000/svg" xmlns:xlink="http://www.w3.org/1999/xlink" x="0px" y="0px"
	 viewBox="0 0 409.6 409.6" style="enable-background:new 0 0 409.6 409.6;" xml:space="preserve">
<g>
	<path d="M355.7,339.8c-3.6,0.1-6.1,2.8-6.3,7.3v36.7c0,6.7-2.4,10.7-7.5,12.2c-2,0.6-4.2,0.7-6.3,0.7h-270c-1.2,0-2.4,0-3.6-0.1
		c-5.8-0.6-9.7-4.6-10-10.5c-0.1-1.6-0.1-3.2-0.1-4.8V114.1c0-1.9-0.1-4-0.5-5.9c-0.7-3.2-3.1-4.7-6.2-4.6c-3,0.1-5.3,1.7-5.9,4.9
		c-0.4,2-0.4,4-0.4,6v256c-6.1,0-11.7,0.3-17.2-0.1c-4-0.3-6.7-3.1-7.9-7c-0.6-1.9-0.7-3.9-0.7-5.9V51.9c0-1.2-0.1-2.4,0.1-3.6
		c0.7-4.7,3.9-8.7,8.3-9.1c5.7-0.5,11.4-0.1,17.5-0.1V44c0,13.1,0,26.1,0.1,39.2c0.1,4.5,2.7,7.2,6.4,7.2c3.7,0.1,6.2-2.7,6.5-7.1
		c0.1-1.1,0-2.1,0-3.2V26.9c0-10.3,3.6-14,13.8-14h269.6c10.2,0,14,3.7,14,13.9c0,63.6,0,127.1-0.1,190.7c3.9-3.9,8.6-6.9,13.7-8.7
		c0.1-1.8,0.2-3.7,0.2-5.5c-0.3,0.3-0.7,0.6-1.1,0.9V29.9c0-17.8-3.7-23.4-19.8-29.9h-284c-1,0.4-1.9,0.9-2.9,1.2
		C47,4,41.7,9.7,39.5,18.2c-0.6,2.3-0.7,4.9-1.1,7.6H33c-3.5,0-7-0.2-10.4,0.2C8.5,27.5,0,36.9,0,51.1v307.6c0,0.8,0,1.6,0.1,2.4
		c0.7,11.9,9.2,21.1,21.2,22.4c5.7,0.5,11.4,0.1,17,0.1c0.3,1.2,0.5,1.7,0.6,2.2c2.5,17,10.5,23.9,27.9,23.9H336
		c16.5,0,26.3-9.8,26.3-26.4v-18.7c0-5.9,0.1-11.7-0.1-17.6C362.1,342.6,359.3,339.8,355.7,339.8z"/>
	<path d="M200.4,90.5c-30.4,0-60.8,0-91.2,0c-1.5,0-3,0.1-4.4-0.1c-3.3-0.5-5.3-2.6-5.5-5.9s1.6-5.6,4.8-6.5
		c1.4-0.4,2.9-0.4,4.4-0.4c61.4,0,122.9,0,184.3,0c1.5,0,3,0,4.3,0.4c3.2,1,4.8,3.3,4.5,6.6c-0.3,3.2-2.2,5.1-5.3,5.7
		c-1.4,0.3-2.9,0.2-4.4,0.2C261.4,90.5,230.9,90.5,200.4,90.5z"/>
	<path d="M174.8,163.9c21.9,0,43.7,0,65.6,0c1.3,0,2.7-0.1,4,0.1c3.3,0.5,5.3,2.5,5.5,5.8s-1.5,5.7-4.7,6.5
		c-1.5,0.4-3.2,0.4-4.8,0.4c-43.9,0-87.7,0-131.6,0c-0.3,0-0.5,0-0.8,0c-5.7,0-8.8-2.3-8.8-6.5s3-6.4,8.8-6.4
		C130.3,163.9,152.5,163.9,174.8,163.9z"/>
	<path d="M174.4,198.4c22,0,44,0,66,0c1.5,0,3-0.1,4.4,0.2c3.2,0.7,5.1,2.8,5.2,6.2c0,3.4-1.8,5.5-5.1,6.2c-1.4,0.3-2.9,0.2-4.4,0.2
		c-43.9,0-87.7,0-131.6,0c-6.5,0-9.6-2.1-9.6-6.4c0-4.4,3.1-6.5,9.6-6.5C130.7,198.4,152.5,198.4,174.4,198.4z"/>
	<path d="M153.3,293.1c14.6,0,29.3,0,43.9,0c1.7,0,3.5,0.1,5.1,0.5c2.9,0.7,4.9,3.2,4.3,5.9c-0.4,2.2-2.4,4.5-4.2,6
		c-1.1,0.9-3.3,0.7-5,0.7c-29.6,0-59.1,0-88.7,0c-0.8,0-1.6,0-2.4,0c-4.3-0.4-7.2-3-7.1-6.6s2.8-6.3,7.3-6.4
		c10.9-0.1,21.8-0.1,32.8-0.1C143.9,293.1,148.6,293.1,153.3,293.1z"/>
	<path d="M200.4,125c-14.6,0-29.3,0-43.9,0c-1.5,0-2.9,0-4.4-0.2c-3.2-0.5-5-2.6-5.3-5.7s1.2-5.5,4.2-6.5c1.6-0.5,3.4-0.6,5.1-0.6
		c29.6,0,59.1,0,88.7,0c0.5,0,1.1,0,1.6,0c4.9,0.1,8,2.6,7.9,6.6c0,4-2.9,6.3-8,6.3C231,125,215.7,125,200.4,125z"/>
	<path d="M122.9,327.7c5.3,0,10.6-0.1,16,0c4.9,0.1,7.6,2.4,7.7,6.3c0.1,3.9-2.7,6.6-7.4,6.6c-10.8,0.1-21.6,0.1-32.3,0
		c-4.6,0-7.6-2.8-7.5-6.6c0-3.8,2.9-6.3,7.6-6.3C112.2,327.7,117.5,327.7,122.9,327.7z"/>
	<path d="M291,176.7c-1.6,0-3.2,0.2-4.8,0c-3.5-0.4-5.9-3.1-5.9-6.4c0-3.4,2.6-6.1,6.3-6.3c2.8-0.2,5.6-0.1,8.3,0
		c4.1,0.2,6.7,2.7,6.7,6.4c0,3.6-2.5,6.2-6.7,6.4C293.7,176.8,292.4,176.8,291,176.7L291,176.7z"/>
</g>
<g>
	<g>
		<path d="M295.7,267.5c-8.8-8.7-17.2-17.2-25.7-25.6c-6.5-6.5-12.7-13.2-19.5-19.4c-11.2-10.2-9-23.8-1.8-30.9
			c7.1-7,20.4-9.1,30.9,2c13.7,14.4,28.1,28.3,42.2,42.4c0.8,0.8,1.4,1.9,2.2,3.1c1.5-1.4,2.3-2.1,3.1-3
			c14.7-14.7,29.4-29.5,44.1-44.1c11.3-11.1,29.4-7,34.2,7.7c2.6,8.2,0.5,15.3-5.5,21.4c-14.1,14.1-28.2,28.2-42.3,42.3
			c-1.3,1.3-2.7,2.4-4.2,3.9c1,1.1,1.8,2,2.6,2.8c14.7,14.7,29.5,29.4,44.1,44.1c10.7,10.8,7.5,28-6.1,33.7
			c-7.9,3.3-16.4,1.5-22.9-5c-14.5-14.5-29-28.9-43.4-43.4c-0.9-0.9-1.6-2-2.7-3.2c-1.2,1.1-2.1,1.9-2.9,2.7
			c-14.8,14.8-29.5,29.6-44.4,44.3c-10.3,10.2-26.7,7.6-32.9-5c-4-8.1-2.5-17.2,4.3-24.1c14.6-14.7,29.3-29.3,43.9-43.9
			C293.9,269.5,294.7,268.6,295.7,267.5z M249.1,328c0,7.2,4,12.8,9.9,14.5c5.8,1.7,10.6-0.1,14.8-4.3
			c15.7-15.7,31.4-31.4,47.1-47.1c3.3-3.3,4.2-3.3,7.6,0.1c15.3,15.3,30.6,30.6,45.9,45.9c0.8,0.8,1.5,1.5,2.3,2.2
			c8.3,7.4,21,3.2,23.2-7.6c1.1-5.3-0.8-9.6-4.6-13.3c-15.7-15.7-31.4-31.4-47.1-47.1c-3.4-3.4-3.4-4.2,0-7.6
			c15.3-15.3,30.6-30.6,45.9-45.9c0.8-0.8,1.7-1.6,2.4-2.5c7.1-8.1,3.1-20.5-7.4-22.9c-5.4-1.2-9.8,0.6-13.6,4.4
			c-15.6,15.6-31.2,31.2-46.8,46.8c-3.8,3.8-4.4,3.8-8.3-0.1c-15.2-15.2-30.3-30.3-45.5-45.5c-0.8-0.8-1.6-1.7-2.5-2.4
			c-4.1-3.6-8.9-4.6-14-2.8c-5,1.8-8.1,5.5-9.1,10.7c-1,5.3,1,9.5,4.7,13.3c15.6,15.5,31.1,31.1,46.6,46.6c3.8,3.8,3.8,4.5,0,8.3
			c-15.5,15.5-31.1,31.1-46.6,46.6C251.1,321.3,249.2,324.7,249.1,328z"/>
		<path d="M386.1,352.6c-6.2,0-12.2-2.6-17.1-7.5c-14-13.9-28-27.9-43.4-43.5c-0.3-0.3-0.6-0.6-0.9-1c-0.1,0.1-0.3,0.3-0.4,0.4
			c-4.7,4.7-9.4,9.4-14.2,14.2c-9.9,9.9-20.1,20.1-30.2,30.2c-5.6,5.6-13.2,8.1-20.8,6.8c-7.4-1.2-13.6-5.8-16.9-12.6
			c-4.6-9.3-2.8-19.8,4.9-27.5c9.9-9.9,19.8-19.8,29.7-29.7c4.7-4.7,9.5-9.5,14.2-14.2c0.2-0.2,0.4-0.4,0.6-0.6l-6.3-6.3
			c-5.8-5.8-11.6-11.5-17.3-17.3c-2.1-2.1-4.1-4.2-6.2-6.3c-4.3-4.4-8.7-8.9-13.2-13c-7.1-6.5-8.7-13.5-8.8-18.2
			c-0.1-6.4,2.4-12.6,6.9-17.1c4.3-4.2,10.2-6.7,16.3-6.7c0.1,0,0.2,0,0.3,0c4.8,0.1,11.8,1.6,18.6,8.7c9.3,9.7,19,19.4,28.4,28.7
			c4.5,4.5,9.2,9.1,13.7,13.7c0.2,0.2,0.4,0.4,0.6,0.6c0.2-0.2,0.3-0.3,0.5-0.5c4.6-4.6,9.3-9.3,13.9-13.9
			c9.9-9.9,20.1-20.1,30.2-30.2c6.1-6.1,14.6-8.5,22.7-6.6c7.8,1.9,13.9,7.7,16.4,15.5c2.9,9,0.7,17.4-6.3,24.4
			c-14.1,14.1-28.2,28.2-42.3,42.3c-0.7,0.7-1.4,1.3-2.1,2c0.1,0.2,0.3,0.3,0.4,0.5c4.8,4.8,9.5,9.5,14.3,14.3
			c9.8,9.8,19.9,19.9,29.8,29.9c5.8,5.9,8.4,14,6.8,21.8c-1.5,7.6-6.6,13.7-13.9,16.8C392.2,352,389.2,352.6,386.1,352.6z
			 M327.3,294.3L327.3,294.3c0.4,0.5,0.8,1,1.1,1.4c0.5,0.7,1,1.3,1.5,1.8c15.5,15.5,29.4,29.5,43.4,43.4c5.6,5.6,12.8,7.2,19.6,4.3
			c5.4-2.3,9.2-6.8,10.3-12.4c1.2-5.9-0.7-11.9-5.2-16.4c-9.9-10-20-20.1-29.8-29.9c-4.8-4.8-9.5-9.5-14.3-14.3
			c-0.6-0.6-1.1-1.1-1.7-1.8c-0.3-0.3-0.6-0.7-1-1l-2.1-2.2c-0.2,0.2-0.3,0.3-0.4,0.4c0.2,0.3,0.6,0.8,1.5,1.7l9.7,9.7
			c12.5,12.5,24.9,24.9,37.4,37.4c4.8,4.7,6.6,10.1,5.4,16c-1.2,6.1-5.4,11-11.2,12.9c-5.8,1.9-12.2,0.6-16.9-3.6
			c-0.7-0.6-1.4-1.3-2-1.9L357,324C347.1,314.1,337.2,304.2,327.3,294.3z M262.9,188.8c-4.5,0-8.9,1.8-12.1,4.9
			c-3.3,3.3-5.2,8-5.1,12.7c0.1,5.1,2.5,9.9,6.8,13.9c4.7,4.3,9.2,8.9,13.5,13.3c2,2.1,4.1,4.2,6.1,6.2c5.7,5.7,11.5,11.5,17.3,17.3
			l10.4,10.4l-3,3.1c-0.6,0.7-1.2,1.3-1.8,1.8c-4.7,4.7-9.5,9.5-14.2,14.2c-9.9,9.9-19.8,19.8-29.7,29.7c-5.9,5.9-7.3,13.6-3.8,20.6
			c2.5,5.1,7.1,8.5,12.6,9.4c5.6,0.9,11.3-0.9,15.6-5.2c10.1-10,20.3-20.2,30.2-30.1c4.7-4.7,9.4-9.5,14.2-14.2
			c0.6-0.6,1.1-1.1,1.8-1.7c0.3-0.3,0.7-0.6,1.1-1l2.1-1.9c-0.2-0.2-0.3-0.3-0.5-0.4c-0.3,0.2-0.8,0.6-1.6,1.5l-7.4,7.4
			c-13.2,13.2-26.5,26.4-39.6,39.7c-5.3,5.3-11.2,7-17.8,5c-7.4-2.2-12.1-9-12-17.4l0,0c0.1-3.9,2.1-8,5.9-11.7
			c12-11.9,24-23.9,35.9-35.9l10.7-10.7c0.4-0.4,1.4-1.4,1.8-2c-0.4-0.6-1.5-1.6-1.9-2l-11.5-11.5c-11.5-11.5-23.4-23.4-35.1-35.1
			c-4.8-4.8-6.6-10.1-5.6-15.9c1.2-6.3,5-10.8,11-13c6.1-2.2,11.9-1,17,3.4c0.8,0.7,1.5,1.4,2.2,2.1l0.5,0.5l44,44
			c-0.1-0.2-0.2-0.3-0.3-0.5c-0.4-0.6-0.7-1.1-1.1-1.5c-4.5-4.6-9.1-9.1-13.7-13.6c-9.4-9.4-19.2-19-28.5-28.8
			c-4.2-4.4-9.2-6.8-14.3-6.9C263.1,188.8,263,188.8,262.9,188.8z M252.1,328c0,5.7,2.9,10.2,7.7,11.6c4.4,1.3,8.2,0.2,11.8-3.5
			c13.2-13.2,26.4-26.5,39.7-39.7l7.4-7.4c4.5-4.5,7.3-4.5,11.8,0.1c10.2,10.2,20.4,20.4,30.6,30.6l15.8,15.8
			c0.6,0.6,1.1,1.2,1.7,1.7c3.1,2.8,7.2,3.7,11,2.4c3.7-1.2,6.4-4.4,7.3-8.4c0.8-3.9-0.4-7.2-3.7-10.6
			c-12.5-12.4-24.9-24.9-37.4-37.4l-9.7-9.7c-4.5-4.5-4.5-7.3,0-11.8l46.4-46.4c0.7-0.6,1.3-1.3,1.8-1.9c2.6-3,3.5-7,2.3-10.7
			c-1.2-3.7-4.2-6.4-8.1-7.3c-4-0.9-7.4,0.2-10.8,3.6c-12.1,12.1-24.2,24.3-36.4,36.4l-10.5,10.5c-4.9,4.9-7.5,4.9-12.5-0.1l-46-46
			c-0.6-0.6-1.2-1.3-1.9-1.8c-3.4-2.9-7-3.7-11-2.2c-4,1.4-6.4,4.2-7.1,8.4c-0.7,3.9,0.5,7.2,3.9,10.6
			c11.7,11.7,23.6,23.6,35.1,35.1l11.5,11.5c5,5,5,7.5,0,12.5l-10.7,10.7c-12,12-23.9,24-35.9,35.9C253.6,323,252.2,325.7,252.1,328
			z M385.9,189.1c1.3,0,2.6,0.2,3.9,0.5c6,1.4,10.6,5.6,12.5,11.3c1.9,5.7,0.6,11.9-3.5,16.5c-0.7,0.8-1.4,1.5-2.1,2.2l-0.5,0.5
			L350.3,266c-0.5,0.5-0.9,0.9-1.1,1.2l2.2-2c0.5-0.5,1-0.9,1.5-1.4c1-0.9,1.8-1.6,2.6-2.4c14.1-14.1,28.2-28.2,42.3-42.3
			c5.4-5.5,7-11.5,4.8-18.3c-1.9-5.9-6.3-10-12.1-11.5c-6-1.5-12.4,0.4-17.1,5c-10.1,10-20.3,20.2-30.2,30.1
			c-4.6,4.7-9.3,9.3-13.9,14c-0.5,0.5-1.1,1.1-1.8,1.7l-3.2,3.1c0.1,0.1,0.3,0.2,0.4,0.3c0.6-0.4,1.6-1.4,2-1.8l10.5-10.5
			c12.1-12.1,24.2-24.2,36.4-36.4C377.2,191,381.4,189.1,385.9,189.1z"/>
	</g>
</g>
</svg>
