<?xml version="1.0" encoding="utf-8"?>
<!-- Generator: Adobe Illustrator 22.1.0, SVG Export Plug-In . SVG Version: 6.00 Build 0)  -->
<svg version="1.1" id="Слой_1" xmlns="http://www.w3.org/2000/svg" xmlns:xlink="http://www.w3.org/1999/xlink" x="0px" y="0px"
	 viewBox="0 0 384 384" style="enable-background:new 0 0 384 384;" xml:space="preserve">
<g>
	<path d="M41.2,0C103,0,164.7,0,226.5,0c12,3.8,15.8,12.3,15.7,24.4c-0.3,42.6-0.1,85.2-0.1,127.8c0,1.4,0,2.9,0,4.5c2,0,3.5,0,5,0
		c31.4,0,62.7,0,94.1,0c12,0,17.2,5.3,17.2,17.4c0,55,0,110,0,164.9c0,1.5,0,3,0,4.9c1.9,0,3.5,0,5.1,0c5.9-0.1,11.2,1.8,15,6.4
		c2.3,2.8,3.7,6.4,5.5,9.6c0,2.5,0,5,0,7.5c-5.4,13.2-10.2,16.5-24.7,16.5c-111.7,0-223.4,0-335.1,0c-1.6,0-3.3,0-4.9,0
		C8.5,383.4,0,374.7,0,364c0-10.7,8.3-19.4,19.3-19.9c2-0.1,3.9,0,6.3,0c0-2.1,0-3.7,0-5.3c0-84.5,0-168.9,0-253.4
		c0-21.7,0-43.5,0-65.2c0-9.8,5.1-16.5,14.4-19.5C40.4,0.5,40.8,0.2,41.2,0z M230.9,156.8c0-1.6,0-2.8,0-4.1c0-43.6,0-87.2,0-130.9
		c0-7.9-2.7-10.6-10.6-10.6c-57.6,0-115.2,0-172.8,0c-8,0-10.6,2.6-10.6,10.5c0,106,0,212,0,317.9c0,1.3,0.1,2.6,0.2,4
		c44,0,87.7,0,131.6,0c0-5.9-0.1-11.5,0-17.2c0-3.1,1.8-5,4.8-5.4c2.9-0.4,5.1,1,6,3.9c0.4,1.3,0.4,2.7,0.4,4.1c0,4.8,0,9.7,0,14.6
		c56,0,111.5,0,167.3,0c0-1.3,0-2.3,0-3.2c0-55.7,0-111.5,0-167.2c0-4.7-0.6-5.2-5.5-5.2c-51.9,0-103.7,0-155.6,0
		c-6.1,0-6.2,0.1-6.2,6.4c0,41.4,0,82.7,0,124.1c0,4.7-2,7.4-5.5,7.5c-3.5,0.1-5.7-2.6-5.7-7.2c0-42.2,0-84.5,0-126.7
		c0-9.6,5.8-15.3,15.5-15.3c13.4,0,26.7,0,40.1,0C226.3,156.7,228.4,156.8,230.9,156.8z M192,355.3c-56,0-112,0-168,0
		c-1.6,0-3.3,0-4.9,0.1c-4.3,0.4-7.4,3.6-7.9,7.7c-0.4,4.1,2.1,8,6.2,9.1c1.8,0.5,3.7,0.5,5.6,0.5c112.6,0,225.2,0,337.8,0
		c1.4,0,2.8,0.1,4.1-0.1c4.5-0.6,7.8-4.4,7.7-8.7c0-4.6-3.5-8.1-8.3-8.5c-1.5-0.1-3-0.1-4.5-0.1C304,355.2,248,355.3,192,355.3z"/>
	<path d="M313.6,14.2c19.9,0.1,37.4,12.2,44.4,30.6c1.8,4.7,0.9,7.9-2.4,9.2c-3.5,1.3-6.2-0.4-8.1-5.1
		c-6.3-15.7-20.7-24.6-37.6-23.3c-15.1,1.1-28.4,12.6-32,27.9c-2.9,12.3,0.2,23.8,5.9,34.6c6.7,12.7,16.4,22.9,27.8,31.5
		c0.8,0.6,2.9,0.6,3.7,0c15.1-12,27.7-25.9,33.1-45.1c1.1-4,3.8-5.6,7.2-4.7c3.2,0.8,4.7,3.9,3.6,7.9c-4,15-12.2,27.5-23.1,38.4
		c-4.9,4.9-10.3,9.4-15.7,13.8c-4.1,3.3-8.9,3.7-12.9,0.7c-18-13.2-32.5-29.2-39.3-51c-7-22.5-0.4-43.5,17.4-56.4
		C293.9,17,303.3,14.1,313.6,14.2z"/>
	<path d="M339.9,62.1c-0.1,14.8-12,26.5-26.9,26.4c-14.5-0.1-26.4-12.3-26.3-26.8c0.2-14.5,12.1-26.4,26.6-26.4
		C328.1,35.3,340,47.3,339.9,62.1z M328.6,61.8c-0.1-8.4-6.8-15.2-15.2-15.2c-8.5,0-15.5,7.1-15.4,15.5c0.1,8.3,7,15.2,15.3,15.2
		C321.9,77.3,328.7,70.4,328.6,61.8z"/>
	<path d="M133.8,245.1c3.7,0,7.5-0.1,11.2,0c6.6,0.1,11.2,4.3,11.5,10.9c0.3,7.9,0.3,15.7,0,23.6c-0.2,6.5-5,10.7-11.6,10.8
		c-7.4,0.1-14.7,0.1-22.1,0c-6.9-0.1-11.6-4.6-11.7-11.4c-0.1-7.5-0.1-15,0-22.5c0.1-6.7,4.7-11.2,11.4-11.3
		C126.3,245,130,245.1,133.8,245.1z M145,278.9c0-7.6,0-14.9,0-22.3c-7.6,0-14.9,0-22.4,0c0,7.6,0,15,0,22.3
		C130.3,278.9,137.6,278.9,145,278.9z"/>
	<path d="M133.5,150c-3.5,0-7,0.1-10.5,0c-7.1-0.1-11.8-4.7-11.9-11.7c-0.1-7.4-0.1-14.7,0-22.1c0.1-6.7,4.5-11.4,11.2-11.6
		c7.6-0.2,15.2-0.2,22.8,0c6.8,0.2,11.2,4.7,11.3,11.5c0.2,7.5,0.2,15,0,22.5c-0.2,6.9-4.9,11.3-11.8,11.5
		C141,150,137.3,150,133.5,150z M122.6,116c0,7.8,0,15.2,0,22.6c7.6,0,14.9,0,22.4,0c0-7.6,0-15,0-22.6
		C137.5,116,130.2,116,122.6,116z"/>
	<path d="M99.1,127.3c0,3.7,0.1,7.5,0,11.2c-0.1,6.5-4.5,11.2-11,11.4c-7.7,0.2-15.5,0.2-23.2,0c-6.5-0.2-10.9-4.8-11-11.3
		c-0.1-7.5-0.1-15,0-22.5c0.1-6.6,4.2-11.3,10.8-11.5c7.9-0.3,15.7-0.3,23.6,0c6.6,0.2,10.7,4.9,10.8,11.5
		C99.1,119.8,99.1,123.6,99.1,127.3z M87.5,138.6c0-7.7,0-15.1,0-22.6c-7.6,0-14.9,0-22.2,0c0,7.7,0,15.1,0,22.6
		C72.9,138.6,80.1,138.6,87.5,138.6z"/>
	<path d="M168.6,127.1c0-3.7-0.1-7.5,0-11.2c0.2-6.4,4.2-11,10.6-11.3c8-0.3,16-0.3,24,0c6.4,0.3,10.5,4.9,10.6,11.3
		c0.1,7.5,0.1,15,0,22.5c-0.1,6.9-4.7,11.4-11.6,11.5c-7.4,0.1-14.7,0.1-22.1,0c-6.9-0.1-11.4-4.7-11.5-11.6
		C168.5,134.6,168.6,130.9,168.6,127.1z M202.4,116.1c-7.6,0-14.9,0-22.3,0c0,7.6,0,14.9,0,22.3c7.6,0,15,0,22.3,0
		C202.4,130.8,202.4,123.5,202.4,116.1z"/>
	<path d="M134,34.4c3.6,0,7.2,0,10.9,0c6.8,0.1,11.4,4.4,11.6,11.1c0.2,7.7,0.2,15.5,0,23.2c-0.2,6.5-4.9,10.8-11.4,10.9
		c-7.5,0.1-15,0.1-22.5,0c-6.7-0.1-11.3-4.6-11.5-11.3c-0.2-7.6-0.2-15.2,0-22.8c0.2-6.5,4.8-10.9,11.3-11.1
		C126.3,34.3,130.1,34.4,134,34.4z M145,68.2c0-7.6,0-14.9,0-22.2c-7.7,0-15.1,0-22.4,0c0,7.6,0,14.9,0,22.2
		C130.3,68.2,137.6,68.2,145,68.2z"/>
	<path d="M133.8,174.8c3.6,0,7.2,0,10.9,0c6.9,0.1,11.7,4.5,11.9,11.3c0.2,7.6,0.2,15.2,0,22.8c-0.2,6.6-4.6,11-11.2,11.2
		c-7.6,0.2-15.2,0.2-22.8,0c-6.9-0.2-11.2-4.9-11.3-11.8c-0.1-7.2-0.1-14.5,0-21.7c0.1-7.1,4.8-11.7,11.8-11.7
		C126.5,174.7,130.2,174.8,133.8,174.8z M122.5,186.2c0,7.6,0,14.9,0,22.4c7.6,0,15.1,0,22.6,0c0-7.6,0-14.9,0-22.4
		C137.5,186.2,130.2,186.2,122.5,186.2z"/>
	<path d="M53.8,197.5c0-3.9-0.1-7.7,0-11.6c0.2-6.5,4.7-11,11.2-11.1c7.6-0.1,15.2-0.1,22.8,0c6.4,0.1,11.1,4.7,11.2,11.2
		c0.1,7.7,0.1,15.5,0,23.2c-0.1,5.8-4.1,10.5-9.9,10.7c-8.5,0.4-17,0.4-25.4,0c-5.8-0.3-9.7-4.9-9.8-10.8
		C53.8,205.3,53.8,201.4,53.8,197.5z M65.4,186.1c0,7.7,0,15.1,0,22.5c7.6,0,14.9,0,22.1,0c0-7.7,0-15,0-22.5
		C80,186.1,72.9,186.1,65.4,186.1z"/>
	<path d="M75.9,79.6c-3.7,0-7.5,0.1-11.2,0C58.6,79.4,54,75,53.9,68.9c-0.2-8-0.2-16,0-24c0.1-5.9,4.7-10.4,10.6-10.5
		c8-0.2,16-0.2,24,0c5.9,0.1,10.5,4.6,10.6,10.5c0.2,8.1,0.2,16.2,0,24.3c-0.1,5.7-4.7,10-10.4,10.3c-0.2,0-0.5,0-0.7,0
		C83.9,79.6,79.9,79.6,75.9,79.6z M87.6,68.2c0-7.7,0-15,0-22.4c-7.5,0-14.8,0-22.2,0c0,7.6,0,15,0,22.4
		C72.9,68.2,80.1,68.2,87.6,68.2z"/>
	<path d="M168.6,56.6c0-3.6-0.1-7.2,0-10.9c0.2-6.8,4.6-11.3,11.3-11.4c7.6-0.1,15.2-0.1,22.8,0c6.5,0.1,11,4.6,11.1,11.2
		c0.1,7.6,0.1,15.2,0,22.8c-0.1,6.5-4.6,11.1-11.1,11.2c-7.7,0.1-15.5,0.1-23.2,0c-6.3-0.1-10.7-4.6-10.9-11
		C168.5,64.6,168.6,60.6,168.6,56.6z M180.1,45.8c0,7.6,0,14.9,0,22.3c7.6,0,15,0,22.3,0c0-7.6,0-14.9,0-22.3
		C194.8,45.8,187.6,45.8,180.1,45.8z"/>
	<path d="M76.3,290.3c-3.9,0-7.7,0.1-11.6,0c-6.1-0.2-10.7-4.6-10.8-10.6c-0.2-8-0.2-16,0-24c0.1-5.9,4.6-10.4,10.5-10.5
		c8-0.2,16-0.2,24,0c6.1,0.1,10.6,4.7,10.7,10.8c0.1,7.9,0.1,15.7,0,23.6c-0.1,6.2-4.8,10.6-11.1,10.8
		C84.1,290.4,80.2,290.3,76.3,290.3z M65.4,256.5c0,7.7,0,15,0,22.3c7.6,0,14.9,0,22.3,0c0-7.5,0-14.8,0-22.3
		C80.1,256.5,72.8,256.5,65.4,256.5z"/>
	<path d="M333.8,299c0,3.6,0.1,7.2,0,10.9c-0.2,4.9-3.4,8.8-8.3,9c-8.1,0.3-16.2,0.3-24.3,0c-4.6-0.2-7.9-3.6-8.1-8.3
		c-0.3-7.7-0.3-15.5,0-23.2c0.2-5,3.7-8.4,8.8-8.5c7.7-0.3,15.5-0.3,23.2,0c5.3,0.2,8.6,4.1,8.8,9.3c0,0.2,0,0.5,0,0.7
		C333.8,292.3,333.8,295.6,333.8,299C333.8,299,333.8,299,333.8,299z M304.3,307.6c6.3,0,12.2,0,18.1,0c0-6,0-11.7,0-17.6
		c-6.1,0-12,0-18.1,0C304.3,296,304.3,301.6,304.3,307.6z"/>
	<path d="M234,298.8c0,3.6,0.1,7.2,0,10.9c-0.2,5.1-3.5,8.9-8.6,9.2c-7.8,0.3-15.7,0.3-23.6,0c-5.2-0.2-8.6-3.7-8.8-9
		c-0.3-7.4-0.3-14.7,0-22.1c0.2-5.4,3.8-8.9,9.1-9.1c7.5-0.3,15-0.3,22.5,0c5.8,0.2,9.2,4.1,9.4,10C234.1,292.1,234,295.5,234,298.8
		C234,298.8,234,298.8,234,298.8z M222.7,290.1c-6.3,0-12.2,0-18.3,0c0,5.9,0,11.6,0,17.5c6.2,0,12.2,0,18.3,0
		C222.7,301.7,222.7,296.1,222.7,290.1z"/>
	<path d="M213.5,186.7c3.5,0,7-0.1,10.5,0c6,0.1,9.9,3.8,10,9.8c0.1,7,0.1,14,0,21c-0.1,5.6-3.8,9.5-9.4,9.7
		c-7.4,0.2-14.7,0.2-22.1,0c-5.4-0.1-9.2-3.8-9.4-9.2c-0.3-7.4-0.3-14.7,0-22.1c0.2-5.6,4.2-9,9.9-9.1
		C206.5,186.6,210,186.7,213.5,186.7z M222.5,215.7c0-6,0-11.7,0-17.5c-6.2,0-12.1,0-18.1,0c0,5.9,0,11.6,0,17.5
		C210.5,215.7,216.5,215.7,222.5,215.7z"/>
	<path d="M243,298.9c0-3.6-0.1-7.2,0-10.9c0.2-5.1,3.5-9,8.6-9.2c7.8-0.3,15.7-0.3,23.6,0c5.1,0.2,8.5,3.8,8.8,9
		c0.3,7.4,0.3,14.7,0,22.1c-0.2,5.4-3.7,8.9-9.1,9.1c-7.6,0.3-15.2,0.3-22.8,0c-5.5-0.2-8.8-4.1-9-9.6
		C242.9,305.8,243,302.3,243,298.9z M254.4,307.6c6.1,0,12.1,0,18.2,0c0-6,0-11.7,0-17.6c-6.2,0-12.1,0-18.2,0
		C254.4,295.9,254.4,301.5,254.4,307.6z"/>
	<path d="M213.4,273.1c-3.5,0-7,0.1-10.5,0c-5.7-0.2-9.6-3.6-9.8-9.2c-0.3-7.4-0.3-14.7,0-22.1c0.2-5.4,4.1-9,9.6-9.1
		c7.2-0.2,14.5-0.2,21.7,0c5.8,0.2,9.5,4.1,9.6,9.8c0.1,7,0.1,14,0,21c-0.1,5.8-3.9,9.5-9.8,9.6C220.6,273.2,217,273.1,213.4,273.1z
		 M204.4,244c0,6,0,11.7,0,17.7c6.2,0,12.1,0,18.1,0c0-6,0-11.7,0-17.7C216.5,244,210.6,244,204.4,244z"/>
	<path d="M263.4,186.7c3.5,0,7,0,10.5,0c5.7,0.1,9.8,3.4,10,9c0.3,7.5,0.3,15,0,22.5c-0.2,5.4-4.2,8.9-9.7,9
		c-7.1,0.2-14.2,0.1-21.4,0c-6-0.1-9.8-4-9.9-10c-0.1-6.9-0.1-13.7,0-20.6c0.1-6,3.9-9.8,9.9-9.9
		C256.4,186.6,259.9,186.7,263.4,186.7z M254.4,198.1c0,6.1,0,11.8,0,17.7c6.1,0,12,0,18.1,0c0-6,0-11.8,0-17.7
		C266.4,198.1,260.5,198.1,254.4,198.1z"/>
	<path d="M263.3,273.1c-3.6,0-7.2,0.1-10.9,0c-5.6-0.2-9.4-4-9.5-9.5c-0.1-7-0.1-14,0-21c0.1-5.8,3.8-9.7,9.5-9.9
		c7.2-0.2,14.5-0.2,21.7,0c5.6,0.1,9.5,3.8,9.7,9.4c0.3,7.2,0.3,14.5,0,21.7c-0.2,5.8-4.2,9.2-10.1,9.3
		C270.3,273.1,266.8,273.1,263.3,273.1C263.3,273.1,263.3,273.1,263.3,273.1z M254.4,244c0,5.9,0,11.7,0,17.5c6.2,0,12.2,0,18.2,0
		c0-6,0-11.7,0-17.5C266.4,244,260.5,244,254.4,244z"/>
	<path d="M313.3,186.7c3.5,0,7-0.1,10.5,0c6,0.1,9.9,3.8,10,9.8c0.1,7,0.1,14,0,21c-0.1,5.6-3.8,9.5-9.4,9.7
		c-7.4,0.2-14.7,0.2-22.1,0c-5.3-0.1-9.1-3.6-9.3-8.9c-0.3-7.6-0.3-15.2,0-22.8c0.2-5.3,4.2-8.6,9.5-8.7
		C306.1,186.6,309.7,186.7,313.3,186.7z M304.2,215.6c6.4,0,12.3,0,18.1,0c0-6,0-11.7,0-17.5c-6.1,0-12,0-18.1,0
		C304.2,204.1,304.2,209.8,304.2,215.6z"/>
	<path d="M313.4,273.1c-3.6,0-7.2,0.1-10.9,0c-5.5-0.2-9.3-3.5-9.6-9c-0.3-7.5-0.3-15,0-22.5c0.2-5.2,4-8.8,9.3-8.9
		c7.4-0.2,14.7-0.2,22.1,0c5.8,0.2,9.4,4.1,9.4,10c0.1,6.9,0.1,13.7,0,20.6c-0.1,6-3.9,9.7-9.9,9.8
		C320.4,273.2,316.9,273.1,313.4,273.1z M304.5,243.9c0,6.2,0,12,0,17.7c6.3,0,12.1,0,17.8,0c0-6.1,0-11.8,0-17.7
		C316.2,243.9,310.5,243.9,304.5,243.9z"/>
</g>
</svg>
