<?xml version="1.0" encoding="utf-8"?>
<!-- Generator: Adobe Illustrator 22.1.0, SVG Export Plug-In . SVG Version: 6.00 Build 0)  -->
<svg version="1.1" id="Слой_1" xmlns="http://www.w3.org/2000/svg" xmlns:xlink="http://www.w3.org/1999/xlink" x="0px" y="0px"
	 viewBox="0 0 381.8 384" style="enable-background:new 0 0 381.8 384;" xml:space="preserve">
<g>
	<path d="M301.1,0c2.8,2,3.8,4.6,3.7,8c-0.2,6.5-0.1,13-0.1,19.8c5.8-1.9,11.2-3.8,16.6-5.5c3.9-1.3,7.9-2.3,11.8-3.5
		c3.3-1,5.9-0.2,8.4,2.4c5.5,5.6,11.3,11,17.2,16.7c0.9-0.5,2.3-1.3,3.7-1.9c8.6-4.1,18.1,1.3,19,10.8c0.1,1.4,0.1,2.7,0.1,4.1
		c0,54.5,0,109,0,163.5c0,1.4,0,2.8-0.2,4.1c-0.5,3.2-2.5,5-5.6,4.9c-3-0.1-4.9-1.8-5.3-4.8c-0.2-1.6-0.2-3.2-0.2-4.9
		c0-54,0-108,0-162c0-1.2,0.1-2.5-0.1-3.7c-0.2-1.9-1.3-2.7-3.1-1.7c-1,0.5-2,1.1-2.9,1.6c-45.8,25.8-91.6,51.6-137.5,77.2
		c-3.9,2.2-5.3,4.6-5.2,9c0.2,75.5,0.1,151,0.1,226.5c0,1,0,2,0,3c0.1,3.9,1,4.6,4.5,2.6c11-6.1,22-12.3,33-18.5
		c35.8-20.1,71.6-40.3,107.4-60.4c2.9-1.6,4.1-3.4,4-6.7c-0.2-8.6-0.1-17.2,0-25.9c0-4.2,2.2-6.5,5.7-6.4c3.1,0,5.4,2.1,5.5,5.4
		c0.1,10.4,0.1,20.7-0.1,31.1c-0.1,5.4-3.4,8.8-8,11.4c-20.7,11.6-41.4,23.2-62,34.9c-26.4,14.9-52.9,29.7-79.3,44.6
		c-3.5,2-7.1,3.6-11.4,2.7c-0.7-0.2-1.8,0.5-2.4,1.1c-3,3.2-6.7,4.5-11.1,4.5c-11-0.1-22-0.1-33,0c-4.4,0-8-1.3-11.1-4.5
		c-0.6-0.7-1.8-0.9-2.8-1.1c-3.3-0.8-7.1-0.7-10-2.3c-47.7-26.7-95.4-53.5-143-80.3c-5-2.8-7.4-6.9-7.4-12.5c0-4.6,0-9.2,0-13.9
		c0-73.1,0-146.2,0-219.4c0-8.8,4.1-14.8,11.5-15.3c3.9-0.2,7.8,1.5,12.2,2.4c4.6-4.5,10.1-9.4,15.1-14.8c3.4-3.7,6.8-4.8,11.6-3.2
		c8.6,2.9,17.3,5.5,26.6,8.3c0-6.5,0.1-12.9,0-19.3C76.9,4.9,77.6,2,80.6,0c1.2,0,2.5,0,3.8,0c5,2.2,10,4.4,15,6.7
		c35.3,16.9,63.8,41.1,82.5,76c3.3,6.1,6,12.5,9.1,19.1c0.4-0.8,0.7-1.3,0.9-1.8c14.5-36.8,39.7-64.3,73.4-84
		c10.3-6,21.4-10.7,32.1-16C298.6,0,299.9,0,301.1,0z M160.1,247.7c0-38.4,0-76.7,0.1-115.1c0-3.3-1-5.1-3.9-6.8
		C116.6,103.7,77,81.3,37.4,59.1C30.2,55,23,51,15.8,47c-3.7-2-4.5-1.5-4.6,2.8c0,0.4,0,0.7,0,1.1c0,76.6,0,153.2-0.1,229.8
		c0,3.4,1.1,5.1,4,6.7c46.5,26,92.9,52.2,139.4,78.3c4.6,2.6,5.5,2.1,5.5-3.3C160.1,324.2,160.1,285.9,160.1,247.7z M33.1,43.6
		c2,1.2,3.1,1.9,4.3,2.6c40.8,23,81.7,45.7,122.3,69c7,4,13.9,4.5,21.8,3.7c-0.6-1-1-2-1.6-2.7c-6.8-8.1-13.2-16.7-20.6-24.2
		c-7-7.1-15.1-13.1-22.8-19.5c-3.2-2.7-4-5.5-2-8.4c2.2-3,5.1-3.3,8.8-0.6c1.5,1.1,3.1,2.2,4.5,3.4c7.8,6.6,15.5,13.2,23.8,20.3
		C152.4,52.7,123.8,29.8,88.2,14c0,5.6,0.1,10.6,0,15.6c-0.1,2.2,0.6,3.3,2.7,4.2c6.7,3,13.3,6.2,19.9,9.6c3,1.5,3.9,4.5,2.5,7.3
		c-1.4,3-4.3,4-7.5,2.7c-1.3-0.5-2.5-1.2-3.7-1.8C85.5,43.1,68.2,36.2,50.3,31c-1.3-0.4-3.2-0.5-4.1,0.2
		C41.8,35.1,37.7,39.3,33.1,43.6z M171.6,181.7c0,46.8,0,93.3,0,139.8c13,0,25.7,0,38.6,0c0-46.7,0-93.2,0-139.8
		C197.3,181.7,184.6,181.7,171.6,181.7z M199.6,118.5c9.9,2.2,17.5-0.5,25.2-4.9c31.5-18.1,63.3-35.7,94.9-53.6
		c9.3-5.3,18.7-10.5,29.1-16.4c-4.3-4-8.3-7.4-11.9-11.1c-1.9-1.9-3.5-2.3-5.9-1.4c-13.1,4.9-26.5,9.1-39.2,14.7
		c-29.1,12.7-55.3,29.9-76.9,53.7C209.7,105.4,204.9,111.9,199.6,118.5z M293.5,14c-35.7,15.9-64.2,38.8-82.9,72.8
		c5.7-4.8,11-9.9,16.7-14.6c19-15.8,40.2-28.1,62.8-38.2c1.3-0.6,3.1-2.1,3.2-3.3C293.7,25.4,293.5,20,293.5,14z M171.3,145.1
		c13.4,0,26.2,0,39.1,0c0-4.2,0.2-8-0.1-11.9c-0.1-1-1.6-2.6-2.5-2.6c-11.2-0.2-22.4-0.2-33.7,0c-1,0-2.6,1.5-2.7,2.5
		C171.1,137,171.3,140.9,171.3,145.1z M210.5,358.1c-13.3,0-26.1,0-39.1,0c0,4.1,0,8,0,11.8c0,2.1,0.9,2.9,2.9,2.9
		c11.1,0,22.2,0,33.3,0c2,0,3-0.8,2.9-2.9C210.4,366,210.5,362.2,210.5,358.1z M171.5,156.8c0,4.5,0,8.8,0,13.3c13,0,25.8,0,38.8,0
		c0-4.5,0-8.8,0-13.3C197.3,156.8,184.5,156.8,171.5,156.8z M171.4,346.3c13.2,0,26,0,38.8,0c0-4.6,0-8.9,0-13.1
		c-13.1,0-25.8,0-38.8,0C171.4,337.6,171.4,341.8,171.4,346.3z"/>
	<path d="M238.1,181.2c0-5.4,0.2-10.7-0.1-16.1c-0.1-3.7,1.3-6,4.5-7.8c27.4-15.6,54.8-31.3,82.2-47c6.7-3.8,13.4-7.7,20.2-11.5
		c5.1-2.8,9.3-0.4,9.4,5.5c0.1,11.2,0,22.5,0.1,33.7c0,3.8-2,5.8-5.1,7.5c-29.3,16.7-58.5,33.4-87.7,50.1c-4.7,2.7-9.3,5.4-14,7.9
		c-5.4,2.9-9.4,0.6-9.5-5.6C238,192.4,238.1,186.8,238.1,181.2z M249.3,189.6c2.7-1.5,4.6-2.6,6.5-3.7
		c27.4-15.7,54.8-31.4,82.3-46.9c3.8-2.1,5.3-4.4,5-8.7c-0.4-5.6-0.1-11.3-0.1-17c-0.7,0-0.9,0-1,0.1c-30.4,17.3-60.7,34.6-91,52
		c-0.8,0.5-1.6,1.7-1.7,2.5C249.3,174.9,249.3,181.9,249.3,189.6z"/>
	<path d="M196.5,251.6c0,10.2,0,20.5,0,30.7c0,1.4,0,2.8-0.3,4.1c-0.5,2.8-2.5,4.4-5.3,4.4c-3,0-4.9-1.6-5.5-4.6
		c-0.2-1.1-0.2-2.2-0.2-3.4c0-21,0-41.9,0-62.9c0-1,0-2,0.2-3c0.5-3,2.3-4.7,5.3-4.8c3.2,0,5.1,1.7,5.6,4.9c0.2,1.2,0.1,2.5,0.1,3.7
		C196.5,231.2,196.5,241.4,196.5,251.6z"/>
</g>
</svg>
