<?xml version="1.0" encoding="utf-8"?>
<!-- Generator: Adobe Illustrator 22.1.0, SVG Export Plug-In . SVG Version: 6.00 Build 0)  -->
<svg version="1.1" id="Слой_1" xmlns="http://www.w3.org/2000/svg" xmlns:xlink="http://www.w3.org/1999/xlink" x="0px" y="0px"
	 viewBox="0 0 252 372.5" style="enable-background:new 0 0 252 372.5;" xml:space="preserve">
<g>
	<path d="M90,241.7c0-4.7,0.2-9-0.1-13.4c-0.1-1.1-1.2-2.6-2.3-3.2c-23.2-12.6-37.9-31.6-43.7-57.4c-0.8-3.5,0-7.9-1.9-10.5
		c-1.8-2.5-6.1-3.1-9.2-4.9c-15.3-9-19.5-28.2-9.3-42.9c1.3-1.8,1.4-3.1,0.3-5c-4-7.2-6-15.1-5.8-23.4c0.2-11.6-0.5-23.3,0.8-34.8
		c2.9-25,25.6-45.2,50.8-45.7c21.4-0.4,42.7-0.2,64.1,0c8.2,0.1,15.6,3,22.3,7.5c12.5-10.9,26.7-9,40.5-4.8
		c22.3,6.7,37.2,27.5,37.4,50.8c0.1,11.2,0.3,22.5-0.7,33.7c-0.5,5.5-3.5,10.8-5.7,16c-0.8,1.8-1.3,2.9,0.1,4.6
		c4.6,5.7,6.4,12.3,6.4,19.5c-0.1,11,0,22,0,33c-0.1,24.4-17.3,42.5-41.6,43.8c-1.3,0.1-2.9,0.8-3.7,1.8c-7,7.7-15,13.9-24.2,18.6
		c-1.8,0.9-2.5,2-2.4,4c0.2,4.1,0.1,8.2,0.1,12.3c0.4,0.2,0.6,0.4,0.8,0.4c8-1.7,8.3-1.9,12.6,5.3c2.8,4.8,6.6,7.2,11.8,8.7
		c12,3.4,23.9,7.1,35.8,11c17.8,5.8,28.9,21.2,29,39.9c0.1,19.5,0,39,0,58.5c0,5.4-2.1,7.5-7.5,7.5c-79,0-158,0-237,0
		c-5.4,0-7.5-2.1-7.5-7.5c0-19.2,0-38.5,0-57.7c0.1-19.9,11.7-35.5,30.8-41.3c12.6-3.9,25.3-7.7,37.9-11.8c2.1-0.7,3.9-2.7,5.7-4.2
		c0.8-0.7,1.3-1.8,1.9-2.8C81.2,240,81.2,240,90,241.7z M12.1,360.3c36.2,0,71.9,0,107.7,0c0.7-9.2,1.9-11.5,5.9-11.7
		c4.1-0.2,5.3,1.9,6.6,11.8c35.8,0,71.5,0,107.3,0c0.1-0.5,0.3-0.9,0.3-1.2c0-18,0.2-36-0.1-54c-0.2-12.3-8.4-23-20.3-27
		c-10.7-3.5-21.4-6.7-32.2-9.9c-0.9-0.3-2.2-0.2-3,0.2c-14.5,8.3-28.9,16.8-43.4,25.1c-3.6,2.1-6.9,0.8-8.6-3
		c-1.8-4.1-3.4-8.3-5.1-12.5c-0.3-0.8-0.9-1.6-1.4-2.5c-0.4,0.5-0.6,0.7-0.7,1c-1.7,4.2-3.4,8.3-5.1,12.5c-2.4,5.8-5.4,6.9-10.8,3.8
		c-11.2-6.4-22.3-12.8-33.5-19.2c-2.6-1.5-5.1-3.1-7.8-4.5c-1.1-0.6-2.7-1.1-3.8-0.8c-10.8,3.2-21.6,6.2-32.2,9.9
		c-12,4.2-19.4,13-19.9,25.6C11.5,322.5,12.1,341.3,12.1,360.3z M148.8,194.1c-4.2,9.8-11,15.6-21.4,16.3
		c-12.6,0.9-23.4-8.2-25.2-20.8c-1.7-11.7,6.3-23.5,17.9-26.3c12.2-3,24.3,3.5,28.5,15.4c0.7,1.9,1.3,3.4,3.7,4.1
		c9.9,2.7,19.7,5.5,29.5,8.4c2.3,0.7,3.5,0.3,4.8-1.8c7.4-11.7,11.3-24.4,11.4-38.2c0.1-24.9,0-49.7,0-74.6c0-0.9-0.2-1.8-0.3-2.9
		c-4.3,2.5-8.2,4.9-12.3,7.1c-23.1,12-47.8,19.5-72.9,25.6C102.4,108.7,96,103.6,96,93c0-3,0-6,0-9.7
		c-12.3,10.4-25.6,17.1-39.6,22.5c-2.1,0.8-2.4,2-2.4,3.9c0.1,13.9-0.3,27.7,0.1,41.6c0.8,27.7,13.3,49,37.6,62.3
		c24,13.2,48.4,12,72-1.9c4.3-2.5,8.1-6,13-9.6C166.7,199.3,157.9,196.7,148.8,194.1z M210,97c7,2.5,7.1,2.5,9.7-4.1
		c0.7-1.8,1.6-3.8,1.6-5.7c0.2-12.7,0.2-25.4,0.2-38.2c0-2.2-0.7-4.5-1.3-6.6c-6.2-19.3-23.6-32.2-48-29.6c-2.5,0.3-4.8,2.1-7.4,3.3
		c7.9,10.8,10.5,22.6,8.7,32.3c-3.7,0-7.4,0-11.5,0c0-2.5,0.1-4.9,0-7.2c-0.6-15.3-13.2-28.2-28.5-28.5c-21.2-0.3-42.5-0.4-63.7,0
		C50.5,13.1,33,28.4,30.9,47.5C29.6,60,30,72.9,30.4,85.6c0.1,4.7,2.5,9.4,3.8,14c7-2,13.2-3.2,18.9-5.5
		C66.4,89,79.2,82.8,89.6,72.6c3.6-3.5,6.2-7.4,6.5-12.7c0.2-3.3,3-5.5,6.1-5.4c3.2,0.1,5.7,2.6,5.7,6.2c0.1,6.4,0,12.7,0,19.1
		c0,5,0,9.9,0,15.2c23-5.6,45.4-11.8,66.2-22.3c8.4-4.2,16.1-9.9,24-15.2c2.6-1.8,4.8-4.2,8.3-2.5c3.5,1.6,3.6,4.7,3.6,7.9
		C210,74.3,210,85.6,210,97z M102.1,245.4c7.5,2.2,14.8,4.3,22.1,6.3c1,0.3,2.3,0.3,3.3,0.1c7.4-2,14.8-4.2,22.3-6.3
		c0-4.8,0-9.4,0-13.6c-7.9,0.9-15.8,2.4-23.7,2.4c-8,0-16-1.6-24-2.5C102.1,236.1,102.1,240.5,102.1,245.4z M111,279.7
		c2.3-5.8,4.6-11.4,6.9-17.3c-10-2.9-19.7-5.7-29.4-8.3c-0.8-0.2-2.3,0.2-2.8,0.8c-1.8,2.3-3.3,4.9-5.1,7.6
		c9.5,5.4,18.6,10.7,27.8,15.9C109.2,278.9,110,279.2,111,279.7z M141,279.9c5.4-3.1,10.4-5.9,15.4-8.8c4.9-2.8,9.8-5.7,15-8.6
		c-1.8-2.7-3.3-5.2-5-7.5c-0.5-0.6-1.7-1.2-2.4-1c-9.9,2.7-19.8,5.6-29.9,8.5C136.4,268.4,138.7,273.9,141,279.9z M126.2,198.5
		c6.5-0.1,11.9-5.6,11.8-12.1c0-6.5-5.5-11.9-12-11.9c-6.7,0-12.1,5.6-12,12.3C114.2,193.3,119.7,198.6,126.2,198.5z M199.6,191
		c18.1-4.4,25.1-22.2,21.8-39.7c-3.1,1.3-6.4,2.6-9.5,4.1c-1,0.5-2.2,1.7-2.3,2.7C208.5,169.7,205.2,180.4,199.6,191z M41.9,110.1
		c-7.7,2.5-12.3,9.6-11.9,17.7c0.4,7,5.7,13.8,11.9,15C41.9,131.9,41.9,121.1,41.9,110.1z M210.2,143c7.4-2.5,12.1-9.4,11.8-17.1
		c-0.3-7.3-5.2-13.9-11.8-15.6C210.2,121.1,210.2,131.9,210.2,143z"/>
	<path d="M180.1,312.5c4,0,8-0.1,12,0c6.8,0.2,11.7,5.2,11.9,12c0.1,4,0.1,8,0,12c-0.2,6.8-5.1,11.9-11.9,12
		c-8.1,0.1-16.2,0.1-24.4,0c-6.6-0.1-11.5-5.2-11.7-11.8c-0.1-4.1-0.1-8.2,0-12.4c0.2-6.7,5.2-11.7,12-11.8
		C172.1,312.5,176.1,312.5,180.1,312.5z M191.9,324.8c-8.1,0-15.9,0-23.7,0c0,4,0,7.7,0,11.5c8,0,15.7,0,23.7,0
		C191.9,332.4,191.9,328.7,191.9,324.8z"/>
	<path d="M132,309.6c0,1,0.1,2,0,3c-0.3,3.5-2.8,5.9-6.1,5.9c-3.3-0.1-5.7-2.5-5.9-6.1c-0.1-1.9-0.1-3.8,0-5.6
		c0.2-3.8,2.7-6.3,6.1-6.3c3.3,0.1,5.6,2.5,5.9,6.1C132.1,307.6,132,308.6,132,309.6z"/>
	<path d="M120,333.4c0-0.7,0-1.5,0-2.2c0.2-4,2.6-6.7,6.1-6.6c3.4,0.1,5.7,2.6,5.8,6.5c0.1,1.6,0.1,3.2,0,4.9
		c-0.1,4-2.6,6.7-6.1,6.6c-3.4-0.1-5.7-2.6-5.8-6.5C120,335.1,120,334.3,120,333.4z"/>
</g>
</svg>
