<?xml version="1.0" encoding="utf-8"?>
<!-- Generator: Adobe Illustrator 22.1.0, SVG Export Plug-In . SVG Version: 6.00 Build 0)  -->
<svg version="1.1" id="Слой_1" xmlns="http://www.w3.org/2000/svg" xmlns:xlink="http://www.w3.org/1999/xlink" x="0px" y="0px"
	 viewBox="0 0 315.1 384" style="enable-background:new 0 0 315.1 384;" xml:space="preserve">
<g>
	<path d="M199.5,0c1.9,1.6,4,3,5.5,4.9c7,8.8,13.8,17.8,20.6,26.7c3.8,5,3.4,8.6-1.3,12.7c-7.3,6.4-14.7,12.8-22.1,19.2
		c-0.2,0.2-0.3,0.4-0.5,0.8c1.6,0.9,3.4,1.6,4.9,2.6c7.7,5,11.4,12.2,10.7,21.3c-0.5,5.7,1.5,8.4,6.8,11c50,24.4,80.2,64.3,89,119.2
		c10.7,67-24.2,133.4-85,164c-2.1,1.1-4.7,1.7-7.1,1.7c-42.4,0.1-84.7,0.1-127.1,0c-2.4,0-5-0.6-7.1-1.8
		C38.1,356.3,8.9,316.3,1.4,261.5c-9.5-69.3,28.8-136.3,93-164.3c2.3-1,3.4-2.1,3.1-4.7c-0.3-2.3-0.1-4.7,0-7.1
		c0.4-8.9,4.6-15.4,12.4-19.6c1.1-0.6,2.2-1.1,3.6-1.8c-7.6-6.6-14.9-13-22.3-19.3c-5.5-4.7-5.8-7.9-1.4-13.7
		c6.7-8.7,13.3-17.5,20.1-26.1c1.5-1.9,3.7-3.3,5.5-4.9C143.5,0,171.5,0,199.5,0z M199.5,234c1.8,0,3.1,0,4.5,0c24,0,48,0,72,0
		c6.2,0,9,2.8,8.9,9c-0.1,3.5-0.2,7-0.6,10.5c-4.9,43.4-26.2,76.3-63.6,98.7c-1.8,1.1-4.2,1.7-6.3,1.7c-37.9,0.1-75.7,0.1-113.6,0
		c-2,0-4.3-0.5-6-1.5C53.9,328,32.4,292,30,244.6c-0.4-8.2,2.1-10.6,10.3-10.6c46.5,0,93,0,139.5,0c1.5,0,2.9,0,4.5,0
		c3-27.4,0.7-53.8-7-79.8c-4.4-15.1-10.5-29.4-19.9-42.1c-1.9-2.6-4-3.8-7.5-3.7c-12.1,0.2-24.3,0.3-36.4,0c-5.3-0.1-10,1-14.8,3.2
		c-54.9,25-88.7,82.2-83.1,142.3c4.8,50.8,30.3,88.4,74.7,113.2c2.1,1.1,4.7,1.8,7.1,1.8c39.9,0.1,79.7,0.1,119.6,0
		c2.6,0,5.5-0.7,7.8-1.9c52.6-28.1,82.3-85.3,73.6-144.4c-7.8-52.7-36.9-90.1-85.4-112.2c-2.6-1.2-5.7-1.7-8.7-1.8
		c-9.1-0.2-18.2-0.1-27.4-0.1c-1,0-2.1,0.2-3.3,0.3C196.5,147.7,203.1,189.6,199.5,234z M45.4,249.2c1.9,35.9,23.4,71,54.3,88.8
		c1.2,0.7,2.8,1,4.2,1c35.6,0.1,71.2,0.1,106.9,0c1.7,0,3.7-0.6,5.2-1.5c12.9-7.8,23.8-17.8,32.5-30c12.4-17.3,19.5-36.6,21-58.1
		c-0.7-0.1-1.1-0.3-1.6-0.3c-22.9,0-45.7,0-68.6,0.1c-1,0-2.5,1.4-2.8,2.4c-1.5,4.6-2.4,9.4-3.9,14.1c-5.2,16.5-13.2,31.5-25.2,44.2
		c-4.1,4.4-8.7,5.1-12.1,2c-3.5-3.3-3.1-7.5,1-12.1c2.3-2.6,4.7-5.2,6.7-8c9.3-12.7,15-26.9,18.4-42.4
		C136.1,249.2,90.9,249.2,45.4,249.2z M202.5,93.3c0-1.7,0-2.9,0-4.1c0-8.5-2.1-10.7-10.5-10.7c-14.6,0-29.2,0-43.8,0
		c-9.1,0-18.2,0-27.4,0c-4.7,0-7.8,2.4-8.2,6.5c-0.3,2.7,0,5.4,0,8.3C142.6,93.3,172.3,93.3,202.5,93.3z M200.2,45.3
		c-12.3,0-23.7,0-35,0c0,6.2,0,12.1,0,18.2c4.3,0,8.3,0.1,12.2-0.1c1,0,2.2-0.5,3-1.1C187,56.9,193.3,51.3,200.2,45.3z M149.8,45.3
		c-11.8,0-23.1,0-35,0c6.8,5.9,13.1,11.4,19.4,16.8c0.6,0.5,1.5,1.2,2.2,1.2c4.4,0.1,8.9,0.1,13.4,0.1
		C149.8,57.1,149.8,51.3,149.8,45.3z M174.6,15.3c-11.7,0-22.6,0-34.2,0c5.6,4.2,10.5,8,15.6,11.6c0.7,0.5,2.4,0.5,3.2,0
		C164.2,23.2,169.1,19.5,174.6,15.3z M109.8,29.7c8.3,0,16.1,0,24.7,0c-5.5-4.1-10.5-7.8-15.7-11.7C115.8,21.8,113,25.5,109.8,29.7z
		 M180.5,29.7c8.6,0,16.4,0,24.6,0c-3.2-4.2-6-7.9-9-11.7C190.9,21.9,186,25.6,180.5,29.7z"/>
	<path d="M35.8,203.9c0.3-1.1,0.9-3.2,1.6-5.2c5.2-14.9,13-28.3,23.3-40.3c3.6-4.2,7.9-4.9,11.4-1.9c3.5,3,3.6,7.3,0,11.6
		c-9.7,11.4-16.9,24.1-21.6,38.2c-1.4,4.3-4.7,6.4-8.5,5.8C38.5,211.6,35.9,208.6,35.8,203.9z"/>
	<path d="M100.5,140.3c0,4.2-3.5,7.6-7.6,7.5c-4-0.1-7.3-3.5-7.3-7.5c0-4.1,3.5-7.6,7.7-7.5C97.2,132.9,100.5,136.3,100.5,140.3z"/>
</g>
</svg>
