<?xml version="1.0" encoding="utf-8"?>
<!-- Generator: Adobe Illustrator 22.1.0, SVG Export Plug-In . SVG Version: 6.00 Build 0)  -->
<svg version="1.1" id="Слой_1" xmlns="http://www.w3.org/2000/svg" xmlns:xlink="http://www.w3.org/1999/xlink" x="0px" y="0px"
	 viewBox="0 0 330 360" style="enable-background:new 0 0 330 360;" xml:space="preserve">
<g>
	<path d="M198.1,347.9c40.1,0,79.8,0,119.9,0c0-1.4,0-2.7,0-4.1c0-39.9,0-79.7,0-119.6c0-15.8-5.4-29.2-16.7-40.4
		c-9.4-9.3-18.7-18.7-28.1-28.1c-0.8-0.8-1.7-1.6-3.2-3c0,1.9,0,3.1,0,4.3c0,12.5,0,25,0,37.5c0,6.6-1.7,9.4-5.9,9.4
		c-4.2,0.1-6.1-2.8-6.1-9.3c0-54,0-108,0-162c0-13.8-7-20.7-20.8-20.7c-25.1,0-50.2,0-75.4,0c-1.1,0-2.3,0.1-3.4-0.1
		c-3.3-0.4-5.6-3-5.5-6.1c0.2-3.3,2.1-5.3,5.3-5.8c1-0.2,2-0.1,3-0.1c25.6,0,51.2,0,76.9,0c19,0,31.7,12.7,31.8,31.7
		c0,33.4,0,66.7,0,100.1c0,2.6,0.7,4.4,2.5,6.2c12.4,12.3,24.8,24.7,37.2,37.1c13.6,13.5,20.4,29.9,20.4,49.1
		c-0.1,42.4,0,84.7,0,127.1c0,6.9-1.7,8.7-8.6,8.7c-42.2,0-84.5,0-126.7,0c-6.9,0-8.7-1.7-8.7-8.6c0-11,0-22,0-33.4
		c-1.6,0-2.9,0-4.2,0c-27.9,0-55.7,0-83.6,0C78.6,318,66,305.4,66,286c0-16.9,0-33.7,0-50.6c0-0.2-0.1-0.5-0.2-1.3
		c-1.2,0-2.5,0-3.8,0c-14,0-28,0-42,0C7.4,234,0,226.8,0,214.3c0-34.9,0-69.7,0-104.6c0-12.2,7.4-19.7,19.5-19.7c22,0,44,0,66,0
		c1.3,0,2.7,0,4.5,0c0-1.6,0-3,0-4.3c0-17.9,0-35.7,0-53.6c0-6.2,1.9-8.1,8-8.1c8.9,0,17.7,0,26.6,0c4.7,0,6.6,1.6,7.3,6.2
		c0.7,3.9,2.6,5.8,6.5,5.8c19.6,0.1,39.2,0.1,58.9,0c3.9,0,5.9-1.9,6.6-5.8c0.8-4.6,2.6-6.2,7.3-6.2c8.9,0,17.7,0,26.6,0
		c6.1,0,8.1,1.9,8.1,8c0,53.4,0,106.7-0.1,160.1c0,3,0.9,5.1,3,7.2c12.6,12.5,25.1,25,37.7,37.6c0.7,0.7,1.4,1.4,2.1,2.1
		c2.8,3.1,2.9,6.5,0.3,9c-2.5,2.4-5.8,2.2-8.7-0.4c-0.7-0.7-1.4-1.4-2.1-2.1c-21.7-21.7-43.5-43.5-65.2-65.2
		c-7.7-7.7-18.1-9-26.7-3.6c-11.6,7.3-13.3,22.9-3.3,33c15.8,15.9,31.6,31.7,47.5,47.5c0.7,0.7,1.7,1.3,2.1,2.2
		c0.8,2.2,2.1,4.6,1.8,6.7c-0.4,2.8-3.1,4-6,4c-5.8,0.1-11.1,1.7-15.9,4.8c-8.6,5.6-13.9,13.6-14.2,23.9
		C197.7,315,198.1,331.2,198.1,347.9z M163,270c-21.9,0-43.7,0-65.6,0c-5.2,0-7.3-2.1-7.4-7.2c0-5.2-0.1-10.5,0-15.7
		c0-4.1,2.4-6.8,5.8-6.9c3.6-0.1,6.1,2.7,6.1,7c0.1,3.6,0,7.1,0,10.9c2,0,3.5,0,5,0c26.6,0,53.2,0,79.9,0c4.4,0,7.2,2.3,7.3,5.8
		c0.1,3.7-2.7,6.1-7.3,6.2c-4.7,0-9.3,0-14,0c7.8,3.4,12.7,8.8,13,17.4c0.3,9.2-4.8,15-13.7,18.4c4.9,0,9.2,0,13.7,0
		c-0.6-22.3,9.1-37.7,30-46c-1-1.1-2-2.1-2.9-3.1c-12.6-12.6-25.3-25.3-37.9-37.9c-7.5-7.5-11.5-16.4-10.5-27
		c1.3-13.6,8.6-23.4,21.4-28.2c12.9-4.8,24.6-1.9,34.6,7.4c3.7,3.5,7.3,7.2,10.9,10.8c0.6,0.6,1.4,1.1,2.3,1.8
		c0-49.4,0-98.3,0-147.6c-5.9,0-11.6-0.1-17.3,0.1c-0.8,0-1.8,1.1-2.3,1.9c-3.9,6.9-9.7,10.1-17.5,10c-19-0.1-38-0.1-57,0
		c-8,0-14-3.1-17.8-10.2c-0.4-0.8-1.3-1.7-2-1.8c-5.8-0.1-11.7-0.1-17.5-0.1c0,18.2,0,36,0,53.8c36,0,71.7,0,107.7,0
		c0-4-0.4-7.9,0.1-11.7c0.3-1.9,1.7-4.3,3.3-5.3c1.5-0.8,4.6-0.7,5.7,0.4c1.6,1.5,2.7,4.2,2.7,6.5c0.2,22.7,0.1,45.5,0.1,68.2
		c0,2.6,0.1,5.3,0,7.9c-0.2,3.6-2.6,6-5.8,6.1c-3.4,0.1-5.9-2.4-6.1-6.2c-0.1-2.6,0-5.2,0-7.9c0-7.2,0-14.4,0-21.6
		c-66.2,0-132,0-197.8,0c0,8,0,15.7,0,23.7c1.7,0,3.1,0,4.6,0c51.5,0,103,0,154.5,0c1.2,0,2.5-0.1,3.7,0.1c3.2,0.6,5.1,2.5,5.1,5.9
		c0,3.4-2,5.3-5.2,5.9c-1.2,0.2-2.5,0.1-3.7,0.1c-51.5,0-103,0-154.5,0c-1.5,0-2.9,0-4.7,0c0,1.7,0,3.1,0,4.4c0,15.5,0,31,0,46.5
		c0,7.5,1.6,9.1,8.9,9.1c48,0,96,0,144,0c1.2,0,2.5-0.1,3.7,0.1c3.3,0.4,5.5,2.8,5.5,6c0,3.2-2.2,5.6-5.6,5.9c-1.1,0.1-2.2,0-3.4,0
		c-27.6,0-55.2,0-82.9,0c-1.3,0-2.7,0-4.3,0c0,1.5,0,2.6,0,3.7c0,16.2,0,32.5,0,48.7c0,12.2,7.4,19.5,19.7,19.5
		c20.7,0,41.5,0,62.2,0c1.1,0,2.1,0,3.2,0c-8.1-3.6-13.2-9.3-13.1-18.3C150.2,279,155.3,273.5,163,270z M209.7,114
		c0-3.9,0-7.8,0-11.9c-1.4,0-2.6,0-3.8,0c-61.7,0-123.5,0-185.2,0c-1.1,0-2.3-0.1-3.4,0.1c-2.9,0.5-4.8,2.3-5.1,5.2
		c-0.3,2.2-0.1,4.4-0.1,6.6C78.2,114,143.8,114,209.7,114z M174,288.1c0.1-3.2-2.6-6-5.8-6.1c-3.2-0.1-6,2.5-6.2,5.7
		c-0.2,3.4,2.6,6.3,6,6.3C171.2,294,173.9,291.3,174,288.1z"/>
	<path d="M78,53.3c0,7.9,0,15.7,0,23.6c0,4.4-2.3,7.1-6,7.1c-3.6,0-6-2.7-6-7.1c0-15.7-0.1-31.5,0-47.2C66.2,13.3,79.3,0.3,95.7,0.1
		c10.7-0.1,21.5-0.1,32.2,0c4.4,0,7.1,2.4,7,6.1c-0.1,3.6-2.8,5.9-7.2,5.9c-10.2,0-20.5,0-30.7,0c-11.4,0-19,7.6-19,19.1
		C78,38.5,78,45.9,78,53.3z"/>
	<path d="M45.4,174c4.6,0,9.2-0.1,13.9,0c4.4,0.1,6.7,2.3,6.7,6.7c0.1,7.5,0.1,15,0,22.5c0,4.4-2.3,6.7-6.7,6.7
		c-9.5,0.1-19,0.1-28.5,0c-4.4,0-6.7-2.3-6.7-6.7c-0.1-7.5-0.1-15,0-22.5c0-4.4,2.3-6.7,6.7-6.7C35.6,174,40.5,174,45.4,174z
		 M36.2,186.1c0,4.1,0,7.9,0,11.7c6,0,11.8,0,17.4,0c0-4.1,0-7.8,0-11.7C47.8,186.1,42.2,186.1,36.2,186.1z"/>
</g>
</svg>
