<?xml version="1.0" encoding="utf-8"?>
<!-- Generator: Adobe Illustrator 22.1.0, SVG Export Plug-In . SVG Version: 6.00 Build 0)  -->
<svg version="1.1" id="Слой_1" xmlns="http://www.w3.org/2000/svg" xmlns:xlink="http://www.w3.org/1999/xlink" x="0px" y="0px"
	 viewBox="0 0 378.7 379" style="enable-background:new 0 0 378.7 379;" xml:space="preserve">
<g>
	<path d="M0,104.4c0.6-4.4,0.9-8.8,1.7-13.1C3.9,80.5,8.7,71,16.4,63.1c10.2-10.4,20-21.2,30.9-30.8C64,17.8,82.1,17.9,98.1,32.9
		c17.1,16,33.5,32.8,49.4,50c11.9,12.7,11.7,32.2,0.2,45.3c-8.5,9.7-17.9,18.7-27.1,27.8c-1.8,1.8-2.1,2.9-1,5.3
		c9.2,18.6,22.1,34.4,36.2,49.3c14.4,15.4,30.2,29.1,48,40.4c5.1,3.2,10.5,5.9,16.1,9c6.9-7,13.5-14,20.5-20.6
		c5.1-4.8,10.3-9.7,16.4-13.1c12.6-7.1,28-5.3,38.5,4.7c17.5,16.8,34.7,34,51.4,51.7c12.4,13.1,12.5,33,0.5,46.6
		c-10.5,11.9-21.7,23.3-33.1,34.3c-8.7,8.5-19.7,12.9-31.8,14.5c-0.8,0.1-1.6,0.5-2.5,0.7c-4.7,0-9.4,0-14.1,0
		c-0.8-0.2-1.6-0.5-2.4-0.7c-8-1.5-16.1-2.4-23.9-4.4c-27.8-7.3-53.1-20.2-77.2-35.5c-60.4-38.2-106.9-89.4-139.4-153.1
		c-9.1-17.9-16.3-36.7-20.2-56.5C1.3,122.5,0.8,116,0,109.5C0,107.8,0,106.1,0,104.4z M21.8,107.5c0.4,4.3,0.7,8.6,1.2,12.9
		c0.2,2,0.7,3.9,1.1,5.8c5.9,26.1,16.8,50.2,30.8,72.8c37.2,60.3,86.6,107.4,150.4,138.8c19.6,9.7,39.9,17.5,62,19.4
		c13.6,1.2,25.6-2.1,35.3-12.2c8-8.4,16.2-16.6,24.3-24.9c1.2-1.2,2.4-2.5,3.4-3.9c5.2-6.8,5.2-13.8-0.5-20.1
		c-5.8-6.4-12-12.4-18.1-18.5c-9.5-9.5-18.9-19.1-28.6-28.5c-7-6.8-14.4-6.9-21.6-0.4c-1.1,1-2.2,2-3.2,3.1
		c-8.5,8.5-16.9,17-25.4,25.3c-5.9,5.8-12.5,7.2-19.6,3.7c-7.2-3.6-14.3-7.3-21-11.6c-23.1-14.6-43-33-60.9-53.5
		c-12.3-14.1-23.4-28.9-31.4-45.9c-6.7-14.4-5.8-18.3,5.7-29.5c8.3-8,16.5-16,24.3-24.3c6.4-6.8,6.2-13.7,0.2-20.8
		c-0.7-0.8-1.5-1.7-2.2-2.5C113.6,78.4,99.2,64,84.8,49.6c-1.6-1.6-3.5-3.2-5.5-4.3c-6.3-3.5-12.8-2-19.3,4.4
		c-8.2,8-16.1,16.4-24.4,24.3C25.9,83.2,21.3,94.3,21.8,107.5z"/>
	<path d="M210.7,0c4.5,0.9,10,1.8,15.4,3.2c32.8,8.3,62,23.6,87.3,46.3c26.2,23.6,45.4,51.8,56.8,85.2c3.6,10.4,5.9,21.3,8.3,32.1
		c1.4,6.2-2.2,11.2-8.1,12.5c-5.5,1.3-11-1.8-12.6-7.6c-1.7-6-2.7-12.3-4.4-18.3c-11.1-40.7-34.1-73.5-67.7-98.7
		c-22-16.5-46.7-27.3-73.8-32.5c-2.1-0.4-4.1-0.8-6.1-1.5c-4.8-1.8-7.5-6.9-6.6-11.9C200.1,3.8,204.7,0,210.7,0z"/>
	<path d="M207.8,68.8c9.8,1.5,20,4.3,29.6,8.8c39.5,18.4,63.7,48.9,72.4,91.7c1.3,6.3-2.1,12-8,13.4c-5.6,1.3-11.1-2.2-13-8.2
		c-2.5-8.1-4.1-16.6-7.5-24.3c-14.9-32.6-40.2-52.5-75.3-59.8c-6.4-1.3-9.8-5-9.9-10.6C196,73.5,200.8,68.7,207.8,68.8z"/>
</g>
</svg>
