<?xml version="1.0" encoding="utf-8"?>
<!-- Generator: Adobe Illustrator 22.1.0, SVG Export Plug-In . SVG Version: 6.00 Build 0)  -->
<svg version="1.1" id="Слой_1" xmlns="http://www.w3.org/2000/svg" xmlns:xlink="http://www.w3.org/1999/xlink" x="0px" y="0px" viewBox="0 0 324.2 336.6" style="enable-background:new 0 0 324.2 336.6;" xml:space="preserve">
	<style type="text/css">
		path {
			fill: #ea5626;
		}
	</style>
	<g>
		<path d="M172.9,336.6c-5.6-1.8-11.8-2.7-16.9-5.4C75.7,287.4,25.1,221.1,5.7,131.4c-4-18.3-5.6-37-5.7-55.8
		c-0.1-14.4,5.9-25.3,18.1-32.7c9.3-5.7,18.5-11.3,27.8-16.9c18.8-11.3,39.8-6.2,51.3,12.4c5.9,9.6,11.8,19.1,17.5,28.8
		c11,18.4,5.9,39.5-12.3,50.8c-4.6,2.8-9.2,5.5-13.7,8.4c-6.1,3.8-7.9,8.7-5.8,15.4c10.4,32.6,27.7,61,51.9,85.2
		c4.9,4.9,10,5.6,15.9,2.1c4.7-2.8,9.4-5.7,14.1-8.5c18.4-11,39.5-5.9,50.7,12.4c6,9.7,11.9,19.4,17.7,29.1
		c10.8,18.1,6,39-11.8,50.3c-9.9,6.3-20,12.3-30.1,18.3c-5.6,3.3-11.7,5-18.2,4.9C173.1,335.9,173,336.2,172.9,336.6z" />
		<path d="M324.2,164.3c-1.1,10.6-1.8,19.4-3,28.2c-0.7,5.2-5.3,8.8-10.4,9.3c-4.9,0.5-10-2.2-11.8-6.8c-0.9-2.3-1.2-5.2-0.9-7.6
		c1.6-13.5,2-26.9,0.2-40.3C290.5,89.3,249.1,42,192.9,27c-5.5-1.5-11.2-2.3-16.8-3.7c-5.1-1.3-8.6-5.7-8.8-10.9
		c-0.2-5.5,2.8-10.2,8-11.8c2.2-0.7,4.7-0.8,7-0.4c67.3,10.2,123.5,63.3,137.3,130.1C322,142,322.9,154,324.2,164.3z" />
		<path d="M275.9,165.2c-0.6,6.5-1,12.5-1.8,18.4c-1,7.2-6.8,11.5-13.8,10.6c-6.4-0.9-10.8-7.1-9.9-14c6.9-50.5-24.1-96-73.4-107.8
		c-2.2-0.5-4.4-0.8-6.6-1.3c-7-1.4-11.5-7.6-10.2-14.2c1.3-6.6,7.6-10.7,14.7-9.5c51.3,9.2,89.1,46.4,98.7,97.4
		C274.9,151.8,275.2,158.8,275.9,165.2z" />
		<path d="M227.7,165.7c-0.3,3.2-0.5,6.5-0.9,9.7c-0.9,7.8-6.5,12.4-13.8,11.5c-6.8-0.8-11-7.1-10-14.6c3-22.2-9.9-43.8-30.9-51.4
		c-3-1.1-6.2-1.7-9.4-2.4c-6.6-1.4-11-7.5-9.9-13.7c1.2-6.8,7.4-11.1,14.4-9.9C202.2,101,227.5,130.7,227.7,165.7z" />
	</g>
</svg>