<?xml version="1.0" encoding="utf-8"?>
<!-- Generator: Adobe Illustrator 22.1.0, SVG Export Plug-In . SVG Version: 6.00 Build 0)  -->
<svg version="1.1" id="Слой_1" xmlns="http://www.w3.org/2000/svg" xmlns:xlink="http://www.w3.org/1999/xlink" x="0px" y="0px"
	 viewBox="0 0 284.7 339.4" style="enable-background:new 0 0 284.7 339.4;" xml:space="preserve">
<g>
	<path d="M142.5,0C214,0.7,274.8,53.9,283.4,124.5c5.6,46.1-8.1,86-40.4,119.1c-30.1,30.7-60.7,60.9-91.1,91.3
		c-6.1,6.1-12.9,6.1-19-0.1c-30.3-30.3-60.8-60.5-90.9-91C14.1,215.8,0,181.8,0,142.3C-0.1,73.5,50.2,14.3,118,2.8
		C126.1,1.4,134.4,0.9,142.5,0z M141.9,310.6c1.1-0.9,1.5-1.2,1.8-1.5c27.7-27.7,55.8-55.2,83.1-83.3
		c27.4-28.3,38.2-62.5,32.3-101.4C249.4,60.4,189.5,16.7,125.2,26C67.9,34.2,24.3,83.8,24.1,141.8c-0.2,33.6,12,62.4,35.8,86.1
		c26.2,26.2,52.3,52.3,78.5,78.5C139.6,307.6,140.6,309.1,141.9,310.6z"/>
	<path d="M142.4,195.8c-33.4-0.1-60.1-26.9-60-60.1c0.1-33.2,27.1-60,60.3-59.9c33,0.1,59.8,27.3,59.7,60.6
		C202.3,169.1,175.2,195.9,142.4,195.8z M142.2,171.7c19.8,0.1,36-15.7,36.2-35.4c0.2-20.1-15.7-36.3-35.8-36.6
		c-19.6-0.3-36.1,16.1-36.2,35.9C106.3,155.6,122.2,171.6,142.2,171.7z"/>
</g>
</svg>
