<?xml version="1.0" encoding="utf-8"?>
<!-- Generator: Adobe Illustrator 22.1.0, SVG Export Plug-In . SVG Version: 6.00 Build 0)  -->
<svg version="1.1" id="Слой_1" xmlns="http://www.w3.org/2000/svg" xmlns:xlink="http://www.w3.org/1999/xlink" x="0px" y="0px"
	 viewBox="0 0 245.8 307.3" style="enable-background:new 0 0 245.8 307.3;" xml:space="preserve">
<g>
	<path d="M123,0c60.3,0.1,111.9,44,121.1,103.5c5.7,36.9-3.4,70.2-27.7,98.8c-28.5,33.7-57.4,66.9-86.2,100.4
		c-5.2,6.1-9.5,6.1-14.8,0c-29-33.7-58.2-67.3-87-101.2C-26.5,136.8,1.6,34.8,81.9,7.1C95.9,2.3,109.4,0,123,0z M122.9,287.8
		c1.4-1.6,2.5-2.8,3.5-4c25.9-30.1,51.9-60.2,77.7-90.4c21.3-25,29.8-54.1,25-86.5c-8.8-59.6-64.5-100.1-124.2-89.7
		c-40.6,7-69,30.7-82.9,69.3c-14,38.8-6.8,74.8,19.6,106.7c13.1,15.8,26.7,31.1,40.1,46.6C95.2,255.7,108.8,271.5,122.9,287.8z"/>
	<path d="M122.7,69.1c29.1-0.3,53.5,23.7,54,53.1c0.4,29.6-23.5,54.1-53.3,54.5c-29.6,0.4-54-23.7-54.3-53.4
		C68.8,93.7,92.8,69.5,122.7,69.1z M122.8,161.2c21.5-0.1,38.4-17.1,38.4-38.6c-0.1-21.2-17.3-38.1-38.7-38
		c-21.2,0.1-38.1,17.3-38,38.7C84.7,144.3,101.8,161.3,122.8,161.2z"/>
</g>
</svg>
