<?xml version="1.0" encoding="utf-8"?>
<!-- Generator: Adobe Illustrator 22.1.0, SVG Export Plug-In . SVG Version: 6.00 Build 0)  -->
<svg version="1.1" id="Слой_1" xmlns="http://www.w3.org/2000/svg" xmlns:xlink="http://www.w3.org/1999/xlink" x="0px" y="0px"
	 viewBox="0 0 409.7 409.7" style="enable-background:new 0 0 409.7 409.7;" xml:space="preserve">
<g>
	<path d="M409.7,192.8c0,8,0,16,0,24c-0.2,1.1-0.6,2.3-0.7,3.5c-2,28.6-9.4,55.8-23.4,80.7c-37.7,67.1-95.3,103.6-172.1,108.3
		c-36.8,2.3-72-5.6-104.3-23.6C41.7,348.1,5.2,290.5,0.4,213.4c-2.3-36.9,5.8-72.2,23.7-104.7C55.8,51,104.3,15.7,169.2,3.2
		C177,1.7,185,1.1,192.9,0c8,0,16,0,24,0c1,0.2,2,0.6,3.1,0.7c25,1.7,49,7.6,71.4,18.6c63,30.9,101.6,80.9,115.1,149.9
		C407.9,177,408.6,184.9,409.7,192.8z M153.7,204.6c0,20.5,0.1,41,0,61.6c0,5.9,1.4,10.9,6.8,13.9c5.3,2.9,10.2,1.3,15-1.7
		c32.7-20.5,65.5-40.9,98.2-61.4c10.7-6.7,10.7-17.4,0.1-24.1c-9.6-6-19.2-12-28.8-18c-23.3-14.5-46.5-29.1-69.8-43.6
		c-3.7-2.3-7.5-4-12.1-2.6c-6.1,1.8-9.4,6.5-9.4,13.7C153.6,163,153.7,183.8,153.7,204.6z"/>
</g>
</svg>
