<?xml version="1.0" encoding="utf-8"?>
<!-- Generator: Adobe Illustrator 22.1.0, SVG Export Plug-In . SVG Version: 6.00 Build 0)  -->
<svg version="1.1" id="Слой_1" xmlns="http://www.w3.org/2000/svg" xmlns:xlink="http://www.w3.org/1999/xlink" x="0px" y="0px"
	 viewBox="0 0 384 230.9" style="enable-background:new 0 0 384 230.9;" xml:space="preserve">
<g>
	<path d="M384,227.2c-1.9,2.9-4.6,3.7-8,3.7c-122.6-0.1-245.2-0.1-367.8-0.1c-1,0-2,0.1-3-0.1c-3.2-0.4-5.3-2.9-5.1-5.9
		c0.2-3,2.4-5.1,5.7-5.3c2.9-0.1,5.7,0,9.2,0c0-1.6,0-3,0-4.5c0-28.5,0-57,0-85.5c0-1.1-0.1-2.3,0.1-3.4c0.4-3.1,2.3-5,5.5-5.1
		c3.2,0,5.1,1.8,5.6,4.9c0.2,1.2,0.1,2.5,0.1,3.7c0,28.4,0,56.7,0,85.1c0,1.4,0,2.7,0,4.3c30.3,0,60.3,0,90.6,0c0-44,0-87.9,0-132.1
		c-30,0-60.1,0-90.6,0c0,5.4,0.1,10.9,0,16.3c-0.1,4.1-2.7,6.7-6.3,6.1c-3.2-0.5-4.9-2.5-4.9-5.6c-0.1-7.5-0.1-15,0-22.5
		c0.1-4,2.4-5.9,7-5.9c20.4,0,40.7,0,61.1,0c11.1,0,22.2,0,33.6,0c0-13.3,0-26.3,0-39.7c-1.9,0-3.7,0-5.6,0
		c-6.5-0.2-11.3-5-11.5-11.4c-0.1-4.4-0.1-8.8,0-13.1c0.2-6.1,4.7-11,10.8-11.3c5-0.3,10-0.2,15,0c3.6,0.1,5.8,2.4,5.8,5.5
		c0,3.4-2.2,5.6-6.1,5.6c-4.6,0.1-9.2,0-14.1,0c0,4.5,0,8.6,0,13.1c53.7,0,107.5,0,161.5,0c0-4.2,0-8.4,0-13.1c-1.6,0-3,0-4.5,0
		c-39,0-78,0-117,0c-5.8,0-8.5-1.8-8.5-5.5c0-3.8,2.8-5.7,8.4-5.7c39.9,0,79.7,0,119.6,0c9.1,0,13.5,4.5,13.5,13.6
		c0,3.2,0,6.5,0,9.7c-0.1,7.9-4.8,12.5-12.7,12.6c-1.4,0-2.7,0-4.4,0c0,26.9,0,53.7,0,81.1c1.3,0,2.8,0,4.2,0c29.7,0,59.5,0,89.2,0
		c6.7,0,8.3,1.6,8.3,8.5c0,18.6,0,37.2,0,55.9c0,0.6,0,1.3,0,1.9c-0.1,4-2.4,6.5-5.8,6.4c-3.2-0.1-5.4-2.5-5.5-6.3
		c-0.1-4.2,0-8.5,0-12.7c0-12.6,0-25.2,0-37.9c0-1.3,0-2.7,0-4.2c-30.3,0-60.2,0-90.5,0c0,30.2,0,60.5,0,91c30.1,0,60,0,90.5,0
		c0-3.9,0-7.7,0-11.5c0-4.4,2.1-6.9,5.6-7c3.5,0,5.6,2.5,5.7,6.9c0,3.5,0,7,0.1,10.5c0,0.2,0.1,0.5,0.2,0.9
		c4.8,1.6,11.3-2.2,14.7,4.2C384,224.7,384,226,384,227.2z M255.4,219.4c0-61.2,0-122.2,0-183.2c-42.4,0-84.6,0-126.9,0
		c0,61.2,0,122.1,0,183.2C170.9,219.4,213,219.4,255.4,219.4z"/>
	<path d="M324.8,173.9c5.9,9.7,4.4,19.3-3.8,24.4c-5.3,3.3-10.9,3.6-16.4,0.6c-5.3-2.9-8.3-7.4-8.5-13.6c-0.1-3.3,1.3-5.6,4.6-6.2
		c3.2-0.6,5.6,1.3,6.4,4.8c0.2,0.8,0,2.1,0.5,2.5c1.5,1.2,3.5,3.1,5,2.9c1.7-0.3,3.9-2.5,4.3-4.2c0.3-1.5-1.5-3.6-2.7-5.1
		c-0.6-0.7-2.1-0.5-3.2-0.8c-2.8-0.7-4.3-2.5-4.3-5.4c0-2.8,1.5-4.7,4.2-5.4c1-0.3,2.3-0.1,2.9-0.7c1.3-1.4,3.2-3.2,3.1-4.8
		c-0.1-1.6-2-4-3.5-4.4c-1.5-0.4-3.6,1.2-5.4,2c-0.4,0.2-0.5,1.1-0.7,1.7c-1.6,3.8-4.4,5.3-7.6,4c-2.9-1.1-4.2-4.2-3-7.8
		c2.1-6.4,6.6-10.3,13.1-11.4c6.4-1,11.9,1.3,15.7,6.7c3.8,5.4,4,11.1,1.2,17C326.2,171.9,325.5,172.8,324.8,173.9z"/>
	<path d="M72.8,165.8c3.5,0,6.5-0.1,9.4,0c4.1,0.1,6.5,2.2,6.4,5.7c0,3.3-2.3,5.4-6.2,5.5c-6.5,0.1-13,0.3-19.5-0.2
		c-2.1-0.1-5.1-1.6-6-3.3c-0.9-1.7-0.2-5,1-6.8c4.2-6.5,9.1-12.5,13.5-18.9c1.4-2,2.6-4.3,3.7-6.5c1.3-2.8,0.2-5-2.4-6.2
		c-2.7-1.2-5.1-0.4-6.7,2.4c-0.1,0.1-0.1,0.2-0.1,0.3c-2.3,4.9-4.7,6.3-8.1,4.8c-3.4-1.6-4.2-5.1-2.1-9.7
		c3.6-7.9,12.8-11.6,20.8-8.4c8.1,3.2,12.7,12.2,9.2,20.2c-2.8,6.2-7,11.7-10.7,17.5C74.5,163.3,73.8,164.3,72.8,165.8z"/>
	<path d="M186.3,81.3c-2.7,0-5.1,0.1-7.4,0c-3.6-0.2-5.8-2.5-5.7-5.6c0-3.2,2.2-5.3,5.9-5.5c3.7-0.2,7.5-0.1,11.2,0
		c5.4,0.1,7.2,1.8,7.3,7.2c0.1,11.1,0,22.2,0,33.3c0,8.7,0.2,17.5-0.2,26.2c-0.1,1.9-1.8,4.4-3.4,5.5c-1.2,0.8-4.3,0.4-5.3-0.7
		c-1.4-1.5-2.2-4.1-2.2-6.3c-0.2-16.3-0.1-32.7-0.1-49C186.3,84.8,186.3,83.3,186.3,81.3z"/>
</g>
</svg>
