<?xml version="1.0" encoding="utf-8"?>
<!-- Generator: Adobe Illustrator 22.1.0, SVG Export Plug-In . SVG Version: 6.00 Build 0)  -->
<svg version="1.1" id="Слой_1" xmlns="http://www.w3.org/2000/svg" xmlns:xlink="http://www.w3.org/1999/xlink" x="0px" y="0px" viewBox="0 0 360 300" style="enable-background:new 0 0 360 300;" xml:space="preserve">
	<style type="text/css">
		path {
			fill: #FFFFFF;
		}
	</style>
	<g>
		<path d="M270.2,168c0,8.2,0,15.9,0,24c3.1,0,6.1,0,9.1,0c7.1,0,8.7,1.7,8.7,8.9c0,4.6,0,9.2,0,13.9c0,0.2,0.1,0.5,0.3,1.2
		c1.2,0,2.5,0,3.8,0c19.9,0,39.7,0,59.6,0c6.4,0,8.2,1.9,8.2,8.3c0,22.5,0,45,0,67.5c0,6.3-1.9,8.2-8.3,8.2c-78.5,0-157,0-235.5,0
		c-6.4,0-8.2-1.9-8.2-8.3c0-22.5,0-45,0-67.5c0-6.4,1.9-8.2,8.3-8.2c19.7,0,39.5,0,59.2,0c1.4,0,2.7,0,4.5,0c0-5.6,0-10.9,0-16.3
		c0-5.7,2-7.7,7.6-7.7c3,0,6,0,9,0c0.2,0,0.5-0.1,1.1-0.1c0-7.7,0-15.5,0-23.8c-1.2,0-2.5,0-3.9,0c-25.7,0-51.5,0-77.2,0
		c-6.9,0-8.6-1.7-8.6-8.7c0-50.2,0-100.5,0-150.7c0-6.9,1.7-8.6,8.6-8.6c78.2,0,156.5,0,234.7,0c6.9,0,8.6,1.7,8.6,8.6
		c0,50.2,0,100.5,0,150.7c0,6.9-1.8,8.6-8.6,8.6c-25.6,0-51.2,0-76.9,0C273.2,168,271.8,168,270.2,168z M264.3,12.2
		c0,48.1,0,95.9,0,143.5c28.1,0,55.8,0,83.5,0c0-48,0-95.7,0-143.5C319.9,12.2,292.2,12.2,264.3,12.2z M323.8,228.3
		c-60.1,0-119.8,0-179.6,0c0,12,0,23.7,0,35.5c18,0,35.8,0,53.8,0c0-5.5,0-10.7,0-15.9c0-5.9,2-7.9,7.9-7.9c18.7,0,37.5,0,56.2,0
		c5.9,0,7.9,2,7.9,7.9c0,5.3,0,10.6,0,15.9c18.2,0,35.9,0,53.8,0C323.8,251.9,323.8,240.2,323.8,228.3z M120.2,12.1
		c0,12.1,0,23.8,0,35.7c44,0,87.7,0,131.6,0c0-12,0-23.8,0-35.7C207.8,12.1,164.2,12.1,120.2,12.1z M347.9,228.3
		c-4.1,0-7.9,0-11.9,0c0,13.5,0,26.7,0,40c0,5.7-2,7.8-7.6,7.8c-63,0-126,0-189,0c-5.3,0-7.4-2.1-7.4-7.6c0-12.1,0-24.2,0-36.4
		c0-1.3,0-2.6,0-3.8c-4.3,0-8,0-11.7,0c0,20,0,39.8,0,59.5c76,0,151.8,0,227.7,0C347.9,267.8,347.9,248.2,347.9,228.3z M257.8,168.3
		c-16.1,0-31.8,0-47.5,0c0,8,0,15.8,0,23.5c16,0,31.7,0,47.5,0C257.8,183.9,257.8,176.2,257.8,168.3z M275.8,204.3
		c-28.1,0-55.8,0-83.5,0c0,4,0,7.8,0,11.6c28,0,55.7,0,83.5,0C275.8,211.9,275.8,208.2,275.8,204.3z M179.9,60.2
		c-8.1,0-15.9,0-23.7,0c0,8,0,15.8,0,23.5c8.1,0,15.8,0,23.7,0C179.9,75.8,179.9,68.2,179.9,60.2z M192.3,60.2c0,8.1,0,15.9,0,23.5
		c8,0,15.8,0,23.5,0c0-8,0-15.7,0-23.5C207.9,60.2,200.2,60.2,192.3,60.2z M228.3,60.2c0,8,0,15.8,0,23.5c8,0,15.8,0,23.6,0
		c0-8,0-15.7,0-23.5C243.9,60.2,236.3,60.2,228.3,60.2z M143.7,119.8c0-8.1,0-15.9,0-23.5c-8.1,0-15.8,0-23.5,0c0,8,0,15.7,0,23.5
		C128.1,119.8,135.8,119.8,143.7,119.8z M156.3,96.2c0,8,0,15.8,0,23.5c8,0,15.8,0,23.6,0c0-8,0-15.7,0-23.5
		C172,96.2,164.3,96.2,156.3,96.2z M215.8,96.3c-8.1,0-15.9,0-23.5,0c0,8,0,15.8,0,23.5c8,0,15.7,0,23.5,0
		C215.8,111.9,215.8,104.2,215.8,96.3z M228.2,96.2c0,8.1,0,15.8,0,23.6c8,0,15.8,0,23.5,0c0-8,0-15.8,0-23.6
		C243.8,96.2,236.1,96.2,228.2,96.2z M120.2,132.2c0,8,0,15.7,0,23.6c8,0,15.8,0,23.5,0c0-8,0-15.8,0-23.6
		C135.8,132.2,128.1,132.2,120.2,132.2z M179.7,155.8c0-8.1,0-15.9,0-23.5c-8,0-15.8,0-23.5,0c0,8,0,15.7,0,23.5
		C164.1,155.8,171.8,155.8,179.7,155.8z M192.2,155.7c8.1,0,15.9,0,23.5,0c0-8,0-15.8,0-23.5c-8,0-15.7,0-23.5,0
		C192.2,140.1,192.2,147.8,192.2,155.7z M251.8,132.2c-8,0-15.7,0-23.6,0c0,8,0,15.8,0,23.5c8,0,15.8,0,23.6,0
		C251.8,147.7,251.8,140,251.8,132.2z M143.7,83.8c0-8.1,0-15.9,0-23.5c-8,0-15.8,0-23.5,0c0,8,0,15.7,0,23.5
		C128.1,83.8,135.8,83.8,143.7,83.8z M210.1,263.8c16.1,0,31.9,0,47.6,0c0-4,0-7.8,0-11.5c-16.1,0-31.8,0-47.6,0
		C210.1,256.2,210.1,259.8,210.1,263.8z" />
		<path d="M47.8,300c-13.4,0-26.7,0-40.1,0c-5.7,0-7.7-2-7.7-7.6c0-15,0-30,0-45c0-7.8,3.1-13.6,10.1-17.5c1-0.6,1.8-2.5,1.9-3.8
		c0.1-16.6,0.1-33.2,0.1-49.8c0-3.1,0.2-6,3.5-7.6c3.3-1.6,5.7,0.1,8.1,2.1c2.5,2.1,5,4.2,7.7,6c0.9,0.6,2.8,0.6,3.7,0
		c3.1-2.1,5.9-4.6,8.8-7c2.8-2.3,5.7-2.3,8.5,0c2.7,2.2,5.6,4.2,8.2,6.6c2,1.9,3.5,1.7,5.4-0.1c2.3-2.1,4.9-3.9,7.3-5.9
		c2.2-1.9,4.6-3.1,7.5-1.7c2.9,1.4,3.5,3.9,3.5,6.9c0,16.6,0,33.2-0.1,49.8c0,2.4,0.4,3.9,2.9,5.2c5.8,3.1,9,8.3,9.1,14.9
		c0.2,16,0.1,32,0.1,48c0,4.4-2.5,6.5-7.3,6.5C75.1,300,61.4,300,47.8,300z M84,287.9c0-13.7,0-27,0-40.3c0-5.4-2.1-7.5-7.5-7.5
		c-19,0-38,0-56.9,0c-5.6,0-7.6,2.1-7.6,7.8c0,12.4,0,24.7,0,37.1c0,1,0.1,1.9,0.2,3C36.1,287.9,59.8,287.9,84,287.9z M71.8,227.8
		c0-13.7,0-27.1,0-41c-1.5,1.1-2.7,2-3.9,2.9c-4,3.1-5.9,3.1-10-0.1c-2.6-2.1-5.3-4.1-7.9-6.3c-1.5-1.3-2.7-1.3-4.2,0
		c-2.8,2.4-5.8,4.7-8.7,7.1c-2.8,2.3-5.7,2.2-8.5-0.1c-1.4-1.1-2.8-2.2-4.5-3.6c0,14.2,0,27.6,0,41.2
		C40.1,227.8,55.8,227.8,71.8,227.8z" />
		<path d="M311.8,72.3c0,4,0,7.7,0,11.5c-11.9,0-23.5,0-35.5,0c0-3.7,0-7.5,0-11.5C288,72.3,299.8,72.3,311.8,72.3z" />
		<path d="M276.2,59.8c0-4,0-7.7,0-11.6c11.9,0,23.6,0,35.5,0c0,3.8,0,7.5,0,11.6C300,59.8,288.2,59.8,276.2,59.8z" />
		<path d="M276.2,131.7c0-4,0-7.7,0-11.6c11.9,0,23.5,0,35.5,0c0,3.7,0,7.5,0,11.6C300,131.7,288.3,131.7,276.2,131.7z" />
		<path d="M276.2,107.7c0-4,0-7.6,0-11.5c11.9,0,23.5,0,35.5,0c0,3.7,0,7.5,0,11.5C300,107.7,288.3,107.7,276.2,107.7z" />
		<path d="M335.8,107.8c-4,0-7.7,0-11.5,0c0-3.9,0-7.5,0-11.5c3.7,0,7.5,0,11.5,0C335.8,100,335.8,103.8,335.8,107.8z" />
		<path d="M324.2,72.2c3.9,0,7.5,0,11.5,0c0,3.8,0,7.5,0,11.6c-3.7,0-7.5,0-11.5,0C324.2,80,324.2,76.3,324.2,72.2z" />
		<path d="M335.8,59.8c-4,0-7.7,0-11.6,0c0-3.9,0-7.6,0-11.5c3.7,0,7.5,0,11.6,0C335.8,52,335.8,55.8,335.8,59.8z" />
		<path d="M324.3,120.1c3.9,0,7.5,0,11.5,0c0,3.8,0,7.6,0,11.7c-3.6,0-7.4,0-11.5,0C324.3,128,324.3,124.2,324.3,120.1z" />
		<path d="M228.1,35.7c0-3.9,0-7.5,0-11.4c3.8,0,7.6,0,11.7,0c0,3.7,0,7.5,0,11.4C235.8,35.7,232,35.7,228.1,35.7z" />
		<path d="M204.2,24.2c3.9,0,7.5,0,11.5,0c0,3.8,0,7.5,0,11.6c-3.7,0-7.5,0-11.5,0C204.2,32,204.2,28.3,204.2,24.2z" />
		<path d="M180.3,24.1c3.9,0,7.5,0,11.4,0c0,3.8,0,7.6,0,11.7c-3.7,0-7.5,0-11.4,0C180.3,31.8,180.3,28,180.3,24.1z" />
		<path d="M24.2,269.7c0-3.9,0-7.6,0-11.5c15.8,0,31.5,0,47.5,0c0,3.7,0,7.5,0,11.5C56,269.7,40.3,269.7,24.2,269.7z" />
		<path d="M59.7,215.9c-7.9,0-15.6,0-23.5,0c0-3.9,0-7.7,0-11.7c7.8,0,15.5,0,23.5,0C59.7,207.9,59.7,211.7,59.7,215.9z" />
	</g>
</svg>