<?xml version="1.0" encoding="utf-8"?>
<!-- Generator: Adobe Illustrator 22.1.0, SVG Export Plug-In . SVG Version: 6.00 Build 0)  -->
<svg version="1.1" id="Слой_1" xmlns="http://www.w3.org/2000/svg" xmlns:xlink="http://www.w3.org/1999/xlink" x="0px" y="0px"
	 viewBox="0 0 384 384.1" style="enable-background:new 0 0 384 384.1;" xml:space="preserve">
<g>
	<path d="M184.5,0c3.5,1.2,7.2,1.9,10.5,3.5c14.7,7.2,22.4,19.1,22.5,35.6c0.1,30.5,0,61,0,91.5c0,71.1,0,142.2,0,213.4
		c0,18.3-10.1,33-26.5,38c-4.2,1.3-8.8,1.9-13.2,2c-46,0.1-92,0.1-138,0.1C16.5,384,0,367.4,0,344C0,242.8,0,141.5,0,40.3
		C0,19.6,11.7,5.2,32.1,0.6C32.4,0.5,32.7,0.2,33,0C83.5,0,134,0,184.5,0z M204.8,192.4c0-50.7,0-101.5,0-152.2
		c0-16.7-10.7-27.4-27.4-27.4c-45.6,0-91.2,0-136.8,0c-17.1,0-27.7,10.7-27.7,27.9c0,100.8,0,201.7,0,302.5c0,17.4,10.6,28,28,28
		c45.2,0,90.5,0,135.7,0c17.8,0,28.2-10.4,28.2-28.1C204.8,292.9,204.8,242.6,204.8,192.4z"/>
	<path d="M384,362.3c-0.9,2.6-1.6,5.3-2.8,7.7c-4.6,8.8-12,13.9-21.9,14c-34.7,0.2-69.5,0.2-104.2,0c-13.7-0.1-24.4-11.5-24.7-25.6
		c-0.1-7.9,0-15.7,0-23.6c0-51.4,0-102.7,0-154.1c0-13.6,8.1-24,20.8-26.5c2.3-0.5,4.7-0.4,7.1-0.4c32.5,0,65,0,97.5,0
		c15.1,0,23.3,6,27.8,20.5c0.1,0.2,0.3,0.4,0.5,0.5C384,237.3,384,299.8,384,362.3z M371.2,269.3c0-29.2,0-58.5,0-87.7
		c0-10.4-4.7-15.1-15.1-15.1c-32.6,0-65.2,0-97.8,0c-10.4,0-15.1,4.8-15.2,15.1c0,58.2,0,116.4,0,174.7c0,10,5,15,14.9,15
		c32.7,0,65.5,0,98.2,0c10,0,14.9-5,14.9-15C371.2,327.2,371.2,298.3,371.2,269.3z"/>
	<path d="M371.9,103.1c-1.7,1.7-3.1,4-5.1,5.1c-2.5,1.4-5.1,0.3-7-2c-2.1-2.6-3.9-5.5-6.1-8C342.5,86,328.1,79.7,312,77.6
		c-21.2-2.7-40.9,1.3-57.8,14.9c-4.5,3.6-8,8.5-11.7,13c-1.9,2.3-4.3,4.1-7,2.8c-2-0.9-3.9-3.1-4.6-5.1c-0.5-1.5,0.5-3.9,1.5-5.5
		c9.6-15,23.5-24.4,40.3-29.4c26.9-8,52.8-5.5,77,9.6c8.2,5.1,14.8,11.8,20,20C370.3,99.3,370.8,100.8,371.9,103.1z"/>
	<path d="M302.5,89.6c19.4,0.6,36.1,9.5,47.8,27.4c2.7,4.2,2.2,8.1-1.2,10.1c-3.5,2.1-6.8,1-9.6-3.4c-18.6-28.5-58.6-28.5-77.2,0
		c-2.8,4.3-6.2,5.5-9.6,3.3c-3.4-2.1-3.8-5.9-1.2-10.2C261.8,100.2,280.6,89.7,302.5,89.6z"/>
	<path d="M300.8,115.2c11.6,0.1,20.8,4.9,27.2,14.9c2.4,3.8,2,7.5-1.1,9.6c-3.3,2.3-6.7,1.4-9.6-2.5c-8.8-12.3-24.1-12.3-33.1-0.1
		c-2.7,3.6-6.2,4.6-9.3,2.5c-3.3-2.2-3.8-5.9-1.2-9.9C280.2,120.1,289.2,115.4,300.8,115.2z"/>
	<path d="M108.7,179.2c-20.6,0-41.2,0-61.8,0c-13.5,0-21.3-7.8-21.3-21.4c0-28.5,0-57,0-85.5c0-13.3,7.9-21.2,21.3-21.2
		c41.4,0,82.7,0,124.1,0c13.3,0,21.1,7.9,21.1,21.3c0,28.5,0,57,0,85.5c0,13.6-7.8,21.3-21.4,21.3
		C150,179.2,129.4,179.2,108.7,179.2z M108.9,166.4c20.6,0,41.2,0,61.8,0c6.4,0,8.5-2.2,8.5-8.6c0-28.5,0-57,0-85.4
		c0-6.3-2.2-8.5-8.6-8.5c-41.2,0-82.4,0-123.7,0c-6.4,0-8.5,2.2-8.6,8.6c0,28.4,0,56.7,0,85.1c0,6.8,2.1,8.8,9,8.8
		C67.9,166.4,88.4,166.4,108.9,166.4z"/>
	<path d="M134.5,224.1c-0.2,3.4,0.1,6.8-0.5,10.1c-1.6,8.8-9.1,15-18.3,15.4c-4.5,0.2-9,0.2-13.5,0c-11-0.4-18.9-8.6-19-19.6
		c0-4.4-0.1-8.7,0-13.1c0.3-9.7,7.7-17.7,17.3-18.3c5.2-0.4,10.5-0.3,15.7-0.1c10.3,0.6,17.8,8.5,18,18.8c0.1,2.2,0,4.5,0,6.7
		C134.4,224.1,134.4,224.1,134.5,224.1z M121.6,224.2c0-2.1,0.1-4.2,0-6.3c-0.2-4.1-2.4-6.4-6.5-6.6c-2.1-0.1-4.2,0-6.3,0
		c-12.2,0-12.6,0.5-12.6,12.5c0,12.6,0.5,13.1,12.9,13.1C121,236.9,121.6,236.3,121.6,224.2z"/>
	<path d="M108.7,38.3c-16.5,0-33,0.1-49.5-0.1c-2.1,0-4.6-0.7-6.1-2c-3.4-2.9-2.1-8.5,2.2-10.1c1.5-0.5,3.2-0.6,4.8-0.6
		c32.5,0,65,0,97.5,0c0.6,0,1.3,0,1.9,0c4.3,0.2,7.2,2.9,7,6.6c-0.1,3.6-2.9,6.1-7.1,6.1c-12.9,0.1-25.7,0-38.6,0
		C116.7,38.3,112.7,38.3,108.7,38.3z"/>
	<path d="M109.1,262.4c1.7,0,3.5,0,5.2,0c8.3,0.1,13.5,5.2,13.7,13.6c0.1,3.7,0.1,7.5,0,11.2c-0.2,8.3-5.4,13.4-13.8,13.5
		c-3.9,0-7.7,0.1-11.6,0c-7.4-0.1-12.6-4.9-13-12.3c-0.3-4.6-0.3-9.3,0-13.9c0.4-7.3,5.6-12,13.1-12.2
		C104.9,262.4,107,262.4,109.1,262.4z M115.1,275.5c-4.3,0-8.4,0-12.4,0c0,4.2,0,8.1,0,12.3c4.2,0,8.2,0,12.4,0
		C115.1,283.7,115.1,279.7,115.1,275.5z"/>
	<path d="M108.8,351.9c-2.5,0-5,0.1-7.5,0c-5.9-0.4-10.9-4.7-11.4-10.5c-0.5-5.6-0.5-11.2,0-16.8c0.5-6.3,5.8-10.7,12.3-10.9
		c4.2-0.1,8.5-0.1,12.7,0c7.3,0.2,12.5,5,13,12.4c0.3,4.5,0.3,9,0,13.5c-0.4,7.5-5.6,12.3-13.2,12.5
		C112.8,352,110.8,351.9,108.8,351.9C108.8,351.9,108.8,351.9,108.8,351.9z M102.6,326.5c0,4.3,0,8.2,0,12.4c4.2,0,8.2,0,12.3,0
		c0-4.3,0-8.3,0-12.4C110.8,326.5,106.9,326.5,102.6,326.5z"/>
	<path d="M166.2,300.8c-2,0-4,0-6,0c-7.3-0.2-12.6-5.1-13-12.3c-0.3-4.5-0.2-9,0-13.5c0.4-7.4,5.7-12.4,13.2-12.5
		c4.2-0.1,8.5-0.1,12.7,0c6.7,0.2,11.9,5,12.3,11.7c0.3,4.7,0.3,9.5,0.1,14.2c-0.3,7.3-5.6,12.2-12.9,12.3
		C170.5,300.8,168.3,300.8,166.2,300.8z M172.5,287.8c0-4.3,0-8.3,0-12.3c-4.3,0-8.3,0-12.3,0c0,4.2,0,8.2,0,12.3
		C164.3,287.8,168.2,287.8,172.5,287.8z"/>
	<path d="M166.5,211.3c2.1,0,4.3-0.1,6.4,0c7.3,0.3,12.2,5,12.6,12.2c0.2,4.6,0.2,9.2,0,13.9c-0.3,6.9-5.3,11.9-12.3,12.2
		c-4.5,0.2-9,0.2-13.5,0c-7.1-0.3-12.1-5.4-12.5-12.5c-0.2-4.5-0.2-9,0-13.5c0.4-7.1,5.4-12,12.6-12.3
		C162,211.2,164.3,211.3,166.5,211.3z M172.5,236.7c0-4.3,0-8.3,0-12.3c-4.3,0-8.3,0-12.3,0c0,4.2,0,8.2,0,12.3
		C164.4,236.7,168.3,236.7,172.5,236.7z"/>
	<path d="M32.1,281.4c0-2.1-0.1-4.2,0-6.4c0.3-7.3,5.4-12.4,12.6-12.6c4.2-0.1,8.5-0.1,12.7,0c7.2,0.1,12.6,5.2,12.9,12.4
		c0.2,4.5,0.2,9,0,13.5c-0.3,7.2-5.7,12.3-12.9,12.4c-4,0.1-8,0.1-12,0c-8.1-0.1-13.3-5.2-13.4-13.4C32,285.4,32.1,283.4,32.1,281.4
		C32.1,281.4,32.1,281.4,32.1,281.4z M45.1,287.8c4.2,0,8.2,0,12.3,0c0-4.3,0-8.3,0-12.3c-4.3,0-8.3,0-12.3,0
		C45.1,279.8,45.1,283.7,45.1,287.8z"/>
	<path d="M51.3,351.9c-2.2,0-4.5,0.1-6.7,0c-7.1-0.3-12.2-5.3-12.5-12.3c-0.1-4.5-0.1-9,0-13.5c0.2-6.9,5.2-12.1,12-12.4
		c4.6-0.2,9.2-0.2,13.9,0c7,0.3,12.1,5.6,12.4,12.6c0.2,4.2,0.1,8.5,0,12.7c-0.2,7.6-5.4,12.8-13.1,13
		C55.3,352,53.3,351.9,51.3,351.9C51.3,351.9,51.3,351.9,51.3,351.9z M57.5,326.5c-4.3,0-8.3,0-12.4,0c0,4.2,0,8.3,0,12.3
		c4.3,0,8.3,0,12.4,0C57.5,334.6,57.5,330.8,57.5,326.5z"/>
	<path d="M32.1,230.5c0-2.5-0.1-5,0-7.5c0.4-6.2,5-11.2,11.2-11.6c5.2-0.3,10.5-0.3,15.7,0c6.2,0.4,11,5.5,11.3,11.9
		c0.2,4.6,0.2,9.2,0,13.9c-0.3,7.1-5.7,12.2-13,12.4c-4,0.1-8,0.1-12,0c-8.1-0.2-13.2-5.3-13.4-13.5C32,234.3,32.1,232.4,32.1,230.5
		C32.1,230.5,32.1,230.5,32.1,230.5z M57.5,224.3c-4.2,0-8.2,0-12.3,0c0,4.3,0,8.3,0,12.3c4.3,0,8.2,0,12.3,0
		C57.5,232.4,57.5,228.5,57.5,224.3z"/>
	<path d="M166.2,351.9c-2,0-4,0-6,0c-7.5-0.2-12.7-5.2-13-12.7c-0.2-4.2-0.2-8.5,0-12.7c0.3-7.6,5.6-12.8,13.2-12.9
		c4-0.1,8-0.1,12,0c7.7,0.2,12.8,5.2,13.1,12.9c0.2,4.1,0.1,8.2,0,12.4c-0.3,8-5.3,12.9-13.3,13C170.2,352,168.2,351.9,166.2,351.9z
		 M172.5,338.9c0-4.4,0-8.3,0-12.3c-4.3,0-8.3,0-12.3,0c0,4.3,0,8.2,0,12.3C164.4,338.9,168.3,338.9,172.5,338.9z"/>
	<path d="M300.8,329.7c0,3.2,0.1,6.5,0,9.7c-0.2,7-5.3,12.2-12.4,12.4c-6.5,0.2-13,0.1-19.5,0c-7.3-0.1-12.6-5-12.9-12.3
		c-0.3-6.6-0.3-13.2,0-19.8c0.3-7.4,5.4-12.3,12.8-12.4c6.5-0.2,13-0.2,19.5,0c7.3,0.2,12.3,5.4,12.5,12.7
		C300.8,323.2,300.8,326.5,300.8,329.7z M269,338.9c6.4,0,12.6,0,18.8,0c0-6.3,0-12.4,0-18.6c-6.3,0-12.5,0-18.8,0
		C269,326.6,269,332.7,269,338.9z"/>
	<path d="M339.1,300.8c0-14.4-0.1-28.7,0.1-43.1c0-2.3,1.2-5.3,2.9-6.8c3.4-3.1,8.9-0.6,9.7,4c0.2,1.2,0.1,2.5,0.1,3.7
		c0,28.1,0,56.2,0,84.3c0,1.2,0.1,2.5-0.2,3.7c-0.5,3.1-2.4,4.9-5.6,5.2c-3.1,0.3-5.4-1-6.5-4c-0.5-1.5-0.6-3.2-0.6-4.8
		C339.1,329,339.1,314.9,339.1,300.8z"/>
	<path d="M268.7,198.6c0,4.1,0.1,8.2,0,12.3c-0.1,4-2.5,6.5-6.1,6.6c-3.7,0.1-6.5-2.5-6.6-6.6c-0.2-8.3-0.2-16.7,0-25
		c0.1-4.1,2.9-6.7,6.5-6.7c3.7,0.1,6,2.7,6.2,7c0,0.2,0,0.5,0,0.7C268.8,190.8,268.8,194.7,268.7,198.6
		C268.7,198.6,268.7,198.6,268.7,198.6z"/>
	<path d="M326.3,246.5c0,3.1,0.1,6.2,0,9.3c-0.1,3.8-2.8,6.5-6.3,6.5c-3.4,0-6.3-2.7-6.4-6.4c-0.2-6.3-0.2-12.7,0-19
		c0.1-3.8,2.9-6.5,6.3-6.5c3.6,0,6.2,2.8,6.4,6.8c0,0.2,0,0.5,0,0.7C326.3,240.8,326.3,243.7,326.3,246.5
		C326.3,246.5,326.3,246.5,326.3,246.5z"/>
	<path d="M326.3,291.2c0,3.1,0.1,6.2,0,9.4c-0.1,3.9-2.7,6.5-6.2,6.6c-3.5,0.1-6.4-2.5-6.5-6.4c-0.2-6.4-0.2-12.7,0-19.1
		c0.1-3.8,2.9-6.4,6.5-6.4c3.6,0,6,2.6,6.3,6.6c0,0.2,0,0.5,0,0.7C326.3,285.4,326.3,288.3,326.3,291.2
		C326.3,291.2,326.3,291.2,326.3,291.2z"/>
	<path d="M326.3,201.4c0,3.2,0.1,6.5,0,9.7c-0.1,3.7-2.6,6.2-6.1,6.3c-3.6,0.1-6.5-2.4-6.6-6.2c-0.2-6.5-0.2-13,0-19.5
		c0.1-3.8,3.1-6.3,6.7-6.1c3.4,0.2,5.9,2.6,6,6.4C326.4,195.2,326.3,198.3,326.3,201.4z"/>
	<path d="M326.3,336.3c0,3.1,0.1,6.2,0,9.4c-0.2,3.7-2.7,6.1-6.2,6.2c-3.5,0.1-6.3-2.3-6.5-5.9c-0.2-6.6-0.2-13.2,0-19.9
		c0.1-3.7,2.9-6,6.4-6c3.6,0,6.1,2.5,6.3,6.5C326.4,329.8,326.3,333.1,326.3,336.3z"/>
	<path d="M268.6,243.4c0,2.4,0.2,4.8-0.1,7.1c-0.4,3.3-2.5,5.1-5.8,5.3c-3.3,0.2-6.1-1.3-6.3-4.5c-0.5-5.4-0.5-10.9,0-16.4
		c0.3-3.2,3.2-4.7,6.4-4.5c3.2,0.3,5.4,2.1,5.7,5.5C268.8,238.4,268.6,240.9,268.6,243.4C268.6,243.4,268.6,243.4,268.6,243.4z"/>
	<path d="M88.8,137.9c5.5-6.9,10.6-13.2,15.6-19.5c10.1-12.6,20.1-25.2,30.2-37.7c0.4-0.5,0.8-1,1.2-1.5c2.6-2.8,6.4-3.2,9.1-1
		c2.7,2.2,3.2,6,0.8,9c-6.5,8.3-13,16.4-19.6,24.6c-9.9,12.4-19.8,24.8-29.7,37.1c-4.7,5.9-7.8,6-13.1,0.7
		c-3.4-3.4-6.9-6.8-10.3-10.3c-3-3.1-3.1-6.6-0.6-9.3c2.6-2.7,6.5-2.7,9.6,0.4C84.2,132.7,86.3,135.2,88.8,137.9z"/>
</g>
</svg>
