<?xml version="1.0" encoding="utf-8"?>
<!-- Generator: Adobe Illustrator 22.1.0, SVG Export Plug-In . SVG Version: 6.00 Build 0)  -->
<svg version="1.1" id="Слой_1" xmlns="http://www.w3.org/2000/svg" xmlns:xlink="http://www.w3.org/1999/xlink" x="0px" y="0px"
	 viewBox="0 0 286 384" style="enable-background:new 0 0 286 384;" xml:space="preserve">
<g>
	<path d="M62.8,0c2.5,1.9,4.6,4,3.3,7.5c-1.3,3.4-4.2,3.8-7.4,3.8c-11.1-0.1-22.2,0-33.4,0c-9,0-13.8,4.8-13.9,13.9c0,2.5,0,5,0,7.5
		c0,100,0,200,0,300c0,2,0,4,0.2,6c0.7,5.2,4.9,9.4,10.1,10.2c1.6,0.2,3.2,0.3,4.9,0.3c64.1,0,128.2,0,192.4,0c1.7,0,3.5,0,5.2-0.3
		c5-1,8.3-4,9.6-8.9c0.5-1.8,0.6-3.7,0.6-5.6c0-102.7,0-205.5,0-308.2c0-8-3.4-13-9.8-14.4c-1.6-0.4-3.2-0.3-4.8-0.3
		c-42.6,0-85.2,0-127.9,0c-0.9,0-1.8,0-2.6,0c-3.2,0.2-6.1-0.4-7.3-3.8C80.6,4,82.7,1.9,85.3,0c47,0,94,0,141,0
		c1.9,0.8,4,1.4,5.8,2.4c8.4,4.3,12.8,11.2,13.5,20.6c0.1,1.1,0.1,2.2,0.2,3.4c0,0.1,0.1,0.2,0.3,0.7c4.5,0,9.2,0,13.9,0
		c16,0,25.8,9.7,25.8,25.6c0,73.2,0,146.5,0,219.7c0,1.2,0.3,2.9-0.4,3.6c-1.4,1.7-3.2,3.6-5.1,4c-2.6,0.6-4.8-1.2-5.4-4
		c-0.4-1.7-0.3-3.5-0.3-5.2c0-72,0-144,0-216c0-1.6,0-3.3-0.1-4.9c-0.5-6.2-4.8-11-10.9-11.5c-5.8-0.4-11.7-0.1-17.8-0.1
		c0,94.5,0,188.8,0,283.3c6.4,0,12.6,0.3,18.8-0.1c5.1-0.4,9.2-5.1,9.7-10.4c0.3-3.2,0.1-6.5,0.3-9.7c0.2-3.9,2.3-6.1,5.7-6.1
		c3.4,0,5.5,2.2,5.5,6.2c0.1,3.6,0.1,7.3-0.3,10.9c-1.1,11-10.3,20-21.3,20.6c-6.1,0.3-12.2,0.1-18.6,0.1c0.2,9.7-2.7,17.4-10.3,23
		c-7.5,5.5-16.2,3.8-25,4.3c0,2.2,0.1,4.2,0,6.2c-0.4,9.8-7.8,17.3-17.6,17.3C146.2,384,99.6,384,53,384c-9.9,0-17.3-7.5-17.7-17.6
		c-0.1-1.9,0-3.7,0-6c-3.3,0-6.3,0-9.3,0c-16.2,0-25.8-9.7-25.8-25.9c0-67.6,0-135.2,0-202.8C0.1,97.3,0.4,63.1,0,28.8
		C-0.1,15.8,3.7,4.6,20,0C34.3,0,48.5,0,62.8,0z M199.2,360.6c-51,0-101.7,0-152.3,0c-1.3,9.5,0.9,12.1,10.1,12.1
		c44.1,0,88.2,0,132.3,0c1,0,2,0,3,0c4.1-0.2,6.5-2.5,6.8-6.5C199.3,364.5,199.2,362.8,199.2,360.6z"/>
	<path d="M122.8,122.2c-25.1,0-50.2,0-75.3,0c-12,0-18.9-6.8-18.9-18.7c-0.1-15-0.1-30,0-45C28.6,47,35.5,40,47,40
		c50.6-0.1,101.2-0.1,151.8,0c11.4,0,18.4,7.1,18.4,18.6c0,15.1,0,30.2,0,45.3c0,11.2-7.1,18.3-18.2,18.3
		C173.6,122.2,148.2,122.2,122.8,122.2z M122.8,111c25,0,50,0,75,0c6.4,0,8.1-1.8,8.2-8.3c0-14.2,0-28.5,0-42.7
		c0-7.1-1.6-8.7-8.5-8.7c-49.7,0-99.5,0-149.2,0c-6.7,0-8.3,1.6-8.3,8.1c0,14.5,0,29,0,43.5c0,6.5,1.7,8.1,8.3,8.1
		C73,111,97.9,111,122.8,111z"/>
	<path d="M167,267.4c0-14.9,0-29.7,0-44.6c0-7.6,3.6-11.2,11.3-11.2c9.2,0,18.5,0,27.7,0c7.4,0,11.1,3.7,11.1,11
		c0,30.1,0,60.2,0,90.3c0,7.5-3.6,11.1-11,11.1c-9.4,0-18.7,0-28.1,0c-7.5,0-11.1-3.5-11.1-10.9C167,297.9,167,282.6,167,267.4z
		 M205.7,312.7c0-30.1,0-59.8,0-89.6c-9.2,0-18.1,0-27.1,0c0,30,0,59.8,0,89.6C187.6,312.7,196.5,312.7,205.7,312.7z"/>
	<path d="M149.1,236.6c0,5,0,10,0,15c-0.1,6.3-3.7,10.1-10,10.1c-10.1,0.1-20.2,0.1-30.3,0c-5.6,0-9.6-3.6-9.8-9.2
		c-0.2-10.5-0.2-21,0-31.4c0.1-5.6,4-9.3,9.6-9.4c10.2-0.2,20.5-0.2,30.7,0c6,0.1,9.6,4,9.8,10c0,0.2,0,0.5,0,0.7
		C149.1,227.1,149.1,231.9,149.1,236.6z M110.4,223c0,9.4,0,18.3,0,27.3c9.2,0,18.1,0,27.1,0c0-9.2,0-18.2,0-27.3
		C128.4,223,119.6,223,110.4,223z"/>
	<path d="M123.9,324.1c-4.9,0-9.7,0-14.6,0c-6.3-0.1-10.2-3.6-10.3-9.8c-0.2-10.1-0.1-20.2,0-30.3c0.1-6.1,3.8-9.8,9.9-10
		c10.1-0.2,20.2-0.2,30.3,0c6.3,0.1,9.9,4,9.9,10.3c0.1,9.9,0.1,19.7,0,29.6c0,6.5-3.7,10.2-10.2,10.3
		C133.9,324.1,128.9,324.1,123.9,324.1z M137.6,312.6c0-9.2,0-18.1,0-27.2c-9.1,0-18,0-27.2,0c0,9.1,0,18,0,27.2
		C119.5,312.6,128.4,312.6,137.6,312.6z"/>
	<path d="M191.9,191.3c-5,0-10,0.1-15,0c-6.1-0.1-9.8-3.8-9.9-9.8c-0.1-10.1-0.1-20.2,0-30.3c0-5.7,3.4-9.7,9.1-9.8
		c10.6-0.3,21.2-0.3,31.8,0c5.6,0.1,9.1,4.1,9.2,9.8c0.1,10.1,0.1,20.2,0,30.3c-0.1,6.1-3.9,9.7-9.9,9.8c-0.2,0-0.5,0-0.7,0
		C201.6,191.3,196.7,191.3,191.9,191.3z M205.7,152.8c-9.2,0-18.2,0-27.2,0c0,9.2,0,18.2,0,27c9.2,0,18.1,0,27.2,0
		C205.7,170.7,205.7,161.9,205.7,152.8z"/>
	<path d="M123.9,191.3c-5,0-10,0.1-15,0c-6.1-0.1-9.9-3.7-10-9.8c-0.2-10.1-0.1-20.2,0-30.3c0.1-6.1,3.8-9.8,9.9-10
		c10.1-0.2,20.2-0.2,30.3,0c6.3,0.1,9.9,3.9,9.9,10.2c0.1,9.9,0.1,19.7,0,29.6c0,6.6-3.7,10.2-10.2,10.3c-0.2,0-0.5,0-0.7,0
		C133.4,191.3,128.6,191.3,123.9,191.3z M137.7,152.8c-9.3,0-18.2,0-27.2,0c0,9.2,0,18.1,0,27c9.2,0,18.1,0,27.2,0
		C137.7,170.8,137.7,161.9,137.7,152.8z"/>
	<path d="M55.8,191.3c-5,0-10,0.1-15,0c-5.9-0.1-9.7-3.6-9.8-9.5c-0.1-10.4-0.1-20.7,0-31.1c0.1-5.6,3.5-9.3,9.1-9.5
		c10.6-0.3,21.2-0.3,31.8,0c5.6,0.1,9,3.8,9.1,9.5c0.2,10.4,0.2,20.7,0,31.1c-0.1,5.9-3.9,9.3-9.8,9.5c-0.2,0-0.5,0-0.7,0
		C65.6,191.3,60.7,191.3,55.8,191.3z M69.6,152.9c-9.2,0-18.1,0-27,0c0,9.2,0,18,0,26.8c9.2,0,18.1,0,27,0
		C69.6,170.6,69.6,161.8,69.6,152.9z"/>
	<path d="M55.8,324.1c-5,0-10,0.1-15,0c-5.9-0.1-9.7-3.6-9.8-9.5c-0.1-10.4-0.1-20.7,0-31.1c0.1-5.5,3.5-9.3,9.1-9.4
		c10.6-0.3,21.2-0.3,31.8,0c5.5,0.1,8.9,3.9,9,9.5c0.2,10.4,0.2,20.7,0,31.1c-0.1,5.9-3.9,9.4-9.8,9.4
		C66,324.1,60.9,324.1,55.8,324.1z M42.6,285.4c0,9.4,0,18.3,0,27.2c9.2,0,18.1,0,26.9,0c0-9.2,0-18.1,0-27.2
		C60.4,285.4,51.6,285.4,42.6,285.4z"/>
	<path d="M31,236.6c0-5-0.1-10,0-15c0.1-6.3,3.8-10,10.1-10.1c10-0.1,20-0.1,29.9,0c6.1,0.1,9.9,3.7,9.9,9.8
		c0.2,10.2,0.2,20.5,0,30.7c-0.1,6.1-3.9,9.6-10.1,9.6c-10,0.1-20,0.1-29.9,0c-6.1,0-9.8-3.7-9.9-9.8C30.9,246.9,31,241.7,31,236.6z
		 M42.5,223c0,9.3,0,18.2,0,27.3c9.1,0,18,0,26.9,0c0-9.2,0-18.2,0-27.3C60.4,223,51.7,223,42.5,223z"/>
</g>
</svg>
