<?xml version="1.0" encoding="utf-8"?>
<!-- Generator: Adobe Illustrator 22.1.0, SVG Export Plug-In . SVG Version: 6.00 Build 0)  -->
<svg version="1.1" id="Слой_1" xmlns="http://www.w3.org/2000/svg" xmlns:xlink="http://www.w3.org/1999/xlink" x="0px" y="0px"
	 viewBox="0 0 336.1 336" style="enable-background:new 0 0 336.1 336;" xml:space="preserve">
<g>
	<path d="M60,84c0-15.7,0-30.8,0-46C60,15.3,75.4,0,98.2,0c46.5,0,93,0,139.5,0C260.9,0,276,15.2,276,38.6c0,15,0,30,0,45.4
		c7.6,0,14.9-0.2,22.2,0.1c4.6,0.2,9.3,0.7,13.6,2.1c14.5,4.8,24.1,18,24.2,33.2c0.1,36.7,0.3,73.5,0,110.2
		c-0.2,24.9-21.5,45.8-46.5,46.3c-4.3,0.1-8.7,0-13.4,0c0,8.3,0.1,16.3,0,24.2c-0.2,16.4-10.8,30.2-26.6,34.5
		c-3.3,0.9-6.9,1.3-10.4,1.3c-47.4,0.1-94.7,0.1-142.1,0c-21.2,0-36.8-15.7-36.9-37.1c0-7.5,0-15,0-22.9c-3.7,0-7.1,0-10.6,0
		C20.9,276,0,255.1,0,226.5c0-34.9,0-69.7,0-104.6C0,99.4,15.4,84,38,84C45.2,84,52.4,84,60,84z M276,252c3.7,0,6.9,0,10.1,0
		c15.9,0,25.9-10,25.9-26c0-34.6,0-69.2,0-103.9c0-9.6-4.5-14.1-14.3-14.1c-37.9,0-75.7,0-113.6,0c-48.9,0-97.7,0-146.6,0
		c-8.2,0-13.5,4.7-13.5,12.3c-0.1,36.1-0.2,72.2,0.2,108.3c0,4.5,2,9.7,4.7,13.5c7,10.1,16.6,11.1,31.1,9.3c0-15.5,0-31,0-46.4
		c0.1-21.3,15.7-36.9,37-36.9c47.4-0.1,94.7,0,142.1,0c3.3,0,6.8,0.4,10,1.2c16,4.2,26.8,18.1,26.9,34.6
		C276.1,219.7,276,235.6,276,252z M167.9,192c-23.4,0-46.7,0-70.1,0c-9.1,0-13.8,4.7-13.8,13.9c0,30.7,0,61.5,0,92.2
		c0,9.2,4.7,13.9,13.8,13.9c46.7,0,93.5,0,140.2,0c9.4,0,14-4.6,14-14.1c0-30.6,0-61.2,0-91.9c0-9.5-4.5-14.1-14-14.1
		C214.6,192,191.3,192,167.9,192z M84,83.7c56.2,0,112,0,168,0c0-15.4,0-30.5,0-45.6c0-9.7-4.5-14.2-14.3-14.2
		c-35.2,0-70.5,0-105.7,0c-11.9,0-23.7,0-35.6,0c-6.8,0-12.2,4.7-12.3,11.1C83.9,51.2,84,67.4,84,83.7z"/>
	<path d="M168,240c-15.5,0-31,0-46.5,0c-8,0-13.4-4.8-13.5-11.9c-0.1-7.1,5.4-12.1,13.3-12.1c31.4,0,62.7,0,94.1,0
		c6,0,10.5,3.3,12.1,8.7c1.5,4.9-0.3,10.4-4.9,13c-2.3,1.3-5.1,2.1-7.8,2.1C199.3,240.1,183.6,240,168,240z"/>
	<path d="M150.1,288c-9.6,0-19.2,0-28.9,0c-7.7,0-13.1-4.9-13.2-11.9c-0.1-7.1,5.3-12.1,13.2-12.1c19.1,0,38.2,0,57.4,0
		c7.9,0,13.4,5,13.4,12c0,7.1-5.5,11.9-13.4,12C169.1,288,159.6,288,150.1,288z"/>
</g>
</svg>
