<?xml version="1.0" encoding="utf-8"?>
<!-- Generator: Adobe Illustrator 22.1.0, SVG Export Plug-In . SVG Version: 6.00 Build 0)  -->
<svg version="1.1" id="Слой_1" xmlns="http://www.w3.org/2000/svg" xmlns:xlink="http://www.w3.org/1999/xlink" x="0px" y="0px"
	 viewBox="0 0 372.1 372.1" style="enable-background:new 0 0 372.1 372.1;" xml:space="preserve">
<style type="text/css">
	.st0{fill:#434142;}
	.st1{fill:#E85222;}
</style>
<g>
	<path class="st0" d="M60,144.1c0-1.9,0-3.4,0-4.9c0-35.4,0.1-70.7-0.1-106.1c0-4,1.2-6.8,4-9.5c7-6.7,13.8-13.8,20.7-20.6
		c3.9-3.9,6.7-3.9,10.6,0c6.1,6.1,12.2,12.2,18.6,18.6c1-0.9,1.9-1.7,2.7-2.5c5.1-5.1,10.3-10.3,15.4-15.4c4.8-4.8,7.2-4.8,11.9-0.1
		c5.9,5.9,11.8,11.8,18.2,18.2c3.6-3.7,7.1-7.3,10.5-10.8c2.6-2.7,5.3-5.3,8-8c4-4,6.8-4,10.9,0.1c6.1,6.1,12.1,12.2,18.5,18.6
		c6.2-6.2,12-12.1,17.9-18c4.9-4.9,7.3-4.9,12.2,0c5.8,5.8,11.6,11.7,17.7,17.9c1.1-1,2-1.8,2.8-2.6c5.5-5.5,10.9-11,16.5-16.4
		c3.4-3.3,6.4-3.4,9.8,0c7.7,7.5,15.4,15.1,22.7,22.9c1.6,1.7,2.3,4.7,2.3,7.1c0.1,35.6,0.1,71.2,0.1,106.9c0,1.5,0,2.9,0,4.7
		c9.3,0,18.3,0,27.3,0c20.3,0,32.7,12.4,32.7,32.6c0,42.2-0.1,84.5,0.1,126.7c0,10.1-3.1,18.6-10.6,25.4c-0.9,0.8-1.4,2.6-1.4,3.9
		c-0.1,6.9,0,13.7-0.1,20.6c-0.1,11-7.7,18.7-18.6,18.7c-103.6,0-207.2,0-310.8,0c-10.7,0-18.4-7.7-18.5-18.5
		c-0.1-6.9,0.1-13.8-0.1-20.6c-0.1-1.6-0.9-3.6-2-4.7c-6.3-6.2-9.9-13.5-9.9-22.3c0-44-0.1-88,0-132c0-16.6,13.2-29.6,29.8-29.8
		C39.8,144,49.6,144.1,60,144.1z M24,157.7c-7.5,2.2-12,8.8-12,17.3c0,43,0,86,0,129c0,12.9,7.2,20.1,20.3,20.1
		c102.5,0,205,0,307.4,0c13.2,0,20.3-7.1,20.3-20.4c0-42.5,0-85,0-127.5c0-1.1,0-2.3,0-3.4c-0.3-6.8-6.8-15.1-12-14.8
		c0,12.7,0,25.5,0,38.2c0,5.9-2,7.9-7.9,7.9c-102.7,0-205.5,0-308.2,0c-5.9,0-7.9-2-7.9-7.8C24,183.5,24,170.8,24,157.7z M90,14.5
		C84.6,19.9,79.7,25,74.6,30c-1.8,1.8-2.6,3.6-2.6,6.2C72,86.8,72,137.4,72,188c0,1.3,0,2.6,0,3.8c76.3,0,152.1,0,227.8,0
		c0.1-0.6,0.1-0.8,0.1-1c0-52,0-104,0-155.9c0-1-0.2-2.4-0.9-3.1c-5.5-5.7-11.2-11.4-17-17.3c-5.5,5.5-10.5,10.6-15.6,15.7
		c-8,8-8.8,8.1-16.7,0.1c-5.2-5.2-10.3-10.4-15.7-15.8c-6.5,6.5-12.5,12.6-18.6,18.7c-4,4-6.8,3.9-10.9-0.1
		c-3.8-3.8-7.6-7.6-11.4-11.4c-2.3-2.3-4.7-4.7-7.2-7.2c-6.2,6.3-12,12.1-17.8,18c-4.9,4.9-7.3,4.9-12.2,0
		c-5.9-5.9-11.8-11.8-17.9-18c-6.3,6.3-12.3,12.4-18.3,18.3c-4.4,4.4-7.1,4.4-11.4,0.1C102.4,26.9,96.4,20.9,90,14.5z M24,335.9
		c0,4.9,0,9.9,0,14.9c0,7.9,1.5,9.3,9.4,9.3c101.7,0,203.4,0,305.1,0c1.2,0,2.5,0.1,3.7-0.1c3.3-0.4,5.4-2.3,5.6-5.5
		c0.2-6.2,0.1-12.4,0.1-18.6C240,335.9,132.3,335.9,24,335.9z M36.2,156.3c0,12.1,0,23.8,0,35.6c8,0,15.8,0,23.5,0
		c0-12,0-23.8,0-35.6C51.8,156.3,44.1,156.3,36.2,156.3z M335.8,192.1c0-12.2,0-24,0-35.7c-8,0-15.8,0-23.7,0c0,11.5,0,22.7,0,34
		c0,0.5,0.1,0.9,0.2,1.6c0.6,0.1,1.1,0.2,1.5,0.2C321,192.1,328.2,192.1,335.8,192.1z"/>
	<path class="st1" d="M48,264.1c13.3,0,24,10.8,24,24.1c0,13.2-10.9,24-24.2,23.9C34.8,312,24.1,301.3,24,288.2
		C24,274.9,34.8,264.1,48,264.1z M48.1,300.1c6.5-0.1,11.9-5.5,11.9-12c0-6.5-5.4-11.9-11.9-12c-6.7,0-12.2,5.5-12,12.2
		C36.1,294.8,41.6,300.1,48.1,300.1z"/>
	<path class="st1" d="M263.7,312.1c-13.2-0.1-23.8-11.1-23.7-24.4c0.2-13.2,11.2-23.8,24.5-23.6c13,0.2,23.6,11.1,23.5,24.2
		C287.9,301.5,277,312.2,263.7,312.1z M276,288c0-6.5-5.4-11.9-11.9-12c-6.5,0-12,5.3-12,11.8c-0.1,6.7,5.4,12.2,12.1,12.1
		C270.6,300,276,294.6,276,288z"/>
	<path class="st1" d="M324.1,264.1c13.2,0,24,10.9,23.9,24.2c-0.1,13.2-11,23.9-24.3,23.8c-13-0.1-23.7-10.9-23.7-24
		C300,274.8,310.9,264,324.1,264.1z M336,287.9c-0.1-6.5-5.5-11.9-12-11.8c-6.5,0-11.9,5.4-11.9,11.9c0,6.7,5.6,12.2,12.2,12
		C330.7,299.9,336.1,294.4,336,287.9z"/>
	<path class="st1" d="M186,156.1c-29.1,0-58.2,0-87.4,0c-6.9,0-8.6-1.7-8.6-8.6c0-30.2,0-60.5,0-90.7c0-6.9,1.7-8.6,8.6-8.6
		c58.2,0,116.5,0,174.7,0c6.9,0,8.6,1.7,8.6,8.6c0,30.2,0,60.5,0,90.7c0,6.9-1.7,8.6-8.6,8.6C244.3,156.1,215.1,156.1,186,156.1z
		 M269.8,60.3c-56.1,0-111.8,0-167.5,0c0,28,0,55.8,0,83.6c56,0,111.7,0,167.5,0C269.8,116,269.8,88.3,269.8,60.3z"/>
	<path class="st1" d="M281.8,168.3c0,4,0,7.7,0,11.6c-47.9,0-95.5,0-143.5,0c0-3.7,0-7.5,0-11.6C186,168.3,233.8,168.3,281.8,168.3z
		"/>
	<path class="st1" d="M101.8,168.3c0,3.9,0,7.5,0,11.5c-3.8,0-7.6,0-11.6,0c0-3.7,0-7.5,0-11.5C94,168.3,97.7,168.3,101.8,168.3z"/>
	<path class="st1" d="M125.8,179.9c-3.9,0-7.6,0-11.6,0c0-3.8,0-7.6,0-11.6c3.8,0,7.6,0,11.6,0C125.8,172.1,125.8,175.8,125.8,179.9
		z"/>
	<path class="st1" d="M185.7,131.9c-5.8,0-11.5,0-17.5,0c0-19.9,0-39.7,0-59.6c5.8,0,11.5,0,17.5,0
		C185.7,92,185.7,111.7,185.7,131.9z"/>
	<path class="st1" d="M114.3,72.3c4,0,7.7,0,11.5,0c0,19.9,0,39.5,0,59.5c-3.7,0-7.5,0-11.5,0C114.3,112.1,114.3,92.3,114.3,72.3z"
		/>
	<path class="st1" d="M203.8,131.9c-4,0-7.7,0-11.6,0c0-19.9,0-39.5,0-59.5c3.7,0,7.5,0,11.6,0C203.8,92.1,203.8,111.8,203.8,131.9z
		"/>
	<path class="st1" d="M233.8,131.9c-4,0-7.7,0-11.5,0c0-19.9,0-39.5,0-59.5c3.7,0,7.5,0,11.5,0C233.8,92.1,233.8,111.8,233.8,131.9z
		"/>
	<path class="st1" d="M240.3,72.3c4,0,7.7,0,11.6,0c0,19.9,0,39.5,0,59.5c-3.7,0-7.5,0-11.6,0C240.3,112.1,240.3,92.3,240.3,72.3z"
		/>
	<path class="st1" d="M137.8,132c-1.9,0-3.6,0-5.5,0c0-19.8,0-39.6,0-59.7c1.7,0,3.5,0,5.5,0C137.8,92.1,137.8,111.9,137.8,132z"/>
	<path class="st1" d="M149.8,132c-1.9,0-3.6,0-5.5,0c0-19.8,0-39.6,0-59.7c1.7,0,3.5,0,5.5,0C149.8,92.1,149.8,111.9,149.8,132z"/>
	<path class="st1" d="M161.8,131.9c-2,0-3.7,0-5.6,0c0-19.9,0-39.7,0-59.7c1.9,0,3.6,0,5.6,0C161.8,92.1,161.8,111.8,161.8,131.9z"
		/>
	<path class="st1" d="M210.3,72.2c2,0,3.7,0,5.6,0c0,19.9,0,39.7,0,59.7c-1.9,0-3.6,0-5.6,0C210.3,112.1,210.3,92.3,210.3,72.2z"/>
</g>
</svg>
