<?xml version="1.0" encoding="utf-8"?>
<!-- Generator: Adobe Illustrator 22.1.0, SVG Export Plug-In . SVG Version: 6.00 Build 0)  -->
<svg version="1.1" id="Слой_1" xmlns="http://www.w3.org/2000/svg" xmlns:xlink="http://www.w3.org/1999/xlink" x="0px" y="0px"
	 viewBox="0 0 384 384" style="enable-background:new 0 0 384 384;" xml:space="preserve">
<g>
	<path d="M384,87.8c-3.4,10-10.5,13.8-21,13.6c-20.5-0.4-41-0.1-61.5-0.1c-12,0-18.8-6.8-18.8-18.8c0-27.5,0-55,0-82.5
		c33.8,0,67.5,0,101.3,0C384,29.3,384,58.5,384,87.8z M313.5,44.8c0-11.4,0-22.3,0-33.4c-6.6,0-12.9,0-19.5,0c0,1.3,0,2.4,0,3.5
		c0,22.5,0,45,0,67.4c0,5.8,1.8,7.6,7.6,7.6c21.1,0,42.2,0,63.3,0c6.1,0,7.9-1.7,7.9-7.7c0-22.5,0-45,0-67.4c0-1.1,0-2.2,0-3.4
		c-6.7,0-13,0-19.7,0c0,11.2,0,22.3,0,33.4C339.8,44.8,326.9,44.8,313.5,44.8z M341.6,33.6c0-7.5,0-14.7,0-22.1
		c-5.6,0-11.1,0-16.5,0c0,7.5,0,14.8,0,22.1C330.8,33.6,336.1,33.6,341.6,33.6z"/>
	<path d="M94.1,126.5c3,2,5.8,3.9,9,6c-6.1,9.7-11,19.8-14,30.8c-3,11.1-4.3,22.3-3.6,34.3c2.5,0,4.8,0.2,7.1,0
		c17.6-1.4,25.4,7,24.1,23.9c-0.1,1.5,0,3,0.2,4.5c0.9,7.3,7,12.7,14.1,12.4c7.4-0.3,13.1-6.1,13.3-13.6c0.1-9.5,0-19,0.1-28.5
		c0-12,7.1-19.1,19.1-19.2c3.2,0,6.5,0.1,9.7,0c3.4-0.1,5.7-2.5,5.9-5.6c0.2-3.1-2-5.7-5.3-6.3c-1.5-0.3-3-0.2-4.5-0.5
		c-8.7-2-14.2-9.7-13.4-18.6c0.8-8.5,7.8-15.2,16.5-15.5c5.9-0.2,11.7,0,17.6-0.1c4.4,0,7.2-2.2,7.3-5.8c0.1-3.7-2.7-6.2-7.3-6.2
		c-16.5,0-33,0-49.5,0c-9.2,0-11.5-0.9-18.5-7.7c-4,4.2-8.1,8.4-12.3,12.8c-2.8-2.3-5.6-4.6-8.3-6.9
		c36.1-45.3,107.2-58.9,160.6-19.9c53,38.8,64,114.8,24.2,166.5c-41.2,53.4-116.6,62.6-168.5,20.2C64.7,240.4,63.7,169.2,94.1,126.5
		z M131.4,103.7c2,3.3,4.5,3.5,7.2,3.5c17.1,0,34.2,0,51.4,0c10.6,0,18.4,7.2,18.5,17c0.1,10-7.7,17.4-18.4,17.5
		c-5.6,0-11.2,0-16.9,0c-2.9,0-5.5,1.4-5.8,4.3c-0.2,2,0.7,4.6,2,6.3c0.8,1.1,3.1,1.3,4.8,1.5c9.5,1.1,16.5,8.9,16,18
		c-0.5,9.5-7.8,16.4-17.5,16.5c-3.1,0-6.2,0-9.4,0c-5.8,0.1-7.9,2.1-8,7.9c0,9.7,0.1,19.5-0.1,29.2c-0.3,13.1-10.8,23.5-24,24.1
		c-12.7,0.6-24.2-9.2-25.6-22c-0.4-4.1-0.3-8.2-0.4-12.3c-0.1-3.2-1.5-5.8-4.9-6.1c-4.4-0.4-8.9-0.1-13.7-0.1c0.2,1.6,0.3,3,0.5,4.3
		c12.3,59,70.4,96.2,129,82.8c3.1-0.7,4.8-1.8,4.3-5.4c-0.3-2.5-0.1-5-0.1-7.5c0-13.1,5.3-19.2,18.3-21c4-0.6,6.6-3.4,6.4-7
		c-0.1-3.6-2.9-6.3-7-6.4c-3.4-0.1-6.7,0-10.1,0c-15.4-0.1-27.1-11.3-27.2-26c-0.1-15,11.5-26.3,27.1-26.4c9.7-0.1,19.5,0,29.2,0
		c5.3,0,7.8-2.5,8-7.7c0.1-4-0.1-8,0.1-12c0.4-9.5,7.9-16.8,17.5-17c3.5-0.1,7,0,11.1,0c-11.3-32.2-31.9-55.1-63.4-67.2
		C196,79.2,162.9,83.7,131.4,103.7z M296.5,171c-4.1,0-8.4,0-12.6,0c-4.9,0.1-7.3,2.5-7.4,7.4c-0.1,3.6,0.1,7.2,0,10.9
		c-0.3,11-7.9,18.4-18.9,18.5c-9.9,0-19.7,0-29.6,0c-9.2,0-15.8,6.3-15.9,14.9c0,8.8,6.6,15,16.1,15.1c3.7,0,7.5-0.1,11.2,0.1
		c9.2,0.4,16.7,8,17,17.2c0.3,10-6.9,17.7-17.5,18.7c-4.3,0.4-6.8,2.5-7.1,6.3c-0.2,3.6-0.1,7.2-0.1,10.8
		C275.1,274.9,307.9,224.5,296.5,171z"/>
	<path d="M52,170.1c2.8,0,5,0,7.3,0c2.2,0,4.4,0,7.4,0c-11.2,16.8-21.9,32.8-33,49.5C22.8,203,12,186.9,0.8,170.1
		c6.1,0,11.4,0,16.3,0c2.2-9.5,3.6-18.6,6.5-27.3C45.2,76.7,89.9,35.7,157.8,20.5c11.1-2.5,22.8-2.9,34.2-3.4
		c11.3-0.5,18.9,6.9,18.9,16.8c-0.1,8.7-6.5,15.5-15.8,16.5c-9.9,1-20,1.1-29.8,3c-57.3,11-100.8,54.3-112.5,111.4
		C52.5,166.3,52.3,167.9,52,170.1z M39.3,181.1c1.2-14.6,4.1-28.5,9.1-41.9C70.7,80,124.8,41.4,188.1,39.5c2-0.1,4-0.1,6-0.4
		c3.1-0.4,5.6-1.9,5.5-5.5c-0.1-3.6-2.6-4.9-5.7-5.3c-1.4-0.2-2.7-0.2-4.1-0.1c-13.5,0.1-27,1.6-39.9,5.5
		C87,52.4,47.6,93.5,31.6,157c-2,7.8-2.7,15.9-4.1,24.1c-1.6,0.2-3.3,0.3-5.5,0.6c4,6,7.8,11.6,11.7,17.6
		c4.1-6.2,7.8-11.7,11.8-17.7C43.1,181.4,41.4,181.3,39.3,181.1z"/>
	<path d="M308.5,307.6c2.6,2.7,5.2,5.2,7.8,7.9c-16.7,16.7-36,29.6-57.9,38.6c-20.9,8.6-42.8,12.9-65.4,12.8
		c-4.1,0-8.5-1.1-12.1-2.9c-6.2-3.2-9-10.6-7.5-17.3c1.5-6.8,7.4-12.2,14.8-12.9c8.6-0.9,17.3-0.7,25.7-2.3
		c58.4-10.9,96.6-44.9,114.5-101.5c1.6-5.1,2.5-10.3,3.8-16c-5.2,0-9.6,0-15,0c11.2-16.8,21.9-32.9,33-49.5
		c11,16.5,21.7,32.6,32.8,49.3c-5.9,0-11.2,0-16.8,0c-2.4,17.4-6.9,33.8-13.9,49.5c-7.1,15.7-16.2,30-27.7,43.3
		c-2.8-2.5-5.5-4.7-8.4-7.3c23.7-27.8,37-59.9,39.8-96.3c2-0.1,3.6-0.3,6-0.4c-4-6-7.7-11.6-11.8-17.7c-4,6-7.7,11.5-11.8,17.6
		c2.3,0.2,4,0.3,6.5,0.5c-1.1,7.1-1.9,14.2-3.4,21c-14.6,64-64.3,110-129.1,119.3c-6.4,0.9-12.9,1-19.4,1.3c-6.1,0.4-8.9,2.3-8.7,6
		c0.2,3.6,3.2,5.3,8.9,5.2c43.4-0.7,80.9-15.9,112.4-45.7C306.7,309.2,307.6,308.4,308.5,307.6z"/>
	<path d="M0,282.8c33.9,0,67.3,0,101.2,0c0,1.4,0,2.7,0,4c0,26.1,0,52.2,0,78.3c0,12-6.8,18.9-18.8,18.9c-21.2,0-42.5,0-63.7,0
		C6.8,384,0,377.2,0,365.2c0-26.1,0-52.2,0-78.3C0,285.6,0,284.4,0,282.8z M90,294.2c-6.7,0-13,0-19.7,0c0,11.2,0,22.3,0,33.3
		c-13.4,0-26.3,0-39.5,0c0-11.2,0-22.2,0-33.3c-6.6,0-12.9,0-19.6,0c0,1.3,0,2.4,0,3.4c0,22.5,0,45,0,67.4c0,5.9,1.8,7.7,7.9,7.7
		c21,0,42,0,62.9,0c6.2,0,7.9-1.7,7.9-8.1c0-22.2,0-44.5,0-66.7C90,296.8,90,295.6,90,294.2z M42.4,294.2c0,7.5,0,14.8,0,22
		c5.7,0,11.1,0,16.5,0c0-7.5,0-14.6,0-22C53.3,294.2,47.9,294.2,42.4,294.2z"/>
	<path d="M352.9,56.5c0,3.6,0,7.1,0,10.8c-13,0-25.9,0-39,0c0-3.5,0-7,0-10.8C326.9,56.5,339.8,56.5,352.9,56.5z"/>
	<path d="M220.6,105.9c3.6,0,7,0,10.6,0c0,3.6,0,7.1,0,10.9c-3.5,0-6.9,0-10.6,0C220.6,113.3,220.6,109.7,220.6,105.9z"/>
	<path d="M253.9,117.3c0,3.7,0,7,0,10.7c-3.6,0-7.2,0-10.9,0c0-3.5,0-6.9,0-10.7C246.5,117.3,250,117.3,253.9,117.3z"/>
	<path d="M70.2,339.2c0,3.6,0,7.1,0,10.8c-13,0-25.9,0-39,0c0-3.5,0-7,0-10.8C44.2,339.2,57.1,339.2,70.2,339.2z"/>
</g>
</svg>
