<?xml version="1.0" encoding="utf-8"?>
<!-- Generator: Adobe Illustrator 22.1.0, SVG Export Plug-In . SVG Version: 6.00 Build 0)  -->
<svg version="1.1" id="Слой_1" xmlns="http://www.w3.org/2000/svg" xmlns:xlink="http://www.w3.org/1999/xlink" x="0px" y="0px"
	 viewBox="0 0 362.5 409.6" style="enable-background:new 0 0 362.5 409.6;" xml:space="preserve">
<g>
	<path fill="#fff" d="M155.7,0c8.4,1.8,17,3.1,25.3,5.5c14.9,4.5,27.8,12.6,38.7,23.8c2.2,2.3,4.7,4.3,7.3,6.1c12.8,9.1,19.6,22.1,20.6,37.2
		c1.2,18.5,0.7,37,1.1,55.5c0,2.6,0.5,5.3,1.3,7.8c4.1,13.3-6.2,27.6-21,28.8c-1,0.1-2.1,0-3.3,0c-1.1,4.7-2,9.3-3.2,13.7
		c-5.3,18.2-15.8,32.7-31.6,43.2c-2.9,1.9-4,3.9-3.9,7.4c0.5,14.4-2.5,10.7,11.5,15.6c2.6,0.9,5.4,1.3,8.2,1.3c40,0.1,80,0.1,120,0
		c5.1,0,9.9,0.7,13.6,4.5c3.1,3.1,4.6,6.8,4.6,11.1c0,7.2,0.1,14.4,0,21.6c0,4.4-2.4,7.1-5.9,7.1c-3.5,0-6-2.6-6.1-7
		c-0.1-6.1,0-12.3,0-18.4c0-6.4-0.4-6.9-6.8-6.9c-41.6,0-83.2,0-124.8,0c-12.8,0-25.6,0-38.4,0c-5.2,0-6,0.9-6,6.1
		c0,34.8,0,69.6,0,104.4c0,4.9,1,5.9,5.8,5.9c54.8,0,109.6,0,164.4,0c5.1,0,5.8-0.7,5.8-5.8c0-17.6,0-35.2,0-52.8
		c0-6.4,2.1-9.4,6.2-9.3c4,0.1,5.8,3,5.8,9.2c0,19.4,0,38.9,0,58.3c0.3,0.2,0.6,0.4,0.8,0.4c7.4-0.1,13.4,2.4,16.2,9.8
		c2.5,6.6-0.5,15.5-6.5,20.5c-4.5,3.8-9.8,5-15.6,5c-38.4-0.1-76.8,0-115.2,0c-9.1,0-18.1,0-27.2,0c-5,0-7.8-2.3-7.8-6.1
		c0-3.7,2.9-5.9,7.9-5.9c47.3,0,94.7,0,142,0c4.2,0,8-0.6,10.2-4.7c2.2-4.1,0.9-6.4-3.6-6.4c-67.5,0-134.9,0-202.4,0
		c-4.3,0-5.7,2.3-3.6,6.2c1.8,3.4,4.7,4.9,8.5,4.9c5.7,0,11.5,0,17.2,0c4.8,0,7.5,2.2,7.7,5.8c0.1,3.8-2.8,6.2-7.7,6.2
		c-46.9,0-93.9,0-140.8,0c-9.4,0-17.7-2.7-22.3-11.9c-2.7-5.4-3-11.3-1.8-17.2C6.3,351.8,12,323,17.8,294.3
		c3.3-16.4,13.1-26.7,29-32c19.4-6.5,38.7-13.5,58.1-20.2c2.4-0.8,3.4-2.2,3.7-4.9c0.7-7.5-1.1-12.4-8.2-17.2
		c-18-12.1-28.4-29.9-31.9-51.5c-0.2-1.2-0.5-2.3-0.7-3.6c-7.9-0.3-14.8-2.6-20-8.7c-5.2-6.1-6.9-13-4.3-20.9c0.6-1.8,0.9-3.9,1-5.8
		c0.3-13.2,0-26.4,1-39.5c1-13.7,5.8-26.5,12.5-38.4c1.9-3.3,5.3-4.2,8.2-2.7c2.9,1.5,3.7,4.8,2.3,8.3c-3.1,7.9-6.9,15.6-9.2,23.7
		c-3.8,13.1-2.7,26.7-2.7,40.4c3.8-0.6,7.4-1.3,9.9-1.7c3.3-5.5,5.6-11.1,9.3-15.3c7-8,16.5-10.2,26.9-8.8
		c21.1,2.8,41.5,0.2,60.5-9.9c5.6-3,10.8-6.9,15.9-10.6c7.4-5.4,14.4-4.5,19.4,3.2c4.4,6.7,9.9,11.2,18.1,12.4
		c6.2,0.9,8.8,4.4,9,10.8c0.1,6,0,12,0,18c3.7,0.7,7,1.3,10.4,1.9c0.2-0.2,0.4-0.4,0.4-0.6c-0.2-15.6,0.3-31.2-0.8-46.7
		c-1-12.9-6.4-24.2-18.8-30.7c-1.1-0.6-2.1-1.7-3-2.6C191.9,16.9,164.4,9.3,133,13.3c-17.5,2.2-32.8,9.8-46.1,21.4
		c-0.7,0.6-1.4,1.2-2.2,1.8c-3.1,2.2-6.5,2-8.6-0.5c-2.1-2.6-1.9-6.2,1-8.5c5.7-4.6,11.4-9.3,17.6-13.1c13-7.9,27.3-12.4,42.6-13.7
		c0.8-0.1,1.5-0.4,2.2-0.7C145,0,150.3,0,155.7,0z M187.6,83.9c-0.6,0.4-1.1,0.6-1.5,0.9c-25.1,20.3-53.9,26.6-85.4,22.6
		c-12.4-1.6-21.1,5.8-21.3,18.3c-0.2,11.3-0.2,22.7,0.1,34c0.5,15.9,5.9,30.1,16.9,41.6c16.3,17.2,36.5,23.8,60.1,21.2
		c28.9-3.2,55.7-31,56.6-59.9c0.6-19,0.3-38.1,0.5-57.1c0-2.6-1-3.4-3.3-3.9c-7.7-1.8-13.8-6-18.7-12.2
		C190.3,87.6,189,85.8,187.6,83.9z M108.2,253.9c-0.5,0.1-0.8,0.1-1,0.2c-19.9,6.9-39.8,13.5-59.6,20.7
		c-9.5,3.4-15.7,10.4-17.7,20.5c-2.1,10.4-4.2,20.9-6.3,31.3c-1.5,7.3-2.9,14.5-4.4,21.9c12.2,0,23.8,0,35.7,0
		c0-2.8-0.2-5.4,0.1-7.9c0.4-3.3,2.4-5.4,5.9-5.4c3.5,0,5.3,2.1,5.9,5.4c0.2,1.2,0.1,2.4,0.1,3.6c0,14.9,0,29.9,0,44.8
		c0,2.8,0,5.5,0,8.4c20.7,0,41.1,0,61.8,0c-2.1-5.8-2.7-11.4,0.9-16.6c3.7-5.4,9.4-6.5,15-6.5c0-31.6,0-62.9,0-94.1
		C116.1,274.6,111,270.9,108.2,253.9z M54.7,360.9c-12.8,0-25.3,0-38.1,0c-1.5,8.2-3.3,16.2-4.4,24.3c-1,7,2,11.5,8.6,11.9
		c11.2,0.6,22.5,0.2,33.9,0.2C54.7,385.2,54.7,373.2,54.7,360.9z M144.4,268.3c0.1-1.9,0.3-3,0.3-4.2c0.2-12.2,6.1-18,18.3-18.1
		c3.8,0,7.7,0,11.6,0c0-5.4,0-10.4,0-15.7c-18,6.6-35.9,6.6-54.1,0.8c0,7.9-0.2,15.4,0.1,22.8c0.2,5.5,3.3,9.4,8.4,11
		C133.9,266.4,139,267.2,144.4,268.3z M225.8,152.8c5,0,8.9-1.5,11.5-5.6c2.1-3.4,2-6.9-0.3-10.1c-2.7-3.7-6.4-5.3-11.2-5
		C225.8,139,225.8,145.6,225.8,152.8z M67.2,132c-5.3-0.1-9.2,1.7-11.7,6c-1.9,3.3-1.6,6.7,0.6,9.7c2.7,3.7,6.4,5.2,11.1,5
		C67.2,145.7,67.2,139.1,67.2,132z"/>
	<path fill="#fff" d="M264.5,316.4c0,10.9-8.9,19.7-19.9,19.7c-11,0-19.7-8.9-19.7-19.9c0.1-11,8.9-19.8,19.8-19.7
		C255.8,296.6,264.6,305.4,264.5,316.4z M252.5,316.4c0.1-4.2-3.3-7.7-7.4-7.8c-4.4-0.2-7.9,3.2-8,7.6c-0.1,4.2,3.2,7.7,7.4,7.8
		C248.8,324.2,252.4,320.7,252.5,316.4z"/>
</g>
</svg>
