<?xml version="1.0" encoding="utf-8"?>
<!-- Generator: Adobe Illustrator 22.1.0, SVG Export Plug-In . SVG Version: 6.00 Build 0)  -->
<svg version="1.1" id="Слой_1" xmlns="http://www.w3.org/2000/svg" xmlns:xlink="http://www.w3.org/1999/xlink" x="0px" y="0px"
	 viewBox="0 0 409.4 409.7" style="enable-background:new 0 0 409.4 409.7;" xml:space="preserve">
<g>
	<path d="M409.4,354.4c-1.6,2.6-2.7,5.8-4.9,7.5c-2.8,2.2-6.4,4-9.9,4.4c-6.3,0.7-12.8,0.4-19.2,0.3c-4.1-0.1-6.7-2.5-6.7-5.9
		c0-3.3,2.6-5.8,6.7-6c5.5-0.2,10.9,0,16.4-0.1c4.3-0.1,5.5-1.2,5.5-5.5c0-51.3,0-102.7,0-154c0-4.5-1.2-5.6-5.7-5.6
		c-65.5,0-130.9,0-196.4,0c-4.5,0-5.8,1.2-5.8,5.6c0,50.5,0.1,101.1,0.2,151.6c0,1.2,0.1,2.4,0.1,3.6c0,3,1.4,4.2,4.4,4.2
		c16.9,0,33.9,0.1,50.8,0.2c6.7,0,13.3,0,20.6,0c0-1.5,0-2.8,0-4.1c0-23.6,0-47.2-0.1-70.8c0-1.6-1.3-3.2-1.7-4.9
		c-0.6-2.2-1.7-4.7-1-6.6c0.6-1.6,3.2-3.1,5.2-3.4c3.1-0.6,6.4-0.2,9.6-0.2c13.3,0,26.7,0,40,0c2.9,0,5.7,0,7.3,3
		c1.5,2.8,1,5.3-1.3,7.6c-0.6,0.6-0.7,1.7-0.7,2.6c0,25.1,0,50.1,0,75.2c0,0.4,0.2,0.7,0.5,1.5c4.6,0,9.2,0,13.8,0
		c2.9,0,5.9-0.1,8.8,0c4.4,0.2,6.9,2.7,6.7,6.3c-0.2,3.5-2.6,5.6-6.9,5.6c-7.4,0.1-14.9,0-22.6,0c0,3.2,0,6,0,9
		c2,0.2,3.8,0.3,5.6,0.7c8.3,1.9,13.8,9.4,13,17.7c-0.8,8.8-7.4,15.3-16.4,15.5c-10.4,0.2-20.8,0.1-31.2,0.1c-9.7,0-19.5-0.1-29.2,0
		c-6.6,0.1-12.4-1.5-17-7.4c-9.5,8.6-21.1,7.4-32.6,7.4c-60.8,0-121.6,0-182.4,0c-14.8,0-26.2-7.9-31.4-21.6
		c-2.8-7.4-1.5-14.9-0.3-22.5c6.7-41,13.2-82,19.9-123c2.3-13.7,10.4-22.7,23.5-27.3c1.1-0.4,2.3-0.9,3.4-1.1
		c17.4-3,32.5-11.5,47.1-20.8c3.8-2.4,3.9-4.7,0.1-7.1c-15.3-9.5-25.7-22.7-30.4-40c-1.3-4.7-1.6-9.7-2-14.6c-0.2-2.5-1-3.6-3.5-4.4
		c-11.5-3.8-18-14.3-15.6-24.9c0.5-2.3,1.3-4.8,2.9-6.5c2.8-2.9,2.2-5.8,1.5-9.1c-3.4-15.5-2.9-30.8,4.4-45.2
		c3.1-6.1,7.6-11.5,11.9-16.9c2.5-3.1,6.3-3.1,8.8-0.7c2.4,2.3,2.6,5.7-0.1,8.6c-6.1,6.6-10.7,13.8-13,22.6
		c-2.6,10.1-2.4,20.2,0.2,30.9c6.6-2.8,12.3,0.3,18.2,2.2c18.5,5.8,36.9,3.9,54.9-2.3c7.5-2.6,14.5-6.5,21.6-10.3
		c6.5-3.5,11.5-3.3,16.4,2.2c4.6,5.1,10.2,7.4,17.1,7.2c3.2-0.1,6.3,0.2,10,0.4c2.4-13.7,3.6-27.3-4.1-40
		c-3.7-6.1-9.4-9.5-16.1-11.8c-3.4-1.2-7.2-2.8-9.5-5.4c-8.9-9.9-20.2-13.9-32.8-15.5c-12.8-1.6-25.2,0.3-37.3,4.7
		c-1.2,0.5-2.5,0.8-3.8,1.2c-3.5,1.1-6.1-0.1-7.6-3.3c-1.4-3,0-6.6,3.5-7.8c6.5-2.2,13.2-4,19.9-5.8c2.9-0.8,6-1.1,9-1.6
		c5.3,0,10.7,0,16,0c0.7,0.2,1.5,0.6,2.2,0.7c15.1,1.9,28.6,7.2,39.1,18.8c1.1,1.2,2.8,2.1,4.4,2.6c17.4,5.1,26.6,17.2,29.8,34.5
		c1.9,10.2,1,20.4-0.7,30.6c-0.3,2-0.5,4.9,0.6,6.2c9.5,11.8,4.5,28-10.2,33.3c-3.5,1.3-4.2,3-4.4,6.3c-0.5,12.3-4.6,23.4-11.6,33.5
		c-5.6,8.1-12.8,14.5-21.3,19.5c-2.8,1.6-3.7,4.7-1.7,6.1c4.8,3.3,10,6.2,15.5,9.7c0-3.3-0.1-5.7,0-8.1c0.6-9.7,6.7-16,15.9-16
		c66.5-0.1,133-0.1,199.5-0.1c7.5,0,12.6,3.6,15.5,10.5c0.2,0.6,0.6,1.1,1,1.6C409.4,244.5,409.4,299.5,409.4,354.4z M104.8,246.8
		c-0.3,0.2-0.6,0.4-0.9,0.6c0,2,0,4,0,6c0,7.2,0.1,14.4-0.1,21.6c-0.1,3.6-2.4,5.9-5.7,6c-3.3,0.1-5.7-2-6.2-5.5
		c-0.2-1.2-0.1-2.4-0.1-3.6c0-10.8,0.1-21.6-0.1-32.4c0-1.6-1-3.6-2.2-4.6c-5.2-4.5-10.6-8.9-16.1-13.1c-1.1-0.8-2.9-1.3-4.2-1
		c-6.8,1.7-13.7,3.5-20.4,5.7c-9.2,3-14.6,9.2-16.1,18.9c-6.7,42.3-13.2,84.7-20.5,127c-2.1,12,5.5,25.6,21.8,25.2
		c16.8-0.4,33.6-0.1,50.4-0.1c1.3,0,2.6-0.1,4.1-0.2c0-7.6,0-14.9,0-22.2c0-7.1-1.4-8.5-8.3-8.5c-12,0-24,0-36,0c-4.6,0-7-2.2-7-5.9
		c0-3.7,2.4-5.8,6.9-6.1c1.7-0.1,3.3,0,5.1,0c3-20.5,6-40.4,8.9-60.3c0.9-6.3,1.8-12.7,2.9-18.9c0.6-3.5,3-5.3,6.6-5
		c3.2,0.3,5.1,2.9,5,6.6c0,0.9-0.1,1.9-0.2,2.8c-1.4,9.7-2.9,19.5-4.4,29.2c-2.2,15-4.4,30-6.7,45.4c4.4,0,8.5,0.2,12.6,0
		c7.6-0.4,13.7-4,17.2-10.7c2.5-4.9,4-10.4,5.3-15.8c1.2-5,2.8-7,8-7c16.8-0.1,33.6-0.1,50.4,0c4.9,0,6.3,1.8,7.6,6.5
		c1.6,5.7,3.4,11.5,5.8,16.8c1.7,3.7,4.8,6.6,9,7.9c0-40.9,0-81.6,0-122.8c-2.1,1.6-3.5,3-5.2,4c-3.8,2.2-4.9,5.3-4.7,9.6
		c0.3,10.1,0.1,20.3,0.1,30.4c0,2.9-0.4,5.7-3.4,7.1c-4.2,2.1-8.4-0.8-8.6-6.1c-0.2-7.6-0.1-15.2-0.1-22.8c0-1.4-0.2-2.7-0.3-5.2
		c-5.9,5.3-11.1,9.6-16,14.3c-5.6,5.4-14.1,5-19.6-0.7C115,255.3,109.8,251.2,104.8,246.8z M74.4,99.9c0,9.4-0.2,18.6,0.1,27.8
		c0.4,12.6,3.8,24.2,11.6,34.6c18.3,24,55.3,28.3,78.4,8.9c12.5-10.5,19.7-23.6,20.2-40.1c0.3-11.3,0.1-22.6,0.1-34.1
		c-9.1-0.9-16.7-4.5-22.4-11.5C134.8,102.4,105.7,107.4,74.4,99.9z M277.9,276.9c0,33.2,0,66,0,98.7c11.1,0,21.8,0,32.5,0
		c0-33.1,0-65.9,0-98.7C299.4,276.9,288.8,276.9,277.9,276.9z M170.6,397.4c1.5,0.1,2.5,0.2,3.6,0.2c17.4,0,34.9,0.1,52.3,0
		c13.7-0.1,22.2-9.6,20.3-23.1c-1.3-9.3,0.7-7.6-8.6-7.8c-2,0-4,0-6,0c-18,0-35.9,0-53.9,0c-5.5,0-7.5,1.5-7.6,5.9
		C170.5,380.7,170.6,388.8,170.6,397.4z M129.6,382.3c9.3-10.9,15.3-15.5,25.3-17.1c4.7-0.7,7.3-2.9,8.8-5.3
		c-3.8-7-7.7-13.1-10.6-19.7c-3-7-2.6-7.1-10.2-7.1c-11.6,0-23.1,0-34.4,0c-1.8,4.9-3,9.6-5.2,13.8c-2.2,4.3-5.4,8.1-8.2,12.3
		c2,3.2,4.4,5.4,9,6.1c8.4,1.2,15.4,5.6,21.1,12C126.7,378.8,128.1,380.6,129.6,382.3z M149.1,192.5c-13.1,3.6-25.8,3.9-39.1,0.1
		c0,3-0.2,5.7,0,8.3c0.7,8.2,2.3,11.6,9.4,13.3c5,1.2,10.3,2,15.3,1.4c6.3-0.7,13.1-2.4,14.2-10.4
		C149.5,201.3,149.1,197.2,149.1,192.5z M293.8,387.9c-10,0-20,0-29.9,0c-4.6,0-6.8,1.6-6.7,4.9c0.1,3.1,2.2,4.7,6.5,4.7
		c19.8,0,39.7,0,59.5,0c4.2,0,6.5-1.7,6.5-4.8c0.1-3.1-2.1-4.9-6.3-4.9C313.5,387.9,303.7,387.9,293.8,387.9z M122.5,397.5
		c-1.1-10.4-13.6-21-21.6-20.2c0,6.7,0,13.4,0,20.2C108.2,397.5,115.2,397.5,122.5,397.5z M158.3,397.4c0-7.1,0-13.8,0-20.5
		c-10.6,1.2-21.3,11.6-21.3,20.5C144,397.4,151,397.4,158.3,397.4z M140.3,227.7c-7.3,0-14.1,0-21.2,0c3.3,8.3,6.6,16.7,9.9,25.2
		c0.4,0,0.9-0.1,1.3-0.1C133.7,244.5,137,236.1,140.3,227.7z M83.4,214.3c8.6,7,16.7,13.5,24.7,20c0.2-0.2,0.4-0.3,0.6-0.5
		c-3.6-9.3-7.1-18.5-10.8-28.1C93.1,208.6,88.5,211.2,83.4,214.3z M150.8,233.9c0.3,0.1,0.5,0.3,0.8,0.4c8-6.4,16.1-12.8,24.4-19.4
		c-5.1-3.1-9.7-5.9-14.4-8.7C157.9,215.7,154.4,224.8,150.8,233.9z M62.2,98.4c-4.7,2-7.1,5.2-6.9,8.7c0.2,3.7,2.8,6.6,6.9,7.6
		C62.2,109.4,62.2,104.1,62.2,98.4z M197.3,98.2c0,5.9,0,11.3,0,17c4-1.8,6.6-4.2,6.6-8.4C204,102.7,201.5,100.1,197.3,98.2z
		 M259.2,375.7c2.3,0,4.2,0,6.2,0c0-3,0-5.8,0-8.7c-2.5,0-4.8,0-7.4,0C258.4,370.1,258.8,372.8,259.2,375.7z"/>
	<path d="M293.3,209.7c10.3,0,18.8,8.5,19,18.8c0.2,10.4-8.6,19.2-19,19.2c-10.4,0-19.2-8.8-19-19.2
		C274.4,218.2,283.1,209.7,293.3,209.7z M293.2,235.5c3.8,0.1,6.9-2.9,7-6.7c0.1-3.8-3.2-7.2-7-7.2c-3.6,0.1-6.9,3.4-6.9,7
		C286.4,232.3,289.5,235.5,293.2,235.5z"/>
	<path d="M217.9,340.3c-3.2,0-6.4,0.2-9.6,0c-3.4-0.2-5.4-2.2-5.5-5.7c-0.2-3.4,1.9-5.8,5.6-6c6.4-0.2,12.8-0.2,19.2,0
		c3.4,0.1,5.3,2.4,5.3,5.8c0,3.4-2,5.5-5.4,5.8C224.3,340.4,221.1,340.2,217.9,340.3C217.9,340.3,217.9,340.3,217.9,340.3z"/>
	<path d="M247.4,340.3c-3.2,0-5.8-2.6-5.8-5.8c-0.1-3.3,2.3-5.8,5.7-5.8c3.5,0,6.2,2.6,6.1,5.9C253.2,337.6,250.5,340.3,247.4,340.3
		z"/>
	<path d="M380.7,153.1c0-7.3,0-13.8,0-20.2c0-4-0.2-8,0.1-12c0.2-3.9,2.8-6.1,6.1-6c3.4,0.1,5.7,2.4,5.7,6.4c0.1,11.5,0,22.9,0,34.4
		c0,4.4-2.2,7.7-6.1,9.6c-4,2-8.1,1.6-11.6-1.2c-2.7-2.2-5.3-4.5-7.7-6.9c-2.4-2.5-5.2-3.3-8.6-3.3c-35.3,0.1-70.6,0.1-106,0
		c-13.6,0-19.2-5.6-19.2-19.1c0-19.6,0-39.2,0-58.8c0-11.8,6.1-18,18-18c41.2,0,82.4,0,123.6,0c11.7,0,17.7,6.1,17.7,17.8
		c0,5.3,0.1,10.7,0,16c-0.1,4.3-2.1,6.7-5.6,6.9c-3.7,0.2-6.2-2.3-6.3-6.7c-0.2-5.3,0-10.7-0.1-16c0-5-0.9-6-5.7-6
		c-41.3,0-82.6,0-124,0c-4.6,0-5.6,1.1-5.6,5.7c0,20,0,40,0,60c0,5.5,0.7,6.2,6.2,6.2c34.5,0,69.1,0.2,103.6-0.1
		c8.8-0.1,16.3,1.8,22.2,8.6C378.2,151.1,379.2,151.8,380.7,153.1z"/>
	<path d="M302.7,134.6c-4.4,0-7-3.8-5.4-8.4c2.9-8.4,6-16.8,9-25.1c2.3-6.2,4.5-12.5,6.9-18.7c1.7-4.4,4.7-6.1,8.2-4.8
		c3.3,1.2,4.6,4.6,3.1,8.7c-5.2,14.5-10.5,28.9-15.8,43.4C307.7,132.6,306,134.6,302.7,134.6z"/>
	<path d="M343.2,104.3c-3.6-3.3-6.8-6.1-9.9-9.2c-3.4-3.4-3.7-6.8-1.1-9.5c2.5-2.6,6.1-2.3,9.5,0.9c4.3,4.2,8.5,8.4,12.7,12.7
		c3.8,3.9,3.7,6.8,0,10.7c-4.1,4.2-8.2,8.3-12.4,12.4c-3.8,3.7-7,4-9.7,1.2c-2.8-2.8-2.4-6,1.3-9.7
		C336.5,110.9,339.5,107.9,343.2,104.3z"/>
	<path d="M280.1,104.9c3.6,3.3,6.9,6.2,10,9.2c3.3,3.3,3.6,6.9,1,9.5c-2.7,2.7-6,2.4-9.5-1c-4.4-4.3-8.7-8.6-12.9-13
		c-3.5-3.6-3.5-6.5,0-10c4.3-4.5,8.8-8.9,13.3-13.2c3.1-3,6.6-3.2,9.1-0.6c2.5,2.5,2.3,6-0.8,9.1C287.3,98,284.1,101,280.1,104.9z"
		/>
</g>
</svg>
