<?xml version="1.0" encoding="utf-8"?>
<!-- Generator: Adobe Illustrator 22.1.0, SVG Export Plug-In . SVG Version: 6.00 Build 0)  -->
<svg version="1.1" id="Слой_1" xmlns="http://www.w3.org/2000/svg" xmlns:xlink="http://www.w3.org/1999/xlink" x="0px" y="0px"
	 viewBox="0 0 384 382.4" style="enable-background:new 0 0 384 382.4;" xml:space="preserve">
<style type="text/css">
	.st0{fill:#fff;}
	.st1{fill:#fff;}
</style>
<g>
	<path class="st0" d="M384,363.7c-0.4,0.9-0.8,1.8-1.1,2.7c-3.3,9.6-11.6,16-21.8,16c-45.7,0.1-91.5,0-137.2,0c-4.6,0-6.7-2-6.7-6.6
		c-0.1-16-0.1-32,0-48c0-4.5,1.9-6.3,6.4-6.5c3.2-0.1,6.5,0,9.7-0.2c12.3-0.8,21.2-10.6,20.9-22.9c-0.3-11.5-10-21.1-21.8-21.5
		c-3-0.1-6,0-9-0.1c-4.1-0.1-6.2-2.1-6.3-6.3c-0.1-16.1-0.1-32.2,0-48.4c0-4.7,2-6.4,7.2-6.5c12.5-0.1,25,0,37.5,0c1.5,0,3,0,4.9,0
		c-0.3-12.9,3.9-23.6,14.6-31.2c6.7-4.7,14.2-6.5,22.4-5.9c17.5,1.4,28.2,14.1,30.6,36.9c1.2,0.1,2.6,0.2,3.9,0.2
		c12.4,0,24.7,0.1,37.1,0c3.4,0,6.4,0.6,8.5,3.5C384,267.2,384,315.4,384,363.7z M228.8,226.8c0,13.1,0,25.8,0,38.4
		c21.6,1.8,35.2,13.2,36.7,30.3c0.7,8.3-1.1,15.9-5.9,22.7c-7.5,10.5-18.1,14.7-30.8,14.4c0,13,0,25.6,0,38.5c1.6,0,2.9,0,4.3,0
		c42,0,84,0,126,0c9.3,0,13.8-4.5,13.8-13.8c0-42.1,0-84.2,0-126.3c0-1.3,0-2.6,0-4.3c-1.9,0-3.2,0-4.6,0c-12.5,0-25,0-37.5,0
		c-6.2,0-7.7-1.6-7.7-7.8c0-3.2,0-6.5-0.3-9.7c-1.2-10.6-10-19-20.4-19.5c-11.3-0.6-21,6.4-23.2,17.1c-0.8,3.9-0.7,7.9-0.7,11.9
		c-0.1,6.4-1.6,8-7.9,8.1c-12.5,0-25,0-37.5,0C231.5,226.8,230.2,226.8,228.8,226.8z"/>
	<path class="st1" d="M166.8,11.5c0,5.2,0,10,0,14.9c0,9.1,0,18.2,0,27.4c0,5.6-1.8,7.3-7.5,7.4c-3,0-6-0.1-9,0.2
		c-12.2,0.9-21,10.8-20.6,23.2c0.4,11.6,10.1,21,22,21.2c2.7,0,5.5,0,8.2,0c4.8,0.1,6.8,2,6.9,6.8c0.1,12.7,0,25.5,0,38.2
		c0,1.4,0,2.7,0,4.4c12.9,0,25.5,0,38.6,0c-0.3-11.7,3.5-21.8,12.7-29.4c6.1-5,13.1-7.6,21.1-7.5c9.9,0.1,18.2,3.9,24.8,11.2
		c6.6,7.2,8.9,16,8.5,25.7c13,0,25.5,0,38.5,0c0.1-1.4,0.2-2.7,0.2-4c0-17.1,0-34.2,0-51.4c0-1,0-2,0-3c0.2-3.6,2.2-5.9,5.4-6
		c3.2-0.1,5.7,2.3,5.8,6c0.1,5.4,0,10.7,0,16.1c0,15.4,0,30.7,0,46.1c0,5.8-1.9,7.6-7.7,7.6c-15.2,0-30.5,0-45.7,0
		c-6.1,0-7.7-1.8-7.8-7.9c0-2.7,0-5.5-0.1-8.2c-0.6-11.9-10.3-21-22.1-21c-11.7,0-21.6,9.4-22.3,21c-0.1,2.4-0.1,4.7-0.1,7.1
		c0,7.7-1.4,9.1-9.3,9.1c-12.1,0-24.2,0.1-36.4-0.1c-3.4-0.1-4.5,0.9-4.4,4.4c0.2,11.2,0.1,22.5,0.1,34.2
		c12.7-0.4,23.3,3.6,30.9,13.8c5,6.7,7,14.3,6.4,22.6c-0.8,9.3-4.8,17-11.9,23c-7.1,6.1-15.6,8.2-25.1,7.8c-0.1,1.6-0.2,2.9-0.2,4.2
		c0,12.6,0,25.2,0,37.9c0,6.1-1.8,7.8-7.8,7.8c-20.1,0-40.2,0-60.4,0c-1,0-2,0.1-3-0.1c-2.9-0.7-4.7-2.6-4.6-5.5
		c0.1-3.1,1.9-5.1,5.1-5.5c1.7-0.2,3.5-0.1,5.2-0.1c17.9,0,35.7,0,54,0c0.1-1.5,0.2-2.8,0.2-4.1c0-12.6,0-25.2,0-37.9
		c0-6.2,1.7-7.8,7.8-7.9c3.1,0,6.3,0.1,9.4-0.2c11.8-1,20.5-10.8,20.2-22.9c-0.3-11.6-9.7-21.1-21.3-21.5c-3-0.1-6,0-9-0.1
		c-5-0.1-7-2-7-7.1c-0.1-12.7,0-25.5,0-38.2c0-1.3,0-2.7,0-4.2c-13,0-25.6,0-38.5,0c0.4,11.7-3.3,21.7-12.4,29.3
		c-6.3,5.2-13.6,7.7-21.8,7.6c-18.5-0.3-29.9-12.7-33.4-37.1c-6.2,0-12.6,0-18.9,0c-6.2,0-12.5,0-19.2,0c0,1.6,0,2.9,0,4.2
		c0,42.1,0,84.2,0,126.4c0,9.2,4.5,13.7,13.9,13.7c14.5,0,29,0,43.5,0c4.8,0,7.3,2,7.2,5.7c0,3.6-2.5,5.6-7.3,5.6
		c-14.9,0-29.7,0.1-44.6,0C9.9,322.3,0,312.5,0,298.5c0-91.5,0-183,0-274.5C0,9.8,9.8,0,24.1,0c91.4,0,182.7,0,274.1,0
		c14.4,0,24.2,9.8,24.3,24.3c0.1,14.7,0.1,29.5-0.1,44.2c0,2-0.8,4.6-2.2,6c-1.1,1.1-4.1,1.5-5.4,0.8c-1.6-0.9-3.3-3.3-3.4-5.2
		c-0.4-7.2-0.2-14.5-0.2-21.7c0-8.2,0.1-16.5,0-24.7c-0.1-7.3-5-12.3-12.2-12.3c-43.2,0-86.5,0-129.7,0
		C168.6,11.3,167.9,11.4,166.8,11.5z M155.4,11.3c-1.6,0-2.8,0-4,0c-42.1,0-84.2,0-126.3,0c-9.2,0-13.7,4.5-13.7,13.8
		c0,42.1,0,84.2,0,126.3c0,1.3,0.1,2.6,0.2,4.2c1.7,0,3.1,0,4.4,0c11.6,0,23.2,0,34.9,0c9.6,0,10.3,0.7,10.3,10.1
		c0,2.5,0.1,5,0.4,7.5c1.3,10.5,10.4,19.1,20.6,19.5c11.4,0.5,20.9-6.7,23.1-17.7c0.8-3.9,0.5-7.9,0.6-11.9c0.1-5.6,1.8-7.4,7.4-7.4
		c12.6,0,25.2,0,37.9,0c1.3,0,2.7,0,4.3,0c0-13.1,0-25.7,0-38.3c-22.8-2.7-35.4-13.2-36.7-30.5c-0.6-8.1,1.1-15.7,5.8-22.4
		c7.5-10.7,18.2-15,31.1-14.7C155.4,36.8,155.4,24.3,155.4,11.3z"/>
</g>
</svg>
