<?xml version="1.0" encoding="utf-8"?>
<!-- Generator: Adobe Illustrator 22.1.0, SVG Export Plug-In . SVG Version: 6.00 Build 0)  -->
<svg version="1.1" id="Слой_1" xmlns="http://www.w3.org/2000/svg" xmlns:xlink="http://www.w3.org/1999/xlink" x="0px" y="0px"
	 viewBox="0 0 409.7 409.7" style="enable-background:new 0 0 409.7 409.7;" xml:space="preserve">
<g>
	<path d="M409.7,95.2c-0.7,0.9-1.3,1.9-2.1,2.8c-4,4.5-11.3,3.1-13.2-2.6c-0.6-1.7-0.6-3.7-0.6-5.5c0-23.1,0-46.1,0-69.2
		c0-1.4,0-2.9,0-4.7c-1.8,0-3.2,0-4.7,0c-23.1,0-46.1,0-69.2,0c-1.6,0-3.2,0-4.8-0.4c-3.3-0.8-5.3-3-5.9-6.3
		c-0.6-3.2,0.7-5.7,3.2-7.7c0.7-0.6,1.5-1.1,2.2-1.6c31.7,0,63.5,0,95.2,0C409.7,31.7,409.7,63.5,409.7,95.2z"/>
	<path d="M95.3,0c0.9,0.7,1.9,1.3,2.8,2.1c4.5,4,3.1,11.3-2.6,13.2c-1.7,0.6-3.7,0.6-5.5,0.6c-23.1,0-46.1,0-69.2,0
		c-1.4,0-2.9,0-4.7,0c0,1.8,0,3.2,0,4.7c0,22.9,0,45.9,0,68.8c0,1.3,0.1,2.7-0.1,4c-0.6,4.2-3.8,7.2-7.8,7.3c-4.1,0.1-7.5-3-8-7.4
		c-0.2-1.2-0.1-2.4-0.1-3.6c0-26.1,0.1-52.3-0.1-78.4C0,6.4,1.2,2.5,5.7,0C35.5,0,65.4,0,95.3,0z"/>
	<path d="M409.7,404c-2.5,4.5-6.4,5.7-11.3,5.7c-26-0.2-52-0.1-78-0.1c-0.4,0-0.8,0-1.2,0c-6.4,0-10.3-3.1-10.2-8.1
		c0.1-4.9,3.9-7.9,10.1-7.9c23.3,0,46.7,0,70,0c1.4,0,2.9,0,4.7,0c0-1.8,0-3.2,0-4.7c0-23.1,0-46.1,0-69.2c0-1.6-0.3-3.6,0.5-4.7
		c1.6-2.2,3.6-5.1,5.9-5.6c2.3-0.5,5.2,1.4,7.7,2.5c0.8,0.4,1.3,1.6,1.9,2.4C409.7,344.3,409.7,374.1,409.7,404z"/>
	<path d="M148.9,100.9c0,12.5,0,25.1,0,37.6c0,7.4-2.9,10.3-10.1,10.3c-25.2,0-50.4,0-75.6,0c-7.4,0-10.3-2.9-10.3-10.1
		c0-25.2,0-50.4,0-75.6c0-7.4,2.9-10.3,10.1-10.3c25.2,0,50.4,0,75.6,0c7.5,0,10.3,2.9,10.3,10.5C148.9,75.9,148.9,88.4,148.9,100.9
		z M132.6,132.6c0-21.4,0-42.4,0-63.5c-21.4,0-42.5,0-63.5,0c0,21.3,0,42.3,0,63.5C90.3,132.6,111.3,132.6,132.6,132.6z"/>
	<path d="M260.9,100.4c0-12.4,0-24.8,0-37.2c0-7.6,2.8-10.4,10.4-10.4c25.1,0,50.1,0,75.2,0c7.6,0,10.4,2.8,10.4,10.4
		c0,25.1,0,50.1,0,75.2c0,7.6-2.8,10.4-10.4,10.4c-25.1,0-50.1,0-75.2,0c-7.6,0-10.4-2.8-10.4-10.4
		C260.9,125.7,260.9,113.1,260.9,100.4z M340.6,132.6c0-21.4,0-42.5,0-63.5c-21.4,0-42.5,0-63.5,0c0,21.3,0,42.3,0,63.5
		C298.3,132.6,319.3,132.6,340.6,132.6z"/>
	<path d="M52.9,308.8c0-12.5,0-25.1,0-37.6c0-7.6,2.8-10.4,10.4-10.4c25.1,0,50.1,0,75.2,0c7.6,0,10.4,2.8,10.4,10.4
		c0,25.1,0,50.1,0,75.2c0,7.6-2.8,10.4-10.4,10.4c-25.1,0-50.1,0-75.2,0c-7.6,0-10.4-2.8-10.4-10.4
		C52.9,333.9,52.9,321.3,52.9,308.8z M69.2,277c0,21.4,0,42.5,0,63.5c21.4,0,42.5,0,63.5,0c0-21.3,0-42.3,0-63.5
		C111.4,277,90.4,277,69.2,277z"/>
	<path d="M356.9,308.8c0,12.5,0,25.1,0,37.6c0,7.6-2.8,10.4-10.4,10.4c-25.1,0-50.1,0-75.2,0c-7.6,0-10.4-2.8-10.4-10.4
		c0-25.1,0-50.1,0-75.2c0-7.6,2.8-10.4,10.4-10.4c25.1,0,50.1,0,75.2,0c7.6,0,10.4,2.8,10.4,10.4
		C356.9,283.7,356.9,296.3,356.9,308.8z M277,340.5c21.4,0,42.5,0,63.5,0c0-21.4,0-42.5,0-63.5c-21.3,0-42.3,0-63.5,0
		C277,298.2,277,319.2,277,340.5z"/>
	<path d="M180.9,132.8c17.9,0,35.2,0,52.5,0c9,0,11.5,2.4,11.5,11.3c0,10.8,0,21.6,0,32.4c0,1.3,0,2.6,0,4.3c7,0,13.6,0,20.3,0
		c1.5,0,2.9-0.1,4.4,0.1c4.2,0.6,7.2,3.8,7.3,7.7c0.1,4.1-3,7.6-7.4,8c-3.7,0.3-7.5,0.1-11.2,0.1c-6.5,0-13.1,0-19.6,0
		c-6.7-0.1-9.7-3-9.7-9.9c0-12.5,0-25,0-38.1c-1.6,0-3,0-4.4,0c-16.4,0-32.8,0-49.2,0c-7.6,0-10.4-2.8-10.4-10.4
		c0-25.1,0-50.1,0-75.2c0-1.7,0.1-3.5,0.7-5.1c1.1-3.4,3.8-5.2,7.3-5.2c3.5,0,6.2,1.8,7.3,5.2c0.6,1.7,0.7,3.7,0.7,5.5
		c0,21.5,0,42.9,0,64.4C180.9,129.4,180.9,130.9,180.9,132.8z"/>
	<path d="M16.1,393.6c7.7,0,14.9,0,22,0c17.3,0,34.6,0,52,0c1.8,0,3.8,0.1,5.5,0.7c3.4,1.1,5.2,3.8,5.2,7.3c0,3.5-1.8,6.2-5.2,7.3
		c-1.7,0.6-3.7,0.7-5.5,0.7c-26.4,0-52.8,0-79.2,0c-8.1,0-10.8-2.7-10.8-10.8c0-26.4,0-52.8,0-79.2c0-1.1,0-2.1,0.1-3.2
		c0.5-4.4,3.8-7.6,7.9-7.6c4.1,0,7.4,3.1,8,7.5c0.2,1.3,0.1,2.7,0.1,4c0,22.8,0,45.6,0,68.4C16.1,390.2,16.1,391.6,16.1,393.6z"/>
	<path d="M196.9,228.8c-2,0-3.4,0-4.9,0c-31.4,0-62.9,0-94.3,0c-0.9,0-1.9,0-2.8,0c-6.1-0.1-9.9-3.1-9.9-8c0-4.9,3.8-8,10-8
		c36,0,72,0,107.9,0c7.1,0,10,2.9,10,10c0,14.7,0,29.3,0,44c0,0.3,0,0.5,0,0.8c-0.2,5.5-3.3,9.2-7.9,9.2c-4.6,0-8-3.6-8-9.1
		c-0.1-11.3,0-22.7,0-34C196.9,232.2,196.9,230.8,196.9,228.8z"/>
	<path d="M228.9,340.8c0-6.4,0-12.2,0-18.1c0-22.3,0-44.5,0-66.8c0-1.7,0-3.5,0.4-5.1c0.9-3.6,4.1-6,7.6-6c3.5,0,6.7,2.4,7.6,6
		c0.4,1.4,0.4,2.9,0.4,4.3c0,30.4,0,60.8,0,91.1c0,7.6-2.8,10.4-10.3,10.4c-9.5,0-18.9,0.1-28.4,0c-5.2,0-8.6-2.7-9.1-7.1
		c-0.6-4.9,3.2-8.8,9-8.8C213.5,340.7,220.9,340.8,228.9,340.8z"/>
	<path d="M100.5,196.8c-12.5,0-25.1,0.1-37.6-0.1c-2.3,0-5.2-0.4-6.6-1.9c-1.7-1.7-3.2-4.9-2.9-7.2c0.3-2.3,2.8-4.5,4.9-6.1
		c1.3-1,3.6-0.7,5.4-0.7c24.8,0,49.6,0,74.4,0c0.8,0,1.6,0,2.4,0c4.9,0.3,8.3,3.6,8.3,8c0,4.4-3.4,7.8-8.3,7.9
		c-6.9,0.2-13.9,0.1-20.8,0.1C113.3,196.8,106.9,196.8,100.5,196.8z"/>
	<path d="M308.9,212.8c12.7,0,25.3-0.1,38,0.1c2.3,0,5.2,0.4,6.6,1.9c1.7,1.7,3.2,4.9,2.9,7.2c-0.3,2.3-2.8,4.5-4.9,6.1
		c-1.3,1-3.6,0.7-5.4,0.7c-24.8,0-49.6,0-74.4,0c-0.8,0-1.6,0-2.4,0c-4.9-0.3-8.3-3.6-8.3-8c0-4.4,3.4-7.8,8.3-7.9
		c7.1-0.2,14.1-0.1,21.2-0.1C296.6,212.8,302.7,212.8,308.9,212.8z"/>
	<path d="M228.9,100.8c0-9.2,0-17.9,0-26.5c0-4,0-8,0-12c0.1-5.8,3.3-9.5,8.1-9.4c4.7,0.1,7.8,3.8,7.9,9.6c0,0.3,0,0.5,0,0.8
		c0,14.4,0,28.8,0,43.2c0,7.6-2.8,10.3-10.4,10.3c-9.6,0-19.2,0.1-28.8,0c-5.2-0.1-8.7-3.5-8.7-8c0-4.5,3.6-7.8,8.7-8
		c1.5-0.1,2.9,0,4.4,0C216.2,100.8,222.3,100.8,228.9,100.8z"/>
	<path d="M180.9,308.8c0,12.6,0,24.7,0,36.8c0,1.6,0,3.2-0.3,4.8c-0.8,3.8-4.1,6.4-7.7,6.4c-3.6,0-6.9-2.6-7.7-6.4
		c-0.3-1.3-0.3-2.6-0.3-4c0-14.4,0-28.8,0-43.2c0-7.6,2.8-10.4,10.4-10.4c9.5,0,18.9-0.1,28.4,0c5.2,0,8.6,2.7,9.1,7.1
		c0.6,4.9-3.2,8.8-9,8.8C196.3,308.9,188.9,308.8,180.9,308.8z"/>
	<path d="M324.7,196.8c-7.5,0-14.9,0-22.4,0c-5.7-0.1-9.5-3.4-9.4-8.1c0.1-4.6,3.8-7.8,9.3-7.8c15.1-0.1,30.1-0.1,45.2,0
		c5.7,0,9.5,3.4,9.4,8.1c-0.1,4.6-3.8,7.8-9.3,7.8C339.9,196.9,332.3,196.8,324.7,196.8z"/>
	<path d="M188.5,196.8c-4.8,0-9.6,0.1-14.4,0c-5.5-0.1-9.1-3.4-9.1-8s3.7-7.9,9.1-8c9.9-0.1,19.7-0.1,29.6,0c5.5,0,9.1,3.3,9.1,8
		c0,4.6-3.7,7.9-9.1,8C198.6,196.9,193.5,196.8,188.5,196.8z"/>
	<path d="M68.8,220.7c0.1,4.2-3.7,8-7.9,8c-4.2,0.1-8-3.7-8-7.9c-0.1-4.2,3.6-8,7.9-8C65,212.8,68.8,216.5,68.8,220.7z"/>
	<path d="M244.8,220.8c0,4.2-3.7,8-7.9,8c-4.2,0-7.9-3.7-8-7.9c0-4.2,3.7-7.9,7.9-8C241,212.8,244.8,216.6,244.8,220.8z"/>
	<path d="M84.9,100.4c0-2.4-0.1-4.8,0-7.2c0.3-5.1,3.3-8.2,8.3-8.4c5.1-0.2,10.1-0.2,15.2,0c5.1,0.2,8.2,3.2,8.4,8.3
		c0.2,5.1,0.2,10.1,0,15.2c-0.2,5.1-3.2,8.2-8.3,8.4c-5.1,0.2-10.1,0.2-15.2,0c-5.1-0.2-8.1-3.2-8.4-8.3
		C84.8,105.8,84.9,103.1,84.9,100.4z"/>
	<path d="M324.9,100.7c0,2.5,0.1,5.1,0,7.6c-0.3,5.1-3.2,8.3-8.3,8.4c-5.2,0.2-10.4,0.2-15.6,0c-4.9-0.2-7.9-3.3-8-8.2
		c-0.2-5.2-0.2-10.4,0-15.6c0.2-4.8,3.3-7.9,8.2-8c5.1-0.2,10.1-0.2,15.2,0c5.3,0.2,8.3,3.3,8.5,8.7
		C325,95.9,324.9,98.3,324.9,100.7z"/>
	<path d="M100.9,292.8c2.5,0,5.1-0.1,7.6,0c4.9,0.3,8.1,3.2,8.3,8c0.2,5.3,0.2,10.7,0,16c-0.2,4.7-3.3,7.7-8,7.9
		c-5.3,0.2-10.7,0.2-16,0c-4.7-0.2-7.7-3.3-7.9-8c-0.2-5.3-0.2-10.7,0-16c0.2-4.7,3.3-7.6,8-7.9C95.6,292.7,98.2,292.8,100.9,292.8z
		"/>
	<path d="M308.5,324.8c-2.4,0-4.8,0.1-7.2,0c-5.1-0.3-8.2-3.2-8.4-8.3c-0.2-5.1-0.2-10.1,0-15.2c0.2-5.1,3.2-8.2,8.3-8.4
		c5.1-0.2,10.1-0.2,15.2,0c5.1,0.2,8.2,3.2,8.4,8.3c0.2,5.1,0.2,10.1,0,15.2c-0.2,5.3-3.3,8.2-8.7,8.4
		C313.6,324.9,311.1,324.8,308.5,324.8z"/>
</g>
</svg>
