<?xml version="1.0" encoding="utf-8"?>
<!-- Generator: Adobe Illustrator 22.1.0, SVG Export Plug-In . SVG Version: 6.00 Build 0)  -->
<svg version="1.1" id="Слой_1" xmlns="http://www.w3.org/2000/svg" xmlns:xlink="http://www.w3.org/1999/xlink" x="0px" y="0px"
	 viewBox="0 0 384 383.9" style="enable-background:new 0 0 384 383.9;" xml:space="preserve">
<g>
	<path d="M180,0c8,0,16,0,24,0c1,0.2,1.9,0.5,2.9,0.6c12,2.1,24.5,2.8,36,6.4c75.8,23.3,122,74.1,138.1,151.9c1.4,6.9,2,14.1,3,21.1
		c0,8,0,16,0,24c-0.7,5.4-1.3,10.9-2.1,16.3c-6.4,42.4-24.6,79.1-55.5,108.7c-46.9,45-103,62.5-167.2,52
		c-47.2-7.7-86.1-30.8-116-67.9C4.7,265.2-7.8,210.6,4.6,150.5C19.9,75.9,83.6,15.2,158.6,3C165.7,1.8,172.9,1,180,0z M192,26.9
		c-91.2,0-165.2,74.1-165.1,165.2c0.1,91.1,73.8,164.8,164.9,165c91.1,0.2,165.2-73.8,165.3-165C357.3,100.9,283.3,26.9,192,26.9z"
		/>
	<path d="M187.5,95.6c12.5,0.1,22.6,1.7,32.2,6.3c22.4,10.8,30.1,34,18.4,56c-5.3,9.9-12.9,17.7-21.6,24.6c-2.2,1.8-4.4,3.6-6.5,5.6
		c-5.6,5.2-8.4,11.7-8.7,19.3c-0.1,2.2-0.1,4.5-0.1,6.7c-0.1,6.2-2.8,9.6-8.8,10.7c-2.8,0.5-5.7,0.7-8.6,0.4
		c-7.5-0.6-10.5-3.9-11.1-11.5c-1.6-19.6,4.6-35.6,21-47.2c3.7-2.6,7.4-5.3,10.2-8.7c3-3.6,5.8-7.9,7.3-12.3
		c2.4-7.4-1.1-14.4-7.8-18c-12.8-6.9-29-3.2-37.2,8.7c-5.5,7.9-10.6,9.6-18,6.1c-6.8-3.2-9.7-10.3-7.2-18.4
		c3.6-11.8,12.3-18.7,23.1-23.4C172,96.9,180.7,95.7,187.5,95.6z"/>
	<path d="M205.7,262.5c-0.1,10.5-8.8,19.3-19.3,19.4c-10.6,0-19.3-9-19.2-19.8c0.1-10.7,8.8-19.2,19.4-19.1
		C197.2,243.1,205.8,251.9,205.7,262.5z"/>
</g>
</svg>
