<?xml version="1.0" encoding="utf-8"?>
<!-- Generator: Adobe Illustrator 22.1.0, SVG Export Plug-In . SVG Version: 6.00 Build 0)  -->
<svg version="1.1" id="Слой_1" xmlns="http://www.w3.org/2000/svg" xmlns:xlink="http://www.w3.org/1999/xlink" x="0px" y="0px"
	 viewBox="0 0 353.1 352.9" style="enable-background:new 0 0 353.1 352.9;" xml:space="preserve">
<g>
	<path d="M0,166.1c0.9-6.6,1.5-13.2,2.7-19.7C13.3,90.5,43.6,48.7,93.3,21.2C123.7,4.4,156.8-2.9,191.2,1
		c75.1,8.5,127.2,48.3,152.2,119.8C376.6,215.4,321,319,224,345.8c-49.4,13.7-96.4,6.7-140.2-20c-2.8-1.7-4.9-1.9-7.8-0.6
		c-20.5,8.7-41,17.2-61.5,25.8c-1.6,0.7-3.2,1.2-4.7,1.9c-0.7,0-1.4,0-2.1,0C3.8,352,1.5,349.4,0,346c0-1.1,0-2.3,0-3.4
		c9.2-22.1,18.4-44.2,27.7-66.2c1.1-2.6,1-4.5-0.5-6.9C15.8,251.8,8,232.8,3.9,212.2c-1.7-8.6-2.6-17.4-3.9-26.1
		C0,179.4,0,172.8,0,166.1z M24.5,328.2c1.8-0.7,2.9-1.1,4-1.6c15.7-6.7,31.4-13.4,47.1-20.2c3.5-1.5,6.7-1.1,9.9,0.5
		c1.5,0.8,2.9,1.8,4.4,2.7c38,24.2,78.9,31.9,122.9,21.8c78-17.9,134.3-93.5,121.1-179.8c-5.9-38.9-24.2-71.6-54.4-96.8
		c-39.6-33.1-85.4-44.6-135.9-34.4c-41.5,8.4-74.5,30.9-98.5,65.8C21.4,120.7,13,158.9,18.9,200.2c3.4,23.6,12.2,45.3,25.8,64.9
		c2.8,4,3.1,7.7,1.2,12.2c-5.3,12.1-10.3,24.3-15.4,36.4C28.6,318.4,26.7,323,24.5,328.2z"/>
	<path d="M168,201.9c0-5.9,0-11.7,0-17.6c0-6.5,3-9.7,9.5-10c21-1.2,36.5-17.9,35.3-38.8c-0.8-14.4-8.4-25-21.4-30.9
		c-12.8-5.8-25.3-4.4-36.7,4c-9.3,6.9-14.1,16.3-14.8,27.9c-0.3,5.7-4,9.3-9.2,8.9c-4.9-0.3-8.2-4.6-7.8-10.2
		c1.8-25.4,17.6-44.2,41.9-50c28.9-6.9,58.7,11.6,65.1,40.3c6.6,29.6-12.1,58.5-41.8,64.4c-2.8,0.5-3.2,1.7-3.2,4.1
		c0.1,8.5,0.3,17-0.1,25.5c-0.1,2.6-1.3,5.6-2.9,7.7c-2,2.5-5.3,3.1-8.5,1.6c-3.1-1.4-5.3-3.8-5.3-7.4
		C168,215,168.1,208.4,168,201.9C168,201.9,168,201.9,168,201.9z"/>
	<path d="M175.6,269.5c-5.1-0.1-9.1-4.2-9.1-9.3c0-5.2,4.2-9.4,9.4-9.3c5,0.1,9.2,4.3,9.2,9.3C185.1,265.3,180.8,269.6,175.6,269.5z
		"/>
</g>
</svg>
