<svg id="Графика" xmlns="http://www.w3.org/2000/svg" width="191" height="74" viewBox="0 0 191 74">
  <defs>
    <style>
      .cls-1 {
        fill: #e85222;
      }

      .cls-1, .cls-2, .cls-3, .cls-4, .cls-5, .cls-6, .cls-7, .cls-8, .cls-9 {
        fill-rule: evenodd;
      }

      .cls-2 {
        fill: #f35f30;
      }

      .cls-3 {
        fill: #fa7145;
      }

      .cls-4 {
        fill: #fd8660;
      }

      .cls-5 {
        fill: #fc997a;
      }

      .cls-6 {
        fill: #bbb;
      }

      .cls-7 {
        fill: #434242;
      }

      .cls-8 {
        fill: #f5f5f5;
      }

      .cls-9 {
        fill: #fbad94;
      }
    </style>
  </defs>
  <path id="Прямоугольник_9" data-name="Прямоугольник 9" class="cls-1" d="M-1.007.013H23.84V24.679H-1.007V0.013Z"/>
  <path id="Прямоугольник_9_копия" data-name="Прямоугольник 9 копия" class="cls-2" d="M22.711,0.013H47.558V24.679H22.711V0.013Z"/>
  <path id="Прямоугольник_9_копия_2" data-name="Прямоугольник 9 копия 2" class="cls-3" d="M46.428,0.013H71.275V24.679H46.428V0.013Z"/>
  <path id="Прямоугольник_9_копия_3" data-name="Прямоугольник 9 копия 3" class="cls-4" d="M70.146,0.013H94.993V24.679H70.146V0.013Z"/>
  <path id="Прямоугольник_9_копия_4" data-name="Прямоугольник 9 копия 4" class="cls-5" d="M93.863,0.013H118.71V24.679H93.863V0.013Z"/>
  <path id="Прямоугольник_9_копия_10" data-name="Прямоугольник 9 копия 10" class="cls-6" d="M22.711,23.558H47.558V48.224H22.711V23.558Z"/>
  <path id="Прямоугольник_9_копия_11" data-name="Прямоугольник 9 копия 11" class="cls-6" d="M94.993,48.224H119.84V72.891H94.993V48.224Z"/>
  <path id="Прямоугольник_9_копия_14" data-name="Прямоугольник 9 копия 14" class="cls-6" d="M-1.007,48.224H23.84V72.891H-1.007V48.224Z"/>
  <path id="Прямоугольник_9_копия_12" data-name="Прямоугольник 9 копия 12" class="cls-6" d="M166.146,24.679h24.847V49.346H166.146V24.679Z"/>
  <path id="Прямоугольник_9_копия_13" data-name="Прямоугольник 9 копия 13" class="cls-7" d="M141.3,49.346h24.847V74.013H141.3V49.346Z"/>
  <path id="Прямоугольник_9_копия_10-2" data-name="Прямоугольник 9 копия 10" class="cls-4" d="M46.428,23.558H71.275V48.224H46.428V23.558Z"/>
  <path id="Прямоугольник_9_копия_10-3" data-name="Прямоугольник 9 копия 10" class="cls-5" d="M70.146,23.558H94.993V48.224H70.146V23.558Z"/>
  <path id="Прямоугольник_9_копия_5" data-name="Прямоугольник 9 копия 5" class="cls-8" d="M117.581,0.013h24.847V24.679H117.581V0.013Z"/>
  <path id="Прямоугольник_9_копия_6" data-name="Прямоугольник 9 копия 6" class="cls-9" d="M141.3,0.013h24.847V24.679H141.3V0.013Z"/>
</svg>
