<svg id="Графика_копия_11" data-name="Графика копия 11" xmlns="http://www.w3.org/2000/svg" width="121.66" height="267.72" viewBox="0 0 121.66 267.72">
  <defs>
    <style>
      .cls-1 {
        fill: #e85222;
      }

      .cls-1, .cls-2, .cls-3, .cls-4, .cls-5, .cls-6, .cls-7, .cls-8 {
        fill-rule: evenodd;
      }

      .cls-2 {
        fill: #f35f30;
      }

      .cls-3 {
        fill: #fa7145;
      }

      .cls-4 {
        fill: #fd8660;
      }

      .cls-5 {
        fill: #fc997a;
      }

      .cls-6 {
        fill: #434242;
      }

      .cls-7 {
        fill: #bbb;
      }

      .cls-8 {
        fill: #fbad94;
      }
    </style>
  </defs>
  <path id="Прямоугольник_9" data-name="Прямоугольник 9" class="cls-1" d="M1625.93,2530.12h24.88v-24.64h-24.88v24.64Z" transform="translate(-1552.34 -2399.28)"/>
  <path id="Прямоугольник_9_копия" data-name="Прямоугольник 9 копия" class="cls-2" d="M1599.61,2619.04h24.88V2594.4h-24.88v24.64Z" transform="translate(-1552.34 -2399.28)"/>
  <path id="Прямоугольник_9_копия_2" data-name="Прямоугольник 9 копия 2" class="cls-3" d="M1577.3,2619.04h24.88V2594.4H1577.3v24.64Z" transform="translate(-1552.34 -2399.28)"/>
  <path id="Прямоугольник_9_копия_3" data-name="Прямоугольник 9 копия 3" class="cls-4" d="M1577.02,2666.99h24.88v-24.64h-24.88v24.64Z" transform="translate(-1552.34 -2399.28)"/>
  <path id="Прямоугольник_9_копия_4" data-name="Прямоугольник 9 копия 4" class="cls-5" d="M1576.74,2643.01h24.88v-24.64h-24.88v24.64Z" transform="translate(-1552.34 -2399.28)"/>
  <path id="Прямоугольник_9_копия_11" data-name="Прямоугольник 9 копия 11" class="cls-6" d="M1577.87,2594.85h24.88v-24.64h-24.88v24.64Z" transform="translate(-1552.34 -2399.28)"/>
  <path id="Прямоугольник_9_копия_14" data-name="Прямоугольник 9 копия 14" class="cls-7" d="M1576.87,2423.91h24.88v-24.64h-24.88v24.64Z" transform="translate(-1552.34 -2399.28)"/>
  <path id="Прямоугольник_9_копия_12" data-name="Прямоугольник 9 копия 12" class="cls-6" d="M1649.11,2618.37h24.88v-24.64h-24.88v24.64Z" transform="translate(-1552.34 -2399.28)"/>
  <path id="Прямоугольник_9_копия_13" data-name="Прямоугольник 9 копия 13" class="cls-7" d="M1624.23,2593.73h24.88v-24.64h-24.88v24.64Z" transform="translate(-1552.34 -2399.28)"/>
  <path id="Прямоугольник_9_копия_10" data-name="Прямоугольник 9 копия 10" class="cls-4" d="M1552.33,2448.55h24.88v-24.64h-24.88v24.64Z" transform="translate(-1552.34 -2399.28)"/>
  <path id="Прямоугольник_9_копия_16" data-name="Прямоугольник 9 копия 16" class="cls-4" d="M1626.37,2505.6h24.88v-24.64h-24.88v24.64Z" transform="translate(-1552.34 -2399.28)"/>
  <path id="Прямоугольник_9_копия_17" data-name="Прямоугольник 9 копия 17" class="cls-7" d="M1602.34,2493.63h24.87v-24.64h-24.87v24.64Z" transform="translate(-1552.34 -2399.28)"/>
  <path id="Прямоугольник_9_копия_10-2" data-name="Прямоугольник 9 копия 10" class="cls-5" d="M1552.99,2619.49h24.88v-24.64h-24.88v24.64Z" transform="translate(-1552.34 -2399.28)"/>
  <path id="Прямоугольник_9_копия_6" data-name="Прямоугольник 9 копия 6" class="cls-8" d="M1624.23,2643.01h24.88v-24.64h-24.88v24.64Z" transform="translate(-1552.34 -2399.28)"/>
</svg>
