<svg id="Графика" xmlns="http://www.w3.org/2000/svg" width="192" height="74" viewBox="0 0 192 74">
  <defs>
    <style>
      .cls-1 {
        fill: #e85222;
      }

      .cls-1, .cls-2, .cls-3, .cls-4, .cls-5, .cls-6, .cls-7, .cls-8, .cls-9 {
        fill-rule: evenodd;
      }

      .cls-2 {
        fill: #f35f30;
      }

      .cls-3 {
        fill: #fa7145;
      }

      .cls-4 {
        fill: #fd8660;
      }

      .cls-5 {
        fill: #fc997a;
      }

      .cls-6 {
        fill: #bbb;
      }

      .cls-7 {
        fill: #434242;
      }

      .cls-8 {
        fill: #f5f5f5;
      }

      .cls-9 {
        fill: #fbad94;
      }
    </style>
  </defs>
  <path id="Прямоугольник_9" data-name="Прямоугольник 9" class="cls-1" d="M1920.01,0.013h-24.85V24.679h24.85V0.013Z" transform="translate(-1728)"/>
  <path id="Прямоугольник_9_копия" data-name="Прямоугольник 9 копия" class="cls-2" d="M1896.29,0.013h-24.85V24.679h24.85V0.013Z" transform="translate(-1728)"/>
  <path id="Прямоугольник_9_копия_2" data-name="Прямоугольник 9 копия 2" class="cls-3" d="M1872.57,0.013h-24.85V24.679h24.85V0.013Z" transform="translate(-1728)"/>
  <path id="Прямоугольник_9_копия_3" data-name="Прямоугольник 9 копия 3" class="cls-4" d="M1848.85,0.013h-24.84V24.679h24.84V0.013Z" transform="translate(-1728)"/>
  <path id="Прямоугольник_9_копия_4" data-name="Прямоугольник 9 копия 4" class="cls-5" d="M1825.14,0.013h-24.85V24.679h24.85V0.013Z" transform="translate(-1728)"/>
  <path id="Прямоугольник_9_копия_10" data-name="Прямоугольник 9 копия 10" class="cls-6" d="M1896.29,23.558h-24.85V48.224h24.85V23.558Z" transform="translate(-1728)"/>
  <path id="Прямоугольник_9_копия_11" data-name="Прямоугольник 9 копия 11" class="cls-7" d="M1824.01,48.224h-24.85V72.891h24.85V48.224Z" transform="translate(-1728)"/>
  <path id="Прямоугольник_9_копия_14" data-name="Прямоугольник 9 копия 14" class="cls-6" d="M1920.01,48.224h-24.85V72.891h24.85V48.224Z" transform="translate(-1728)"/>
  <path id="Прямоугольник_9_копия_12" data-name="Прямоугольник 9 копия 12" class="cls-7" d="M1752.85,24.679h-24.84V49.346h24.84V24.679Z" transform="translate(-1728)"/>
  <path id="Прямоугольник_9_копия_13" data-name="Прямоугольник 9 копия 13" class="cls-6" d="M1777.7,49.346h-24.85V74.013h24.85V49.346Z" transform="translate(-1728)"/>
  <path id="Прямоугольник_9_копия_10-2" data-name="Прямоугольник 9 копия 10" class="cls-4" d="M1872.57,23.558h-24.85V48.224h24.85V23.558Z" transform="translate(-1728)"/>
  <path id="Прямоугольник_9_копия_10-3" data-name="Прямоугольник 9 копия 10" class="cls-5" d="M1848.85,23.558h-24.84V48.224h24.84V23.558Z" transform="translate(-1728)"/>
  <path id="Прямоугольник_9_копия_5" data-name="Прямоугольник 9 копия 5" class="cls-8" d="M1801.42,0.013h-24.85V24.679h24.85V0.013Z" transform="translate(-1728)"/>
  <path id="Прямоугольник_9_копия_6" data-name="Прямоугольник 9 копия 6" class="cls-9" d="M1777.7,0.013h-24.85V24.679h24.85V0.013Z" transform="translate(-1728)"/>
</svg>
