<svg id="Группа_5" data-name="Группа 5" xmlns="http://www.w3.org/2000/svg" width="295.25" height="624.78" viewBox="0 0 295.25 624.78">
  <defs>
    <style>
      .cls-1 {
        fill: #fc997a;
      }

      .cls-1, .cls-2, .cls-3, .cls-4, .cls-5, .cls-6, .cls-7, .cls-8 {
        fill-rule: evenodd;
      }

      .cls-2 {
        fill: #bbb;
      }

      .cls-3 {
        fill: #e85222;
      }

      .cls-4 {
        fill: #f35f30;
      }

      .cls-5 {
        fill: #fa7145;
      }

      .cls-6 {
        fill: #fd8660;
      }

      .cls-7 {
        fill: #434242;
      }

      .cls-8 {
        fill: #fbad94;
      }
    </style>
  </defs>
  <path id="Прямоугольник_9_копия_19" data-name="Прямоугольник 9 копия 19" class="cls-1" d="M1651.33,5726.28v24.86h24.66v-24.86h-24.66Z" transform="translate(-1462 -5726.28)"/>
  <path id="Прямоугольник_9_копия_19-2" data-name="Прямоугольник 9 копия 19" class="cls-2" d="M1626.89,5751.14v24.85h24.66v-24.85h-24.66Z" transform="translate(-1462 -5726.28)"/>
  <g id="Графика_копия_10" data-name="Графика копия 10">
    <path id="Прямоугольник_9" data-name="Прямоугольник 9" class="cls-3" d="M1651.4,5775.99v24.86h24.66v-24.86H1651.4Z" transform="translate(-1462 -5726.28)"/>
    <path id="Прямоугольник_9_копия" data-name="Прямоугольник 9 копия" class="cls-4" d="M1627.41,5799.72v24.85h24.65v-24.85h-24.65Z" transform="translate(-1462 -5726.28)"/>
    <path id="Прямоугольник_9_копия_2" data-name="Прямоугольник 9 копия 2" class="cls-5" d="M1651.4,5823.44v24.86h24.66v-24.86H1651.4Z" transform="translate(-1462 -5726.28)"/>
    <path id="Прямоугольник_9_копия_3" data-name="Прямоугольник 9 копия 3" class="cls-6" d="M1698.4,5878.17v24.85h24.66v-24.85H1698.4Z" transform="translate(-1462 -5726.28)"/>
    <path id="Прямоугольник_9_копия_4" data-name="Прямоугольник 9 копия 4" class="cls-1" d="M1601.4,6253.89v24.86h24.66v-24.86H1601.4Z" transform="translate(-1462 -5726.28)"/>
    <path id="Прямоугольник_9_копия_10" data-name="Прямоугольник 9 копия 10" class="cls-2" d="M1624.93,6182.72v24.85h24.66v-24.85h-24.66Z" transform="translate(-1462 -5726.28)"/>
    <path id="Прямоугольник_9_копия_11" data-name="Прямоугольник 9 копия 11" class="cls-7" d="M1649.59,6255.02v24.86h24.66v-24.86h-24.66Z" transform="translate(-1462 -5726.28)"/>
    <path id="Прямоугольник_9_копия_14" data-name="Прямоугольник 9 копия 14" class="cls-2" d="M1649.59,6158.99v24.86h24.66v-24.86h-24.66Z" transform="translate(-1462 -5726.28)"/>
    <path id="Прямоугольник_9_копия_23" data-name="Прямоугольник 9 копия 23" class="cls-1" d="M1684.4,6071.89v24.86h24.66v-24.86H1684.4Z" transform="translate(-1462 -5726.28)"/>
    <path id="Прямоугольник_9_копия_23-2" data-name="Прямоугольник 9 копия 23" class="cls-2" d="M1707.93,6000.72v24.85h24.66v-24.85h-24.66Z" transform="translate(-1462 -5726.28)"/>
    <path id="Прямоугольник_9_копия_23-3" data-name="Прямоугольник 9 копия 23" class="cls-7" d="M1732.59,6073.02v24.86h24.66v-24.86h-24.66Z" transform="translate(-1462 -5726.28)"/>
    <path id="Прямоугольник_9_копия_23-4" data-name="Прямоугольник 9 копия 23" class="cls-2" d="M1732.59,5976.99v24.86h24.66v-24.86h-24.66Z" transform="translate(-1462 -5726.28)"/>
    <path id="Прямоугольник_9_копия_12" data-name="Прямоугольник 9 копия 12" class="cls-7" d="M1626.06,6326.2v24.85h24.65V6326.2h-24.65Z" transform="translate(-1462 -5726.28)"/>
    <path id="Прямоугольник_9_копия_13" data-name="Прямоугольник 9 копия 13" class="cls-2" d="M1650.71,6301.34v24.86h24.66v-24.86h-24.66Z" transform="translate(-1462 -5726.28)"/>
    <path id="Прямоугольник_9_копия_10-2" data-name="Прямоугольник 9 копия 10" class="cls-6" d="M1673.92,6230.45v24.85h24.65v-24.85h-24.65Z" transform="translate(-1462 -5726.28)"/>
    <path id="Прямоугольник_9_копия_16" data-name="Прямоугольник 9 копия 16" class="cls-6" d="M1462,6180.43v24.86h24.65v-24.86H1462Z" transform="translate(-1462 -5726.28)"/>
    <path id="Прямоугольник_9_копия_10-3" data-name="Прямоугольник 9 копия 10" class="cls-1" d="M1624.93,6230.17v24.85h24.66v-24.85h-24.66Z" transform="translate(-1462 -5726.28)"/>
    <path id="Прямоугольник_9_копия_6" data-name="Прямоугольник 9 копия 6" class="cls-8" d="M1601.4,6301.34v24.86h24.66v-24.86H1601.4Z" transform="translate(-1462 -5726.28)"/>
  </g>
</svg>
