<svg id="Графика_копия_4" data-name="Графика копия 4" xmlns="http://www.w3.org/2000/svg" width="120.844" height="223.22" viewBox="0 0 120.844 223.22">
  <defs>
    <style>
      .cls-1 {
        fill: #e85222;
      }

      .cls-1, .cls-2, .cls-3, .cls-4, .cls-5, .cls-6, .cls-7, .cls-8 {
        fill-rule: evenodd;
      }

      .cls-2 {
        fill: #f35f30;
      }

      .cls-3 {
        fill: #fa7145;
      }

      .cls-4 {
        fill: #fd8660;
      }

      .cls-5 {
        fill: #fc997a;
      }

      .cls-6 {
        fill: #434242;
      }

      .cls-7 {
        fill: #bbb;
      }

      .cls-8 {
        fill: #fbad94;
      }
    </style>
  </defs>
  <path id="Прямоугольник_9" data-name="Прямоугольник 9" class="cls-1" d="M588.007,2189.01H563.16v24.67h24.847v-24.67Z" transform="translate(-540 -2067)"/>
  <path id="Прямоугольник_9_копия" data-name="Прямоугольник 9 копия" class="cls-2" d="M614.289,2115.01H589.442v24.67h24.847v-24.67Z" transform="translate(-540 -2067)"/>
  <path id="Прямоугольник_9_копия_2" data-name="Прямоугольник 9 копия 2" class="cls-3" d="M636.572,2115.01H611.725v24.67h24.847v-24.67Z" transform="translate(-540 -2067)"/>
  <path id="Прямоугольник_9_копия_3" data-name="Прямоугольник 9 копия 3" class="cls-4" d="M636.854,2067.01H612.007v24.67h24.847v-24.67Z" transform="translate(-540 -2067)"/>
  <path id="Прямоугольник_9_копия_4" data-name="Прямоугольник 9 копия 4" class="cls-5" d="M637.137,2091.01H612.289v24.67h24.848v-24.67Z" transform="translate(-540 -2067)"/>
  <path id="Прямоугольник_9_копия_11" data-name="Прямоугольник 9 копия 11" class="cls-6" d="M636.007,2139.22H611.16v24.67h24.847v-24.67Z" transform="translate(-540 -2067)"/>
  <path id="Прямоугольник_9_копия_14" data-name="Прямоугольник 9 копия 14" class="cls-7" d="M637.007,2189.22H612.16v24.67h24.847v-24.67Z" transform="translate(-540 -2067)"/>
  <path id="Прямоугольник_9_копия_12" data-name="Прямоугольник 9 копия 12" class="cls-6" d="M564.854,2115.68H540.007v24.66h24.847v-24.66Z" transform="translate(-540 -2067)"/>
  <path id="Прямоугольник_9_копия_13" data-name="Прямоугольник 9 копия 13" class="cls-7" d="M589.7,2140.34H564.854v24.67H589.7v-24.67Z" transform="translate(-540 -2067)"/>
  <path id="Прямоугольник_9_копия_10" data-name="Прямоугольник 9 копия 10" class="cls-4" d="M612.572,2164.56H587.725v24.66h24.847v-24.66Z" transform="translate(-540 -2067)"/>
  <path id="Прямоугольник_9_копия_16" data-name="Прямоугольник 9 копия 16" class="cls-4" d="M586.572,2265.56H561.725v24.66h24.847v-24.66Z" transform="translate(-540 -2067)"/>
  <path id="Прямоугольник_9_копия_17" data-name="Прямоугольник 9 копия 17" class="cls-7" d="M611.572,2240.56H586.725v24.66h24.847v-24.66Z" transform="translate(-540 -2067)"/>
  <path id="Прямоугольник_9_копия_10-2" data-name="Прямоугольник 9 копия 10" class="cls-5" d="M660.854,2114.56H636.007v24.66h24.847v-24.66Z" transform="translate(-540 -2067)"/>
  <path id="Прямоугольник_9_копия_6" data-name="Прямоугольник 9 копия 6" class="cls-8" d="M589.7,2091.01H564.854v24.67H589.7v-24.67Z" transform="translate(-540 -2067)"/>
</svg>
