<svg id="Графика_копия_5" data-name="Графика копия 5" xmlns="http://www.w3.org/2000/svg" width="1483" height="324.31" viewBox="0 0 1483 324.31">
  <defs>
    <style>
      .cls-1 {
        fill: #e85222;
      }

      .cls-1, .cls-2, .cls-3, .cls-4, .cls-5, .cls-6, .cls-7, .cls-8, .cls-9 {
        fill-rule: evenodd;
      }

      .cls-2 {
        fill: #fa7145;
      }

      .cls-3 {
        fill: #fd8660;
      }

      .cls-4 {
        fill: #fc997a;
      }

      .cls-5 {
        fill: #bbb;
      }

      .cls-6 {
        fill: #434242;
      }

      .cls-7 {
        fill: #f5f5f5;
      }

      .cls-8 {
        fill: #f35f30;
      }

      .cls-9 {
        fill: #fbad94;
      }
    </style>
  </defs>
  <path id="Прямоугольник_9" data-name="Прямоугольник 9" class="cls-1" d="M292.333,2976.44v-24.91h-24.7v24.91h24.7Z" transform="translate(-195 -2832.69)"/>
  <path id="Прямоугольник_9_копия_2" data-name="Прямоугольник 9 копия 2" class="cls-2" d="M292.333,2928.89v-24.9h-24.7v24.9h24.7Z" transform="translate(-195 -2832.69)"/>
  <path id="Прямоугольник_9_копия_3" data-name="Прямоугольник 9 копия 3" class="cls-3" d="M268.333,2928.12v-24.9h-24.7v24.9h24.7Z" transform="translate(-195 -2832.69)"/>
  <path id="Прямоугольник_9_копия_4" data-name="Прямоугольник 9 копия 4" class="cls-4" d="M292.333,2881.35v-24.9h-24.7v24.9h24.7Z" transform="translate(-195 -2832.69)"/>
  <path id="Прямоугольник_9_копия_10" data-name="Прямоугольник 9 копия 10" class="cls-5" d="M268.757,2952.66v-24.9h-24.7v24.9h24.7Z" transform="translate(-195 -2832.69)"/>
  <path id="Прямоугольник_9_копия_11" data-name="Прямоугольник 9 копия 11" class="cls-6" d="M244.057,2880.22v-24.9h-24.7v24.9h24.7Z" transform="translate(-195 -2832.69)"/>
  <path id="Прямоугольник_9_копия_14" data-name="Прямоугольник 9 копия 14" class="cls-5" d="M244.057,2976.44v-24.91h-24.7v24.91h24.7Z" transform="translate(-195 -2832.69)"/>
  <path id="Прямоугольник_9_копия_10-2" data-name="Прямоугольник 9 копия 10" class="cls-3" d="M219.692,2904.84v-24.9h-24.7v24.9h24.7Z" transform="translate(-195 -2832.69)"/>
  <path id="Прямоугольник_9_копия_16" data-name="Прямоугольник 9 копия 16" class="cls-3" d="M1651.97,2862.95v-24.9h-24.7v24.9h24.7Z" transform="translate(-195 -2832.69)"/>
  <path id="Прямоугольник_9_копия_17" data-name="Прямоугольник 9 копия 17" class="cls-5" d="M1677,2888.01V2863.1h-24.7v24.91H1677Z" transform="translate(-195 -2832.69)"/>
  <path id="Прямоугольник_9_копия_10-3" data-name="Прямоугольник 9 копия 10" class="cls-4" d="M268.757,2905.12v-24.9h-24.7v24.9h24.7Z" transform="translate(-195 -2832.69)"/>
  <path id="Прямоугольник_9_копия_5" data-name="Прямоугольник 9 копия 5" class="cls-7" d="M292.333,2857.58v-24.9h-24.7v24.9h24.7Z" transform="translate(-195 -2832.69)"/>
  <path id="Прямоугольник_9_копия" data-name="Прямоугольник 9 копия" class="cls-8" d="M1628.15,3132.05h24.99v-24.67h-24.99v24.67Z" transform="translate(-195 -2832.69)"/>
  <path id="Прямоугольник_9_копия_12" data-name="Прямоугольник 9 копия 12" class="cls-6" d="M1653,3132.32h24.99v-24.67H1653v24.67Z" transform="translate(-195 -2832.69)"/>
  <path id="Прямоугольник_9_копия_13" data-name="Прямоугольник 9 копия 13" class="cls-5" d="M1628,3107.65h25v-24.67h-25v24.67Z" transform="translate(-195 -2832.69)"/>
  <path id="Прямоугольник_9_копия_6" data-name="Прямоугольник 9 копия 6" class="cls-9" d="M1628,3156.99h25v-24.67h-25v24.67Z" transform="translate(-195 -2832.69)"/>
</svg>
