<svg id="Графика_копия_3" data-name="Графика копия 3" xmlns="http://www.w3.org/2000/svg" width="195.56" height="261.66" viewBox="0 0 195.56 261.66">
  <defs>
    <style>
      .cls-1 {
        fill: #e85222;
      }

      .cls-1, .cls-2, .cls-3, .cls-4, .cls-5, .cls-6, .cls-7, .cls-8, .cls-9 {
        fill-rule: evenodd;
      }

      .cls-2 {
        fill: #f35f30;
      }

      .cls-3 {
        fill: #fa7145;
      }

      .cls-4 {
        fill: #fd8660;
      }

      .cls-5 {
        fill: #fc997a;
      }

      .cls-6 {
        fill: #bbb;
      }

      .cls-7 {
        fill: #434242;
      }

      .cls-8 {
        fill: #f5f5f5;
      }

      .cls-9 {
        fill: #fbad94;
      }
    </style>
  </defs>
  <path id="Прямоугольник_9" data-name="Прямоугольник 9" class="cls-1" d="M1674.01,2004.01h-24.85v24.67h24.85v-24.67Z" transform="translate(-1482 -1839.56)"/>
  <path id="Прямоугольник_9_копия" data-name="Прямоугольник 9 копия" class="cls-2" d="M1650.29,1980.01h-24.85v24.67h24.85v-24.67Z" transform="translate(-1482 -1839.56)"/>
  <path id="Прямоугольник_9_копия_2" data-name="Прямоугольник 9 копия 2" class="cls-3" d="M1626.57,2004.01h-24.85v24.67h24.85v-24.67Z" transform="translate(-1482 -1839.56)"/>
  <path id="Прямоугольник_9_копия_3" data-name="Прямоугольник 9 копия 3" class="cls-4" d="M1602.85,2004.01h-24.84v24.67h24.84v-24.67Z" transform="translate(-1482 -1839.56)"/>
  <path id="Прямоугольник_9_копия_4" data-name="Прямоугольник 9 копия 4" class="cls-5" d="M1579.14,2004.01h-24.85v24.67h24.85v-24.67Z" transform="translate(-1482 -1839.56)"/>
  <path id="Прямоугольник_9_копия_10" data-name="Прямоугольник 9 копия 10" class="cls-6" d="M1650.29,2027.56h-24.85v24.66h24.85v-24.66Z" transform="translate(-1482 -1839.56)"/>
  <path id="Прямоугольник_9_копия_11" data-name="Прямоугольник 9 копия 11" class="cls-7" d="M1578.01,2052.22h-24.85v24.67h24.85v-24.67Z" transform="translate(-1482 -1839.56)"/>
  <path id="Прямоугольник_9_копия_14" data-name="Прямоугольник 9 копия 14" class="cls-6" d="M1674.01,2052.22h-24.85v24.67h24.85v-24.67Z" transform="translate(-1482 -1839.56)"/>
  <path id="Прямоугольник_9_копия_12" data-name="Прямоугольник 9 копия 12" class="cls-7" d="M1506.85,2028.68h-24.84v24.67h24.84v-24.67Z" transform="translate(-1482 -1839.56)"/>
  <path id="Прямоугольник_9_копия_13" data-name="Прямоугольник 9 копия 13" class="cls-6" d="M1531.7,2053.35h-24.85v24.66h24.85v-24.66Z" transform="translate(-1482 -1839.56)"/>
  <path id="Прямоугольник_9_копия_10-2" data-name="Прямоугольник 9 копия 10" class="cls-4" d="M1602.57,2076.56h-24.85v24.66h24.85v-24.66Z" transform="translate(-1482 -1839.56)"/>
  <path id="Прямоугольник_9_копия_16" data-name="Прямоугольник 9 копия 16" class="cls-4" d="M1652.57,1864.56h-24.85v24.66h24.85v-24.66Z" transform="translate(-1482 -1839.56)"/>
  <path id="Прямоугольник_9_копия_17" data-name="Прямоугольник 9 копия 17" class="cls-6" d="M1677.57,1839.56h-24.85v24.66h24.85v-24.66Z" transform="translate(-1482 -1839.56)"/>
  <path id="Прямоугольник_9_копия_10-3" data-name="Прямоугольник 9 копия 10" class="cls-5" d="M1602.85,2027.56h-24.84v24.66h24.84v-24.66Z" transform="translate(-1482 -1839.56)"/>
  <path id="Прямоугольник_9_копия_5" data-name="Прямоугольник 9 копия 5" class="cls-8" d="M1555.42,2004.01h-24.85v24.67h24.85v-24.67Z" transform="translate(-1482 -1839.56)"/>
  <path id="Прямоугольник_9_копия_6" data-name="Прямоугольник 9 копия 6" class="cls-9" d="M1531.7,2004.01h-24.85v24.67h24.85v-24.67Z" transform="translate(-1482 -1839.56)"/>
</svg>
