<svg id="Графика_копия" data-name="Графика копия" xmlns="http://www.w3.org/2000/svg" width="192.281" height="98.69" viewBox="0 0 192.281 98.69">
  <defs>
    <style>
      .cls-1 {
        fill: #f35f30;
      }

      .cls-1, .cls-2, .cls-3, .cls-4, .cls-5, .cls-6, .cls-7, .cls-8, .cls-9 {
        fill-rule: evenodd;
      }

      .cls-2 {
        fill: #e85222;
      }

      .cls-3 {
        fill: #fa7145;
      }

      .cls-4 {
        fill: #fd8660;
      }

      .cls-5 {
        fill: #fc997a;
      }

      .cls-6 {
        fill: #bbb;
      }

      .cls-7 {
        fill: #434242;
      }

      .cls-8 {
        fill: #f5f5f5;
      }

      .cls-9 {
        fill: #fbad94;
      }
    </style>
  </defs>
  <path id="Прямоугольник_9_копия_15" data-name="Прямоугольник 9 копия 15" class="cls-1" d="M270.71,1328.01h24.848v24.67H270.71v-24.67Z" transform="translate(-270.719 -1254)"/>
  <path id="Прямоугольник_9" data-name="Прямоугольник 9" class="cls-2" d="M463.007,1254.01H438.16v24.67h24.847v-24.67Z" transform="translate(-270.719 -1254)"/>
  <path id="Прямоугольник_9_копия" data-name="Прямоугольник 9 копия" class="cls-1" d="M439.289,1254.01H414.442v24.67h24.847v-24.67Z" transform="translate(-270.719 -1254)"/>
  <path id="Прямоугольник_9_копия_2" data-name="Прямоугольник 9 копия 2" class="cls-3" d="M415.572,1254.01H390.725v24.67h24.847v-24.67Z" transform="translate(-270.719 -1254)"/>
  <path id="Прямоугольник_9_копия_3" data-name="Прямоугольник 9 копия 3" class="cls-4" d="M391.854,1254.01H367.007v24.67h24.847v-24.67Z" transform="translate(-270.719 -1254)"/>
  <path id="Прямоугольник_9_копия_4" data-name="Прямоугольник 9 копия 4" class="cls-5" d="M368.137,1254.01H343.289v24.67h24.848v-24.67Z" transform="translate(-270.719 -1254)"/>
  <path id="Прямоугольник_9_копия_10" data-name="Прямоугольник 9 копия 10" class="cls-6" d="M439.289,1277.56H414.442v24.66h24.847v-24.66Z" transform="translate(-270.719 -1254)"/>
  <path id="Прямоугольник_9_копия_11" data-name="Прямоугольник 9 копия 11" class="cls-7" d="M367.007,1302.22H342.16v24.67h24.847v-24.67Z" transform="translate(-270.719 -1254)"/>
  <path id="Прямоугольник_9_копия_14" data-name="Прямоугольник 9 копия 14" class="cls-6" d="M463.007,1302.22H438.16v24.67h24.847v-24.67Z" transform="translate(-270.719 -1254)"/>
  <path id="Прямоугольник_9_копия_12" data-name="Прямоугольник 9 копия 12" class="cls-7" d="M295.854,1278.68H271.007v24.66h24.847v-24.66Z" transform="translate(-270.719 -1254)"/>
  <path id="Прямоугольник_9_копия_13" data-name="Прямоугольник 9 копия 13" class="cls-6" d="M320.7,1303.34H295.854v24.67H320.7v-24.67Z" transform="translate(-270.719 -1254)"/>
  <path id="Прямоугольник_9_копия_10-2" data-name="Прямоугольник 9 копия 10" class="cls-4" d="M415.572,1277.56H390.725v24.66h24.847v-24.66Z" transform="translate(-270.719 -1254)"/>
  <path id="Прямоугольник_9_копия_10-3" data-name="Прямоугольник 9 копия 10" class="cls-5" d="M391.854,1277.56H367.007v24.66h24.847v-24.66Z" transform="translate(-270.719 -1254)"/>
  <path id="Прямоугольник_9_копия_5" data-name="Прямоугольник 9 копия 5" class="cls-8" d="M344.419,1254.01H319.572v24.67h24.847v-24.67Z" transform="translate(-270.719 -1254)"/>
  <path id="Прямоугольник_9_копия_6" data-name="Прямоугольник 9 копия 6" class="cls-9" d="M320.7,1254.01H295.854v24.67H320.7v-24.67Z" transform="translate(-270.719 -1254)"/>
</svg>
