<?xml version="1.0" encoding="utf-8"?>
<!-- Generator: Adobe Illustrator 22.1.0, SVG Export Plug-In . SVG Version: 6.00 Build 0)  -->
<svg version="1.1" id="Слой_1" xmlns="http://www.w3.org/2000/svg" xmlns:xlink="http://www.w3.org/1999/xlink" x="0px" y="0px"
	 viewBox="0 0 384 384" style="enable-background:new 0 0 384 384;" xml:space="preserve">
<g>
	<path d="M384,280.5c-0.3,0.8-0.6,1.6-0.8,2.4c-3.2,12.4-13.8,21.1-26.7,21.4c-10.6,0.2-21.2,0.1-31.9,0c-4,0-6.5-2.5-6.4-5.8
		c0.1-3.2,2.5-5.4,6.4-5.4c9.9-0.1,19.7,0,29.6,0c11.5,0,18.5-6.9,18.5-18.4c0-74,0-148,0-222c0-11-7-18.2-18-18.2
		c-18.1,0-36.2,0-54.4,0c-1,0-2,0-3.2,0c0,3.8,0,7.3,0,11.2c1.5,0,2.8,0,4.1,0c16.5,0,33,0,49.5,0c7.5,0,10.7,3.2,10.7,10.8
		c0,71.5,0,143,0,214.5c0,7.7-3.1,10.8-11,10.8c-105.6,0-211.2,0-316.9,0c-8.1,0-11.1-3-11.1-11c0-71.4,0-142.7,0-214.1
		c0-7.8,3.1-10.9,10.9-10.9c16.4,0,32.7,0,49.1,0c1.4,0,2.7,0,4.3,0c0-3.8,0-7.3,0-11.2c-1.4,0-2.6,0-3.8,0c-17.7,0-35.5,0-53.2,0
		c-11.5,0-18.5,6.9-18.5,18.4c0,73.9,0,147.7,0,221.6c0,11.7,7,18.5,18.8,18.5c87.9,0,175.7,0,263.6,0c1.5,0,3-0.1,4.5,0.1
		c3,0.4,4.7,2.1,4.9,5.2c0.2,3.1-1.5,5-4.3,5.7c-1.2,0.3-2.5,0.2-3.7,0.2c-19.9,0-39.7,0-59.6,0c-1.4,0-2.7,0-4.3,0
		c0,9.1,0,17.9,0,27.2c1.2,0.2,2.5,0.4,3.8,0.5c16,1.6,28.6,15.1,29.1,31.1c0.1,3.6,0.1,7.3,0.1,10.9c-0.1,6.3-3.8,9.8-10.2,9.9
		c-5.1,0.1-10.2,0-15.4,0c-35.6,0-71.2,0-106.9,0c-8.6,0-11.8-3.1-11.8-11.7c0-4.4-0.2-8.8,0.5-13.1c2.5-14.9,14.3-25.6,29.3-27.2
		c1-0.1,2-0.3,3.2-0.4c0-9,0-17.9,0-27.2c-1.6,0-3.1,0-4.5,0c-39.2,0-78.5,0-117.7,0C11.7,304.4,0,292.7,0,273.8
		C0,200.5,0,127.3,0,54c0-19,11.7-30.7,30.6-30.7c17.5,0,35,0,52.5,0c1.4,0,2.7,0,3.4,0c2.5-4.7,4.4-9.2,7.2-13
		C97.8,4.5,104.2,1.8,111,0c54,0,108,0,162,0c5.9,1.7,11.9,3.6,15.8,8.6c3.3,4.3,5.8,9.3,8.7,14c-0.2,0.2-0.5,0.5-0.7,0.7
		c1.4,0,2.7,0,4.1,0c18.1,0,36.2-0.1,54.3,0c14.1,0.1,24.8,8.6,28.2,22.2c0.1,0.6,0.5,1.1,0.7,1.7C384,125,384,202.8,384,280.5z
		 M285.7,270.5c0-1.7,0-3.2,0-4.6c0-38,0-76,0-114c0-40.7,0-81.5,0-122.2c0-11-6.9-18.3-17.4-18.4c-50.9,0-101.7,0-152.6,0
		c-10,0-17.2,7.2-17.3,17.3c-0.1,5,0,10,0,15c0,11.1,0,22.2,0,33.4c0,3.9-2.1,6.2-5.4,6.3c-3.4,0.1-5.7-2.3-5.8-6.3c-0.1-2,0-4,0-6
		c0-4.6,0-9.1,0-13.7c-18.1,0-35.5,0-53.1,0c0,71.1,0,142,0,213.1c17.7,0,35.3,0,53.1,0c0-1.7,0-3.2,0-4.7c0-52.9,0-105.7,0-158.6
		c0-6,1.9-8.8,5.7-8.8c3.8,0.1,5.5,2.8,5.5,8.6c0,53,0,106,0,159c0,1.5,0,2.9,0,4.6C160.9,270.5,222.9,270.5,285.7,270.5z
		 M297.2,57.3c0,71.2,0,142.2,0,213.1c17.8,0,35.2,0,52.7,0c0-71.2,0-142.2,0-213.1C332.2,57.3,314.8,57.3,297.2,57.3z M252.9,372.6
		c0-2.2,0-4,0-5.9c0-15-8.7-23.7-23.8-23.7c-25,0-50,0.2-74.9-0.1c-14.4-0.1-26.3,11.2-22.5,29.6
		C171.9,372.6,212.1,372.6,252.9,372.6z M219.4,304.6c-18.3,0-36.5,0-54.8,0c0,9,0,17.8,0,26.9c18.3,0,36.5,0,54.8,0
		C219.4,322.5,219.4,313.7,219.4,304.6z"/>
	<path d="M264,105.8c0,39.6-32.4,71.9-72.1,71.9c-39.6,0-71.9-32.4-71.9-72.1c0-39.7,32.4-71.9,72.1-71.9
		C231.7,33.8,264,66.2,264,105.8z M131.3,105.7c0,33.5,27.2,60.8,60.7,60.8c33.4,0,60.6-27.2,60.7-60.5c0.1-33.6-27.1-61-60.6-61
		C158.6,44.9,131.3,72.1,131.3,105.7z"/>
	<path d="M192.2,203.3c20.6,0,41.2,0,61.8,0c1.1,0,2.3-0.1,3.4,0.1c3.1,0.5,5,2.5,4.9,5.6c0,2.9-1.8,4.9-4.8,5.4
		c-1.1,0.2-2.2,0.1-3.4,0.1c-41.5,0-83,0-124.4,0c-0.9,0-1.8,0-2.6,0c-3.2-0.3-5.5-2.6-5.5-5.5c0-2.9,2.2-5.3,5.4-5.7c1-0.1,2,0,3,0
		C150.7,203.2,171.5,203.3,192.2,203.3z"/>
	<path d="M191.8,248.3c-20.6,0-41.2,0-61.8,0c-1.1,0-2.3,0.1-3.4-0.1c-3.1-0.5-5-2.5-4.9-5.6c0-3.1,2-5,5.1-5.5c1-0.1,2-0.1,3-0.1
		c41.5,0,83,0,124.4,0c1,0,2-0.1,3,0.1c3.2,0.4,4.9,2.3,5.2,5.5c0.2,2.9-2.2,5.4-5.3,5.7c-1.1,0.1-2.2,0-3.4,0
		C233.1,248.3,212.4,248.3,191.8,248.3z"/>
	<path d="M180.4,101.9c8.8-8.8,17.1-17.1,25.4-25.4c4-4.1,8.8-6.1,14.5-5.5c6.5,0.7,11.2,4.2,13.6,10.2c2.5,6.1,2,12.4-2.6,17.2
		c-12.3,12.8-24.8,25.4-37.6,37.6c-7.4,7-19,6.4-26.7-0.5c-4.8-4.4-9.4-9-13.8-13.8c-6.3-6.8-6-16.9,0.5-23.3
		c6.5-6.4,16.8-6.5,23.7-0.1C178.3,99.2,179.1,100.4,180.4,101.9z M165.4,103.8c-1.9,1.6-4.2,2.7-4.7,4.3c-0.5,1.8-0.1,4.7,1,6.1
		c3.6,4.3,7.8,8.1,11.8,12c4.6,4.4,9.7,4.4,14.2,0c3.9-3.7,7.6-7.6,11.4-11.4c7.5-7.5,15.1-15,22.5-22.6c3.2-3.2,3-7.4-0.3-9.3
		c-3.1-1.8-5.7-0.7-8,1.7c-7.6,7.6-15.4,15-22.7,22.9c-7.9,8.3-11.7,9.2-19.8,0.2C169.6,106.3,167.6,105.4,165.4,103.8z"/>
</g>
</svg>
