<?xml version="1.0" encoding="utf-8"?>
<!-- Generator: Adobe Illustrator 22.1.0, SVG Export Plug-In . SVG Version: 6.00 Build 0)  -->
<svg version="1.1" id="Слой_1" xmlns="http://www.w3.org/2000/svg" xmlns:xlink="http://www.w3.org/1999/xlink" x="0px" y="0px"
	 viewBox="0 0 512 512" style="enable-background:new 0 0 512 512;" xml:space="preserve">
<g>
	<path d="M240,0c10.7,0,21.3,0,32,0c8.7,1.1,17.5,2,26.1,3.5c48.1,8.2,90.6,28.3,127.1,60.7c44.5,39.6,72.4,88.9,82.9,147.7
		c1.7,9.3,2.6,18.7,3.9,28.1c0,10.7,0,21.3,0,32c-0.3,1.3-0.7,2.6-0.8,3.9c-3,39.9-14.5,77.1-35.5,111.1
		C435,453,376.5,493.7,300.1,508.1c-9.3,1.7-18.7,2.6-28.1,3.9c-10.7,0-21.3,0-32,0c-6.2-0.8-12.5-1.4-18.7-2.3
		c-50.9-7.3-96-27.7-134.4-61.9C42.4,408.3,14.6,359.2,4,300.6c-1.7-9.5-2.7-19.1-4-28.6c0-10.7,0-21.3,0-32
		c1.1-8.6,2-17.2,3.4-25.7c9.1-53.3,32.4-99.3,70.3-137.8C112,37.8,158.1,13.4,211.9,3.9C221.2,2.3,230.6,1.3,240,0z M256.7,285.4
		c1.5,2.1,2.3,3.8,3.6,5.1c14.1,14.2,28.2,28.3,42.4,42.4c5.9,5.9,11.7,11.9,17.7,17.6c6.7,6.3,14.7,7.8,23.1,4.2
		c8.1-3.4,12.3-9.9,12.8-18.7c0.4-6.9-2.6-12.5-7.5-17.3c-19.6-19.5-39.1-39.1-58.7-58.7c-1.3-1.3-2.4-2.6-3.8-4.1
		c1.4-1.5,2.5-2.7,3.6-3.8c12.5-12.5,25-25,37.5-37.5c7.5-7.5,15.2-15,22.6-22.7c9.3-9.7,8.3-24.2-1.9-32.1
		c-8.7-6.7-20.4-5.7-29,2.8c-19.7,19.6-39.4,39.3-59,59c-1.3,1.3-2.6,2.5-4.1,3.9c-1.5-1.4-2.9-2.6-4.1-3.9
		c-19.7-19.7-39.3-39.4-59-59c-7.7-7.7-17.9-9.3-26.5-4.4c-12.7,7.2-14.6,23.6-3.8,34.5c19.7,19.9,39.6,39.6,59.4,59.4
		c1.2,1.2,2.4,2.6,4.1,4.4c-1.8,1.5-3.3,2.6-4.6,3.9c-19.6,19.5-39.2,39.1-58.7,58.7c-9.4,9.4-9.7,22.5-1,31.2
		c8.7,8.7,21.7,8.3,31.2-1.1c9.5-9.4,18.9-18.8,28.3-28.3C232.7,309.5,244.1,298.1,256.7,285.4z"/>
</g>
</svg>
