<?xml version="1.0" encoding="utf-8"?>
<!-- Generator: Adobe Illustrator 22.1.0, SVG Export Plug-In . SVG Version: 6.00 Build 0)  -->
<svg version="1.1" id="Слой_1" xmlns="http://www.w3.org/2000/svg" xmlns:xlink="http://www.w3.org/1999/xlink" x="0px" y="0px"
	 viewBox="0 0 512 512" style="enable-background:new 0 0 512 512;" xml:space="preserve">
<g>
	<path d="M512,365c-0.3,0.5-0.8,1-1,1.6c-6.6,17.3-25.3,21.4-38.6,8.2c-23.9-23.7-47.6-47.6-71.4-71.4c-1.4-1.4-2.4-3.2-3.6-4.9
		c-20.8,15.5-42.7,25.7-67.4,30.7c0,2.1,0,4.1,0,6c0,36,0,72,0,108c0,1.7,0.1,3.4-0.1,5c-0.6,4.1-3,6.8-7.3,6.8
		c-4.3,0.1-6.7-2.5-7.5-6.6c-0.3-1.6-0.2-3.3-0.2-5c0-35.2,0-70.3,0-105.5c0-1.8,0-3.6,0-6c-5.9,0.4-11.3,0.7-17.5,1.1
		c0,2.3,0,4.4,0,6.5c0,41.8,0,83.7,0,125.5c0,10.6-1.7,12.2-12.1,12.2c-17.3,0-34.7,0-52,0c-8.7,0-10.9-2.1-10.9-10.9
		c0-47.7-0.1-95.3,0.2-143c0-5.8-1.8-8.7-6.8-11c-4.6-2.1-8.9-5.1-14.1-8.1c-0.1,2.4-0.3,4.2-0.3,6.1c0,51.3,0,102.7,0,154
		c0,1.8,0.1,3.7-0.1,5.5c-0.4,4.7-3,7.4-7.8,7.4c-19.7,0.1-39.3,0.1-59,0c-5.1,0-7.6-2.6-8-7.6c-0.2-1.8-0.1-3.7-0.1-5.5
		c0-70.2,0-140.3,0-210.5c0-11.8,1.5-13.3,13.2-13.3c2,0,4,0,7,0c-9.5-20.3-15.2-40.9-16.7-63.2c-2.1,0-3.9,0-5.7,0
		c-22.7,0-45.3,0-68,0c-1.8,0-3.7,0.1-5.5-0.3c-4.1-0.9-6.4-3.6-6-7.9c0.3-4.1,2.9-6.2,6.8-6.7c1.5-0.2,3-0.1,4.5-0.1
		c22.5,0,45,0,67.5,0c1.8,0,3.6,0,5.8,0c0.5-6.1,1-11.9,1.5-18.4c-2.2,0-4.1,0-6,0c-22.8,0-45.7,0-68.5,0c-2,0-4,0-6-0.4
		c-3.8-0.7-5.7-3.3-5.7-7.1c0-3.8,1.9-6.3,5.8-7c1.9-0.4,4-0.4,6-0.4c24.2,0,48.3-0.1,72.5,0.1c3.6,0,5.4-0.8,6.1-4.6
		c0.9-4.5,2.5-8.9,3.9-13.9c-2.2,0-4,0-5.7,0c-25.8,0-51.7,0-77.5,0c-1.7,0-3.4,0.1-5-0.2c-3.5-0.6-5.6-2.8-6-6.4
		c-0.4-3.8,1.2-6.6,4.9-7.7c2-0.6,4.3-0.7,6.4-0.7c28.3,0,56.7-0.1,85,0c3.3,0,5-0.9,6.5-3.9c3.7-7,7.8-13.8,11.9-21.1
		c-48.2,0-96.1,0-144.5,0c0,8.2,0,16.3,0,24.4c0,3.7-1.4,7-5,7.7c-2.4,0.4-5.2-0.8-7.8-1.7C1.3,100.3,0.7,98.9,0,98
		c0-12.7,0-25.3,0-38c2.5-4.3,6.4-5.1,11-5.1C63,55,114.9,54.9,166.9,55c3.8,0,6.4-1.1,9.1-3.8c21.7-22.3,47.5-38,77.8-45.5
		C264,3.2,274.6,1.9,285,0c7.3,0,14.7,0,22,0c0.8,0.2,1.6,0.6,2.4,0.7c27.4,2.2,52.9,10.5,75.8,25.5c10,6.5,18.9,14.6,28.1,22.3
		c3.7,3.1,3.7,7.6,1,10.7c-3,3.4-7.1,3.5-11.1,0.2c-1.9-1.6-3.7-3.4-5.6-5c-49.8-44.8-121.3-52.1-179-18.1
		c-64.1,37.7-91.2,118.4-62.9,187.3c27.2,66.1,96.4,104.4,166.7,91.8c40.8-7.3,73.5-28,97.3-61.9c23.8-33.8,31.9-71.6,25.4-112.5
		c-3.2-20.2-10.6-38.8-21.4-56c-3.3-5.3-2.6-9.8,1.5-12.2c4.1-2.3,8-0.9,11.1,4.3c32.4,54.3,35,109.9,6.8,166.6
		c-4,8.1-9.3,15.7-14.8,24.7c1.1,0.8,2.9,1.6,4.2,2.9c21.8,21.8,43.8,43.4,65.3,65.5c5.3,5.5,9.4,12.1,14.1,18.2
		C512,358.3,512,361.7,512,365z M141.9,255.1c0,69.2,0,137.9,0,206.7c14.9,0,29.5,0,44.3,0c0.1-1.2,0.3-2.2,0.3-3.2
		c0-54.5,0-109-0.1-163.4c0-1.9-1.2-4.1-2.4-5.6c-9-10.7-18-21.3-27.2-31.8c-1-1.1-2.4-2.5-3.8-2.6
		C149.4,254.9,145.8,255.1,141.9,255.1z M237.9,323.3c0,46.1,0,92.3,0,138.5c15,0,29.6,0,44.6,0c0-2.3,0-4.3,0-6.2
		c0-24.2,0-48.3,0-72.5c0-15.2-0.1-30.3,0.1-45.5c0-3.8-0.6-5.9-5-5.8c-3.3,0-6.6-0.7-9.9-1.4C257.8,328.1,248,325.7,237.9,323.3z
		 M408.7,289.2c0.1,0.4,0.2,0.6,0.3,0.7c24.9,25,49.8,50,74.8,75c3.4,3.4,7.8,3.4,10.8,0.6c3.2-3,3.2-7.2-0.2-11.1
		c-0.8-0.9-1.6-1.7-2.5-2.5c-23.1-23.1-46.2-46.2-69.3-69.3c-1.2-1.2-2.5-2.4-3.4-3.2C415.4,283,412,286.1,408.7,289.2z"/>
	<path d="M0,126c2.2-3.7,5.2-6.4,9.8-4.8c4.9,1.6,5.2,5.8,5.2,10.2c0,119.5,0,238.9,0,358.4c0,2.2,0,4.3,0,6.8c99.9,0,199.6,0,300,0
		c0-4.8,0-9.8,0-14.7c0.1-5.9,2.8-9.2,7.5-9.2c4.7,0,7.4,3.3,7.5,9.2c0.1,6.5-0.2,13,0.1,19.5c0.2,4.6-1.2,8.1-5.1,10.6
		c-108.3,0-216.5,0-325,0C0,383.3,0,254.7,0,126z"/>
	<path d="M107.5,388.6c0,25.7,0,51.3,0,77c0,9.8-1.9,11.6-11.8,11.6c-17.7,0-35.3,0-53,0c-7.8,0-10.2-2.3-10.2-10.1
		c0-52.2,0-104.3,0-156.5c0-8,2.6-10.5,10.5-10.5c18,0,36,0,54,0c7.9,0,10.5,2.5,10.5,10.5C107.5,336.6,107.5,362.6,107.5,388.6z
		 M47.7,461.7c15.1,0,29.8,0,44.3,0c0-49,0-97.6,0-146.2c-15,0-29.6,0-44.3,0C47.7,364.3,47.7,412.8,47.7,461.7z"/>
	<path d="M79.8,210.1c-8.7,0-17.3,0-26,0c-6,0-9.2-2.8-9.2-7.5c0-4.6,3.4-7.4,9.3-7.5c17.3-0.1,34.7-0.1,52,0c5.9,0,9.4,2.8,9.5,7.4
		c0.1,4.8-3.3,7.6-9.6,7.6C97.2,210.1,88.5,210.1,79.8,210.1z"/>
	<path d="M295.8,302.9c-75.3-0.2-136.3-61.3-136.3-136.5c0-75.4,61.6-136.8,136.8-136.4c75.5,0.4,136.4,61.6,135.9,136.7
		C431.8,242.3,370.9,303.1,295.8,302.9z M295.8,287.9c66.9,0.2,121.3-54.1,121.5-121.3C417.5,99.6,363.1,45.1,296.1,45
		c-67-0.1-121.3,54.1-121.6,121.3C174.2,233.1,228.8,287.8,295.8,287.9z"/>
</g>
</svg>
