<?xml version="1.0" encoding="utf-8"?>
<!-- Generator: Adobe Illustrator 22.1.0, SVG Export Plug-In . SVG Version: 6.00 Build 0)  -->
<svg version="1.1" id="Слой_1" xmlns="http://www.w3.org/2000/svg" xmlns:xlink="http://www.w3.org/1999/xlink" x="0px" y="0px"
	 viewBox="0 0 370.5 372.4" style="enable-background:new 0 0 370.5 372.4;" xml:space="preserve">
<g>
	<path d="M258.7,317.5c-4-3.8-6.1-8-5.5-13.3c0.6-5.1,3.2-9,7.7-11.3c20.3-10.5,40.5-21,60.9-31.4c5.7-2.9,11.3-2,16,2.2
		c4.7,4.1,6.2,9.4,4.3,15.3c-7.1,21.7-14.2,43.4-21.4,65.1c-2.1,6.2-7.4,9.9-13.6,10.1c-6.1,0.1-11.5-3.5-14-9.5
		c-0.7-1.6-1.2-3.2-2-5.1c-3,1.9-5.7,3.6-8.4,5.3C184.1,405.4,55,362.2,12.7,254.4C4.3,233.1,0.1,211,0,188.2
		c0-9.9,5.9-15.8,15.8-16c1.5,0,3,0,4.5,0c9.1,0.2,14.9,5.8,15.5,14.9c0.5,7.1,0.5,14.3,1.6,21.3c7.8,49.2,33.5,86.6,77.3,110.2
		c46,24.8,93.1,24.1,139.9,1.1C255.9,319.1,257.1,318.3,258.7,317.5z M9.8,191.9c0.3,4.1,0.4,8.6,0.9,13
		c4.1,36.8,18.2,69.2,42.5,97.3c49.7,57.6,133.1,76.3,202.5,45.4c11.9-5.3,23.2-11.7,33.7-19.4c4.6-3.4,7.7-2.4,9.6,3.1
		c0.9,2.6,1.8,5.2,2.6,7.8c0.9,2.7,2.2,4.9,5.4,4.8c3.1-0.1,4.1-2.4,4.9-4.9c6.7-20.4,13.4-40.8,20.2-61.1c0.8-2.4,1.7-4.8-0.6-6.9
		c-2.4-2.2-4.8-1.2-7.2,0.1c-11.4,5.9-22.8,11.8-34.3,17.7c-7.9,4.1-15.8,8.1-23.6,12.2c-2.3,1.2-4.2,3.1-3.2,5.6
		c0.7,1.7,2.9,2.8,4.6,4.1c0.5,0.4,1.4,0.4,2.2,0.5c2.6,0.3,5.1,1.5,4.9,4.2c-0.1,2-1.5,4.6-3.2,5.7c-45,27.8-93.1,34.6-142.3,15
		c-64.7-25.7-99-74.9-103.5-144.5c-0.6-9.1-0.7-9.5-9.8-9.3c-0.4,0-0.8,0-1.1,0c-3.4,0.1-5,1.9-5.1,5.2
		C9.8,188.8,9.8,190.2,9.8,191.9z"/>
	<path d="M79.4,33.2c13.1-8.9,26.6-15.9,40.9-21.3C197.6-17.7,287.2,9.5,335.4,77c22.9,32.1,34.7,67.7,35.1,107.1
		c0.1,9.9-5.9,15.9-15.7,16.1c-1.4,0-2.7,0-4.1,0c-9.6-0.1-15.2-5.7-15.9-15.3c-0.5-7.2-0.5-14.5-1.7-21.6
		c-8.8-52.1-36.9-90.5-84.4-113.2c-43.9-20.9-88.2-19.1-131.8,2.2c-1.3,0.7-2.7,1.4-4,2.1c-0.2,0.1-0.3,0.4-0.6,0.8
		c3.4,3.4,5.6,7.5,5.1,12.6c-0.5,5.4-3.2,9.4-8,11.9C89.2,90.2,69.1,100.6,48.9,111c-5.7,2.9-11.3,2.1-16-2.1
		c-4.6-4-6.4-9.3-4.4-15.2c7-21.7,14.2-43.4,21.4-65c2.1-6.3,7.7-10.2,13.9-10.2c6.1,0,11.3,3.7,13.8,9.8
		C78.1,29.7,78.6,31.2,79.4,33.2z M360.7,180.8c-0.3-4-0.4-8.2-0.8-12.5c-0.4-4-0.9-8-1.6-11.9c-7.4-41.6-26.5-77-59.1-104
		c-53.6-44.4-113.7-53.9-179-29.9c-13.9,5.1-26.6,12.5-38.6,21.2c-5.3,3.8-8.1,2.9-10.2-3.3c-0.8-2.4-1.6-4.7-2.4-7.1
		c-0.9-2.6-2.1-4.9-5.3-4.9c-3.3,0-4.2,2.6-5.1,5.1c-6.7,20.3-13.4,40.5-20.1,60.8c-0.9,2.6-1.5,5.1,1,7.2c2.4,2,4.7,0.8,6.9-0.4
		c19-9.8,37.9-19.6,56.9-29.4c2.5-1.3,4.6-2.7,4.2-5.9c-0.4-3.3-2.9-4-5.7-4.4c-2.8-0.4-5.6-1-6.3-4.3c-0.7-3.4,1.7-4.9,4.1-6.4
		c32.4-20,67.4-28.9,105.3-23.6c58,8,99.6,39.2,125.3,91.6c10.1,20.6,14.4,42.7,14.7,65.6c0,2.8,0.8,5.4,3.8,5.5
		c3.9,0.1,8.4,2.1,11.4-2.3c0.5-0.8,0.6-1.9,0.7-2.9C360.8,183.6,360.7,182.3,360.7,180.8z"/>
	<path d="M185.4,289.9C127.7,290,80.9,243.3,80.9,185.6c0-57.7,46.7-104.4,104.3-104.4c57.5,0,104.2,46.6,104.3,104.1
		C289.7,242.9,243,289.8,185.4,289.9z M184.9,280c52,0.2,94.6-42.1,94.8-94.1c0.2-52-42.1-94.7-94-94.9c-52-0.2-94.7,42-94.9,94
		C90.5,237.3,132.7,279.8,184.9,280z"/>
	<path d="M185.2,267.3c-45.3,0-81.8-36.8-81.7-82.2c0.1-45,36.9-81.6,82-81.5c45,0.1,81.6,36.8,81.5,82
		C267,230.8,230.3,267.3,185.2,267.3z M185.3,257.5c39.7,0,72-32.4,71.9-72c0-39.7-32.4-72-72-72c-39.7,0-71.9,32.3-71.9,72.1
		C113.3,225.2,145.6,257.5,185.3,257.5z"/>
	<path d="M190.4,232.6c-0.8,3.9,1.5,10.1-5.1,10.2c-6.9,0.1-4.4-6.4-5.3-10.4c-2.4-0.9-4.8-1.5-7-2.6c-8.9-4.2-14.4-11-15.4-21
		c-0.4-3.8,1.4-6.4,4.4-6.7c3-0.3,4.9,1.7,5.4,5.8c1,8,6.8,13.5,15.6,14.6c8.1,1.1,16.2-3.3,19-10.3c3.8-9.6-3.7-19.9-15.1-20.8
		c-3.5-0.3-7-0.5-10.3-1.5c-11.3-3.2-18.9-12.9-19.1-23.7c-0.2-10.9,7-20.7,18.3-24.2c3.5-1.1,4.7-2.5,4.5-6.1
		c-0.3-4.2,1.8-6.6,5-6.5c3.1,0.1,5.1,2.4,4.8,6.7c-0.2,3.5,0.9,4.8,4.3,5.9c9.8,3.1,16.1,9.7,18.2,20c0.2,1.2,0.4,2.5,0.3,3.7
		c-0.1,2.9-1.6,4.8-4.5,5c-3.1,0.2-5.1-1.5-5.2-4.6c-0.3-11.2-12.5-18.1-23.3-15.1c-7.5,2.1-12.8,8.5-12.6,15.3
		c0.3,6.9,5.9,13.1,13.4,14.7c2.4,0.5,5,0.6,7.4,0.8c11.4,0.8,21.6,9.2,24.1,19.9c2.5,10.6-2.3,21.3-12.3,27
		C197.1,230.2,193.9,231.2,190.4,232.6z"/>
</g>
</svg>
