<?xml version="1.0" encoding="utf-8"?>
<!-- Generator: Adobe Illustrator 22.1.0, SVG Export Plug-In . SVG Version: 6.00 Build 0)  -->
<svg version="1.1" id="Слой_1" xmlns="http://www.w3.org/2000/svg" xmlns:xlink="http://www.w3.org/1999/xlink" x="0px" y="0px"
	 viewBox="0 0 356.4 356.6" style="enable-background:new 0 0 356.4 356.6;" xml:space="preserve">
<g>
	<path d="M223.1,196.8c6.7,6.6,13.2,13.2,19.9,19.6c0.7,0.7,2.2,1.1,3.2,1c14.1-2.4,25.6,2.1,35.6,12.2
		c21.1,21.4,42.5,42.4,63.5,63.7c18.5,18.8,13.1,49.1-10.5,59.9c-14.3,6.6-30.3,3.6-42-8.1c-21.7-21.6-43.3-43.3-65-64.9
		c-5.2-5.2-9.1-11.2-10.2-18.4c-0.8-5-0.3-10.1-0.4-15.2c0-1.1-0.1-2.6-0.8-3.3c-6.5-6.7-13.2-13.3-19.7-19.9
		C138,266.1,60.5,247.7,23.2,196C-12.4,146.6-6.6,76.9,37.4,34.8c45.1-43.2,114.7-46.4,162.7-8.1C249.6,66,263.9,140,223.1,196.8z
		 M9.1,122.1c-0.5,61.3,50,112.6,111.3,113.2c63,0.5,114.3-49.3,114.8-111.6C235.7,60.6,185.9,9.9,122.9,9.2
		C60.4,8.5,9.6,59,9.1,122.1z M285.4,248.4c-12.5,12.5-24.8,24.8-37.2,37.2c0.1,0.2,0.4,0.6,0.8,0.9c17.2,17.2,34.4,34.6,51.7,51.7
		c10.8,10.6,27,10.6,37.4,0.3c10.5-10.4,10.5-26.8-0.2-37.7c-16.9-17.2-34.1-34.1-51.1-51.2C286.3,249,285.7,248.6,285.4,248.4z
		 M239.9,277.1c12.4-12.4,24.7-24.7,37.1-37.1c-7.5-9.3-16.9-15.1-29.7-12.1c-10.5,2.5-17.2,9.4-19.6,20
		C224.9,260.6,230.8,269.8,239.9,277.1z M205.6,216.6c5.5,5.5,11.1,11.1,15.5,15.5c3.6-3.5,7.5-7.2,10.8-10.5
		c-4.6-4.6-10.3-10.3-15.7-15.7C212.9,209.3,209.2,213,205.6,216.6z"/>
	<path d="M217.6,123.6c-0.1,51.8-42.5,93.9-94.5,93.8c-51.9-0.1-93.7-42.1-93.6-94.1c0.1-51.9,42.3-93.9,94.1-93.6
		C175.5,29.9,217.7,72.1,217.6,123.6z M207.1,123.4c-0.2-46.1-37.9-83.5-84.2-83.3C76.9,40.3,39.8,77.8,40,124
		c0.2,45.5,37.5,83,82.4,82.9C169.6,206.7,207.3,169.6,207.1,123.4z"/>
	<path d="M183.3,96.4c-1.3,1.3-2.4,3.4-4.1,3.9c-1.5,0.5-3.7-0.5-5.4-1.2c-0.8-0.3-1.2-1.6-1.7-2.4c-8.4-14.8-21-23.9-37.6-27.8
		c-1.9-0.4-4-1.7-5-3.2c-0.8-1.2-0.5-4.1,0.5-5c1.4-1.3,4-2.3,5.8-2c11.5,2.1,22.1,6.7,30.5,14.8c5.7,5.5,10.2,12.2,15.1,18.4
		C182.3,92.9,182.5,94.3,183.3,96.4z"/>
	<path d="M118,65c-0.9,0.8-2.3,2.8-4.2,3.6c-4.1,1.7-8.5,2.7-12.8,4c-3.3,1-6,0-7.2-2.8c-1.1-2.7,0-5.7,3.3-6.9
		c4.7-1.7,9.4-3.2,14.2-4.4C114.9,57.6,118,60.2,118,65z"/>
</g>
</svg>
