<?xml version="1.0" encoding="utf-8"?>
<!-- Generator: Adobe Illustrator 22.1.0, SVG Export Plug-In . SVG Version: 6.00 Build 0)  -->
<svg version="1.1" id="Слой_1" xmlns="http://www.w3.org/2000/svg" xmlns:xlink="http://www.w3.org/1999/xlink" x="0px" y="0px" viewBox="0 0 371.6 384" style="enable-background:new 0 0 371.6 384;" xml:space="preserve">
	<style type="text/css">
		path {
			fill: #FFFFFF;
		}
	</style>
	<g>
		<path d="M268.4,0c2.6,1.4,5.4,2.5,7.7,4.3c4.5,3.6,6.2,8.6,6.3,14.2c0,4.6,0,9.2,0,14.4c4.4,0,8.6,0,12.9,0
		c11.7,0,18.9,7.2,18.9,19c0,15.1-0.1,30.2,0.1,45.4c0,2.1,0.6,4.4,1.7,6.3c15.2,26,16.3,52.7,3.6,79.9c-1.2,2.6-1,4.1,1.1,6
		c4.6,4.3,8.9,8.8,13.3,13.2c2.9,3,3.2,6.2,0.9,8.6c-2.4,2.5-5.8,2.3-8.9-0.7c-4.6-4.5-9.1-9-13.6-13.5c-0.2-0.2-0.4-0.2,0.4,0.7
		c-5.4,5.3-10.8,10.7-16.1,16c-0.4-0.2-0.7-0.5-1.1-0.7c0.7,0.7,1.3,1.5,2,2.1c14,14,27.9,27.9,41.9,41.9c3.2,3.2,6.8,5.1,11.4,4.3
		c4.4-0.8,7.5-3.4,9-7.6c1.5-4.4,0.7-8.5-2.5-11.8c-3.5-3.7-7.2-7.3-10.8-10.9c-3.2-3.3-3.6-6.3-1.2-8.9c2.4-2.6,5.9-2.3,9.1,0.9
		c3.5,3.4,7,6.8,10.3,10.3c9.2,9.6,9.2,23.6,0.2,32.7c-9.2,9.2-23.2,9-32.9-0.5c-5.8-5.6-11.4-11.4-17.8-17.9c0,2.3,0,3.7,0,5
		c0,37.1,0,74.2,0,111.4c0,12.9-7,19.9-20,19.9c-80.7,0-161.5,0-242.2,0c-13,0-19.9-6.9-19.9-19.9c0-4.2,0-8.4,0-13.1
		c-4.8,0-9.3,0-13.7,0c-10.2-0.1-17.5-7-18.2-17.1c-0.1-1.5,0-3,0-4.5C0.1,227,0.2,124.6,0,22.3C0,11.4,3.5,3.7,14.2,0
		c23.3,0,46.5,0,69.8,0c0.1,0.2,0.2,0.5,0.4,0.6c2.7,1.7,3.7,4.2,2.6,7.1c-1.1,2.8-3.5,3.6-6.4,3.6c-19.7,0-39.5,0-59.2,0
		c-8.2,0-9.8,1.6-9.8,9.9c0,103,0,206,0,309c0,1.5-0.4,3.3,0.3,4.4c1.3,1.9,3,4.6,4.9,4.9c5,0.7,10.1,0.2,15.5,0.2c0-2,0-3.6,0-5.2
		c0-93.9,0-187.7,0-281.6c0-13.1,6.8-19.9,19.9-19.9c71.4,0,142.7,0,214.1,0c1.6,0,3.2,0,4.5,0c0.3-0.7,0.4-0.9,0.4-1.2
		c0-3.7,0.1-7.5,0.1-11.2c0-7.5-1.8-9.3-9.3-9.3c-42.6,0-85.2,0-127.9,0c-8.5,0-17,0.2-25.5-0.2c-1.9-0.1-4.5-1.7-5.6-3.4
		c-1.4-2.2-0.5-4.8,1.8-6.6c0.4-0.3,0.6-0.7,0.9-1.1C159.9,0,214.2,0,268.4,0z M302.9,86.1c0-0.5,0-1.5,0-2.4c0-10.5,0-21,0-31.5
		c0-5.8-2.2-8-7.9-8c-81.2,0-162.5,0-243.7,0c-5.8,0-8,2.1-8,7.8c0,104.2,0,208.5,0,312.7c0,5.8,2.2,8,7.9,8c81.2,0,162.5,0,243.7,0
		c5.7,0,8-2.2,8-7.9c0-41.9,0-83.7-0.1-125.6c0-1.5-0.8-3.4-1.9-4.5c-4.2-4.5-8.7-8.6-12.9-13.1c-1.8-1.9-3.2-2.3-5.7-1
		c-10.8,5.6-22.4,8.4-34.6,8.7c-51.6,1.3-91.4-44-83.6-95.2c8.2-54.6,67.8-86,117.2-61.6C288.9,76.3,295.7,81.5,302.9,86.1z
		 M245.6,75.7c-39.5,0-71.2,31.7-71.2,71.2c0,39.3,31.8,71.4,70.8,71.3c39.6,0,71.9-32.4,71.8-71.8
		C316.8,107.3,284.9,75.7,245.6,75.7z" />
		<path d="M189.6,257.3c10.1,27.9,4.9,52-15.7,73.2c2,4.4,3.9,9.1,6.2,13.7c0.5,0.9,2.4,1.4,3.7,1.4c17.5,0.1,35,0.1,52.5,0.1
		c1,0,2,0,3,0c3.9,0.2,6.1,2.2,6.1,5.6c0,3.3-2.3,5.6-6.2,5.6c-20.6,0.1-41.2,0-61.8,0c-2.9,0-4.9-1.5-6-4.2c-2.2-5-4.5-10-6.8-15.2
		c-8.4,4.9-17.2,8.2-26.8,9.4c-32.7,4.1-64.1-18.5-70.5-50.9c-5.9-29.7,8.9-58.8,36.3-71.5c27-12.4,58.9-4.6,77.4,19.2
		c1.5,1.9,3,2.5,5.3,2.5c18.4-0.1,36.7-0.1,55.1,0c1.5,0,3.1,0.1,4.4,0.7c2.6,1.1,3.6,3.4,3,6.2c-0.6,2.9-2.7,4.4-5.7,4.4
		c-7.4,0-14.7,0-22.1,0C210.7,257.3,200.3,257.3,189.6,257.3z M183.9,277.4c-2.1-6.3-4-11.9-5.8-17.5c-0.7-2.1-2.1-2.7-4.3-2.6
		c-4.5,0.2-9,0.1-13.5,0c-3.8-0.1-6.2-2.2-6.2-5.5c0-3.3,2.3-5.5,6.1-5.7c2.4-0.1,4.8,0,7.7,0c-13.9-15.4-39.9-21.6-61.8-10.4
		C84,247.1,72.6,272.4,79,296.4c5.7,21.2,27.1,39.6,45.7,38.8c0-1.3,0-2.7,0-4c0-15.1,0-30.2,0-45.3c0-6.9,1.5-8.4,8.3-8.4
		c15.2,0,30.5,0,45.7,0C180,277.4,181.3,277.4,183.9,277.4z M136.1,288.8c0,15.7,0,31,0,46.6c8.9-0.8,16.6-3.7,23.8-8.7
		c-1.8-4-3.5-7.8-5-11.6c-1.5-3.6-0.5-6.6,2.5-8c3.1-1.5,6-0.2,7.8,3.6c1.3,2.6,2.5,5.3,3.7,8.1c7.6-7.1,13.7-20.4,13.9-30
		C167.3,288.8,151.9,288.8,136.1,288.8z" />
		<path d="M106.2,122.2c-11,0-22,0-32.9,0c-4.6,0-7.3-2.2-7.3-5.7c0-3.5,2.7-5.5,7.4-5.5c22.1,0,44.2,0,66.2,0c4.6,0,7.3,2.1,7.3,5.6
		c0,3.5-2.7,5.6-7.4,5.6C128.4,122.2,117.3,122.2,106.2,122.2z" />
		<path d="M106.7,176.9c11,0,22,0,33,0c4.6,0,7.3,2.1,7.2,5.7c-0.1,3.4-2.7,5.5-7.1,5.5c-22.2,0-44.5,0-66.7,0c-4.4,0-7-2.2-7-5.6
		c-0.1-3.4,2.6-5.6,6.9-5.6C84.2,176.9,95.4,176.9,106.7,176.9z" />
		<path d="M106,90.2c-11.2,0-22.5,0-33.7,0c-3.8,0-6.3-2.3-6.3-5.5c0-3.2,2.4-5.4,6.2-5.7c0.7-0.1,1.5,0,2.2,0c3.5,0,7,0,10.5,0
		c17.7,0,35.5,0,53.2,0c1.5,0,3,0,4.5,0.3c2.8,0.6,4.3,2.6,4.2,5.4c-0.1,3-1.8,4.9-4.8,5.3c-1.1,0.2-2.2,0.1-3.4,0.1
		C127.8,90.3,116.9,90.2,106,90.2z" />
		<path d="M106.8,142.8c10.6,0,21.2,0,31.9,0c1.4,0,2.8,0,4.1,0.3c2.8,0.7,4.6,2.9,3.9,5.5c-0.5,1.9-2.4,3.8-4.2,5
		c-1,0.7-2.9,0.4-4.4,0.4c-21.1,0-42.2,0-63.3,0c-0.9,0-1.8,0-2.6,0c-3.8-0.2-6.2-2.5-6.2-5.7c0-3.2,2.5-5.5,6.3-5.5
		c6.7-0.1,13.5,0,20.2,0C97.3,142.8,102,142.8,106.8,142.8z" />
		<path d="M261.7,305c5.6,0,11.2-0.1,16.9,0c4,0,6.3,2,6.4,5.3c0.1,3.4-2.2,5.9-6.3,5.9c-11.5,0.1-23,0.1-34.5,0
		c-4,0-6.5-2.7-6.3-5.9c0.2-3.2,2.6-5.2,6.5-5.2C250.2,305,255.9,305,261.7,305z" />
		<path d="M261.4,288.6c-5.5,0-11,0-16.5,0c-4.4,0-7-2.2-7.1-5.6c-0.1-3.4,2.5-5.6,6.9-5.6c11.1,0,22.2,0,33.4,0
		c4.4,0,6.9,2.1,6.8,5.6c-0.1,3.5-2.5,5.5-7,5.6C272.4,288.7,266.9,288.6,261.4,288.6z" />
		<path d="M245.6,87.7c32.9,0,59.4,26.6,59.3,59.4c-0.2,32.7-26.7,59.1-59.3,59.1c-32.8,0-59.3-26.6-59.2-59.5
		C186.6,113.8,212.8,87.7,245.6,87.7z M245.7,98.9c-26.6,0-47.9,21.2-48,47.8c-0.1,26.5,21.3,48.1,47.7,48.2
		c26.5,0.1,48.3-21.6,48.3-48.1C293.6,120.3,272.2,99,245.7,98.9z" />
		<path d="M234.1,155.1c10-9.6,19.5-18.8,29-27.9c0.8-0.8,1.6-1.7,2.5-2.3c2.6-1.7,5.3-1.6,7.4,0.7c2,2.2,2,4.8,0.2,7.2
		c-0.6,0.8-1.4,1.5-2.1,2.2c-11.1,10.7-22.1,21.3-33.2,32c-5.1,4.9-8.5,4.3-11.6-2c-2.9-5.8-5.8-11.6-8.6-17.5
		c-1.8-3.7-1.1-6.9,1.8-8.5c3-1.6,6.3-0.3,8.2,3.4C229.9,146.5,231.8,150.5,234.1,155.1z" />
	</g>
</svg>