<?xml version="1.0" encoding="utf-8"?>
<!-- Generator: Adobe Illustrator 22.1.0, SVG Export Plug-In . SVG Version: 6.00 Build 0)  -->
<svg version="1.1" id="Слой_1" xmlns="http://www.w3.org/2000/svg" xmlns:xlink="http://www.w3.org/1999/xlink" x="0px" y="0px"
	 viewBox="0 0 320.7 320.9" style="enable-background:new 0 0 320.7 320.9;" xml:space="preserve">
<style type="text/css">
	.st0{fill:#FFFFFF;}
</style>
<g>
	<path class="st0" d="M234.3,256.3c0.8,1.2,1.4,2.3,2.3,3.2c17.7,17.7,35.3,35.4,53,53c1.5,1.5,2.9,3.1,4.6,4.4
		c9.4,8,23.6,3.2,26.2-8.8c1.3-6.1-0.9-11.2-5.3-15.6c-18.5-18.4-36.9-36.9-55.5-55.4c-1-1-2.5-1.7-3.8-2.6
		c25.3-32.8,36-68.8,30.9-108.7c-5.1-40.1-24.3-72.6-56.5-97C171.6-15.2,90.7-8.1,39.3,45.4C-10.4,97-13.3,178.6,32.5,235.1
		C80,293.8,169.6,307.8,234.3,256.3z"/>
	<path d="M234.3,256.3C169.6,307.8,80,293.8,32.5,235.1C-13.3,178.6-10.4,97,39.3,45.4C90.7-8.1,171.6-15.2,230.1,28.9
		c32.2,24.4,51.4,56.9,56.5,97c5.1,39.9-5.5,75.9-30.9,108.7c1.3,0.9,2.8,1.5,3.8,2.6c18.5,18.4,36.9,36.9,55.5,55.4
		c4.4,4.4,6.6,9.5,5.3,15.6c-2.6,12-16.8,16.8-26.2,8.8c-1.6-1.4-3.1-2.9-4.6-4.4c-17.7-17.7-35.4-35.3-53-53
		C235.7,258.6,235.1,257.5,234.3,256.3z M255.9,144.2c0.3-61.7-49.5-111.8-111.5-112.1c-62-0.3-112.2,49.4-112.5,111.4
		C31.6,205.7,81.6,256,143.8,256.2C205.5,256.4,255.6,206.3,255.9,144.2z"/>
</g>
</svg>
