<?xml version="1.0" encoding="utf-8"?>
<!-- Generator: Adobe Illustrator 22.1.0, SVG Export Plug-In . SVG Version: 6.00 Build 0)  -->
<svg version="1.1" id="Слой_1" xmlns="http://www.w3.org/2000/svg" xmlns:xlink="http://www.w3.org/1999/xlink" x="0px" y="0px"
	 viewBox="0 0 407.1 409.6" style="enable-background:new 0 0 407.1 409.6;" xml:space="preserve">
<g>
	<path fill="#fff" d="M104.3,0c5.1,1,10.2,1.7,15.2,3C167,15,197.6,59,192.1,107.4c-0.7,6-2.6,11.9-3.8,17.9c-0.2,1.2-0.1,3.1,0.6,3.8
		c13.6,12.4,27.2,24.7,41.5,37.6c1.7-1.9,3.2-3.7,4.9-5.4c10.5-10.6,21.1-21.1,31.7-31.7c0.9-0.9,1.9-1.9,2.9-2.7c2.7-2,5.5-2,8,0.2
		c2.4,2.1,2.7,5.5,0.7,8.3c-0.8,1.2-1.9,2.2-3,3.2c-17.1,17.1-34.1,34.1-51,51c4.2,4.2,8.4,8.3,12.3,12.1
		c40.8-40.8,81.8-81.9,122.9-122.9c-3.9-3.7-8.1-7.6-12.7-12c-3.2,3.3-6.8,7.2-10.6,10.9c-11.7,11.7-23.4,23.4-35.1,35.1
		c-1.1,1.1-2.3,2.3-3.7,3c-2.7,1.4-5.7,1-7.1-1.5c-1.1-1.9-1.1-4.7-0.8-7c0.2-1.3,1.9-2.5,3-3.6C308.6,88,324.3,72.3,340,56.5
		c1.9-1.9,3.5-4.3,4.9-6.7c3.9-7.1,7.6-14.4,11.4-21.5c4.8-9,13.4-10.3,20.6-3.2c8.3,8.2,16.6,16.6,24.9,24.9c7.2,7.3,6,15.8-3,20.6
		C391,74.9,383,79,375.1,83.1c-1,0.5-2,1.3-2.9,2.1c-36.2,36.2-72.4,72.4-108.6,108.6c-0.4,0.4-0.7,0.8-1.3,1.6c2,1.9,4,3.8,6,5.6
		c39.4,35.5,78.8,71.1,118.2,106.6c10.5,9.4,17.2,20.7,19.7,34.7c5.3,30.2-17.7,61-48.2,64.2c-19.5,2-36-4.1-49.2-18.6
		c-30.7-33.5-61.4-67.1-92-100.7c-1.4-1.5-2.8-3.6-2.8-5.4c0-1.9,1.3-4.6,2.9-5.5c1.6-0.9,4.3-0.6,6.3,0c1.4,0.4,2.4,2,3.5,3.2
		c30.4,33.2,60.8,66.5,91.3,99.7c20.9,22.8,55.9,19.3,70.9-7c9.5-16.7,6.9-38.5-7.3-51.9c-16.9-15.9-34.3-31.2-51.5-46.8
		c-24.5-22.2-49.1-44.3-73.6-66.4c-1-0.9-2-1.7-3-2.5c-2.4,2.5-4.7,4.9-7.2,7.5c2.1,2.2,4.5,4.6,6.7,7.2c7.6,9,7.7,21.2,0,30
		c-4.8,5.5-10.2,10.5-15.4,15.7c-2.7,2.7-5.8,1.8-8.9,0.9c-14.2-4-26.5-0.6-36.1,10.6c-7.7,9-10,19.6-6.5,31
		c1.6,5.2,0.6,8.6-3.2,12.4c-24.7,24.4-49,49-73.6,73.4C86.2,416,51.3,414.9,30.3,391c-17.4-19.8-17.5-51.2,0.8-70.1
		c25.7-26.6,52.1-52.4,78.1-78.6c3-3,6.1-2.5,9.6-1.4c14.1,4.3,28.6-0.5,37.4-12.1c2.3-3,2.8-5.2-0.3-8.3
		c-9.4-9.7-18.3-19.7-27.3-29.8c-1.7-1.9-3.1-2.5-5.8-1.8c-54.2,15-108.7-17.6-120.6-72.4c-3.8-17.7-2.7-35.2,3.4-52.4
		c2.5-7.1,7.3-8.3,12.6-3c15.1,15,30.2,30.2,45.3,45.2c6.3,6.3,9.6,6.3,16-0.1C88.8,97,98,87.8,107.2,78.5c5.2-5.2,5.2-9.1,0-14.3
		C92,49,76.8,33.9,61.7,18.7c-6-6-5-10.8,3-13.1C72.4,3.3,80.4,1.8,88.3,0C93.6,0,99,0,104.3,0z M76,15.3
		C89.8,29,103,42.2,116.1,55.4c10.2,10.2,10.3,21.7,0.1,31.9c-9.5,9.6-19,19.1-28.6,28.6c-10.5,10.5-21.9,10.4-32.5-0.1
		C43,103.6,30.8,91.5,18.7,79.3c-1-1-1.3-2.6-2-4c-0.5,0.5-1,1-1.4,1.4c-7.8,26.5,1.5,60,23.2,80c24.4,22.5,52.8,28.6,84.5,18.9
		c5.1-1.6,8.4-0.8,11.9,3.2c8.1,9.2,16.5,18.2,24.8,27.2c0.8,0.9,1.7,1.7,2.5,2.6c0.3-0.2,0.7-0.4,1-0.6c-0.8-3.7-2-7.4-2.4-11.2
		c-0.2-2.4,0.1-5.6,1.6-7.3c4.8-5.5,10.1-10.7,15.6-15.5c8.6-7.6,20.9-7.5,29.6-0.2c2.6,2.2,5.1,4.7,7.8,7.3c1.8-2.1,3.5-4,5.3-6.1
		c-0.7-0.7-1.6-1.7-2.6-2.6c-12.9-11.6-25.7-23.2-38.6-34.8c-6.5-5.9-6.6-6-3.7-14.4c16.3-46.9-12.9-98.5-61.5-108.7
		C101.6,12,89.1,11.9,76,15.3z M172,299.2c0-12.1,3.4-22.2,10.7-30.7c12.1-14,27.4-19.1,45.5-15.8c1.4,0.3,3.5,0,4.6-0.9
		c3.6-3.2,7-6.6,10.2-10.1c4-4.3,4.1-10.6,0-14.8c-14.1-14.3-28.4-28.6-42.7-42.7c-4.5-4.4-10.5-4.3-15,0c-3.2,3-6.2,6.3-9.4,9.3
		c-1.8,1.6-2.1,3.3-1.6,5.6c7.1,32.7-22.2,62-54.9,54.9c-2.4-0.5-3.9-0.1-5.6,1.6c-8.6,8.7-17.3,17.4-26,26
		c-15.7,15.8-31.8,31.2-47,47.4C29,341.4,27,356.6,33.4,372.1c6.2,15,18.3,23.2,34.5,24.6c13.2,1.1,24.1-4,33.4-13.2
		c22.6-22.6,45.2-45.3,67.9-67.8c3.2-3.2,5.2-5.9,3.4-10.6C171.7,303.1,172.1,300.6,172,299.2z M367.3,34.4
		c-3.5,6.6-7.2,13.6-10.9,20.7c-0.3,0.6-0.1,1.9,0.4,2.4c4.2,4.3,8.4,8.6,12.7,12.7c0.5,0.5,2,0.7,2.7,0.3c7-3.5,13.8-7.2,20.5-10.7
		C384.2,51.3,376,43.1,367.3,34.4z"/>
	<path fill="#fff" d="M349.8,329.5c11.7,0,21.1,9.3,21.1,21c0,11.7-9.4,21.2-21,21.2c-11.6,0-21.1-9.5-21.1-21.1
		C328.8,338.9,338.2,329.5,349.8,329.5z M350,342.1c-4.7-0.1-8.8,3.9-8.7,8.5c0,4.4,4,8.4,8.4,8.5c4.6,0.1,8.7-4,8.7-8.6
		C358.4,346,354.6,342.2,350,342.1z"/>
	<path fill="#fff" d="M131.2,280.9c-1.4,2.3-2,4.3-3.4,5.6c-19.2,19.4-38.5,38.7-57.9,57.9c-3.3,3.3-6.7,3.5-9.5,0.9c-2.7-2.6-2.5-6.5,0.8-9.8
		c19.2-19.2,38.4-38.4,57.6-57.6c2.1-2.1,4.7-3.7,7.5-2C128.2,276.9,129.4,279,131.2,280.9z"/>
	<path fill="#fff" d="M153.1,303c-1.4,2.3-2.1,4.2-3.5,5.6c-19.2,19.4-38.5,38.7-57.9,57.9c-3.1,3.1-7,3.3-9.5,0.7c-2.7-2.8-2.5-6.2,0.8-9.5
		c19.3-19.3,38.6-38.6,57.9-57.9c2.2-2.2,4.8-3.4,7.5-1.9C150.3,298.9,151.5,301.1,153.1,303z"/>
</g>
</svg>
