<?xml version="1.0" encoding="utf-8"?>
<!-- Generator: Adobe Illustrator 22.1.0, SVG Export Plug-In . SVG Version: 6.00 Build 0)  -->
<svg version="1.1" id="Слой_1" xmlns="http://www.w3.org/2000/svg" xmlns:xlink="http://www.w3.org/1999/xlink" x="0px" y="0px"
	 viewBox="0 0 409.6 392.5" style="enable-background:new 0 0 409.6 392.5;" xml:space="preserve">
<g>
	<path d="M0,56.2c3.6-10.3,11-13.8,21.6-13.7c68.8,0.2,137.6,0.1,206.3,0.2c3.9,0,5.7-1,7.2-4.7c11.2-29.1,42.6-44.6,72.3-35.3
		c17.7,5.6,30.5,17.2,37.4,34.6c1.6,4,3.3,5.7,7.9,5.5c13.3-0.4,26.7-0.2,40-0.1c8.2,0.1,14.5,5.4,16.4,13.3
		c1.7,7.1-1.5,15-8.1,18.3c-3.2,1.6-7.1,2.3-10.7,2.4c-12.8,0.3-25.6,0.2-38.4,0c-3.6-0.1-5.3,0.9-6.6,4.5
		c-9,23.7-31.7,38.7-56.9,38.2c-22.9-0.5-45-15.8-53-37.3c-1.5-4-3.3-5.3-7.6-5.3c-68.5,0.2-137,0-205.5,0.2
		C11.6,77,3.8,73.8,0,63.4C0,61,0,58.6,0,56.2z M290.1,85.2c14.1,0,25.8-11.7,25.6-25.7c-0.2-13.9-11.7-25.4-25.5-25.4
		c-14,0-25.6,11.7-25.5,25.8C264.7,73.9,276.1,85.2,290.1,85.2z"/>
	<path d="M0,329c1.7-2.8,3.1-5.9,5.2-8.3c3.9-4.4,9.4-5.1,15-5.1c69,0,138.1,0,207.1,0.1c4.4,0,6.4-1.1,8-5.3
		c14.5-37.9,63.5-49.6,93.7-22.5c7.5,6.7,13.2,14.6,16.5,24.1c1,2.9,2.5,3.7,5.5,3.7c13.2-0.2,26.4-0.1,39.6-0.1
		c8.9,0,15.1,3.9,17.8,11c4.3,11.2-3.7,22.9-16.1,23.1c-13.3,0.2-26.7,0.2-40,0c-3.9-0.1-5.7,0.9-7.2,4.8
		c-11.1,29.1-42.7,44.6-72.3,35.3c-17.9-5.6-30.7-17.4-37.6-34.9c-1.6-4-3.5-5.1-7.7-5.1c-68.6,0.2-137.3,0-205.9,0.2
		c-10.6,0-18-3.4-21.6-13.7C0,333.8,0,331.4,0,329z M264.6,332.9c0.1,14,11.4,25.4,25.4,25.5c13.9,0.1,25.7-11.7,25.7-25.7
		c0-14-11.8-25.6-25.9-25.4C275.8,307.4,264.6,318.8,264.6,332.9z"/>
	<path d="M0,193c3.4-10.4,10.7-14.3,21.4-13.9c12,0.4,24-0.1,36,0.2c4,0.1,5.7-1.2,7.1-4.9c11.2-29.2,43.2-44.6,72.8-35
		c17.7,5.7,30.3,17.5,37.1,34.9c1.5,3.8,3.2,5.1,7.4,5.1c69-0.2,138.1-0.1,207.1-0.1c2.9,0,5.9,0.1,8.7,0.9
		c7.9,2.3,12.9,10.1,11.9,18.1c-1,8.2-7.5,14.3-15.8,14.9c-1.9,0.1-3.7,0.1-5.6,0.1c-68.8,0-137.6,0.1-206.3-0.1
		c-4.2,0-5.9,1.3-7.4,5.1c-11.2,29.1-43.3,44.5-72.9,34.8c-18-5.9-30.5-18-37.3-35.7c-1.2-3.1-2.6-4.2-6-4.2
		c-12.3,0.2-24.5-0.2-36.8,0.2c-10.7,0.4-18-3.5-21.4-13.9C0,197.3,0,195.2,0,193z M144.9,196.3c0-14-11.2-25.4-25.2-25.6
		c-14-0.2-25.8,11.5-25.8,25.5c-0.1,14,11.7,25.7,25.7,25.6C133.6,221.7,144.9,210.3,144.9,196.3z"/>
</g>
</svg>
