<?xml version="1.0" encoding="utf-8"?>
<!-- Generator: Adobe Illustrator 22.1.0, SVG Export Plug-In . SVG Version: 6.00 Build 0)  -->
<svg version="1.1" id="Слой_1" xmlns="http://www.w3.org/2000/svg" xmlns:xlink="http://www.w3.org/1999/xlink" x="0px" y="0px"
	 viewBox="0 0 407 409.5" style="enable-background:new 0 0 407 409.5;" xml:space="preserve">
<g>
	<path d="M64.3,409.5c-1.9-0.5-3.8-1-5.7-1.5c-40-9.7-55.1-58.4-26.7-88.1c25.2-26.4,51.5-51.8,77.3-77.7c3-3,6.1-2.5,9.6-1.5
		c14.2,4.3,28.6-0.5,37.4-12.1c2.3-3,2.8-5.1-0.3-8.3c-9.4-9.8-18.5-19.9-27.6-30.1c-1.7-1.9-3.2-2.2-5.5-1.5
		c-54.3,15-108.7-17.6-120.6-72.4c-3.8-17.5-2.7-35,3.3-52c2.7-7.6,7.4-8.8,13-3.1c15,15,30,30,45,45c6.4,6.3,9.6,6.3,16-0.1
		C88.8,97,98,87.8,107.2,78.5c5.2-5.2,5.2-9.1,0-14.3C92,49,76.8,33.8,61.7,18.6c-6-6-4.9-10.5,3-13.2
		c58.4-20.2,120.1,18.3,127.5,79.8c1.6,13.2,0.5,26.4-3.7,39.1c-0.9,2.6-0.5,4.2,1.7,6.1c12.4,11,24.6,22.1,36.9,33.2
		c1,0.9,2,1.7,3.3,2.8c10.2-10.2,20.2-20.3,30.3-30.4c2.6-2.6,5.2-5.3,7.9-7.9c3.3-3.2,6.8-3.5,9.5-0.9c2.8,2.7,2.6,6.4-0.8,9.8
		c-16.1,16.2-32.2,32.3-48.4,48.4c-1.5,1.5-3.2,2.7-4.9,4c4.7,4.6,8.7,8.6,12.4,12.3c41-41,82.1-82.1,123.1-123.1
		c-3.6-3.6-7.7-7.7-11.9-11.9c-14.5,14.5-29.1,29.1-43.7,43.7c-1.1,1.1-2.2,2.3-3.4,3.4c-3.5,3.4-7.1,3.6-9.9,0.8
		c-2.5-2.6-2.2-6.4,0.9-9.6c5-5.1,10.2-10.2,15.3-15.3c5.1-5.1,9.9-10.5,15.3-15.2c14.6-12.8,26-27.9,34-45.7
		c4.5-10.1,13.4-11.1,21.2-3.3c8,8,16,16,24,24c7.8,7.9,6.6,16.2-3.1,21.4C390.5,75,382.7,79,375,83.1c-1,0.5-2,1.3-2.8,2.1
		c-35.9,35.9-71.9,71.8-107.8,107.8c-0.6,0.6-1.2,1.3-2.1,2.3c5,4.5,9.7,8.9,14.6,13.2c36.6,33,73.3,66,109.9,99.1
		c18.8,17,24.8,39.6,16.8,62.3c-13.3,37.9-63.2,49.7-91.4,21c-18.8-19.1-36.4-39.3-54.5-59.1c-13.5-14.7-27-29.5-40.5-44.3
		c-1-1.1-2-2.2-2.7-3.5c-1.5-2.8-1-5.5,1.5-7.5c2.3-1.9,4.9-2.1,7.4-0.3c1.3,0.9,2.4,2.1,3.4,3.3c30.3,33.1,60.6,66.3,91,99.4
		c16.2,17.7,40.5,20.4,59.1,6.6c21.1-15.6,23.8-47.1,4.7-65.3c-19.6-18.7-40-36.4-60.1-54.6c-21.7-19.6-43.4-39.1-65-58.7
		c-1-0.9-2-1.7-3.3-2.9c-2.2,2.7-4.2,5.2-6.9,8.5c1,0.9,3,2.4,4.7,4.2c10.2,10.6,10.2,23.9-0.1,34.5c-3.7,3.8-7.7,7.4-11.3,11.4
		c-3.3,3.7-6.6,4.3-11.4,3c-14-4.1-26.2-0.5-35.7,10.5c-7.6,8.8-10.1,19.4-6.7,30.6c1.7,5.6,0.6,9.3-3.6,13.4
		c-23.9,23.6-47.7,47.4-71.3,71.2c-9.2,9.3-19.7,15.7-32.8,17.5c-0.4,0-0.7,0.4-1,0.6C72.8,409.5,68.6,409.5,64.3,409.5z M76.6,15.1
		c-0.3,0.4-0.7,0.8-1,1.3c1.3,0.8,2.7,1.3,3.7,2.3c12.3,12.2,24.6,24.5,36.8,36.7c10.2,10.2,10.2,21.7,0,31.9
		c-9.4,9.5-18.8,18.9-28.3,28.3c-10.8,10.7-22.1,10.8-32.8,0.1c-12.2-12.1-24.3-24.3-36.5-36.5c-1-1-2-1.9-3.5-3.4
		c-6.4,31.7,0.7,59,23.5,80.8c24,22.9,52.8,28.7,84.4,19c4.9-1.5,8.2-0.9,11.6,3c6.9,7.9,14.1,15.6,21.3,23.4c2,2.2,4.1,4.4,6.1,6.6
		c0.3-0.1,0.7-0.3,1-0.4c-0.8-3.7-1.4-7.4-2.4-11c-0.8-3.1-0.6-5.8,1.8-8.1c4.8-4.8,9.5-9.8,14.5-14.3c9.3-8.4,21.7-8.5,31.2-0.3
		c2.4,2.1,4.6,4.3,7,6.6c1.9-2.1,3.7-3.9,5.5-6c-0.9-0.9-2-1.9-3.1-2.9c-13.2-11.9-26.3-23.7-39.5-35.6c-4.9-4.4-5.1-5.4-2.9-11.8
		c5.4-15.3,6.6-30.9,2.8-46.8c-8.1-34-34.2-58.6-68.7-64.2C98.4,11.8,87.4,12.2,76.6,15.1z M171.9,298.6c0.3-27,22.2-48.9,48.1-46.5
		c9.6,0.9,15.8-1.4,21.2-8.6c0.4-0.5,0.9-0.9,1.4-1.4c4.5-4.8,4.7-11,0.1-15.7c-14-14.1-28-28.2-42.1-42.1
		c-4.7-4.7-10.8-4.5-15.6,0.2c-3,2.9-5.8,5.9-8.8,8.7c-1.9,1.7-2.3,3.4-1.8,6c7.1,32.4-22.3,61.9-54.7,54.9c-2.8-0.6-4.4,0-6.3,1.9
		c-10.4,10.5-20.9,20.9-31.3,31.4c-13.8,13.9-28,27.4-41.4,41.7c-11.5,12.3-13.6,27.3-7.3,42.8c6.1,15.1,18.1,23.3,34.3,24.9
		c13.4,1.3,24.4-4,33.7-13.3c22.7-22.7,45.3-45.5,68.2-68.1c3.1-3,4.5-5.7,3-10C171.8,303.1,172.1,300.6,171.9,298.6z M367.3,34.3
		c-3.5,6.6-7.3,13.6-10.9,20.7c-0.3,0.6,0.1,2.1,0.6,2.7c4,4.1,8,8.2,12.1,12.1c0.6,0.6,2.2,0.9,3,0.6c7-3.5,13.8-7.2,20.5-10.7
		C384.1,51.2,375.8,42.8,367.3,34.3z"/>
	<path d="M350,329.4c11.7,0,21,9.4,21,21.1c0,11.7-9.6,21.2-21.1,21.1c-11.6-0.1-21.1-9.6-21-21.2
		C328.9,338.7,338.2,329.4,350,329.4z M358.5,350.7c0.1-4.5-3.7-8.5-8.2-8.7c-4.7-0.2-8.8,3.6-8.9,8.3c-0.1,4.4,3.7,8.5,8.2,8.7
		C354,359.3,358.3,355.3,358.5,350.7z"/>
	<path d="M131.1,281.1c-1.3,2.2-2,4.1-3.3,5.3c-19.3,19.5-38.7,38.9-58.2,58.2c-3.1,3.1-6.5,3.2-9.2,0.6c-2.7-2.5-2.6-6.4,0.5-9.5
		c19.4-19.4,38.8-38.8,58.2-58.2c2.1-2.1,4.8-3.5,7.5-1.6C128.4,277.1,129.6,279.3,131.1,281.1z"/>
	<path d="M87.9,368.9c-5.9-0.1-8.8-4.8-6.7-8.8c0.7-1.3,1.7-2.4,2.7-3.4c18.7-18.8,37.5-37.5,56.2-56.2c0.9-0.9,1.9-1.9,3.1-2.5
		c2.6-1.4,5.2-1.1,7.3,1.1c2.1,2.1,2.5,4.7,0.9,7.3c-0.7,1.2-1.8,2.3-2.8,3.3c-18.5,18.6-37.1,37.1-55.7,55.6
		C91.2,367,89,368.2,87.9,368.9z"/>
</g>
</svg>
