<?xml version="1.0" encoding="utf-8"?>
<!-- Generator: Adobe Illustrator 22.1.0, SVG Export Plug-In . SVG Version: 6.00 Build 0)  -->
<svg version="1.1" id="Слой_1" xmlns="http://www.w3.org/2000/svg" xmlns:xlink="http://www.w3.org/1999/xlink" x="0px" y="0px"
	 viewBox="0 0 334 295.7" style="enable-background:new 0 0 334 295.7;" xml:space="preserve">
<g>
	<path d="M168.9,79.6c0-1.9,0-3.4,0-4.9c0-18.5-0.1-37,0-55.5c0.1-11.3,6.4-18.4,16.9-19.2c6.1-0.4,11.1,2,15.4,6.3
		c24.2,24.2,48.4,48.4,72.6,72.6c17.8,17.8,35.4,35.6,53.3,53.2c7.9,7.8,10.2,21.7,0.2,31.5c-41.9,41.3-83.3,83.1-125.1,124.6
		c-2.8,2.8-6.6,5-10.4,6.3c-11.8,3.9-22.7-4.2-22.9-17.2c-0.3-16-0.2-32,0-48c0.1-4-1.2-4.9-5-5c-21.5-0.7-42.9-0.1-64,5.2
		c-29.3,7.5-51.6,23.7-64.9,51.4c-4.1,8.6-11.1,12.3-19.3,10.8c-7.9-1.5-14.2-8.8-14.8-17.6c-2.4-36.2-0.6-71.9,12.2-106.4
		c9.4-25.4,23.9-47.2,46.5-62.9c20.3-14.2,43.1-22,67.6-24.3c13-1.3,26.2-0.8,39.3-1.1C167.1,79.6,167.7,79.6,168.9,79.6z
		 M192.9,263.4c38.8-38.8,77.2-77.2,115-115c-38.2-38.2-76.6-76.6-115-115c0,0.9,0,2.2,0,3.5c0,15.9,0,31.7,0,47.6
		c0,13.3-8,21-21.4,20.1c-17.5-1.3-34.9-1.2-52.3,2.1c-38.5,7.4-66.2,28.4-81.4,64.9c-8.2,19.7-12,40.4-13.4,61.5
		c-0.4,6.4-0.6,12.8-0.9,19.9c1-0.9,1.3-1.1,1.5-1.4c17-24.4,41-38.2,69.3-45.1c25.4-6.2,51.2-6.4,77.1-5.1c3.3,0.2,6.8,0.4,10,1.4
		c6.9,2.1,11.3,9.3,11.4,18c0.1,7.7,0,15.5,0,23.2C192.9,250.5,192.9,256.9,192.9,263.4z"/>
</g>
</svg>
