<?xml version="1.0" encoding="utf-8"?>
<!-- Generator: Adobe Illustrator 22.1.0, SVG Export Plug-In . SVG Version: 6.00 Build 0)  -->
<svg version="1.1" id="Слой_1" xmlns="http://www.w3.org/2000/svg" xmlns:xlink="http://www.w3.org/1999/xlink" x="0px" y="0px"
	 viewBox="0 0 344.9 348" style="enable-background:new 0 0 344.9 348;" xml:space="preserve">
<g>
	<path d="M37.3,24c-8.5,0-16.8,0.1-25,0C3.5,23.9-2.3,15.5,0.9,7.6c1.9-4.7,5.6-7.4,10.7-7.5C23.9,0,36.1,0,48.4,0.1
		c6.4,0.1,11,4.8,11.7,11.4c1.6,14.8,3.1,29.6,4.6,44.3c0.1,1.2,0.4,2.5,0.6,4.1c1.6,0,3.2,0,4.8,0c83.2,0,166.5,0,249.7,0
		c12.9,0,22.9,7.5,24.8,19.4c0.7,4.8-0.1,10-1.1,14.8c-9.1,43-18.3,85.9-27.6,128.9c-3.8,17.6-18.1,28.9-36.1,28.9
		c-61.7,0-123.5,0-185.2,0c-20.2,0-34.8-13.7-36.9-34c-3.8-36.9-7.8-73.8-11.7-110.7C43,79.8,40.2,52.2,37.3,24z M67.7,84.3
		c1.2,11.1,2.4,22,3.5,32.9c3.5,33,6.9,66.1,10.5,99.1c0.8,7.8,5.4,11.8,13.3,11.8c61.5,0,123,0,184.5,0c7.4,0,11.6-3.5,13.2-10.7
		c6.5-30.3,13-60.5,19.5-90.8c3-14,6-28,9.1-42.3C236.6,84.3,152.3,84.3,67.7,84.3z"/>
	<path d="M107.9,348C88.2,348,72,331.7,72,312c0-19.8,16.3-35.9,36.1-35.9c19.8,0,35.9,16.3,35.9,36.1
		C144,331.9,127.7,348.1,107.9,348z M108,324c6.5,0,11.9-5.4,12-11.9c0.1-6.5-5.3-12-11.8-12.1c-6.6-0.1-12.2,5.4-12.2,12.1
		C96.1,318.6,101.5,324,108,324z"/>
	<path d="M216,312.2c-0.1-19.8,16.1-36.1,35.9-36.1c19.8-0.1,36.1,16.1,36.1,35.8c0.1,19.8-16.1,36.1-35.8,36.1
		C232.4,348.1,216.1,331.9,216,312.2z M252.2,324c6.5-0.1,11.9-5.6,11.8-12.1c0-6.6-5.7-12.1-12.3-11.9c-6.5,0.2-11.8,5.7-11.6,12.2
		C240.2,318.8,245.7,324.1,252.2,324z"/>
</g>
</svg>
