<?xml version="1.0" encoding="utf-8"?>
<!-- Generator: Adobe Illustrator 22.1.0, SVG Export Plug-In . SVG Version: 6.00 Build 0)  -->
<svg version="1.1" id="Слой_1" xmlns="http://www.w3.org/2000/svg" xmlns:xlink="http://www.w3.org/1999/xlink" x="0px" y="0px"
	 viewBox="0 0 314.7 384" style="enable-background:new 0 0 314.7 384;" xml:space="preserve">
<g>
	<path d="M280.4,0c12,5.1,14.9,9.5,14.9,22.9c0,5.1-0.1,10.2,0,15.4c0.1,8-2.5,14.9-7.7,20.9c-7.1,8.2-14.2,16.5-21.1,24.9
		c-1.1,1.4-1.9,3.5-1.9,5.3c-0.2,7.1,0,14.2-0.2,21.4c-0.1,2-0.7,4.5-2,5.7c-1.3,1.1-4.3,1.6-5.7,0.9c-1.6-0.8-3.1-3.4-3.2-5.2
		c-0.4-7.2-0.1-14.4-0.1-22c-6,0-11.6,0-17.5,0c0,36,0,71.8,0,107.7c5.8,0,11.3,0,17.5,0c0-1.4,0-2.7,0-4c0-17.4,0-34.7,0-52.1
		c0-1.2,0-2.5,0.1-3.7c0.4-2.9,2.2-4.5,5-4.7c2.8-0.2,4.9,1,5.7,3.8c0.4,1.5,0.4,3.2,0.5,4.8c0.2,25.5,0.2,51,0.5,76.5
		c0.1,6.1-0.7,6,6,6.9c5.8,0.8,11.6,1.8,17.4,2.7c15.6,2.4,26.2,13.6,26.3,29.3c0.2,28.1,0.4,56.3-0.7,84.3
		c-0.4,11.3-4,22.5-6.6,33.7c-1.4,5.8-5.8,8.8-11.2,8.8c-5.4,0-9.4-3.1-11.2-8.8c-5-14.9-7.3-30.3-7.3-46c-0.1-19.5,0-39,0-58.5
		c0-6-1-7.2-6.9-8.1c-2-0.3-3.9-0.5-6.3-0.8c-0.1,1.9-0.2,3.6-0.2,5.3c-0.6,24.5-0.9,49-1.7,73.5c-0.4,12-3.2,23.7-6.9,35.2
		c-1.7,5.3-6.1,8.3-11.3,8.2c-5.2-0.1-9.2-3.2-11-8.6c-4.7-14-7-28.3-7.3-43c-0.5-21.1-0.8-42.2-1.2-63.4c0-2.3-0.2-4.7-0.4-7
		c-0.7-0.1-1.1-0.1-1.4-0.1c-11.7,1.6-11.6,1.6-11.7,13.3c-0.1,21.6-0.1,43.2-0.6,64.9c-0.3,12.2-3.1,24-6.9,35.5
		c-1.8,5.4-6,8.4-11.2,8.4c-5.2,0-9.3-3-11.1-8.4c-5-15.1-7.3-30.6-7.4-46.4c0-22.6,0-45.2,0-67.9c0-20.3,9.7-31.3,29.8-34
		c5.6-0.7,11.1-1.7,16.7-2.5c2.2-0.3,3.2-1.3,3.2-3.6c0.1-6.6,0.5-13.2,0.5-19.9c0.1-37.1,0-74.2,0.1-111.4c0-2.7-0.7-4.7-2.5-6.7
		c-7.1-8.1-13.9-16.4-21-24.5c-5.1-5.8-7.6-12.5-7.4-20.2c0.1-5.2,0-10.5,0-15.7c0-13.4,3-17.9,15-22.8C232.4,0,256.4,0,280.4,0z
		 M244.2,372.8c0.5-1.2,0.9-1.7,1-2.2c2-10.1,5.2-20.2,5.7-30.4c1.3-24.4,1.3-49,1.9-73.4c0.1-2.4,0.1-4.8,0.4-7.1
		c0.7-5.5,5-9.3,10.5-9.2c3.2,0.1,6.4,0.7,9.6,1.3c10.6,1.8,15.3,7.5,15.3,18.2c0,19.5-0.4,39,0.2,58.5c0.3,10.9,2.2,21.8,3.7,32.7
		c0.5,3.8,2,7.4,3.1,11.1c0.6,0,1.2,0,1.8,0c1.8-10.3,4.9-20.5,5.2-30.8c0.9-28,0.7-56,0.7-84c0-9.8-6.4-16.6-16.1-18.2
		c-6.5-1.1-13.1-2.1-19.6-3c-9.7-1.5-13.4-5.3-13.9-14.9c-0.2-3.9,0-7.9,0-11.8c-6.6,0-12.3,0-18.5,0c0,2.4,0,4.6,0,6.9
		c-0.1,2.2-0.2,4.5-0.4,6.7c-0.5,7-4.3,11.3-11.2,12.5c-7.5,1.3-15,2.4-22.6,3.6c-9.2,1.5-15.7,8.5-15.7,17.8
		c0,28.6,0.1,57.2,0.7,85.8c0.2,10,2.8,19.8,6.5,30.3c0.7-2.1,1.2-3.4,1.6-4.6c4.1-13.2,5.8-26.8,5.8-40.6c0-19.6,0-39.2,0-58.9
		c0-8.4,4.4-14.6,11.9-16.5c4-1,8.1-1.6,12.2-1.9c6.4-0.5,11.2,3.7,11.5,10.1c0.4,7.7,0.4,15.5,0.6,23.2c0.5,19.2,0.8,38.5,1.6,57.7
		C238.1,352,240.5,362.2,244.2,372.8z M244.4,11.3c-10.5,0-21,0-31.5,0c-5.6,0-8.3,2.7-8.3,8.3c-0.1,6.6,0,13.2,0,19.8
		c0,4.3,1.4,8.1,4.1,11.3c7.4,8.7,14.7,17.3,22.1,25.9c0.8,1,2.5,1.7,3.8,1.8c6.4,0.2,12.7,0.2,19.1,0c1.4,0,3.2-0.8,4.1-1.9
		c7.3-8.4,14.4-16.9,21.7-25.3c3.1-3.6,4.6-7.6,4.5-12.3c0-6.2,0-12.5,0-18.7c0-6.3-2.6-8.9-8.9-8.9
		C264.9,11.2,254.7,11.3,244.4,11.3z"/>
	<path d="M106.4,0c11.9,4.8,15,9.4,15,22.4c0,4.1,0,8.2,0,12.4c0,1.4,0,2.7,0,4.1c0.2,7.6-2.4,14.1-7.4,19.9
		c-7.1,8.2-14.2,16.5-21.1,24.9c-1.3,1.6-2.2,3.9-2.2,5.9c-0.1,35.7-0.1,71.5-0.1,107.2c0,6.4,0,12.7,0,19.6
		c6.4,1,13.6,2.2,20.7,3.3c5.2,0.8,10.4,1.5,15.5,2.4c8.7,1.4,14,7.5,14,16.3c0.1,16.4,0.1,32.7,0,49.1c-0.3,33-13.7,59.3-40.2,79
		c-6.1,4.5-12.3,8.9-18.5,13.4c-7.9,5.7-15.3,5.7-23.1,0c-8.6-6.2-17.5-12.1-25.5-19C9.7,340.4-0.7,314,0.1,283
		c0.1-4.1,2.3-6.5,5.7-6.4c3.5,0,5.5,2.3,5.5,6.6c-0.3,15,2.1,29.3,8.8,42.8c5.7,11.3,13.4,21.1,23.5,28.8
		c7.4,5.6,14.9,10.9,22.4,16.3c2.4,1.8,5.2,2.5,7.7,0.7c12-8.8,25-16.2,34.9-27.6c13.5-15.5,20.6-33.5,20.9-54c0.3-17,0-34,0.1-51
		c0-3.6-1.3-5.5-5-6.1c-10.7-1.6-21.5-3.3-32.2-5c-0.9-0.1-1.9,0-3.1,0c-0.5,8.8-1.1,17.5-1.5,26.2c-0.7,15.4-3.6,30.5-7.8,45.3
		c-1.5,5.4-4.7,8-9.4,8.1c-4.8,0-7.8-2.5-9.5-7.9c-5.9-19.4-8.1-39.3-8.7-59.5c-0.1-4-0.4-8-0.7-12.5c-4.5,0.6-8.8,1.2-13,1.8
		c-7.5,1.2-15,2.5-22.6,3.5c-3.4,0.5-4.8,2.3-4.8,5.5c0,5.4,0,10.7,0,16.1c-0.1,4.2-2.2,6.5-5.6,6.5c-3.4,0-5.6-2.5-5.6-6.6
		c-0.1-5.6-0.1-11.3,0-16.9c0.3-8.8,5.7-14.6,14.5-15.9c12-1.8,23.9-3.7,36.1-5.5c0.1-1.1,0.3-2,0.2-2.9
		c-0.2-21.4-0.5-42.7-0.7-64.1c-0.1-19.7-0.1-39.5,0-59.2c0-2.8-0.6-4.9-2.5-7.1c-6.8-7.7-13.2-15.7-20-23.3
		c-5.7-6.4-8.5-13.7-8.3-22.2c0.1-4.9,0.3-9.8,0-14.6C18.8,11.5,23.2,3.6,34.4,0C58.4,0,82.4,0,106.4,0z M70.4,11.3
		c-10.4,0-20.7,0-31.1,0c-5.8,0-8.4,2.7-8.5,8.5c-0.1,6.5,0,13,0,19.5c0,4.4,1.4,8.3,4.3,11.7c7.3,8.5,14.5,17.1,21.9,25.6
		c0.9,1,2.7,1.8,4.1,1.9c6.2,0.2,12.5,0.2,18.7,0c1.5-0.1,3.4-0.9,4.4-2.1C91.5,68,98.6,59.5,105.8,51c3-3.5,4.4-7.4,4.3-12
		c-0.1-6.4,0-12.7,0-19.1c0-6.1-2.6-8.6-8.7-8.7C91.1,11.2,80.7,11.3,70.4,11.3z M79.2,90c-6,0-11.7,0-17.5,0c0,34.8,0,69.3,0,103.9
		c6,0,11.6,0,17.5,0C79.2,159.3,79.2,124.8,79.2,90z M62.2,205.6c-1.6,23.2,3.6,75.2,8.5,84.8c7.6-28,6.1-56.5,8.4-84.8
		C73.2,205.6,67.8,205.6,62.2,205.6z"/>
	<path d="M244.5,37.2c-5.6,0-11.2,0-16.8,0c-4.4,0-6.9-2.1-6.9-5.6c0-3.5,2.5-5.6,6.9-5.6c11.1-0.1,22.2-0.1,33.3,0
		c4.5,0,6.9,2,6.9,5.6c0,3.5-2.4,5.5-6.9,5.6C255.5,37.2,250,37.2,244.5,37.2z"/>
	<path d="M70.3,37.2c-5.6,0-11.2,0.1-16.8,0C49.2,37.1,47,35,47,31.6c0-3.5,2.2-5.6,6.5-5.6c11.3-0.1,22.7-0.1,34,0
		c4.1,0,6.6,2.3,6.6,5.6c0,3.3-2.5,5.6-6.6,5.6C81.8,37.2,76,37.2,70.3,37.2z"/>
</g>
</svg>
