<?xml version="1.0" encoding="utf-8"?>
<!-- Generator: Adobe Illustrator 22.1.0, SVG Export Plug-In . SVG Version: 6.00 Build 0)  -->
<svg version="1.1" id="Слой_1" xmlns="http://www.w3.org/2000/svg" xmlns:xlink="http://www.w3.org/1999/xlink" x="0px" y="0px"
	 viewBox="0 0 384.1 229.5" style="enable-background:new 0 0 384.1 229.5;" xml:space="preserve">
<g>
	<path d="M384.1,183c-1.9,5.4-6.2,8.5-10.9,11.3c-15.8,9.3-32.9,14.9-50.5,19.3c-27.7,7-55.8,11.5-84.2,13.6
		c-19.2,1.4-38.4,2-57.6,2.1c-54.9,0.3-109.7,0.1-164.6,0.1c-11.4,0-16.1-4.8-16.1-16.2c0-9.6-0.3-19.3,0.2-28.9
		c0.2-3.4,2.1-6.7,3.3-10c0.4-1.3,1.1-2.7,1.2-4c0.5-7.7,0.7-15.5,1.3-23.2c0.3-3.8,3-5.8,6.3-5.3c3.2,0.4,5,3.2,4.7,6.9
		c-0.5,6.9-1,13.9-1.5,21.2c2,0.1,3.2,0.2,4.4,0.2c64.2,0.3,128.5,0.7,192.7,0.8c18.8,0,37.3-2.9,55.8-6.3c0.7-0.1,1.5-0.3,2.2-0.4
		c4-0.4,6.6,1.1,7.1,4.3c0.6,3.4-1.3,6-5.3,6.8c-1.7,0.4-3.4,0.7-5.5,1.1c1.4,11.9,2.9,23.6,4.3,35.8c10.2-1.8,20-3.3,29.8-5.3
		c20.6-4.1,40.9-9.3,59.8-18.7c2.8-1.4,5.4-3.2,8.2-4.6c3.3-1.6,4.2-4,3.7-7.6c-1.1-7.7-3.5-14.8-9.4-20.3c-2.3-2.2-4.4-2.7-7.7-1.8
		c-18,5.2-36,10.1-54.1,15c-4.2,1.1-7.2-0.4-8.1-3.8c-0.8-3.3,1.2-6,5.4-7.1c3.8-1,7.7-2,11.5-3c0.1-0.4,0.3-0.8,0.4-1.1
		c-5.2-2.8-10.2-6.3-15.7-8.3c-8.6-3.2-17.6-5.4-26.4-8.1c-2-0.6-2.9,0.1-3.9,1.7c-2.1,3.7-4.4,7.3-6.7,10.9
		c-2.2,3.5-5.3,4.4-8.2,2.6c-2.8-1.8-3.3-5-1.3-8.6c0.9-1.5,1.8-3,2.7-4.5c0.8-1.4,1.7-2.8,2.7-4.4c-4.8-1.2-9.3-2.4-13.9-3.4
		c-0.8-0.2-2,0.7-2.7,1.4c-3.1,3.1-6.1,6.3-9.2,9.3c-2.9,2.9-6.2,3.1-8.6,0.8c-2.4-2.4-2.4-5.7,0.6-8.6c2.5-2.4,5.4-4.5,8.6-7.1
		c-3.8-1.9-6.1-3-8.3-4.1c-2.2-1.1-4.4-2.4-6.9-3.7c-3.7,3.3-7.5,6.7-11.3,10.1c-3.6,3.2-6.7,3.4-9.2,0.6c-2.3-2.6-1.7-6,1.8-9.1
		c2.9-2.6,5.7-5.2,8.9-8c-3.7-2.8-7.1-5.5-10.7-8.3c-4.1,2.8-8.1,5.6-12.1,8.3c-3.5,2.4-7,1.9-8.8-1c-1.8-2.8-1-5.8,2.5-8.3
		c1.5-1.1,3.1-2.1,4.6-3.2c1.5-1.1,3.1-2.1,4.4-3.1c-3.2-3-6.3-6-9.9-9.4c-3,2.1-6.9,4.7-10.8,7.4c-3.8,2.6-7.2,2.3-9.2-0.7
		c-1.9-2.9-0.9-5.9,2.7-8.5c3.3-2.4,6.7-4.7,10.4-7.2c-3-3.7-5.8-7.1-8.8-10.8c-3.9,2.7-7.7,5.3-11.5,7.9c-3.5,2.4-7,2-8.8-1
		c-1.8-2.8-0.9-5.9,2.5-8.3c3.6-2.5,7.2-5,11-7.6c-2.2-3.2-4.2-6.4-6.5-9.3c-0.5-0.6-2.2-0.9-3.1-0.6c-3.9,1.4-7.6,3.2-11.4,4.7
		c-3.5,1.4-6.6,0.1-7.8-2.9c-1.1-2.9,0.1-5.9,3.3-7.4c3.7-1.7,7.6-3.2,11.8-5c-2.2-3.9-4.2-7.8-6.6-11.3c-0.6-0.9-2.9-1.1-4.3-0.9
		c-13.3,1.9-26.7,4.1-40,5.9c-18.4,2.4-36.8,3.6-55.3,2.8c-0.7,0-1.5,0-2.2,0c1.5,7.7,3.3,15.2,4.3,22.8c1.5,11,0.9,21.9-2.5,32.6
		c-3.1,9.6-5.5,19.4-8.5,29.1c-0.6,2-2,4.2-3.7,5.1c-1.3,0.7-4.3,0.3-5.4-0.8c-1.3-1.3-2.2-4.1-1.8-5.9c1.6-7.2,3-14.5,5.8-21.3
		c8.2-20.1,6.4-40.1,0.1-60.1c-2-6.5,0.8-11.8,6.7-13.1c1.1-0.2,2.2-0.3,3.3-0.1c16.1,1.7,32.2,0.4,48.3-1.2
		c1.4-0.1,2.9-1.6,3.9-2.8C83.5,15,87,9.3,91.4,4.4c5.5-6.1,13.5-5.8,19.2,0.1c3.2,3.3,6.2,6.9,9.5,10.1c1,1,3,1.7,4.4,1.5
		c8.9-1.4,12.9,0.4,17.3,8.2c1.2,2.1,2.4,4.1,3.6,6.1c1.4,2.3,2.3,4.5,6,4.4c3.4-0.1,5.6,4.1,4,7.3c-1.1,2.2-0.5,3.4,0.7,5
		c2.3,2.9,3.5,6.5,8.5,6.6c2.9,0,4.5,3.3,3.5,6.3c-0.8,2.2,0,3.5,1.3,4.9c1.4,1.6,2.7,3.3,4.1,4.9c1.5,1.8,2.8,3.4,5.8,3.1
		c3.1-0.4,5.7,2.8,5.1,5.9c-0.5,2.3,0.3,3.5,1.7,4.8c1.7,1.5,3.2,3.1,4.8,4.7c1.5,1.5,2.7,2.7,5.4,1.9c3.4-1,6.5,1.9,6.2,5.5
		c-0.2,2.3,0.7,3.5,2.3,4.6c3.5,2.3,6.2,6,11.4,5c1.2-0.2,3,2.1,4.4,3.4c1.4,1.4,2.4,3.3,4,4.3c2.5,1.6,5.3,2.9,8.1,3.9
		c1.7,0.6,3.8,0.4,5.6,0.8c1.6,0.3,3.7,0.4,4.8,1.5c5.6,5,12.5,4.6,19.2,5.1c1.2,0.1,2.5-0.4,3.6,0c5.4,1.6,10.9,3.2,16.2,5.2
		c11.6,4.3,23.1,6.5,35.9,4.5c12.2-1.9,24.3,1.4,35.4,7.5c0.9,0.5,2.1,0.7,3.1,0.6c4.2-0.7,7.9,0.5,11.2,3
		c8.9,6.6,13.5,15.8,15.5,26.5c0.2,1.1,0.5,2.2,0.8,3.3C384.1,177.5,384.1,180.2,384.1,183z M11.8,194.1c1.4,0,2.8,0,4.1,0
		c17.5,0.1,35,0.3,52.5,0.2c52.2-0.2,104.4-0.4,156.7-0.9c10.7-0.1,21.4-1.4,32.3-2.2c-0.6-4.6-1.1-8.7-1.6-12.8
		c-1.5,0.1-2.6,0.2-3.7,0.3c-14.9,1.2-29.8,3.3-44.8,3.4c-61.6,0.1-123.2-0.5-184.8-0.6c-13.3,0-11-3-11,11.8
		C11.5,193.4,11.5,193.5,11.8,194.1z M35,218.1c1.9,0,3.4,0,4.9,0c47.6,0,95.2,0.2,142.8-0.1c19.1-0.1,38.2-1.3,57.2-2.2
		c6.7-0.3,13.3-1.5,20.2-2.3c-0.5-4.1-1-7.6-1.4-11c-74.7,5.8-149.2,2.2-223.7,3.1C35,209.8,35,213.7,35,218.1z M23.5,218.1
		c0-3.7,0.1-7-0.1-10.2c-0.1-0.9-1.2-2.4-2-2.4c-3.3-0.3-6.6-0.1-10.1-0.1c0,3.5,0.1,6.5,0,9.5c-0.1,2.2,0.8,3.3,3,3.2
		C17.2,218.1,20.1,218.1,23.5,218.1z M337.9,147.6c0-0.4,0-0.8,0-1.2c-6.7-0.7-13.4-1.4-20.1-2.1c-0.1,0.4-0.2,0.7-0.3,1.1
		c1.6,1.8,3.2,3.7,5,5.3c0.5,0.5,1.6,0.8,2.3,0.6C329.2,150.2,333.5,148.9,337.9,147.6z M91.6,21.2c6.2-0.9,11.2-1.7,16.9-2.5
		c-2.3-2.4-3.8-4.5-5.7-6c-0.8-0.6-3-0.8-3.6-0.2C96.7,14.9,94.6,17.7,91.6,21.2z"/>
	<path d="M122.4,87.3c0,21.2-13.4,37.5-31.3,40.9c-19.1,3.6-37.6-6.6-44.3-24.5C40.2,86.2,47,66.4,63,56.6c1-0.6,1.9-1.1,2.9-1.6
		c3.7-1.8,6.8-1.1,8.4,2c1.6,3,0.5,6.1-3.2,8c-7.9,4.1-13,10.4-14.9,19.1c-3.1,13.9,4.9,27.8,18.5,32.3c13.4,4.4,28-2,33.9-14.8
		c6-12.9,1.1-28.3-11.2-35.5c-0.9-0.5-1.8-0.9-2.6-1.4c-3.5-1.9-4.6-4.7-3.2-7.7c1.5-3.1,4.8-4.3,8.3-2.2c4.1,2.4,8.1,5,11.5,8.2
		C118.8,70.2,122.2,79.4,122.4,87.3z"/>
	<path d="M69.1,98.2c-1.1-2.2-1.8-4.7-3.3-6.5c-5.1-6.2-3.5-11.9,4.3-13.5c3-0.6,4.8-1.9,6.3-4.5c4-6.8,9.9-6.9,13.8-0.2
		c1.6,2.8,3.6,4,6.6,4.7c7.5,1.7,9.3,7.5,4.1,13.2c-2,2.2-2.7,4.4-2.4,7.4c0.7,7.8-4,11.3-11.1,8.2c-2.7-1.2-5-1.3-7.7-0.1
		C72.2,110.3,67.7,106.8,69.1,98.2z M83.4,84.7c-1.8,1.3-3.5,2.5-4.9,3.5c0.6,2,1.2,4,1.8,5.8c2.1,0,4.2,0,6.2,0
		c0.7-2,1.3-4,1.9-5.8C86.7,87.1,85,85.9,83.4,84.7z"/>
	<path d="M116.9,145.8c3.2,0.1,5.6,2.7,5.4,5.9c-0.2,3-2.6,5.3-5.7,5.2c-3-0.1-5.5-2.5-5.5-5.5C111.1,148.3,113.8,145.7,116.9,145.8
		z"/>
	<path d="M144.8,151.5c-0.1,3.1-2.7,5.5-6,5.4c-3.1-0.1-5.3-2.5-5.3-5.6c0.1-3.2,2.7-5.6,5.9-5.5C142.4,146,144.8,148.6,144.8,151.5
		z"/>
</g>
</svg>
