<?xml version="1.0" encoding="utf-8"?>
<!-- Generator: Adobe Illustrator 22.1.0, SVG Export Plug-In . SVG Version: 6.00 Build 0)  -->
<svg version="1.1" id="Слой_1" xmlns="http://www.w3.org/2000/svg" xmlns:xlink="http://www.w3.org/1999/xlink" x="0px" y="0px"
	 viewBox="0 0 384 343.5" style="enable-background:new 0 0 384 343.5;" xml:space="preserve">
<g>
	<path d="M384,225.8c-0.8,3.2-1.5,6.6-2.5,9.7c-6.7,20.4-25.8,34.4-47.4,34.4c-27,0.1-54,0-81,0c-1.5,0-3,0-5,0
		c1,10.9,2,21.5,2.9,32.1c3.1,0.4,5.8,0.6,8.5,1.2c13.2,3.4,19.1,15.9,18.8,26.6c-0.2,7.1-6.3,12.7-13.8,13.4c-1,0.1-2,0.1-3,0.1
		c-46.4,0-92.7,0-139.1,0c-4.5,0-8.7-1-12-4.2c-3.6-3.4-5.2-7.7-4.5-12.6c2.1-14.4,10.8-23.6,25-24.2c0.6,0,1.2-0.1,2.2-0.2
		c1-10.6,2-21.2,3-32.3c-1.6,0-2.9,0-4.2,0c-20.1,0-40.2,0-60.4,0c-1.4,0-2.8,0.1-4.1-0.3c-2.7-0.7-4.3-2.7-4.2-5.5
		c0.1-3,1.8-4.9,4.8-5.3c1.5-0.2,3-0.1,4.5-0.1c86.6,0,173.2,0,259.9,0c19.4,0,34.7-11.5,39.2-29.6c0.5-2,0.9-4.2,1-6.3
		c0.2-3.1,0-6.2,0-9.6c-120.4,0-240.7,0-361,0c-3.2,19.8,9.1,38.9,28.2,44c1.1,0.3,2.2,0.5,3.3,0.8c3.4,0.9,5.3,3.7,4.6,6.6
		c-0.7,3.2-3.6,5-7.2,4.3c-13.6-2.8-24.4-9.9-32.2-21.4c-5.5-8.2-8.4-17.3-8.4-27.2C0,163.4-0.1,106.3,0.1,49.2
		C0.2,22.6,22.2,0.9,49.1,0.3C58.9,0,68.8,0.2,78.7,0.2c72.5,0,145,0,217.5,0c1.6,0,3.3,0,4.8,0.4c2.7,0.8,4.2,2.9,3.9,5.6
		c-0.2,2.9-2,4.8-5,5.1c-1.4,0.1-2.7,0.1-4.1,0.1c-81.1,0-162.2,0-243.4,0c-18.8,0-33.4,9.8-38.9,26.5c-1.3,3.8-2.1,8-2.1,12.1
		c-0.1,49.7-0.1,99.5-0.1,149.2c0,0.7,0.1,1.5,0.1,2.4c6.3,0,12.3,0,19.1,0c0-1.5,0-3.1,0-4.6c0-46.4,0-92.7,0-139.1
		c0-12.8,6.2-22.2,17.1-25.8c2.9-0.9,6.1-1.3,9.2-1.3c90.1-0.1,180.2-0.1,270.4,0c16.1,0,26.4,10.6,26.4,27.1c0,46.2,0,92.5,0,138.7
		c0,1.6,0,3.2,0,5c6.4,0,12.5,0,19.2,0c0-1.2,0-2.5,0-3.8c0-48.5,0-97,0-145.5c0-24.1-16.6-40.8-40.7-40.9c-2,0-4,0.1-6,0
		c-3.3-0.2-5.6-2.3-5.8-5.2c-0.2-3,1.9-5.6,5.1-5.9c31.2-2.9,51.4,15.6,57.1,37.9c0.5,2,1,4.1,1.5,6.1
		C384,104.8,384,165.3,384,225.8z M200.9,42.1c-1.4-0.1-2.6-0.2-3.8-0.2c-46.4,0-92.7,0-139.1,0c-11.1,0-16.3,5.2-16.3,16.3
		c0,46.5,0,93,0,139.4c0,1.3,0.1,2.6,0.2,3.9c53.2,0,106,0,159,0C200.9,148.4,200.9,95.4,200.9,42.1z M212.6,42
		c0,53.6,0,106.7,0,159.6c43.3,0,86.4,0,129.7,0c0-1.5,0-2.7,0-3.9c0-46.4,0-92.7,0-139.1c0-11.5-5.1-16.6-16.7-16.6
		c-36.2,0-72.5,0-108.7,0C215.5,42,214.2,42,212.6,42z M144.4,302.2c32,0,63.6,0,95.3,0c-1-10.8-2-21.4-2.9-31.9
		c-30,0-59.7,0-89.5,0C146.3,281.1,145.4,291.5,144.4,302.2z M192,332.2c22.7,0,45.5,0,68.2,0c1.1,0,2.3,0.1,3.4-0.1
		c2.7-0.4,3.9-2,3.5-4.7c-1.2-8.8-6.6-13.6-15.4-13.7c-39.7,0-79.4,0-119.1,0c-8.2,0-12.5,3.2-14.8,11c-1.7,5.9-0.6,7.4,5.7,7.4
		C146.3,332.3,169.1,332.2,192,332.2z"/>
	<path d="M181.4,235.8c0.1-5.9,4.9-10.7,10.7-10.6c5.9,0,10.6,4.8,10.7,10.7c0,6-5,11-10.9,10.9C186,246.6,181.3,241.7,181.4,235.8z
		"/>
	<path d="M144.4,192.7c-6.6-0.5-11.9-3.3-15-9.1c-1.1-2.1-2.3-2.7-4.6-2.7c-16.1,0.1-32.2,0.1-48.3,0c-2,0-4.4-0.6-5.7-1.9
		c-1.1-1.1-1.8-4-1.1-5.3c0.8-1.7,3-3.2,4.9-3.8c2-0.6,4.5-0.2,6.7-0.2c14.5,0,29,0,43.5,0c2.2,0,3.5-0.4,4.6-2.6
		c3.2-6,8.5-9.1,15.3-9.1c6.6,0,11.8,3.1,15,9c1.1,2.1,2.3,2.9,4.6,2.7c2.2-0.2,4.5-0.1,6.7,0c3.5,0.2,5.7,2.6,5.6,5.8
		c-0.1,3.1-2.2,5.1-5.5,5.4c-0.2,0-0.5,0-0.7,0c-5.5-0.7-10,0-13.1,5.9C154.7,191.2,149.4,192.5,144.4,192.7z M150.6,175.4
		c0.1-3.2-2.5-6-5.8-6.1c-3.5-0.2-6.3,2.4-6.3,5.9c-0.1,3.2,2.5,6,5.7,6.2C147.4,181.6,150.5,178.7,150.6,175.4z"/>
	<path d="M122.8,150.3c-15.1,0-30.2,0-45.4,0c-1.1,0-2.3,0-3.4-0.1c-3-0.4-4.7-2.3-4.9-5.2c-0.2-2.8,1.3-4.8,4.1-5.5
		c1.4-0.4,3-0.4,4.4-0.4c30.1,0,60.2,0,90.3,0c1.6,0,3.3,0,4.8,0.5c2.7,0.9,3.9,3,3.6,5.8c-0.3,2.7-1.9,4.3-4.5,4.7
		c-1.2,0.2-2.5,0.1-3.7,0.1C153,150.3,137.9,150.3,122.8,150.3z"/>
	<path d="M122.8,108.6c15.1,0,30.2,0,45.4,0c1.2,0,2.5-0.1,3.7,0.1c2.8,0.5,4.4,2.2,4.6,5.1c0.1,2.8-1.2,4.9-4,5.6
		c-1.4,0.4-3,0.4-4.5,0.4c-30.1,0-60.2,0-90.3,0c-0.7,0-1.5,0-2.2,0c-4-0.3-6.5-2.6-6.3-5.9c0.1-3.2,2.6-5.3,6.5-5.3
		C91.3,108.6,107,108.6,122.8,108.6z"/>
	<path d="M122.7,84.1c-5.4-0.1-10-2.1-13.7-6c-2.5-2.6-2.7-5.7-0.6-8.1c2.1-2.4,5.4-2.5,8.3-0.1c4.9,3.9,7.6,3.9,12.6-0.1
		c2.8-2.3,5.8-2.3,8,0c2.3,2.4,2.1,5.6-0.5,8.3C132.8,82.2,128.1,84.1,122.7,84.1z"/>
	<path d="M78,70c0-6.1,1.7-8.6,5.7-8.5c3.8,0.1,5.5,2.7,5.5,8.5c0,1.2,0.1,2.5-0.1,3.7c-0.4,3.4-2.8,5.5-5.9,5.4
		c-3.1-0.2-5-2.2-5.2-5.7C77.9,72.3,78,71.1,78,70z"/>
	<path d="M156.6,70c0-0.9,0-1.7,0-2.6c0.2-3.7,2.2-5.8,5.4-5.9c3.2-0.1,5.5,2,5.8,5.5c0.2,2.1,0.2,4.2,0,6.3
		c-0.3,3.6-2.4,5.7-5.6,5.7c-3.4,0-5.4-2.2-5.5-6.1C156.6,72,156.6,71,156.6,70z"/>
	<path d="M224.3,119.6c0-8.1,0.1-16.2,0-24.4c-0.1-4.9,1.8-8.3,6.1-10.7c12.1-6.8,24-13.8,36-20.7c7.3-4.3,14.7-4.3,22-0.1
		c12.2,7,24.4,14.1,36.6,21.1c3.7,2.1,5.6,5.3,5.6,9.5c0,17.1,0,34.2,0,51.3c0,4.1-1.9,7.1-5.4,9.2c-12.4,7.1-24.8,14.4-37.3,21.5
		c-7,4-14,3.9-21-0.1c-12.3-7.1-24.6-14.3-37-21.3c-3.9-2.2-5.6-5.4-5.6-9.8C224.3,136.6,224.3,128.1,224.3,119.6z M237.2,93.6
		c12.5,7.2,24.4,14.1,36.3,20.9c3.1,1.8,6.3,1,9.2-0.8c5.9-3.5,11.9-6.9,17.8-10.3c5.5-3.2,11-6.4,16.9-9.8
		c-12.5-7.2-24.4-14.2-36.5-20.7c-2-1.1-5.7-0.9-7.8,0.2C261.3,79.5,249.6,86.5,237.2,93.6z M282.9,166.2
		c12.1-7,23.4-13.4,34.7-20.1c1-0.6,1.6-2.4,1.6-3.7c0.1-11.2,0.1-22.5,0.1-33.7c0-0.8-0.2-1.6-0.4-2.6c-1,0.5-1.6,0.8-2.3,1.1
		c-10.7,6.1-21.5,12.1-32.2,18.3c-0.7,0.4-1.4,1.5-1.4,2.2C282.9,140.2,282.9,152.8,282.9,166.2z M235.5,105.6
		c0,13.1-0.1,25.6,0.1,38c0,1,1.3,2.3,2.3,2.9c7.6,4.5,15.3,8.9,23,13.3c3.4,2,6.8,3.9,10.8,6.2c0-11-0.4-21.4,0.1-31.6
		c0.3-5.8-1.2-9.2-6.7-12C255.2,117.5,245.8,111.6,235.5,105.6z"/>
</g>
</svg>
