<?xml version="1.0" encoding="utf-8"?>
<!-- Generator: Adobe Illustrator 22.1.0, SVG Export Plug-In . SVG Version: 6.00 Build 0)  -->
<svg version="1.1" id="Слой_1" xmlns="http://www.w3.org/2000/svg" xmlns:xlink="http://www.w3.org/1999/xlink" x="0px" y="0px"
	 viewBox="0 0 639.4 508.8" style="enable-background:new 0 0 639.4 508.8;" xml:space="preserve">
<g>
	<path fill="#fff" d="M139,231.8c0-3.5,0-6.1,0-8.7c0-49.7-0.1-99.5,0-149.2c0.1-35,21.2-63.3,53.6-71.5c6.6-1.7,13.6-2.3,20.4-2.3
		C330.4,0,447.8,0,565.3,0.1c43.5,0,73.9,30.7,74.1,74.4c0.1,12.2,0,24.4,0,36.6c0,1.3,0.1,2.7-0.1,4c-0.8,7.8-5.8,13-12.5,13
		c-7.1,0-12.3-5.4-12.4-13.7c-0.2-14,0.1-28-0.1-42c-0.3-22.9-13.5-40.2-35.2-45.9c-5.1-1.3-10.5-1.6-15.8-1.6
		c-116.1-0.1-232.2-0.1-348.3,0c-31.9,0-50.8,19.2-50.8,51.1c0,60.4,0,120.8,0,181.2c0,23.8,12.7,41.5,34.2,47.3
		c5.5,1.5,11.4,1.9,17.1,1.9c56.2,0.1,112.3,0.1,168.5,0.1c14,0,17.6,3.7,17.7,17.8c0,23.3,0,46.6,0,71.6c2.6-2.4,4.4-3.8,5.9-5.4
		c25.6-25.6,51.3-51.1,76.7-76.8c5.1-5.1,10.5-7.4,17.7-7.3c20.6,0.3,41.3,0.2,61.9,0.1c31-0.1,50.4-19.4,50.5-50.2
		c0-13.3-0.2-26.6,0.1-40c0.1-7.5,5-12.6,11.7-13c6.6-0.4,12.8,4.2,12.9,11.6c0.1,19.9,1.5,40.3-1.7,59.7
		c-5.6,33.9-35.5,56.4-71.3,56.8c-19.3,0.2-38.6-0.2-57.9,0.2c-3.5,0.1-7.8,1.8-10.3,4.2c-32.1,31.7-63.9,63.6-95.7,95.5
		c-1.6,1.6-3,3.8-4.9,4.4c-4.2,1.2-9.5,3.1-12.9,1.5c-3.4-1.5-6.6-6.8-7-10.7c-1-9.2-0.4-18.6-0.4-27.9c0-19.8,0-39.5,0-59.3
		c0-2.4,0-4.8,0-7.5c-21,0-41.1,0-62.4,0c0,2.3,0,4.6,0,6.9c0,17.5,0.1,35.1,0,52.6c-0.1,31.3-20.3,51.7-51.6,52
		c-28.2,0.2-56.4,0-84.6,0c-2.6,0-5.3,0-8.7,0c0,10.1,0,19.5,0,29c0,7.1-0.1,14.2,0,21.3c0.1,6-1.3,11.1-7.2,13.8
		c-6.4,2.9-11.5,0.3-16.1-4.3c-11.9-12-23.8-23.9-35.8-35.8c-8-8-14.9-18.8-24.6-22.8c-9.5-4-21.8-1.2-32.9-1.1
		c-17.1,0.1-31.8-5-42.7-18.9c-5.9-7.6-9.8-16.1-9.9-25.6c-0.2-40.8-0.7-81.7,0.1-122.5c0.4-24,20.7-43.6,44.9-44.2
		c28.2-0.7,56.4-0.3,84.6-0.4C132.5,231.8,135.2,231.8,139,231.8z M142.9,464.7c0.5-0.2,1.1-0.3,1.6-0.5c0-9.7-0.1-19.4,0-29
		c0.1-12.4,4.4-16.7,16.9-16.7c34.2,0,68.4,0.1,102.6,0c15.8-0.1,25.2-9.6,25.3-25.4c0.1-14,0-28,0-42c0-6.4,0-12.7,0-19.6
		c-3.3,0-5.7,0-8.1,0c-22.9,0-45.7,0.2-68.6,0c-36-0.3-64.4-22.7-71.9-56.5c-1.3-5.8-1.6-11.8-2.3-17.7c-0.8-0.2-1.4-0.5-2.1-0.5
		c-29.3,0-58.6-0.3-87.9,0.1c-14.6,0.2-23.4,9.5-23.5,24.3c-0.3,37.5-0.3,75,0,112.5c0.1,15.5,9.7,24.6,25.3,24.7
		c12.4,0.1,24.9,0.3,37.3-0.1c6.5-0.2,11.4,2.1,15.9,6.7C116.5,438.4,129.7,451.5,142.9,464.7z"/>
	<path fill="#fff" d="M389.9,149.3c38.6,0,77.2,0,115.8,0c2.4,0,4.9-0.1,7.3,0.3c6,1,10.4,6.3,10.3,12.1c0,5.6-4,10.6-9.8,11.8
		c-2.8,0.6-5.7,0.7-8.6,0.7c-77.2,0-154.4,0-231.6,0c-12.1,0-18.4-4.3-18.3-12.6c0.1-8.3,6-12.3,18.4-12.3
		C312.2,149.3,351.1,149.3,389.9,149.3z"/>
	<path fill="#fff" d="M389.1,106.8c-37.9,0-75.9,0-113.8,0c-1.6,0-3.1,0-4.7,0c-9.6-0.1-15.7-5-15.7-12.6c0.1-7.5,6.1-12.5,15.8-12.5
		c79,0,158,0,236.9,0c11.4,0,18,7.4,14.8,16.5c-2.5,7-8.2,8.6-14.9,8.6c-28.2,0-56.3,0-84.5,0C411.7,106.8,400.4,106.8,389.1,106.8z
		"/>
	<path fill="#fff" d="M337.9,241.5c-22.9,0-45.7,0.1-68.6,0c-10.2-0.1-16.7-7.3-13.3-15.6c1.4-3.5,5.5-6.4,9-8.5c2.2-1.3,5.6-0.8,8.5-0.8
		c42.8,0,85.7,0,128.5,0c2,0,4,0,6,0.2c8,1,12.5,5.9,12.1,13.1c-0.4,6.8-5.2,11.3-12.9,11.6c-6.9,0.2-13.8,0.1-20.6,0.1
		C370.3,241.5,354.1,241.5,337.9,241.5z"/>
	<path fill="#fff" d="M639.2,165.5c0.1,6.6-5.4,12.3-12,12.4c-6.6,0.2-12.4-5.2-12.7-11.8c-0.3-6.8,5.5-12.8,12.4-12.8
		C633.4,153.4,639,158.9,639.2,165.5z"/>
</g>
</svg>
