<?xml version="1.0" encoding="utf-8"?>
<!-- Generator: Adobe Illustrator 22.1.0, SVG Export Plug-In . SVG Version: 6.00 Build 0)  -->
<svg version="1.1" id="Слой_1" xmlns="http://www.w3.org/2000/svg" xmlns:xlink="http://www.w3.org/1999/xlink" x="0px" y="0px" viewBox="0 0 384 384" style="enable-background:new 0 0 384 384;" xml:space="preserve">
	<style type="text/css">
		path {
			fill: #fff;
		}
	</style>
	<g>
		<path d="M384,297.8c0,1.5,0,3,0,4.5c-9.7,14-20.8,26.8-33.8,37.9c-43.7,37-93.8,50.9-150.1,40.6c-36.2-6.6-66.7-24.5-92.7-50.3
		c-1.8-1.8-3.2-2.3-5.7-1.1c-13.3,6.2-27.2,8.2-41.6,5.7C25.6,328.9,0.3,299.4,0,265c-0.3-35.1,24.1-64.9,58.7-71.8
		c1.8-0.4,3.6-0.7,5.5-1.1c-0.3-1.6-0.5-2.8-0.8-4c-4-18.4-4.6-36.9-1.7-55.5C71.8,68.4,119.1,18,182.6,3.7
		c7.5-1.7,15.2-2.5,22.9-3.7c7,0,14,0,21,0c6.4,1,12.8,1.7,19.2,2.9c111.6,21.1,163.5,152.8,96.5,244.6c-0.9,1.2-1.7,2.4-2.5,3.6
		c3.8,3.1,7.4,6,10.9,9C363.4,271.2,374.4,283.9,384,297.8z M168,299.6c0,18.2,0,36.5-0.1,54.7c0,2.4,0.5,3.8,2.9,4.8
		c42.2,17.3,84.3,17.2,126.5,0c2.1-0.9,2.7-2,2.7-4.2c-0.1-36.6-0.1-73.2,0-109.9c0-2.2-0.7-3.3-2.8-4.1
		c-42.2-17.4-84.3-17.4-126.5-0.1c-2.2,0.9-2.9,2.1-2.9,4.4C168,263.4,168,281.5,168,299.6z M171.2,93.5c0,6.1,0.5,11.4-0.1,16.5
		c-0.7,6-2.1,12.1-3.6,18c-4.5,17.7-7.4,35.4-4,53.7c2.8,15.3,8.5,29.4,16.8,42.7c17.6-5.8,35.5-8.3,54-8.5
		c11.4-49.3,5.6-96.1-16.7-140.9C199.3,79,180,86.9,171.2,93.5z M278.2,75.7c-0.4,0.3-0.8,0.6-1.2,0.9c3,4.9,5.8,10.1,9.2,14.8
		c5,7,10.7,13.5,15.7,20.5c12.6,17.6,16.5,37.3,13.4,58.7c-2.7,18.3-9.4,35.1-17.9,51.3c-0.8,1.6-1.6,3.2-2.2,4.3
		c11.8,5.9,23.1,11.7,34.7,17.5c0.4-0.6,1.2-1.4,1.8-2.3c23.2-32.2,32.2-68,26.5-107.3c-0.7-4.7-0.8-9.6-4.4-13.6
		c-10-11-21.2-20.5-33.9-28.1C306.9,84.6,293,79,278.2,75.7z M283.5,222.3c8.9-16.1,16.5-33,19.7-51.8c3.5-20.6-0.8-39.2-13.8-55.6
		c-3.8-4.8-7.6-9.6-11.4-14.4c-5.9-7.5-10.8-15.5-13.1-25c-0.2-0.9-1.3-2.3-2.1-2.4c-10.8-1.3-21.5-1.6-32.8,0.1
		c21.8,46,27.5,93.6,16.6,142.6C259.1,218,270.9,220.1,283.5,222.3z M36.1,216.3c23.1,27.3,24.5,66.2,0.1,95.3
		c16.1,13.6,43,16.1,59.8,6.8c-3.5-4.7-6.9-9.4-10.4-14.2c-2.1-2.9-2.1-5.7,0-8.6c1.9-2.6,3.7-5.4,5.7-7.9c1.5-1.8,1.7-3.5,1.1-5.8
		c-3.6-13.1-3.2-26.2,0.7-39.1c3-9.9,8.1-18.7,14.8-26.5C89.6,200.1,55.3,200.1,36.1,216.3z M154.4,90.1c-4.2-5.1-9.4-7.8-15.1-9.8
		c-13.2-4.6-26.9-5.2-40.7-5.1c-1.1,0-2.6,1.3-3.3,2.4c-7.8,11.8-13.7,24.6-17.6,38.3c-7,24.2-7.6,48.5-1.8,72.9
		c0.3,1.3,1.2,3.1,2.2,3.3c4.3,1,8.8,1.5,13.4,2.2c3.1-20.9,9.9-40.3,20.8-58.2C123.2,118,137.3,102.8,154.4,90.1z M160.1,102.4
		c-0.5-0.1-0.9-0.2-1.4-0.4c-0.4,0.3-0.9,0.5-1.2,0.8c-30,24-48.1,54.9-54,92.9c-0.4,2.5,0.4,3.7,2.6,4.9
		c16,8.7,27.2,21.7,33.5,38.8c0.4,1,0.9,1.9,1.2,2.8c9.3-4.8,18.3-9.4,27.5-14.1c-0.8-1.4-1.5-2.7-2.2-4
		c-11.2-20.6-17.8-42.5-15.8-66.1c1.1-12.8,4.5-25.5,6.8-38.2C158.2,114.1,159.1,108.2,160.1,102.4z M164.7,83.3
		c14.6-9.1,30-15.2,46.5-19.3c-0.8-1.5-1.4-2.4-2-3.4c-9.1-14.7-20-28-32.4-40.1c-1.9-1.9-3.5-2-5.9-1.2
		c-17.6,5.9-33.6,14.7-47.6,26.8c-5.9,5.1-11.2,10.9-16.6,16.2c10.6,1.7,21,2.9,31.2,5.1C148.3,69.6,157.5,74.6,164.7,83.3z
		 M264.4,60c1.6-12.2,7.7-22.8,15.7-32.5C261,14.4,207.3,7.1,189,15.1c0.2,0.3,0.3,0.7,0.6,0.9c12.9,13.2,24,27.8,33.4,43.7
		c0.6,0.9,2.6,1.5,4,1.4c5.5-0.2,11-0.9,16.4-1.1C250.2,59.9,257,60,264.4,60z M27,224.8C5.7,248,8.5,284.2,27.1,303
		C46.5,283.1,47.3,246.2,27,224.8z M346.3,95.9c-12-26.5-30.4-47.2-54.9-62.5c-8.6,8.4-14.8,20.9-14.7,29.7
		C302.5,68.3,325.7,79.4,346.3,95.9z M131.8,335.9c0-24.4,0-47.7,0-71.4c-0.7,0.4-1.1,0.6-1.5,0.9c-11.6,9.4-22,20-31.2,31.8
		c-1.8,2.3-1.6,3.8,0.2,5.7c6.7,7.4,13.3,14.9,20.2,22.1C123.1,328.8,127.3,332,131.8,335.9z M336.2,264.4c0,24,0,47.4,0,71.2
		c10.1-7.9,19-16.5,26.9-25.9c2.6-3.1,6.7-6.5,6.8-9.9c0.1-3.1-4.2-6.4-6.7-9.5C355.2,280.9,346.4,272.4,336.2,264.4z M155.8,351.7
		c0-34.8,0-68.9,0-103.6c-3.9,2.4-7.4,4.5-10.8,6.7c-0.6,0.4-1,1.6-1,2.5c-0.1,28.3-0.1,56.7,0,85c0,0.9,0.5,2.3,1.2,2.8
		C148.5,347.4,152,349.4,155.8,351.7z M312.1,351.9c3.9-2.4,7.3-4.3,10.4-6.5c0.8-0.6,1.4-2,1.4-3.1c0.1-28.2,0.1-56.5,0-84.7
		c0-0.9-0.2-2.2-0.8-2.6c-3.5-2.3-7.1-4.4-11-6.8C312.1,283,312.1,317.1,312.1,351.9z M117.2,224.7c-11.4,10.3-18.6,36-14.1,48.2
		c8.5-7.2,17.2-14.5,25.7-22c0.7-0.6,1-2.2,0.8-3.2C127.3,239.2,123.3,231.5,117.2,224.7z" />
		<path d="M257.8,306.2c-5.9,0-11.6,0-17.7,0c-0.7,4.7,1.4,11.9-6.6,11.6c-7.1-0.3-5.3-6.8-5.7-11.6c-5.9,0-11.6,0-17.9,0
		c0,1.7,0.1,3.5,0,5.3c-0.2,3.9-2.5,6.4-5.9,6.4c-3.4,0-5.9-2.5-6-6.3c-0.1-1.7,0-3.5,0-5.5c-4.9-0.7-12.1,1.4-11.8-6.6
		c0.3-7.1,6.9-5.2,11.6-5.7c0.6-4.8-1.5-11.3,6.3-11.8c4.2-0.3,5.5,2.5,6,11.6c5.8,0,11.6,0,17.7,0c0.7-4.6-1.5-11.8,6.6-11.5
		c7.1,0.3,5.3,6.8,5.7,11.6c6,0,11.8,0,17.6,0c1.3-9.8,2.5-12,6.6-11.8c4,0.2,5.2,2.5,5.9,11.8c4.7,0.6,11.9-1.5,11.5,6.5
		c-0.3,7.1-6.8,5.3-11.6,5.7c-0.7,4.8,1.4,11.3-6.4,11.8C259.6,318.2,258.3,315.4,257.8,306.2z" />
	</g>
</svg>