<?xml version="1.0" encoding="utf-8"?>
<!-- Generator: Adobe Illustrator 22.1.0, SVG Export Plug-In . SVG Version: 6.00 Build 0)  -->
<svg version="1.1" id="Слой_1" xmlns="http://www.w3.org/2000/svg" xmlns:xlink="http://www.w3.org/1999/xlink" x="0px" y="0px"
	 viewBox="0 0 384 384.2" style="enable-background:new 0 0 384 384.2;" xml:space="preserve">
<g>
	<path d="M384,330c0,10,0,20,0,30c-3.6,16.1-15.6,24.3-34.5,24.2c-69.8-0.5-139.7-0.2-209.5-0.2c-36.6,0-73.2,0-109.8,0
		C11.7,384,0,372.2,0,353.7c0-6.6,0-13.2,0-19.9c0-5.9,1.7-7.6,7.5-7.6c5.2,0,10.4,0,15.7,0c0-2.2,0-3.8,0-5.4
		c0-61.7,0-123.5,0-185.2c0-12.4,6.7-19.1,19.3-19.1c27.5,0,55,0,82.5,0c1.5,0,2.9,0,4.5,0c0.9-5.4,1.6-10.5,2.5-15.5
		c5.9-30.7,17-59.2,35.6-84.5c5.4-7.3,11.6-13.7,20.6-16.5c2.5,0,5,0,7.5,0c9,2.8,15.2,9.2,20.6,16.5c13.6,18.2,23.3,38.4,29.6,60.2
		c3.7,12.9,6.2,26.1,9.4,39.8c0.7,0,2,0,3.3,0c8.6,0,17.2-0.1,25.9,0c4,0,6.5,2.5,6.4,5.8c-0.1,3.2-2.5,5.3-6.4,5.4
		c-7.2,0.1-14.5,0-21.7,0c-2.3,0-4.7,0-6.9,0c0,4.2,0,7.9,0,12.1c1.8,0,3.2,0,4.7,0c22.6,0,45.2,0,67.9,0c7.6,0,9,1.4,9,8.9
		c0,57.6,0,115.2,0,172.8c0,1.5,0,2.9,0,4.4c4.3,0,8,0,12,0c0-1.6,0-3,0-4.4c0-61.7,0-123.5,0-185.2c0-7.1-1.5-8.6-8.5-8.6
		c-10.1,0-20.2,0.1-30.4,0c-4.6,0-7.3-3.4-6-7.3c1-3.1,3.5-3.9,6.5-3.9c10,0,20,0,30,0c13.1,0,19.6,6.5,19.6,19.5
		c0,61.9,0,123.7,0,185.6c0,1.4,0,2.9,0,4.6c5.5,0,10.5,0.2,15.4-0.1C379.6,326,382.3,326.9,384,330z M57.8,151.2c0,1.7,0,3.1,0,4.5
		c0,30.2,0,60.5,0,90.7c0,1.2,0.1,2.5-0.1,3.7c-0.4,3-2.1,4.8-5.1,5c-3.1,0.2-5-1.4-5.8-4.2c-0.3-1.2-0.2-2.5-0.2-3.7
		c0-33,0-66,0-99c0-6.8,1.6-8.4,8.4-8.4c22.9,0,45.7,0,68.6,0c1.4,0,2.9,0,4.6,0c0-4.2,0-7.9,0-12.1c-1.3,0-2.5,0-3.7,0
		c-27.2,0-54.5,0-81.7,0c-6.5,0-8.2,1.7-8.2,8.2c0,62,0,124,0,186c0,1.3,0,2.7,0,4c4.3,0,8.1,0,12,0c0-1.7,0-3,0-4.4
		c0-15.4,0-30.7,0-46.1c0-4.2,2-6.7,5.4-6.8c3.5-0.2,5.8,2.4,5.8,6.7c0,15.6,0,31.2,0,46.9c0,1.3,0,2.6,0,4.1c3.5,0,6.4-0.2,9.2,0
		c2.5,0.2,3.6-0.6,4.5-3.1c4.4-12.5,15.7-20.2,29-20.2c4.5,0,9-0.1,13.5,0c2.3,0.1,3.1-0.7,3.9-2.9c3.3-9.2,9.6-15.7,18.9-18.9
		c2.3-0.8,3.2-1.9,2.9-4.3c-1.6-11.5,1.6-21.9,7.7-31.6c1.1-1.7,1.8-3.5,2.7-5.4c0.3-0.8,0.8-1.7,0.6-2.4c-1.4-4.7-2.9-9.4-4.5-14.2
		c-14.9,6.8-29.3,13.5-43.8,19.8c-1.9,0.8-5.2,0.7-6.8-0.4c-1.4-1-2.2-4.2-1.9-6.2c3.2-20.5,6.8-40.9,9.9-61.4
		c1-6.4,3.1-11.6,8.2-15.7c2.8-2.3,5.2-5.1,8.3-8.2C98.8,151.2,78.6,151.2,57.8,151.2z M11.3,337.4c0,5.4,0,10.3,0,15.3
		c0,13.6,6.3,20,19.9,20c107.2,0,214.5,0,321.7,0c1.4,0,2.8,0,4.1,0c6.7-0.4,13.6-4.9,14.7-11.5c1.3-7.7,1-15.7,1.5-23.5
		c-1.2-0.2-1.5-0.3-1.7-0.3c-35,0-70,0-105,0.1c-1.4,0-3.1,0.9-4.1,1.9c-6.3,6.1-12.3,12.5-18.7,18.4c-1.6,1.5-4.3,2.7-6.6,2.7
		c-10.5,0.3-21,0.1-31.5,0.1c-4.4,0-6.9-2.1-6.9-5.6c0-3.6,2.4-5.6,6.9-5.6c9.2,0,18.5,0,27.7,0c1.2,0,2.7,0,3.5-0.7
		c3.8-3.3,7.4-6.8,11.1-10.2c-0.2-0.2-0.5-0.5-0.7-0.7c-36.8,0-73.6,0-111.5,0c4,3.9,7.3,7.2,10.8,10.2c1,0.9,2.6,1.4,4,1.4
		c9.2,0.1,18.5,0,27.7,0.1c4.5,0,7,2,7.1,5.5c0.1,3.6-2.6,5.8-7.2,5.8c-10.4,0-20.8,0.2-31.1-0.1c-2.2-0.1-4.9-1.2-6.5-2.7
		c-6-5.6-11.8-11.5-17.5-17.5c-2.1-2.1-4.1-3.1-7.1-3c-16.5,0.2-33,0.1-49.5,0.1C48.1,337.4,30,337.4,11.3,337.4z M192.1,233
		c9.1,0,18.2-0.1,27.4,0c2.3,0,3.5-0.5,4.3-2.9c3.4-11.5,7.3-22.8,10.8-34.3c4.9-16.1,9.5-32.4,10-49.4c0.8-25.8-3.5-50.7-12.1-75
		c-0.6-1.7-2.1-3.5-3.6-4.3c-24.6-12.9-49.3-12.9-73.8,0.3c-1.4,0.8-2.8,2.5-3.3,4.1c-3.3,12.5-7.1,25-9.4,37.7
		c-3.4,18.8-4.8,37.8,0.2,56.5c5.8,21.7,12,43.3,18,64.9c0.6,2.4,2.1,2.4,3.9,2.4C173.6,233,182.8,233,192.1,233z M265,151.2
		c-0.2,0.3-0.5,0.6-0.7,0.9c3.8,3.6,7.8,7,11.2,10.9c1.8,2,3.4,4.7,3.9,7.3c3.8,21.8,7.3,43.6,11,65.4c0.5,2.8,0.7,5.3-1.7,7.2
		c-2.5,2-5.1,1.3-7.7,0.1c-12.7-5.8-25.4-11.6-38.1-17.4c-1.6-0.7-3.3-1.4-5.2-2.3c-1.1,3.5-1.7,6.6-3,9.4c-1.7,3.9-1.2,7.3,1,10.9
		c6.4,10.4,10.5,21.5,8.7,34c-0.3,2.3,0.9,2.9,2.8,3.5c8.6,2.7,14.7,8.3,18.2,16.6c0.7,1.7,1.2,3.5,1.9,5.4c1.3,0,2.6,0,3.8,0
		c4.1,0,8.2,0,12.4,0c13.5,0.1,24.4,7.8,29.3,20.5c0.4,1.1,1.5,2.6,2.4,2.6c3.6,0.3,7.2,0.1,10.8,0.1c0-58.6,0-116.7,0-175
		C305.4,151.2,285.2,151.2,265,151.2z M301.1,326c-2.2-6.6-9.1-11.7-15.9-11.8c-6.9-0.1-13.7,0-20.6,0c-6.3,0-7.5-1-8.4-7.3
		c-1.3-9-7.5-15.1-15.9-15.9c-6-0.5-7.3-1.9-7.3-8c0-5,0-9.9,0-15.3c-4,0-7.6,0.1-11.2,0c-2.3-0.1-3.5,0.7-4.5,2.8
		c-6.3,12.8-12.7,25.4-19,38.2c-1.4,2.8-2.8,5.5-6.4,5.5c-3.4-0.1-4.8-2.7-6.1-5.3c-6.3-12.7-12.7-25.5-19.1-38.1
		c-0.6-1.1-1.6-2.7-2.5-2.8c-4.3-0.3-8.6-0.1-13.2-0.1c0,6,0.1,11.3,0,16.7c-0.1,4.3-1.8,6.1-6,6.6c-9.5,1.2-16,7.5-17.2,16.9
		c-0.7,4.9-2.3,6.4-7.4,6.4c-7.2,0-14.5-0.1-21.7,0.1c-6.8,0.1-14.1,5.8-15.5,11.8C155.7,326,228.4,326,301.1,326z M106.2,228.5
		c0.8-0.1,1.2-0.1,1.5-0.2c11-5,22-10.1,33-15c2.3-1,1.8-2.4,1.3-4.2c-3.3-12.3-6.5-24.6-9.6-36.9c-1.2-4.6-2-9.3-3.1-14.8
		c-4.6,4.8-8.7,8.8-12.6,13c-0.8,0.8-1.1,2.2-1.3,3.3c-2,11.8-4,23.6-6,35.4C108.4,215.6,107.3,222,106.2,228.5z M277.4,228.8
		c0-1.3,0.1-2.3,0-3.2c-2.9-17.2-5.8-34.5-8.7-51.7c-0.2-1-0.2-2.2-0.8-2.8c-4.1-4.3-8.3-8.4-12.3-12.4c-4.7,18-9.4,35.8-14,53.7
		C253.3,217.9,265.2,223.3,277.4,228.8z M159.3,52.6c22.2-8.3,43.4-8.2,65.4-0.1c-1.4-2.9-2.3-5.1-3.6-7c-6.6-9.8-12.7-20-20-29.3
		c-5.5-6.9-11.6-6.7-17.7-0.5C173.1,26.1,166.2,38.8,159.3,52.6z M154.7,256c25.2,0,49.6,0,74.7,0c-1.9-3.7-3.4-7.1-5.2-10.3
		c-0.5-0.8-2-1.4-3.1-1.4c-19.3-0.1-38.7-0.1-58,0c-1.1,0-2.6,0.5-3.1,1.3C158.1,248.8,156.6,252.2,154.7,256z M206,267.9
		c-9.6,0-18.5,0-28,0c4.7,9.4,9.2,18.3,14,27.9C196.9,286.1,201.3,277.2,206,267.9z"/>
	<path d="M191.9,174.3c-22.6-0.1-40.5-18.4-40.4-41c0.2-22,18.6-40.2,40.7-40.1c22.5,0.2,40.6,18.6,40.4,41.1
		C232.3,156.4,214,174.4,191.9,174.3z M192.1,163c16.2-0.1,29.2-13.2,29.2-29.5c-0.1-16-13.2-29.1-29.2-29.1
		c-16.1-0.1-29.4,13.2-29.3,29.3C162.8,150,175.9,163.1,192.1,163z"/>
	<path d="M192.2,151c-9.5,0.1-17.3-7.4-17.4-16.8c-0.2-9.6,7.5-17.5,17.1-17.6c9.3-0.1,17.3,7.6,17.4,16.9
		C209.4,143.1,201.8,150.9,192.2,151z M192,139.7c3.3,0,6-2.5,6-5.8c0.1-3.4-2.8-6.2-6.1-6.1c-3.2,0.1-5.9,2.8-5.8,6
		C186,137.1,188.6,139.7,192,139.7z"/>
</g>
</svg>
