<?xml version="1.0" encoding="utf-8"?>
<!-- Generator: Adobe Illustrator 22.1.0, SVG Export Plug-In . SVG Version: 6.00 Build 0)  -->
<svg version="1.1" id="Слой_1" xmlns="http://www.w3.org/2000/svg" xmlns:xlink="http://www.w3.org/1999/xlink" x="0px" y="0px"
	 viewBox="0 0 340.9 325" style="enable-background:new 0 0 340.9 325;" xml:space="preserve">
<g>
	<path d="M169.2,0c7,0,10.6,2.8,13,7.8c14.5,29.6,29.1,59.1,43.7,88.7c1.1,2.2,2.3,3.3,4.9,3.7c32.4,4.6,64.7,9.4,97.1,14
		c9.1,1.3,14,6.1,12.8,13.7c-0.5,2.9-2.3,6.1-4.5,8.3c-23.6,23.3-47.3,46.3-71.1,69.4c-1.8,1.7-2.4,3.2-1.9,5.8
		c5.8,33,11.3,65.9,17,98.9c0.9,5-0.5,9.2-4.6,12.2c-4.2,3.1-8.8,3.1-13.4,0.6c-29.4-15.5-58.8-30.9-88.1-46.4
		c-2.7-1.4-4.6-1.3-7.2,0.1c-29,15.4-58.1,30.6-87.1,45.9c-4.2,2.2-8.4,3.1-12.8,0.8c-4.6-2.5-7.1-7.2-6.2-12.6
		c4.2-24.7,8.4-49.5,12.7-74.2c1.5-8.9,3.2-17.7,4.5-26.6c0.2-1.3-0.8-3.3-1.9-4.3c-22-21.6-44.2-43.1-66.3-64.7
		c-2-1.9-3.9-3.9-5.9-5.8c-3.6-3.5-4.7-7.7-3.3-12.4c1.4-4.7,4.8-7.5,9.7-8.3c18.5-2.7,37.1-5.4,55.6-8.1
		c14.7-2.1,29.4-4.4,44.1-6.4c2.7-0.4,4.1-1.4,5.2-3.8c14.5-29.6,29.2-59.1,43.7-88.7C161.4,2.7,165,0,169.2,0z"/>
</g>
</svg>
