<?xml version="1.0" encoding="utf-8"?>
<!-- Generator: Adobe Illustrator 22.1.0, SVG Export Plug-In . SVG Version: 6.00 Build 0)  -->
<svg version="1.1" id="Слой_1" xmlns="http://www.w3.org/2000/svg" xmlns:xlink="http://www.w3.org/1999/xlink" x="0px" y="0px"
	 viewBox="0 0 499.4 512" style="enable-background:new 0 0 499.4 512;" xml:space="preserve">
<g>
	<path d="M276.2,0c2.8,2.3,5.4,4.8,8.4,6.7c1.5,1,3.6,1.3,5.5,1.3C346,8,402,8,458,8c22.6,0,34.7,12.2,34.7,35
		c0,103.8-0.2,207.7,0.2,311.5c0.1,21.8-15,35.1-34.6,34.9c-55.8-0.6-111.7-0.2-167.5-0.3c-3.3,0-6.3-0.1-8,3.4
		c-0.3,0.6-0.9,1-1.4,1.4c-7.2,5.9-26.6,4.3-32.9-2.5c-1.1-1.2-3.3-2.1-5-2.1c-6.2-0.3-12.3,0-18.5-0.1
		c-11.1-0.2-18.7-7.6-19.2-18.8c-0.1-1.3,0-2.7,0-4c0-74.3,0-148.7,0-223c0-1.8,0-3.7,0.2-5.5c0.6-4.1,3.2-6.2,7.2-6.2
		c4,0,6.6,2.1,7.3,6.2c0.3,2.1,0.3,4.3,0.3,6.5c0,73.7,0,147.3,0,221c0,8.7,0.2,8.9,9,8.9c5.1,0,10.3,0,15.8,0
		c0-117.2,0-233.9,0-351.1c-7.1,0-13.9-0.2-20.6,0.1c-3.9,0.1-4.1,3.2-4.1,6.2c0,11.8,0,23.7,0,35.5c0,12.7,0,25.3,0,38
		c0,1.7,0,3.4-0.3,5c-0.7,3.8-3.4,5.9-7,5.9c-3.9,0-6.8-2.1-7.3-6.1c-0.4-3.8-0.3-7.6-0.3-11.5c0-22.2-0.1-44.3,0-66.5
		c0-14.2,7.5-21.6,21.6-21.6c0.3,0,0.7,0,1,0c10.3,0.9,20.3,0.5,27.9-8C262.8,0,269.5,0,276.2,0z M287,373.9
		c1.9,0.1,3.5,0.2,5.2,0.2c55.8,0,111.6,0,167.4,0c12.1,0,18.1-6,18.1-18.1c0-105,0-209.9,0-314.9c0-12.1-6.1-18.1-18.1-18.1
		c-55.8,0-111.6,0-167.4,0c-1.6,0-3.2,0-5.1,0C287,140.3,287,256.9,287,373.9z M261.1,15.2c0,122.5,0,244.5,0,366.6
		c3.6,0,6.9,0,10.3,0c0-122.3,0-244.4,0-366.6C267.9,15.2,264.7,15.2,261.1,15.2z"/>
	<path d="M411.2,512c-3.5-2.4-6.2-5.3-4.6-9.9c1.6-4.6,5.5-5.1,9.8-5.1c20.3,0.1,40.7,0.1,61,0c6.1,0,6.8-0.7,6.8-7
		c0-19.5,0-39,0-58.5c0-5.9-0.7-6.6-6.7-6.6c-8.3,0-16.6,0-25.3,0c0,4,0.1,7.5,0,10.9c-0.2,4.7-3.3,7.8-7.4,7.8
		c-4.1,0-7.2-3.1-7.5-7.8c-0.1-1.8,0-3.7,0-5.5c0-1.6,0-3.3,0-5.2c-6.9,0-13.3,0-20.4,0c0,3.4,0.1,6.7,0,10
		c-0.2,5.3-3.4,8.6-7.9,8.5c-4.3-0.2-6.9-3.3-7.1-8.6c-0.1-3.1,0-6.3,0-9.7c-7,0-13.6,0-20.6,0c0,3.5,0.1,6.8,0,10.1
		c-0.1,5.1-3.1,8.3-7.4,8.3c-4.3,0-7.3-3.3-7.6-8.3c-0.1-1.7,0-3.3,0-5c0-1.6,0-3.2,0-5.2c-6.9,0-13.3,0-20.3,0c0,3.4,0.1,6.7,0,10
		c-0.2,5.3-3.4,8.6-7.9,8.4c-4.3-0.2-6.9-3.3-7.1-8.6c-0.1-3.1,0-6.3,0-9.7c-7,0-13.5,0-20.6,0c0,3.5,0.1,6.8,0,10.1
		c-0.1,5.1-3,8.3-7.4,8.3c-4.3,0-7.3-3.3-7.6-8.3c-0.1-1.7,0-3.3,0-5c0-1.6,0-3.3,0-5.1c-6.9,0-13.3,0-20.3,0c0,3.4,0.1,6.7,0,10
		c-0.2,5.3-3.4,8.6-7.9,8.4c-4.3-0.2-7-3.3-7.1-8.6c-0.1-3.1,0-6.3,0-9.7c-7,0-13.5,0-20.6,0c0,3.5,0.1,6.8,0,10.1
		c-0.2,5.1-3.1,8.3-7.4,8.3c-4.3,0-7.3-3.2-7.5-8.3c-0.1-3.3,0-6.6,0-10.1c-1.6-0.1-2.7-0.3-3.9-0.3c-5.3,0-10.6,0-16.5,0
		c0,3.7,0.1,7,0,10.3c-0.2,5-3.1,8.3-7.4,8.4c-4.5,0.1-7.5-3.2-7.6-8.6c-0.1-3.1,0-6.3,0-9.7c-7,0-13.5,0-20.6,0
		c0,3.5,0.1,6.8,0,10.1c-0.2,5.1-3.1,8.3-7.4,8.3c-4.3,0-7.2-3.2-7.5-8.3c-0.1-1.7,0-3.3,0-5c0-1.6-0.1-3.2-0.2-5.1
		c-6.7,0-13.1,0-20.1,0c0,3.6,0.1,7,0,10.5c-0.2,4.7-3.2,7.8-7.3,7.9c-4.3,0.1-7.4-3.1-7.6-8.1c-0.1-1.7,0-3.3,0-5
		c0-1.6,0-3.3,0-5.3c-6.9,0-13.4,0-20.6,0c0,3.5,0.1,6.8,0,10.1c-0.2,5.1-3.2,8.3-7.5,8.2c-4.3,0-7.2-3.2-7.4-8.3
		c-0.1-3.3,0-6.6,0-10.1c-1.7-0.1-2.8-0.3-4-0.3c-5.3,0-10.6,0-16.5,0c0,3.8,0.1,7.3,0,10.7c-0.2,4.7-3.2,7.9-7.3,8
		c-4.3,0.1-7.5-3.1-7.6-8.1c-0.1-3.3,0-6.6,0-10.6c-9.6,0-18.8-0.2-28.1,0.2c-1.4,0.1-3.7,2.7-3.7,4.2c-0.2,21-0.2,42-0.2,63
		c0,3,1.6,4.6,4.6,4.7c1.5,0,3,0,4.5,0c116.8,0,233.6,0,350.4,0c1.2,0,2.3,0.1,3.5,0c4.3-0.3,8.2,0.6,9.7,5.2c1.5,4.6-1,7.6-4.8,9.8
		c-122.7,0-245.3,0-368,0C3.9,507.9-0.3,499.8,0,488c0.5-19.1,0.1-38.3,0.1-57.5c0-12.8,7.7-20.6,20.4-20.7c152.8,0,305.5,0,458.3,0
		c12.5,0,20.3,7.7,20.3,20.2c0.1,19.5-0.3,39,0.1,58.5c0.3,11.7-4.1,19.5-15.2,23.4C459.8,512,435.5,512,411.2,512z"/>
	<path d="M50.2,0c6.3,2.1,9.8,6.7,12.1,12.9c4.6,12.3,9.5,24.5,14.6,36.6c1.9,4.5,5.2,8.4,7.1,12.9c1.9,4.5,3.9,9.3,4,14.1
		c0.3,55.3,0.2,110.7,0.2,166c0,43.5,0,87,0,130.5c0,15.2-7.2,22.3-22.3,22.3c-12.8,0-25.7,0-38.5,0c-12.9-0.1-20.5-7.5-20.6-20.5
		c-0.1-14.5,0-29,0-43.5c0-84.2,0-168.3-0.1-252.5c0-7.6,0.9-14.6,7.1-19.9c1.2-1,1.6-2.9,2.2-4.4c5.4-13.6,11-27.1,16.1-40.9
		C34.4,7.3,37.7,2.4,44.2,0C46.2,0,48.2,0,50.2,0z M39.7,69.9c-3.7,0-6.8,0-10,0c-7.6,0-8,0.4-8,7.8c0,84.3,0,168.5,0,252.8
		c0,1.8,0.2,3.5,0.3,5.2c6.2,0,12,0,17.7,0C39.7,247,39.7,158.8,39.7,69.9z M73.1,335.8c0-1.9,0-3.2,0-4.5c0-84.8,0-169.5,0-254.3
		c0-1.2,0.3-2.6-0.2-3.4c-0.9-1.4-2.2-3.4-3.5-3.5c-4.7-0.4-9.5-0.2-14.1-0.2c0,89.1,0,177.4,0,265.9
		C61.3,335.8,66.9,335.8,73.1,335.8z M73.1,351.4c-17.4,0-34.3,0-51.4,0c0,8.2,0,16,0,23.8c0,3.5,1.7,5.1,5.2,5.1
		c13.6-0.1,27.3-0.1,40.9,0c3.5,0,5.2-1.6,5.2-5.1C73.1,367.4,73.1,359.6,73.1,351.4z M47.4,16.2C42,29.6,37.1,42,32.1,54.6
		c10.4,0,20.1,0,30.5,0C57.5,41.9,52.7,29.6,47.4,16.2z"/>
	<path d="M164.2,0c11.1,3.8,15.4,11.7,14.7,23.1c-0.3,5.4-0.5,10.8,3.2,15.6c1.6,2.1,1.9,5.7,2,8.6c0.2,19,0.1,38,0.1,57
		c0,5.9-2.7,9.4-7.3,9.5c-4.7,0.2-7.7-3.5-7.7-9.6c0-18.2-0.1-36.3,0.1-54.5c0.1-4.8-1.5-6.6-6.3-6.5c-11.3,0.2-22.7,0.2-34,0
		c-4.5-0.1-6.1,1.5-6,6.2c0.1,40.7,0.2,81.3,0,122c0,4.7,1.6,6.1,6.1,6c11.5-0.2,23-0.2,34.5,0c4.4,0.1,5.8-1.6,5.7-5.9
		c-0.2-10.3-0.1-20.7-0.1-31c0-5.5,2.7-8.8,7.2-8.9c4.7-0.1,7.7,3.2,7.7,9c0.1,11.2,0,22.3,0,33.5c0,5.5-2.2,9.9-6,13.8
		c-1.7,1.7-3.2,3.8-4.1,6c-4.9,12-9.6,24.1-14.5,36.1c-2.9,7.2-7.2,10.4-13.7,10.3c-6.9-0.1-10.9-4.1-13.3-10.2
		c-3.8-9.6-7.5-19.2-11.4-28.8c-2.3-5.6-4.2-11.3-8.9-15.8c-2.5-2.4-3.9-7.1-4-10.8c-0.3-42.8-0.2-85.7-0.1-128.5c0-2.7,0.6-6,2.1-8
		c2.9-3.8,3.2-7.8,3-12.2c-0.1-1,0-2,0-3c0-13.5,2.8-17.8,14.9-22.9C140.2,0,152.2,0,164.2,0z M163.8,28.1c0-2.6,0-4.6,0-6.6
		c-0.1-5.9-0.6-6.4-6.6-6.4c-6,0-12,0-17.9,0c-11.6,0-11.6,0-10.9,11.5c0,0.5,0.3,0.9,0.6,1.5C140.3,28.1,151.7,28.1,163.8,28.1z
		 M133.8,192.6c4.1,10.3,7.9,19.8,12.2,30.6c4.3-10.9,8.2-20.6,12.1-30.6C149.8,192.6,142.2,192.6,133.8,192.6z"/>
	<path d="M103.3,344.2c0-10,0-20,0-30c0-5.6,1.6-10.4,5.3-14.7c1.2-1.3,1.7-3.5,1.9-5.3c0.4-4,0-8,0.6-12
		c1.2-8.4,8.2-15.1,16.6-15.4c12.2-0.4,24.3-0.4,36.5,0c9.4,0.3,16.6,8.1,17.1,17.6c0.1,1.8,0.1,3.7,0.1,5.5
		c-0.2,4.4,0.4,8.1,3.5,11.9c2.4,2.9,3.6,7.6,3.7,11.6c0.3,20.7,0.3,41.3,0.1,62c-0.1,12.1-7.7,19.7-19.8,19.8
		c-15.3,0.2-30.7,0.2-46,0c-11.9-0.2-19.4-8.1-19.6-20c0-0.2,0-0.3,0-0.5C103.3,364.6,103.3,354.4,103.3,344.2z M118.3,344.2
		c0,10,0.1,20,0,30c0,4.1,1.5,6.2,5.9,6.2c14.7-0.1,29.3-0.1,44,0c4.1,0,5.7-1.9,5.7-5.8c0-20-0.1-40,0-60c0-4.2-1.8-5.9-6.1-5.9
		c-14.3,0.1-28.7,0.2-43,0c-4.8-0.1-6.6,1.9-6.5,6.5C118.4,324.9,118.3,334.6,118.3,344.2z M166.4,293.5c0-2.7,0-4.8,0-7
		c0.1-3.3-1.6-4.9-4.9-4.9c-10.3,0-20.6,0-31,0c-3.3,0-4.9,1.7-4.9,4.9c0,2.3,0,4.5,0,7C139.4,293.5,152.5,293.5,166.4,293.5z"/>
	<path d="M427.7,350.2c-4.3,0-8.7,0.1-13,0c-4.9-0.2-7.7-2.9-7.8-7.3c0-4.3,2.8-7.4,7.6-7.5c8.5-0.2,17-0.2,25.5,0
		c4.7,0.1,7.6,3.4,7.5,7.6c-0.1,4.3-3,7-7.9,7.2C435.7,350.3,431.7,350.2,427.7,350.2z"/>
	<path d="M439.6,316c4,0.1,7.3,3.5,7.3,7.4c0,4.1-3.7,7.6-7.7,7.5c-4.2-0.1-7.4-3.7-7.1-8C432.2,318.9,435.5,315.9,439.6,316z"/>
</g>
</svg>
