<?xml version="1.0" encoding="utf-8"?>
<!-- Generator: Adobe Illustrator 22.1.0, SVG Export Plug-In . SVG Version: 6.00 Build 0)  -->
<svg version="1.1" id="Слой_1" xmlns="http://www.w3.org/2000/svg" xmlns:xlink="http://www.w3.org/1999/xlink" x="0px" y="0px"
	 viewBox="0 0 384 337.1" style="enable-background:new 0 0 384 337.1;" xml:space="preserve">
<g>
	<path d="M384,171.4c-1.8,6.1-4.3,11.9-9,16.5c-0.8,0.7-0.6,2.6-0.6,3.9c0,37.9,0,75.7,0,113.6c0,19.8-11.9,31.7-31.8,31.7
		c-18.7,0-37.5,0-56.2,0c-1.5,0-3.4,0.2-4.3-0.6c-1.6-1.5-3.3-3.5-3.5-5.5c-0.3-2.7,1.7-4.6,4.6-5c1.2-0.2,2.5-0.1,3.7-0.1
		c18.9,0,37.7,0,56.6,0c12.4,0,19.6-7.2,19.6-19.5c0-35.1,0-70.2,0-105.4c0-1.1,0-2.2,0-4c-44.1,27.3-92.9,35.8-143,39.1
		c-3.4,21.1-13,30.7-29.6,30c-15-0.6-24.8-11.6-26.3-29.9c-6.4-0.5-12.8-1.1-19.2-1.6c-21.8-2-43.3-5.7-64.4-11.6
		c-4.2-1.2-6.2-3.9-5.4-7.2c0.8-3.3,3.8-4.8,7.7-3.9c9.1,2.1,18.1,4.9,27.3,6.3c17.7,2.8,35.6,4.9,54.2,7.4c0-4.6,0-8.1,0-11.7
		c0-10.2,5.3-15.5,15.4-15.5c8.5,0,17-0.1,25.5,0c8.5,0.1,14.1,5.5,14.3,14c0.1,4,0,7.9,0,12.4c9.6-0.9,18.8-1.4,28-2.5
		c23.7-2.8,47.1-7.5,69.6-15.7c17-6.2,33.1-13.9,47.5-25c5.5-4.2,8.1-9.5,8-16.4c-0.1-25.4,0-50.7,0-76.1c0-11.6-7.4-19-19-19
		c-107.9,0-215.7,0-323.6,0c-11.6,0-18.9,7.4-18.9,19.1c0,25.4,0,50.7,0,76.1c0,6.9,2.6,12.2,8.1,16.4c11,8.4,23,14.9,35.7,20.3
		c1.1,0.5,2.3,0.9,3.4,1.5c3.4,1.7,4.8,4.5,3.5,7.6c-1.2,3-4.4,4.2-7.9,2.7c-5.6-2.4-11.2-4.9-16.7-7.6c-5.4-2.7-10.6-5.9-16.3-9
		c-0.1,1.4-0.2,2.6-0.2,3.8c0,35,0,70,0,105c0,12.8,7.1,19.9,20,19.9c72.1,0,144.2,0,216.4,0c1.4,0,2.8-0.1,4.1,0
		c3.3,0.2,5.5,2.5,5.6,5.4c0.1,3-2.1,5.3-5.3,5.7c-0.9,0.1-1.7,0.1-2.6,0.1c-72.9,0-145.7,0-218.6,0c-15.8,0-27.6-9.4-30.3-24.1
		c-0.5-2.4-0.4-5-0.4-7.5c0-37.7,0-75.5,0-113.2c0-2.5-0.5-4.4-2.3-6.3c-4.9-5.2-7.4-11.6-7.4-18.7C0,140.6-0.1,114,0.1,87.3
		C0.2,71.5,13,59,29,58.9c29.7-0.1,59.5,0,89.2,0c1.4,0,2.7,0,4.6,0c0-2.9,0-5.5,0-8.1c0-6,0.1-12,0-18c-0.1-7.4,3-12.9,9.3-16.9
		C146.6,6.7,162.6,2,179.6,0.5c6.7-0.6,13.5-0.5,20.2-0.4c3.5,0.1,5.7,2.9,5.3,6c-0.4,3.4-2.5,5-5.9,5.1c-1,0-2,0-3-0.1
		c-13.1-0.4-26,0.9-38.4,5.3c-6.9,2.4-13.5,5.9-19.9,9.3c-1.8,0.9-3.5,3.6-3.6,5.6c-0.4,9-0.2,18-0.2,27.3c4.3,0,8.5,0,13,0
		c0-5.9,0.1-11.7,0-17.6c-0.1-4.2,1.4-6.8,5.3-8.4c26.6-11.2,53.1-11.1,79.6,0.2c3.4,1.5,4.9,3.9,4.8,7.6c-0.1,6,0,12,0,18.2
		c4.3,0,8.4,0,12.7,0c0.1-0.8,0.3-1.8,0.3-2.7c0-7.6-0.1-15.2,0-22.9c0-3.5-1.1-6.2-4.3-7.7c-7.3-3.4-14.8-6.6-22.2-9.8
		c-1-0.4-2.2-0.6-3.2-0.9c-3.5-1.2-5.2-4.1-4.2-7.2c0.9-2.9,3.9-4.5,7.3-3.6c10.2,2.7,19.9,6.6,28.8,12.3c6.1,3.9,9.1,9.3,9.1,16.6
		c-0.1,7.2,0,14.5,0,21.7c0,1.3,0,2.7,0,4.5c1.8,0,3.3,0,4.7,0c28.6,0,57.2,0,85.9,0c17.4,0,26.9,7.2,31.6,23.8
		c0.1,0.4,0.3,0.7,0.5,1C384,112.9,384,142.2,384,171.4z M158.4,58.6c22.5,0,44.7,0,67.2,0c0-5,0.1-9.9-0.1-14.7
		c0-0.9-1.2-2.2-2.1-2.5c-20.9-7.9-41.9-7.9-62.8,0c-0.9,0.3-2,1.6-2.1,2.5C158.3,48.8,158.4,53.6,158.4,58.6z M208.4,226.2
		c0-4.1-0.1-8.2,0-12.4c0.1-3-1-4.3-4.1-4.2c-8.1,0.2-16.2,0.1-24.4,0c-3.1-0.1-4.3,1-4.3,4.1c0.1,8.1-0.1,16.2,0.1,24.4
		c0.2,9.7,7,16.6,16.1,16.7c9.3,0.1,16.3-6.8,16.6-16.6C208.5,234.2,208.4,230.2,208.4,226.2z"/>
</g>
</svg>
