<?xml version="1.0" encoding="utf-8"?>
<!-- Generator: Adobe Illustrator 22.1.0, SVG Export Plug-In . SVG Version: 6.00 Build 0)  -->
<svg version="1.1" id="Слой_1" xmlns="http://www.w3.org/2000/svg" xmlns:xlink="http://www.w3.org/1999/xlink" x="0px" y="0px"
	 viewBox="0 0 409.5 409.6" style="enable-background:new 0 0 409.5 409.6;" xml:space="preserve">
<g>
	<path d="M78.3,0c4.3,0,8.5,0,12.8,0c1.2,0.2,2.3,0.5,3.5,0.7c23.5,3.2,42.6,14.2,56.6,33.2c16.5,22.3,20.3,47.3,13.2,74
		c-0.9,3.5-0.2,5.5,2.2,7.9c42.3,42.2,84.5,84.4,126.6,126.8c2.9,2.9,5.4,3.7,9.3,2.7c13.2-3.2,26.6-4.4,40-1.5
		c31.1,6.7,51.7,25.6,62.3,55.3c2.3,6.4,3.1,13.4,4.5,20.1c0,4,0,8,0,12c-0.8,4.7-1.6,9.4-2.6,14.1c-1,4.9-3.5,8.6-8.5,10.2
		c-5,1.6-9.2-0.1-12.7-3.6c-4.3-4.2-8.5-8.5-12.7-12.7c-7-6.9-13.7-14.2-21.2-20.6c-9.6-8.1-24.6-6.3-32.7,3.3
		c-8.5,10.1-7.6,23.4,2.3,33.5c10.1,10.3,20.3,20.4,30.5,30.6c3.5,3.5,5,7.6,3.6,12.4c-1.4,5-5.1,7.6-10,8.7c-12,2.7-24,3.6-36,0.9
		c-32.3-7.2-54-26.5-64.1-58.1c-4.9-15.4-3.8-31.1-0.3-46.6c0.9-4.1,0.5-6.8-2.7-10.1C200.1,251.1,158,209,116,166.7
		c-2.7-2.7-5-3.4-8.7-2.5c-12.9,3.3-26.1,4.3-39.2,1.9C21,157.8-9.7,109.2,3,63c2.5-9.3,12.6-12.4,19.8-6.1c3.2,2.8,6.1,6,9.1,9
		c8.5,8.4,16.8,17.1,25.7,25.1c8,7.2,20.8,6.9,29.2,0.3c11.7-9.2,12.6-25.3,1.8-36.5c-9.9-10.1-19.9-20-30-30
		c-3.8-3.8-6.3-8-4.6-13.6c1.7-5.5,5.9-7.9,11.3-8.8C69.8,1.7,74,0.8,78.3,0z"/>
	<path d="M409.5,35.2c-13.2,22.3-26.4,44.7-39.8,66.9c-4.4,7.4-12.8,8.3-19.1,2.5c-2.3-2.2-4.4-4.6-7.3-7.6
		c-27,27.4-53.6,54.2-80,81c-11.5-11.5-22.6-22.6-33.4-33.4c26.4-26.7,52.9-53.5,80.2-81.2c-2-1.7-4-3.1-5.6-4.8
		c-5.3-6-4.7-14.2,2.1-18.3c21.2-13,42.6-25.7,64-38.5c1.1-0.7,2.4-1.1,3.6-1.7c1.6,0,3.2,0,4.8,0c3.1,2.2,6.4,4.1,9.2,6.6
		c5.1,4.7,10,9.5,14.6,14.6c2.5,2.8,4.4,6.1,6.6,9.2C409.5,32,409.5,33.6,409.5,35.2z"/>
	<path d="M127.7,213.3c23.1,23.1,45.5,45.5,68.1,68.1c-0.5,0.6-1.2,1.4-1.9,2.1c-36.9,37-73.9,73.9-110.9,110.8
		c-18.3,18.2-44.4,20.4-64.3,5.3c-22-16.6-25.2-49.3-6.8-69.8c1.4-1.6,2.9-3.1,4.4-4.6c36.2-36.2,72.4-72.4,108.6-108.6
		C126,215.6,126.8,214.4,127.7,213.3z M63.7,361.8c2.7,0.1,5.7-2.2,8.5-5c23.2-23.2,46.3-46.4,69.5-69.5c1.1-1.1,2.3-2.3,3.1-3.6
		c4.6-6.9,1-16-7-18.1c-4.6-1.2-8.5,0.2-11.7,3.4c-24.1,24-48.1,48-72.1,72.1c-0.7,0.7-1.3,1.4-1.8,2.2c-2.5,3.9-2.9,8-0.8,12.1
		C53.7,359.5,57.3,361.7,63.7,361.8z"/>
</g>
</svg>
