<?xml version="1.0" encoding="utf-8"?>
<!-- Generator: Adobe Illustrator 22.1.0, SVG Export Plug-In . SVG Version: 6.00 Build 0)  -->
<svg version="1.1" id="Слой_1" xmlns="http://www.w3.org/2000/svg" xmlns:xlink="http://www.w3.org/1999/xlink" x="0px" y="0px"
	 viewBox="0 0 384 353" style="enable-background:new 0 0 384 353;" xml:space="preserve">
<g>
	<path d="M384,164.5c-12.9,17.8-25.8,35.6-38.7,53.3c-6.6,9-15.7,8.1-20.3-2.1c-8.3-18.2-16.4-36.4-24.7-54.6
		c-2-4.4-2.8-8.6,0.4-12.7c3.1-4,7.4-4.7,12.1-3.8c1.8,0.3,3.7,0.3,6.8,0.5c-3.1-9-5.5-17.5-9-25.5c-10.2-23.8-26.5-42.7-48.1-57.1
		c-1.2-0.8-2.6-1.6-3.7-2.5c-2.4-2.1-2.9-4.7-1.1-7.4c1.7-2.6,4.2-3,6.9-2c0.8,0.3,1.5,0.9,2.2,1.3c35.5,23.3,57,55.9,64.3,97.8
		c0.8,4.6-1.7,7.5-6.5,7.2c-4.6-0.3-9.2-0.8-14.5-1.3c8.5,18.9,16.9,37.3,25.4,56.2c12.2-16.7,24.2-33,36.5-49.8
		c-4.9-0.5-9.2-1.1-13.6-1.4c-6.2-0.5-7.7-1.9-8.3-7.9c-7.1-67.4-59.9-125-126.8-138.3C156.4,1.2,89.6,29.6,54.4,86.4
		c-4.4,7.2-1.2,15,6.4,15.4c4.4,0.3,7.2-2.2,9.4-5.7c8.3-13.4,18.5-25.3,30.9-34.9c41.7-32.1,87.6-39.5,137.5-23.1
		c4.8,1.6,6.7,4.4,5.6,7.7c-1.2,3.6-4.4,4.5-9.4,2.9c-46.5-15.3-89.2-8.1-127.7,22.2c-11.3,8.9-20.3,19.9-28,32.1
		c-5.9,9.3-16.2,12.6-25.7,8.6c-11.8-5-16.1-18.9-9.1-30.1c11.5-18.6,26-34.5,43.6-47.4C182.5-35.8,317,6.8,354,118.3
		c3,9.2,4.7,18.9,6.7,28.4c0.5,2.2,1.2,3.3,3.5,3.4c2.6,0.1,5.2,0.7,7.8,0.8c6,0.1,9.9,2.9,12,8.4C384,161,384,162.7,384,164.5z"/>
	<path d="M65,210.2c0.9,3.4,1.5,6.8,2.7,10c18.3,51.6,54.2,83.3,108.7,90.3c52.8,6.8,95-13.6,125.7-57.2
		c7.8-11.1,20.9-13.9,30.8-6.1c8.5,6.8,10.2,18.3,3.9,27.9c-16.2,24.6-37.2,44-63.2,57.8c-33.4,17.7-69,23.3-106.4,18.2
		c-4.4-0.6-6.5-3-6-6.6c0.4-3.4,2.9-5.2,7.2-4.6c15.9,2.2,31.9,2.5,47.8,0.1c47.4-7.4,84.4-31.2,111.2-71c3.4-5.1,2.4-10.5-2.2-13.5
		c-4.6-3-9.9-1.6-13.5,3.7c-15,22.5-34.6,39.5-59.2,50.9c-82.6,38.2-180.3-10.8-199-99.9c-2.3-10.8-0.9-12.5,10.1-12
		c3.2,0.1,6.5,0.4,10.6,0.6c-9.6-18.5-19-36.4-28.6-54.8c-11.3,17.4-22.3,34.3-33.6,51.7c4.9,0.3,9.2,0.6,13.5,0.8
		c6,0.3,7.4,1.4,8.2,7.4c3.3,23.4,11.5,44.9,24.5,64.6c20.1,30.4,47.2,51.9,81.6,64.1c1.1,0.4,2.1,0.7,3.2,1.2
		c3.2,1.4,4.5,4.3,3.4,7.3c-1,2.8-3.8,4.2-7.1,3.2c-3.7-1.1-7.4-2.4-10.9-3.9c-57.4-25.1-92.5-68.3-104.9-129.7
		c-0.5-2.3-1.3-3.2-3.6-3.2c-3,0-6-0.1-9-0.3c-9.1-0.6-13.6-9.1-8.7-16.7c11.4-17.8,22.9-35.5,34.5-53.1c4.9-7.4,14.4-6.9,18.6,1
		c9.9,18.6,19.6,37.3,29.3,56.1c4,7.9-1.1,15.8-10,15.8C71.4,210.2,68.4,210.2,65,210.2z"/>
</g>
</svg>
