<?xml version="1.0" encoding="utf-8"?>
<!-- Generator: Adobe Illustrator 22.1.0, SVG Export Plug-In . SVG Version: 6.00 Build 0)  -->
<svg version="1.1" id="Слой_1" xmlns="http://www.w3.org/2000/svg" xmlns:xlink="http://www.w3.org/1999/xlink" x="0px" y="0px"
	 viewBox="0 0 353.9 382.4" style="enable-background:new 0 0 353.9 382.4;" xml:space="preserve">
<g>
	<path d="M318.5,198.8c4.6-32.9-7.4-80.9-24.2-99.9c-6.3,1-12,2.5-17.7,2.5c-7.8,0-14.2-3.9-19.9-9.2c-18-16.7-39.2-27.1-63.5-30.3
		c-35.8-4.7-67.2,5.1-94.3,28.8c-6.2,5.4-12.5,10.4-20.9,10.5C72,101.5,66,99.9,59.4,99c-16.6,18.3-28.7,66.7-24.2,99.7
		c1.7,0.1,3.6,0.2,5.4,0.4c9.7,0.9,16.9,8.1,16.9,17.7c0.2,23.2,0.2,46.5,0,69.7c-0.1,10-8,17.6-18.1,17.8c-6.9,0.1-13.7,0.1-20.6,0
		c-10.5-0.1-18.5-7.5-18.6-18c-0.2-23.1-0.2-46.2,0-69.4c0.1-10.1,7.4-17.2,17.6-17.9c1.6-0.1,3.2-0.2,5.6-0.3
		c-2.9-39.4,4.4-76,27-107.9c-2-5.2-4.3-9.7-5.4-14.5c-2.3-10.5,1-19.6,8.7-26.9c26.9-25.6,58.7-41.9,95.5-47.3
		c57.6-8.5,108,7.5,150.8,47c11.7,10.8,12.8,25.8,3,40.9c23.1,32.3,30.5,69.1,27.6,108.6c2.4,0.1,4,0.2,5.6,0.3
		c10.1,0.7,17.5,7.8,17.6,17.9c0.2,23.1,0.2,46.2,0,69.4c-0.1,10.5-8,17.9-18.6,18.1c-1.2,0-2.5,0-4.2,0c0,7.1,0.4,14-0.1,20.8
		c-0.5,6.8-1.1,13.8-3.2,20.2c-7.2,22-28.1,36.8-51.2,37c-21.1,0.2-42.2,0-63.4,0c-4.8,0-7.5-2.2-7.6-5.9c-0.1-3.8,2.8-6.1,7.8-6.1
		c20.2,0,40.5,0,60.7,0c26.2,0,44.8-18.6,45-44.8c0-6.9,0-13.7,0-21.2c-1.6,0-3.1,0-4.5,0c-10.2-0.3-18.1-7.9-18.2-18.1
		c-0.2-23-0.1-46,0-69c0.1-10,7.3-17.4,17.3-18.2C315.2,198.9,316.8,198.9,318.5,198.8z M176.1,11.7c-3.7,0.2-8.2,0.4-12.6,0.8
		C124.3,15.8,90.5,31.2,62,58c-5.3,5-6.9,11.2-4.9,18.1c2,6.8,6.6,11.3,13.7,13c8,1.9,13.8-1.8,19.5-6.8c38-32.8,81-41.7,128.8-26.4
		c18.1,5.8,33.6,16.3,47.6,29c7.8,7.1,19.1,6.1,25.9-1.5c7-7.9,6.5-18.7-1.4-26.1C259.1,27.4,220.8,12.4,176.1,11.7z M45.6,251.5
		c0-11,0-22,0-33c0-5.3-2.2-7.5-7.5-7.6c-6.2-0.1-12.5-0.1-18.7,0c-5,0.1-7.3,2.4-7.3,7.4c0,22.2,0,44.4,0,66.7c0,5,2.4,7.3,7.4,7.4
		c6.1,0.1,12.2,0,18.3,0c5.7,0,7.9-2.2,7.9-8C45.7,273.4,45.6,262.4,45.6,251.5z M308.2,251.7c0,11.1,0,22.2,0,33.3
		c0,5,2.3,7.3,7.3,7.4c6.2,0.1,12.5,0,18.7,0c5.2,0,7.5-2.3,7.5-7.6c0-22.1,0-44.2,0-66.3c0-5.3-2.3-7.6-7.5-7.6
		c-6.1-0.1-12.2-0.1-18.3,0c-5.5,0.1-7.7,2.3-7.7,7.8C308.2,229.7,308.2,240.7,308.2,251.7z"/>
	<path d="M244,202.6c3.3-1.3,6.7-2.4,9.8-4.1c4.3-2.3,7.7-2,9.7,2.4c3.8,8.2,7.3,16.6,10.4,25.1c1.8,4.8-0.3,7.6-5.3,8.7
		c-8.7,1.9-14.3,8.5-14.4,16.7c-0.1,8.4,5.5,15,14.4,17.1c5,1.2,7.1,4,5.3,8.7c-3.1,8.4-6.5,16.7-10.3,24.8
		c-2.2,4.8-5.6,5.3-10.2,2.4c-7.6-4.8-16.1-4.1-22,1.8c-5.8,5.9-6.5,14.4-1.7,22c2.8,4.5,2.3,7.9-2.6,10.1
		c-7.9,3.7-15.9,7.1-24.1,10c-5.6,2-8,0.2-9.4-5.5c-2.6-10.6-12.4-16.4-22.2-13.1c-6,2-9.8,6.3-11.3,12.5c-1.6,6.7-3.9,8.3-10.4,6
		c-7.9-2.9-15.7-6.3-23.4-9.9c-4.9-2.3-5.4-5.5-2.5-10.1c4.7-7.6,4-16.2-1.8-22c-5.9-5.9-14.3-6.5-22-1.7c-4.5,2.8-7.8,2.3-10.1-2.6
		c-3.8-8.1-7.2-16.4-10.2-24.8c-1.7-4.6,0.4-7.4,5.1-8.6c9.2-2.3,14.6-8.5,14.7-16.9c0.1-8.5-5.6-14.9-14.9-17.1c-4.2-1-6.5-3.9-5-8
		c3.3-8.8,6.9-17.6,10.9-26.2c1.9-4.1,5.4-4.4,9.8-1.6c11.3,7.1,25.2,1,26.5-12c0.4-3.8-1.2-8.1-2.9-11.6c-2.5-5.1-2.4-8,2.7-10.4
		c7.9-3.7,15.9-7.1,24.1-10.1c5.2-1.9,7.9,0,9.3,5.4c2.1,8.7,8.7,14.2,16.9,14.2c8.2,0,14.7-5.5,16.8-14.3c1.3-5.2,4-7.2,9-5.4
		c8.3,3,16.5,6.4,24.5,10.2c5.1,2.4,5.5,5.5,2.4,10.4c-3.7,5.9-4.2,12-0.8,18.1C232.1,198.9,237.2,201.7,244,202.6z M92.6,224.2
		c12.1,5.6,18.9,14.6,18.9,27.5c0,13-7,22-18.9,27.6c1.9,4.4,3.7,8.6,5.5,12.7c12.6-4.6,23.7-3,32.8,6.2c9.1,9.2,10.3,20.3,5.8,32.6
		c4.4,1.8,8.6,3.5,12.7,5.2c14.1-25.4,39.2-25.4,55.3,0c4.1-1.8,8.4-3.5,12.5-5.3c-9.9-25.3,13.1-48.7,38.8-38.9
		c1.7-4.2,3.5-8.3,5.2-12.5c-24.7-10.9-25.3-43.9,0-55.3c-1.7-4.2-3.5-8.4-5.3-12.6c-12.4,4.4-23.5,3.1-32.7-6
		c-9.3-9.2-10.4-20.5-6.1-32.8c-4.4-1.8-8.5-3.5-12.8-5.2c-5.6,11.9-14.5,18.8-27.4,18.8c-13.1,0-22-7-27.6-18.8
		c-4.4,1.8-8.5,3.5-12.8,5.3c4.5,12.3,3.2,23.4-5.9,32.6c-9.2,9.3-20.5,10.6-32.8,6.1C96.1,215.7,94.4,219.8,92.6,224.2z"/>
	<path d="M212.3,251.5c0.1,19.7-15.7,35.6-35.3,35.6c-19.6,0-35.5-15.8-35.4-35.5c0-19.5,15.6-35.2,35.1-35.5
		C196.1,215.9,212.2,231.9,212.3,251.5z M200.4,251.6c0-13-10.6-23.6-23.6-23.5c-12.8,0.1-23.2,10.6-23.3,23.4
		c-0.1,13.1,10.3,23.6,23.4,23.6C189.9,275.2,200.4,264.7,200.4,251.6z"/>
</g>
</svg>
