<?xml version="1.0" encoding="utf-8"?>
<!-- Generator: Adobe Illustrator 22.1.0, SVG Export Plug-In . SVG Version: 6.00 Build 0)  -->
<svg version="1.1" id="Слой_1" xmlns="http://www.w3.org/2000/svg" xmlns:xlink="http://www.w3.org/1999/xlink" x="0px" y="0px" viewBox="0 0 384.8 386.5" style="enable-background:new 0 0 384.8 386.5;" xml:space="preserve">
	<style type="text/css">
		path {
			fill: #e55021;
		}
	</style>
	<g>
		<path d="M288.1,386.5c-5.4-0.9-10.9-1.6-16.3-2.6c-21-3.9-40.7-11.8-59.7-21.2c-31.3-15.4-60.3-34.2-86.4-57.3
		C73.4,259.1,32.1,205,8.8,138.4C3.1,122-0.4,105,0,87.5c0.4-16.9,5.9-31.8,17.8-43.9C28.4,32.9,38.7,21.7,50,11.8
		c18.4-16,37.3-15.8,54.9,0.8c17.8,16.8,35,34.3,51.7,52.2c13.8,14.7,13.7,34.6,0.2,49.5c-9.4,10.4-19.6,20.2-29.6,30
		c-2,1.9-2.2,3.3-1,5.8c10,20.9,24.4,38.5,40.1,55.3c15.9,17.1,33.4,32.3,53.1,44.9c5.2,3.3,10.8,5.9,16.1,9.1
		c2.1,1.3,3.4,1,5.1-0.7c8.3-8.5,16.8-17,25.3-25.4c6.6-6.6,14-11.9,23.5-13.4c12.8-2.1,23.6,2,32.6,10.9
		c16.4,16.1,32.6,32.4,48.8,48.7c17.4,17.5,18.9,37.4,2.7,56c-11.2,12.9-23.5,24.8-35.9,36.5c-8.8,8.3-19.9,12.4-32,13.8
		c-0.9,0.1-1.7,0.5-2.5,0.7C298.1,386.5,293.1,386.5,288.1,386.5z M19.6,87.7c0.1,20.8,5,37.3,11.2,53.6
		c17.2,45.9,44.9,85.1,77.9,120.8c32.2,34.7,69.7,62.4,112.3,83.2c21.2,10.4,43,18.8,66.7,21.3c14.4,1.5,28.1-0.2,39-10.6
		c11.1-10.7,21.9-21.8,32.4-33.2c8.4-9.2,8.3-18.6-0.4-27.5c-16.8-17.2-33.8-34.1-50.9-50.9c-6.9-6.8-15.9-6.9-23.6-0.9
		c-1.8,1.4-3.4,3-5,4.6c-9.4,9.3-18.6,18.7-28,28c-6.1,6-12.7,7.1-20.3,3.2c-5.5-2.8-11-5.6-16.2-8.8
		c-24.9-14.9-46.5-33.8-65.9-55.2c-16.2-17.8-31-36.6-41-58.8c-5.2-11.4-4.2-16.4,4.8-25.1c9.8-9.4,19.5-18.9,28.8-28.8
		c7.9-8.5,7.9-17.4-0.2-25.8c-12.3-12.9-25-25.4-37.6-38.1c-4.6-4.6-9.2-9.3-14.1-13.6C81.7,18.4,73,18.3,65,24.6
		c-1.6,1.2-3.1,2.6-4.5,4c-8.7,8.7-17.3,17.5-26.2,26.1C24.1,64.6,19.2,76.6,19.6,87.7z" />
	</g>
</svg>