<?xml version="1.0" encoding="utf-8"?>
<!-- Generator: Adobe Illustrator 22.1.0, SVG Export Plug-In . SVG Version: 6.00 Build 0)  -->
<svg version="1.1" id="Слой_1" xmlns="http://www.w3.org/2000/svg" xmlns:xlink="http://www.w3.org/1999/xlink" x="0px" y="0px"
	 viewBox="0 0 384 320" style="enable-background:new 0 0 384 320;" xml:space="preserve">
<g>
	<path d="M0,150.2c0-1.5,0-3,0-4.5c1.6-2.1,2.7-4.8,4.8-6.1c4.9-3.1,10-6.2,15.4-8.3c81.4-31.3,163-62.5,244.5-93.7
		c31.1-11.9,62.2-23.8,93.2-35.7c12.1-4.6,23.3-0.9,25.8,12.7c0,0.2,0.2,0.4,0.4,0.6c0,3.3,0,6.5,0,9.8c-0.4,1.4-0.8,2.8-1.1,4.2
		c-18.7,87.5-37.3,175-56,262.5c-1.3,6-2.6,12-5,17.6c-4,9.5-11.7,12.7-21.5,9.4c-3.4-1.1-6.7-2.8-9.6-4.9
		C263.4,294,236.3,274,209,254.1c-5.2-3.8-3.5-3.9-8.3,0.6c-13.7,13-27.3,26-40.9,39.1c-4.2,4-9,6.5-15.4,6.2
		c0.4-5.6,0.7-10.9,1.1-16.2c1.7-23.3,3.3-46.6,5.1-69.9c0.1-1.7,1.2-3.8,2.4-5c51.6-46.5,103.4-92.9,155.1-139.4
		c2.5-2.3,5.1-4.5,7.4-6.9c0.8-0.9,1.4-2.7,1-3.6c-0.4-0.9-2.3-1.9-3.3-1.7c-3.6,0.9-7.3,1.7-10.4,3.6c-23,14.1-45.8,28.5-68.7,42.8
		c-43.4,27.2-86.8,54.3-130.2,81.4c-1.3,0.8-3.3,1.5-4.7,1.1c-29-8.9-57.9-17.9-86.9-27C7.2,157.7,2.8,155,0,150.2z"/>
</g>
</svg>
