<?xml version="1.0" encoding="utf-8"?>
<!-- Generator: Adobe Illustrator 22.1.0, SVG Export Plug-In . SVG Version: 6.00 Build 0)  -->
<svg version="1.1" id="Слой_1" xmlns="http://www.w3.org/2000/svg" xmlns:xlink="http://www.w3.org/1999/xlink" x="0px" y="0px"
	 viewBox="0 0 383.9 384" style="enable-background:new 0 0 383.9 384;" xml:space="preserve">
<g>
	<path d="M179.9,0c8,0,16,0,24,0c1,0.2,1.9,0.5,2.9,0.6c32.1,2.5,61.9,12.2,88.8,29.9c46.7,30.8,75.4,73.7,85.4,128.8
		c1.3,6.9,1.9,13.8,2.9,20.7c0,8,0,16,0,24c-0.6,4.6-1,9.2-1.7,13.7c-7.5,51.3-31.3,93.4-72.1,125.4c-42.3,33.2-90.7,46-143.8,39.1
		c-45.2-5.9-83.8-25.9-114.7-59.4c-40.8-44.4-57.4-97-49.8-156.7C7.1,124,25.4,87.7,55.2,57.4C83.9,28.3,118.5,10,158.8,2.9
		C165.8,1.7,172.9,1,179.9,0z M178.3,136.8C178.3,136.8,178.3,136.8,178.3,136.8c0,17.5,0.2,35-0.1,52.5c-0.1,6.7,2.4,11.4,7.5,15.4
		c12.2,9.5,24.2,19.3,36.3,29c9.9,7.9,19.6,15.8,29.6,23.6c7.7,6,18,3.4,21.5-5.2c2.4-5.9,0.8-11.9-4.7-16.3
		c-19.9-16-39.7-31.9-59.7-47.7c-2.4-1.9-3.3-3.9-3.3-6.9c0.1-32.2,0.1-64.5,0-96.7c0-2.8-0.4-5.8-1.5-8.3
		c-2.6-5.8-9.1-8.6-15.4-7.1c-5.9,1.4-10.2,6.7-10.3,13.1C178.2,100.4,178.3,118.6,178.3,136.8z"/>
</g>
</svg>
