<?xml version="1.0" encoding="utf-8"?>
<!-- Generator: Adobe Illustrator 22.1.0, SVG Export Plug-In . SVG Version: 6.00 Build 0)  -->
<svg version="1.1" id="Слой_1" xmlns="http://www.w3.org/2000/svg" xmlns:xlink="http://www.w3.org/1999/xlink" x="0px" y="0px"
	 viewBox="0 0 300 384" style="enable-background:new 0 0 300 384;" xml:space="preserve">
<g>
	<path d="M236.3,0c2.7,1.3,5.6,2.2,8,3.9c5.7,4,8.4,9.8,8.4,16.7c0.1,7.5,0,14.9,0,22.8c9.4,0,18.3-0.1,27.3,0
		c10.1,0.1,18,6.7,19.7,16.6c0.3,1.6,0.3,3.2,0.3,4.9c0,76.6,0,153.2,0,229.8c0,1.1,0.1,2.3-0.2,3.4c-0.7,2.9-2.6,4.5-5.7,4.4
		c-2.9-0.1-4.6-1.8-5.2-4.5c-0.3-1.3-0.2-2.7-0.2-4.1c0-75.9,0-151.7,0-227.6c0-9-2.6-11.6-11.6-11.6c-8,0-16,0-24.5,0
		c0,2.8,0,5.4,0,7.9c-0.2,12.1-8.8,21.1-20.3,21c-11.4-0.1-19.8-8.9-20-20.9c0-2.5,0-5,0-7.7c-14,0-27.8,0-42.2,0c0,2.5,0,5,0,7.6
		c-0.1,12.1-8.8,21.1-20.2,21c-11.5,0-20-9-20.1-21.2c0-2.4,0-4.7,0-7.4c-14,0-27.8,0-42.2,0c0,2.4,0,5,0,7.5
		C87.5,74.6,79,83.6,67.5,83.6c-11.5,0-20-9-20.1-21.1c0-2.5,0-4.9,0-7.7c-9.8,0-19.3-0.2-28.8,0.1c-4.4,0.1-7.3,4-7.3,8.9
		c-0.1,8.6,0,17.2,0,25.9c0,4.7-2,7.2-5.7,7.2C2,96.8,0,94.4,0,89.6c0-8.5,0-17,0-25.5c0.1-12.3,8.4-20.6,20.8-20.7
		c8.7,0,17.4,0,26.5,0c0-6.4,0-12.3,0-18.3c0-14.8,3.1-19.6,16.4-25.1c2.5,0,5,0,7.5,0c13.3,5.6,16.4,10.4,16.4,25.1
		c0,6,0,11.9,0,18.1c14.2,0,28,0,42.2,0c0-7.7-0.1-15.1,0-22.6c0.1-6.9,2.7-12.7,8.4-16.7c2.4-1.7,5.3-2.6,8-3.9c2.5,0,5,0,7.5,0
		c13.3,5.5,16.4,10.3,16.4,25.1c0,6,0,11.9,0,18.1c14.2,0,28,0,42.2,0c0-7.7-0.1-15.1,0-22.6c0.1-6.9,2.7-12.7,8.4-16.7
		c2.4-1.7,5.3-2.6,8-3.9C231.3,0,233.8,0,236.3,0z M58.6,41.7c0,6.7,0,13.5,0,20.2c0,6.4,3.4,10.3,8.8,10.3c5.4,0,8.9-3.9,9-10.2
		c0-13.5,0-26.9,0-40.4c0-6.3-3.5-10.3-8.8-10.4c-5.3,0-8.9,4-9,10.2C58.6,28.3,58.6,35,58.6,41.7z M141.1,41.8c0,6.7,0,13.5,0,20.2
		c0,6.4,3.4,10.3,8.8,10.3c5.4,0,8.9-3.9,8.9-10.2c0-13.5,0-26.9,0-40.4c0-6.3-3.5-10.3-8.8-10.4c-5.3,0-8.9,4-8.9,10.3
		C141.1,28.3,141.1,35,141.1,41.8z M223.6,41.6c0,6.9,0,13.7,0,20.6c0.1,6.3,3.6,10.2,9.1,10.1c5.3-0.1,8.7-4,8.7-10.1
		c0.1-13.6,0-27.2,0-40.8c0-6-3.5-10-8.7-10.1c-5.3-0.1-9,4-9.1,10.1C223.6,28.1,223.6,34.9,223.6,41.6z"/>
	<path d="M149.9,384c-42.5,0-85,0-127.5,0C7.9,384,0,376.1,0,361.5C0,281.3,0,201,0,120.8c0-1.1-0.1-2.3,0-3.4
		c0.3-3.2,2.7-5.5,5.6-5.5c2.9,0,5.3,2.3,5.6,5.5c0.1,1.2,0,2.5,0,3.7c0,80,0,160,0,239.9c0,8.8,2.8,11.6,11.7,11.6
		c84.7,0,169.5,0,254.2,0c8.9,0,11.7-2.8,11.7-11.6c0-12.1,0-24.2,0-36.4c0-4.6,2.1-7.3,5.7-7.2c3.5,0.1,5.5,2.6,5.5,7.1
		c0,12.9,0,25.7,0,38.6c-0.1,12.3-8.5,20.7-20.8,20.7C236.1,384,193,384,149.9,384z"/>
	<path d="M183.4,243.2c-19.4,0-38.7,0-58.1,0c-9.8,0-16.7-5.7-18.3-14.8c-1.6-9,4.6-18.1,13.5-19.9c1.8-0.4,3.7-0.5,5.6-0.5
		c38.3,0,76.7,0,115,0c11.5,0,19.4,7.3,19.3,17.8c-0.1,9.5-7.3,17.1-17.1,17.3c-12.6,0.3-25.2,0.1-37.8,0.1
		C198.1,243.3,190.7,243.2,183.4,243.2z M183.4,232c18.7,0,37.5,0,56.2,0c1.5,0,3,0.1,4.5-0.2c3.1-0.6,4.8-2.6,5-5.7
		c0.2-3.1-1.3-5.3-4.2-6.3c-1.4-0.4-3-0.5-4.4-0.5c-37.9,0-75.7,0-113.6,0c-1.4,0-2.8,0-4.1,0.4c-3.2,0.8-4.9,3.2-4.7,6.4
		c0.2,3.2,2,5.3,5.3,5.8c1.4,0.2,2.7,0.2,4.1,0.2C146.1,232,164.7,232,183.4,232z"/>
	<path d="M183.8,282.5c19.4,0,38.7-0.1,58.1,0c11.3,0.1,18.9,7.8,18.5,18.6c-0.3,7.7-6.2,14.7-13.8,16.1c-1.8,0.4-3.7,0.5-5.6,0.5
		c-38.3,0-76.7,0-115,0c-10.2,0-17.2-5.5-19-14.6c-1.9-10.1,5.4-20,15.7-20.5c8.7-0.4,17.5-0.2,26.2-0.2
		C160.6,282.5,172.2,282.5,183.8,282.5z M183.4,293.8c-19.4,0-38.7,0-58.1,0c-4.5,0-7.3,2.6-7.3,6.3c0,3.7,2.9,6.2,7.3,6.4
		c0.6,0,1.2,0,1.9,0c37.6,0,75.2,0,112.9,0c1.6,0,3.3,0,4.8-0.5c2.8-0.8,4.3-2.9,4.3-5.9c0-3-1.5-5.1-4.2-5.9
		c-1.5-0.5-3.2-0.4-4.8-0.4C221.1,293.7,202.3,293.8,183.4,293.8z"/>
	<path d="M183.3,168.8c-19.7,0-39.5,0.1-59.2,0c-11.7-0.1-19.8-11-16.8-22.2c2.1-7.8,9.1-12.9,18-12.9c22.5,0,45,0,67.4,0
		c16.6,0,33.2-0.1,49.8,0c8.6,0.1,15.5,5.7,17.4,13.8c1.8,7.7-2,16.1-9.3,19.4c-2.8,1.3-6.2,1.9-9.4,1.9
		C222,168.9,202.7,168.8,183.3,168.8C183.3,168.8,183.3,168.8,183.3,168.8z M183.4,157.6c18.9,0,37.7,0,56.6,0
		c1.2,0,2.5,0.1,3.7-0.1c3-0.5,4.9-2.3,5.3-5.4c0.4-3.3-1.1-5.6-4.2-6.7c-1.4-0.5-2.9-0.5-4.4-0.5c-38,0-75.9,0-113.9,0
		c-1.6,0-3.3,0.1-4.8,0.7c-2.7,1-4.1,3.4-3.8,6.2c0.3,3,2.1,5.1,5.1,5.7c1.3,0.3,2.7,0.1,4.1,0.1C146,157.6,164.7,157.6,183.4,157.6
		z"/>
	<path d="M61.8,151c9.6-11.5,18.9-22.8,28.3-34c0.6-0.8,1.2-1.6,1.9-2.3c2.3-2.3,5.5-2.5,7.8-0.5c2.3,2,2.7,5,0.7,7.7
		c-1.5,2-3.1,3.9-4.7,5.8c-9.7,11.6-19.3,23.2-29,34.8c-4.4,5.2-8.1,5-11.7-0.9c-3-4.8-5.9-9.5-8.8-14.4c-2.3-3.8-1.8-7,1.2-8.8
		c3-1.7,6.1-0.6,8.4,3C57.9,144.6,59.7,147.7,61.8,151z"/>
	<path d="M61.8,225.2c9.6-11.6,18.9-22.7,28.1-33.8c0.6-0.7,1.1-1.4,1.7-2c2.4-2.6,5.6-2.9,8-1c2.5,2,2.8,5.1,0.7,8
		c-1.5,2-3.2,3.9-4.7,5.8c-9.7,11.6-19.3,23.2-29,34.8c-4.2,5-7.9,4.7-11.4-0.9c-3-4.9-6.1-9.7-9-14.7c-2.1-3.5-1.6-6.8,1.2-8.5
		c2.9-1.8,6-0.9,8.2,2.5C57.7,218.5,59.6,221.7,61.8,225.2z"/>
	<path d="M61.8,300c9.3-11.2,18.3-22,27.2-32.7c0.9-1.1,1.7-2.1,2.7-3.1c2.5-2.7,5.4-3,8-1c2.6,2.1,2.9,5.4,0.5,8.3
		c-11.4,13.9-22.9,27.7-34.5,41.4c-3,3.5-6.9,3.3-9.4-0.5c-3.6-5.5-7-11.2-10.4-16.9c-1.8-3-1-6.2,1.6-7.9c2.7-1.7,5.8-1,7.8,2
		C57.5,292.8,59.5,296.3,61.8,300z"/>
</g>
</svg>
