<?xml version="1.0" encoding="utf-8"?>
<!-- Generator: Adobe Illustrator 22.1.0, SVG Export Plug-In . SVG Version: 6.00 Build 0)  -->
<svg version="1.1" id="Слой_1" xmlns="http://www.w3.org/2000/svg" xmlns:xlink="http://www.w3.org/1999/xlink" x="0px" y="0px"
	 viewBox="0 0 409.7 409.6" style="enable-background:new 0 0 409.7 409.6;" xml:space="preserve">
<g>
	<path d="M409.7,192.8c0,8,0,16,0,24c-0.2,1.3-0.6,2.5-0.7,3.8c-1.2,18.5-5.1,36.4-11.4,53.7C361.8,373,257.8,428.6,155.8,403.7
		C50.5,378-16.9,272.7,3.7,166.4c7.9-40.8,26.4-76,55.6-105.5C89.9,30,126.7,10.6,169.6,3.2c7.7-1.3,15.5-2.1,23.3-3.2
		c8,0,16,0,24,0c5.4,0.6,10.8,1.2,16.2,2c40.4,5.7,76.1,21.8,106.6,48.8c36,31.8,58.5,71.3,66.8,118.8
		C407.9,177.3,408.7,185.1,409.7,192.8z M341.5,322.7c60.9-69.7,61.3-181.7-15-251.5C250.6,1.9,134.1,9.4,66.8,88.5
		c-65,76.5-49,178.9,1.7,234c5.8-22.5,16.3-42.3,31.7-59.4c15.5-17.2,34.2-29.8,56.1-38.1c-51.9-37.3-43.7-102.9-11.9-133
		c34.8-33,88.3-32.6,121.8,0.8c32.6,32.6,37.1,96.5-12.5,132.1C298.8,243,328.1,275.5,341.5,322.7z M208.1,385.6
		c4.1-0.3,11.6-0.7,19-1.6c34.4-4.1,64.8-17.4,91.7-39.1c1-0.8,1.8-2.9,1.6-4.2c-9.4-63.9-66.9-107.5-130.6-99.2
		c-51.8,6.8-93,47.7-100.1,99.6c-0.2,1.2,0.6,3.1,1.6,3.9C124.3,371.6,162.2,385,208.1,385.6z M204.9,215.5
		c34.2,0,62-27.7,62.2-61.9c0.2-34.1-28-62.4-62.2-62.4s-62.5,28.3-62.2,62.4C142.9,187.8,170.7,215.5,204.9,215.5z"/>
</g>
</svg>
