<?xml version="1.0" encoding="utf-8"?>
<!-- Generator: Adobe Illustrator 22.1.0, SVG Export Plug-In . SVG Version: 6.00 Build 0)  -->
<svg version="1.1" id="Слой_1" xmlns="http://www.w3.org/2000/svg" xmlns:xlink="http://www.w3.org/1999/xlink" x="0px" y="0px"
	 viewBox="0 0 438.9 250.4" style="enable-background:new 0 0 438.9 250.4;" xml:space="preserve">
<g>
	<path d="M438.9,236.8c-2.8,8.3-6.8,11.7-15.8,12c-19.7,0.6-39.4,0.4-59.1,1.6c-17.1,1-30.6-5.5-42.1-17.1
		c-9.3-9.4-17.9-19.6-27.1-29.2c-3.3-3.5-7.1-6.6-11.1-9.3c-6.8-4.6-11.8-3.7-17.4,2.3c-6.3,6.9-8,15.6-9.1,24.4
		c-0.5,4.4-0.5,8.8-0.8,13.3c-0.6,8.4-4.8,13.5-13.2,14.1c-9.2,0.7-18.5,0.5-27.8,0.5c-6.6,0-13.2-0.1-19.6-0.9
		c-21.4-2.8-40.2-11.9-58.3-23.3c-22.4-14.2-39.5-33.4-55.2-54.4C49.4,126.6,24,78.3,1.9,28.2c-4.4-9.9-1.1-15.4,9.8-16.3
		c6.8-0.6,13.7-0.4,20.5-0.5c13.9-0.1,27.7-0.1,41.6-0.2c9.4,0,15.6,4.1,19.8,12.8c11.1,23.1,22.6,46.1,34.4,68.9
		c4.9,9.5,11.2,18.3,19.7,25.1c1.9,1.5,3.9,2.9,6.1,3.9c5.5,2.4,10.7,1,12.6-4.6c2.5-7.6,4.4-15.6,5.4-23.6
		c2.5-18.7,2-37.3-1.9-55.8c-2.2-10.9-8.9-16.8-19.4-19c-1.7-0.4-3.2-1.4-4.8-2.1c0.9-1.6,1.5-3.4,2.7-4.7c4.4-5,10-8.1,16.6-9
		c24.7-3.6,49.5-4.2,74.2-0.3c12.4,2,16.5,6.3,17.7,19.8c1,11.3,0,22.8-0.1,34.2c-0.2,14.9-0.5,29.7-0.3,44.6c0,4.3,1,8.9,2.6,12.9
		c3.3,8.7,10.6,10.4,17,3.8c7-7.2,13.9-14.8,19.7-23c15.5-22,27.8-45.8,37.8-70.8c4.3-10.9,6.4-12.1,18.2-12.2c23-0.2,46-0.5,69-0.7
		c3,0,6,0.3,8.9,0.9c4.3,0.9,8,2.9,9.3,7.7c0,2,0,4,0,6c-2.8,6.5-5.1,13.3-8.4,19.5c-11,20.7-25.9,38.9-39.9,57.6
		c-7.2,9.7-14.3,19.6-20.9,29.7c-3.9,6-3.4,12.7,0.8,18.5c2.9,4,6.4,7.6,9.9,11.2c12.1,12.3,24.8,24,36.4,36.8
		c9.7,10.7,19.7,21.5,22,36.8C438.9,236.2,438.9,236.5,438.9,236.8z"/>
</g>
</svg>
