<?xml version="1.0" encoding="utf-8"?>
<!-- Generator: Adobe Illustrator 22.1.0, SVG Export Plug-In . SVG Version: 6.00 Build 0)  -->
<svg version="1.1" id="Слой_1" xmlns="http://www.w3.org/2000/svg" xmlns:xlink="http://www.w3.org/1999/xlink" x="0px" y="0px"
	 viewBox="0 0 372.1 384" style="enable-background:new 0 0 372.1 384;" xml:space="preserve">
<g>
	<path d="M214.5,0c7.9,4.9,16,9.6,23.8,14.8c30.7,20.8,61.3,41.7,92,62.6c11.3,7.7,13.1,17.2,5.4,28.5c-4.8,7-9.5,14-14.6,21.4
		c2.6,0.3,4.8,0.4,6.9,0.7c9.1,1.5,15.5,8.7,15.5,17.9c0,4.6,0.8,8.1,4.4,11.4c4.6,4.3,6.1,10.4,6.1,16.8c0,15.4,0,30.7,0,46.1
		c0,1.4,0,2.7,0,4.6c2,0,3.9,0,5.7,0c7,0.2,12.3,5.1,12.3,12c0.1,19.6,0.1,39.2,0,58.9c0,6.5-4.8,11.3-11.2,11.9
		c-2.1,0.2-4.2,0-6.8,0c0,1.7,0,3.1,0,4.4c0,15.2,0,30.5,0,45.7c0,15.8-10.2,26-26.1,26c-100.6,0-201.2,0-301.8,0
		C10.3,384,0,373.8,0,358c0-61,0-122,0-183c0-10.1,3.8-17.8,12.5-23.2c0.9-0.6,1.6-2.1,1.7-3.2c0.6-14.4,7.4-21,22-21
		c3.4,0,6.7,0,10.6,0c0.7-6.7,1.4-13.2,2-19.8c2.1-21,4-42,6.2-63c1.1-10.6,9.2-17.2,20-16.2c16.1,1.4,32.1,3.1,48.1,4.7
		c11.4,1.1,22.9,2.3,34.3,3.4c4.4,0.4,6.9,2.6,6.7,5.9c-0.2,3.6-3.2,5.4-7.7,5c-27.1-2.7-54.2-5.4-81.3-8c-6.3-0.6-8.6,1.2-9.3,7.3
		c-2.2,21.7-4.4,43.5-6.5,65.2c-1.2,11.9-2.3,23.9-3.5,35.8c5.7,2.1,6.8,1.4,7.3-4.3c2-20.1,4-40.3,6-60.4c0.6-5.6,3.2-9.6,8.5-11.8
		c6.1-2.4,11-6.4,14.6-11.8c3.2-4.7,7.6-6.6,13.2-6c13.2,1.4,26.4,2.6,39.5,3.9c4.4,0.4,6.8,2.8,6.4,6.2c-0.4,3.4-3.1,5.1-7.6,4.6
		c-12.7-1.2-25.4-2.4-38-3.8c-2.4-0.3-3.9,0.3-5.3,2.4c-4.1,6.1-9.7,10.8-16.5,13.7c-2.9,1.2-3.9,3-4.1,5.8c-1.9,20.5-4,41-6,62.1
		c1.4,0.1,2.6,0.3,3.9,0.3c6.2,0,12.5-0.1,18.7,0.1c3,0.1,4.7-0.9,6.4-3.4c30.3-44.6,60.8-89.2,91-133.8c3.6-5.3,7.6-9.8,14-11.7
		C210,0,212.3,0,214.5,0z M11.3,344.4c0,6.3-0.7,12.1,0.3,17.7c0.5,3.2,3.1,6.7,5.8,8.6c2.5,1.8,6.3,2.2,9.6,2.2
		C127,373,227.1,373,327.2,373c1.1,0,2.3,0,3.4-0.1c5.6-0.4,10.6-3.7,11.5-9.1c1.1-6.3,0.8-12.7,1.1-19.4c-2.5,0-4.1,0-5.8,0
		c-86,0-172,0-258,0c-1.6,0-3.3,0.1-4.9-0.1c-2.9-0.4-4.5-2.4-4.5-5.2c0-2.9,1.6-5,4.6-5.4c1.5-0.2,3-0.1,4.5-0.1
		c86.2,0,172.5,0,258.7,0c1.6,0,3.1,0,4.6,0c0-8.9,0-17.2,0-25.7c-1.3,0-2.3,0-3.3,0c-15.6,0-31.2,0-46.9,0c-15.4,0-27.8-6-36.2-19
		c-8.7-13.5-9.4-27.9-1.8-42c7.6-14.1,19.8-21.6,35.9-21.9c16.1-0.3,32.2-0.1,48.4-0.1c1.3,0,2.6,0,4,0c0-8.8,0-17,0-25.3
		c-110.6,0-221,0-331.5,0c0,44.7,0,89.1,0,134c1.6,0,2.9,0,4.2,0c7.9,0,15.7,0,23.6,0c4.4,0,6.7,1.8,6.7,5.3
		c0.1,3.6-2.2,5.5-6.9,5.5c-1.4,0-2.7,0-4.1,0C27.1,344.4,19.4,344.4,11.3,344.4z M11.3,188.1c110.6,0,221,0,331.7,0
		c0-4.2,0-8.2,0-12.2c0-11.4-4.8-16.1-16.2-16.1c-99.9,0-199.7,0-299.6,0c-1.2,0-2.5-0.1-3.7,0c-6.1,0.5-11.6,5.1-12.1,10.9
		C10.9,176.4,11.3,182.2,11.3,188.1z M253.1,148.8c5.4,0,10.6,0.2,15.8-0.1c1.4-0.1,3.3-1.1,4.2-2.2c6.4-9.1,12.7-18.3,18.8-27.6
		c0.8-1.2,1-3.6,0.4-4.9c-3.3-6.9-4.9-14.2-4.2-21.8c0.2-2.5-0.5-4.1-2.6-5.6c-18-12.1-36-24.4-53.9-36.7c-2.2-1.5-3.9-1.5-6.1-0.4
		c-6.5,3.3-13.5,4.6-20.7,3.9c-3-0.3-4.7,0.6-6.4,3.1c-20,29.6-40.2,59.1-60.3,88.6c-0.7,1-1.3,2-2.4,3.7c8.3,0,16-0.1,23.7,0.1
		c3,0.1,4-0.8,4.4-3.9c2.8-22.1,24-39.4,46.2-38.1C233.1,108.4,249.8,124.2,253.1,148.8z M323.4,297C323.4,297,323.4,297,323.4,297
		c11.1,0,22.2-0.1,33.3,0.1c3.6,0.1,4.4-1.2,4.3-4.5c-0.1-17.5-0.2-35,0-52.4c0-3.5-1.1-4.4-4.5-4.4c-21.2,0.1-42.5,0-63.7,0.1
		c-3,0-6,0.2-8.9,0.9c-14.9,3.5-25.1,17.7-23.5,32.2c1.8,16.2,14.3,27.8,30.3,28C301.7,297.1,312.6,297,323.4,297z M114,148.5
		c7.7,0.9,7.7,0.9,11.6-4.8c6.9-10.1,13.8-20.2,20.7-30.3c14.6-21.4,29.1-42.7,43.6-64.1c3.1-4.6,7.2-7.4,12.8-6.8
		c6.9,0.8,13.4-0.4,19.6-3.6c4.6-2.4,9.2-2,13.5,0.9c19.1,13,38.2,26,57.3,39c4.4,3,6.3,7.3,5.7,12.6c-0.7,6.3,0.3,12.2,3.3,17.8
		c3,5.7,2.5,10.9-1.2,16.1c-4.8,6.7-9.3,13.6-13.9,20.4c-0.6,0.8-1,1.8-1.6,2.8c5.2,1.2,8.4,0,11.3-4.4
		c9.8-15.1,20.1-29.8,30.3-44.7c3.8-5.6,3.3-8.7-2.3-12.5c-35.9-24.5-71.8-49-107.7-73.4c-5.7-3.9-8.7-3.3-12.7,2.5
		c-29.3,43-58.6,86.1-88,129.1C115.6,146.1,114.9,147.1,114,148.5z M174.2,148.5c22.7,0,45.1,0,67.4,0
		c-0.7-16.3-15.8-30.4-32.7-30.7C191,117.4,175.5,131.1,174.2,148.5z M332.5,148.7c0.4-5-0.7-8.5-4.2-9.1c-4.7-0.9-9.6-0.6-14.4-0.8
		c-0.4,0-0.8,0.5-1.1,0.9c-1.9,2.8-3.8,5.7-6.1,9C315.6,148.7,323.9,148.7,332.5,148.7z M45.4,138.7c-4,0-8.1-0.1-12.1,0
		c-5.8,0.1-8.6,3.8-7.5,10.1c3.4,0,6.8,0,10.3,0c9,0,9,0,9.6-9C45.6,139.6,45.5,139.4,45.4,138.7z"/>
	<path d="M314.4,266.4c0,12.3-9.9,22.3-22.1,22.3c-12.1,0-22.2-10-22.2-22.2c0-12.2,9.9-22.1,22.2-22.1
		C304.6,244.3,314.4,254,314.4,266.4z M292.3,277.6c6.2,0,11.3-5.1,11.3-11.2c0-6-5.3-11.3-11.3-11.3c-6.1,0-11.2,5.1-11.2,11.3
		C281.1,272.7,286.1,277.6,292.3,277.6z"/>
</g>
</svg>
