<?xml version="1.0" encoding="utf-8"?>
<!-- Generator: Adobe Illustrator 22.1.0, SVG Export Plug-In . SVG Version: 6.00 Build 0)  -->
<svg version="1.1" id="Слой_1" xmlns="http://www.w3.org/2000/svg" xmlns:xlink="http://www.w3.org/1999/xlink" x="0px" y="0px"
	 viewBox="0 0 409.7 409.6" style="enable-background:new 0 0 409.7 409.6;" xml:space="preserve">
<g>
	<path d="M409.7,192.8c0,8,0,16,0,24c-0.2,1.3-0.6,2.5-0.7,3.8c-1.2,18.5-5.1,36.4-11.4,53.7C361.8,373,257.8,428.6,155.8,403.7
		C50.5,378-16.9,272.7,3.7,166.4c7.9-40.8,26.4-76,55.6-105.5C89.9,30,126.7,10.6,169.6,3.2c7.7-1.3,15.5-2.1,23.3-3.2
		c8,0,16,0,24,0c5.4,0.6,10.8,1.2,16.2,2c40.4,5.7,76.1,21.8,106.6,48.8c36,31.8,58.5,71.3,66.8,118.8
		C407.9,177.3,408.7,185.1,409.7,192.8z M205,24c-99.6-0.1-180.9,81.1-180.9,180.8c0,99.5,80.9,180.6,180.5,180.8
		c99.6,0.3,180.9-80.8,181.1-180.6C385.9,105.5,304.7,24.1,205,24z"/>
	<path d="M192.9,93c8.2,0,15.8,0,23.8,0c0.1,1.3,0.2,2.4,0.2,3.6c0,36.6,0,73.3-0.1,109.9c0,1.8-0.7,4-1.9,5.2
		c-26.1,26.3-52.3,52.4-78.5,78.6c-0.6,0.6-1.4,1.2-1.9,1.6c-5.6-5.6-11-11-16.8-16.8c0.7-0.8,1.8-1.9,2.8-3
		c22.6-22.6,45.2-45.3,67.9-67.8c3.1-3.1,4.6-6.1,4.5-10.7c-0.2-32-0.1-64-0.1-95.9C192.9,96.3,192.9,94.8,192.9,93z"/>
</g>
</svg>
