<?xml version="1.0" encoding="utf-8"?>
<!-- Generator: Adobe Illustrator 22.1.0, SVG Export Plug-In . SVG Version: 6.00 Build 0)  -->
<svg version="1.1" id="Слой_1" xmlns="http://www.w3.org/2000/svg" xmlns:xlink="http://www.w3.org/1999/xlink" x="0px" y="0px"
	 viewBox="0 0 280.9 370.4" style="enable-background:new 0 0 280.9 370.4;" xml:space="preserve">
<g>
	<path d="M265.7,0c1.7,0.8,3.6,1.4,5.2,2.3c6,3.3,9.3,8.5,9.9,15.4c0.1,0.7,0.1,1.4,0.1,2.2c0,110.2,0,220.4,0,330.6
		c0,10.3-6.1,18-15.6,19.7c-1.8,0.3-3.6,0.3-5.4,0.3c-79.6,0-159.1,0-238.7,0c-13.5,0-21-7.6-21-21.1c0-108.5,0.1-217-0.1-325.5
		C0,12,3.8,3.8,15.3,0C98.8,0,182.2,0,265.7,0z M12.3,332.5c85.6,0,171,0,256.4,0c0-85.6,0-170.9,0-256.3c-85.5,0-170.8,0-256.4,0
		C12.3,161.7,12.3,247,12.3,332.5z M268.9,63.8c0-14.4,0-28.2,0-42.1c0-7.6-2.1-9.6-9.6-9.6c-51.1,0-102.2,0-153.4,0
		c-1.3,0-2.6,0-4.2,0c0,1.8,0,3.1,0,4.4c0,14.3,0.1,28.7-0.1,43c-0.1,3.7,0.9,4.6,4.6,4.6C159,63.9,211.8,64,264.6,64
		C265.9,64,267.2,63.9,268.9,63.8z M89.6,12.2c-1.4-0.1-2.5-0.2-3.7-0.2c-21.5,0-42.9,0-64.4,0c-7.3,0-9.4,2.1-9.4,9.5
		c0,12.8,0,25.6,0,38.3c0,1.3,0.1,2.5,0.2,3.7c26,0,51.6,0,77.3,0C89.6,46.4,89.6,29.5,89.6,12.2z M268.9,345.2
		c-85.9,0-171.2,0-256.6,0c0,2.7-0.2,5.1,0.1,7.5c0.4,3.2,2.5,5.1,5.7,5.5c1.5,0.2,3.1,0.2,4.7,0.2c51,0,102,0,152.9,0
		c28.1,0,56.2,0,84.2,0c6.6,0,8.9-2.3,8.9-8.9C268.9,348.2,268.9,346.8,268.9,345.2z"/>
	<path d="M140.6,102.5c49.4,0.2,89.4,40.4,89,89.4c-0.4,49.3-40.2,89-89.2,88.8c-49.2-0.1-89.4-40.5-89-89.5
		C51.8,142,91.7,102.2,140.6,102.5z M217.8,192.1c-0.1-42.3-33.2-76.9-76.5-77.7c-42-0.8-77.3,33.5-77.8,76.7
		c-0.5,42.3,33.2,77.4,76.8,77.6C181.7,269,216.8,236.2,217.8,192.1z"/>
	<path d="M140,56.7c-10.5-0.3-18.7-9.1-18.2-19.4c0.4-10.3,9.1-18.3,19.3-18c10.4,0.3,18.7,9.1,18.2,19.4
		C158.8,49,150.2,57,140,56.7z M140.5,44.8c3.6,0,6.6-3,6.7-6.7c0-3.7-2.8-6.7-6.5-6.9c-3.7-0.1-6.9,3-6.9,6.8
		C133.9,41.7,136.9,44.8,140.5,44.8z"/>
	<path d="M188.5,31.9c3,0,6-0.1,9,0c3.9,0.2,6.5,2.6,6.5,5.9c0.1,3.4-2.6,6-6.7,6.1c-5.9,0.1-11.8,0.1-17.7,0
		c-4.2-0.1-6.7-2.6-6.7-6.1c0-3.5,2.6-5.7,6.8-6c0.2,0,0.5,0,0.7,0C183.2,31.9,185.8,31.9,188.5,31.9
		C188.5,31.9,188.5,31.9,188.5,31.9z"/>
	<path d="M233.4,44c-2.9,0-5.8,0.1-8.7,0c-4.3-0.2-6.8-2.4-6.8-5.9c-0.1-3.5,2.4-6,6.6-6.1c5.9-0.1,11.8-0.1,17.7,0
		c4.1,0.1,6.8,2.7,6.7,6.1c0,3.4-2.7,5.8-6.9,6C239.1,44.1,236.2,44,233.4,44z"/>
	<path d="M51.2,44.8c5.9,0,11.8,0,17.7,0c4.4,0,7.1,2.4,7.1,6c0,3.5-2.6,5.9-6.8,5.9c-12.2,0.1-24.3,0.1-36.5,0
		c-4.4,0-7.1-2.6-6.9-6.1c0.1-3.6,2.8-5.7,7.3-5.8C39.1,44.8,45.2,44.8,51.2,44.8z"/>
	<path d="M140,255.2c-35.4-0.6-63.7-29.6-63.1-64.4c0.6-35.3,29.5-63.4,64.6-62.8c35,0.6,63.3,29.8,62.6,64.5
		C203.4,227.5,174.4,255.9,140,255.2z M140.6,140.1c-28.4,0-51.5,22.9-51.6,51.4c-0.1,28.4,22.8,51.5,51.3,51.7
		c28.6,0.1,51.8-23,51.7-51.6C192,163.1,169.1,140.1,140.6,140.1z"/>
</g>
</svg>
