<?xml version="1.0" encoding="utf-8"?>
<!-- Generator: Adobe Illustrator 22.1.0, SVG Export Plug-In . SVG Version: 6.00 Build 0)  -->
<svg version="1.1" id="Слой_1" xmlns="http://www.w3.org/2000/svg" xmlns:xlink="http://www.w3.org/1999/xlink" x="0px" y="0px"
	 viewBox="0 0 384 323.6" style="enable-background:new 0 0 384 323.6;" xml:space="preserve">
<g>
	<path d="M384,241.9c-2.1,3-5,3.9-8.7,3.8c-13.9-0.2-27.7,0-41.6-0.1c-2.4,0-3.8,0.7-5.1,2.7c-25.5,39.1-61,64.1-107,72.3
		c-58.6,10.4-108.5-7.2-149.3-50.3c-6.3-6.7-11.4-14.5-16.8-22c-1.4-1.9-2.6-2.8-5.1-2.8c-14.1,0.1-28.2,0.1-42.4,0.1
		c-6.1,0-8-1.9-8-8.1C0,187,0,136.4,0,85.8c0-6.1,1.9-8.1,8-8.1c14,0,28-0.1,42,0.1c2.7,0,4.1-0.9,5.6-3.2
		C84,31.6,123.8,5.7,175.1,0.9c65.2-6.1,116.5,19.7,153.3,73.8c1.5,2.2,3,3.1,5.7,3.1c13.7-0.1,27.5,0,41.2-0.1
		c3.7,0,6.6,0.8,8.7,3.8C384,134.9,384,188.4,384,241.9z M192,11.7c-82.7,0-150,67.3-150,150c0,82.7,67.3,150,150,150
		c82.7,0,150-67.3,150-150C342,79,274.7,11.7,192,11.7z M337.4,89.8c22.2,48.2,22.2,95.9,0.1,143.6c11.7,0,23,0,34.3,0
		c0-48,0-95.8,0-143.6C360.2,89.8,349,89.8,337.4,89.8z M12.3,89.8c0,48.1,0,95.9,0,143.6c11.5,0,22.8,0,34.5,0
		C35.6,210.5,30,186.6,30,161.5c0-25.1,5.8-48.9,16.8-71.7C35,89.8,23.8,89.8,12.3,89.8z"/>
	<path d="M195.4,293.7c-68-0.1-123.3-47.1-133.7-111.1C50.3,112.8,97.3,45.4,166.5,32.1c71.6-13.7,140.5,31.8,154.7,103.6
		c9.5,48.1-4.9,89.5-40.4,123.5c-3.1,3-6.8,3-9.3,0.4c-2.4-2.7-2.1-6.1,1.2-9.2c16.8-15.6,28.4-34.3,34.7-56.4
		c19.7-69.2-26.8-140.8-98.1-151C142.7,33.4,81.5,80,72.9,146.8c-8.3,64.3,37.4,124.2,101.6,133.5c25.4,3.7,49.5-0.4,72.3-11.9
		c0.8-0.4,1.6-0.8,2.4-1.2c3.4-1.4,6.5-0.4,8,2.5c1.5,2.9,0.7,6.3-2.5,8c-5.8,2.9-11.7,5.7-17.7,8
		C222.6,291.1,207.6,293.6,195.4,293.7z"/>
	<path d="M192,95.7c27.2,0,54.5,0,81.7,0c6.4,0,8.3,1.9,8.3,8.2c0,10.7,0,21.5,0,32.2c0,5.4-2.1,7.5-7.5,7.5c-55,0-110,0-165,0
		c-5.4,0-7.5-2.1-7.5-7.5c0-11,0-22,0-33c0-5.4,2.1-7.5,7.5-7.5C137,95.7,164.5,95.7,192,95.7z M143.7,131.5c0-8.2,0-16,0-23.7
		c-10,0-19.7,0-29.5,0c0,8,0,15.8,0,23.7C124.2,131.5,133.8,131.5,143.7,131.5z M185.8,131.5c0-8,0-15.8,0-23.5c-10,0-19.8,0-29.6,0
		c0,8,0,15.7,0,23.5C166,131.5,175.7,131.5,185.8,131.5z M198.3,107.8c0,8.2,0,16,0,23.7c10,0,19.7,0,29.5,0c0-8,0-15.8,0-23.7
		C217.8,107.8,208.1,107.8,198.3,107.8z M240.3,107.8c0,8.1,0,15.8,0,23.5c10,0,19.8,0,29.5,0c0-8,0-15.7,0-23.5
		C259.9,107.8,250.2,107.8,240.3,107.8z"/>
	<path d="M192,258.4c-19.1-0.8-35.5-13.7-38.5-31.2c-1.5-8.5,0.5-16.5,5.4-23.5c9.1-13,18.4-25.8,27.7-38.7c3.1-4.3,7.7-4.3,10.8,0
		c9.3,12.8,18.8,25.6,27.7,38.7c12.5,18.3,4.2,42.3-17.7,50.8C202.6,256.5,197.2,257.2,192,258.4z M192,177.9
		c-8.3,11.6-16.4,22.5-24,33.8c-4.9,7.4-3.9,16.4,1.6,23.4c11.1,14.1,33.8,13.9,44.8-0.2c5.5-7.1,6.4-16,1.4-23.4
		C208.3,200.3,200.3,189.4,192,177.9z"/>
	<path d="M102,182.7c0-11.5,9.4-21,21-21c11.6,0,21,9.4,21,21c0,11.5-9.4,21-21,21C111.5,203.7,102,194.2,102,182.7z M114,182.8
		c0.1,4.9,4.3,9,9.2,8.9c4.9-0.1,8.9-4.4,8.8-9.3c-0.2-4.8-4.2-8.7-9-8.7C118.1,173.7,114,177.9,114,182.8z"/>
	<path d="M282,183c-0.1,11.5-9.7,20.8-21.3,20.7c-11.5-0.1-20.8-9.7-20.7-21.3c0.1-11.5,9.7-20.8,21.3-20.7
		C272.8,161.8,282.1,171.4,282,183z M252,182.5c-0.1,4.9,4,9.1,8.9,9.1c4.9,0,9.1-4.1,9-9c0-4.8-3.9-8.8-8.7-9
		C256.4,173.6,252.1,177.6,252,182.5z"/>
	<path d="M191.9,77.7c-5.6,0-11.2,0-16.9,0c-4.3,0-7-2.5-7-6.1c0.1-3.5,2.7-5.8,6.9-5.8c11.4,0,22.7,0,34.1,0c4.4,0,7.1,2.5,7,6.1
		c-0.1,3.5-2.7,5.8-6.9,5.9C203.4,77.7,197.6,77.7,191.9,77.7z"/>
	<path d="M183,224.8c-0.1-4.9,4-9.1,8.9-9.1c4.9,0,9,4.1,9,9c0,4.8-4,8.8-8.8,8.9C187.3,233.8,183.1,229.7,183,224.8z"/>
</g>
</svg>
