<?xml version="1.0" encoding="utf-8"?>
<!-- Generator: Adobe Illustrator 22.1.0, SVG Export Plug-In . SVG Version: 6.00 Build 0)  -->
<svg version="1.1" id="Слой_1" xmlns="http://www.w3.org/2000/svg" xmlns:xlink="http://www.w3.org/1999/xlink" x="0px" y="0px"
	 viewBox="0 0 335.7 384" style="enable-background:new 0 0 335.7 384;" xml:space="preserve">
<style type="text/css">
	.st0{fill:#fff;}
	.st1{fill:#E85222;}
</style>
<g>
	<g>
		<path class="st0" d="M53.8,384c-6-2.2-8.3-6.7-7.9-12.9c0.2-3.8,0-7.7,0-11.9c-8.3,0-16.1,0-24,0c-10,0-15.2-5.2-15.2-15.2
			c0-22,0-44,0-66c0-10.3,5.2-15.4,15.5-15.4c7.7,0,15.5,0,23.4,0c0-4.4,0-8.4,0-12.9c-2.8,0-5.5,0-8.2,0c-5,0-8.9-2-11.5-6.4
			c-7.9-13.2-16-26.2-23.9-39.4c-5.2-8.7-0.4-17.3,9.7-17.4c13-0.1,26,0,39,0c4.6,0,6.9,2,6.9,5.5c0,3.6-2.3,5.6-6.9,5.7
			c-11.5,0.1-23,0-34.5,0c-1.4,0-2.7,0-4.4,0c0.3,0.8,0.3,1.3,0.6,1.7C20,211.7,27.4,224,35,236.2c0.8,1.2,3,2.1,4.5,2.1
			c22,0.1,44,0.1,66,0.1c63.2,0,126.5,0,189.7,0.1c3.2,0,4.9-1,6.5-3.7c6.6-11.2,13.4-22.2,20.1-33.4c0.6-1,1.2-2.1,2.1-3.7
			c-2.1,0-3.7,0-5.3,0c-78.6,0-157.2,0-235.8,0c-1.5,0-3,0-4.5-0.1c-3.3-0.4-5.4-2.6-5.4-5.6c0-3,2.2-5.2,5.5-5.5
			c1.4-0.1,2.7,0,4.1,0c54.4,0,108.7,0,163.1,0c1.6,0,3.2,0,5.1,0c0-35,0-69.6,0-104.9c-1.5,0-3.1,0-4.7,0c-47.6,0-95.2,0-142.9,0
			c-10.1,0-14-3.9-14-14.1c0-18,0-36,0-54C89.3,4,93.3,0,102.7,0c47,0,94,0,141,0c1.1,0,2.3-0.1,3.4,0.1c2.9,0.6,4.7,2.5,4.7,5.5
			c0,3-1.8,4.9-4.7,5.5c-1.3,0.3-2.7,0.1-4.1,0.1c-45.9,0-91.7,0-137.6,0c-1.5,0-2.9,0-4.6,0c0,19.7,0,39,0,58.7
			c67.3,0,134.6,0,202,0c0-19.5,0-38.9,0-58.7c-9.1,0-18.1,0-27.1,0c-1.2,0-2.5,0.1-3.7-0.1c-3.1-0.5-5-2.3-5.1-5.5
			c0-3.2,1.8-5.5,4.9-5.5c11-0.2,22-0.3,33,0.1c5.2,0.2,9.3,4.8,9.3,10c0.1,20.4,0.2,40.7,0,61.1c0,6-4.8,10-11.3,10.2
			c-6,0.1-12,0-18.2,0c0,35,0,69.6,0,104.7c1.4,0.1,2.7,0.2,4.1,0.2c11.5,0,23,0.1,34.5,0c4.7,0,8.7,1.3,11.1,5.5
			c2.4,4.3,1.5,8.3-0.9,12.4c-7.6,12.5-15.3,24.9-22.7,37.5c-3.3,5.6-7.7,8.3-14.1,7.9c-2.1-0.1-4.2,0-6.6,0c0,4.4,0,8.4,0,12.9
			c6.4,0,12.7,0,19.1,0c2,0,4,0,6,0c8.2,0.2,13.8,5.5,13.8,13.6c0.1,23.1,0.1,46.2,0,69.4c0,8.1-4.7,12.5-14.6,14
			c0,3.8-0.2,7.6,0.1,11.4c0.5,6.2-1.8,10.6-7.7,13c-21.8,0-43.5,0-65.3,0c-5.7-2.6-8-7-7.6-13.2c0.3-3.8,0.1-7.6,0.1-11.3
			c-36.1,0-71.7,0-107.3,0c0,3.8-0.2,7.3,0,10.8c0.5,6.3-1.7,10.9-7.5,13.7C97.3,384,75.6,384,53.8,384z M222.5,274
			c-1.2-0.1-1.9-0.1-2.6-0.1c-65.8,0-131.7,0-197.5-0.1c-3.6,0-4.4,1.4-4.4,4.7c0.1,21.4,0.1,42.7,0.1,64.1c0,5.4,0,5.4,5.4,5.4
			c65,0,129.9,0,194.9,0c1.3,0,2.7,0,4.2,0C222.5,323.1,222.5,298.7,222.5,274z M57.4,262.3c73.8,0,147.3,0,220.7,0
			c0-4.3,0-8.4,0-12.4c-73.7,0-147.1,0-220.7,0C57.4,254.1,57.4,258,57.4,262.3z M234.2,313c27.8,0,55.5,0,83.3,0
			c0.1-1.4,0.2-2.5,0.2-3.6c0-10.2,0-20.5,0-30.7c0-4.7-0.2-4.9-4.8-4.9c-25,0-49.9,0-74.9,0c-1.2,0-2.4,0.1-3.7,0.2
			C234.2,287.2,234.2,300,234.2,313z M234.2,348c1.5,0,2.9,0,4.2,0c21.6,0,43.2,0,64.8,0c3.7,0,7.5,0.2,11.2-0.1
			c1.1-0.1,3-1.4,3.1-2.2c0.2-6.9,0.1-13.9,0.1-20.8c-28.1,0-55.7,0-83.4,0C234.2,332.7,234.2,340.1,234.2,348z M272.9,186.3
			c0-35,0-69.7,0-104.5c-3.5,0-6.8,0-10.3,0c0,34.9,0,69.6,0,104.5C266.1,186.3,269.3,186.3,272.9,186.3z M115.1,359.5
			c-19.4,0-38.6,0-57.7,0c0,4.5,0,8.7,0,13c19.4,0,38.5,0,57.7,0C115.1,368.1,115.1,364,115.1,359.5z M245.2,372.5
			c19.5,0,38.5,0,57.5,0c0-4.5,0-8.8,0-13c-19.3,0-38.4,0-57.5,0C245.2,364,245.2,368.1,245.2,372.5z"/>
		<g>
			<g>
				<path class="st1" d="M201.9,21.1c26,0,52,0,78,0c9.5,0,13.3,3.9,13.3,13.5c0,4.9,0.1,9.7,0,14.6c-0.1,6.5-4.1,10.8-10.6,11.3
					c-1.2,0.1-2.5,0.1-3.7,0.1c-51.4,0-102.7,0-154.1,0c-10.7,0-14.4-3.7-14.4-14.5c0-4.1,0-8.2,0-12.4c0.1-8.5,4.3-12.6,12.8-12.6
					C149.4,21,175.6,21.1,201.9,21.1z M122,32.5c0,5.7,0,11.1,0,16.6c53.4,0,106.5,0,159.7,0c0-5.6,0-11,0-16.6
					C228.4,32.5,175.3,32.5,122,32.5z"/>
			</g>
		</g>
		<g>
			<path class="st1" d="M60.9,305.3c6,0,8.7,1.8,8.7,5.7c-0.1,3.8-2.7,5.5-8.5,5.5c-1.1,0-2.2,0-3.4,0c-3.5-0.2-5.8-2.4-5.9-5.5
				c-0.1-3.1,2.3-5.4,5.7-5.7C58.6,305.2,59.8,305.3,60.9,305.3z"/>
		</g>
		<g>
			<path class="st1" d="M100.5,316.5c-1.2,0-2.5,0.1-3.7,0c-3.2-0.4-5-2.3-5.1-5.5c-0.1-3.1,1.8-5.2,4.9-5.6
				c2.2-0.3,4.5-0.2,6.7-0.1c3.7,0.1,6.1,2.4,6,5.7c0,3.3-2.4,5.4-6.2,5.5C102.3,316.6,101.4,316.5,100.5,316.5
				C100.5,316.5,100.5,316.5,100.5,316.5z"/>
		</g>
		<g>
			<path class="st1" d="M60.8,325.2c1.2,0.1,2.5,0,3.7,0.2c3.2,0.4,5,2.3,5,5.5c0,3.2-1.8,5.1-5,5.5c-2.3,0.3-4.7,0.2-7.1,0.1
				c-3.4-0.2-5.9-2.7-5.6-5.7c0.3-3.3,2.2-5.2,5.6-5.4c1.1-0.1,2.2,0,3.4,0C60.8,325.2,60.8,325.2,60.8,325.2z"/>
		</g>
		<g>
			<path class="st1" d="M100.3,336.4c-6,0.1-8.7-1.8-8.7-5.7c0.1-3.8,2.7-5.5,8.5-5.5c1.2,0,2.5,0,3.7,0.1c3.4,0.3,5.4,2.4,5.5,5.4
				c0,3.1-2,5.2-5.3,5.6C102.8,336.5,101.6,336.4,100.3,336.4z"/>
		</g>
		<g>
			<path class="st1" d="M60.6,285.6c1.4,0,2.8-0.1,4.1,0c3,0.4,4.7,2.3,4.8,5.2c0.1,3-1.5,5.1-4.4,5.5c-2.7,0.4-5.5,0.3-8.2,0.1
				c-3.2-0.2-4.9-2.4-5.1-5.5c-0.2-2.9,2.2-5.2,5.4-5.5C58.4,285.4,59.5,285.5,60.6,285.6C60.6,285.5,60.6,285.6,60.6,285.6z"/>
		</g>
		<g>
			<path class="st1" d="M100.5,285.5c1.2,0,2.5-0.1,3.7,0c3.2,0.4,5,2.2,5.1,5.4c0.1,3.2-1.7,5.2-4.9,5.5c-2.5,0.3-5,0.3-7.4,0.1
				c-3.3-0.3-5.4-2.6-5.3-5.6c0.1-3,2.2-5.2,5.5-5.4C98.3,285.4,99.4,285.5,100.5,285.5C100.5,285.5,100.5,285.5,100.5,285.5z"/>
		</g>
		<g>
			<path class="st1" d="M140.4,316.5c-1.2,0-2.5,0.1-3.7,0c-3.1-0.4-5-2.3-5.1-5.4c-0.1-3.2,1.7-5.2,4.8-5.6
				c2.2-0.3,4.5-0.2,6.7-0.1c3.7,0.1,6.1,2.4,6,5.7c0,3.3-2.4,5.4-6.2,5.5C142.1,316.6,141.2,316.5,140.4,316.5
				C140.4,316.5,140.4,316.5,140.4,316.5z"/>
		</g>
		<g>
			<path class="st1" d="M140.3,336.4c-6.1,0.1-8.7-1.6-8.8-5.5c0-4,2.6-5.7,8.7-5.7c1.2,0,2.5,0,3.7,0.1c3.1,0.3,5,2.1,5.2,5.3
				c0.2,3.1-1.8,5.3-5.1,5.7C142.8,336.5,141.5,336.4,140.3,336.4z"/>
		</g>
		<g>
			<path class="st1" d="M180.1,325.3c1.2,0,2.5-0.1,3.7,0c3.2,0.3,5,2.1,5.1,5.3c0.1,3.1-1.8,5.4-5.2,5.7c-2.3,0.2-4.7,0.2-7.1,0
				c-3.4-0.3-5.3-2.5-5.3-5.6c0-3.1,2-5.1,5.4-5.5C177.9,325.2,179,325.3,180.1,325.3C180.1,325.3,180.1,325.3,180.1,325.3z"/>
		</g>
		<g>
			<path class="st1" d="M140.4,285.5c1.1,0,2.2-0.1,3.4,0c3.4,0.3,5.4,2.4,5.4,5.5c0,3.4-2,5.3-5.3,5.6c-2.3,0.2-4.7,0.2-7.1,0
				c-3.4-0.3-5.3-2.6-5.2-5.6c0.1-3.1,2.1-5.1,5.5-5.4C138.1,285.4,139.3,285.5,140.4,285.5z"/>
		</g>
		<g>
			<path class="st1" d="M180.3,285.5c0.9,0,1.7,0,2.6,0c3.9,0.2,6.1,2.2,6.1,5.6c0,3.2-2,5.3-5.7,5.6c-2.2,0.2-4.5,0.2-6.7-0.1
				c-3.4-0.4-5.2-2.6-5.1-5.7c0.1-3.1,2.1-5.1,5.5-5.3C178,285.4,179.2,285.5,180.3,285.5C180.3,285.5,180.3,285.5,180.3,285.5z"/>
		</g>
		<g>
			<path class="st1" d="M179.9,316.5c-0.9,0-1.7,0-2.6,0c-3.6-0.2-5.8-2.2-5.9-5.4c-0.1-3.3,2.2-5.6,5.9-5.8c1.9-0.1,3.7-0.1,5.6,0
				c3.8,0.1,6.1,2.3,6.1,5.6c0,3.3-2.3,5.5-6.1,5.6C181.9,316.6,180.9,316.5,179.9,316.5z"/>
		</g>
		<g>
			<path class="st1" d="M275.7,299.2c-7.7,0-15.5,0-23.2,0c-4.4,0-6.9-2.1-7-5.6c0-3.5,2.4-5.7,6.8-5.7c15.6,0,31.2,0,46.8,0
				c4.5,0,6.9,2,7,5.5c0.1,3.6-2.5,5.7-7.2,5.7C291.2,299.2,283.5,299.2,275.7,299.2z"/>
		</g>
	</g>
</g>
</svg>
