<?xml version="1.0" encoding="utf-8"?>
<!-- Generator: Adobe Illustrator 22.1.0, SVG Export Plug-In . SVG Version: 6.00 Build 0)  -->
<svg version="1.1" id="Слой_1" xmlns="http://www.w3.org/2000/svg" xmlns:xlink="http://www.w3.org/1999/xlink" x="0px" y="0px"
	 viewBox="0 0 383.8 339.3" style="enable-background:new 0 0 383.8 339.3;" xml:space="preserve">
<g>
	<path d="M383.8,71.4c-4.2,21.9-16.4,40.5-24.9,60.7c-1.1,2.7-1.2,4.5,0.5,7.1c29.5,44.5,15.5,105.1-30.6,132
		c-1.7,1-3.7,1.8-5.5,1.9c-13.7,0.2-27.5,0.1-41.2,0.1c-4.1,0-6.6-2.5-6.5-6.1c0.1-3.4,2.6-5.7,6.5-5.9c0.9,0,1.7,0,2.6,0
		c11.6,0,23.2,0.1,34.9-0.1c1.8,0,3.8-0.5,5.2-1.4c28.3-17.5,42.9-51.6,36.5-84.8c-6.2-32.4-32.4-58.5-64.8-64.5
		c-38.1-7.1-74.5,11.9-90.3,47.3c-0.1,0.2-0.2,0.5-0.3,0.7c-2.1,4.6-5.1,6.4-8.6,4.8c-3.6-1.6-4.6-5-2.4-9.5
		c2.7-5.4,5.5-10.6,8.7-15.7c1.3-2.1,1.5-3.5,0.4-5.7c-6.4-13.5-12.8-27.1-18.9-40.8c-17.1-38.5,4.4-81.1,45.6-90.1
		c4.4-0.9,8.9-1.2,13.4-1.3C268.9,0,293.8,0,318.6,0c33.1,0.1,59.4,22.7,64.5,55.3c0.1,0.8,0.4,1.7,0.7,2.5
		C383.8,62.4,383.8,66.9,383.8,71.4z M327,108.5c5.3-11.5,10.7-22.6,15.6-34c7.3-17.3-4.6-35.2-23.4-35.6c-2.6,0-5.3,0.1-7.9-0.2
		c-3.3-0.4-5.6-3-5.5-6c0.1-3.3,2.5-5.6,6.1-5.8c2.2-0.1,4.5,0,6.7,0c28.4,0.2,46.1,27.8,34.4,53.7c-4.8,10.6-9.7,21.1-14.6,31.6
		c-0.5,1-0.8,2-1.2,2.9c3.9,3.4,7.7,6.7,11.7,10.2c6.7-14.6,14-28.6,19.5-43.3c12.7-33.4-12.1-69.5-47.8-70.1
		c-26.1-0.4-52.2-0.5-78.3,0.1c-22.2,0.5-38,11.8-47.1,31.9c-5.2,11.6-6.2,24-1.6,35.8c5.9,15.2,13.2,29.9,19.9,45
		c4.2-3.7,8.1-7,11.9-10.4c-5.4-11.7-10.9-23.2-16.1-34.8c-10.3-23.3,5.1-50.9,29.9-52.4c18.2-1.1,36.5-0.3,54.7-0.3
		c3.4,0,5.3,2,5.8,5.3c0.4,3.1-1.7,5.8-4.9,6.5c-1.3,0.3-2.7,0.2-4.1,0.2c-16.1,0-32.2-0.2-48.4,0.1c-16.6,0.3-28.7,17.2-22.9,32.8
		c4.5,12.4,10.7,24.1,16.2,36.3C266.2,92.8,296.4,92.8,327,108.5z"/>
	<path d="M112,263c1.4-7.3,3-16.7,5-26.1c0.5-2.5,0.2-3.5-2-4.6c-7.8-4.1-15.4-8.8-23.4-12.6c-7.4-3.6-10.2-9.2-9.3-17
		c0.9-8.5,4.7-15.5,11.9-20.3c4.6-3.1,9.3-3.6,14.4-0.7c8.7,5,17.6,9.5,26.2,14.5c2.5,1.5,3.8,0.9,5.6-1
		c10.7-11.8,23.3-20.7,39.1-24.4c10.1-2.3,19.8-1.4,29.2,3c10.4,4.9,20.7,10,31.3,14.4c18.2,7.6,27.4,21.9,30.6,40.5
		c6.7,38.7-13.5,82.4-47.4,102.3c-16,9.4-32.7,11.4-50,2.8c-9.4-4.7-18.9-9.2-28.5-13.2c-18.2-7.5-27.2-21.9-30.7-40.4
		C113,275.3,112.8,270.3,112,263z M160.4,281.4c0.5,4.9,0.7,9.3,1.3,13.6c4,27.8,30.3,41.1,55.1,25.9c21.2-13,33.9-32.3,40.2-56
		c4.1-15.4,4.8-30.8-1.6-45.9c-6-14.2-18.5-22.1-32.3-20.7c-7.8,0.8-15.1,3.2-21.6,7.7C174.8,224.2,162.3,250.2,160.4,281.4z
		 M211,188.3c-7.6-4-14.8-7.3-23.1-6.8c-10.8,0.7-20.1,5-28.2,11.7c-23.7,19.8-35.4,45.3-35.1,76.1c0.1,10.8,3.1,21,10,29.6
		c5,6.4,11.9,9.6,19.7,12.5C136.3,266.7,164.7,204.3,211,188.3z M130.4,207.4c-9.2-5-18.2-10-27.3-14.9c-0.2-0.1-0.5-0.3-0.7-0.3
		c-3.9,0.3-5.4,3.3-6.6,6.3c-1.3,3.1-3.6,7.2,0,9.5c8.4,5.3,17.3,9.7,26.2,14.6C124.9,217.3,127.6,212.5,130.4,207.4z"/>
	<path d="M40.6,249.4c-1.5-7.5-3-15-4.4-22.6c-0.3-1.7-0.3-3.5-0.2-5.2c0.3-3.5,2.9-5.8,6.2-5.6c3.2,0.1,5.2,2.3,5.7,5.8
		c1,6.6,1.4,13.5,3.5,19.8c7.1,21.3,26.1,29.5,46.7,20.7c4.3-1.8,7.7-0.9,9.2,2.5c1.5,3.5-0.1,6.6-4.4,8.4
		c-13.7,5.7-27.3,6.2-41-0.3c-9.9-4.8-19.8-9.6-29.9-13.8c-18.2-7.5-27.5-21.8-30.8-40.4c-7.1-40.2,15.1-85.7,51-104.8
		c14.2-7.6,29-8.1,43.7-1.7c11.6,5,23.1,10.2,34.3,15.9c16.9,8.6,26.1,22.7,28.3,41.4c0.4,3.7-1.9,6.6-5.3,6.9
		c-3.5,0.4-6.1-1.8-6.6-5.6c-0.9-7.9-3.5-15.1-8.4-21.3c-9.6-12.1-22.6-16-37.5-11C87,143.1,76.7,152.3,68,163.6
		c-8.4,10.9-14.2,23.2-17.4,36.6c-0.2,0.7-0.4,1.5-0.6,2.2c-1.1,4.1-4.1,6.3-7.6,5.4c-3.4-0.9-5.1-4.1-4.1-8
		c8.2-33.3,25.7-59,58.7-72.1c0.4-0.2,0.8-0.5,1.4-0.9C83.2,118,68,117,53.5,127.2C21.8,149.4,8.2,180,13.3,218.5
		C15.2,233.3,26.2,245,40.6,249.4z"/>
	<path d="M281.4,146.7c23.1,0.5,42.4,18.7,43.2,41.1c0.9,24.2-16.1,44-39.7,46.2c-1,0.1-2,0.1-3,0.1c-3.4-0.2-6-2.8-6-6
		c0-3,2.4-5.4,5.6-6c3.4-0.5,7-0.8,10.2-2c13.6-4.7,21.7-17.6,20.8-32.5c-0.9-13.5-11.2-25.1-25.2-28.1c-13.4-2.9-27.5,3.7-34.2,16
		c-0.2,0.4-0.5,0.9-0.7,1.3c-2.2,4.2-5.4,5.6-8.7,3.9c-3.2-1.7-4.1-5-2.1-9c6.2-12.7,16.3-20.6,30-23.8
		C274.9,147.2,278.2,147.1,281.4,146.7z"/>
</g>
</svg>
