<?xml version="1.0" encoding="utf-8"?>
<!-- Generator: Adobe Illustrator 22.1.0, SVG Export Plug-In . SVG Version: 6.00 Build 0)  -->
<svg version="1.1" id="Слой_1" xmlns="http://www.w3.org/2000/svg" xmlns:xlink="http://www.w3.org/1999/xlink" x="0px" y="0px" viewBox="0 0 511.7 512" style="enable-background:new 0 0 511.7 512;" xml:space="preserve">
	<style type="text/css">
		path {
			fill: #15af1c;
		}
	</style>
	<g>
		<path d="M240,0c10.7,0,21.3,0,32,0c1.3,0.3,2.5,0.7,3.8,0.8c56.7,4.6,106.9,25,148.9,63.3c70.5,64.3,99.9,144.4,81.7,238.4
		c-31.1,160-206.2,252.2-360.4,180.1c-3.3-1.5-6.2-2.4-9.9-1.5c-32.1,7.5-64.2,14.6-96.3,22C27.5,505.9,15.2,509,3,512
		c-0.7,0-1.3,0-2,0c0.2-1.3,0.3-2.6,0.6-3.9c9.5-43.6,19.1-87.1,28.5-130.7c0.5-2.3,0.1-5.3-1-7.4c-12.1-23.7-21-48.5-25.4-74.8
		C2.3,286.4,1.2,277.7,0,269c0-10.3,0-20.7,0-31c1.6-11.2,2.9-22.4,5-33.5C24.2,103.5,109.6,20.4,210.9,4C220.6,2.4,230.3,1.3,240,0
		z M53.4,458.9c1.6-0.3,2.6-0.5,3.5-0.7c27.6-6.3,55.2-12.4,82.7-18.9c4.6-1.1,8.4-0.8,12.7,1.6c51,27.4,104.8,34.1,160.5,18.8
		C453.9,421,515.7,260.1,436.7,138.1c-48.1-74.2-137.4-112-224.2-93.7C148.1,58,99.2,93.8,66.8,151c-22.6,39.9-30.8,83-25,128.6
		c3.8,29.8,14.1,57.4,29.1,83.3c1.3,2.2,2.2,5.4,1.7,7.8c-3.8,18.6-8.1,37.1-12.1,55.6C58.1,437,55.8,447.6,53.4,458.9z" />
		<path d="M178.7,141.9c14.9,0,16.9,1.2,22.1,13.6c5.6,13.3,10.9,26.8,16.6,40.1c1.7,4,2.1,7.9-0.4,11.4c-4.2,5.8-8.4,11.5-13.1,16.8
		c-6,6.7-6.3,8.1-1.8,15.7c18.8,31.1,44.7,53.8,78.5,67.5c6.6,2.7,8.9,2.3,13.5-3.1c5.8-6.9,11.4-13.9,17-21
		c4.3-5.4,6.6-6.7,12.8-3.8c16.5,7.6,32.8,15.5,48.9,23.7c2,1,3.8,4.8,3.8,7.3c-0.1,16-4.6,29.8-18.8,39.7
		c-18.2,12.6-37.4,13.7-58.1,8.7c-54.4-13-96.2-44-128.6-88.9c-11.2-15.5-22.6-31-28.3-49.7c-7.9-26.2-3.6-49.6,15.6-69.8
		C164.3,143.8,171.4,140.8,178.7,141.9z" />
	</g>
</svg>