<?xml version="1.0" encoding="utf-8"?>
<!-- Generator: Adobe Illustrator 22.1.0, SVG Export Plug-In . SVG Version: 6.00 Build 0)  -->
<svg version="1.1" id="Слой_1" xmlns="http://www.w3.org/2000/svg" xmlns:xlink="http://www.w3.org/1999/xlink" x="0px" y="0px" viewBox="0 0 342 384.1" style="enable-background:new 0 0 342 384.1;" xml:space="preserve">
	<style type="text/css">
		path {
			fill: #fff;
		}
	</style>
	<g>
		<path class="st0" d="M181.5,0c4.6,2.2,6.6,5.8,6.1,10.9c-0.2,2.1-0.3,4.3,0,6.4c0.3,1.9,1.3,3.7,1.9,5.7c0.7,2.4,1.9,4.9,1.9,7.4
		c0.1,24.2,0.2,48.5,0,72.7c-0.1,14.4,4.7,26.6,15.4,36.4c8.1,7.5,13.2,16.8,16,27.6c4.3-4.5,8.6-8.6,12.4-13.1
		c7.4-8.6,10.5-18.8,10.5-30.1c0-29,0-58,0-87c0-12.2,4.8-16.9,17.1-16.9c10.2,0,20.5,0,30.7,0c10.5,0,15.6,5.2,15.6,15.7
		c0,16.6,0,33.2,0,49.9c0,0.6,0,1.3,0,1.9c-0.2,3.6-2.2,5.9-5.3,6c-3.2,0.1-5.7-2.3-5.8-6c-0.2-6-0.1-12-0.1-18c0-1.5,0-3,0-4.7
		c-13.7,0-27.1,0-41,0c0,1.6,0,3.1,0,4.5c0,17.9-0.1,35.7,0,53.6c0.1,17.6-6,32.4-19,44.4c-9.2,8.5-13.4,19.3-13.8,32.2
		c5.4,1.6,10.7,3.3,16,4.9c10.6,3.2,21.2,6.7,31.9,9.6c3.3,0.9,7.3,0.9,10.6,0c15.1-4.3,30.1-9.1,45.2-13.5c2.5-0.7,3-2,2.7-4.3
		c-1.2-11.2-5.3-21.1-13.7-28.8c-15.7-14.2-20.3-32.4-19-52.6c0.2-3.5,2.7-5.8,5.7-5.8c3.2,0,5.3,2.5,5.5,6.3
		c0.4,6.7,0.3,13.5,1.4,20.1c1.4,8.6,5.8,16,12.2,21.9c13.5,12.3,19.4,27.6,19.3,45.8c-0.2,51.6-0.1,103.2-0.1,154.9
		c0,16.6-9.5,26.1-26,26.1c-25.6,0-51.2-0.1-76.9,0.1c-7.9,0-14.8-2-20.6-8.3c-6.8,8.1-16.1,8.4-25.6,8.3
		c-19.9-0.2-39.7-0.1-59.6-0.1c-10.1,0-13.6-1.3-21.3-8.1c-6.4,7.4-14.9,8.3-24.1,8.2c-20.9-0.3-41.7-0.1-62.6-0.1
		C9.8,384,0.1,374.2,0,358.7c0-6,0-12,0-18c0-4.2,2.4-6.9,5.8-6.8c3.3,0.1,5.4,2.6,5.4,6.8c0,6.4,0,12.7,0,19.1
		c0.1,7.8,5.1,12.9,13,12.9c23.1,0,46.2,0,69.4,0c7.5,0,12.8-5,12.8-12.2c0.1-20.6,0-41.2,0-61.9c0-0.5-0.1-1-0.2-1.8
		c-8.6,1.9-17.1,3.8-25.6,5.8c-24.1,5.5-48.2,10.9-72.3,16.4c-5.5,1.3-8.3-1-8.3-6.7C0,255.1-0.1,198,0.1,140.8
		c0-15.2,5.7-28.5,16.9-38.8C29.2,90.8,33.8,77,32.7,61c-0.1-1.1-1-2.5-1.9-3.1c-11.8-8-11.9-23.7-0.2-31.7c1.1-0.7,2-2.4,2.1-3.8
		c0.3-3.2,0-6.5,0.1-9.7c0.2-4.9,3-8.2,7.8-8.3c12.1-0.2,24.2-0.2,36.4,0c4.7,0.1,7.5,3.2,7.9,7.9c0.1,1.2,0.1,2.5,0.1,3.7
		c-0.4,5.2,0.4,9.1,5.2,13c9.2,7.6,7.2,21.9-2.8,28.7c-1.2,0.8-2.1,2.6-2.3,4c-1.7,14.5,3.3,26.6,13.1,37.2
		c7.7,8.3,14.9,17.1,17.5,28.4c1.4,5.8,1.8,11.7,2.7,17.4c13-10.6,21.2-23.7,20.9-41.6c-0.4-24.2-0.1-48.5-0.1-72.7
		c0-3.2,0.4-6.2,3-8.5c0.7-0.6,0.9-2,0.9-3c0.1-2.6,0.2-5.3,0-7.9c-0.5-5.1,1.5-8.7,6.1-10.9C160,0,170.7,0,181.5,0z M118,195.8
		c0,45.2,0,90,0,135c12.1,0,24,0,35.8,0c7.7,0,9.1-1.4,9.1-9.2c0-24.7,0-49.5,0-74.2c0-4.4,2.1-7,5.5-7.1c3.4-0.1,5.7,2.5,5.7,6.9
		c0,25.7,0.1,51.5,0,77.2c0,10.7-7.3,17.7-18.1,17.7c-11.4,0-22.7,0-34.1,0c-1.3,0-2.6,0-3.8,0c-0.2,0.8-0.3,1-0.4,1.2
		c0,5.4-0.1,10.7,0,16.1c0,8.4,4.9,13.3,13.3,13.3c22.9,0,45.7,0,68.6,0c8.3,0,13.3-5,13.3-13.3c0-60,0.1-120,0-180
		c0-12.2-4.6-22.6-13.2-31.2c-2.1-2.1-4.4-4.1-6.3-6.4c-8.7-10.5-13.1-22.6-13.2-36.2c0-4.4,0-8.9,0-13.7c-10.2,1.8-19.8,3.4-29.2,5
		c-0.2,0.5-0.4,0.7-0.4,0.9c-0.1,2.5-0.1,5-0.1,7.5c-0.1,13.9-4.5,26.2-13.5,36.8c-2,2.3-4.2,4.3-6.3,6.4c-9.7,10-13.5,22-12.9,36
		c1.8,0,3.1,0,4.5,0c11.2,0,22.5,0,33.7,0c10.9,0.1,18,7.1,18.2,18.1c0.1,4.9,0.1,9.7,0,14.6c0,4.5-2,6.9-5.6,6.9
		c-3.5,0-5.6-2.5-5.7-6.9c-0.1-4.6,0-9.2,0-13.9c-0.1-5.6-2.1-7.6-7.8-7.6c-10.6,0-21.2,0-31.9,0C121.6,195.8,119.9,195.8,118,195.8
		z M330.7,211.3c-15.2,4.6-29.7,9-44.2,13.5c-6,1.9-12,1.9-18,0c-8.2-2.6-16.4-5.1-24.7-7.6c-6.4-1.9-12.8-3.8-19.5-5.9
		c0,1.7,0,2.8,0,3.9c0,47.8,0,95.7,0,143.5c0,9.4,4.7,14,14,14c25.9,0,51.7,0,77.6,0c10.4,0,14.8-4.4,14.8-14.8c0-47.3,0-94.7,0-142
		C330.7,214.6,330.7,213.2,330.7,211.3z M11.4,306.8c31.8-7.2,63.4-14.4,94.9-21.6c0-39,0-77.5,0-116.4
		C74.6,176,43,183.2,11.4,190.4C11.4,229.3,11.4,267.9,11.4,306.8z M10.7,179c32.5-7.4,64.1-14.6,95.8-21.8c0-5.5-0.2-10.6,0-15.7
		c0.4-8.9-2.4-16.7-7.8-23.7c-4.1-5.2-8.3-10.3-12.5-15.4c-8.6-10.5-12.8-22.5-12.5-36c0-2,0-3.9,0-6c-10.1,0-19.8,0-29.4,0
		c-0.1,0.5-0.3,0.8-0.3,1c0,0.5-0.1,1-0.1,1.5C44.8,82,38.3,98,24,110.9c-6.4,5.8-10.9,13.4-11.5,22.2
		C11.5,148.2,11.3,163.3,10.7,179z M150.8,31.4c0,18.1,0,36,0,54.1c8.9-1.5,17.5-3.1,26.1-4.4c2.7-0.4,3.4-1.5,3.4-4.1
		c-0.1-14.1-0.1-28.2-0.1-42.3c0-1.1-0.2-2.1-0.2-3.2C170.1,31.4,160.5,31.4,150.8,31.4z M297.9,53c0-6.4,0.1-12.6-0.1-18.9
		c0-1-1.9-2.8-2.9-2.9c-11.6-0.2-23.2-0.2-34.8,0c-1,0-2.9,1.8-2.9,2.9c-0.3,6.2-0.1,12.4-0.1,18.8C270.6,53,284,53,297.9,53z
		 M58.8,48.8c6.2,0,12.5,0.1,18.7,0c4.3-0.1,7.1-3,7.1-7c0-4-2.6-6.7-6.9-6.8C65.3,35,52.9,35,40.4,35c-4.5,0-7.1,2.7-7,6.9
		c0.1,4.3,2.7,6.8,7.1,6.9C46.6,48.9,52.7,48.8,58.8,48.8z M73.6,15.7c-10,0-19.6,0-29.3,0c0,2.7,0,5.1,0,7.8c9.8,0,19.5,0,29.3,0
		C73.6,20.8,73.6,18.4,73.6,15.7z M154.6,19.6c7.4,0,14.4,0,21.5,0c0-2.9,0-5.4,0-8.2c-7.2,0-14.3,0-21.5,0
		C154.6,14.2,154.6,16.8,154.6,19.6z" />
		<path class="st1" d="M277.4,189.7c-4,0-8,0.1-12,0c-3.8-0.1-6.2-2.3-6.2-5.6c0-3.3,2.3-5.6,6.1-5.6c8.1-0.1,16.2-0.1,24.4,0
		c3.8,0,6.1,2.4,6,5.7c-0.1,3.2-2.3,5.4-5.9,5.5C285.7,189.8,281.5,189.7,277.4,189.7z" />
		<path class="st1" d="M307.6,293.7c-0.3,14.3-2.2,25.9-8.2,36.5c-1.8,3.2-4.1,6.3-6.7,8.9c-9.1,9.1-21.1,9.1-30.3,0.1
		c-8-7.8-11.7-17.9-13.5-28.6c-2.7-15.5-1.7-30.7,4.9-45.1c2-4.5,4.9-8.8,8.3-12.3c9.3-9.9,21.8-9.7,31.3,0.1
		c7.2,7.4,10.7,16.7,12.6,26.7C306.9,285.2,307.2,290.6,307.6,293.7z M258.7,296.2c0.2,11,1.9,22.2,8.7,31.9
		c6.2,8.8,13.6,8.7,20,0.1c0.8-1.1,1.6-2.2,2.2-3.5c9-19.3,9.1-38.6-0.2-57.8c-2.4-4.9-5.8-9.6-11.9-9.6c-6.3,0-9.5,4.9-12.2,9.8
		C260.3,276,258.9,285.7,258.7,296.2z" />
		<path class="st1" d="M60.4,282.6c-15.5-0.1-27.8-11.4-29.1-25.9c-0.4-5,1.2-7.9,4.8-8.3c3.5-0.5,5.7,2,6.4,7
		c1.1,8.8,7.3,15,15.8,15.8c7.5,0.8,15.2-4.2,17.7-11.7c0.6-1.8,0.8-3.6,1.1-5.5c0.5-3.6,2.7-5.8,5.7-5.7c3.2,0.1,5.5,2.8,5.5,6.4
		c-0.1,12.9-10.3,25-23.1,27.2C63.3,282.3,61.4,282.5,60.4,282.6z" />
		<path class="st1" d="M59.6,192.9c15.2,0,28.1,12.4,28.6,27.6c0.1,3.7-2,6.4-5.2,6.7c-3.2,0.3-5.7-2-6-5.8
		c-0.8-13-12.5-18.8-21.1-16.7c-7.1,1.7-12.4,7.3-13.4,14.8c-0.8,5.7-2.9,8.2-6.6,7.7c-3.8-0.6-5.2-3.4-4.6-9.2
		C32.9,204,45.4,192.9,59.6,192.9z" />
	</g>
	<path class="st1" d="M117.8,343.3l4.2-1.2c11.4,0,22.7,0,34.1,0c10.8,0,18-7,18.1-17.7c0.1-25.7,0.1-51.5,0-77.2
	c0-4.4-2.2-6.9-5.7-6.9c-3.4,0.1-5.5,2.7-5.5,7.1c0,24.7,0,49.5,0,74.2c0,7.8-1.4,9.2-9.1,9.2c-11.7,0-23.9,0-35.8,0L117.8,343.3z" />
	<path class="st1" d="M118,195.8h5.3c10.6,0,21.2,0,31.9,0c5.7,0,7.7,2,7.8,7.6c0,4.6,0,9.3,0,13.9c0.1,4.4,2.2,6.9,5.7,6.9
	c3.5,0,5.5-2.4,5.6-6.9c0-4.9,0.1-9.8,0-14.6c-0.2-10.9-7.3-18-18.2-18.1c-11.2-0.1-22.5,0-33.7,0h-4.5L118,195.8z" />
</svg>