<?xml version="1.0" encoding="utf-8"?>
<!-- Generator: Adobe Illustrator 22.1.0, SVG Export Plug-In . SVG Version: 6.00 Build 0)  -->
<svg version="1.1" id="Слой_1" xmlns="http://www.w3.org/2000/svg" xmlns:xlink="http://www.w3.org/1999/xlink" x="0px" y="0px"
	 viewBox="0 0 356.2 356.1" style="enable-background:new 0 0 356.2 356.1;" xml:space="preserve">
<g>
	<path fill="#1dcf7d" d="M178.1,0c98.5,0.1,178.1,79.7,178.1,178.1c-0.1,98.5-79.7,178.1-178.1,178C79.6,356.1-0.1,276.4,0,178
		C0.1,79.5,79.7-0.1,178.1,0z M18.7,178.1c0,87.8,71.3,159.2,159.2,159.3c87.8,0.2,159-71,159.4-159.1
		C337.8,90.6,265.9,18.6,178,18.7C90.1,18.9,18.8,90.2,18.7,178.1z"/>
	<path fill="#1dcf7d" d="M155.6,209.8c1.1-1,2.1-2,3.1-2.9c26.4-26.4,52.9-52.8,79.3-79.3c2.9-2.9,5.9-5,10.3-3.9c6.8,1.7,9.4,9.3,5.2,14.8
		c-0.8,1-1.7,1.9-2.5,2.7c-28.9,28.9-57.8,57.8-86.7,86.7c-6.4,6.4-10.9,6.4-17.2,0.1c-14.1-14-28.1-28.1-42.2-42.1
		c-2.9-2.9-4.7-6.2-3.5-10.4c2-6.7,10-9,15.4-4.2c3.6,3.2,7,6.8,10.4,10.3c9.2,9.2,18.4,18.4,27.6,27.5
		C154.7,209.3,155,209.4,155.6,209.8z"/>
</g>
</svg>
