<?xml version="1.0" encoding="utf-8"?>
<!-- Generator: Adobe Illustrator 22.1.0, SVG Export Plug-In . SVG Version: 6.00 Build 0)  -->
<svg version="1.1" id="Слой_1" xmlns="http://www.w3.org/2000/svg" xmlns:xlink="http://www.w3.org/1999/xlink" x="0px" y="0px"
	 viewBox="0 0 335.7 384" style="enable-background:new 0 0 335.7 384;" xml:space="preserve">
<style type="text/css">
	.st0{fill:#434242;}
	.st1{display:none;fill:#434242;}
	.st2{fill:#E85222;}
</style>
<path class="st0" d="M259.9,12c17,0,33,6.7,45.1,18.8c12.1,12.1,18.8,28.1,18.8,45.1v50c4,0,8,0,12-0.1V75.8
	c0-41.7-34.1-75.8-75.8-75.8h-30.1c0,4.3,0.1,7.8,0.1,12H259.9z"/>
<path class="st0" d="M323.7,258.4v49.8c0,17-6.7,33-18.8,45.1c-12.1,12.1-28.1,18.8-45.1,18.8H230c0.3,4,0,8-0.1,12h30
	c41.7,0,75.8-34.1,75.8-75.8v-50C331.7,258.4,327.7,258.4,323.7,258.4z"/>
<path class="st0" d="M12,125.8V75.8c0-17,6.7-33,18.8-45.1C42.9,18.7,58.9,12,75.8,12H106c0.1-4-0.1-8-0.1-12H75.8
	C34.1,0,0,34.1,0,75.8v49.7C4,125.5,8,125.6,12,125.8z"/>
<path class="st0" d="M75.8,372c-17,0-33-6.7-45.1-18.8C18.7,341.2,12,325.2,12,308.2v-49.7c-1,0-2.1-0.1-3.1-0.1c-3,0-6,0.1-8.9,0.2
	v49.6C0,349.9,34.1,384,75.8,384h30.1c0-4,0.2-8,0.2-12H75.8z"/>
<rect x="105.6" y="-460.5" class="st1" width="124.5" height="880"/>
<rect x="-193.9" y="125.5" class="st1" width="587" height="133"/>
<g>
	<g>
		<path class="st2" d="M293.1,116.8c-0.7,0.7-1.5,1.4-2.2,2.1c-55.5,55.5-111,111-166.5,166.5c-0.6,0.6-1.1,1.5-1.6,2.1
			c-29.7-29.7-59-59-88.2-88.2c3.7-3.7,7.5-7.4,11.3-11.3c25.2,25.2,50.7,50.7,76.3,76.3c53.2-53.2,106.2-106.2,159.2-159.2
			c3.9,3.7,7.8,7.4,11.7,11.1C293.1,116.4,293.1,116.6,293.1,116.8z"/>
	</g>
</g>
</svg>
