<?xml version="1.0" encoding="utf-8"?>
<!-- Generator: Adobe Illustrator 22.1.0, SVG Export Plug-In . SVG Version: 6.00 Build 0)  -->
<svg version="1.1" id="Слой_1" xmlns="http://www.w3.org/2000/svg" xmlns:xlink="http://www.w3.org/1999/xlink" x="0px" y="0px" viewBox="0 0 1614.3 1652.3" style="enable-background:new 0 0 1614.3 1652.3;" xml:space="preserve">
	<style type="text/css">
		.st0 {
			fill: #F5F5F5;
		}

		.st1 {
			fill: none;
			stroke: #949494;
			stroke-width: 2;
		}

		.st2 {
			fill: none;
			stroke: #949494;
			stroke-width: 2;
			stroke-linecap: round;
			stroke-linejoin: round;
		}
	</style>
	<g id="Границы_СамОбл">
		<g id="XMLID_4_">
			<g>
				<polygon class="st0" points="1544,369.4 1541,378.9 1536,392.4 1531.5,406.9 1521.5,420.4 1521,436.4 1526,445.9 1532.5,455.9 
				1530,463.9 1528,476.4 1517,490.4 1504.1,496 1479.9,475.4 1467.9,451.4 1445.4,439.4 1431.9,439.4 1412.4,439.4 1392.9,425.9 
				1371.1,429.7 1346.4,406.4 1343.4,375 1370.4,369 1386.9,354 1424.4,328.5 1446.9,294 1499,285.8 1500,316.4 1509,332.4 
				1524,347.4 1532,359.4 			" />
				<path fill="red" class="st0" d="M687,481.9l2,8l-1.5,16l15.5,9.5l21.7,4.2l2.2-0.8l0.3,0.8l6.7,18.5l-11,7.3l-4.7,10.7l-16,4.7l-22.3,8.3
				l20.3,13.7l14,29.3h-16.3l-9,7l2,16c0,0,4,10.3,5,12.3s19.7,9.7,19.7,9.7l24,5.7c0,0,15.3,4.7,17,4.7c1.7,0,2.7,8,2.7,9
				s-16,7.7-16,7.7l-7.3,8l5.4,15.3l-6.4,17.3l-8.7,6l-6,4.7l-17.3,10l-8,19.3c0,0-18.7,1.3-22,1.3c-3.3,0-19.3,0.7-19.3,0.7
				l-5.3,5.3l10,5.3l13.3,1.3l-4.7,16c0,0,0,5.3,0,8c0,2.7-2.7,10-2.7,10l10,7.3l-2.5,17.4L578.9,870l-86.5-29.9l-7.4-11.8L488,780
				l9.5-37.2l-4.7-23.3l-14-6.7l-20-7.3l-38-39.3c0,0-4-14.7-4-16.7s-9.3-25.3-9.3-25.3l-4.7-31.3l-5.5-25.2l-1.6-1.2l35.3-46
				l37.5-32l21,14l19.5-12.5l13-7.5l13-4l19-2.5l12.5,1.5H592l19.5,13.5l-1,15.5l47.5-18L687,481.9z" />
				<path class="st0" d="M215.7,695.9l10.1,3l12,2l5,3l7,9h-14l-4,10c0,0,4,4,7,5s7,10,7,10l12,1c0,0,0,8,0,14s5,3,8,3s5,1,5,1l2,19
				h4l5-6l14-5l9-8l11-7l32,33l34,12l34-2l40-6c0,0,24.5-18.8,32.2-6.8l-3.1,48.3l-60.1,15.8l-41.6,9.2l-64.3,18.3l-42.8,26.8
				l-12.1,123.3h-2.5l-38.2-40.8l-12.5-5l-11-9.5l-0.5-14l-2.5-12.5l-8.5-2.5l-7-1l-7,7.5l-8.5,11.5l-12.5,1.5l-7.5-6l-6-14.5
				l-4.5-10.5l12.5-16l-7-11l-9-11.5l2.5-23.5l-8-17.5L114,832.9l-14-14l-13-15l-6-17.5l0.5-13l4.5-14.5l11.5-12l14.5-19.5l13-9.5
				l15.5-0.5l21,5.5l12,2l9.5-4l8-8.5l5.5-9l16.7-7.5l1.3-1.3L215.7,695.9z" />
				<path class="st0" d="M954.5,200.4H971h17l10.9,7.5l2.3,0.9l-2.4,14.1c0,0-11,10-14,11s-6,5-6,5l1,9h22l7,12c0,0,0,11,0,15
				s-13,9-15,14s-5,13-5,16s14,8,14,8l13,12l22.5,4l-13.5,8c0,0-2,9-2,12s-6,26-5,29s-16-3-16-3s-16,4-16,10s8,19,8,19s-16,3-20,3
				s-10,0-14,0s-1,6-1,6l-9.5,10c0,0-26.5,6-29.5,6s-22,0-22,0l-11,1l-33-12l-15-17l-24.4-4.7h-2.5l-4.9-35.7l5-42l5-43.5l-13-11.5
				l-11.5-18l-9.5-27l-11-40l-2.5-18.5l7.5-9h10.5l10,2l6,8.5l6.5,11l5.5,10l0.5,9l9.5,4l4-4l8-4.5l22.5-2h11l14.5,10l4.5,11.5
				l14,11.5l11.5,4l11.5-6l18.5-7.5L954.5,200.4z" />
				<path class="st0" d="M1479.9,475.4l24.2,20.5l-1.7,0.7l-10.4,20.7l-13,14.5l-11,13l-10,18l2,10l4,8l-0.5,17l-6.5,16l-10,16.5
				l-8.5,19.5l-16,27.5l-14.5,15.5l-4,21.5l-3.1,17.8l0.1,0.1l-24.7,1.2l-9-6l-10.5,3l-18,1.5l-9-3l-16.5-19.5l-30-21l-15-16.5
				l-15-28.5l-12-10.5l10.5-15l3-27h-6h-15l-11.6-18.4l1.9-14.4l9.5-1.3l7.2,6.7c0,0-0.7,7.3,11.1,10.9l31.5-22.5l22.5-21l4.5-30
				l3-12l10.5-13.5l24-13.5l15-19.5l8.3-12.8l21.8-3.8l19.5,13.5h19.5h13.5l22.5,12L1479.9,475.4z" />
				<path class="st0" d="M1300,122.4l19.5-0.5l17,1.5l11,11l4.5,15.5l1,15.5l8.2,18.2l1.9,0.9l-10.3,16.3l-26,7l-5,24l-9,6l-14,7
				c0,0,8,15,12,15s20,3,20,3s1,13,1,16s-19,1-19,1h-8l-4,6l-3,6l-1.5,7.3l-12.5-3.3c0,0-10,2-13,2s-12,0-12,0l-12,7c0,0-14,0-17,0
				s-11-3-11-3h-8l-13,1l-3-9l-14,1l-6-3.5l1-9.5l-17-8l-17.5-14l3.5-20l9-22l11,1l1-13l-8-18l14-18l-4-13l1-22l5-16l4-17l18-7
				l10-5.8l5.7,6.3l7,5.5l6-1.5l5.5-5.5l10-1h11l13.5,9.5l10,7l12,12.5L1300,122.4z" />
				<path class="st0" d="M952.5,1519.4h-15l-17-8.5l-12.5-12l-9.5-4.5l-8.5-2l-8.5-0.5l-17,1l-9-9l-30.5,1l-9,4.5l-10.5-4l-8-7.5
				l-4.5-11l5.5-2.5l4-7.5l0.5-11.5l-7.4-5l0.8-1.2l9-13.5l6-3l8.7-2.7l5-2.7l-1-8.7l0.7-14.3l0.7-10l3-3.3h7l5.7-4l0.7-8.7
				l-0.3-7.3l-4.3-2.3l-5-2l2.4-9.3l4.9,2l6.7,2.3l4.7,3v8l10,0.7l2-5l0.3-4.7l25,0.3l2.7,3.7c3.3-0.3,13.3-0.3,13.3-0.3l2.7,2
				l-2.3,5.7l6.3,3l13,1.3l10,5l6.7,8.7l2.3-11.7l2.7-9l-6.3-5.7l-4.7-5.3l7.7-6.3l2.3-6.7v-8.7l0.3-8.3l2.3-9.7l7.7-7l14.3-1.7
				l7.3,5.3l8.3,1.7l23,14.7l13.7,16l14,11.3l6.7,7.7l8.7-6.3l4.3-2l29.3-2.3l20.7,0.7l5,2.7l5.3-8l9.3-4.3l11,7.3l11,6.3l7,12
				l8.7,2l11.3-0.3l7.3,5.3l14.3-0.7l5.3-5l0.7-8.3l8-7l11.3-4.7l4.8-0.6l2.1,8.4l2.5,27l-2.5,17l-11.5,18l-13.5,16.5l-11.5,15.5
				l-53.5,39l-18.5,9.5l-14.5,16l-12.5,18l-39.5,42l-12,9.5l-10,9.5l-19,11.5l-12,9.5l-17.5,9l-7-1l-6.5-8.5l2-7l-5-13l0.5-19
				l1-18.5l-1-23.5L952.5,1519.4z" />
				<polygon class="st0" points="796.4,1439.3 795.6,1440.4 793.9,1439.3 784.5,1432.9 739.5,1406.9 729.5,1406.9 722,1412.9 
				713,1419.9 699.5,1420.9 690.5,1410.9 683,1397.4 670,1374.4 640,1355.4 625.5,1340.9 619.5,1321.9 617,1307.4 600,1270.4 
				594.5,1249.4 586.5,1236.9 575.5,1235.4 568.5,1234.9 558.5,1242.4 544.5,1246.3 531,1247.4 515,1241.9 489.1,1225.6 
				489.8,1224.5 507,1209.2 507,1195.8 505,1181.8 509,1181.8 518.3,1177.2 533,1171.8 535.7,1163.8 537,1148.5 540.3,1134.5 
				558.7,1116.2 571,1121.2 579,1129.8 578.3,1145.2 578.3,1156.5 587,1159.8 597.7,1166.5 607.7,1171.2 626.3,1176.5 639.7,1177.8 
				639.7,1182.5 640.3,1189.2 647,1191.2 650.3,1198.5 650.3,1211.8 650.3,1224.5 647,1234.5 643.7,1240.5 646.3,1252.5 
				648.3,1263.2 655,1264.5 655.7,1253.2 659.7,1241.2 667.7,1240.5 681,1234.5 692.3,1223.8 699.7,1217.2 717.7,1217.8 
				737.7,1219.8 741.7,1213.8 752.7,1207.8 765,1217.8 757.7,1246.4 764.3,1249.2 783.7,1255.8 795,1262.5 791.7,1295.8 
				797.7,1299.2 830.3,1299.2 846.3,1302.5 838.3,1315.2 843.7,1320.5 839,1329.8 833.7,1332.5 834.5,1347.5 832,1356.8 837,1358.8 
				841.4,1361.1 841.7,1368.5 841,1377.1 835.4,1381.1 828.4,1381.1 825.4,1384.5 824.7,1394.5 824,1408.8 825,1417.5 820,1420.1 
				811.4,1422.8 805.4,1425.8 			" />
				<path class="st0" d="M1436,751.4l5,10.5l-6,14v12.5l-1.8,17.7l0.3,0.6l-12.1,3.1l-14.5-7l-1.5-10.5l-7.5-6.5c0,0-12,0.5-13.5,0.5
				s-10.5,1-13,1s-2.5,1-2.5,3s3,8,3,8l-1,2l-15.5,3v6.5l3.5,2l3.5,11.5l-14.5,1.5l-12.5-2l-1.5,6l-18.5-1l-3.5-9h-16.5l-7.5,2
				l-13,3l-9.5-4l-1.5-7.5l7-3l3.5-10l-9-0.5l-25-1.5l-4.5-5l-2.5-14l-6,4.5l-3,12l4.5,5l-0.5,8.5c0,0-9,11-11,12.5l-34.5,4l-9,4.5
				v19.5l-21,18c0,0-4.5,10.5-9,15l-8.3-27.8l-20.3-30.8l-4.5-15l-9-15l-15-15l-18-10.5l16.5-18l-18-16.5c0,0-21.5-3.1-21.5-7.6
				s14-29.9,14-29.9l7.5-6l3-13.5l-13.5-7.5l-12,18c0,0-13.5-9-18-9c-4.5,0-12,1.5-12,1.5s0-7.5,0-12s0-21,0-21l-20.3-24.5l5.3-15.9
				l9-7.5l10.5,30l16.5,1.5c0,0,16.5-4.5,21-7.5s30-27,30-27l13.5-3h21l27-1.5l12-12l16.5-3l3,16.5h10.5c0,0,4.5,0,10.5,0
				s13.5-15,13.5-15l7.9-4.9l11.6,18.4h15h6l-3,27l-10.5,15l12,10.5l15,28.5l15,16.5l30,21l16.5,19.5l9,3l18-1.5l10.5-3l9,6
				l24.7-1.2l13.9,11.1l8.5,2.5L1436,751.4z" />
				<path class="st0" d="M1250.2,1118.1l0-31.3l6-2l6.7-14h-9.3l-18-3.3l-8.7-17.3l-10,2l-12.7,2l-8.7-13.3l-4-18l7.3-6.7l6.2-13.6
				l10.8-14.8l10.5-7c0,0,3-14.5,3-16s0-12,0-12l-1-16l-2.5-38c0,0-8-4.5-11-5s-3.5-11.5-3.5-11.5l2-6.5c0,0,6,0.5,7.5,0
				s5,0.5,5-1.5s6.5-22.5,6.5-22.5l-2-11.5l0.5-11.5c0,0-15.5-6.5-13.5-8s11-12.5,11-12.5l0.5-8.5l-4.5-5l3-12l6-4.5l2.5,14l4.5,5
				l25,1.5l9,0.5l-3.5,10l-7,3l1.5,7.5l9.5,4l13-3l7.5-2h16.5l3.5,9l18.5,1l1.5-6l12.5,2l14.5-1.5l-3.5-11.5l-3.5-2v-6.5l15.5-3l1-2
				c0,0-3-6-3-8s0-3,2.5-3s11.5-1,13-1s13.5-0.5,13.5-0.5l7.5,6.5l1.5,10.5l14.5,7l12.1-3.1l6.6,12.2l6.5,12.5l0.5,9l-10,19l-5.5,17
				l-3,23.5l-1,20l-7.5,19.5l-11,14.5l-21,13l-21.5,9.5l-26,16l-19,15.5l-14,17.5l-4.5,21.5l7,17l7.5,30l-3.5,15.5l-5.5,16.5
				l-9.5,15l-10,5l-12,2l-10-9.5l-7.5-7.5l-10.7-11.5L1250.2,1118.1z" />
				<path class="st0" d="M1228.9,1292.5l-0.4,31.9l-5,14l1.8,7.8l0.1,0.3l-4.8,0.6l-11.3,4.7l-8,7l-0.7,8.3l-5.3,5l-14.3,0.7
				l-7.3-5.3l-11.3,0.3l-8.7-2l-7-12l-11-6.3l-11-7.3l-9.3,4.3l-5.3,8l-5-2.7l-20.7-0.7l-29.3,2.3l-4.3,2l-8.7,6.3l-6.7-7.7
				l-14-11.3l-13.7-16l-23-14.7l-8.3-1.7l-7.3-5.3l-14.3,1.7l-7.7,7l-2.3,9.7l-0.3,8.3v8.7l-2.3,6.7l-7.7,6.3l4.7,5.3l6.3,5.7
				l-2.7,9l-2.3,11.7l-6.7-8.7l-10-5l-13-1.3l-6.3-3l2.3-5.7l-2.7-2c0,0-10,0-13.3,0.3l-2.7-3.7l-25-0.3l-0.3,4.7l-2,5l-10-0.7v-8
				l-4.7-3l-6.7-2.3l-4.9-2l-0.8-15l5.3-2.7l4.7-9.3l-5.3-5.3l8-12.7l-16-3.3h-32.7l-6-3.3l3.3-33.3l-11.3-6.7l-19.3-6.7l-6.7-2.8
				l7.3-28.6l-12.3-10.1l20.8,2.1h12.2l10.8-4.5l10.2-1.8l4-15l-9-8l4-6l12,1v-6l-5-7l6-12l10-12l19-8l11,1l10-19l0.7-22.1
				l19.4,16.9l25.5-2.5l13.7,1.1l0.6,21.7l37.8,6.7l24.9,3.5l-2,21.3l-3.6,24.3l25,26l21,17l26,10h11l12,3v9l27,21l9,14l5,12l11-3h7
				l13,13l42-1L1228.9,1292.5z" />
				<polygon class="st0" points="259.4,1107.6 243,1101.9 220.4,1085.7 261.7,1021.7 264.2,1021.7 276.3,898.3 319.1,871.6 
				383.3,853.3 424.9,844.1 424.8,852.7 413.7,871.2 405,878.5 395.7,883.8 400.3,890.5 400.3,900.5 392.3,908.5 395.7,916.5 
				385.7,923.8 382.3,933.2 387.7,939.8 383.7,949.2 368.3,952.5 368.3,967.2 363.7,981.2 363,993.8 367.7,1004.5 382.3,1016.5 
				373,1021.2 363,1020.5 362.3,1028.5 365,1039.2 373,1032.5 385,1034.5 381,1044.5 365,1051.2 351.7,1045.8 336.3,1057.2 
				320.3,1080.5 310.3,1080.5 287.7,1080.5 275.7,1083.8 261.9,1107.6 260.7,1108.9 			" />
				<path class="st0" d="M487.3,1224.5l-15.8-5.1l-25,0.5l-26-1l-14.5,6l-10,14l-0.5,11l-4,13l-10,5H370l-4.5-13
				c-2-4.5-4-16.5-4-16.5l-3-15.5l-5.5-13.5l-14.5-7.5l-14.5-3.5l-6.5-14.5l-12.5-7c0,0-9.5-12.5-12-13.5s-8-15.5-8-15.5l-0.5-12.5
				l-4.5-10.5l-13-10l-6.3-6l1.2-1.3l13.7-23.8l12-3.3h22.7h10l16-23.3l15.3-11.3l13.3,5.3l16-6.7l4-10h23.3l16.7-19.3l40.7-6.7
				l22.7,0.7l17.3,22l12,22.7l12.7,8l13.3,11.3l12-11.3l20,0.7l-17,53.7l-18.3,18.3l-3.3,14l-1.3,15.3l-2.7,8l-14.7,5.3l-9.3,4.7h-4
				l2,14v13.3l-17.1,15.3l-0.7,1.1L487.3,1224.5z" />
				<path class="st0" d="M397.3,567.6l5.5,25.2l4.7,31.3c0,0,9.3,23.3,9.3,25.3s4,16.7,4,16.7l38,39.3l20,7.3l14,6.7l4.7,23.3
				L488,780c-7.8-12-32.2,6.8-32.2,6.8l-40,6l-34,2l-34-12l-32-33l-11,7l-9,8l-14,5l-5,6h-4l-2-19c0,0-2-1-5-1s-8,3-8-3s0-14,0-14
				l-12-1c0,0-4-9-7-10s-7-5-7-5l4-10h14l-7-9l-5-3l-12-2l-10.1-3l-1.2-1.3l7.5-7.2l7.5-12.5l-4.5-10.5l-11.5-14l-7.5-12l0.5-12
				l9.5,1.5l10,7l15,5l4-6l4.5-12l15-7.5l18-4c15,2.5,1,5,15,2.5s16-7,16-7l1-13l-10-10l-9.5-6l-3-12.5l5-5.5l46,2.5l30-0.5
				l21.8,6.7l0.9-1.2L397.3,567.6z" />
				<path class="st0" d="M1250.2,1118.1l-1.3,1.3l-1.2-1.3l-8.7,8.3l-10.5,14l-0.5,25.5l7,17l16,20l9,15l9.5,11l0.5,12.5l-14.5,14.5
				l-18,17l-8.6,18.7l0,0.9l-34.3,12l-42,1l-13-13h-7l-11,3l-5-12l-9-14l-27-21v-9l-12-3h-11l-26-10l-21-17l-25-26l3.6-24.3l2-21.3
				c0,0,68.1-9,70.1-9s18-15,18-15l53.5-7l12-5l3-14l6-11.5l0.5-20v-22l3-18l4-1l7-10l10.7-9.8h0l4.3-1.2h8.3l5.2-0.8l8.2,9.1
				l-6.2,13.6l-7.3,6.7l4,18l8.7,13.3l12.7-2l10-2l8.7,17.3l18,3.3h9.3l-6.7,14l-6,2L1250.2,1118.1z" />
				<path class="st0" d="M1053.5,230.9l3-5.5l5-26l7.5-47l15.5-21.5l36-43.5l15-16.5l25-8.5l8-1l19.5,0.5l14.5,2l2.5,7.5l-0.1,16.7
				l0.9,0.9l-10,5.8l-18,7l-4,17l-5,16l-1,22l4,13l-14,18l8,18l-1,13l-11-1l-9,22l-3.5,20l-21.5,20c0,0-7,35-7,39s1,15,1,15l-21-3
				l-11,5l-6-14h-16l-21.5,7l-22.5-4l-13-12c0,0-14-5-14-8s3-11,5-16s15-10,15-14s0-15,0-15l-7-12h-22l-1-9c0,0,3-4,6-5s14-11,14-11
				l2.4-14.1l22.3,8.2c0,0,10,9,15,10.5L1053.5,230.9z" />
				<path class="st0" d="M727.2,519.6l-0.3-0.8l21.2-8.4c2.5-0.3,3-5,3-5l1-10l-0.5-6l-22.5-13l-10-7.5l1-20.5l6.5-9.5l10.5-9l11.5-6
				l11.5-1.5c0,0,9.5-4,20.5-8.5l31.4-17.8h2.5l24.4,4.7l15,17l33,12l11-1c0,0,19,0,22,0s29.5-6,29.5-6l3.5,24l7,6c0,0-7,2-11,2
				s-15,1-15,1l-13,9v18l-1,12l29-3l2.5,18c0,0-8.5,7-11.5,7s-12,8-16,9s-7,3-10,3s-7,0-7,0h-13h-7l-12,3c0,0-2,9-2,12s-7,3-13,3
				s0-5,0-5l-9-3l-15-3l-3-11h-8c0,0-16-2-21-1s0,6,0,6l1,12c0,0-15,7-19,7s-15-2-15-2l-14-6l-9-15L727.2,519.6z" />
				<path class="st0" d="M1406.5,202.4l22-3.5l15.5-5.5l16-9l26.5-23.5l18-13.5l20.5-19.5h11l7.5,4.5l8.5,17l2,10v12.5l4.5,14l4,12
				l-10,7l-11,10l-12,10l-7.5,6.5l-11.5,15.5l-3,21.5l-8.6,17l0,0.4l-52.1,8.1l-22.5,34.5l-37.5,25.5l-16.5,15l-27,6l-4.5-16.5
				l-7.5-24l-12,9l-21-10.5l-10.5-6c0,0,15-13.5,19.5-18s-11-9.8-11-9.8l1.5-7.3l3-6l4-6h8c0,0,19,2,19-1s-1-16-1-16s-16-3-20-3
				s-12-15-12-15l14-7l9-6l5-24l26-7l10.3-16.3l21.9,9.9L1406.5,202.4z" />
				<path class="st0" d="M954.8,903.8l12,15l-23,16l-3,17l-25,5l-9,30l-3.3,11.8l4.3,9.8l7,1.5l11.5,6.5l-0.5,15l-0.5,20l-1,18.5
				l-4.5,2l-1.5,9l5,6l4.7,19.1l-13.7-1.1l-25.5,2.5l-19.4-16.9l-0.6-23.6l-4-6l-8.7,8l-16-2l-12-8l-18-10.7l-16-7.3l-22-9.3
				l2.7-17.3l4-7.3l6-7.3v-13.3l-7.3-14.7l-16.7-8.7l-21.3,3.3l-16.7-11.3l-10.7-1.3h-7.3l-3.3,12l-11.3,5.3l10.7,4l6,10l7.3,12
				l-3.3,5.3l6.7,9.3c0,0,8.7,15.3,11.3,15.3c2.7,0,1.3,10,1.3,10h-8l-10-2l-6.7-21.3l-12.7-17.3l-6.7-18.7l-7.3-4.7l-9.9,9.5
				l-11.3-1.2l-12,5.3c0,0-9.3,0.7-11.3,0s-5.3-11.3-5.3-11.3l-10-16h8l-6-12.7l-3.3-8l3.3-8.7l-11.3-2.7l-7.3-10.7l8-6.7l1.3-12.7
				c0-17.3-32.8-27.2-32.8-27.2l29.9-7.8l40.7-10l22.2-14.6l7.8,12.6h48l31.3-3.3l6.7,5.3l20.7,14l39.3-6l16-22.7l6.7-10l13.3-18
				l6-16.7l11.3,30c0,0,14,10,17,12s13,13,13,13l15,19l17,13L954.8,903.8z" />
				<path class="st0" d="M851.8,753.8l-4,16l19.7,23l-6,16.7l-13.3,18l-6.7,10l-16,22.7l-39.3,6l-20.7-14l-6.7-5.3l-31.3,3.3h-48
				l-7.8-12.6l2.5-17.4l-10-7.3c0,0,2.7-7.3,2.7-10c0-2.7,0-8,0-8l4.7-16l-13.3-1.3l-10-5.3l5.3-5.3c0,0,16-0.7,19.3-0.7
				c3.3,0,22-1.3,22-1.3l8-19.3l17.3-10l6-4.7l8.7-6l6.4-17.3l29.6,14.3l13,14l40-3L851.8,753.8z" />
				<path class="st0" d="M1045.9,725.9c0,4.5,21.5,7.6,21.5,7.6l18,16.5l-16.5,18l18,10.5l15,15l9,15l4.5,15l20.3,30.8l-17.3,17.3
				v16.5l-4.5,13.5l-13.5,9l4.7,10.5v12l-18.2,4.5l9,20.2c0,0-10,4.2-11.5,4.2s-1.5,2.5-1.5,4.5s-11.5,1.5-13,1s-5-5.5-5-5.5
				s-12.5-2.5-14.5-2.5s-5,3.5-5,3.5v5c0,0-0.4,6.4,0.6,7.8c-3.3-1.2-22.6-6.8-22.6-6.8l-9,3l-3,7.5l-7.5,4.5l-7,12.5l-9.5,8
				l-4.5-8.5l-21,4.5l-19.5-6.5l-21,7.5l-17.8-2.8l3.3-11.8l9-30l25-5l3-17l23-16l-12-15l-14-24l-17-13l-15-19c0,0-10-11-13-13
				s-17-12-17-12l-11.3-30l13.3-24l-3-10l17-13l3-18l22-16l36,9l33-5l16-10l5,15l15-11L1045.9,725.9z" />
				<path class="st0" d="M1059.9,695.9c0,0-14,25.4-14,29.9l-21.1-16l-15,11l-5-15l-16,10l-33,5l-36-9l-22,16l-3,18l-17,13l3,10
				l-13.3,24l-19.7-23l4-16l-28-21l-40,3l-13-14l-29.6-14.3l-5.4-15.3l7.3-8c0,0,16-6.7,16-7.7s-1-9-2.7-9c-1.7,0-17-4.7-17-4.7
				l-24-5.7c0,0-18.7-7.7-19.7-9.7s-5-12.3-5-12.3l-2-16l9-7h16.3l-14-29.3l-20.3-13.7l22.3-8.3l16-4.7l4.7-10.7l11-7.3l-6.7-18.5
				l20.7,6.2l9,15l14,6c0,0,11,2,15,2s19-7,19-7l-1-12c0,0-5-5,0-6s21,1,21,1h8l3,11l15,3l9,3c0,0-6,5,0,5s13,0,13-3s2-12,2-12l12-3
				h7h13c0,0,4,0,7,0s6-2,10-3s13-9,16-9s11.5-7,11.5-7l8.5,12l-2,12l16,25l-7,3l-2,28l-1,14l30.8,18l20.3,24.5c0,0,0,16.5,0,21
				s0,12,0,12s7.5-1.5,12-1.5c4.5,0,18,9,18,9l12-18l13.5,7.5l-3,13.5L1059.9,695.9z" />
				<path class="st0" d="M1371.1,429.7l-8.3,12.8l-15,19.5l-24,13.5l-10.5,13.5l-3,12l-4.5,30l-22.5,21l-31.5,22.5
				c-11.7-3.6-11.1-10.9-11.1-10.9l-7.2-6.7l-10.8-40l-8,6c0,0-5,2-9,2s-9-8-9-8l14-10l-11-19l13,2c0,0,0-5,0-8s2-8,2-11s-14-5-14-5
				l-8-5l1-19l1-23c0,0,0-10-3-13s-16-14-20-14s-17-10-17-10l1-9l-15,2l-13-22c0,0,2-11,3-8s15,19,15,19l8-14l-15-20l-2-15l19-14
				l19-9.5l6,3.5l14-1l3,9l13-1h8c0,0,8,3,11,3s17,0,17,0l12-7c0,0,9,0,12,0s13-2,13-2l12.5,3.3c0,0,15.5,5.3,11,9.8
				s-19.5,18-19.5,18l10.5,6l21,10.5l12-9l7.5,24l4.5,16.5l3,31.5L1371.1,429.7z" />
				<path class="st0" d="M1222.8,516.8l10.8,40l-9.5,1.3l-1.9,14.4l-7.9,4.9c0,0-7.5,15-13.5,15s-10.5,0-10.5,0h-10.5l-3-16.5
				l-16.5,3l-12,12l-27,1.5h-21l-13.5,3c0,0-25.5,24-30,27s-21,7.5-21,7.5l-16.5-1.5l-10.5-30l-9,7.5l-5.3,15.9l-30.8-18l1-14l2-28
				l7-3l-16-25l2-12l-8.5-12l-2.5-18l-29,3l1-12v-18l13-9c0,0,11-1,15-1s11-2,11-2l-7-6l-3.5-24l9.5-10c0,0-3-6,1-6s10,0,14,0
				s20-3,20-3s-8-13-8-19s16-10,16-10s17,6,16,3s5-26,5-29s2-12,2-12l13.5-8l21.5-7h16l6,14l11-5l21,3c0,0-1-11-1-15s7-39,7-39
				l21.5-20l17.5,14l17,8l-1,9.5l-19,9.5l-19,14l2,15l15,20l-8,14c0,0-14-16-15-19s-3,8-3,8l13,22l15-2l-1,9c0,0,13,10,17,10
				s17,11,20,14s3,13,3,13l-1,23l-1,19l8,5c0,0,14,2,14,5s-2,8-2,11s0,8,0,8l-13-2l11,19l-14,10c0,0,5,8,9,8s9-2,9-2L1222.8,516.8z" />
				<path class="st0" d="M1230.3,840.3l2,11.5c0,0-6.5,20.5-6.5,22.5s-3.5,1-5,1.5s-7.5,0-7.5,0l-2,6.5c0,0,0.5,11,3.5,11.5
				s11,5,11,5l2.5,38l1,16c0,0,0,10.5,0,12s-3,16-3,16l-10.5,7l-10.8,14.8l-8.2-9.1l-5.2,0.8h-8.3l-4.3,1.2h0l-8.2-6.2l-18.5-2
				l-10,7l-1.5,8c0,0-17,17.5-18,19.5s-4.5,2.5-4.5,2.5l-9.5-4l-1-8.5c0,0,6-20,6-21.5s-6-9.5-7-18s-6-2.5-6-2.5l-5-12.2l-9-20.2
				l18.2-4.5v-12l-4.7-10.5l13.5-9l4.5-13.5v-16.5l17.3-17.3l8.3,27.8c4.5-4.5,9-15,9-15l21-18v-19.5l9-4.5l34.5-4
				c-2,1.5,13.5,8,13.5,8L1230.3,840.3z" />
				<path class="st0" d="M1179,995.6l-10.7,9.8l-7,10l-4,1l-3,18v22l-0.5,20l-6,11.5l-3,14l-12,5l-53.5,7c0,0-16,15-18,15
				s-70.1,9-70.1,9l-62.7-10.2L928,1106l-4.7-19.1l-5-6l1.5-9l4.5-2l1-18.5l0.5-20l0.5-15l-11.5-6.5l-7-1.5l-4.3-9.8l17.8,2.8
				l21-7.5l19.5,6.5l21-4.5l4.5,8.5l9.5-8l7-12.5l7.5-4.5l3-7.5l9-3c0,0,19.3,5.5,22.6,6.8c0.1,0.2,0.2,0.2,0.4,0.2
				c0.2,0,0-0.1-0.4-0.2c-1-1.3-0.6-7.8-0.6-7.8v-5c0,0,3-3.5,5-3.5s14.5,2.5,14.5,2.5s3.5,5,5,5.5s13,1,13-1s0-4.5,1.5-4.5
				s11.5-4.2,11.5-4.2l5,12.2c0,0,5-6,6,2.5s7,16.5,7,18s-6,21.5-6,21.5l1,8.5l9.5,4c0,0,3.5-0.5,4.5-2.5s18-19.5,18-19.5l1.5-8
				l10-7l18.5,2L1179,995.6z" />
				<path class="st0" d="M1045.9,975.6c0.4,0.2,0.6,0.2,0.4,0.2C1046.2,975.8,1046,975.7,1045.9,975.6z" />
				<polygon class="st0" points="991.2,1137.9 966.3,1134.3 928.6,1127.7 			" />
				<path class="st0" d="M868.8,1066.8l0.6,23.6l-0.7,22.1l-10,19l-11-1l-19,8l-10,12l-6,12l5,7v6l-12-1l-4,6l9,8l-4,15l-10.2,1.8
				l-10.8,4.5h-12.2l-20.8-2.1l-11,6.1l-4,6l-20-2l-18-0.7l-7.3,6.7l-11.3,10.7l-13.3,6l-8,0.7l-4,12l-0.7,11.3l-6.7-1.3l-2-10.7
				l-2.7-12l3.3-6l3.3-10v-12.7v-13.3l-3.3-7.3l-6.7-2l-0.7-6.7v-4.7l-13.3-1.3l-18.7-5.3l-10-4.7l-10.7-6.7l-8.7-3.3v-11.3
				l0.7-15.3l-8-8.7l-12.3-5l17-53.7l18.7-1.3l4-6.7l-6-11.3l-2-6l13.3-0.7l28,4.7l18.7,1.3l3.3,6l9.3-2l-2-5.3l4-8l0.7-8v-14.7
				l-14-5.3l10.7-14l6.6-8.8l9.9-9.5l7.3,4.7l6.7,18.7l12.7,17.3l6.7,21.3l10,2h8c0,0,1.3-10-1.3-10c-2.7,0-11.3-15.3-11.3-15.3
				l-6.7-9.3l3.3-5.3l-7.3-12l-6-10l-10.7-4l11.3-5.3l3.3-12h7.3l10.7,1.3l16.7,11.3l21.3-3.3l16.7,8.7l7.3,14.7v13.3l-6,7.3l-4,7.3
				l-2.7,17.3l22,9.3l16,7.3l18,10.7l12,8l16,2l8.7-8L868.8,1066.8z" />
				<polygon class="st0" points="671.7,837.6 649.5,852.2 608.8,862.2 578.9,870 			" />
				<path class="st0" d="M668.9,982.3l-6.6,8.8l-10.7,14l14,5.3v14.7l-0.7,8l-4,8l2,5.3l-9.3,2l-3.3-6l-18.7-1.3l-28-4.7l-13.3,0.7
				l2,6l6,11.3l-4,6.7l-18.7,1.3l-20-0.7l-12,11.3l-13.3-11.3l-12.7-8l-12-22.7l-17.3-22l-22.7-0.7l-40.7,6.7l-16.7,19.3H385l-12-2
				l-8,6.7l-2.7-10.7l0.7-8l10,0.7l9.3-4.7l-14.7-12l-4.7-10.7l0.7-12.7l4.7-14v-14.7l15.3-3.3l4-9.3l-5.3-6.7l3.3-9.3l10-7.3
				l-3.3-8l8-8v-10l-4.7-6.7l9.3-5.3l8.7-7.3l11.1-18.5l0.1-8.5l60.1-15.8l7.4,11.8l86.5,29.9c0,0,32.8,9.8,32.8,27.2l-1.3,12.7
				l-8,6.7l7.3,10.7l11.3,2.7l-3.3,8.7l3.3,8l6,12.7h-8l10,16c0,0,3.3,10.7,5.3,11.3s11.3,0,11.3,0l12-5.3L668.9,982.3z" />
			</g>
			<g>
				<path class="st1" d="M726.8,518.8l21.2-8.4c2.5-0.3,3-5,3-5l1-10l-0.5-6l-22.5-13l-10-7.5l1-20.5l6.5-9.5l10.5-9l11.5-6l11.5-1.5
				c0,0,9.5-4,20.5-8.5l31.4-17.8l-4.9-35.7l5-42l5-43.5l-13-11.5l-11.5-18l-9.5-27l-11-40l-2.5-18.5l7.5-9h10.5l10,2l6,8.5l6.5,11
				l5.5,10l0.5,9l9.5,4l4-4l8-4.5l22.5-2h11l14.5,10l4.5,11.5l14,11.5l11.5,4l11.5-6l18.5-7.5l9-8H971h17l10.9,7.5l2.3,0.9l22.3,8.2
				c0,0,10,9,15,10.5l15,3.5l3-5.5l5-26l7.5-47l15.5-21.5l36-43.5l15-16.5l25-8.5l8-1l19.5,0.5l14.5,2l2.5,7.5l-0.1,16.7l0.9,0.9
				l5.7,6.3l7,5.5l6-1.5l5.5-5.5l10-1h11l13.5,9.5l10,7l12,12.5l13.5,0.5l19.5-0.5l17,1.5l11,11l4.5,15.5l1,15.5l8.2,18.2l1.9,0.9
				l21.9,9.9l21.5,8l22-3.5l15.5-5.5l16-9l26.5-23.5l18-13.5l20.5-19.5h11l7.5,4.5l8.5,17l2,10v12.5l4.5,14l4,12l-10,7l-11,10
				l-12,10l-7.5,6.5l-11.5,15.5l-3,21.5l-8.6,17l0,0.4l1.1,30.6l9,16l15,15l8,12l12,10l-3,9.5l-5,13.5l-4.5,14.5l-10,13.5l-0.5,16
				l5,9.5l6.5,10l-2.5,8l-2,12.5l-11,14l-12.9,5.5l-1.7,0.7l-10.4,20.7l-13,14.5l-11,13l-10,18l2,10l4,8l-0.5,17l-6.5,16l-10,16.5
				l-8.5,19.5l-16,27.5l-14.5,15.5l-4,21.5l-3.1,17.8l0.1,0.1l13.9,11.1l8.5,2.5l12.5,5.5l5,10.5l-6,14v12.5l-1.8,17.7l0.3,0.6
				l6.6,12.2l6.5,12.5l0.5,9l-10,19l-5.5,17l-3,23.5l-1,20l-7.5,19.5l-11,14.5l-21,13l-21.5,9.5l-26,16l-19,15.5l-14,17.5l-4.5,21.5
				l7,17l7.5,30l-3.5,15.5l-5.5,16.5l-9.5,15l-10,5l-12,2l-10-9.5l-7.5-7.5l-10.7-11.5l-1.2-1.3l-8.7,8.3l-10.5,14l-0.5,25.5l7,17
				l16,20l9,15l9.5,11l0.5,12.5l-14.5,14.5l-18,17l-8.6,18.7l0,0.9l-0.4,31.9l-5,14l1.8,7.8l0.1,0.3l2.1,8.4l2.5,27l-2.5,17
				l-11.5,18l-13.5,16.5l-11.5,15.5l-53.5,39l-18.5,9.5l-14.5,16l-12.5,18l-39.5,42l-12,9.5l-10,9.5l-19,11.5l-12,9.5l-17.5,9l-7-1
				l-6.5-8.5l2-7l-5-13l0.5-19l1-18.5l-1-23.5l-13.5-12.5h-15l-17-8.5l-12.5-12l-9.5-4.5l-8.5-2l-8.5-0.5l-17,1l-9-9l-30.5,1l-9,4.5
				l-10.5-4l-8-7.5l-4.5-11l5.5-2.5l4-7.5l0.5-11.5l-7.4-5l-1.7-1.2l-9.4-6.4l-45-26h-10l-7.5,6l-9,7l-13.5,1l-9-10l-7.5-13.5
				l-13-23l-30-19l-14.5-14.5l-6-19l-2.5-14.5l-17-37l-5.5-21l-8-12.5l-11-1.5l-7-0.5l-10,7.5l-14,3.9l-13.5,1.1l-16-5.5l-25.9-16.3
				l-1.8-1.1l-15.8-5.1l-25,0.5l-26-1l-14.5,6l-10,14l-0.5,11l-4,13l-10,5H370l-4.5-13c-2-4.5-4-16.5-4-16.5l-3-15.5l-5.5-13.5
				l-14.5-7.5l-14.5-3.5l-6.5-14.5l-12.5-7c0,0-9.5-12.5-12-13.5s-8-15.5-8-15.5l-0.5-12.5l-4.5-10.5l-13-10l-6.3-6l-1.3-1.3
				l-16.4-5.7l-22.6-16.2l41.4-64l-38.2-40.8l-12.5-5l-11-9.5l-0.5-14l-2.5-12.5l-8.5-2.5l-7-1l-7,7.5l-8.5,11.5l-12.5,1.5l-7.5-6
				l-6-14.5l-4.5-10.5l12.5-16l-7-11l-9-11.5l2.5-23.5l-8-17.5L114,832.9l-14-14l-13-15l-6-17.5l0.5-13l4.5-14.5l11.5-12l14.5-19.5
				l13-9.5l15.5-0.5l21,5.5l12,2l9.5-4l8-8.5l5.5-9l16.7-7.5l1.3-1.3l7.5-7.2l7.5-12.5l-4.5-10.5l-11.5-14l-7.5-12l0.5-12l9.5,1.5
				l10,7l15,5l4-6l4.5-12l15-7.5l18-4c15,2.5,1,5,15,2.5s16-7,16-7l1-13l-10-10l-9.5-6l-3-12.5l5-5.5l46,2.5l30-0.5l21.8,6.7
				l0.9-1.2l35.3-46l37.5-32l21,14l19.5-12.5l13-7.5l13-4l19-2.5l12.5,1.5H592l19.5,13.5l-1,15.5l47.5-18l29-6.5l2,8l-1.5,16
				l15.5,9.5l21.7,4.2L726.8,518.8z" />
				<polyline class="st1" points="834.5,1347.5 833.7,1332.5 839,1329.8 843.7,1320.5 838.3,1315.2 846.3,1302.5 830.3,1299.2 
				797.7,1299.2 791.7,1295.8 795,1262.5 783.7,1255.8 764.3,1249.2 757.7,1246.4 765,1217.8 752.7,1207.8 741.7,1213.8 
				737.7,1219.8 717.7,1217.8 699.7,1217.2 692.3,1223.8 681,1234.5 667.7,1240.5 659.7,1241.2 655.7,1253.2 655,1264.5 
				648.3,1263.2 646.3,1252.5 643.7,1240.5 647,1234.5 650.3,1224.5 650.3,1211.8 650.3,1198.5 647,1191.2 640.3,1189.2 
				639.7,1182.5 639.7,1177.8 626.3,1176.5 607.7,1171.2 597.7,1166.5 587,1159.8 578.3,1156.5 578.3,1145.2 579,1129.8 571,1121.2 
				558.7,1116.2 540.3,1134.5 537,1148.5 535.7,1163.8 533,1171.8 518.3,1177.2 509,1181.8 505,1181.8 507,1195.8 507,1209.2 
				489.8,1224.5 			" />
				<polyline class="st1" points="928.6,1127.7 966.3,1134.3 991.2,1137.9 989.2,1159.2 985.7,1183.5 1010.7,1209.5 1031.7,1226.5 
				1057.7,1236.5 1068.7,1236.5 1080.7,1239.5 1080.7,1248.5 1107.7,1269.5 1116.7,1283.5 1121.7,1295.5 1132.7,1292.5 
				1139.7,1292.5 1152.7,1305.5 1194.7,1304.5 1228.9,1292.5 1231.5,1291.6 			" />
				<polyline class="st1" points="752.7,1207.8 773.5,1209.8 785.7,1209.8 796.5,1205.3 806.7,1203.5 810.7,1188.5 801.7,1180.5 
				805.7,1174.5 817.7,1175.5 817.7,1169.5 812.7,1162.5 818.7,1150.5 828.7,1138.5 847.7,1130.5 858.7,1131.5 868.7,1112.5 
				869.4,1090.4 888.8,1107.3 914.3,1104.8 928,1106 			" />
				<path class="st1" d="M796.4,1439.3l9-13.5l6-3l8.7-2.7l5-2.7l-1-8.7l0.7-14.3l0.7-10l3-3.3h7l5.7-4l0.7-8.7l-0.3-7.3l-4.3-2.3
				l-5-2l2.4-9.3l4.9,2l6.7,2.3l4.7,3v8l10,0.7l2-5l0.3-4.7l25,0.3l2.7,3.7c3.3-0.3,13.3-0.3,13.3-0.3l2.7,2l-2.3,5.7l6.3,3l13,1.3
				l10,5l6.7,8.7l2.3-11.7l2.7-9l-6.3-5.7l-4.7-5.3l7.7-6.3l2.3-6.7v-8.7l0.3-8.3l2.3-9.7l7.7-7l14.3-1.7l7.3,5.3l8.3,1.7l23,14.7
				l13.7,16l14,11.3l6.7,7.7l8.7-6.3l4.3-2l29.3-2.3l20.7,0.7l5,2.7l5.3-8l9.3-4.3l11,7.3l11,6.3l7,12l8.7,2l11.3-0.3l7.3,5.3
				l14.3-0.7l5.3-5l0.7-8.3l8-7l11.3-4.7l4.8-0.6l2.4-0.3" />
				<path class="st1" d="M264.2,1021.7l12.1-123.3l42.8-26.8l64.3-18.3l41.6-9.2l60.1-15.8L488,780c-7.8-12-32.2,6.8-32.2,6.8l-40,6
				l-34,2l-34-12l-32-33l-11,7l-9,8l-14,5l-5,6h-4l-2-19c0,0-2-1-5-1s-8,3-8-3s0-14,0-14l-12-1c0,0-4-9-7-10s-7-5-7-5l4-10h14l-7-9
				l-5-3l-12-2l-10.1-3" />
				<polyline class="st1" points="261.9,1107.6 275.7,1083.8 287.7,1080.5 310.3,1080.5 320.3,1080.5 336.3,1057.2 351.7,1045.8 
				365,1051.2 381,1044.5 385,1034.5 408.3,1034.5 425,1015.2 465.7,1008.5 488.3,1009.2 505.7,1031.2 517.7,1053.8 530.3,1061.8 
				543.7,1073.2 555.7,1061.8 575.7,1062.5 558.7,1116.2 			" />
				<polyline class="st1" points="385,1034.5 373,1032.5 365,1039.2 362.3,1028.5 363,1020.5 373,1021.2 382.3,1016.5 367.7,1004.5 
				363,993.8 363.7,981.2 368.3,967.2 368.3,952.5 383.7,949.2 387.7,939.8 382.3,933.2 385.7,923.8 395.7,916.5 392.3,908.5 
				400.3,900.5 400.3,890.5 395.7,883.8 405,878.5 413.7,871.2 424.8,852.7 			" />
				<path class="st1" d="M575.7,1062.5l18.7-1.3l4-6.7l-6-11.3l-2-6l13.3-0.7l28,4.7l18.7,1.3l3.3,6l9.3-2l-2-5.3l4-8l0.7-8v-14.7
				l-14-5.3l10.7-14l6.6-8.8l-11.3-1.2l-12,5.3c0,0-9.3,0.7-11.3,0s-5.3-11.3-5.3-11.3l-10-16h8l-6-12.7l-3.3-8l3.3-8.7l-11.3-2.7
				l-7.3-10.7l8-6.7l1.3-12.7" />
				<line class="st1" x1="424.9" y1="844.1" x2="424.8" y2="852.7" />
				<path class="st1" d="M611.7,897.2c0-17.3-32.8-27.2-32.8-27.2l-86.5-29.9l-7.4-11.8" />
				<path class="st1" d="M668.9,982.3l9.9-9.5l7.3,4.7l6.7,18.7l12.7,17.3l6.7,21.3l10,2h8c0,0,1.3-10-1.3-10
				c-2.7,0-11.3-15.3-11.3-15.3l-6.7-9.3l3.3-5.3l-7.3-12l-6-10l-10.7-4l11.3-5.3l3.3-12h7.3l10.7,1.3l16.7,11.3l21.3-3.3l16.7,8.7
				l7.3,14.7v13.3l-6,7.3l-4,7.3l-2.7,17.3l22,9.3l16,7.3l18,10.7l12,8l16,2l8.7-8l4,6l0.6,23.6" />
				<path class="st1" d="M671.7,837.6l2.5-17.4l-10-7.3c0,0,2.7-7.3,2.7-10c0-2.7,0-8,0-8l4.7-16l-13.3-1.3l-10-5.3l5.3-5.3
				c0,0,16-0.7,19.3-0.7c3.3,0,22-1.3,22-1.3l8-19.3l17.3-10l6-4.7l8.7-6l6.4-17.3" />
				<path class="st1" d="M1045.9,975.6c-1-1.3-0.6-7.8-0.6-7.8v-5c0,0,3-3.5,5-3.5s14.5,2.5,14.5,2.5s3.5,5,5,5.5s13,1,13-1
				s0-4.5,1.5-4.5s11.5-4.2,11.5-4.2l5,12.2c0,0,5-6,6,2.5s7,16.5,7,18s-6,21.5-6,21.5l1,8.5l9.5,4c0,0,3.5-0.5,4.5-2.5
				s18-19.5,18-19.5l1.5-8l10-7l18.5,2l8.2,6.2l-10.7,9.8l-7,10l-4,1l-3,18v22l-0.5,20l-6,11.5l-3,14l-12,5l-53.5,7c0,0-16,15-18,15
				s-70.1,9-70.1,9l-62.7-10.2L928,1106l-4.7-19.1l-5-6l1.5-9l4.5-2l1-18.5l0.5-20l0.5-15l-11.5-6.5l-7-1.5l-4.3-9.8l17.8,2.8
				l21-7.5l19.5,6.5l21-4.5l4.5,8.5l9.5-8l7-12.5l7.5-4.5l3-7.5l9-3C1023.3,968.8,1042.7,974.4,1045.9,975.6" />
				<path class="st1" d="M1045.9,975.6c0.4,0.2,0.6,0.2,0.4,0.2C1046.2,975.8,1046,975.7,1045.9,975.6z" />
				<path class="st2" d="M1205,1002.6l10.8-14.8l10.5-7c0,0,3-14.5,3-16s0-12,0-12l-1-16l-2.5-38c0,0-8-4.5-11-5s-3.5-11.5-3.5-11.5
				l2-6.5c0,0,6,0.5,7.5,0s5,0.5,5-1.5s6.5-22.5,6.5-22.5l-2-11.5l0.5-11.5c0,0-15.5-6.5-13.5-8s11-12.5,11-12.5l0.5-8.5l-4.5-5
				l3-12l6-4.5l2.5,14l4.5,5l25,1.5l9,0.5l-3.5,10l-7,3l1.5,7.5l9.5,4l13-3l7.5-2h16.5l3.5,9l18.5,1l1.5-6l12.5,2l14.5-1.5
				l-3.5-11.5l-3.5-2v-6.5l15.5-3l1-2c0,0-3-6-3-8s0-3,2.5-3s11.5-1,13-1s13.5-0.5,13.5-0.5l7.5,6.5l1.5,10.5l14.5,7l12.1-3.1
				l2.2-0.6" />
				<polyline class="st2" points="1179,995.6 1183.3,994.3 1191.6,994.3 1196.8,993.5 			" />
				<polyline class="st2" points="1196.8,993.5 1205,1002.6 1198.8,1016.2 1191.5,1022.8 1195.5,1040.8 1204.2,1054.2 1216.8,1052.2 
				1226.8,1050.2 1235.5,1067.5 1253.5,1070.8 1262.8,1070.8 1256.2,1084.8 1250.2,1086.8 1250.2,1118.1 			" />
				<path class="st2" d="M1095.9,957.6l-9-20.2l18.2-4.5v-12l-4.7-10.5l13.5-9l4.5-13.5v-16.5l17.3-17.3l8.3,27.8c4.5-4.5,9-15,9-15
				l21-18v-19.5l9-4.5l34.5-4" />
				<path class="st1" d="M814.4,396.1l24.4,4.7l15,17l33,12l11-1c0,0,19,0,22,0s29.5-6,29.5-6l9.5-10c0,0-3-6,1-6s10,0,14,0
				s20-3,20-3s-8-13-8-19s16-10,16-10s17,6,16,3s5-26,5-29s2-12,2-12l13.5-8l-22.5-4l-13-12c0,0-14-5-14-8s3-11,5-16s15-10,15-14
				s0-15,0-15l-7-12h-22l-1-9c0,0,3-4,6-5s14-11,14-11l2.4-14.1l0.2-0.9" />
				<path class="st1" d="M1141.3,259.8l17.5,14l17,8l-1,9.5l6,3.5l14-1l3,9l13-1h8c0,0,8,3,11,3s17,0,17,0l12-7c0,0,9,0,12,0
				s13-2,13-2l12.5,3.3l1.5-7.3l3-6l4-6h8c0,0,19,2,19-1s-1-16-1-16s-16-3-20-3s-12-15-12-15l14-7l9-6l5-24l26-7l10.3-16.3l0.6-0.9" />
				<path class="st1" d="M1038.3,328.8l21.5-7h16l6,14l11-5l21,3c0,0-1-11-1-15s7-39,7-39l21.5-20l3.5-20l9-22l11,1l1-13l-8-18l14-18
				l-4-13l1-22l5-16l4-17l18-7l10-5.8l1.6-0.9" />
				<path class="st1" d="M1135.7,854.2l-20.3-30.8l-4.5-15l-9-15l-15-15l-18-10.5l16.5-18l-18-16.5c0,0-21.5-3.1-21.5-7.6
				s14-29.9,14-29.9l7.5-6l3-13.5l-13.5-7.5l-12,18c0,0-13.5-9-18-9c-4.5,0-12,1.5-12,1.5s0-7.5,0-12s0-21,0-21l-20.3-24.5l5.3-15.9
				l9-7.5l10.5,30l16.5,1.5c0,0,16.5-4.5,21-7.5s30-27,30-27l13.5-3h21l27-1.5l12-12l16.5-3l3,16.5h10.5c0,0,4.5,0,10.5,0
				s13.5-15,13.5-15l7.9-4.9l11.6,18.4h15h6l-3,27l-10.5,15l12,10.5l15,28.5l15,16.5l30,21l16.5,19.5l9,3l18-1.5l10.5-3l9,6
				l24.7-1.2l2.4-0.1" />
				<path class="st1" d="M1371.1,429.7l-8.3,12.8l-15,19.5l-24,13.5l-10.5,13.5l-3,12l-4.5,30l-22.5,21l-31.5,22.5
				c-11.7-3.6-11.1-10.9-11.1-10.9l-7.2-6.7l-9.5,1.3l-1.9,14.4" />
				<polyline class="st1" points="1343.4,375 1346.4,406.4 1371.1,429.7 1392.9,425.9 1412.4,439.4 1431.9,439.4 1445.4,439.4 
				1467.9,451.4 1479.9,475.4 1504.1,496 1505,496.7 			" />
				<path class="st1" d="M1296.4,299.1c0,0,15.5,5.3,11,9.8s-19.5,18-19.5,18l10.5,6l21,10.5l12-9l7.5,24l4.5,16.5l27-6l16.5-15
				l37.5-25.5l22.5-34.5l52.1-8.1l2.5-0.4" />
				<path class="st1" d="M1233.7,556.8l-10.8-40l-8,6c0,0-5,2-9,2s-9-8-9-8l14-10l-11-19l13,2c0,0,0-5,0-8s2-8,2-11s-14-5-14-5l-8-5
				l1-19l1-23c0,0,0-10-3-13s-16-14-20-14s-17-10-17-10l1-9l-15,2l-13-22c0,0,2-11,3-8s15,19,15,19l8-14l-15-20l-2-15l19-14l19-9.5" />
				<path class="st1" d="M949.3,422.8l3.5,24l7,6c0,0-7,2-11,2s-15,1-15,1l-13,9v18l-1,12l29-3l2.5,18" />
				<path class="st2" d="M741.3,707.5l-5.4-15.3l7.3-8c0,0,16-6.7,16-7.7s-1-9-2.7-9c-1.7,0-17-4.7-17-4.7l-24-5.7
				c0,0-18.7-7.7-19.7-9.7s-5-12.3-5-12.3l-2-16l9-7h16.3l-14-29.3l-20.3-13.7l22.3-8.3l16-4.7l4.7-10.7l11-7.3l-6.7-18.5l20.7,6.2
				l9,15l14,6c0,0,11,2,15,2s19-7,19-7l-1-12c0,0-5-5,0-6s21,1,21,1h8l3,11l15,3l9,3c0,0-6,5,0,5s13,0,13-3s2-12,2-12l12-3h7h13
				c0,0,4,0,7,0s6-2,10-3s13-9,16-9s11.5-7,11.5-7l8.5,12l-2,12l16,25l-7,3l-2,28l-1,14l30.8,18" />
				<path class="st2" d="M397.3,567.6l5.5,25.2l4.7,31.3c0,0,9.3,23.3,9.3,25.3s4,16.7,4,16.7l38,39.3l20,7.3l14,6.7l4.7,23.3
				L488,780" />
				<polyline class="st1" points="578.9,870 608.8,862.2 649.5,852.2 671.7,837.6 			" />
				<polyline class="st2" points="741.3,707.5 770.8,721.8 783.8,735.8 823.8,732.8 851.8,753.8 847.8,769.8 867.5,792.8 			" />
				<path class="st1" d="M903.6,998.6l3.3-11.8l9-30l25-5l3-17l23-16l-12-15l-14-24l-17-13l-15-19c0,0-10-11-13-13s-17-12-17-12
				l-11.3-30l13.3-24l-3-10l17-13l3-18l22-16l36,9l33-5l16-10l5,15l15-11l21.1,16" />
				<polyline class="st1" points="671.7,837.6 679.5,850.2 727.5,850.2 758.8,846.8 765.5,852.2 786.2,866.2 825.5,860.2 
				841.5,837.5 848.2,827.5 861.5,809.5 867.5,792.8 			" />
			</g>
		</g>
	</g>
</svg>