<?xml version="1.0" encoding="utf-8"?>
<!-- Generator: Adobe Illustrator 22.1.0, SVG Export Plug-In . SVG Version: 6.00 Build 0)  -->
<svg version="1.1" id="Слой_1" xmlns="http://www.w3.org/2000/svg" xmlns:xlink="http://www.w3.org/1999/xlink" x="0px" y="0px"
	 viewBox="0 0 426 341.1" style="enable-background:new 0 0 426 341.1;" xml:space="preserve">
<g>
	<path d="M426,77.3c-1.6,2-2.8,4.6-4.8,6c-7,5-16.1,0.1-16.5-9c-0.3-7.3-0.1-14.7-0.1-22c0-10.1,0-20.2,0-30.8c-1.8,0-3.3,0-4.7,0
		c-15.7,0-31.3,0-47,0c-4.3,0-8-1.2-10.4-5c-2.2-3.4-2.3-7.1-0.5-10.7c2-3.9,5.5-5.7,9.9-5.8c6.9-0.1,13.9,0,20.8,0
		c13.2,0,26.3,0.2,39.5-0.1c6.6-0.1,11.3,2,13.8,8.3C426,31.3,426,54.3,426,77.3z"/>
	<path d="M426,332.8c-2.5,6.3-7.2,8.4-13.8,8.3c-19.8-0.2-39.6,0-59.4-0.1c-6.8,0-11.4-3.9-11.8-9.7c-0.5-6.8,4.1-11.6,11.6-11.6
		c15.7-0.1,31.3,0,47,0c1.5,0,3,0,5,0c0.1-1.7,0.2-3.2,0.2-4.7c0-15.7-0.1-31.3,0-47c0.1-8.7,6.7-14.5,13.9-11.5
		c3,1.2,5,4.7,7.4,7.2C426,286.7,426,309.8,426,332.8z"/>
	<path d="M149.1,170.6c0,31,0,62.1,0,93.1c0,9.6-3.7,13.3-13.3,13.3c-5.3,0-10.5,0-15.8,0c-9.6,0-13.4-3.8-13.4-13.2
		c0-42.3,0-84.5,0-126.8c0-20.1,0-40.2,0-60.3c0-8.6,4-12.6,12.7-12.6c5.7,0,11.4,0,17,0c8.8,0,12.7,3.9,12.7,12.6
		C149.1,108,149.1,139.3,149.1,170.6z"/>
	<path d="M255.6,170.7c0,31,0,62.1,0,93.1c0,9.4-3.8,13.2-13,13.2c-5.7,0-11.4,0-17,0c-8.4,0-12.5-4.1-12.5-12.5
		c0-55.3,0-110.6,0-165.9c0-7.6,0-15.2,0-22.9c0.1-7.4,4.3-11.6,11.6-11.7c6.4-0.1,12.8-0.1,19.1,0c7.6,0.1,11.8,4.2,11.8,11.9
		C255.6,107.5,255.6,139.1,255.6,170.7z"/>
	<path d="M362.1,170.7c0,31,0,62.1,0,93.1c0,9.4-3.8,13.2-13,13.2c-6,0-11.9,0.1-17.9,0c-7.3-0.1-11.6-4.3-11.6-11.7
		c0-63.2,0-126.4,0-189.6c0-7.4,4.3-11.6,11.6-11.7c6.4-0.1,12.8-0.1,19.1,0c7.6,0.1,11.8,4.2,11.8,11.9
		C362.1,107.5,362,139.1,362.1,170.7z"/>
	<path d="M64,170.1c0-30.9,0-61.8,0-92.8c0-1.9,0-3.9,0.5-5.8c1.3-4.8,6.2-8,11.1-7.5c5,0.5,8.9,4.4,9.4,9.5c0.2,1.7,0.1,3.3,0.1,5
		c0,61.3,0,122.6,0,183.8c0,1.5,0,3.1-0.1,4.6c-0.5,5.9-5.1,10.1-10.7,10c-5.6-0.1-10.2-4.5-10.3-10.4C63.9,253,64,239.4,64,225.8
		C64,207.3,64,188.7,64,170.1z"/>
	<path d="M170.5,170.5c0-31.1,0-62.1,0-93.2c0-1.9,0-3.9,0.5-5.8c1.3-4.8,6.2-8,11.1-7.5c5,0.5,8.9,4.4,9.4,9.5
		c0.2,1.7,0.1,3.3,0.1,5c0,61.3,0,122.6,0,183.8c0,1.5,0,3.1-0.1,4.6c-0.5,5.9-5,10.1-10.7,10c-5.7-0.1-10.2-4.5-10.3-10.4
		c-0.2-12.9-0.1-25.8-0.1-38.7C170.5,208.8,170.5,189.7,170.5,170.5z"/>
	<path d="M277,170.5c0-31.1,0-62.1,0-93.2c0-1.9,0-3.9,0.5-5.8c1.3-4.8,6.2-8,11.1-7.5c5,0.5,8.9,4.4,9.4,9.5c0.2,1.7,0.1,3.3,0.1,5
		c0,61.3,0,122.6,0,183.8c0,1.5,0,3.1-0.1,4.6c-0.5,5.9-5,10.1-10.7,10c-5.6-0.1-10.2-4.5-10.3-10.4c-0.2-12.9-0.1-25.8-0.1-38.7
		C277,208.8,277,189.7,277,170.5z"/>
	<path d="M21.4,21.5c0,4.7,0,9,0,13.3c0,12.8,0.1,25.5,0,38.3c0,7.3-4,12-10.2,12.3c-5.8,0.3-11-4.1-11-10.1C0,53.5,0,31.9,0.1,10.3
		c0-6,4.6-10.1,11-10.2C32,0,53,0,73.9,0.1c6.8,0,11.3,4.6,11.2,10.8c-0.1,6.2-4.6,10.5-11.4,10.6c-15.8,0.1-31.6,0-47.4,0
		C24.8,21.5,23.3,21.5,21.4,21.5z"/>
	<path d="M21.4,319.6c17.2,0,33.7,0,50.1,0c2.1,0,4.2,0.1,6.2,0.6c4.7,1.3,7.5,5.4,7.4,10.3c-0.1,4.7-2.9,8.6-7.5,9.8
		c-1.7,0.5-3.5,0.6-5.3,0.6c-19.8,0-39.6,0-59.5,0C4.1,341,0,336.9,0,328.3c0-20.5,0-41,0-61.5c0-5.8,3.6-10,8.9-10.8
		c4.8-0.8,9.8,1.8,11.4,6.3c0.8,2.2,0.9,4.6,0.9,6.9c0.1,15.1,0,30.2,0,45.3C21.4,316.1,21.4,317.6,21.4,319.6z"/>
</g>
</svg>
